/* XPM */
static char *result[] = {
/* columns rows colors chars-per-pixel */
"45 45 167 2 ",
"   c black",
".  c #010100",
"X  c #020000",
"o  c #030200",
"O  c #2D2201",
"+  c #2D2400",
"@  c #2F2400",
"#  c #2F2402",
"$  c #2F2403",
"%  c #302400",
"&  c #302401",
"*  c #3F3000",
"=  c #3F3004",
"-  c #403000",
";  c #937406",
":  c #AD8707",
">  c #B38800",
",  c #B38900",
"<  c #B38A00",
"1  c #B48800",
"2  c #B48900",
"3  c #B68B00",
"4  c #B48C05",
"5  c #B58C05",
"6  c #B58C06",
"7  c #B48C07",
"8  c #B08608",
"9  c #BF9208",
"0  c #BE9209",
"q  c #BD9608",
"w  c #BC960A",
"e  c #BD920D",
"r  c #CA8700",
"t  c #C88702",
"y  c #CB8702",
"u  c #CD8700",
"i  c #CE8700",
"p  c #CF8700",
"a  c #CD8800",
"s  c #CD8900",
"d  c #CE8800",
"f  c #CF8800",
"g  c #CE8900",
"h  c #CD8A00",
"j  c #CD8B00",
"k  c #CE8B00",
"l  c #C19100",
"z  c #C39300",
"x  c #C39400",
"c  c #C39500",
"v  c #C49400",
"b  c #C59500",
"n  c #C69600",
"m  c #C69604",
"M  c #C49805",
"N  c #C59B05",
"B  c #C49806",
"V  c #C5980A",
"C  c #D59100",
"Z  c #D59300",
"A  c #D79400",
"S  c #D89600",
"D  c #E7AC00",
"F  c #E9AB00",
"G  c #E8AC00",
"H  c #E9AC00",
"J  c #E8AD00",
"K  c #EAAF00",
"L  c #EBAF00",
"P  c #ECAF00",
"I  c #EAB000",
"U  c #EDB700",
"Y  c #EFB601",
"T  c #EEB705",
"R  c #EEB801",
"E  c #EEB902",
"W  c #EEB804",
"Q  c #EFB804",
"!  c #F0B600",
"~  c #F2B700",
"^  c #F3B700",
"/  c #F3B701",
"(  c #F4B700",
")  c #F0B800",
"_  c #F1B800",
"`  c #F1B900",
"'  c #F1B801",
"]  c #F2B800",
"[  c #F3B800",
"{  c #F2B900",
"}  c #F3B900",
"|  c #F3B801",
" . c #F2B901",
".. c #F1BA00",
"X. c #F0B902",
"o. c #F2B802",
"O. c #F3B802",
"+. c #F2B803",
"@. c #F4B800",
"#. c #F5B800",
"$. c #F4B900",
"%. c #F5B900",
"&. c #F4B801",
"*. c #F6B900",
"=. c #F4BA00",
"-. c #F5BA00",
";. c #F4BB00",
":. c #F4BA01",
">. c #F4BB01",
",. c #F4BA02",
"<. c #F4BA03",
"1. c #F4BC00",
"2. c #F5BC03",
"3. c #F0B904",
"4. c #F2B806",
"5. c #D69D2B",
"6. c #D69E2E",
"7. c #D69E30",
"8. c #F1C72F",
"9. c #F3C530",
"0. c #F4C530",
"q. c #D8A540",
"w. c #D9A541",
"e. c #DDB25B",
"r. c #EDCA40",
"t. c #F3CA40",
"y. c #F4C940",
"u. c #F4C941",
"i. c #EADBB1",
"p. c #EADAB9",
"a. c #F4E7B6",
"s. c #F5E7B6",
"d. c #F5E7B9",
"f. c #EDE2C6",
"g. c #F5EBC6",
"h. c #F3ECC5",
"j. c #F4ECC7",
"k. c #F5EBC8",
"l. c #F4EBC9",
"z. c #F5EBC9",
"x. c #F4F8E7",
"c. c #F4F6EE",
"v. c #F7F9EE",
"b. c #F3F7F6",
"n. c #F4F7F5",
"m. c #F4F7F6",
"M. c #F5F7F6",
"N. c #F6F7F7",
"B. c #F3F8F3",
"V. c #F5F8F1",
"C. c #F1F8F6",
"Z. c #F3F8F6",
"A. c #F4F8F5",
"S. c #F4F8F6",
"D. c #F5F8F6",
"F. c #F4F8F7",
"G. c #F5F8F7",
"H. c #F6F8F6",
"J. c #F6F8F7",
"K. c #F2F8F8",
"L. c #F3F9F8",
"P. c #F3F9F9",
"I. c #F4F8F8",
"U. c #F4F9F8",
"Y. c #F6F8F8",
"T. c #F7F8F8",
"R. c None",
/* pixels */
"R.R.R.R.R.R.R.R.R.R.R.R.R.R.R.R.R..                       R.R.R.R.R.R.R.R.R.R.R.R.R.R.R.R.",
"R.R.R.R.R.R.R.R.R.R.R.R.R.R.R.R.R..                       R.R.R.R.R.R.R.R.R.R.R.R.R.R.R.R.",
"R.R.R.R.R.R.R.R.R.R.R.R.R.R.R.R.R..                       R.R.R.R.R.R.R.R.R.R.R.R.R.R.R.R.",
"R.R.R.R.R.R.R.R.R.R.R.R.R.R.R.R.R..                       R.R.R.R.R.R.R.R.R.R.R.R.R.R.R.R.",
"R.R.R.R.R.R.R.R.R.R.R.R.R.        l 1 v v 1 x x > x x > z         R.R.R.R.R.R.R.R.R.R.R.R.",
"R.R.R.R.R.R.R.R.R.R.R.R.R.        Y [ [ [ [ ] ] ] ] ] ] [         R.R.R.R.R.R.R.R.R.R.R.R.",
"R.R.R.R.R.R.R.R.R.R.R.R.R.        Q $.$.} [ [ [ [ ] ] [ [         R.R.R.R.R.R.R.R.R.R.R.R.",
"R.R.R.R.R.R.R.R.R.R.R.R.R.        E $.$.} [ [ [ [ ] ] [ [         R.R.R.R.R.R.R.R.R.R.R.R.",
"R.R.R.R.R.R.R.R.R.R.R.R.R.+ % - % 8.t.0.0.F P P H ~ ] [ } @ * @ @ R.R.R.R.R.R.R.R.R.R.R.R.",
"R.R.R.R.R.R.R.R.R.        3 %.-.%.c.M.G.V.r s g s H } } } } } } }         R.R.R.R.R.R.R.R.",
"R.R.R.R.R.R.R.R.R.        n -.%.%.M.M.M.N.t a a a P } } } } } { {         R.R.R.R.R.R.R.R.",
"R.R.R.R.R.R.R.R.R.        b =.%.$.M.M.M.J.y a a a L } } } { { { {         R.R.R.R.R.R.R.R.",
"R.R.R.R.R.R.R.R.R.. o X X 2 { { { M.M.M.v.i a a d H } } } { { } } X X X X R.R.R.R.R.R.R.R.",
"R.R.R.R.R.        %.%.*.#.l.J.Y.T.d d i i i d d d d d d a } { } } { { { } #         R.R.R.",
"R.R.R.R.R.        %.%.%.#.k.Y.Y.T.d d d i i i d d d d a a } } } } { { { } $         R.R.R.",
"R.R.R.R.R.        %.#.#.#.d.Y.T.T.d d d f p i i a a a a a } } [ [ ] } } } =         R.R.R.",
"R.        e : w q s.g.g.s.e.7.w.7.d d f f H I I J I K G K Z S Z Z ] { } } m 0 8 9 ; . . . ",
"R.        %.} $.$.M.M.M.M.7.d d d d d f f { ......` ` ` { i d d a { { } } [ [ [ } V . . . ",
"R.        #.@.$.$.M.M.M.M.q.d d d d d f f ` ` ` ` ` { { { u i u u } { { { [ [ [ [ 6       ",
"R.        #.@.$.$.x.D.H.H.6.d d f f d f f ` ` ` ` ` ] { } i d d i { ] ] ] ] ] [ [ M       ",
"R.        #.@.$.$.i.f.f.p.5.d d i i i f f D K K G _ ] { } C A C C H L L H ~ ] [ [ B       ",
"R.        $.} [ @.f i i i i d i d d d f f f f f f H { { ] ] [ [ [ f f f f H ] [ [ 5       ",
"R.        $.} [ [ f d i i i i i i i d d i f p p i L { } [ [ [ [ [ f f f d L ] [ [ B       ",
"R.        $.} [ [ f i i i i i i i i d d d i i i i L { } [ [ [ [ [ f f i d L ] [ [ B       ",
"R.        $.} ] ] i i i i i i i u d d d d i i i i H { [ [ 4.' R R f i i i F ] [ [ 4       ",
"R.        $.} ] ] { { { { { { { [ h d a a ] { { { [ [ [ | L.F.I.F.$.} } } ] ] [ [ M       ",
"R.        $.} { ] { { { { { { { [ j a a a [ ] { } [ [ [ O.P.F.F.F.$.$.} } ] ] [ [ M       ",
"R.        =.} } } } } } ] { { [ [ k s a s [ [ [ } } [ @.&.U.F.F.F.$.$.} } } } } } 7       ",
"R.        2.;.;.;.} } } { { { ] ] d a a a ] [ [ [ [ ' / / B.F.F.F.} } } } <.>.;.1.N       ",
"R.R.R.R.R.        ,.} } } ] ] ] ] ] ] { { ] [ [ [ h.b.m.S.o.} } } } } } } &         R.R.R.",
"R.R.R.R.R.        :.} } { ] ] ] ] ] ] } } [ [ @.@.a.S.m.A.( @.$.$.} [ $.$.=         R.R.R.",
"R.R.R.R.R.        :.{ { { { { { ] ] [ } } } } $.@.j.S.n.A.( @.$.$.[ [ [ $.&         R.R.R.",
"R.R.R.R.R.        3.X.X.) } { { { { } } } u.9.0.y.z.M.M.M.| @.$.} 1 v b 1 O         R.R.R.",
"R.R.R.R.R.R.R.R.R.        , { { { } [ } [ M.M.M.M.r.$.@.@.@.@.[ [         R.R.R.R.R.R.R.R.",
"R.R.R.R.R.R.R.R.R.        c  .{ [ [ [ } } C.S.S.S.9.$.@.@.@.@.[ [         R.R.R.R.R.R.R.R.",
"R.R.R.R.R.R.R.R.R.        c { ] ] [ [ } } Z.A.S.S.0.$.$.$.@.@.[ [         R.R.R.R.R.R.R.R.",
"R.R.R.R.R.R.R.R.R.        < { ] ] ] } } } K.F.F.F.y.@.$.$.$.@.@.[         R.R.R.R.R.R.R.R.",
"R.R.R.R.R.R.R.R.R.R.R.R.R.        ! $.} } 4.O.+.+.[ [ [ [         R.R.R.R.R.R.R.R.R.R.R.R.",
"R.R.R.R.R.R.R.R.R.R.R.R.R.        T $.} } [ [ [ [ [ [ @.@.        R.R.R.R.R.R.R.R.R.R.R.R.",
"R.R.R.R.R.R.R.R.R.R.R.R.R.        W } $.$.$.$.$.} } } [ ^         R.R.R.R.R.R.R.R.R.R.R.R.",
"R.R.R.R.R.R.R.R.R.R.R.R.R.        U } $.$.$.$.$.$.} } } [         R.R.R.R.R.R.R.R.R.R.R.R.",
"R.R.R.R.R.R.R.R.R.R.R.R.R.R.R.R.R..                       R.R.R.R.R.R.R.R.R.R.R.R.R.R.R.R.",
"R.R.R.R.R.R.R.R.R.R.R.R.R.R.R.R.R..                       R.R.R.R.R.R.R.R.R.R.R.R.R.R.R.R.",
"R.R.R.R.R.R.R.R.R.R.R.R.R.R.R.R.R..                       R.R.R.R.R.R.R.R.R.R.R.R.R.R.R.R.",
"R.R.R.R.R.R.R.R.R.R.R.R.R.R.R.R.R..                       R.R.R.R.R.R.R.R.R.R.R.R.R.R.R.R."
};
