/* XPM */
static char *result[] = {
/* columns rows colors chars-per-pixel */
"45 45 190 2 ",
"   c black",
".  c #010000",
"X  c #000001",
"o  c #000101",
"O  c #010101",
"+  c #020000",
"@  c #030000",
"#  c #020202",
"$  c #000008",
"%  c #2C2200",
"&  c #2D2200",
"*  c #2C2300",
"=  c #2D2300",
"-  c #2E2301",
";  c #2D2401",
":  c #2F2400",
">  c #302400",
",  c #302500",
"<  c #302501",
"1  c #332400",
"2  c #352400",
"3  c #342401",
"4  c #3F3000",
"5  c #3F3001",
"6  c #423000",
"7  c #433000",
"8  c #403002",
"9  c #403102",
"0  c #413104",
"q  c #5B4500",
"w  c #5A4501",
"e  c #5C4700",
"r  c #5D4704",
"t  c #AE8C00",
"y  c #B08700",
"u  c #B38700",
"i  c #B08900",
"p  c #B38900",
"a  c #B38801",
"s  c #B28901",
"d  c #B08A00",
"f  c #B38B00",
"g  c #B48800",
"h  c #B48900",
"j  c #B58900",
"k  c #B48A00",
"l  c #B58A00",
"z  c #B58B00",
"x  c #B58A02",
"c  c #B38C02",
"v  c #B48C00",
"b  c #B58904",
"n  c #BE9500",
"m  c #BF9600",
"M  c #CD8700",
"N  c #CE8700",
"B  c #CF8700",
"V  c #CD8800",
"C  c #CD8900",
"Z  c #CE8800",
"A  c #CF8800",
"S  c #CE8900",
"D  c #CF8900",
"F  c #CF8801",
"G  c #CE8A00",
"H  c #CF8A00",
"J  c #CF8B00",
"K  c #C09500",
"L  c #C39400",
"P  c #C39500",
"I  c #C09600",
"U  c #C29600",
"Y  c #C39600",
"T  c #C39700",
"R  c #C39403",
"E  c #C49400",
"W  c #C49500",
"Q  c #C49600",
"!  c #C49601",
"~  c #C69601",
"^  c #C69602",
"/  c #D49100",
"(  c #D59100",
")  c #D69100",
"_  c #D49200",
"`  c #D59200",
"'  c #D49300",
"]  c #D69300",
"[  c #D79400",
"{  c #D79500",
"}  c #D89400",
"|  c #E8AA00",
" . c #E9AC00",
".. c #E9AD00",
"X. c #EAAD00",
"o. c #EBAF00",
"O. c #ECAF00",
"+. c #EBB700",
"@. c #ECB500",
"#. c #EFB704",
"$. c #EBB800",
"%. c #EBB801",
"&. c #EDB800",
"*. c #EFB800",
"=. c #F2B700",
"-. c #F3B701",
";. c #F0B702",
":. c #F0B704",
">. c #F1B800",
",. c #F2B800",
"<. c #F3B800",
"1. c #F2B900",
"2. c #F3B900",
"3. c #F2BA00",
"4. c #F3BA00",
"5. c #F4B800",
"6. c #F5B800",
"7. c #F4B900",
"8. c #F5B900",
"9. c #F4BA00",
"0. c #F5BA00",
"q. c #F0BC00",
"w. c #F1BC00",
"e. c #F2BC00",
"r. c #F1B807",
"t. c #F1B907",
"y. c #F1BD06",
"u. c #F0B70A",
"i. c #F4BB0B",
"p. c #F4BB0E",
"a. c #F4C52F",
"s. c #F3C430",
"d. c #F2C530",
"f. c #F3C940",
"g. c #F4C940",
"h. c #F5C844",
"j. c #B7B8B8",
"k. c gray72",
"l. c #B8B8B9",
"z. c #C4BC9A",
"x. c #C6BC9A",
"c. c #EADCB8",
"v. c #F3E7B6",
"b. c #F4E8B8",
"n. c #C8C7C9",
"m. c #C6C8C8",
"M. c #C7C8C8",
"N. c #C8C8C8",
"B. c #C8C8C9",
"V. c #EEE2C5",
"C. c #EFE2C5",
"Z. c #EDE3C8",
"A. c #F2EBC2",
"S. c #F3EBC4",
"D. c #F2EBC5",
"F. c #F5ECC8",
"G. c #F4EDC8",
"H. c #F5EDC8",
"J. c #F6ECC8",
"K. c #F3F7F3",
"L. c #F4F7F3",
"P. c #F3F7F5",
"I. c #F3F7F6",
"U. c #F3F7F7",
"Y. c #F4F8F3",
"T. c #F6FDF2",
"R. c #F4F8F5",
"E. c #F6F9F4",
"W. c #F5FAF4",
"Q. c #F5FAF5",
"!. c #F6FAF4",
"~. c #F5F8F6",
"^. c #F4F8F7",
"/. c #F5F8F7",
"(. c #F6F9F6",
"). c #F6F9F7",
"_. c #F3F9F9",
"`. c #F4F9F8",
"'. c #F5F9F8",
"]. c #F4F9F9",
"[. c #F6F8F8",
"{. c #F6F9F8",
"}. c #F7F9F8",
"|. c #F6F8F9",
" X c #F7F9F9",
".X c #F4F9FA",
"XX c #F8F8F9",
"oX c #F8F9F9",
"OX c #F9F9F9",
"+X c None",
/* pixels */
"+X+X+X+X+X+X+X+X+X+X+X+X+X+X+X                                  +X+X+X+X+X+X+X+X+X+X+X+X+X",
"+X+X+X+X+X+X+X+X+X+X+X+X+X+X+X                                  +X+X+X+X+X+X+X+X+X+X+X+X+X",
"+X+X+X+X+X+X+X+X+X+X+X+X+X+X+X                                  +X+X+X+X+X+X+X+X+X+X+X+X+X",
"+X+X+X+X+X+X+X+X+X+X+X+X+X+X+X                                  +X+X+X+X+X+X+X+X+X+X+X+X+X",
"+X+X+X+X+X+X+X+X+X+X+X+X      c Q Q l =       - j W W j W W h n         +X+X+X+X+X+X+X+X+X",
"+X+X+X+X+X+X+X+X+X+X+X+X      w.2.2.2.:       : 2.2.2.2.2.2.2.$.        +X+X+X+X+X+X+X+X+X",
"+X+X+X+X+X+X+X+X+X+X+X+X      w.1.2.2.4       4 2.2.2.<.2.2.,.%.        +X+X+X+X+X+X+X+X+X",
"+X+X+X+X+X+X+X+X+X+X+X+X      w.<.<.2.:       > 7.<.<.<.2.2.1.+.        +X+X+X+X+X+X+X+X+X",
"+X+X+X+X+X+X+X+X+X+X+X+X4 : : v L R a w : 4 > r f.s.s.f.O.O. .@.: 4 : & +X+X+X+X+X+X+X+X+X",
"+X+X+X+X+X+X+X        6 2.1.1.+       z 9.9.9.g.^.R.Y.Q.V V Z  .<.1.1.p       O +X+X+X+X+X",
"+X+X+X+X+X+X+X        2 7.<.<.+       ^ 0.8.8.d././.~.W.V V C O.<.,.,.L       o +X+X+X+X+X",
"+X+X+X+X+X+X+X        1 7.7.5.+       ~ 0.8.8.a./././.!.V V S O.<.,.,.L       X +X+X+X+X+X",
"+X+X+X+X+X+X+X        0 p.p.i.. $     s r.r.t.h.(.E.E.T.V V S  .<.,.,.u         +X+X+X+X+X",
"+X+X+X+X      N.OXoXXXn.      w.7.7.7.G.'.'.[.V.M M M M Z Z Z S S S S ` ,.2.2.,.      +X+X",
"+X+X+X+X      N.OXoXXXN.      w.7.7.7.G.'.{.[.C.M V M M Z Z Z S S S S ` ,.2.1.,.      +X+X",
"+X+X+X+X      k.oXoXoXk.      w.2.7.7.b.'.'.'.c.V V V Z V Z Z S S S S { <.,.,.,.      +X+X",
"+X+X+X+X      N.oXoXoXN.      w.2.7.7.H.'.'.'.Z.V V Z Z C G D J J H J ] ,.,.,.,.      +X+X",
"+X+X+X+X      N.oX}.oXB.      w.2.2.<.) B F Z Z V V V V >.>.,.,.,.,.,.,.,.,.,.,.      +X+X",
"+X+X+X+X      j. X}. Xl.      q.2.2.<.} A A Z Z Z V V V 1.1.,.,.,.,.,.,.,.,.,.,.      +X+X",
"+X+X+X+X      m.{.).|.M.      q.1.2.<.) A A Z Z Z V V V 1.1.2.,.,.,.,.,.1.,.,.,.      +X+X",
"+X+X+X+X      x.J.b.G.z.      q.1.1.,.) A Z Z Z { _ _ [ o.o. .,.,.,.,.,.,.,.,.,.      +X+X",
"+X+X+X+X      j 6.5.7.f       q.1.1.,.} Z N N [ 1.1.1.2.N N N | ,.,.,.,.,.,.,.,.      +X+X",
"+X+X+X+X      W 7.7.2.Y       q.1.1.,.( Z N M / 2.2.2.2.M M Z ..,.<.,.,.,.,.,.,.      +X+X",
"+X+X+X+X      W 7.2.2.Y       w.1.1.,.( Z N M / 2.2.2.2.M M N X.,.<.,.,.,.,.,.,.      +X+X",
"+X+X+X+X      h 2.2.1.f       w.1.1.,.[ Z Z M [ 2.2.2.2.M M M | =.<.-.,.1.,.,.,.      +X+X",
"+X+X+X+X      W 2.1.1.U       w.1.1.,.( Z Z V / 2.1.1.1.2.2.2.F.K.P.P.A.,.,.,.,.      +X+X",
"+X+X+X+X      W 2.1.1.U       w.1.1.,.( Z Z V _ <.,.2.2.2.2.<.F.P.P.P.D.,.,.,.,.      +X+X",
"+X+X+X+X      h 2.1.1.f       w.1.1.,.{ S V C { 2.2.2.2.2.2.<.b.U.U.U.v.<.,.,.,.      +X+X",
"+X+X+X+X      W 2.1.1.U       w.1.1.,.` C C C ' ,.<.2.2.2.7.7.F.L.U.I.S.,.,.,.,.      +X+X",
"+X+X+X+X      W 2.1.1.U       w.1.1.,.,.,.,.,.,.,.<.<.;..X].].'.2.2.<.<.2.,.,.,.      +X+X",
"+X+X+X+X      h 2.1.1.f       w.1.1.,.,.,.,.,.,.<.<.<.:.].].`.'.9.2.2.2.2.,.,.,.      +X+X",
"+X+X+X+X      E <.2.1.T       e.1.,.,.1.1.1.1.2.2.<.<.#.].].`.'.9.2.2.2.,.<.,.,.      +X+X",
"+X+X+X+X      Q <.2.1.U       q.,.<.,.1.1.1.1.1.2.<.<.u.].]._.'.4.2.2.1.,.<.<.,.      +X+X",
"+X+X+X+X+X+X+X        7 3.3.3.@       b 2.2.1.2.2.<.<.2.,.<.2.2.4.4.2.k       . +X+X+X+X+X",
"+X+X+X+X+X+X+X        3 1.1.2.+       ! 4.2.1.2.2.2.2.<.2.2.2.2.4.2.1.P       O +X+X+X+X+X",
"+X+X+X+X+X+X+X        2 1.2.2.+       Q 4.4.4.2.2.2.2.<.2.2.2.4.4.4.1.P       O +X+X+X+X+X",
"+X+X+X+X+X+X+X        7 2.2.2..       x 4.4.4.4.2.2.2.<.2.2.2.4.4.4.4.h         +X+X+X+X+X",
"+X+X+X+X+X+X+X+X+X+X+X+X8 < < v W W h q < 9 < e 2.2.2.<.<.2.<.*.< 9 , ; +X+X+X+X+X+X+X+X+X",
"+X+X+X+X+X+X+X+X+X+X+X+X      q.2.2.<.:       : 2.2.2.<.<.<.<.&.        +X+X+X+X+X+X+X+X+X",
"+X+X+X+X+X+X+X+X+X+X+X+X      q.1.2.<.4       5 2.2.2.2.2.2.2.&.        +X+X+X+X+X+X+X+X+X",
"+X+X+X+X+X+X+X+X+X+X+X+X      y.2.2.2.>       < 2.2.2.2.2.2.<.<.        +X+X+X+X+X+X+X+X+X",
"+X+X+X+X+X+X+X+X+X+X+X+X      t I I i *       % y K m d m m g E       # +X+X+X+X+X+X+X+X+X",
"+X+X+X+X+X+X+X+X+X+X+X+X+X+X+X                                  +X+X+X+X+X+X+X+X+X+X+X+X+X",
"+X+X+X+X+X+X+X+X+X+X+X+X+X+X+X                                  +X+X+X+X+X+X+X+X+X+X+X+X+X",
"+X+X+X+X+X+X+X+X+X+X+X+X+X+X+X                                  +X+X+X+X+X+X+X+X+X+X+X+X+X"
};
