/* XPM */
static char *_8eecd506ca74febe6c82d6ff433c5afz1WPrmupJBoDdyu4[] = {
/* columns rows colors chars-per-pixel */
"15 18 232 2 ",
"   c None",
".  c #2F2C00",
"X  c #3C2400",
"o  c #3A2706",
"O  c #3B2A00",
"+  c #3F2900",
"@  c #3F2B00",
"#  c #3A2D00",
"$  c #3B2D00",
"%  c #392E01",
"&  c #3F2C00",
"*  c #3F2E00",
"=  c #3E2A07",
"-  c #382F04",
";  c #3A250A",
":  c #3C2908",
">  c #3D3010",
",  c #402800",
"<  c #402900",
"1  c #422900",
"2  c #432A00",
"3  c #432B00",
"4  c #452900",
"5  c #442B00",
"6  c #422F00",
"7  c #432E01",
"8  c #442D00",
"9  c #472C00",
"0  c #472E00",
"q  c #413000",
"w  c #453100",
"e  c #463000",
"r  c #433005",
"t  c #4D3000",
"y  c #CF9C0B",
"u  c #CF9A0C",
"i  c #CD9D0D",
"p  c #D09E07",
"a  c #D59B0B",
"s  c #D39C0B",
"d  c #D09D0C",
"f  c #D39F0E",
"g  c #CF9E11",
"h  c #CD9814",
"j  c #CDA00F",
"k  c #D0A10D",
"l  c #D3A10E",
"z  c #D3A615",
"x  c #DBAE17",
"c  c #D6A01A",
"v  c #DFA61B",
"b  c #DBA71D",
"n  c #D7A81A",
"m  c #DBA81B",
"M  c #DFAB1A",
"N  c #DBAA1F",
"B  c #DDA81E",
"V  c #DEAB1E",
"C  c #DBAE1F",
"Z  c #DCAC1C",
"A  c #E3AC13",
"S  c #E5AC15",
"D  c #E8AB15",
"F  c #E2A71F",
"G  c #E0A91B",
"H  c #E0AD1E",
"J  c #E6AE1D",
"K  c #E5B11F",
"L  c #E3B61D",
"P  c #ECB31E",
"I  c #EBB41C",
"U  c #F0B51D",
"Y  c #D9A424",
"T  c #DEA821",
"R  c #DDAE24",
"E  c #DEB326",
"W  c #DEBA28",
"Q  c #C2A339",
"!  c #C6A63F",
"~  c #CCA03D",
"^  c #C5A93C",
"/  c #D0A437",
"(  c #D6A637",
")  c #DAB936",
"_  c #DCBA3F",
"`  c #E1A920",
"'  c #E2B325",
"]  c #E1B226",
"[  c #EAB124",
"{  c #E9B224",
"}  c #E9B627",
"|  c #EFB827",
" . c #EEBC27",
".. c #E2B128",
"X. c #E4B72A",
"o. c #E8B029",
"O. c #EDB52C",
"+. c #E3B82B",
"@. c #EFBA2E",
"#. c #EABD2E",
"$. c #E9BF2F",
"%. c #F0B627",
"&. c #F5BB2B",
"*. c #F4BE2A",
"=. c #E2B035",
"-. c #E4B736",
";. c #E1BD31",
":. c #E4BE35",
">. c #E1B33B",
",. c #E7BE3E",
"<. c #ECBB3B",
"1. c #ECBF3E",
"2. c #F3C227",
"3. c #F2C02B",
"4. c #F1C22A",
"5. c #F0C12D",
"6. c #F4C02E",
"7. c #F5C32E",
"8. c #FAC129",
"9. c #FBC32E",
"0. c #F8C52E",
"q. c #ECC232",
"w. c #EFC233",
"e. c #EBC439",
"r. c #EFC83D",
"t. c #F0C030",
"y. c #F1C033",
"u. c #F7C332",
"i. c #F1C435",
"p. c #F6C636",
"a. c #F4C039",
"s. c #F7C03F",
"d. c #BCA34F",
"f. c #BCA056",
"g. c #BEA555",
"h. c #BCA557",
"j. c #BBA55A",
"k. c #BEA35E",
"l. c #C7A544",
"z. c #CCA641",
"x. c #CCA847",
"c. c #CAAD47",
"v. c #C0A74B",
"b. c #C6A74D",
"n. c #C8A348",
"m. c #CBA248",
"M. c #C8A34B",
"N. c #CEA549",
"B. c #CDA44A",
"V. c #CBAD4D",
"C. c #D7AE42",
"Z. c #CCB045",
"A. c #CCB34C",
"S. c #C1A551",
"D. c #C4A451",
"F. c #CBA751",
"G. c #C1A951",
"H. c #C2AA52",
"J. c #C7A953",
"K. c #C5AD55",
"L. c #CFAA52",
"P. c #CBA857",
"I. c #C9AA57",
"U. c #C2A058",
"Y. c #CAA658",
"T. c #CCA85A",
"R. c #CFAC58",
"E. c #CDB054",
"W. c #E8B643",
"Q. c #EDBC43",
"!. c #F0BF56",
"~. c #C5A761",
"^. c #CCA761",
"/. c #E7C444",
"(. c #EBC242",
"). c #E9C742",
"_. c #E3C845",
"`. c #EBC846",
"'. c #EDC844",
"]. c #EDCC47",
"[. c #E1C44C",
"{. c #E2C54F",
"}. c #E9C148",
"|. c #EFC149",
" X c #E8C64B",
".X c #ECC649",
"XX c #EBC44D",
"oX c #EBC74D",
"OX c #E6C949",
"+X c #EECB4D",
"@X c #F2C043",
"#X c #F7C147",
"$X c #F4C746",
"%X c #F8C341",
"&X c #F1C943",
"*X c #F0CA45",
"=X c #F0C74B",
"-X c #F0C14F",
";X c #F8C248",
":X c #F9C649",
">X c #F3CE4C",
",X c #E6C254",
"<X c #E6C456",
"1X c #EAC753",
"2X c #E9C952",
"3X c #ECCC51",
"4X c #EFCD52",
"5X c #E9C855",
"6X c #EFCC54",
"7X c #EFCC56",
"8X c #E7C65B",
"9X c #E6C55C",
"0X c #EBC258",
"qX c #E8C658",
"wX c #E5C95E",
"eX c #ECC858",
"rX c #F1C656",
"tX c #F0CC5A",
"yX c #F7CE58",
"uX c #F2C95F",
"iX c #EFD657",
"pX c #F2D054",
"aX c #F6D459",
"sX c #F3D25E",
"dX c #F4C760",
"fX c #F8D561",
"gX c #F9D565",
"hX c #FFDB60",
"jX c #F8D867",
"kX c #F9D867",
"lX c #FFDA67",
"zX c #F8DA7A",
/* pixels */
"      r 3 f.J.b.S.3 6         ",
"    q j.E.8X1XoX7Xc.d.6       ",
"  & g.zX<XpX`.'./.2XwXH.&     ",
"% I.0XrXyXOXiX{.kXgXeX5Xv.-   ",
"& z.@X:X$X]._.{.kX,XlX.XZ.%   ",
"t / a.@.t.+.:.) 4XfXtXoX! w   ",
"U.W.{ 0.p y ' e.).7XsXaX9Xk.= ",
"L.=.| 2.2.*.f j r.+X4XhXqXI.3 ",
"x.<.K L 3.7.s l $.&X>X*XoXn.9 ",
"Q -.Z C $.p.f l 5.i.w.w.,.n.9 ",
"A.(.' R X.t.i u u. .3.7.1.F.+ ",
"K.}...V V } g c O.9.8.P Q.~.o ",
"9 C.%Xv J M m h T S U &.( 5   ",
"3 B.#X%.D a G b H A I o.~ O   ",
"; ^.!.s.{ F ` N z x n >.R.>   ",
"  5 Y.uX|.;XY E W ;._ l.X     ",
"    + g.V.dX-X=X X^ H.w       ",
"      . % D.B.n.T.3 :         "
};
