/* XPM */
static char *result[] = {
/* columns rows colors chars-per-pixel */
"45 45 71 1 ",
"  c black",
". c #010000",
"X c #000001",
"o c #020000",
"O c #030000",
"+ c #000004",
"@ c #966500",
"# c #957501",
"$ c #A36E00",
"% c #A36F01",
"& c #B28A00",
"* c #B38A00",
"= c #B28B00",
"- c #B38B00",
"; c #B48900",
": c #CD8800",
"> c #CD8900",
", c #CE8800",
"< c #CE8900",
"1 c #CD8907",
"2 c #CD890E",
"3 c #C19400",
"4 c #C19500",
"5 c #C19600",
"6 c #C29600",
"7 c #C39600",
"8 c #C49500",
"9 c #CD8910",
"0 c #CD8911",
"q c #CD8913",
"w c #F1B900",
"e c #F3B800",
"r c #F2B900",
"t c #F3B900",
"y c #F2BA00",
"u c #F3BA00",
"i c #F4B800",
"p c #F5B800",
"a c #F4B900",
"s c #F5B900",
"d c #F4BA00",
"f c #F5BA00",
"g c #B7B5A1",
"h c gray72",
"j c #B8B9BA",
"k c #C3BC96",
"l c #F5E8B8",
"z c #F5E8B9",
"x c #C8C6C8",
"c c #C8C8C8",
"v c #C8C9CA",
"b c #F5ECC3",
"n c #F5ECC9",
"m c #F6ECC9",
"M c #F6F8F1",
"N c #F0F2FB",
"B c #F0F5FB",
"V c #F2F4FB",
"C c #F6F4FB",
"Z c #F6F7FB",
"A c #F7F8F8",
"S c #F6F9F9",
"D c #F7F9F9",
"F c #F6F9FA",
"G c #F7F9FA",
"H c #F8F9F9",
"J c #F9FAF9",
"K c #F8F9FA",
"L c #F8FAFA",
"P c #F9FAFA",
"I c None",
/* pixels */
"IIIIIIIIIIIIIIIX   ..oooOOOOOOIIIIIIIIIIIIIII",
"IIIIIIIIIIIIIII      .........IIIIIIIIIIIIIII",
"IIIIIIIIIIIIIII       ........IIIIIIIIIIIIIII",
"IIIIIIIIIIIIIII               IIIIIIIIIIIIIII",
"IIIIIIIIIIIIIII    88;88;8#   IIIIIIIIIIIIIII",
"IIIIIIIIIIIIIII    ttttttr6   IIIIIIIIIIIIIII",
"IIIIIIIIIIIIIII    tttttrr-   IIIIIIIIIIIIIII",
"IIIIIIIIIIIIIII    ttttttr6   IIIIIIIIIIIIIII",
"IIIIIIIIIIIIIII    ttttetr6   IIIIIIIIIIIIIII",
"IIIIIIIIIIIIIII    atttttt*   IIIIIIIIIIIIIII",
"IIIIIIIIIIIIIII    aaaiiia7   IIIIIIIIIIIIIII",
"IIIIIIIIIIIIIII    fssippa7   IIIIIIIIIIIIIII",
"IIIIIIIIIIIIIII    VNBZCFMg   IIIIIIIIIIIIIII",
"IIIIIIIIIIIIIII    GGGGGGGv   IIIIIIIIIIIIIII",
"IIIIIIIIIIIIIII    LLKKKKLv   IIIIIIIIIIIIIII",
"IIIIIIIIIIIIIII    PLHHHLLj   IIIIIIIIIIIIIII",
"IIIIIIIIIIIIIII    JHHHHHLv   IIIIIIIIIIIIIII",
"IIIIIIIIIIIIIII    HHHHHHHc   IIIIIIIIIIIIIII",
"IIIIIIIIIIIIIII    HDDDDDHh   IIIIIIIIIIIIIII",
"IIIIIIIIIIIIIII    SSSSSSAx   IIIIIIIIIIIIIII",
"IIIIIIIIIIIIIII    mnznnlbk   IIIIIIIIIIIIIII",
"IIIIIIIIIIIIIII    daaaaad-   IIIIIIIIIIIIIII",
"IIIIIIIIIIIIIII    dutttuu7   IIIIIIIIIIIIIII",
"IIIIIIIIIIIIIII    uutttuu7   IIIIIIIIIIIIIII",
"IIIIIIIIIIIIIII    uuuttty-   IIIIIIIIIIIIIII",
"IIIIIIIIIIIIIII    yyrrrrr6   IIIIIIIIIIIIIII",
"IIIIIIIIIIIIIII    yyrrrrw5   IIIIIIIIIIIIIII",
"IIIIIIIIIIIIIII    rrrrrww=   IIIIIIIIIIIIIII",
"IIIIIIIIIIIIIII    rrrrrww5   IIIIIIIIIIIIIII",
"IIIIIIIIIIIIIII    rrrwwww5   IIIIIIIIIIIIIII",
"IIIIIIIIIIIIIII    rrrrrww&   IIIIIIIIIIIIIII",
"IIIIIIIIIIIIIII    rrrrrrw4   IIIIIIIIIIIIIII",
"IIIIIIIIIIIIIII    rrrrrrw3   IIIIIIIIIIIIIII",
"IIIIIIIIIIIIIII    ,,,,,,>@   IIIIIIIIIIIIIII",
"IIIIIIIIIIIIIII    <<,,,:2$   IIIIIIIIIIIIIII",
"IIIIIIIIIIIIIII   +<<<<<>q$   IIIIIIIIIIIIIII",
"IIIIIIIIIIIIIII    <<<::>9@   IIIIIIIIIIIIIII",
"IIIIIIIIIIIIIII    <<<>>>0$   IIIIIIIIIIIIIII",
"IIIIIIIIIIIIIII    <<<><>q$   IIIIIIIIIIIIIII",
"IIIIIIIIIIIIIII    <<<<<>1@   IIIIIIIIIIIIIII",
"IIIIIIIIIIIIIII    <<<<<><%   IIIIIIIIIIIIIII",
"IIIIIIIIIIIIIII               IIIIIIIIIIIIIII",
"IIIIIIIIIIIIIII               IIIIIIIIIIIIIII",
"IIIIIIIIIIIIIII               IIIIIIIIIIIIIII",
"IIIIIIIIIIIIIII               IIIIIIIIIIIIIII"
};
