/* XPM */
static char *result[] = {
/* columns rows colors chars-per-pixel */
"45 45 126 2 ",
"   c black",
".  c #2F2400",
"X  c #2F2401",
"o  c #302400",
"O  c #302500",
"+  c #302501",
"@  c #302502",
"#  c #3F3000",
"$  c #3F3100",
"%  c #403001",
"&  c #403101",
"*  c #403002",
"=  c #433302",
"-  c #957300",
";  c #977300",
":  c #977602",
">  c #987300",
",  c #B38800",
"<  c #B08A00",
"1  c #B18A00",
"2  c #B38A00",
"3  c #B48900",
"4  c #B58900",
"5  c #B68B00",
"6  c #B58A04",
"7  c #BF9300",
"8  c #BF9500",
"9  c #BF9800",
"0  c #CD8700",
"q  c #CE8700",
"w  c #CD8800",
"e  c #CD8801",
"r  c #CE8800",
"t  c #CE8900",
"y  c #C29400",
"u  c #C09601",
"i  c #C39600",
"p  c #C59400",
"a  c #C49500",
"s  c #C59500",
"d  c #C49600",
"f  c #C59700",
"g  c #C79600",
"h  c #C69700",
"j  c #C79701",
"k  c #C59602",
"l  c #C59702",
"z  c #C79705",
"x  c #D49100",
"c  c #D59100",
"v  c #D49200",
"b  c #D59200",
"n  c #D79400",
"m  c #D79500",
"M  c #D89500",
"N  c #ECBA00",
"B  c #EEBA00",
"V  c #F1B800",
"C  c #F1B900",
"Z  c #F2B800",
"A  c #F3B800",
"S  c #F2B900",
"D  c #F3B900",
"F  c #F1BA00",
"G  c #F1BB00",
"H  c #F2BA00",
"J  c #F3BA00",
"K  c #F3BB00",
"L  c #F4B800",
"P  c #F5B800",
"I  c #F4B900",
"U  c #F5B900",
"Y  c #F6B900",
"T  c #F7B900",
"R  c #F4BA00",
"E  c #F5BA00",
"W  c #F4BB00",
"Q  c #F6BA00",
"!  c #F7BA00",
"~  c #F7BB00",
"^  c #F0BC00",
"/  c #F3BC01",
"(  c #F1B905",
")  c #F8BB00",
"_  c #F1B709",
"`  c #F2B70A",
"'  c #F5B708",
"]  c #C8A42A",
"[  c #C8A32D",
"{  c #F4C62C",
"}  c #F4C52F",
"|  c #F1C431",
" . c #F4CA3B",
".. c #F1C841",
"X. c #F4E8AA",
"o. c #F3E8B4",
"O. c #F4E8B6",
"+. c #F6E8B7",
"@. c #F3E8BB",
"#. c #F4EDB8",
"$. c #F4EDC3",
"%. c #F6ECC4",
"&. c #F6ECC7",
"*. c #F4ECC8",
"=. c #F4EDC8",
"-. c #F7ECC8",
";. c #F4F9F3",
":. c #F5F9F5",
">. c #F4F9F6",
",. c #F4F8F7",
"<. c #F4F9F7",
"1. c #F4F9F8",
"2. c #F5F9F8",
"3. c #F5F8F9",
"4. c #F4F9F9",
"5. c #F5F9F9",
"6. c #F6F9F8",
"7. c #F7F9F8",
"8. c #F6F9F9",
"9. c #F7F9FA",
"0. c #F8F9F8",
"q. c #F8F9F9",
"w. c #F9F9F9",
"e. c #F8F9FA",
"r. c #F8F8FB",
"t. c None",
/* pixels */
"t.t.t.t.t.t.t.t.t.t.t.t.t.t.t.t.                          t.t.t.t.t.t.t.t.t.t.t.t.t.t.t.t.",
"t.t.t.t.t.t.t.t.t.t.t.t.t.t.t.t.                          t.t.t.t.t.t.t.t.t.t.t.t.t.t.t.t.",
"t.t.t.t.t.t.t.t.t.t.t.t.t.t.t.t.                          t.t.t.t.t.t.t.t.t.t.t.t.t.t.t.t.",
"t.t.t.t.t.t.t.t.t.t.t.t.t.t.t.t.                          t.t.t.t.t.t.t.t.t.t.t.t.t.t.t.t.",
"t.t.t.t.t.t.t.t.t.t.t.t.        : a 3 a >         d a 3 l         t.t.t.t.t.t.t.t.t.t.t.t.",
"t.t.t.t.t.t.t.t.t.t.t.t.        k D D D a         H S S J         t.t.t.t.t.t.t.t.t.t.t.t.",
"t.t.t.t.t.t.t.t.t.t.t.t.        6 D D D 3         C C S J         t.t.t.t.t.t.t.t.t.t.t.t.",
"t.t.t.t.t.t.t.t.t.t.t.t.        k S D D a         C V Z J         t.t.t.t.t.t.t.t.t.t.t.t.",
"t.t.t.t.t.t.t.t.t.t.t.t.# . . # j D D D h # . X $ y y , d . # o o t.t.t.t.t.t.t.t.t.t.t.t.",
"t.t.t.t.t.t.t.t.t.      E S S S S D D S S S H H W         I D I R         t.t.t.t.t.t.t.t.",
"t.t.t.t.t.t.t.t.t.      E D D S S S Z S S S D J W         U I D E         t.t.t.t.t.t.t.t.",
"t.t.t.t.t.t.t.t.t.      E D D Z Z Z Z S S S J J W         Y P U E         t.t.t.t.t.t.t.t.",
"t.t.t.t.t.t.t.t.t.      E D D Z Z Z Z A D S J J W         ' _ ` (         t.t.t.t.t.t.t.t.",
"t.t.t.t.t.t.t.t.t.      Q D D Z b t t t b J J J W         q.0.q.q.        t.t.t.t.t.t.t.t.",
"t.t.t.t.t.t.t.t.t.      Q D D Z b t t r v J J J K         w.q.q.q.        t.t.t.t.t.t.t.t.",
"t.t.t.t.t.t.t.t.t.      E D D Z m t r w m J J J K         w.w.w.w.        t.t.t.t.t.t.t.t.",
"t.t.t.t.t.t.t.t.t.      E D D Z b t r w v J J J K         w.w.w.w.        t.t.t.t.t.t.t.t.",
"t.t.t.t.t.t.t.t.t.      E D D Z b t r w v J J J K         w.q.q.w.        t.t.t.t.t.t.t.t.",
"t.t.t.t.t.t.t.t.t.      E D D Z m t r w m J J J K         q.0.q.q.        t.t.t.t.t.t.t.t.",
"t.t.t.t.t.t.t.t.t.      E D D Z c r r w x J J J K         7.7.7.7.        t.t.t.t.t.t.t.t.",
"t.t.t.t.t.t.t.t.t.      E D D Z c r r 0 x J J J K         -.+.&.%.        t.t.t.t.t.t.t.t.",
"t.t.t.t.t.t.t.t.t.      E D D Z n r q 0 n J J J K         U P P R         t.t.t.t.t.t.t.t.",
"t.t.t.t.t.t.t.t.t.      E D D Z c r q 0 x J J J K         U I I R         t.t.t.t.t.t.t.t.",
"t.t.t.t.t.t.t.t.t.      E D D Z c r q 0 x J J J K         I I I R         t.t.t.t.t.t.t.t.",
"t.t.t.t.t.t.t.t.t.      Q D D Z n r r w m J J J W         I D D J         t.t.t.t.t.t.t.t.",
"t.t.t.t.t.t.t.t.t.      Q D D D c r r w v J J J W         I D D J         t.t.t.t.t.t.t.t.",
"t.t.t.t.t.t.t.t.t.      ~ I D D b r r w v D J J W         I D D J         t.t.t.t.t.t.t.t.",
"t.t.t.t.t.t.t.t.t.      ~ R R I M r w w m J J J W         I D D J         t.t.t.t.t.t.t.t.",
"t.t.t.t.t.t.t.t.t.      ^ N B C b e w w b J J J K         I I D J         t.t.t.t.t.t.t.t.",
"t.t.t.t.t.t.t.t.t.      9.5.4.4.| L A A D S J J K         I I D J         t.t.t.t.t.t.t.t.",
"t.t.t.t.t.t.t.t.t.      e.8.5.3...L L D D D J J K         I D D J         t.t.t.t.t.t.t.t.",
"t.t.t.t.t.t.t.t.t.      w.6.2.3.| L L D D D J J W         D D D J         t.t.t.t.t.t.t.t.",
"t.t.t.t.t.t.t.t.t.      r.:.2.5.| A L A D D J J W         D D D J         t.t.t.t.t.t.t.t.",
"t.t.t.t.t.t.t.t.t.      T P P P o.1.1.4.@.D J J W         D D S H         t.t.t.t.t.t.t.t.",
"t.t.t.t.t.t.t.t.t.      ! U P I $.;.<.1.=.D J J K         D D S H         t.t.t.t.t.t.t.t.",
"t.t.t.t.t.t.t.t.t.      ! U U I #.<.<.1.*.I J J K         D D S H         t.t.t.t.t.t.t.t.",
"t.t.t.t.t.t.t.t.t.      ) U U U X.>.<.,.O.R R R W         D D D H         t.t.t.t.t.t.t.t.",
"t.t.t.t.t.t.t.t.t.t.t.t.= @ @ % ] {  .} [ # O + & i i 2 f O * + + t.t.t.t.t.t.t.t.t.t.t.t.",
"t.t.t.t.t.t.t.t.t.t.t.t.        g I I I s         H H H K         t.t.t.t.t.t.t.t.t.t.t.t.",
"t.t.t.t.t.t.t.t.t.t.t.t.        5 I I I 4         G F H K         t.t.t.t.t.t.t.t.t.t.t.t.",
"t.t.t.t.t.t.t.t.t.t.t.t.        z I I I p         H H H /         t.t.t.t.t.t.t.t.t.t.t.t.",
"t.t.t.t.t.t.t.t.t.t.t.t.        ; y 1 u -         7 8 < 9         t.t.t.t.t.t.t.t.t.t.t.t.",
"t.t.t.t.t.t.t.t.t.t.t.t.t.t.t.t.                          t.t.t.t.t.t.t.t.t.t.t.t.t.t.t.t.",
"t.t.t.t.t.t.t.t.t.t.t.t.t.t.t.t.                          t.t.t.t.t.t.t.t.t.t.t.t.t.t.t.t.",
"t.t.t.t.t.t.t.t.t.t.t.t.t.t.t.t.                          t.t.t.t.t.t.t.t.t.t.t.t.t.t.t.t."
};
