/* XPM */
static char *ceba68deb48f4064f55931cb359460a0npT5Miy1FVRBqBOy[] = {
/* columns rows colors chars-per-pixel */
"5 17 40 1 ",
"  c None",
". c #362400",
"X c #3F2400",
"o c #3F2B00",
"O c #3D2C00",
"+ c #3F2D00",
"@ c #362708",
"# c #422800",
"$ c #402C00",
"% c #452F00",
"& c #473200",
"* c #423105",
"= c #F1BE1D",
"- c #F5BE1E",
"; c #F6BF1F",
": c #D7AF3B",
"> c #DAB236",
", c #DCB33A",
"< c #EBB821",
"1 c #E3B42A",
"2 c #E6B92C",
"3 c #E0B83F",
"4 c #E2B83F",
"5 c #E5B93E",
"6 c #F2C127",
"7 c #F8C423",
"8 c #DEB740",
"9 c #D9B449",
"0 c #D9B44C",
"q c #CCAF5F",
"w c #DCB955",
"e c #DDBA54",
"r c #DCBB5E",
"t c #E5B940",
"y c #E4BC41",
"u c #E3BA48",
"i c #CBAE60",
"p c #DABB61",
"a c #CFB779",
"s c #D0B87C",
/* pixels */
"     ",
"     ",
"     ",
"     ",
"     ",
"     ",
"     ",
":    ",
",    ",
"5;=yo",
"t;7>$",
"u<68+",
"0129.",
"p33r@",
"#eeX ",
"&iq% ",
"+sa* "
};
