/* XPM */
static char *result[] = {
/* columns rows colors chars-per-pixel */
"54 55 85 1 ",
"  c gray30",
". c #4E4E4E",
"X c gray32",
"o c gray33",
"O c #555555",
"+ c gray34",
"@ c gray35",
"# c #5F5F5F",
"$ c #606060",
"% c #626262",
"& c gray39",
"* c #646464",
"= c #656565",
"- c gray40",
"; c #676767",
": c #686868",
"> c DimGray",
", c #6A6A6A",
"< c gray42",
"1 c #6C6C6C",
"2 c #6D6D6D",
"3 c gray43",
"4 c #6F6F6F",
"5 c gray44",
"6 c #717171",
"7 c #727272",
"8 c gray45",
"9 c #747474",
"0 c gray46",
"q c #767676",
"w c #777777",
"e c gray47",
"r c #797979",
"t c gray48",
"y c #7B7B7B",
"u c #7C7C7C",
"i c gray49",
"p c #7E7E7E",
"a c gray50",
"s c #808080",
"d c #818181",
"f c gray51",
"g c #838383",
"h c #848484",
"j c gray52",
"k c #868686",
"l c gray53",
"z c #888888",
"x c #898989",
"c c gray54",
"v c #8B8B8B",
"b c gray55",
"n c #8D8D8D",
"m c #8E8E8E",
"M c gray56",
"N c #909090",
"B c gray57",
"V c #929292",
"C c #939393",
"Z c gray58",
"A c #959595",
"S c gray59",
"D c #979797",
"F c #989898",
"G c gray60",
"H c #9A9A9A",
"J c #9B9B9B",
"K c gray61",
"L c #9D9D9D",
"P c gray62",
"I c #9F9F9F",
"U c #A0A0A0",
"Y c gray63",
"T c #A2A2A2",
"R c gray64",
"E c #A4A4A4",
"W c #A5A5A5",
"Q c gray65",
"! c #A7A7A7",
"~ c gray66",
"^ c #A9A9A9",
"/ c #AAAAAA",
"( c gray67",
") c #ACACAC",
"_ c None",
/* pixels */
"____________________~~))(EHk;=*_______________________",
"_________________(!WUKHGHJIE~Yf--=*___________________",
"_______________/WJGGGGGGGGGGGJEWd---*_________________",
"_____________^WHGGGGGGGGGGGGGFFGEL<---*_______________",
"____________^PGGGGFFFFFFFFFFFDDDDHE8---=______________",
"___________QGFFFFFDDDDDDDDDDDSSSSSDRw---=_____________",
"__________WFDDDDDDSSSSSSSSSSSAAAAAAAY6---=____________",
"_________QDSSSSSSSAAAAAAAAAAAZZZZZZZAL;---=___________",
"________TGAAAAAAAAZZZZZZZZZZZCCCCCCCCSM----&__________",
"________PZZZZZZZZZCCCCCCCCCCnVVVVVVVVVH8----__________",
"_______UCCCCCCCCCCVVVVVVVVVVMBBBBBBBBBBN----=_________",
"_______HVVVVVVVVVVkaBBBBBBBBBNNNNNNNNNNS1----_________",
"_______CBBBBBBBBBB>-hNNNNNNNNMMMMMMMMMMMh----*________",
"______HBNNNNNNNNNNt6bMMMMMMMMmmmmmmmmmmmx-----________",
"______SNMMMMMMMMMMmmmmmmmmmmmnnnnnnnnnnnN-----________",
"______BMmmmmmmmmmmnnnnnnnnnnnbbbbbbbbbbbb3----=_______",
"______mmnnnnnnnnnnnbbbbbbbbbbvvvvvvvvvvvc8----*_______",
"______nnbbbbbbbbbbbvvvvvvvvvvcccccccccccx6----=_______",
"______lbvvvvvvvvvvvccccccccccxxxxxxxxxxxz6----=_______",
"______$:5txccccccccxxxxxxxxxxzzzzzzzzzzzl5----=_______",
"______AGVxaflxxxxxxzzzzzzzzzzlllllllllllk4----*_______",
"______Gxzzzzzzzzzzzllllllllllkkuukkkkkkkj4--*@O_______",
"______xzlllllllllllkkkkkkkkkkjjwwjjjjjjjh4%+. ________",
"______llkkkkkkkkkkkjjjjjjjjjjjhhhhhhhhhhg4*&%$________",
"______kkjjjjjjjjjjjhhhhhhhhhhhggggggggggf3-=**%_______",
"______jjhhhhhhhhhhhgggggggggggffffffffffd3-#oX________",
"______hhgggggruggggfffffffffffdddddddddds3---_________",
"______ggfffff,5ffffdddddddddddssssssssssa2---*________",
"______ffdddddasddddsssssssssssaaaaapppppi2---=________",
"______ddsssssssssssaaaaappppppiiiiiiiiiiu1----=_______",
"______ssaaaaappppppiiiiiiiiiiiuuuuuuuuuuu1----=_______",
"______ppiiiiiiiiiiiuuuuuuuuuuuyyyyyyyyyyy1----=_______",
"______iiuuuuuuuuuuuyyyyyyyyyyyttttttttttt1----=_______",
"______uuyyyyyyyyyyytttttttttttrrrrrrrrrrr<----=_______",
"______yytttttttttttrrrrrrrrrrreeeeeeeeeee<----=_______",
"______q;pdyrrrrrrrreeeeeeeeeee67wwwwwwwww<----=_______",
"______lZdeeeeeeeeeewwwwwwwwwwwqqqqqqqqqqq,----=_______",
"______xewwwwwwwwww60qqqqqqqqqq00000000000,----=_______",
"______wwqqqqqqqqqqq0000000000099999999999,----=_______",
"______qq000000000009999999999988888888888>----=_______",
"______00999999999998888888888877777777777>----=_______",
"______99888888888887777777777766666666666>----=_______",
"_IYYYTJJJHHHHHHHHHHHHHHHHHHHHHHHHHHHHHHHHGGGZ-======__",
"_Bmmmmmmmmmmmmmmmmmmmmmmmmmmmmmmmmmmmmmmmmmmv-------=_",
"_sssssssssssssssssssssssssssssssssssssssssssi--------=",
"assssw,1usssssssssssssssssssssssssssssssssssi--------=",
"asssp;--2sssssssssssssssssssssssssssssssssssi--------=",
"asssp---<ssssssssssssssssssssiqissssssssssssi--------=",
"assss8-:rssssssssssssssssssss>->sssssssyesssi--------=",
"asssssaassssssssssssssassssss;-;ssssssse8sssi--------=",
"assssssssssssssssssssaussssssr5rssssssssssssi--------=",
"asssssssssssssssssssssssssssssssssssssssssssi--------=",
"asssssssssssssssssssssssssssssssssssssssssssi--------=",
"asssssssssssssssssssssssssssssssssssssssssssi--------=",
"paaaaaaaarrrrrrrrrrrrrrrrrrrrrrrrrrrrrrrrrrrw========_"
};
