/* XPM */
static char *result[] = {
/* columns rows colors chars-per-pixel */
"53 76 80 1 ",
"  c #515151",
". c gray34",
"X c gray35",
"o c #5D5D5D",
"O c gray37",
"+ c #5F5F5F",
"@ c #606060",
"# c gray38",
"$ c #646464",
"% c #656565",
"& c gray40",
"* c #676767",
"= c #686868",
"- c DimGray",
"; c #6A6A6A",
": c gray42",
"> c #6C6C6C",
", c #6D6D6D",
"< c gray43",
"1 c #6F6F6F",
"2 c gray44",
"3 c #717171",
"4 c #727272",
"5 c gray45",
"6 c #747474",
"7 c gray46",
"8 c #767676",
"9 c #777777",
"0 c gray47",
"q c #797979",
"w c gray48",
"e c #7B7B7B",
"r c #7C7C7C",
"t c gray49",
"y c #7E7E7E",
"u c gray50",
"i c #808080",
"p c #818181",
"a c gray51",
"s c #838383",
"d c #848484",
"f c gray52",
"g c #868686",
"h c gray53",
"j c #888888",
"k c #898989",
"l c gray54",
"z c #8B8B8B",
"x c gray55",
"c c #8D8D8D",
"v c #8E8E8E",
"b c gray56",
"n c #909090",
"m c gray57",
"M c #929292",
"N c #939393",
"B c gray58",
"V c #959595",
"C c gray59",
"Z c #979797",
"A c #989898",
"S c gray60",
"D c #9A9A9A",
"F c #9B9B9B",
"G c gray61",
"H c #9D9D9D",
"J c gray62",
"K c #A0A0A0",
"L c gray63",
"P c #A2A2A2",
"I c gray64",
"U c #A4A4A4",
"Y c #A5A5A5",
"T c gray65",
"R c #A7A7A7",
"E c gray66",
"W c #A9A9A9",
"Q c #AAAAAA",
"! c gray68",
"~ c None",
/* pixels */
"~~~~~~~~~~~~~~~~~~~~~~$REEEEEEEEEEQ~~~~~~~~~~~~~~~~~~",
"~~~~~~~~~~~~~~~~~~~~~%&CSSSSSSSSSSW~~~~~~~~~~~~~~~~~~",
"~~~~~~~~~~~~~~~~~~~~%&&CSSSSSSSSSSW~~~~~~~~~~~~~~~~~~",
"~~~~~~~~~~~~~~~~~~~%&&&CSSSSSSSSSSW~~~~~~~~~~~~~~~~~~",
"~~~~~~~~~~~~~~~~~~%&&&&BSSSSSSSSSSW~~~~~~~~~~~~~~~~~~",
"~~~~~~~~~~~~~~~~~~%&&&&NASSSSSNVASW~~~~~~~~~~~~~~~~~~",
"~~~~~~~~~~~~~~~~~~%&&&&NAAAAAACxt*~~~~~~~~~~~~~~~~~~~",
"~~~~~~~~~~~~~~~~~~%&&&&MZAAAAAAADIT~~~~~~~~~~~~~~~~~~",
"~~~~~~~~~~~~~~~~~~%&&&&MCZZZZZZAASW~~~~~~~~~~~~~~~~~~",
"~~~~~~~~~~~~~~~~~~%&&&&mVCCCCCCZZZW~~~~~~~~~~~~~~~~~~",
"~~~~~~~~~~~~~~~~~~%&&&&mVVVVbpVCCCW~~~~~~~~~~~~~~~~~~",
"~~~~~~~~~~~~~~~~~~%&&&&nVVVVxqVVVVW~~~~~~~~~~~~~~~~~~",
"~~~~~~~~~~~~~~~~~~%&&&&bBBBBBBBVVVW~~~~~~~~~~~~~~~~~~",
"~~~~~~~~~~~~~~~~~~%&&&&vNNNNNNNBBBW~~~~~~~~~~~~~~~~~~",
"~~~~~~~~~~~~~~~~~~%&&&&vMMMMMMMNNNE~~~~~~~~~~~~~~~~~~",
"~~~~~~~~~~~~~~~~~~%&&&&cMMMMMMMMMME~~~~~~~~~~~~~~~~~~",
"~~~~~~~~RRRRRRRRRRPJJJJmmmmmmmmMMM!RRRW~~RRREEEEEEEER",
"~~~~~~~nvvvbbbbbbbbbbbbbnnnnnnnmmmmmmMIUmMMMMMMMMMNNE",
"~~~~~smccccvvvvvvbbbbbbbbbbbbbbnnnnnnmMZmmmmMMMMMMMME",
"~~&%%7xxxxxccccccvvvvvvvbbbbbbbbbbbbbnnnnnnnmmmmmmMME",
"~&&&&5xxxxxxxxllxcccccccvvvvs20bbbbbbbbbbbbbnnnnnnmmY",
"~&&&&4zzzzzxxf==gxxxxxxxcccc-&&avvvvvbbbbbbbbbbcbcnnY",
"~&&&&4lllllzzt&&yxxxxxxxxxxx>&&dcccccvvvvvvvbba&ec0wJ",
"~&&&&4kkkkkllk78kzzzzzzzxxxxh0uxxxxxxccccccvvva&rvZj~",
"~&&&&4kkkkkkkkkkklllllllzzzzzzxxxxxxxxxxxxxccccxccvFE",
"~&&&&3jjjjkkkkkkkkkkkkkkllllllzzzzzzzxxxxxxxxxxxxxccU",
"~&&&&3hhhhjjjjjjjkkkkkkkkkkkkklllllllzzzzzzxxxxxxxxxU",
"~&&&&3gggghhhhhhhjjjjjjkkkkkkkkkkkkkkllllllzzzzzzzxxU",
"~&&&&=,,,,,,,,,,,,,,,,,fjjjjjjkkkkd<<<<<<<<<<<<<,,2<~",
"~&&&&&&&&&&&&&@%&&&&&&&dhhhhhhjjjjG&&&&&&&&&&&&&&&%~~",
"~&&&&&&&&&&&@ #&&&&&&&&sgggggghhhhF&&&&&&&&&&&&&&$~~~",
"~$$$$$$$$$$~~o$$$$%&&&&sggggggggggG$$$$$$$$$$$$$~~~~~",
"~~~~~~~~~~~~~~~~~~%&&&&afff0;pggggI~~~~~~~~~~~~~~~~~~",
"~~~~~~~~~~~~~~~~~~%&&&&pddd9-iffffI~~~~~~~~~~~~~~~~~~",
"~~~~~~~~~~~~~~~~~~%&&&&issssssddddI~~~~~~~~~~~~~~~~~~",
"~~~~~~~~~~~~~~~~~~%&&&&issssssssssI~~~~~~~~~~~~~~~~~~",
"~~~~~~~~~~~~~~~~~~%&&&&uaaaaaassssI~~~~~~~~~~~~~~~~~~",
"~~~~~~~~~~~~~~~~~~%&&&&ypppppaaaaaI~~~~~~~~~~~~~~~~~~",
"~~~~~~~~~~~~~~~~~~%&&&&yiiiy94<:>qI~~~~~~~~~~~~~~~~~~",
"~~~~~~~~~~~~~~~~~~%&&&&yiiiiiidxxrt~~~~~~~~~~~~~~~~~~",
"~~~~~~~~~~~~~~~~~~%&&&&tuuuuuiiigZP~~~~~~~~~~~~~~~~~~",
"~~~~~~~~~~~~~~~~~~%&&&&ryyyyyuuuuuP~~~~~~~~~~~~~~~~~~",
"~~~~~~~~~~~~~~~~~~%&&&&etttttyyyyyP~~~~~~~~~~~~~~~~~~",
"~~~~~~~~~~~~~~~~~~%&&&&et8ttttttttP~~~~~~~~~~~~~~~~~~",
"~~~~~~~~~~~~~~~~~~%&&&&wrqrrrtttttP~~~~~~~~~~~~~~~~~~",
"~~~~~~~~~~~~~~~~~~%&&&&qeeeeerrrrrP~~~~~~~~~~~~~~~~~~",
"~~~~~~~~~~~~~~~~~~%&&&&0wwwwweeeeeL~~~~~~~~~~~~~~~~~~",
"~~~~~~~~~~~~~~~~~~%&&&&0wwww85667wL~~~~~~~~~~~~~~~~~~",
"~~~~~~~~~~~~~~~~~~%&&&&9qqqqqqtp:;H~~~~~~~~~~~~~~~~~~",
"~~~~~~~~~~~~~~~~~~%&&&&800000qqtNM~~~~~~~~~~~~~~~~~~~",
"~~~~~~~~~~~~~~~~~~%&&&&7999990000BJ~~~~~~~~~~~~~~~~~~",
"~~~~~~~~~~~~~~~~~~%&&&&79999999999K~~~~~~~~~~~~~~~~~~",
"~~~~~~~~~~~~~~~~~~%&&&&68888899999K~~~~~~~~~~~~~~~~~~",
"~~~~~~~~~~~~~~~~~~%&&&&67754888888K~~~~~~~~~~~~~~~~~~",
"~~~~~~~~~~~~~~~~~~%&&&&565&&377777K~~~~~~~~~~~~~~~~~~",
"~~~~~~~~~~~~~~~~~~%&&&&565*&366666H~~~~~~~~~~~~~~~~~~",
"~~~~~~~~~~~~~~~~~~%&&&&45543666666H~~~~~~~~~~~~~~~~~~",
"~~~~~~~~~~~~~~~~~~~.+%&34444555555H~~~~~~~~~~~~~~~~~~",
"~~~~~~~~~~~~~~~~~~~.XO%23333444444H~~~~~~~~~~~~~~~~~~",
"~~~~~~~~~~~~~~~~~~%&&&&23333333333H~~~~~~~~~~~~~~~~~~",
"~~~~~~~~~~~~~~~~~~%&&&&12222333333H~~~~~~~~~~~~~~~~~~",
"~~~~~~~~~~~~~~~~~~%&&&&<1111222222H~~~~~~~~~~~~~~~~~~",
"~~~~~~~~~~~~~~~~~~%&&&&,<<<<111111H~~~~~~~~~~~~~~~~~~",
"~~~~~~~~~~~~~~~~~~%&&&&,<<<<<<<<<<H~~~~~~~~~~~~~~~~~~",
"~~~~~~~~~~~~~~~~~~%&&&&>,,,,<<<<<<H~~~~~~~~~~~~~~~~~~",
"~~~~~~~~~~~~~~~~~~%&&&&:>>>>,,,,,,H~~~~~~~~~~~~~~~~~~",
"~~~~~~~~~~~~~~~~~~%&&&&;::::>>>>>>H~~~~~~~~~~~~~~~~~~",
"~~~~~~~~~~~~~~~~~~9333366666675555H~~~~~~~~~~~~~~~~~~",
"~~~~~~~~%&&&&,vvvvvvvvvvvvvvvvvvvvvvvvvvvf~~~~~~~~~~~",
"~~~~~~~~%&&&&;iiiiiiiiiiiiiiiiiiiiiiiiiiiiuu~~~~~~~~~",
"~~~~~~~~%&&&&;iiiiwqiiiiiiiiiiiiiiii6yiiiiiu~~~~~~~~~",
"~~~~~~~~%&&&&;iiii08iiiiiiiiiyyiiiii<tiiiiiu~~~~~~~~~",
"~~~~~~~~%&&&&;iiiiiiiiiiiiiiu=*tiiiiiiiiiiiu~~~~~~~~~",
"~~~~~~~~%&&&&;iiiiiiiiiiiiiiu=*tiiiiiiiiiiiu~~~~~~~~~",
"~~~~~~~~%&&&&;iiiiiiiiiiiiiiiyyiiiiiiiiiiiiu~~~~~~~~~",
"~~~~~~~~~%%%%-qqqqqqqqqqqqqqqqqqqqqqqqruuuuy~~~~~~~~~"
};
