/* XPM */
static const char *QXJyb3dTaWdu[] = {
/* columns rows colors chars-per-pixel */
"86 87 237 2 ",
"   c #1B363A",
".  c #1B373B",
"X  c #1C353B",
"o  c #1C363B",
"O  c #1D363B",
"+  c #1C373B",
"@  c #1D373B",
"#  c #1E363B",
"$  c #1B373C",
"%  c #1C363C",
"&  c #1D363C",
"*  c #1C373C",
"=  c #1D373C",
"-  c #1C373D",
";  c #1D373D",
":  c #1E373C",
">  c #1E363D",
",  c #1E373D",
"<  c #1D383B",
"1  c #1D383C",
"2  c #1D383D",
"3  c #1E383D",
"4  c #1F383D",
"5  c #1F393E",
"6  c #20373D",
"7  c #25383B",
"8  c #21383C",
"9  c #21383D",
"0  c #2F3939",
"q  c #2F3B3B",
"w  c #2A3A3C",
"e  c #2D3B3C",
"r  c #2E3B3C",
"t  c #3C3E3B",
"y  c #43241A",
"u  c #44241A",
"i  c #44251A",
"p  c #45251B",
"a  c #46251B",
"s  c #49271D",
"d  c #4A271C",
"f  c #4C291D",
"g  c #4D291E",
"h  c #4E2A1E",
"j  c #512C20",
"k  c #542D20",
"l  c #542E21",
"z  c #562F22",
"x  c #583023",
"c  c #5A3123",
"v  c #5A3223",
"b  c #5A3124",
"n  c #5B3124",
"m  c #5B3224",
"M  c #5C3224",
"N  c #5C3324",
"B  c #5D3225",
"V  c #5E3325",
"C  c #5F3425",
"Z  c #5F3525",
"A  c #5F3426",
"S  c #403E3A",
"D  c #5C3D31",
"F  c #603426",
"G  c #603526",
"H  c #613526",
"J  c #623526",
"K  c #633527",
"L  c #613626",
"P  c #633626",
"I  c #623627",
"U  c #633627",
"Y  c #643727",
"T  c #653727",
"R  c #663828",
"E  c #673828",
"W  c #693929",
"Q  c #693A29",
"!  c #6A3A29",
"~  c #6B3B29",
"^  c #6B3B2A",
"/  c #6C3B2A",
"(  c #6C3C2B",
")  c #6E3D2A",
"_  c #6E3C2B",
"`  c #6E3D2B",
"'  c #6F3D2B",
"]  c #6D3F2D",
"[  c #6C3F2E",
"{  c #6F3F2E",
"}  c #723D2B",
"|  c #703E2B",
" . c #723E2B",
".. c #733E2B",
"X. c #723F2B",
"o. c #733F2B",
"O. c #713F2C",
"+. c #723E2C",
"@. c #733E2C",
"#. c #723F2C",
"$. c #733F2C",
"%. c #723E2D",
"&. c #723F2D",
"*. c #733F2D",
"=. c #743F2C",
"-. c #743F2E",
";. c #613E30",
":. c #4F4139",
">. c #504239",
",. c #534239",
"<. c #5B4438",
"1. c #71402C",
"2. c #72402C",
"3. c #73402C",
"4. c #73402D",
"5. c #73402E",
"6. c #74402C",
"7. c #74402D",
"8. c #75402D",
"9. c #75412D",
"0. c #76412D",
"q. c #77412D",
"w. c #77422D",
"e. c #74402E",
"r. c #77412E",
"t. c #77422E",
"y. c #78422E",
"u. c #79422E",
"i. c #79432E",
"p. c #7A432E",
"a. c #7A422F",
"s. c #7A432F",
"d. c #7B432F",
"f. c #79442F",
"g. c #7B442F",
"h. c #7C442F",
"j. c #7D442F",
"k. c #7D452F",
"l. c #6C4030",
"z. c #6F4231",
"x. c #6D4737",
"c. c #634538",
"v. c #664638",
"b. c #674638",
"n. c #794330",
"m. c #7D4530",
"M. c #7E4530",
"N. c #7F4530",
"B. c #7E4630",
"V. c #7F4630",
"C. c #764936",
"Z. c #7A4834",
"A. c #794A36",
"S. c #7A4A36",
"D. c #7B4A36",
"F. c #7C4A36",
"G. c #804630",
"H. c #814731",
"J. c #824731",
"K. c #824831",
"L. c #834831",
"P. c #834832",
"I. c #824833",
"U. c #844831",
"Y. c #844832",
"T. c #844932",
"R. c #854932",
"E. c #864932",
"W. c #864A32",
"Q. c #874A32",
"!. c #874A33",
"~. c #834934",
"^. c #804B36",
"/. c #864B34",
"(. c #874C35",
"). c #884A33",
"_. c #884B33",
"`. c #894B33",
"'. c #8A4B33",
"]. c #8A4C33",
"[. c #884B34",
"{. c #894D35",
"}. c #8A4C34",
"|. c #8B4C34",
" X c #8B4D35",
".X c #894D37",
"XX c #8C4C34",
"oX c #8C4D34",
"OX c #8D4D34",
"+X c #8D4C35",
"@X c #8D4D35",
"#X c #8D4F35",
"$X c #8E4E35",
"%X c #8F4E35",
"&X c #8F4F35",
"*X c #8D4E36",
"=X c #8F4F36",
"-X c #904F36",
";X c #905036",
":X c #915036",
">X c #915037",
",X c #925037",
"<X c #925137",
"1X c #925138",
"2X c #935138",
"3X c #935238",
"4X c #935239",
"5X c #92523B",
"6X c #945239",
"7X c #955339",
"8X c #95533A",
"9X c #96533A",
"0X c #94553B",
"qX c #96543A",
"wX c #96543B",
"eX c #97543B",
"rX c #97553B",
"tX c #98553B",
"yX c #98553C",
"uX c #99553C",
"iX c #99563D",
"pX c #9A563D",
"aX c #9A573D",
"sX c #99563E",
"dX c #9A563E",
"fX c #9A573E",
"gX c #9B573E",
"hX c #9C583F",
"jX c #9D583F",
"kX c #9A5740",
"lX c #9D5940",
"zX c #9E5940",
"xX c #9E5A41",
"cX c #9F5A41",
"vX c #A05A41",
"bX c #A05B42",
"nX c None",
/* pixels */
"nXnXnXnXnXnXnXnXnXnXnXnXnXnXnXnXnXnXnXnXtXkXkX$X$X$X$X$X$X$X$Xs.s.g.nXnXnXnXnXnXnXnXnXnXnXnXnXnXnXnXnXnXnXnXnXnXnXnXnXnXnXnXnXnXnXnXnXnXnXnXnXnXnXnXnXnXnXnXnXnXnXnXnXnXnXnX",
"nXnXnXnXnXnXnXnXnXnXnXnXnXnXnXnXnXnXnXnXyXbXbX$X$X$X$X$X$X$X$X7.7.s.nXnXnXnXnXnXnXnXnXnXnXnXnXnXnXnXnXnXnXnXnXnXnXnXnXnXnXnXnXnXnXnXnXnXnXnXnXnXnXnXnXnXnXnXnXnXnXnXnXnXnXnX",
"nXnXnXnXnXnXnXnXnXnXnXnXnXnXnXnXnXnXnXnXyXbXbX$X$X$X$X$X$X$X$X7.7.s.nXnXnXnXnXnXnXnXnXnXnXnXnXnXnXnXnXnXnXnXnXnXnXnXnXnXnXnXnXnXnXnXnXnXnXnXnXnXnXnXnXnXnXnXnXnXnXnXnXnXnXnX",
"nXnXnXnXnXnXnXnXnXnXnXnXnXnXnXnXnXnXnXnXyXbXbX$X$X$X$X$X$X$X$X7.7.s.nXnXnXnXnXnXnXnXnXnXnXnXnXnXnXnXnXnXnXnXnXnXnXnXnXnXnXnXnXnXnXnXnXnXnXnXnXnXnXnXnXnXnXnXnXnXnXnXnXnXnXnX",
"nXnXnXnXnXnXnXnXnXnXnXnXnXnXnXnXnXnXnXnXyXbXbX$X$X$X$X$X$X$X$X7.7.s.nXnXnXnXnXnXnXnXnXnXnXnXnXnXnXnXnXnXnXnXnXnXnXnXnXnXnXnXnXnXnXnXnXnXnXnXnXnXnXnXnXnXnXnXnXnXnXnXnXnXnXnX",
"nXnXnXnXnXnXnXnXnXnXnXnXnXnXnXnXnXnXnXnXyXbXbX$X$X$X$X$X$X$X$X7.7.s.nXnXnXnXnXnXnXnXnXnXnXnXnXnXnXnXnXnXnXnXnXnXnXnXnXnXnXnXnXnXnXnXnXnXnXnXnXnXnXnXnXnXnXnXnXnXnXnXnXnXnXnX",
"nXnXnXnXnXnXnXnXnXnXnXnXnXnXnXnXnXnXnXnXyXbXbX$X$X$X$X$X$X$X$X7.7.s.nXnXnXnXnXnXnXnXnXnXnXnXnXnXnXnXnXnXnXnXnXnXnXnXnXnXnXnXnXnXnXnXnXnXnXnXnXnXnXnXnXnXnXnXnXnXnXnXnXnXnXnX",
"nXnXnXnXnXnXnXnXnXnXnXnXnXnXnXnXnXnXnXnXyXbXbX$X$X$X$X$X$X$X$X7.7.s.nXnXnXnXnXnXnXnXnXnXnXnXnXnXnXnXnXnXnXnXnXnXnXnXnXnXnXnXnXnXnXnXnXnXnXnXnXnXnXnXnXnXnXnXnXnXnXnXnXnXnXnX",
"nXnXnXnXnXnXnXnXnXnXnXnXnXnXnXnXnXnXnXnXyXbXbX$X$X$X$X$X$X$X$X7.7.s.nXnXnXnXnXnXnXnXnXnXnXnXnXnXnXnXnXnXnXnXnXnXnXnXnXnXnXnXnXnXnXnXnXnXnXnXnXnXnXnXnXnXnXnXnXnXnXnXnXnXnXnX",
"nXnXnXnXnXnXnXnXnXnXnXnXnXnXnXnXnXnXnXnXyXbXbX$X$X$X$X$X$X$X$X7.7.s.nXnXnXnXnXnXnXnXnXnXnXnXnXnXnXnXnXnXnXnXnXnXnXnXnXnXnXnXnXnXnXnXnXnXnXnXnXnXnXnXnXnXnXnXnXnXnXnXnXnXnXnX",
"nXnXnXnXnXnXnXnXnXnXnXnXnXnXnXnXnXnXnXnXyXbXbX$X$X$X$X$X$X$X$X7.7.s.nXnXnXnXnXnXnXnXnXnXnXnXnXnXnXnXnXnXnXnXnXnXnXnXnXnXnXnXnXnXnXnXnXnXnXnXnXnXnXnXnXnXnXnXnXnXnXnXnXnXnXnX",
"nXnXnXnXnX7.+.+.+. .nXnXnXnXnXnXnXnXnXnXyXbXbX$X$X$X$X$X$X$X$X7.7.s.nXnXnXnXnXnXnXnXnXnXnXnXnXnXnXnXnXnXnXnXnXnXnXnXnXnXnXnXnXnXnXnXnXnXnXnXnXnXnXnXnXnXnXnXnXnXnXnXnXnXnXnX",
"nXnXnXnXnX7.7.7.7.7.7.7.7.+.+. .nXnXnXnXyXbXbX$X$X$X$X$X$X$X$X7.7.s.nXnXnXnXnXnXnXnXnXnXnXnXnXnXnXnXnXnXnXnXnXnXnXnXnXnXnXnXnXnXnXnXnXnXnXnXnXnXnXnXnXnXnXnXnXnXnXnXnXnXnXnX",
"nXnXnXnX .7.7.J.k.s.7.7.7.7.7.7.7.7.7.4.g.~.|.W.`.$X$X$X$X$X$X7.7.s.nXnXnXnXnXnXnXnXnXnXnXnXnXnXnXnXnXnX .7. .nXnXnXnXnXnXnXnXnXnXnXnXnXnXnXnXnXnXnXnXnXnXnXnXnXnXnXnXnXnXnX",
"nXnXnXnX+.7.k.$X$X$X$X|.W.J.M.s.7.7.7.7.7.7.7.7.7.7.7.g.M.K.`.7.7.s.nXnXnXnXnXnXnXnXnXnXnXnXnXnXnXnXnXnX .7.7. .nXnXnXnXnXnXnXnXnXnXnXnXnXnXnXnXnXnXnXnXnXnXnXnXnXnXnXnXnXnX",
"nXnXnXnX+.7.J.$X$X$X$X$X$X$X$X$X$X$X`.W.J.k.7.7.7.7.7.7.7.7.7.7.7.7. .nXnXnXnXnXnXnXnXnXnXnXnXnXnXnXnXnX+.7.7.7.+.nXnXnXnXnXnXnXnXnXnXnXnXnXnXnXnXnXnXnXnXnXnXnXnXnXnXnXnXnX",
"nXnXnXnX+.7.W.$X$X$X$X$X$X$X$X$X$X$X$X$X$X$X$X$X`.W.J.k.s.7.7.7.7.7.7.7.7.7.4.+.+. .nXnXnXnXnXnXnXnXnXnX+.7.k.7.7.-.nXnXnXnXnXnXnXnXnXnXnXnXnXnXnXnXnXnXnXnXnXnXnXnXnXnXnXnX",
"nXnXnXnX7.7.7.g.K.|.$X$X$X$X$X$X$X$X$X$X$X$X$X$X$X$X$X$X$X$X|.W.J.M.s.7.7.7.7.7.7.7.7.7.+.+.+. .nXnXnXnX7.7.`.`.7.7.7.+.nXnXnXnXnXnXnXnXnXnXnXnXnXnXnXnXnXnXnXnXnXnXnXnXnXnX",
"nXnXnXnX7.7.7.7.7.7.s.M.W.$X$X$X$X$X$X$X$X$X$X$X$X$X$X$X$X$X$X$X$X$X$X$X$X`.W.J.k.7.7.7.7.7.7.7.7.7.7.+.7.7.$X$X|.s.7.7.+.nXnXnXnXnXnXnXnXnXnXnXnXnXnXnXnXnXnXnXnXnXnXnXnXnX",
"nXnXnXnX7.7.7.7.7.7.7.7.7.7.k.W.|.$X$X$X$X$X$X$X$X$X$X$X$X$X$X$X$X$X$X$X$X$X$X$X$X$X$X`.W.J.k.s.7.7.7.7.7.7.$X$X$X$XM.7.7.+.nXnXnXnXnXnXnXnXnXnXnXnXnXnXnXnXnXnXnXnXnXnXnXnX",
"nXnXnX .7.7.k.s.7.7.7.7.7.7.7.7.7.s.J.`.$X$X$X$X$X$X$X$X$X$X$X$X$X$X$X$X$X$X$X$X$X$X$X$X$X$X$X$X$X|.W.J.M.M.$X$X$X$X$XK.7.7.-.nXnXnXnXnXnXnXnXnXnXnXnXnXnXnXnXnXnXnXnXnXnXnX",
"nXnXnX .7.M.$X$X$X$X|.`.W.W.J.M.k.s.7.7.7.k.W.$X$X$X$X$X$X$X$X$X$X$X$X$X$X$X$X$X$X$X$X$X$X$X$X$X$X$X$X$X$X$X$X$X$X$X$X$XW.7.7.7.+.nXnXnXnXnXnXnXnXnXnXnXnXnXnXnXnXnXnXnXnXnX",
"nXnXnX+.7.K.$X$X$X$X$X$X$X$X$X$X$X$X$X$X|.`.W.K.`.$X2X9X9X:X$X$X$X$X$X$X$X$X$X$X$X$X$X$X$X$X$X$X$X$X$X$X$X$X$X$X$X$X$X$X$X|.s.7.7. .nXnXnXnXnXnXnXnXnXnXnXnXnXnXnXnXnXnXnXnX",
"nXnXnX7.7.W.$X$X$X$X$X$X$X$X$X$X$X$X$X$X$X$X$X$X$X$X$X$X$X2XeXyXyXyX9X2X-X$X$X$X$X$X$X$X$X$X$X$X$X$X$X$X$X$X$X$X$X$X$X$X$X$X$Xk.7.7. .nXnXnXnXnXnXnXnXnXnXnXnXnXnXnXnXnXnXnX",
"nXnXnX7.7.|.$X$X$X$X$X$X$X$X$X$X$X$X$X$X$X$X$X$X$X$X$X$X$X$X$X$X$X:X9XyXzXzXhXyXeX9X:X$X$X$X$X$X$X$X$X$X$X$X$X$X$X$X$X$X$X$X$X$XJ.7.7.4.nXnXnXnXnXnXnXnXnXnXnXnXnXnXnXnXnXnX",
"nXnXnX7.7.$X$X$X$X$X$X$X$X$X$X$X$X$X$X$X$X$X$X$X$X$X$X$X$X$X$X$X$X$X$X$X$X-X9XyXhXbXbXbXzXyXeX9X:X$X$X$X$X$X$X$X$X$X$X$X$X|.`.W.W.k.7.7.7. .nXnXnXnXnXnXnXnXnXnXnXnXnXnXnXnX",
"nXnX .7.s.$X$X$X$X$X$X$X$X$X$X$X$X$X$X$X$X$X$X$X$X$X$X$X$X$X$X$X$X$X$X$X$X$X$X$X$X$X2XeXyXeX9X2X$X[.K.J.M.M.k.s.s.7.7.7.7.7.7.7.7.7.7.7.7.7.+.nXnXnXnXnXnXnXnXnXnXnXnXnXnXnX",
"nXnX4.7.k.$X$X$X$X$X$X$X$X$X$X$X$X$X$X$X$X$X$X$X$X$X$X$X$X$X$X$X$X$X$X$X$X$X$X$X$X$X$X$X$X$X$X$X$X$X`.W.J.M.s.7.7.7.7.7.7.7.7.7.7.7.7.7.7.7.+.+.nXnXnXnXnXnXnXnXnXnXnXnXnXnX",
"nXnX4.7.J.$X$X$X$X$X$X$X$X$X$X$X$X$X$X$X$X$X$X$X$X$X$X$X$X$X$X$X$X$X$X$X$X$X$X$X$X$X$X$X$X$X$X$X$X$X$X$X$X$X$X$X$X`.W.J.M.s.7.7.7.7.7.7.7.7.7.7.+.nXnXnXnXnXnXnXnXnXnXnXnXnX",
"nXnX+.7.W.$X2XeXyX9X2X:X$X$X$X$X$X$X$X$X$X$X$X$X$X$X$X$X$X$X$X$X$X$X$X$X$X$X$X$X$X$X$X$X$X$X$X$X$X$X$X$X$X$X$X$X$X$X$X$X$X$X$X$X`.W.J.M.s.7.7.7.7.+.nXnXnXnXnXnXnXnXnXnXnXnX",
"nXnX7.7.`.$X$X$X:XeXyXhXzXzXyXyX9X2X:X$X$X$X$X$X$X$X$X$X$X$X$X$X$X$X$X$X$X$X$X$X$X$X$X$X$X$X$X$X$X$X$X$X$X$X$X$X$X$X$X$X$X$X$X$X$X$X$X$X$X$X$X`.7.7.7. .nXnXnXnXnXnXnXnXnXnX",
"nXnX7.7.|.$X$X$X$X$X$X$X$X$X-X2X9XeXyXyXyXyXyXeX9X:X$X$X$X$X$X$X$X$X$X$X$X$X$X$X$X$X$X$X$X$X$X$X$X$X$X$X$X$X$X$X$X$X$X$X$X$X$X$X$X$X$X$X$X$X$X$X$Xs.7.7.+.nXnXnXnXnXnXnXnXnX",
"nX+.7.7.7.7.k.J.W.$X$X$X$X$X$X$X$X$X$X$X$X$X$X-X:X9X9XeX9X9X9X9X:X$X$X$X$X$X$X$X$X$X$X$X-X2X9X9X9X2X-X$X$X$X$X$X$X$X$X$X$X$X$X$X$X$X$X$X$X$X$X$X$X$XM.7.7.4.nXnXnXnXnXnXnXnX",
"nX+.7.7.7.7.7.7.7.7.s.M.K.`.$X$X$X$X$X$X$X$X$X$X$X$X$X$X$X$X$X$X-X:X2X:X:X-X-X$X$X$X$X$X$X$X$X$X$X2XeXyXhXyXeX9X:X$X$X$X$X$X$X$X$X$X$X$X$X$X$X$X$X$X$XW.7.7.4.nXnXnXnXnXnXnX",
"nX+.7.7.7.7.7.7.7.7.7.7.7.7.7.k.J.`.$X$X$X$X$X$X$X$X$X$X$X$X$X$X$X$X$X$X$X$X$X$X$X$X$X$X$X$X$X$X$X$X$X$X$X:XeXyXzXbXzXyXyXeX2X-X$X$X$X$X$X$X$X$X$X$X$X$X`.7.7.7.+.nXnXnXnXnX",
"nX+.7.K.$X$X$X$X$X$X$X$X$X$X$X$X$X$X$X$X$X$X$X$X$X$X$X$X$X$X$X$X$X$X$X$X$X$X$X$X$X$X$X$X$X$X$X$X$X$X$X$X$X$X$X$X$X:X9XyXzXbXzXhXyX9X-X$X$X$X$X$X$X$X$X$X$X$Xs.7.7. .nXnXnXnX",
"nX7.7.D.t ,.c.C.|.$X$X$X$X$X$X$X$X$X$X$X$X$X$X$X$X$X$X$X$X$X$X$X$X$X$X$X$X$X$X$X$X$X$X$X$X$X$X$X$X$X$X$X$X$X$X$X$X$X$X$X$X$X$X$X$X$X$X$X$X$X$X$X$X$X$X$X$X$X$XM.7.7.+.nXnXnX",
"nX7.7./.3 3 3 3 3 r S ,.b.D.|.$X$X$X$X$X$X$X$X$X$X$X$X$X$X$X$X$X$X$X$X$X$X$X$X$X$X$X$X$X$X$X$X$X$X$X$X$X$X$X$X$X$X$X$X$X$X$X$X$X$X$X$X$X$X$X$X$X$X$X$X$X$X$X$X$Xk.7.7.+.nXnX",
"nX7.7.7.7 3 3 3 3 3 3 3 3 3 3 r x.$X$X$X$X$X$X$X$X$X$X$X$X$X$X$X$X$X$X$X$X$X$X$X$X$X$X$X$X$X$X$X$X$X$X$X$X$X$X$X$X$X$X$X$X$X$X$X$X$X$X$X$X$X$X$X$X$X$X$X$X`.M.7.7.7.7.+.+.nX",
"+.4.7.7.q 3 3 3 3 3 3 3 3 3 3 3 b.$X$X$X$X$X$X$X$X$X$X$X$X$X$X$X$X$X$X$X$X$X$X$X-X2X2X-X$X$X$X$X$X$X$X$X$X$X$X$X$X$X$X$X$X$X$X$X$X$X$X$X$X$X$X$X$X$X$XK.s.7.7.7.7.+.nXnXnXnX",
"nXnXnXnXq 3 3 3 3 3 3 3 3 3 3 3 D s.k.J.W.`.$X$X$X$X$X$X$X$X$X$X$X$X$X$X$X$X$X$X$X$X$X9XyXyXeX2X-X$X$X$X$X$X$X$X$X$X$X$XW.W.`.$X$X$X$X$X$X$X$X$XW.k.7.7.7.7.+. .nXnXnXnXnXnX",
"nXnXnXnX$ = 3 3 3 3 3 3 3 3 3 3 ;.7.7.7.7.7.7.7.s.M.K.W.|.$X$X$X$X$X$X$X$X$X$X$X$X$X$X$X$X$X2XyXzXzXyXeX2X$X$X$X$X$X$X$X$XJ.7.7.s.k.J.W.|.|.J.7.7.7.7.4.+.nXnXnXnXnXnXnXnXnX",
"nXnXnXnXnXnX3 3 3 3 3 3 3 = 3 3 nX+.+. .7.7.7.7.7.7.7.7.7.7.s.M.J.W.].$X$X$X$X$X$X$X$X$X$X$X$X$X$X2XyXzXbXbXzXyXeX2X$X$X$X$XW.7.7.7.7.7.7.7.7.7.7.4.nXnXnXnXnXnXnXnXnXnXnXnX",
"nXnXnXnXnXnX= 3 3 3 3 3 3 nX= 3 nXnXnXnXyXyX2XJ.k.s.7.7.7.7.7.7.7.7.7.7.s.k.J.W.`.$X$X$X$X$X$X$X$X$X$X$X:X2X2X9X9X9X9X2X$X$X$X`.7.7.7.7.7.7.+. .nXnXnXnXnXnXnXnXnXnXnXnXnXnX",
"nXnXnXnXnXnXO 3 3 3 = 3 3 nXnX3 nXnXnXnXyXbXbX$X$X$X`.`.W.K.M.7.7.7.7.7.7.7.7.7.7.7.7.s.M.K.W.|.$X$X$X$X$X$X$X$X$X$X$X~.(.$XK.s.7.7.7.7.+.nXnXnXnXnXnXnXnXnXnXnXnXnXnXnXnXnX",
"nXnXnXnXnXnXnX3 3 3 . 3 3 nXnXO nXnXnXnXyXbXbX$X$X$XK.|.$X$X$X7.7.n.nXnX+.+. .4.7.7.7.7.7.7.7.7.7.M.$X$X$X$X$X|.x.:.q 3 z.7.7.7.7.+. .nXnXnXnXnXnXnXnXnXnXnXnXnXnXnXnXnXnXnX",
"nXnXnXnXnXnXnX3 3 = nX3 3 nXnXnXnXnXnXnXyXyXbX$X$X$Xg.].$X$X$X7.7.s.nXnXnXnXnXnXnXnXnX . .+.7.7.7.M.$X$XD.<.t 8 3 3 3 3 { 7.4.+.nXnXnXnXnXnXnXnXnXnXnXnXnXnXnXnXnXnXnXnXnXnX",
"nXnXnXnXnXnXnX= 3 < nX= = nXnXnXnXnXnXnXeXyXbX$X$X$X7.`.$X$X$X7.7.s.nXnXnXnXnXnXnXnXnXnXnXnXnX+.7.J.F.w 3 3 3 3 3 3 3 8 4.nXnXnXnXnXnXnXnXnXnXnXnXnXnXnXnXnXnXnXnXnXnXnXnXnX",
"nXnXnXnXnXnXnX= 3 = nXO = nXnXnXnXnXnXnX2X9XbX$X$XW.7.`.$X$X$X7.7.s.nXnXnXnXnXnXnXnXnXnXnXnXnX7.7.W.D.3 3 3 3 3 3 3 3 6 nXnXnXnXnXnXnXnXnXnXnXnXnXnXnXnXnXnXnXnXnXnXnXnXnXnX",
"nXnXnXnXnXnXnXnX3 O nXnX= nXnXnXnXnXnXnX:X2XbX$X$XJ.7.W.$X$X|.+.7.s.nXnXnXnXnXnXnXnXnXnXnXnXnX7.7.M.z.3 3 3 3 3 3 3 = = nXnXnXnXnXnXnXnXnXnXnXnXnXnXnXnXnXnXnXnXnXnXnXnXnXnX",
"nXnXnXnXnXnXnXnX3 = nXnXO nXnXnXnXnXnXnX:X-XbX$X$Xs.7.W.$X$XJ.( 7.s.nXnXnXnXnXnXnXnXnXnXnXnXnX7.7.7.{ 3 3 3 3 3 3 3 = O nXnXnXnXnXnXnXnXnXnXnXnXnXnXnXnXnXnXnXnXnXnXnXnXnXnX",
"nXnXnXnXnXnXnXnX= nXnXnXnXnXnXnXnXnXnXnX:X$XzX$X$X7.7.W.$X$Xs.~ 7.s.nXnXnXnXnXnXnXnXnXnXnXnX .7.7.4.{ 3 3 = 3 3 3 3 = nXnXnXnXnXnXnXnXnXnXnXnXnXnXnXnXnXnXnXnXnXnXnXnXnXnXnX",
"nXnXnXnXnXnXnXnXO nXnXnXnXnXnXnXnXnXnXnX:X$XhX$XW.7.7.W.$X`.7.T 7.s.nXnXnXnXnXnXnXnXnXnXnXnX+.4.nXnXnX= O O 3 3 3 3 nXnXnXnXnXnXnXnXnXnXnXnXnXnXnXnXnXnXnXnXnXnXnXnXnXnXnXnX",
"nXnXnXnXnXnXnXnXnXnXnXnXnXnXnXnXnXnXnXnX:X$XyX$XM.7.7.W.$XM.7.K 7.s.nXnXnXnXnXnXnXnXnXnXnXnXnXnXnXnXnX3 nX= 3 = 3 3 nXnXnXnXnXnXnXnXnXnXnXnXnXnXnXnXnXnXnXnXnXnXnXnXnXnXnXnX",
"nXnXnXnXnXnXnXnXnXnXnXnXnXnXnXnXnXnXnXnX:X$XeX$X7.7.7.K.$X7.7.B 7.s.nXnXnXnXnXnXnXnXnXnXnXnXnXnXnXnXnX. nXO 3 O 3 3 nXnXnXnXnXnXnXnXnXnXnXnXnXnXnXnXnXnXnXnXnXnXnXnXnXnXnXnX",
"nXnXnXnXnXnXnXnXnXnXnXnXnXnXnXnXnXnXnXnX:X$X9X|.7.7.7.J.W.7.7.b  .s.nXnXnXnXnXnXnXnXnXnXnXnXnXnXnXnXnXnXnXO = nX3 3 nXnXnXnXnXnXnXnXnXnXnXnXnXnXnXnXnXnXnXnXnXnXnXnXnXnXnXnX",
"nXnXnXnXnXnXnXnXnXnXnXnXnXnXnXnXnXnXnXnX:X$X2XK.7.7.7.J.k.7.7.b / ( nXnXnXnXnXnXnXnXnXnXnXnXnXnXnXnXnXnXnXO O nX3 O nXnXnXnXnXnXnXnXnXnXnXnXnXnXnXnXnXnXnXnXnXnXnXnXnXnXnXnX",
"nXnXnXnXnXnXnXnXnXnXnXnXnXnXnXnXnXnXnXnX:X$X$Xk.7.7.7.M.7.7.7.b K K nXnXnXnXnXnXnXnXnXnXnXnXnXnXnXnXnXnXnXO nXnX3 O nXnXnXnXnXnXnXnXnXnXnXnXnXnXnXnXnXnXnXnXnXnXnXnXnXnXnXnX",
"nXnXnXnXnXnXnXnXnXnXnXnXnXnXnXnXnXnXnXnX:X$X$X7.7.7.7.7.7.7.7.b b K nXnXnXnXnXnXnXnXnXnXnXnXnXnXnXnXnXnXnXO nXnX3 nXnXnXnXnXnXnXnXnXnXnXnXnXnXnXnXnXnXnXnXnXnXnXnXnXnXnXnXnX",
"nXnXnXnXnXnXnXnXnXnXnXnXnXnXnXnXnXnXnXnX:X$X$X7.7.7.7.7.7.7.7.b b K nXnXnXnXnXnXnXnXnXnXnXnXnXnXnXnXnXnXnXO nXnX3 nXnXnXnXnXnXnXnXnXnXnXnXnXnXnXnXnXnXnXnXnXnXnXnXnXnXnXnXnX",
"nXnXnXnXnXnXnXnXnXnXnXnXnXnXnXnXnXnXnXnX:X$X$X7.7.7.7.7.7.7.7.b b K nXnXnXnXnXnXnXnXnXnXnXnXnXnXnXnXnXnXnXnXnXnX= nXnXnXnXnXnXnXnXnXnXnXnXnXnXnXnXnXnXnXnXnXnXnXnXnXnXnXnXnX",
"nXnXnXnXnXnXnXnXnXnXnXnXnXnXnXnXnXnXnXnX:X$X$X7.7.7.7.7.7.7.7.b b K nXnXnXnXnXnXnXnXnXnXnXnXnXnXnXnXnXnXnXnXnXnXO nXnXnXnXnXnXnXnXnXnXnXnXnXnXnXnXnXnXnXnXnXnXnXnXnXnXnXnXnX",
"nXnXnXnXnXnXnXnXnXnXnXnXnXnXnXnXnXnXnXnX:X$X$X7.7.7.7.7.7.7.7.b b K nXnXnXnXnXnXnXnXnXnXnXnXnXnXnXnXnXnXnXnXnXnXnXnXnXnXnXnXnXnXnXnXnXnXnXnXnXnXnXnXnXnXnXnXnXnXnXnXnXnXnXnX",
"nXnXnXnXnXnXnXnXnXnXnXnXnXnXnXnXnXnXnXnX:X$X$X~ 7.7.7.7.7.7.7.b b K nXnXnXnXnXnXnXnXnXnXnXnXnXnXnXnXnXnXnXnXnXnXnXnXnXnXnXnXnXnXnXnXnXnXnXnXnXnXnXnXnXnXnXnXnXnXnXnXnXnXnXnX",
"nXnXnXnXnXnXnXnXnXnXnXnXnXnXnXnXnXnXnXnX:X$X$XT +.7.7.7.7.+.7.b b K nXnXnXnXnXnXnXnXnXnXnXnXnXnXnXnXnXnXnXnXnXnXnXnXnXnXnXnXnXnXnXnXnXnXnXnXnXnXnXnXnXnXnXnXnXnXnXnXnXnXnXnX",
"nXnXnXnXnXnXnXnXnXnXnXnXnXnXnXnXnXnXnXnX:X$X$XK / 7.7.7.7.R 7.b b K nXnXnXnXnXnXnXnXnXnXnXnXnXnXnXnXnXnXnXnXnXnXnXnXnXnXnXnXnXnXnXnXnXnXnXnXnXnXnXnXnXnXnXnXnXnXnXnXnXnXnXnX",
"nXnXnXnXnXnXnXnXnXnXnXnXnXnXnXnXnXnXnXnX:X$X$XK T 7.7.7.+.b +.b b K nXnXnXnXnXnXnXnXnXnXnXnXnXnXnXnXnXnXnXnXnXnXnXnXnXnXnXnXnXnXnXnXnXnXnXnXnXnXnXnXnXnXnXnXnXnXnXnXnXnXnXnX",
"nXnXnXnXnXnXnXnXnXnXnXnXnXnXnXnXnXnXnXnX:X$X$XK B 7.7.7.( b ~ b b K nXnXnXnXnXnXnXnXnXnXnXnXnXnXnXnXnXnXnXnXnXnXnXnXnXnXnXnXnXnXnXnXnXnXnXnXnXnXnXnXnXnXnXnXnXnXnXnXnXnXnXnX",
"nXnXnXnXnXnXnXnXnXnXnXnXnXnXnXnXnXnXnXnX:X$X$XC b  .7.7.~ b K b b K nXnXnXnXnXnXnXnXnXnXnXnXnXnXnXnXnXnXnXnXnXnXnXnXnXnXnXnXnXnXnXnXnXnXnXnXnXnXnXnXnXnXnXnXnXnXnXnXnXnXnXnX",
"nXnXnXnXnXnXnXnXnXnXnXnXnXnXnXnXnXnXnXnX:X$X$XB b ~ 7.7.R b b c b C nXnXnXnXnXnXnXnXnXnXnXnXnXnXnXnXnXnXnXnXnXnXnXnXnXnXnXnXnXnXnXnXnXnXnXnXnXnXnXnXnXnXnXnXnXnXnXnXnXnXnXnX",
"nXnXnXnXnXnXnXnXnXnXnXnXnXnXnXnXnXnXnXnX$X$X$XB b K 7.7.K b b l b B nXnXnXnXnXnXnXnXnXnXnXnXnXnXnXnXnXnXnXnXnXnXnXnXnXnXnXnXnXnXnXnXnXnXnXnXnXnXnXnXnXnXnXnXnXnXnXnXnXnXnXnX",
"nXnXnXnXnXnXnXnXnXnXnXnXnXnXnXnXnXnXnXnXK.$X$XB b B 7.7.C b b f b c nXnXnXnXnXnXnXnXnXnXnXnXnXnXnXnXnXnXnXnXnXnXnXnXnXnXnXnXnXnXnXnXnXnXnXnXnXnXnXnXnXnXnXnXnXnXnXnXnXnXnXnX",
"nXnXnXnXnXnXnXnXnXnXnXnXnXnXnXnXnXnXnXnXM.`.$XB b b ( 7.B b b p c c nXnXnXnXnXnXnXnXnXnXnXnXnXnXnXnXnXnXnXnXnXnXnXnXnXnXnXnXnXnXnXnXnXnXnXnXnXnXnXnXnXnXnXnXnXnXnXnXnXnXnXnX",
"nXnXnXnXnXnXnXnXnXnXnXnXnXnXnXnXnXnXnXnXM.M.$XB b b R +.b b b p j l nXnXnXnXnXnXnXnXnXnXnXnXnXnXnXnXnXnXnXnXnXnXnXnXnXnXnXnXnXnXnXnXnXnXnXnXnXnXnXnXnXnXnXnXnXnXnXnXnXnXnXnX",
"nXnXnXnXnXnXnXnXnXnXnXnXnXnXnXnXnXnXnXnXM.7.$XB b b K ( b b b p d l nXnXnXnXnXnXnXnXnXnXnXnXnXnXnXnXnXnXnXnXnXnXnXnXnXnXnXnXnXnXnXnXnXnXnXnXnXnXnXnXnXnXnXnXnXnXnXnXnXnXnXnX",
"nXnXnXnXnXnXnXnXnXnXnXnXnXnXnXnXnXnXnXnXM.7.W.B b b b ~ b b b p y f nXnXnXnXnXnXnXnXnXnXnXnXnXnXnXnXnXnXnXnXnXnXnXnXnXnXnXnXnXnXnXnXnXnXnXnXnXnXnXnXnXnXnXnXnXnXnXnXnXnXnXnX",
"nXnXnXnXnXnXnXnXnXnXnXnXnXnXnXnXnXnXnXnXM.7.s.B b b b B b b b p y d nXnXnXnXnXnXnXnXnXnXnXnXnXnXnXnXnXnXnXnXnXnXnXnXnXnXnXnXnXnXnXnXnXnXnXnXnXnXnXnXnXnXnXnXnXnXnXnXnXnXnXnX",
"nXnXnXnXnXnXnXnXnXnXnXnXnXnXnXnXnXnXnXnXM.7.7.B b b b b b b b p y d nXnXnXnXnXnXnXnXnXnXnXnXnXnXnXnXnXnXnXnXnXnXnXnXnXnXnXnXnXnXnXnXnXnXnXnXnXnXnXnXnXnXnXnXnXnXnXnXnXnXnXnX",
"nXnXnXnXnXnXnXnXnXnXnXnXnXnXnXnXnXnXnXnXM.7.7.B b b b b b b b p y d nXnXnXnXnXnXnXnXnXnXnXnXnXnXnXnXnXnXnXnXnXnXnXnXnXnXnXnXnXnXnXnXnXnXnXnXnXnXnXnXnXnXnXnXnXnXnXnXnXnXnXnX",
"nXnXnXnXnXnXnXnXnXnXnXnXnXnXnXnXnXnXnXnXM.7.7.B b b b b b b b p y d nXnXnXnXnXnXnXnXnXnXnXnXnXnXnXnXnXnXnXnXnXnXnXnXnXnXnXnXnXnXnXnXnXnXnXnXnXnXnXnXnXnXnXnXnXnXnXnXnXnXnXnX",
"nXnXnXnXnXnXnXnXnXnXnXnXnXnXnXnXnXnXnXnXM.7.7.B b b b b b b b p y d nXnXnXnXnXnXnXnXnXnXnXnXnXnXnXnXnXnXnXnXnXnXnXnXnXnXnXnXnXnXnXnXnXnXnXnXnXnXnXnXnXnXnXnXnXnXnXnXnXnXnXnX",
"nXnXnXnXnXnXnXnXnXnXnXnXnXnXnXnXnXnXnXnXM.7.7.B b b b b b b b p y d nXnXnXnXnXnXnXnXnXnXnXnXnXnXnXnXnXnXnXnXnXnXnXnXnXnXnXnXnXnXnXnXnXnXnXnXnXnXnXnXnXnXnXnXnXnXnXnXnXnXnXnX",
"nXnXnXnXnXnXnXnXnXnXnXnXnXnXnXnXnXnXnXnXM.7.7.B b b b b b b b p y d nXnXnXnXnXnXnXnXnXnXnXnXnXnXnXnXnXnXnXnXnXnXnXnXnXnXnXnXnXnXnXnXnXnXnXnXnXnXnXnXnXnXnXnXnXnXnXnXnXnXnXnX",
"nXnXnXnXnXnXnXnXnXnXnXnXnXnXnXnXnXnXnXnXM.7.7.B b b b b b b b p y d nXnXnXnXnXnXnXnXnXnXnXnXnXnXnXnXnXnXnXnXnXnXnXnXnXnXnXnXnXnXnXnXnXnXnXnXnXnXnXnXnXnXnXnXnXnXnXnXnXnXnXnX",
"nXnXnXnXnXnXnXnXnXnXnXnXnXnXnXnXnXnXnXnXM.7.7.B b b b b b b b p y d nXnXnXnXnXnXnXnXnXnXnXnXnXnXnXnXnXnXnXnXnXnXnXnXnXnXnXnXnXnXnXnXnXnXnXnXnXnXnXnXnXnXnXnXnXnXnXnXnXnXnXnX",
"nXnXnXnXnXnXnXnXnXnXnXnXnXnXnXnXnXnXnXnXM.7.7.B b b b b b b b p y d nXnXnXnXnXnXnXnXnXnXnXnXnXnXnXnXnXnXnXnXnXnXnXnXnXnXnXnXnXnXnXnXnXnXnXnXnXnXnXnXnXnXnXnXnXnXnXnXnXnXnXnX",
"nXnXnXnXnXnXnXnXnXnXnXnXnXnXnXnXnXnXnXnXJ.7.7.B B B B B B B B p p f nXnXnXnXnXnXnXnXnXnXnXnXnXnXnXnXnXnXnXnXnXnXnXnXnXnXnXnXnXnXnXnXnXnXnXnXnXnXnXnXnXnXnXnXnXnXnXnXnXnXnXnX"
};
