/* XPM */
static const char *QnVzaCslMjgyJTI5[] = {
/* columns rows colors chars-per-pixel */
"100 64 137 2 ",
"   c #336068",
".  c #336069",
"X  c #336169",
"o  c #34616A",
"O  c #34626A",
"+  c #34626B",
"@  c #34636B",
"#  c #34636C",
"$  c #35636C",
"%  c #35646C",
"&  c #35646D",
"*  c #35656D",
"=  c #36656D",
"-  c #35656E",
";  c #36656E",
":  c #36666E",
">  c #36666F",
",  c #36676F",
"<  c #37676F",
"1  c #366770",
"2  c #376770",
"3  c #376870",
"4  c #376871",
"5  c #376971",
"6  c #376972",
"7  c #386970",
"8  c #386871",
"9  c #396871",
"0  c #386872",
"q  c #386972",
"w  c #3A6972",
"e  c #386A72",
"r  c #386A73",
"t  c #386B74",
"y  c #396B74",
"u  c #3B6B74",
"i  c #396C75",
"p  c #3A6C74",
"a  c #396D76",
"s  c #3A6D76",
"d  c #3A6D77",
"f  c #3A6E77",
"g  c #3B6F77",
"h  c #3A6F78",
"j  c #3E6E78",
"k  c #3C6F7A",
"l  c #3B7079",
"z  c #3B707A",
"x  c #3B717A",
"c  c #3F7079",
"v  c #3C717A",
"b  c #3D717A",
"n  c #3C717B",
"m  c #3D727A",
"M  c #3C727B",
"N  c #3D727B",
"B  c #3C727C",
"V  c #3D737C",
"C  c #3D737D",
"Z  c #3F727C",
"A  c #3D747D",
"S  c #3D747E",
"D  c #3D757E",
"F  c #3E757F",
"G  c #3E767F",
"H  c #3E7680",
"J  c #3F7780",
"K  c #3F7781",
"L  c #3F7882",
"P  c #407983",
"I  c #427A83",
"U  c #427B83",
"Y  c #417984",
"T  c #407A84",
"R  c #417A84",
"E  c #417B84",
"W  c #417A85",
"Q  c #417B85",
"!  c #427A85",
"~  c #427B85",
"^  c #437B85",
"/  c #427B86",
"(  c #437B86",
")  c #437B87",
"_  c #427C86",
"`  c #437C86",
"'  c #437D87",
"]  c #447D85",
"[  c #447D86",
"{  c #457D86",
"}  c #447D87",
"|  c #447F86",
" . c #447E87",
".. c #447E88",
"X. c #457E88",
"o. c #457F88",
"O. c #457E89",
"+. c #457F89",
"@. c #477E88",
"#. c #467F88",
"$. c #467F89",
"%. c #467F8A",
"&. c #46808A",
"*. c #47808A",
"=. c #47818B",
"-. c #48818B",
";. c #48818C",
":. c #48828C",
">. c #49828C",
",. c #49828D",
"<. c #49838D",
"1. c #4A848E",
"2. c #4B848E",
"3. c #4B848F",
"4. c #4B858F",
"5. c #4C8590",
"6. c #4C8690",
"7. c #4D8791",
"8. c #4E8793",
"9. c #4E8891",
"0. c #4F8891",
"q. c #4D8892",
"w. c #4D8993",
"e. c #4E8892",
"r. c #4F8892",
"t. c #4E8992",
"y. c #4F8992",
"u. c #4E8893",
"i. c #4F8893",
"p. c #4E8993",
"a. c #4F8993",
"s. c #4F8A94",
"d. c #508793",
"f. c #508991",
"g. c #508993",
"h. c #508A94",
"j. c None",
/* pixels */
"j.j.j.j.j.j.j.j.j.j.j.j.j.j.j.j.j.j.j.j.j.j.j.j.j.j.j.j.j.j.j.j.j.j.j.j.j.j.j.j.j.j.j.j.j.j.j.j.j.j.j.j.j.j.j.j.j.j.j.j.j.j.j.j.j.j.j.j.j.j.j.j.j.j.j.j.j.j.j.j.j.j.j.j.j.j.j.j.j.j.j.j.j.j.j.j.j.j.j.j.",
"j.j.j.j.j.j.j.j.j.j.j.j.j.j.j.j.j.j.j.j.j.j.j.j.j.j.j.j.j.j.j.j.j.j.j.j.j.j.j.j.j.j.j.j.j.j.j.j.j.j.g.t.j.j.j.j.j.j.j.j.j.j.j.j.j.j.j.j.j.j.j.j.j.j.j.j.j.j.j.j.j.j.j.j.j.j.j.j.j.j.j.j.j.j.j.j.j.j.j.j.",
"j.j.j.j.j.j.j.j.j.j.j.j.j.j.j.j.j.j.j.j.j.j.j.j.j.j.j.j.j.j.j.j.j.j.j.j.j.j.j.j.j.j.j.j.j.j.j.j.j.t.h.h.t.j.j.j.j.j.j.j.j.j.j.j.j.j.j.j.j.j.j.j.j.j.j.j.j.j.j.j.j.j.j.j.j.j.j.j.j.j.j.j.j.j.j.j.j.j.j.j.",
"j.j.j.j.j.j.j.j.j.j.j.j.j.j.j.j.j.j.j.j.j.j.j.j.j.j.j.j.j.j.j.j.j.j.j.j.j.j.j.j.j.j.j.j.j.j.j.j.t.h.h.h.g.j.j.j.j.j.j.j.j.j.j.j.j.j.j.j.j.j.j.j.j.j.j.j.j.j.j.j.j.j.j.j.j.j.j.j.j.j.j.j.j.j.j.j.j.j.j.j.",
"j.j.j.j.j.j.j.j.j.j.j.j.j.j.j.j.j.j.j.j.j.j.j.j.j.j.j.j.j.j.j.j.j.j.j.j.j.j.j.j.j.j.j.j.j.j.j.t.h.h.h.h.h.t.j.j.j.j.j.j.j.j.j.j.j.j.j.j.j.j.j.j.j.j.j.j.j.j.j.j.j.j.j.j.j.j.j.j.j.j.j.j.j.j.j.j.j.j.j.j.",
"j.j.j.j.j.j.j.j.j.j.j.j.j.j.j.j.j.j.j.j.j.j.j.j.j.j.j.j.j.j.j.j.j.j.j.j.j.j.j.j.j.j.j.j.j.j.t.h.h.h.h.h.h.h.t.j.j.j.j.j.j.j.j.j.j.j.j.j.j.j.j.j.j.j.j.j.j.j.j.j.j.j.j.j.j.j.j.j.j.j.j.j.j.j.j.j.j.j.j.j.",
"j.j.j.j.j.j.j.j.j.j.j.j.j.j.j.j.j.j.j.j.j.j.j.j.j.j.j.j.j.j.j.j.j.j.j.j.j.j.j.j.j.j.j.j.j.j.h.h.h.h.h.h.h.h.t.j.j.j.j.j.j.j.j.j.j.j.j.j.j.j.j.j.j.j.j.j.j.j.j.j.j.j.j.j.j.j.j.j.j.j.j.j.j.j.j.j.j.j.j.j.",
"j.j.j.j.j.j.j.j.j.j.j.j.j.j.j.j.j.j.j.j.j.j.j.j.j.j.j.j.j.j.j.j.j.j.j.t.t.j.j.j.j.j.j.j.j.t.h.h.h.h.h.h.h.h.h.t.j.j.j.j.j.j.t.t.j.j.j.j.j.j.j.j.j.j.j.j.j.j.j.j.j.j.j.j.j.j.j.j.j.j.j.j.j.j.j.j.j.j.j.j.",
"j.j.j.j.j.j.j.j.j.j.j.j.j.j.j.j.j.j.j.j.j.j.j.j.j.j.j.j.j.j.j.j.j.j.j.t.h.h.h.t.t.j.j.j.t.h.h.h.h.h.h.h.h.h.h.t.j.j.t.7.h.h.h.h.j.j.j.j.j.j.j.j.j.j.j.j.j.j.j.j.j.j.j.j.j.j.j.j.j.j.j.j.j.j.j.j.j.j.j.j.",
"j.j.j.j.j.j.j.j.j.j.j.j.j.j.j.j.j.j.j.j.j.j.j.j.j.j.j.j.j.j.j.j.j.j.j.g.h.h.h.h.h.h.g.j.t.h.h.h.h.h.h.h.h.h.h.h.t.h.h.h.h.h.h.h.j.j.j.j.j.j.j.j.j.j.j.j.j.j.j.j.j.j.j.j.j.j.j.j.j.j.j.j.j.j.j.j.j.j.j.j.",
"j.j.j.j.j.j.j.j.j.j.j.j.j.j.j.j.j.j.j.j.j.j.j.j.j.j.j.j.j.j.j.j.j.j.j.h.h.h.h.h.h.h.h.h.h.h.h.h.h.h.h.h.h.h.h.h.h.h.h.h.h.h.h.h.j.j.j.j.j.j.j.j.j.j.j.j.j.j.j.j.j.j.j.j.j.j.j.j.j.j.j.j.j.j.j.j.j.j.j.j.",
"j.j.j.j.j.j.j.j.j.j.j.j.j.j.j.j.j.j.j.j.j.t.g.h.h.h.h.h.h.h.t.t.j.j.j.h.h.h.h.h.h.h.h.h.h.h.h.h.h.h.h.h.h.h.h.h.h.h.h.h.h.h.h.h.j.j.j.j.t.t.t.h.h.h.h.h.h.h.t.t.j.j.j.j.j.j.j.j.j.j.j.j.j.j.j.j.j.j.j.j.",
"j.j.j.j.j.j.j.j.j.j.j.j.j.j.j.j.j.j.j.j.j.h.h.h.h.h.h.h.h.h.h.h.h.d.j.h.h.h.h.h.h.h.h.h.h.h.h.h.h.h.h.h.h.h.h.h.h.h.h.h.h.h.h.h.j.j.t.h.h.h.h.h.h.h.h.h.h.h.h.t.j.j.j.j.j.j.j.j.j.j.j.j.j.j.j.j.j.j.j.j.",
"j.j.j.j.j.j.j.j.j.j.j.j.j.j.j.j.j.j.j.j.j.h.h.h.h.h.h.h.h.h.h.h.h.h.h.h.h.h.h.h.h.h.h.h.h.h.h.h.h.h.h.h.h.h.h.h.h.h.h.h.h.h.h.h.t.t.h.h.h.h.h.h.h.h.h.h.h.h.h.j.j.j.j.j.j.j.j.j.j.j.j.j.j.j.j.j.j.j.j.j.",
"j.j.j.j.j.j.j.j.j.j.j.j.j.j.j.j.j.j.j.j.j.t.h.h.h.h.h.h.h.h.h.h.h.h.h.h.h.h.h.h.h.h.h.h.h.h.h.h.h.h.h.h.h.h.h.h.h.h.h.h.h.h.h.h.h.h.h.h.h.h.h.h.h.h.h.h.h.h.g.j.j.j.j.j.j.j.j.j.j.j.j.j.j.j.j.j.j.j.j.j.",
"j.j.j.j.j.j.j.j.j.j.j.j.j.j.j.j.j.j.j.j.j.t.h.h.h.h.h.h.h.h.h.h.h.h.h.h.h.h.h.h.h.h.h.h.h.h.h.h.h.h.h.h.h.h.h.h.h.h.h.h.h.h.h.h.h.h.h.h.h.h.h.h.h.h.h.h.h.h.t.j.j.j.j.j.j.j.j.j.j.j.j.j.j.j.j.j.j.j.j.j.",
"j.j.j.j.j.j.j.j.j.j.j.j.j.j.j.j.j.j.j.j.j.j.h.h.h.h.h.h.h.h.h.h.h.h.h.h.h.h.h.h.h.h.h.h.h.h.h.h.h.h.h.h.h.h.h.h.h.h.h.h.h.h.h.h.h.h.h.h.h.h.h.h.h.h.h.h.h.h.t.j.j.j.j.j.j.j.j.j.j.j.j.j.j.j.j.j.j.j.j.j.",
"j.j.j.j.j.j.j.j.j.j.j.j.j.j.j.j.j.j.j.j.j.j.7.h.h.h.h.h.h.h.h.h.h.h.h.h.h.h.h.h.h.h.h.h.h.h.h.h.h.h.h.h.h.h.h.h.h.h.h.h.h.h.h.h.h.h.h.h.h.h.h.h.h.h.h.h.h.h.j.j.j.j.j.j.j.j.j.j.j.j.j.j.j.j.j.j.j.j.j.j.",
"j.j.j.j.j.j.j.j.j.j.j.j.j.j.j.j.j.j.j.j.j.j.t.h.h.h.h.h.h.h.h.h.h.h.h.h.h.h.h.h.h.h.h.h.h.h.h.h.h.h.h.h.h.h.h.h.h.h.h.h.h.h.h.h.h.h.h.h.h.h.h.h.h.h.h.h.h.t.j.j.j.j.j.j.j.j.j.j.j.j.j.j.j.j.j.j.j.j.j.j.",
"j.j.j.j.j.j.j.j.j.j.j.j.j.j.j.j.j.j.j.j.j.j.j.t.h.h.h.h.h.h.h.h.h.h.h.h.h.h.h.h.h.h.h.h.h.h.h.h.h.h.h.h.h.h.h.h.h.h.h.h.h.h.h.h.h.h.h.h.h.h.h.h.h.h.h.h.h.j.j.j.j.j.j.j.j.j.j.j.j.j.j.j.j.j.j.j.j.j.j.j.",
"j.j.j.j.j.j.j.j.j.j.j.j.j.j.j.j.j.j.j.j.j.j.j.7.h.h.h.h.h.h.h.h.h.h.h.h.h.h.h.h.h.h.h.h.h.h.h.h.h.h.h.h.h.h.h.h.h.h.h.h.h.h.h.h.h.h.h.h.h.h.h.h.h.h.h.h.t.j.j.j.j.j.j.j.j.j.j.j.j.j.j.j.j.j.j.j.j.j.j.j.",
"j.j.j.j.j.j.j.j.j.j.j.j.j.j.j.j.j.j.j.t.t.h.h.h.h.h.h.h.h.h.h.h.h.h.h.h.h.h.h.h.h.h.h.h.h.h.h.h.h.h.h.h.h.h.h.h.h.h.h.h.h.h.h.h.h.h.h.h.h.h.h.h.h.h.h.h.h.h.h.7.t.j.j.j.j.j.j.j.j.j.j.j.j.j.j.j.j.j.j.j.",
"j.j.j.j.j.j.j.j.j.j.j.j.j.j.j.j.j.t.h.h.h.h.h.h.h.h.h.h.h.h.h.h.h.h.h.h.h.h.h.h.h.h.h.h.h.h.h.h.h.h.h.h.h.h.h.h.h.h.h.h.h.h.h.h.h.h.h.h.h.h.h.h.h.h.h.h.h.h.h.h.h.h.t.t.j.j.j.j.j.j.j.j.j.j.j.j.j.j.j.j.",
"j.j.j.j.j.j.j.j.j.j.j.j.j.j.j.t.h.h.h.h.h.h.h.h.h.h.h.h.h.h.h.h.h.h.h.h.h.h.h.h.h.h.h.h.h.h.h.h.h.h.h.h.h.h.h.h.h.h.h.h.h.h.h.h.h.h.h.h.h.h.h.h.h.h.h.h.h.h.h.h.h.h.h.h.t.j.j.j.j.j.j.j.j.j.j.j.j.j.j.j.",
"j.j.j.j.j.j.j.j.j.j.j.j.j.j.j.t.h.h.h.h.h.h.h.h.h.h.h.h.h.h.h.h.h.h.h.h.h.h.h.h.h.h.h.h.h.h.h.h.h.h.h.h.h.h.h.h.h.h.h.h.h.h.h.h.h.h.h.h.h.h.h.h.h.h.h.h.h.h.h.h.h.h.h.h.t.j.j.j.j.j.j.j.j.j.j.j.j.j.j.j.",
"j.j.j.j.j.j.j.j.j.j.j.j.j.j.j.j.t.h.h.h.h.h.h.h.h.h.h.h.h.h.h.h.h.h.h.h.h.h.h.h.h.h.h.h.h.h.h.h.h.h.h.h.h.h.h.h.h.h.h.h.h.h.h.h.h.h.h.h.h.h.h.h.h.h.h.h.h.h.h.h.h.h.h.h.h.h.h.h.h.t.t.j.j.j.j.j.j.j.j.j.",
"j.j.j.j.j.j.j.j.j.j.j.j.j.j.j.j.j.t.h.h.h.h.h.h.h.h.h.h.h.h.h.h.h.h.h.h.h.h.h.h.h.h.h.h.h.h.h.h.h.h.h.h.h.h.h.h.h.h.h.h.h.h.h.h.h.h.h.h.h.h.h.h.h.h.h.h.h.h.h.h.h.h.h.h.h.h.h.h.h.h.7...T ..j.j.j.j.j.j.",
"j.j.j.j.j.j.j.j.j.j.j.j.j.j.j.t.t.t.h.h.h.h.h.h.h.h.h.h.h.h.h.h.h.h.h.h.h.h.h.h.h.h.h.h.h.h.h.h.h.h.h.h.h.h.h.h.h.h.h.h.h.h.h.h.h.h.h.h.h.h.h.h.h.h.h.h.h.h.h.h.h.h.h.h.h.h.h.h.h.t.P P P P T j.j.j.j.j.",
"j.j.j.j.j.j.j.j.j.j.j.t.t.h.h.h.h.h.h.h.h.h.h.h.h.h.h.h.h.h.h.h.h.h.h.h.h.h.h.h.h.h.h.h.h.h.h.h.h.h.h.h.h.h.h.h.h.h.h.h.h.h.h.h.h.h.h.h.h.h.h.h.h.h.h.h.h.h.h.h.h.h.h.h.h.h.h.h.h.h.>.P P P P P ..j.j.j.",
"j.j.j.j.j.j.j.j.j.t.t.h.h.h.h.h.h.h.h.h.h.h.h.h.h.h.h.h.h.h.h.h.h.h.h.h.h.h.h.h.h.h.h.h.h.h.h.h.h.h.h.h.h.h.h.h.h.h.h.h.h.h.h.h.h.h.h.h.h.h.h.h.h.h.h.h.h.h.h.h.h.h.h.h.h.h.h.h.h.h.s.' P P P P j.j.j.j.",
"j.j.j.j.j.j.j.j.} 7.h.h.h.h.h.h.h.h.h.h.h.h.h.h.h.h.h.h.h.h.h.h.h.h.h.h.h.h.h.h.h.h.h.h.h.h.h.h.h.h.h.h.h.h.h.h.h.h.h.h.h.h.h.h.h.h.h.h.h.h.h.h.h.h.h.h.h.h.h.h.h.h.h.h.h.h.h.h.h.h.t.' P P T j.j.j.j.j.",
"j.j.j.j.j.j.j.j.j.T =.t.h.h.h.h.h.h.h.h.h.h.h.h.h.h.h.h.h.h.h.h.h.h.h.h.h.h.h.h.h.h.h.h.h.h.h.h.h.h.h.h.h.h.h.h.h.h.h.h.h.h.h.h.h.h.h.h.h.h.h.h.h.h.h.h.h.h.h.h.h.h.h.h.h.h.h.h.s.>.T P P P ..j.j.j.j.j.",
"j.j.j.j.j.j.j.j.j...P T 7.h.h.h.h.h.h.h.h.h.h.h.h.h.h.h.h.h.h.h.h.h.h.h.h.h.h.h.h.h.h.h.h.h.h.h.s.h.h.h.h.h.h.s.h.h.h.h.h.h.h.s.h.h.h.h.h.h.h.h.h.h.h.h.h.h.h.h.h.h.h.h.h.h.h.h.' P P P P } j.j.j.j.j.j.",
"j.j.j.j.j.j.j.j.j.j.' T h.h.h.h.h.h.h.h.h.h.h.h.h.h.h.h.h.h.h.h.h.h.h.h.h.h.h.h.h.h.h.h.h.h.h.h.h.h.h.h.h.h.h.h.h.h.h.h.h.h.h.h.h.h.h.h.h.h.h.h.h.h.h.h.h.h.h.h.h.h.h.h.h.h.h.h.=.P P P ' j.j.j.j.j.j.j.",
"j.j.j.j.j.j.j.j.j.j.j.-.h.h.h.h.h.h.h.h.h.h.h.h.h.h.h.h.h.h.h.h.h.h.h.h.h.h.h.h.h.h.h.h.h.h.h.h.h.h.h.h.h.h.h.h.h.h.h.h.h.h.h.h.h.h.h.h.h.h.h.h.h.h.h.h.h.h.h.h.h.h.h.h.h.h.h.h.7.P P T j.j.j.j.j.j.j.j.",
"j.j.j.j.j.j.j.j.j.j.} 4.h.h.s.4.} h.h.h.h.t.h.h.h.h.h.h.h.h.t.=.>.h.h.h.h.>.h.h.h.h.h.h.h.h.h.h.h.h.h.h.h.h.h.h.h.h.h.h.h.h.h.h.h.h.h.h.h.h.h.h.h.h.h.h.h.h.t.h.h.h.h.-.>.t.h.h.s.P ' j.j.j.j.j.j.j.j.j.",
"j.j.j.j.j.j.j.j.P P P ..=.} T P P s.h.h.s.} 4.h.h.h.h.h.7.' P P =.h.h.h.4.P t.h.h.h.h.h.h.h.h.h.h.h.h.h.h.h.h.h.h.h.h.h.h.h.h.h.h.h.h.h.h.h.h.h.h.h.h.h.h.t.T 7.h.h.h...P P ' ..=...j.j.j.j.j.j.j.j.j.j.",
"j.j.j.j.j.j.} P P P P P P P P P P 7.h.h...P T t.h.h.h.h.4.P P P ..h.h.7.T P 7.h.h.h.h.h.h.h.t.>.t.h.h.h.h.h.h.t.=.t.h.h.h.h.h.t.>.t.h.h.h.t.h.h.h.h.h.h.h.=.P T t.h.h.' P P P P P P P j.j.j.j.j.j.j.j.j.",
"j.j.j.j.j.' P P P P P P P P P P P >.s...P P P ..h.h.h.h.>.P P P T s.7.T P P =.h.h.h.h.4.>...T P 4.h.h.h.h.h.h.4.P T ..7.h.h.h.4.P T ..>.4...' -.h.h.h.h.4.P P P T 7.t.P P P P P P P P P } j.j.j.j.j.j.j.",
"j.j.j.j.T P P P P P P P P P P P P ' ' P P P P P =.h.h.h.=.P P P P ..P P P P T s.h.h.t.P P P P P ..h.h.t.t.h.h.=.P P P T t.h.h...P P P P P P P P t.h.h.7.T P P P P T ..P P P P P P P P P P ' j.j.j.j.j.j.",
"j.j.j.} P P P P P P P P P P P P P P P P P P P P P =.h.h.T P P P P P P P P P P 4.h.h.} P P P P P T t.t.' ' t.t.T P P P P ' t.t.T P P P P P P P P 7.h.4.T P P P P P P P P P P P P P P P P P P } j.j.j.j.j.",
"j.j.j.P P P P P P P P P P P P P P P P P P P P P P P ..7.P P P P P P P P P P P ' h.=.P P P P P P P =.} P P ' =.P P P P P P ' =.P P P P P P P P P =.>.P P P P P P P P P P P P P P P P P P P P P ..j.j.j.j.",
"j.j.T P P P P P P P P P P P P P P P P P P P P P P P P P P P P P P P P P P P P P ..P P P P P P P P P P P P P P P P P P P P P P P P P P P P P P P P P P P P P P P P P P P P P P P P P P P P P P T j.j.j.j.",
"j.j.' P P P P P P P P P P P P P P P P P P P P P P P P P P P P P P P P P P P P P P P P P P P P P P P P P P P P P P P P P P P P P P P P P P P P P P P P P P P P P P P P P P P P P P P P P P P P P } j.j.j.",
"j.j.j.j.T P P P P P P P P P P P P P P P P P P P P P P P P P P P P P P P P P P P P P P P P P P P P P P P P P P P P P P P P P P P P P P P P P P P P P P P P P P P P P P P P P P P P P P P P P T j.j.j.j.j.",
"j.j.j.j.j...T P P P P P P P P P P P P P P P P P P P P P P P P P P P P P P P P P P P P P P P P P P P P P P P P P P P P P P P P P P P P P P P P P P P P P P P P P P P P P P P P P P P P P P ..j.j.j.j.j.j.",
"j.j.j.j.j.j...T P P P P P P P P P P P P P P P P P P P P P P P P P P P P P P P P P P P P P P P P P P P P P P P P P P P P P P P P P P P P P P P P P P P P P P P P P P P P P P P P P P P P T } j.j.j.j.j.j.",
"j.j.j.j.j.T P P P P P P P P P P P P P P P P P P P P P P P P P P P P P P P P P P P P P P P P P P P P P P P P P P P P P P P P P P P P P P P P P P P P P P P P P P P P P P P P P P P P P P P P T j.j.j.j.j.",
"j.j.j.j.r C P P P P P P P P P P P P P P P P P P P P P P P P P P P P P P P P P P P P P P P P P P P P P P P P P P P P P P P P P P P P P P P P P P P P P P P P P P P P P P P P P P P P P P P P S r M j.j.j.",
"j.j.j.@     r P P P P P P P P P P P P P P P P P P P P P P P P P P P P P P P P P P P P P P P P P L P P P P P P P L P P P P P P P P L P P P P P P P P P P P P P P P P P P P P P P P P P P P C       k j.j.",
"j.j.#       M P P P P P P P P P P P P P P P P P P P P P P P P P P P P P P P P P P P P P P P P P P P P P P P P P P P P P P P P P P P P P P P P P P P P P P P P P P P P P P P P P P P P P P P @       j.j.",
"j.4         L P P P P P P P P P P P P P P P P P P P P P P L P P P P P P P P P P P P P P P P P P P P P P P P P P P P P P P P P P P P P P P P P P P P P P P P P P P P P P P P P P L P P P P P y       ; j.",
"a         ; P P P H l ; H P P P P S P P P P P P P P P H a ; P P P P P a H P P P P P P P P P P P P P P P P P P P P P P P P P P P P P P P P P P P P P P P P P P P P P S P P P P P 4 y S P P P M         r ",
"j.r       ; 4 1 #       S P P P S @ M P P P P P P M @       L P P P C   C P P P P P P P P P P P P P P P P P P P P P P P P P P P P P P P P P P P P P P P P P P P P L # a P P P P ;     @ ; 4 4       ; j.",
"j.j.j.r                 h P P S @   @ H P P P P P a         S P P M     y P P P P P P P P P C 4 P P P P P P P P C y H P P P P P P H r S P P P P S P P P P P P P P y     a P P L                 ; M j.j.",
"j.j.j.j.j.a             1 P l         ; H P P P P r         a P a       @ L P P P P M a 4 @     H P P P P P P P a     ; a P P P P l     ; r a h # @ 4 P P P P P a         4 L M             r M j.j.j.j.",
"j.j.j.j.j.;               4             ; H P P P ;         @ ;           l P P P S             a P P L C P P P ;         a P P P ;                   S P P P a             ; ;             ; C j.j.j.j.",
"j.j.j.j.@                                 @ S P H                         ; P P H #             @ L L 4   l P M             a P S                     a P L 4                                   k j.j.j.",
"j.j.j.@                                       a a                           M H ;                 y ;       a ;               r ;                     # S ;                                       M j.j.",
"j.j.#                                                                       ; ;                                                                                                                   @ j.j.",
"j.y                                                                                                                                                                                                 ; j.",
"j.j.r                                                                                                                                                                                             ; j.j.",
"j.j.j.j.r                                                                                                                                                                                     ; C j.j.j.",
"j.j.j.j.j.j.j.j.j.j.j.j.j.j.j.j.j.j.j.j.j.j.j.j.j.j.j.j.j.j.j.j.j.j.j.j.j.j.j.j.j.j.j.j.j.j.j.j.j.j.j.j.j.j.j.j.j.j.j.j.j.j.j.j.j.j.j.j.j.j.j.j.j.j.j.j.j.j.j.j.j.j.j.j.j.j.j.j.j.j.j.j.j.j.j.j.j.j.j.j."
};
