/* XPM */
static char *_12013500d9745218624d1df72a84d91lFEfWXMSzLmqjaxx[] = {
/* columns rows colors chars-per-pixel */
"91 93 125 2 ",
"   c None",
".  c #1D373C",
"X  c #1E383D",
"o  c #23393C",
"O  c #2C3B3C",
"+  c #353C3B",
"@  c #3B3D3B",
"#  c #44251A",
"$  c #48271C",
"%  c #4B281D",
"&  c #502B1F",
"*  c #542D21",
"=  c #582F22",
"-  c #5A3124",
";  c #443F3A",
":  c #573D32",
">  c #633627",
",  c #663828",
"<  c #6C3B2A",
"1  c #733E2C",
"2  c #603D31",
"3  c #46403A",
"4  c #4C4139",
"5  c #544036",
"6  c #534239",
"7  c #5B4438",
"8  c #74402D",
"9  c #7A432F",
"0  c #6A4737",
"q  c #6F4837",
"w  c #634538",
"e  c #7E4530",
"r  c #734837",
"t  c #784A36",
"y  c #794A36",
"u  c #7A4A36",
"i  c #784936",
"p  c #7C4A36",
"a  c #7D4A36",
"s  c #7E4B36",
"d  c #7F4B36",
"f  c #804630",
"g  c #804631",
"h  c #814631",
"j  c #814731",
"k  c #824731",
"l  c #824831",
"z  c #834831",
"x  c #844831",
"c  c #844832",
"v  c #844932",
"b  c #854932",
"n  c #864932",
"m  c #854A32",
"M  c #864A32",
"N  c #874A32",
"B  c #874A33",
"V  c #804B36",
"C  c #824B36",
"Z  c #854934",
"A  c #834C35",
"S  c #824C36",
"D  c #844C35",
"F  c #854C35",
"G  c #874C35",
"H  c #874D35",
"J  c #854A32",
"K  c #884A33",
"L  c #884B33",
"P  c #894B33",
"I  c #8A4B33",
"U  c #8A4C33",
"Y  c #884D35",
"T  c #8A4C34",
"R  c #8B4C34",
"E  c #8A4D35",
"W  c #8B4D35",
"Q  c #8C4C34",
"!  c #8C4D34",
"~  c #8D4D34",
"^  c #8C4D35",
"/  c #8D4D35",
"(  c #8D4E35",
")  c #8E4E35",
"_  c #8F4E35",
"`  c #8F4F35",
"'  c #8F4F36",
"]  c #8D4E38",
"[  c #904F36",
"{  c #89523E",
"}  c #905036",
"|  c #915037",
" . c #925037",
".. c #925137",
"X. c #925138",
"o. c #935138",
"O. c #925139",
"+. c #935238",
"@. c #935239",
"#. c #945239",
"$. c #955339",
"%. c #95533A",
"&. c #96533A",
"*. c #96543B",
"=. c #97543B",
"-. c #97553B",
";. c #97553C",
":. c #98553C",
">. c #99553C",
",. c #99563C",
"<. c #99563D",
"1. c #9A563D",
"2. c #9A573D",
"3. c #9A573E",
"4. c #9B573E",
"5. c #9C583F",
"6. c #9D583F",
"7. c #9D593F",
"8. c #9D5940",
"9. c #9E5940",
"0. c #9E5A40",
"q. c #9F5A41",
"w. c #A05A41",
"e. c #A05B41",
"r. c #A05B42",
/* pixels */
"                                                                                                                                                                                      ",
"                                                                                                                                                            1 1 1 1 1 1               ",
"                                                                                                                                        1 1 1 1 1 8 8 8 8 8 8 8 8 8 8 1               ",
"                                                                                                                      1 1 1 1 8 8 8 8 8 8 8 8 8 8 8 8 8 8 8 9 9 f 9 8 1               ",
"                                                                                                    1 1 1 1 1 8 8 8 8 8 8 8 8 8 8 8 8 8 9 9 e f z M P R ) ) ) ) ) M 8 8               ",
"                                                                                1 1 1 1 1 8 8 8 8 8 8 8 8 8 8 8 8 8 8 9 9 e f M M P ) ) ) ) ) ) ) ) ) ) ) ) ) ) ) P 8 8               ",
"                                                              1 1 1 1 1 8 8 8 8 8 8 8 8 8 8 8 8 8 8 9 9 e f M P R ) ) ) ) ) ) ) ) ) ) ) ) ) ) ) ) ) ) ) ) ) ) ) ) ) 8 8               ",
"                                            1 1 1 1 1 8 8 8 8 8 8 8 8 8 8 8 8 8 8 9 e f z M P R ) ) ) ) ) ) ) ) ) ) ) ) ) ) ) ) ) ) ) ) ) ) ) ) ) ) ) ) ) ) ) ) ) ) 8 8               ",
"                          1 1 1 1 1 8 8 8 8 8 8 8 8 8 8 8 8 8 9 9 e f M M P ) ) ) ) ) ) ) ) ) ) ) ) ) ) ) ) ) ) ) ) ) ) ) ) ) ) ) ) ) ) ) ) ) ) ) ) ) ) ) ) ) ) ) ) 9 8 1             ",
"      1 1 1 1 8 8 8 8 8 8 8 8 8 8 8 8 8 8 8 9 9 e f M M P ) ) ) ) ) ) ) ) ) ) ) ) ) ) ) ) ) ) ) ) ) ) ) ) ) ) ) ) ) ) ) ) ) ) ) ) ) ) ) ) ) ) ) ) ) ) ) ) ) ) ) ) ) 9 8 1             ",
"1 8 8 8 8 8 8 8 8 8 8 8 8 9 9 f z M P R ) ) ) ) ) ) ) ) ) ) ) ) ) ) ) ) ) ) ) ) ) ) ) ) ) ) ) ) ) ) ) ) ) ) ) ) ) ) ) ) ) ) ) ) ) ) ) ) ) ) ) ) ) ) ) ) ) ) ) ) ) ) e 8 1             ",
"  8 8 9 9 e f z M P R ) ) ) ) ) ) ) ) ) ) ) ) ) ) ) ) ) ) ) ) ) ) ) ) ) ) ) ) ) ) ) ) ) ) ) ) ) ) ) ) ) ) ) ) [ | %.%.=.>.>.X.) ) ) ) ) ) ) ) ) ) ) ) ) ) ) ) ) ) ) f 8 1             ",
"  8 8 ) ) ) ) ) ) ) ) ) ) ) ) ) ) ) ) ) ) ) ) ) ) ) ) ) ) ) ) ) ) ) ) ) ) ) ) ) ) ) ) ) ) ) [ X.%.=.>.>.5.0.r.r.r.r.0.>.| ) ) ) ) ) ) ) ) ) ) ) ) ) ) ) ) ) R ) ) ) z 8 1             ",
"  8 8 U ) ) ) ) ) ) ) ) ) ) ) ) ) ) ) ) ) ) ) ) ) ) ) ) ) ) ) ) ) ) ) ) ) | X.%.=.>.>.5.0.r.r.r.r.r.r.r.0.0.0.5.>.X.) ) ) ) ) ) ) ) ) ) ) ) ) C r w 6 ; + o 3 ) ) ) M 8 8             ",
"  8 8 M ) ) ) ) ) ) ) ) ) ) ) ) ) ) ) ) ) ) ) ) ) ) ) ) ) ) | X.X.%.%.=.;.=.=.%.%.%.%.X.X.| | [ ) ) ) ) ) ) ) ) ) ) ) ) ) ) ) ) ) ) ) ) ) ; o X X X X X X X 6 ) ) ) P 8 8             ",
"  8 8 M ) ) ) ) ) ) ) ) ) ) ) ) ) ) ) ) ) ) ) ) ) ) ) ) ) ) ) ) ) ) ) ) ) ) ) ) ) ) ) ) ) ) ) ) ) ) ) ) ) ) ) ) ) ) ) ) ) ) ) ) ) ) ) ) ) @ X X X X X X X X 7 ) ) ) ) 8 8             ",
"  1 8 f ) ) ) ) ) ) ) ) ) ) ) ) ) ) ) ) ) ) ) ) ) ) ) ) ) ) ) ) ) ) ) ) ) ) ) ) ) ) ) ) ) ) ) ) ) ) ) ) ) ) ) ) ) ) ) ) ) ) ) ) ) ) ) ) ) ; X X X X X X X X w ) ) ) ) 8 8             ",
"  1 8 e ) ) ) ) ) ) ) ) ) ) ) ) ) ) ) ) ) ) ) ) ) ) ) ) ) ) ) ) ) ) ) ) ) ) ) ) ) ) ) ) ) ) ) ) ) ) ) ) ) ) ) ) ) ) ) ) ) ) ) ) ) ) ) ) ) 4 X X X X X X X X q ) ) ) ) 8 8 1           ",
"  1 8 9 ) ) ) ) ) ) ) ) ) ) ) ) ) ) ) ) ) ) ) ) ) ) ) ) ) ) ) ) ) ) ) ) ) ) ) ) ) ) ) ) ) ) ) ) ) ) ) ) ) ) ) ) ) ) ) ) ) ) ) ) ) ) ) ) ) 4 X o X X X X X + u ) ) ) ) 9 8 1           ",
"  1 8 9 ) ) ) ) ) ) ) ) ) ) ) ) ) ) ) ) ) ) ) ) ) ) ) ) ) ) ) ) ) ) ) ) ) ) ) ) ) ) ) ) ) ) ) ) ) ) ) ) ) ) ) ) ) ) ) ) ) ) ) ) ) ) ) ) ) 6 X 7 X X X X X 6 H ) ) ) ) 9 8 1           ",
"    8 8 ) ) ) ) ) ) ) ) ) ) ) ) ) ) ) ) ) ) ) ) ) ) ) ) ) ) ) ) ) ) ) ) ) ) ) ) ) ) ) ) ) ) ) ) ) ) ) ) ) ) ) ) ) ) ) ) ) ) ) ) ) ) ) ) ) 7 4 0 X o X X o r ) ) ) ) ) f 8 1           ",
"    8 8 ) ) ) ) ) ) ) ) ) ) ) ) ) ) ) ) ) ) ) ) ) ) ) ) ) ) ) ) ) ) ) ) ) ) ) ) ) ) ) ) ) ) ) ) ) ) ) ) ) ) ) ) ) ) ) ) ) ) ) ) ) ) ) ) ) w C q X @ o X @ H ) ) ) ) ) z 8 1           ",
"    8 8 8 8 9 9 9 e e f z M M P P R ) ) ) ) ) ) ) ) ) ) ) ) ) ) ) ) ) ) ) ) ) ) ) ) ) ) ) ) ) ) ) ) ) ) ) ) ) ) ) ) ) ) ) ) ) ) ) ) ) ) ) H ) r X 6 O X 6 ) ) ) ) ) ) M 8 8           ",
"    8 8 8 8 8 8 8 8 8 8 8 8 8 8 8 8 8 8 8 9 9 e M R ) ) ) ) ) ) ) ) ) ) ) ) ) ) ) ) ) ) ) ) ) ) ) ) ) ) ) ) ) ) ) ) ) ) ) ) ) ) ) ) ) ) ) ) ) i X r O X 0 ) ) ) ) ) ) P 8 8           ",
"          1 1 8 8 8 8 8 8 8 8 8 8 8 9 e f M ) ) ) ) ) ) ) ) ) ) ) ) ) ) ) ) ) ) ) ) ) ) ) ) ) ) ) ) ) ) ) ) ) ) ) ) ) ) ) ) ) ) ) ) ) ) ) ) ) u o R + X p ) ) ) ) ) ) R 8 8           ",
"    1 8 1 8 8 8 8 8 8 8 8 9 e M P ) ) ) ) ) ) ) ) ) ) ) ) ) ) ) ) ) ) ) ) ) ) ) ) ) ) ) ) ) ) ) ) ) ) ) ) ) ) ) ) ) ) ) ) ) ) ) ) [ | %.%.;.>.{ @ | @ o ) ) ) ) ) ) ) ) 8 8           ",
"    1 8 8 8 8 9 9 f M R ) ) ) ) ) ) ) ) ) ) ) ) ) ) ) ) ) ) ) ) ) ) ) ) ) ) ) ) ) ) ) ) ) ) ) ) ) ) ) ) ) ) ) ) ) | X.%.;.>.>.0.0.r.r.r.r.5.%.A 6 ) ; @ ) ) ) ) ) ) ) ) 8 8           ",
"    1 8 9 P ) ) ) ) u w 4 @ i ) ) ) ) ) ) ) ) ) ) ) ) ) ) ) ) ) ) ) ) ) ) ) ) ) ) ) ) ) ) ) ) ) | X.%.=.>.>.0.0.r.r.0.0.0.0.5.5.>.>.>.>.X.) ) H q ) 4 4 ) ) ) ) ) ) ) ) 9 8 1         ",
"    1 8 9 ) C 4 + o X X X X u ) ) ) ) ) ) ) ) ) ) ) ) ) ) ) ) ) ) ) ) ) ) ) ) ) ) ) ) [ | X.%.%.X.X.X.| | [ [ ) ) ) ) ) ) ) ) ) ) ) ) ) ) ) ) R H ) 6 w ) ) ) ) ) ) ) ) 9 8 1         ",
"      8 8 ) p X X X X X X X p ) ) ) ) ) ) ) ) ) ) ) ) ) ) ) ) ) ) ) ) ) ) ) ) ) ) ) ) ) ) ) ) ) ) ) ) ) ) ) ) ) ) ) ) ) ) ) ) ) ) ) ) ) ) ) ) ) ) ) 7 u ) ) ) ) ) ) ) ) e 8 1         ",
"      8 8 ) H X X X X X X X A ) ) ) ) ) ) ) ) ) ) ) ) ) ) ) ) ) ) ) ) ) ) ) ) ) ) ) ) ) ) ) ) ) ) ) ) ) ) ) ) ) ) ) ) ) ) ) ) ) ) ) ) ) ) ) ) ) ) ) w ) ) ) ) ) ) ) ) ) f 8 1         ",
"      8 8 ) ) o X X X X + X R ) ) ) ) ) ) ) ) ) ) ) ) ) ) ) ) ) ) ) ) ) ) ) ) ) ) ) ) ) ) ) ) ) ) ) ) ) ) ) ) ) ) ) ) ) ) ) ) ) ) ) ) ) ) ) ) ) ) ) C ) ) ) ) ) ) ) ) ) M 8 1         ",
"      8 8 P ) @ X X X X 0 + ) ) ) ) ) ) ) ) ) ) ) ) ) ) ) ) ) ) ) ) ) ) ) ) ) ) ) ) ) ) ) ) ) ) ) ) ) ) ) ) ) ) ) ) ) ) ) ) ) ) ) ) ) ) ) ) ) ) ) ) ) ) ) ) ) ) ) ) ) ) M 8 8         ",
"      8 8 M ) w o X o X q u ) ) ) ) ) ) ) ) ) ) ) ) ) ) ) ) ) ) ) ) ) ) ) ) ) ) ) ) ) ) ) ) ) ) ) ) ) ) ) ) ) ) ) ) ) ) ) ) ) ) ) ) ) ) ) ) ) ) ) ) ) ) ) ) ) ) ) ) ) ) R 8 8         ",
"      8 8 z ) u @ X 3 X r ) ) ) ) ) ) ) ) ) ) ) ) ) ) ) ) ) ) ) ) ) ) ) ) ) ) ) ) ) ) ) ) ) ) ) ) ) ) ) ) ) ) ) ) ) ) ) ) ) ) ) ) ) ) ) ) ) ) ) ) ) ) ) ) ) ) ) ) ) ) ) ) 8 8         ",
"      1 8 f ) ) 6 X w o i ) ) ) ) ) ) ) ) ) ) ) ) ) ) ) ) ) ) ) ) ) ) ) ) ) ) ) ) ) ) ) ) ) ) ) ) ) ) ) ) ) ) ) ) ) ) ) ) ) ) ) ) ) ) ) ) ) ) ) ) ) ) ) ) ) ) ) ) ) ) ) ) 8 8         ",
"      1 8 e ) ) 0 X 0 ; u ) ) ) ) ) ) ) ) ) ) ) ) ) ) ) ) ) ) ) ) ) ) ) ) ) ) ) ) ) ) ) ) ) ) ) ) ) ) ) ) ) ) ) ) ) ) ) ) ) ) ) ) ) ) ) ) ) ) ) ) ) ) ) ) ) ) ) ) ) ) ) ) 9 8 1       ",
"      1 8 9 ) ) C X r 7 p ) ) ) ) ) ) ) ) ) ) ) ) ) ) ) ) ) ) ) ) ) ) ) ) ) ) ) ) ) ) ) ) ) ) ) ) ) ) ) ) ) ) ) ) ) ) ) ) ) ) ) ) ) ) ) ) ) ) ) ) ) ) ) ) ) ) ) ) ) ) ) M 9 8 1       ",
"      1 8 9 ) ) ) o u p C ) ) ) ) ) ) ) ) ) ) ) ) ) ) ) ) ) ) ) ) ) ) ) ) ) ) ) ) ) ) ) ) ) ) [ X.X.X.| | | [ ) ) ) ) ) ) ) ) ) ) ) ) ) ) ) ) ) ) ) ) ) ) ) P M f 9 8 8 8 8 8 1       ",
"        8 8 ) ) ) @ C ) R ) ) ) ) ) ) ) ) ) ) ) ) ) ) ) ) ) ) ) ) ) ) ) ) ) ) [ X.%.=.=.%.%.%.| ) ) ) ) ) ) ) ) ) ) ) ) ) ) ) ) ) ) ) ) ) ) ) ) R M f e 9 8 8 8 8 8 8 8 8 1 1 1       ",
"        8 8 ) ) ) 6 H ) ) ) ) ) ) ) ) ) ) ) ) ) ) ) ) ) ) ) ) [ X.%.=.>.>.>.>.=.X.| ) ) ) ) ) ) ) ) ) ) ) ) ) ) ) ) ) ) ) ) ) ) ) ) ) R M e 9 8 8 8 8 8 8 8 8 8 8 8 8 8 8 8 1 8       ",
"        8 8 P ) ) q ) ) ) ) ) ) ) ) ) ) ) ) ) [ X.%.=.>.>.0.0.>.>.%.X.) ) ) ) ) ) ) ) ) ) ) ) ) ) ) ) ) ) ) ) ) ) ) ) ) ) ) ) ) ) ) ) ) ) ) R P M M f f e 9 9 9 8 8 8 8 8 8 8 8       ",
"        8 8 M ) ) R ) ) ) ) ) [ X.%.=.>.>.0.r.0.5.>.=.%.| ) ) ) ) ) ) ) ) ) ) ) ) ) ) ) ) ) ) ) ) ) ) ) ) ) ) ) ) ) ) ) ) ) ) ) ) ) ) ) ) ) ) ) ) ) ) ) ) ) ) ) ) ) ) P P z 8 8       ",
"        1 8 M ) ) ) ) ) X.=.>.5.0.0.>.>.%.X.[ ) ) ) ) ) ) ) ) ) ) ) ) ) ) ) ) ) ) ) ) ) ) ) ) ) ) ) ) ) ) ) ) ) ) ) ) ) ) ) ) ) ) ) ) ) ) ) ) ) ) ) ) ) ) ) ) ) ) ) ) ) ) ) 8 8       ",
"        8 8 f ) ) ) ) ) ) ) ) ) ) ) ) ) ) ) ) ) ) ) ) ) ) ) ) ) ) ) ) ) ) ) ) ) ) ) ) ) ) ) ) ) ) ) ) ) ) ) ) ) ) ) ) ) ) ) ) ) ) ) ) ) ) ) ) ) ) ) ) ) ) ) ) ) ) ) ) ) ) ) 8 8       ",
"        1 8 e ) ) ) ) ) ) ) ) ) ) ) ) ) ) ) ) ) ) ) ) ) ) ) ) ) ) ) ) ) ) ) ) ) ) ) ) ) ) ) ) ) ) ) ) ) ) ) ) ) ) ) ) ) ) ) ) ) ) ) ) ) ) ) ) ) ) ) ) ) ) ) ) ) ) ) ) ) ) ) 9 8 1     ",
"        1 8 9 ) ) ) ) ) ) ) ) ) ) ) ) ) ) ) ) ) ) ) ) ) ) ) ) ) ) ) ) ) ) ) ) ) ) ) ) ) ) ) ) ) ) ) ) ) ) ) ) ) ) ) ) ) ) ) ) ) ) ) ) ) ) ) ) ) ) ) ) ) ) ) ) ) ) ) ) ) ) ) 9 8 1     ",
"        1 8 9 ) ) ) ) ) ) ) ) ) ) ) ) ) ) ) ) ) ) ) ) ) ) ) ) ) ) ) ) ) ) ) ) ) ) ) ) ) ) ) ) ) ) ) ) ) ) ) ) ) ) ) ) ) ) ) ) ) ) ) ) ) ) ) ) ) ) ) ) ) ) ) ) ) ) ) ) ) ) ) e 8 1     ",
"          8 8 ) ) ) ) ) ) ) ) ) ) ) ) ) ) ) ) ) ) ) ) ) ) ) ) ) ) ) ) ) ) ) ) ) ) ) ) ) ) ) ) ) ) ) ) ) ) ) ) ) ) ) ) ) ) ) ) ) ) ) ) ) ) ) ) ) ) ) ) ) ) ) ) ) ) ) ) ) ) ) f 8 1     ",
"          8 8 ) ) ) ) ) ) ) ) ) ) ) ) ) ) ) ) ) ) ) ) ) ) ) ) ) ) ) ) ) ) ) ) ) ) ) ) ) ) ) ) ) ) ) ) ) ) ) ) ) ) ) ) ) ) ) ) ) ) ) ) ) ) ) ) ) ) ) ) ) ) ) ) ) ) ) ) ) ) ) z 8 1     ",
"          8 8 R ) ) ) ) ) ) ) ) ) ) ) ) ) ) ) ) ) ) ) ) ) ) ) ) ) ) ) ) ) ) ) ) ) ) ) ) ) ) ) ) ) ) ) ) ) ) ) ) ) ) ) ) ) ) ) ) ) ) ) ) ) ) ) ) ) ) ) ) ) ) ) ) ) ) ) ) ) ) M 8 8     ",
"          8 8 P ) ) ) ) ) ) ) ) ) ) ) ) ) ) ) ) ) ) ) ) ) ) ) ) ) ) ) ) ) ) ) ) ) ) ) ) ) ) ) ) ) ) ) ) ) ) ) ) ) [ | X.%.%.=.=.>.>.>.5.5.>.=.X.) ) ) ) ) ) ) ) ) ) ) ) ) ) P 8 8     ",
"          1 8 M ) ) ) ) ) ) ) ) ) ) ) ) ) ) ) ) ) ) ) ) ) ) ) ) ) ) ) ) ) ) ) ) ) ) ) ) ) ) | X.%.=.>.>.5.0.0.r.r.r.r.r.r.r.r.r.r.5.=.X.) ) ) ) ) ) ) ) ) ) ) ) ) ) ) ) ) ) R 8 8     ",
"          8 8 f P P P M M M M z f f f e e M ) ) ) ) ) ) ) ) ) ) ) ) ) ) ) ) ) ) ) ) ) ) ) ) ) ) ) ) ) ) ) ) ) [ | | | X.X.%.%.X.) ) ) ) ) ) ) ) ) ) ) ) ) ) ) ) ) ) ) ) ) ) ) 8 8     ",
"          1 8 8 8 8 8 8 8 8 8 8 8 8 9 M ) ) ) ) ) ) ) ) ) ) ) ) ) ) ) ) ) ) ) ) ) ) ) ) ) ) ) ) ) ) ) ) ) ) ) ) ) ) ) ) ) ) ) ) ) ) ) ) ) ) ) ) ) ) ) ) ) ) ) ) ) ) ) ) ) ) ) 8 8     ",
"          1 8 8 8 8 8 8 8 8 8 9 M ) ) ) ) ) ) ) ) ) ) ) ) ) ) ) ) ) ) ) ) ) ) ) ) ) ) ) ) ) ) ) ) ) ) ) ) ) ) ) ) ) ) ) ) ) ) ) ) ) ) ) ) ) ) ) ) ) ) ) ) ) ) ) ) ) ) ) ) ) ) 9 8 1   ",
"            1 8 8 8 8 8 9 f R ) ) ) ) ) ) ) ) ) ) ) ) ) ) ) ) ) ) ) ) ) ) ) ) ) ) ) ) ) ) ) ) ) ) ) ) ) ) ) ) ) ) ) ) ) ) ) ) ) ) ) ) ) ) ) ) ) ) ) ) ) ) ) ) ) ) ) ) ) ) ) ) 9 8 1   ",
"            8 8 8 8 f P ) ) ) ) ) ) ) ) ) ) ) ) ) ) ) ) ) ) ) ) ) ) ) ) ) ) ) ) ) ) ) ) ) ) ) ) ) ) ) ) ) ) ) ) ) ) ) ) ) ) ) ) ) ) ) ) ) ) ) ) ) ) ) ) ) ) ) ) ) ) ) ) ) ) ) e 8 1   ",
"            8 8 P ) ) ) ) ) ) ) ) ) ) ) ) ) ) ) ) ) ) ) ) ) ) ) ) ) ) ) ) ) ) ) ) ) ) ) ) ) ) ) ) ) ) ) ) ) ) ) ) ) ) ) ) ) ) ) ) ) ) ) ) ) ) ) ) ) ) ) ) ) ) ) ) ) ) ) P M z 9 8 1   ",
"            8 8 R ) ) ) ) ) ) ) ) ) ) ) ) ) ) ) ) ) ) ) ) ) ) ) ) ) ) ) ) ) ) ) ) ) ) ) ) ) ) ) ) ) ) ) ) ) ) ) ) ) ) ) ) ) ) ) ) ) ) ) ) ) ) ) ) ) R P M z f 9 9 8 8 8 8 8 8 8 8 1   ",
"            8 8 P ) ) ) ) ) ) ) ) ) ) ) ) ) ) ) ) ) ) ) ) ) ) ) ) ) ) ) ) ) ) ) ) ) ) ) ) ) ) ) ) ) ) ) ) ) ) ) ) ) ) ) ) ) ) ) ) R M M f e 9 9 8 8 8 8 8 8 8 8 8 8 8 8 8 8 8 1 1 1   ",
"            8 8 M ) ) ) ) ) ) ) ) ) ) ) ) ) ) ) ) ) ) ) ) ) ) ) ) ) ) ) ) ) ) ) ) ) ) ) ) ) ) ) ) ) ) ) ) ) ) ) P M M f e 9 9 8 8 8 8 8 8 8 8 8 8 8 8 8 8 1 1 1 1                     ",
"            8 8 z ) ) ) ) ) ) ) ) ) ) ) ) ) ) ) ) ) ) ) ) ) ) ) ) ) ) ) ) ) ) ) ) ) ) ) ) ) R P M z f e 9 9 8 8 8 8 8 8 8 8 8 8 8 8 8 8 1 1 1 1                                       ",
"            1 8 f ) ) ) ) ) ) ) ) ) ) ) ) ) ) ) ) ) ) ) ) ) ) ) ) ) ) ) ) R P M f e 9 9 8 8 8 8 8 8 8 8 8 8 8 8 8 8 8 1 1 1 1                                                         ",
"            1 8 9 ) ) ) ) ) ) ) ) ) ) ) H u q 7 6 R ) ) P M M f e 9 9 8 8 8 8 8 8 8 8 8 8 8 8 8 8 1 1 < 1 1                                                                           ",
"            1 8 9 ) ) ) p 0 7 6 ; @ O o X X X X X 8 8 8 8 8 8 8 8 8 8 8 8 8 8 8 8 8 8 8 8 8 8 8 8 > - -                                                                               ",
"            1 8 8 R P M 5 X X X X X X X X X X X o 8 8 8 8 8 1 1 1 1 1       ] ) ) f 8 8 8 8 8 8 8 > - -                                                                               ",
"              8 8 8 8 8 : X X X X X X X X X X X o 1                         X.) ) f 8 8 8 8 8 8 8 > - -                                                                               ",
"              8 8 8 8 8 2 X X X X X X X X X X X .                           X.) ) 9 8 8 8 8 8 8 8 > - -                                                                               ",
"                          X X X X X X X X . X X .                           X.) ) 1 1 8 8 8 8 8 8 > - -                                                                               ",
"                          . . X X X X X X .   . .                           X.) ) < < 8 8 8 8 1 8 > - -                                                                               ",
"                          X . X X X X X X X     .                           X.) ) < , 8 8 8 8 , 8 > - -                                                                               ",
"                          .   X X X . . X .                                 X.) ) < - 8 8 8 8 - < > - -                                                                               ",
"                              X X X . . X .                                 X.) ) < - 1 8 8 8 - , > - -                                                                               ",
"                              X X X .   X .                                 X.) ) < - < 8 8 1 - - > - -                                                                               ",
"                                X X     X .                                 X.) ) < - > 8 8 < - - - - -                                                                               ",
"                                X X     . .                                 ) ) ) , - - 8 8 < - - = - =                                                                               ",
"                                . X       .                                 Z ) ) > - - 1 8 > - - % - *                                                                               ",
"                                . X                                         M z ) > - - < 8 > - - % * *                                                                               ",
"                                  X                                         M 9 ) > - - > 8 - - - % % *                                                                               ",
"                                  .                                         M 8 R > - - - 1 - - - % # &                                                                               ",
"                                  .                                         M 8 f > - - - < - - - % # $                                                                               ",
"                                                                            M 8 9 > - - - - - - - % # #                                                                               ",
"                                                                            M 8 8 > - - - - - - - % # #                                                                               ",
"                                                                            M 8 8 > - - - - - - - % # #                                                                               ",
"                                                                            M 8 8 > - - - - - - - % # #                                                                               ",
"                                                                            M 8 8 > - - - - - - - % # #                                                                               ",
"                                                                            M 8 8 > - - - - - - - % # #                                                                               ",
"                                                                            M 8 8 > - - - - - - - % # #                                                                               ",
"                                                                            M 8 8 > - - - - - - - % # #                                                                               ",
"                                                                            M 8 8 > - - - - - - - % # #                                                                               ",
"                                                                            M 8 8 > - - - - - - - % # #                                                                               ",
"                                                                            M 8 8 , - - - - - - - % # #                                                                               "
};
