/* XPM */
static char *_9737_e945a8159fe6a7bca065071d2de1b40606812634a913709c69e67280ff50dd25[] = {
/* columns rows colors chars-per-pixel */
"54 70 239 2 ",
"   c #020202",
".  c #0A0403",
"X  c #02030B",
"o  c #050A0C",
"O  c #0B0B0B",
"+  c #090707",
"@  c #120D0D",
"#  c #130902",
"$  c #000314",
"%  c #020A14",
"&  c #0B0D12",
"*  c #00041B",
"=  c #020B1B",
"-  c #0B0A18",
";  c #130D13",
":  c #131313",
">  c #1A1514",
",  c #1A1916",
"<  c #14151A",
"1  c #15191B",
"2  c #1C1B1B",
"3  c #191718",
"4  c #11110F",
"5  c #201D18",
"6  c #1B221D",
"7  c #21221C",
"8  c #000522",
"9  c #010C23",
"0  c #010B2B",
"q  c #01052A",
"w  c #02122D",
"e  c #081526",
"r  c #1C1C23",
"t  c #000D33",
"y  c #000E3B",
"u  c #000636",
"i  c #011334",
"p  c #00133B",
"a  c #061A39",
"s  c #111D39",
"d  c #19243C",
"f  c #13212E",
"g  c #232323",
"h  c #2C2C2C",
"j  c #272726",
"k  c #34312F",
"l  c #292A37",
"z  c #343333",
"x  c #34353A",
"c  c #3C3C3C",
"v  c #3B3A36",
"b  c #2C322B",
"n  c #3F403B",
"m  c #4F483E",
"M  c #000A44",
"N  c #001542",
"B  c #011A41",
"V  c #00144D",
"C  c #00194C",
"Z  c #091843",
"A  c #001456",
"S  c #001759",
"D  c #0C154E",
"F  c #0B2448",
"G  c #17294A",
"H  c #042655",
"J  c #162F59",
"K  c #243347",
"L  c #3D3E45",
"P  c #263858",
"I  c #001C62",
"U  c #012D6B",
"Y  c #032764",
"T  c #1B3869",
"R  c #012B73",
"E  c #022978",
"W  c #07387B",
"Q  c #183A78",
"!  c #132E68",
"~  c #263D66",
"^  c #213E78",
"/  c #3A4246",
"(  c #394658",
")  c #2E4152",
"_  c #0D427B",
"`  c #18447A",
"'  c #1D4060",
"]  c #2C466B",
"[  c #384865",
"{  c #364E7A",
"}  c #35557C",
"|  c #2F507B",
" . c #434343",
".. c #4B4C4B",
"X. c #484A49",
"o. c #4B504D",
"O. c #484C56",
"+. c #4C545B",
"@. c #545454",
"#. c #5B5C5B",
"$. c #555559",
"%. c #524D4D",
"&. c #5E605F",
"*. c #66655C",
"=. c #444F68",
"-. c #585C66",
";. c #4D5970",
":. c #5B6268",
">. c #5B6675",
",. c #636363",
"<. c #6B6C6B",
"1. c #696867",
"2. c #736C69",
"3. c #6D726D",
"4. c #74726B",
"5. c #666B71",
"6. c #6A7475",
"7. c #737373",
"8. c #7D7D7C",
"9. c #777476",
"0. c #706F74",
"q. c #7E837D",
"w. c #053C87",
"e. c #0A4586",
"r. c #144788",
"t. c #0A4795",
"y. c #154893",
"u. c #0C5199",
"i. c #155498",
"p. c #1D5288",
"a. c #274984",
"s. c #2C578D",
"d. c #35588A",
"f. c #2A5996",
"g. c #345C97",
"h. c #2E4D89",
"j. c #29619B",
"k. c #376698",
"l. c #37628D",
"z. c #0D53A6",
"x. c #185AA7",
"c. c #0757B7",
"v. c #074CA5",
"b. c #275CA4",
"n. c #2C5FB0",
"m. c #1763AC",
"M. c #0E69B9",
"N. c #1463BA",
"B. c #1964BD",
"V. c #1969B8",
"C. c #1675BF",
"Z. c #2A64AB",
"A. c #2765A7",
"S. c #3363A4",
"D. c #3265A9",
"F. c #3667A8",
"G. c #226BBA",
"H. c #2669B4",
"J. c #3469B5",
"K. c #2B70B9",
"L. c #4A5F83",
"P. c #496289",
"I. c #46689C",
"U. c #536786",
"Y. c #636D86",
"T. c #476CA4",
"R. c #0C6CCD",
"E. c #076DC5",
"W. c #136BC4",
"Q. c #1D6CC3",
"!. c #136CCC",
"~. c #1968C6",
"^. c #0C72CC",
"/. c #046BD5",
"(. c #046CDB",
"). c #0A6AD7",
"_. c #116DD3",
"`. c #156FD9",
"'. c #0873DA",
"]. c #1572D9",
"[. c #256AC1",
"{. c #016CE2",
"}. c #0873E6",
"|. c #1874E1",
" X c #807C84",
".X c #7F8785",
"XX c #7785A8",
"oX c #8D8D8D",
"OX c #858385",
"+X c #888C91",
"@X c #939393",
"#X c #9B9A9B",
"$X c #96949D",
"%X c #928E8F",
"&X c #A19D9B",
"*X c #A6A29E",
"=X c #9B9CA4",
"-X c #8898AB",
";X c #A29EA2",
":X c #9CA2AB",
">X c #A3A3A4",
",X c #ABABAB",
"<X c #A5A6A7",
"1X c #B3B3B4",
"2X c #B3B5BB",
"3X c #BBBBBB",
"4X c #B7B7B7",
"5X c #AFB1B3",
"6X c #C2BDB9",
"7X c #BEC0BF",
"8X c #BDBEC2",
"9X c #B4BCC5",
"0X c #C2BFC3",
"qX c #BBC2C6",
"wX c #C2C2C3",
"eX c #CCCCCC",
"rX c #C4C6C8",
"tX c #CDD3C8",
"yX c #D5D5D5",
"uX c #DADADA",
"iX c #D7D8D9",
"pX c #D2D5D0",
"aX c #E3DFDC",
"sX c #DEE0DB",
"dX c #EAE6DD",
"fX c #D9DFEA",
"gX c #E4E4E4",
"hX c #EBEBEB",
"jX c #E8E8E7",
"kX c #F0EDEC",
"lX c #F4F5F4",
"zX c #F5F9F6",
"xX c #FBFBF5",
"cX c #F5F6FB",
"vX c #F6FBFB",
"bX c #FDFDFD",
"nX c #FAF7F8",
"mX c #EEF2F4",
"MX c None",
/* pixels */
"MXMXMXMXMXMXMXMXMXMXMXMXMXMXMXMXMXMXMXMXMXMXMXMXMXMXMXMXMXMXMXMXMXMXMXMXMXMXMXMXMXMXMXMXMXMXMXMXMXMXMXMXMXMX",
"MXMXMXMXMXMXMXMXMXMXMXMXMXMXMXMXMX2 O : : O 4 : : : : : : : : : O : : + : MXMXMXMXMXMXMXMXMXMXMXMXMXMXMXMXMX",
"MXMXMXMXMXMXMXMXMXMXMXMXMXMXMXMXMXh @ O 3 2 3 4 : : : : : : : : 3 2 : : 7 oXMXMXMXMXMXMXMXMXMXMXMXMXMXMXMXMX",
"MXMXMXMXMXMXMXMXMXMXMXMXMXg j g ..wXgXfXuXiXyXiXiXiXiXiXuXuXuXuXiXyXyXuXyX<.g g g @.MXMXMXMXMXMXMXMXMXMXMXMX",
"MXMXMXMXMXMXMXMXMXMXMXMX$.       .lXbXxXbXbXbXbXbXbXbXbXbXbXbXbXbXbXbXbXbX,.      b MXMXMXMXMXMXMXMXMXMXMXMX",
"MXMXMXMXMXMXMXMXMXMXMX<.MX%X@X@X,XnXbXbXbXbXbXbXbXbXbXbXbXbXbXbXbXbXbXbXbX4X%X%X*XY.4.7.MXMXMXMXMXMXMXMXMXMX",
"MXMXMXMXMXMXMXMXMXMXj   MXMXxXbXbXxXbXbXbXbXbXbXbXbXbXbXbXbXbXbXbXbXbXbXbXbXbXbXbXeX  O MXMXMXMXMXMXMXMXMXMX",
"MXMXMXMXMXMXMXMXMXMXg   MXbXxXbXbXbXbXbXbXbXbXbXbXbXbXbXbXbXbXbXbXbXbXbXxXbXbXbXxXeX  : MXMXMXMXMXMXMXMXMXMX",
"MXMXMXMXMXMXMXMXMXMXr + >XxXbXbXbXnXbXbXnXnXbXbXbXbXbXbXbXbXbXbXbXxXbXbXcXbXbXbXbXrX  : ,XMXMXMXMXMXMXMXMXMX",
"MXMXMXMXMXMXMXMXMXMX .2 4XbXxXbXcXbXbXbXbXbXbXbXbXbXbXbXbXbXbXbXbXbXbXbXbXbXxXlXbXuXh g #XMXMXMXMXMXMXMXMXMX",
"MXMXMXMXMXMXMXMXg n 3XuXhXcXbXcXbXbXbXnXbXbXxXbXbXbXbXbXbXbXbXbXbXbXcXxXbXnXbXbXbXlXyXeX#.7 OXMXMXMXMXMXMXMX",
"MXMXMXMXMXMXMXMX  h yXbXbXbXbXbXbXvXxXbXbXbXbXbXbXbXbXbXbXbXbXbXbXbXbXbXbXbXbXbXbXxXbXlX..  <.MXMXMXMXMXMXMX",
"MXMXMXMXMXMXMXMX  z uXbXbXlX>X@.#.#.$.@.$.3XbXbXbXbXbXbXbXbXbXbXeX#.@.#.#.%.#.oXnXbXbXaXX.X <.MXMXMXMXMXMXMX",
"MXMXMXMXMXMXMXMX  h eXbXbXbXOX            #XbXxXbXbXbXbXbXbXbXbX4X4       X   ..nXlXbXlXX.  3.MXMXMXMXMXMXMX",
"MXMXMXMXMXMXMXMX  g uXbXbXbX8.            @XbXbXbXbXbXbXbXxXbXbX4X+           #.nXbXbXgX..X <.MXMXMXMXMXMXMX",
"MXMXMXMXMXMXMXMX  g uXxXbXbX9.            @XbXbXbXbXbXbXbXbXbXbX1X; +         $.mXbXbXhX%.  <.MXMXMXMXMXMXMX",
"MXMXMXMXMXMXMXMX  h pXbXbXxXq.            #XbXbXbXxXeXrXlXbXbXbX3XO         . @.nXbXbXhX..  3.MXMXMXMXMXMXMX",
"MXMXMXMXMXMXMXMX  h iXbXlXxXq.        +   @XbXbXbXeXg 2 3XbXlXbX2X<         O %.kXbXbXgX..  3.MXMXMXMXMXMXMX",
"MXMXMXMXMXMXMXMX  x eXlXlXbXOX    : O   O #XxXbXhXeX6   >XbXnXbX3X< +   4 ,   &.nXbXcXgX@.  7.MXMXMXMXMXMXMX",
"MXMXMXMXMXMXMXMXvXiXr   >XbXzXbXbXbXbXbXbXbXbXyX      +     @XbXbXbXbXbXvXzXbXbXbXeX    5XbXMXMXMXMXMXMXMXMX",
"MXMXMXMXMXMXMXMXzXrXg X <XbXlXbXxXbXbXnXbXxXbXeX  +         %XbXbXlXlXbXbXvXvXvXbXeXX 3 ,XmXMXMXMXMXMXMXMXMX",
"MXMXMXMXMXMXMXMX:.&.& X <XbX8X,.@XlXbXbXbXbXbXhXOXoX%X#XoX%XtXbXbXbXzXvXbX:X5.=XvXrX  + ..0.MXMXMXMXMXMXMXMX",
"MXMXMXMXMXMXMXMX+       <XbX0.+ L mXbXnXxXbXbXxXbXbXcXbXbXbXbXbXlXbXbXbXbX5.  @.zXpX        1.MXMXMXMXMXMXMX",
"MXMXMXMXMXMXMXMX  + 7 , 5XbX8.  c rXiXuXuXeXiXuXiXiXuXyXyXuXuXyXsXtXuXuXyX$.X $.zXtX6 j     9.MXMXMXMXMXMXMX",
"MXMXMXMXMXMXMXMXX b pXxXbXxXOX              +                       .   X X + %.mXbXxXkXo.  4.MXMXMXMXMXMXMX",
"MXMXMXMXMXMXMXMX. b tXxXxXbX%X> :     g 2 :     2 2     4 g O   . , 3 + + O - 0.vXbXzXhXo.  4.MXMXMXMXMXMXMX",
"MXMXMXMXMXMXMXMX  j tXxXxXnXkXhX,X  O aXaX#.  z lX4X: O >XjX-.   .iXhX2 . oXjXjXcXvXvXhXo.  1.MXMXMXMXMXMXMX",
"MXMXMXMXMXMXMXMXo 6 sXxXxXbXnXbXwX+   bXxX:.  g bXyX3   5XbX1.  / hXbX5 . ;XnXbXvXvXbXmX .+ 4.MXMXMXMXMXMXMX",
"MXMXMXMXMXMXMXMX:X$X5./ +.@.,XbXgX1X,X..%.j   O @.X.O   v $.g   4 @.%.*X;XaXnX0X+.+.=.-.+X>XMXMXMXMXMXMXMXMX",
"MXMXMXMXMXMXMXMXvXfXs * = X 8.bXbXbXbX                          o     dXxXbXbX<X$ * = 9 9XMXMXMXMXMXMXMXMXMX",
"MXMXMXMXMXMXMXMXU.;.] P 8 - z <.1.7.-.@X#XoX@X@X@XoX@X@X@X@X@X@X+XoX@X4.*.<.,.O.- * P P ;.>.MXMXMXMXMXMXMXMX",
"MXMXMXMXMXMXMX:X0 p d.L.G $         + nXbXbXbXbXbXbXbXbXbXbXxXbXvXbXzX7 .       $ s U.d.C q Y.MXMXMXMXMXMXMX",
"MXMXMXMXMXMXMXXXC U j.l.F $ X X   % + 0X7XqXrX7X8X0X0X3XwXwX4XwXqX7XqX1     X   $ s l.j._ F ;.MXMXMXMXMXMXMX",
"MXMXMXMXMX6.* H k.S.j.k.F * X X X     + :   X 4 O X ; ; O O : X O O 4   X X     $ w T.j.j.j.~ 8 =.MXMXMXMXMX",
"MXMXMXMXMX6.= F k.J.A.I.s $ $ .   X + .   . X   X X .                 X   X     $ q d.S.A.F.~ q =.MXMXMXMXMX",
"MXMXMXc 4 = 0 H D.x.U A [ -.%.#. .    kXjXgXsXhXjX1X3 + &XhXgXhXkXkXjX6   c #.$.-.=.C Y e.S.! q 8 - j MXMXMX",
"MXMXMXr - * u Y H.z.R M ~ >.5.$./     bXxXbXxXbXvXsX,   4XxXbXbXxXbXvX6   c -.:.-.;.M S u.K.r.p 8 * < MXMXMX",
"MXMXMXl * a ` u.C.B.w.Q P d ( 5.$.x n 2.4.4.1.4.3.3.OXoX9.2.4.2.9.3.3.n L X.+.-.K G ! w.x.m.u.e.J 8 = MXMXMX",
"MXMXMXd q ^ D.G.~.~.n.T.F 8 K >.>.-.-.    .   + + g jXxX..    . .   o o.:.5.>.P * F I.F.C.M.V.V._ a w MXMXMX",
"MXMX=Xs u Q H.N.!.c.b.a.G G K [ ( O. .+ . j  ./ n 1.jXzX8.v X.n z     / ( ( ( K Z J a.i.N.^.R.W.i.U H XXMXMX",
"MX5 o 0 M r.V.W._.c.R A ~ L.G 0 8 9 * + X %XbXlXvXcXvXbXnXcXlXxX2X$ X % = * 0 F d.h.A E v.)._.!.m.J.s.B G MX",
"MX: 9 a S t.~._.`.c.E I T } T N B a w $ - $XnXbXvXbXbXcXnXbXbXvX2Xr $ w a B B J { ^ I E c.|.)._.!.V.A.C w MX",
"MX& 0 a.n.B.R.}.(._.W.b.U S ` k.d.| { 0 $ =XbXcXvXbXbXbXbXnXxXbX2X= = ] d.l.s.Q A I n.B._./.(./.^.N.A.H w MX",
"MXe i p.H.~.).}.}.(.!.G.W S W b.S.k.P.i * $XcXbXbXxXcXcXnXbXcXbX2X9 0 } k.g.j.Q H Y m.B./.'.}./.R.N.A.H w MX",
"MXe p f.x.!.R.{.{.{.].V.u.y.w.E w.S.d.u * l ..0.bXbXbXbXxXbXoX/ x $ t h.F.e.R W e.i.C.E.'.'././.!.G.S.B i MX",
"MX* t s.H.[.!.}.}.}./.W.n.F.w.I E Z.g.N 8 $ X 7 bXbXbXbXbXbX<.  o $ y h.x.e.A E S.Z.^.E.'.'./.R.Q.A.l.p e MX",
"MXMXY.] W i.B.!.).(.R.N.y.W R W t.H.f.N * =. X%XbXxXxXbXbXxX,Xq.+.% p g.x.z.w.W W e.M.E./.).`.~.x.W T U.MXMX",
"MXMXMXs i ` b.[.!.!.W.H.E V Q D.G.m.S.V 8 =XbXbXbXxXbXbXbXbXbXbXqXe p f.[.N.[.y.A R V.C.].!.[.H.p.N i MXMXMX",
"MXMXMX>.) ' s.y.u.z.x.D.Y M w.J.~.B.F.u * 9.qX9X9X7X3X3X6X6X6X3X.X- M f.B.~.[.y.A H A.m.x.x.r.h.] [ [ MXMXMX",
"MXMXMXMXMX>.t N A U s.I.! M w.n.!.~.S.N * - < < r e 1 , > > 2 2 r $ N i.[.!.[.w.V H k.j.U A p t ( MXMXMXMXMX",
"MXMXMXMXMX5.$ q q B [ L.D M w.V.!.~.b.y 8 X   & X                 = u h.Q.!.[.y.M Z P.} F q * X ( MXMXMXMXMX",
"MXMXMXMXMXMXMX X* * s d q u w.W.R.W.D.N = X                 X X X % u f.Q.W.G.y.N q i a 8 $ $.MXMXMXMXMXMXMX",
"MXMXMXMXMXMXMXMXX X X * 0 M w.!.!.N.b.N $   @                 X X % N f.V.^.[.y.V i * $ $   1.MXMXMXMXMXMXMX",
"MXMXMXMXMXMXMXMX  X X % K ^ u.Q.W.G.g.B *                   X X X % y a.V.!.N.x.Q G 9 X X O 4.MXMXMXMXMXMXMX",
"MXMXMXMXMXMXMXMX% X X % ] P.A.V.m.J.d.i *                     X X $ t h.J.K.m.Z.k.] 9 = X X 9.MXMXMXMXMXMXMX",
"MXMXMXMXMXMXMX5.$ X o % d P ` r.` ` ~ 0 $   .               X X X $ 8 P ` e.r.r.T P 9 o X X O.MXMXMXMXMXMXMX",
"MXMXMXMXMX9.O : X X X X % 9 p p i p 0 $ X .     X             X     X * i p p p 0 0 $ X   X O : #.MXMXMXMXMX",
"MXMXMXMXMX2..   X o     X X $ 8 9 $ X X     X X X % j j +           ; + X $ $ $ * $ X           %.MXMXMXMXMX",
"MXMXMXMXMX2.# .   O     + . X $ X   .             x MXMX%.    .     . . . O   O X X X     .      .MXMXMXMXMX",
"MXMXMXMXMX4.# #     & < > ; ; @ @ @ > @ > +   O < L MXMX@.3 .   O : ; > > @ # @ 2 ; 3 4     . , ,.MXMXMXMXMX",
"MXMXMXMXMXMXMX*.  r OX=X#X*X>X>X*X*X#X&X@Xc   7 MXMXMXMXMXMXn   b +X=X:X&X#X*X*X#X;X;XoXz   X.@XMXMXMXMXMXMX",
"MXMXMXMXMXMXMXMX  x MXbXcXbXnXnXxXnXbXbXxX1.+ k MXMXMXMXMXMX<.  X.jXvXvXbXzXxXxXbXbXbXgXo.  <.MXMXMXMXMXMXMX",
"MXMXMXMXMXMXMX&.X z MXbXzXbXxXbXbXbXvXvXmX1.  k MXMXMXMXMXMX<.  m dXvXvXvXvXbXxXbXcXvXsXo.. X.$X#XMXMXMXMXMX",
"MXMXMXh           L MXMXbXbXxXxXbXbXbXvXcX5.  z MXMXMXMXMXMX<.. ..dXbXvXbXbXxXbXbXbXbXgXo.    X X   1 MXMXMX",
"MXMXMXz . g  . .L 1.MXMXbXbXbXbXbXbXzX3X4X..+ k MXMXMXMXMXMX1.  v ,X3XzXbXlXbXbXbXbXvXjX8./ X.c h X < MXMXMX",
"MXMXMXh O  XMXMXMXMXMXMXMXMXbXbXbXbXgXh : + X z MXMXMXMXMXMX<.    : g eXbXbXbXnXbXxXnXbXhXsXjXMX#X2 : MXMXMX",
"MXMXMXv 3 MXMXMXMXMXMXMXMXMXMXMXMXMXMXO + 3 +  .MXMXMXMXMXMX7.O : : 4 pXhXmXhXhXjXmXhXhXjXhXhXMXMX2 h MXMXMX",
"MXMXMXMXMX9. .c  ...c n  .c c  .X. .X.MXMXMXMXMXMXMXMXMXMXMXMXMXMXMXMX$.v c  . . . . .c  .X.v  .<.MXMXMXMXMX",
"MXMXMXMXMX7.O + + X . 4 + : +     + : MXMXMXMXMXMXMXMXMXMXMXMXMXMXMXMXz O   + + +   +   + +   X ..MXMXMXMXMX",
"MXMXMXMXMXMXMXMXMXMXMXMXMXMXMXMXMXMXMXMXMXMXMXMXMXMXMXMXMXMXMXMXMXMXMXMXMXMXMXMXMXMXMXMXMXMXMXMXMXMXMXMXMXMX"
};
