/* XPM */
static char *e59cb7b9baf043fab57a88acc69d065aYwrDxKEEcJNdw8C2[] = {
/* columns rows colors chars-per-pixel */
"70 70 228 2 ",
"   c None",
".  c #0F0903",
"X  c #0A080A",
"o  c #130C04",
"O  c #1C1304",
"+  c #1A120C",
"@  c #2A1C0B",
"#  c #25170D",
"$  c #2B1E12",
"%  c #2D1D1D",
"&  c #2C1615",
"*  c #33191A",
"=  c #36270D",
"-  c #2B2012",
";  c #3A2314",
":  c #37251A",
">  c #2E1D26",
",  c #261C29",
"<  c #2B1D2C",
"1  c #2C1723",
"2  c #391624",
"3  c #3D162A",
"4  c #381928",
"5  c #2F1E34",
"6  c #3C1B34",
"7  c #321F3C",
"8  c #3D1C3A",
"9  c #341D34",
"0  c #2B212D",
"q  c #24232A",
"w  c #322121",
"e  c #34222D",
"r  c #2A2333",
"t  c #2D2539",
"y  c #2D2A3C",
"u  c #282734",
"i  c #342434",
"p  c #33253B",
"a  c #31293E",
"s  c #3E253C",
"d  c #32343C",
"f  c #49370B",
"g  c #43330C",
"h  c #422E16",
"j  c #442C1B",
"k  c #4C3314",
"l  c #49311A",
"z  c #553516",
"x  c #563C15",
"c  c #593D16",
"v  c #5B3C19",
"b  c #553918",
"n  c #603F18",
"m  c #41192E",
"M  c #441933",
"N  c #4A1A3C",
"B  c #471A37",
"V  c #531B3B",
"C  c #42233C",
"Z  c #402A21",
"A  c #5E4019",
"S  c #614117",
"D  c #6B4A15",
"F  c #624219",
"G  c #6D4D1D",
"H  c #67491A",
"J  c #704F1C",
"K  c #6F501E",
"L  c #6F5517",
"P  c #765415",
"I  c #7F5D15",
"U  c #73531D",
"Y  c #775919",
"T  c #7C5B1B",
"R  c #79571A",
"E  c #7F601C",
"W  c #7E6017",
"Q  c #6F4F20",
"!  c #704F21",
"~  c #705021",
"^  c #6F5021",
"/  c #3A1E42",
"(  c #2E2D41",
")  c #352243",
"_  c #3B2445",
"`  c #332B42",
"'  c #3B234C",
"]  c #3D2A4C",
"[  c #382648",
"{  c #2E3244",
"}  c #323244",
"|  c #3C344C",
" . c #37374B",
".. c #3E2453",
"X. c #3F2A52",
"o. c #3C3C54",
"O. c #4C1B43",
"+. c #491B46",
"@. c #531C44",
"#. c #5B1D4B",
"$. c #551D49",
"%. c #5B1D54",
"&. c #571D57",
"*. c #641E5C",
"=. c #671E57",
"-. c #621D4A",
";. c #432D4E",
":. c #462748",
">. c #55224B",
",. c #46324C",
"<. c #402556",
"1. c #422B54",
"2. c #43265C",
"3. c #452C5B",
"4. c #492E5E",
"5. c #492E53",
"6. c #5B2856",
"7. c #453354",
"8. c #4B3354",
"9. c #46325A",
"0. c #4A335D",
"q. c #473C59",
"w. c #533C5D",
"e. c #563457",
"r. c #612149",
"t. c #6C235E",
"y. c #662658",
"u. c #6B2F5C",
"i. c #681F67",
"p. c #462760",
"a. c #472960",
"s. c #4A2D62",
"d. c #4D3464",
"f. c #4E3864",
"g. c #513666",
"h. c #513A66",
"j. c #513569",
"k. c #553C6C",
"l. c #583E6F",
"z. c #5A3964",
"x. c #573C70",
"c. c #5A3D73",
"v. c #5C2F60",
"b. c #6B2364",
"n. c #6C226C",
"m. c #6A2865",
"M. c #712463",
"N. c #74246C",
"B. c #78296A",
"V. c #693564",
"C. c #753869",
"Z. c #6E2171",
"A. c #742373",
"S. c #7A2574",
"D. c #7C2B73",
"F. c #7A257A",
"G. c #7A2878",
"H. c #7E3173",
"J. c #3D435C",
"K. c #49425C",
"L. c #41404D",
"P. c #494763",
"I. c #56416B",
"U. c #5A426C",
"Y. c #574564",
"T. c #5D4475",
"R. c #5F4578",
"E. c #5F4973",
"W. c #50546C",
"Q. c #604675",
"!. c #614A73",
"~. c #61467A",
"^. c #654C7D",
"/. c #694D7E",
"(. c #6A4273",
"). c #67547A",
"_. c #65486D",
"`. c #815E18",
"'. c #8B6B16",
"]. c #85641B",
"[. c #886419",
"{. c #8D6C19",
"}. c #876517",
"|. c #946F18",
" X c #936F17",
".X c #8F7018",
"XX c #9D7917",
"oX c #937019",
"OX c #9A751A",
"+X c #977317",
"@X c #A37C17",
"#X c #A17A19",
"$X c #8C2B7B",
"%X c #852B76",
"&X c #85327A",
"*X c #882C72",
"=X c #8B457A",
"-X c #674B81",
";X c #694D83",
":X c #6C4D87",
">X c #6B5184",
",X c #6E5189",
"<X c #675080",
"1X c #71518C",
"2X c #775B8C",
"3X c #795895",
"4X c #78648A",
"5X c #7C6493",
"6X c #8D2C81",
"7X c #922C84",
"8X c #9C2C88",
"9X c #953987",
"0X c #8C3483",
"qX c #A32E8D",
"wX c #AA3794",
"eX c #B63D9B",
"rX c #A6348F",
"tX c #964582",
"yX c #B04993",
"uX c #84699A",
"iX c #835DA1",
"pX c #BC44A1",
"aX c #8B6CA3",
"sX c #8764A2",
"dX c #8E72A4",
"fX c #9275A8",
"gX c #D359B3",
"hX c #CA50AC",
/* pixels */
"  d W.                                              J.J.        8.,       s E.         .J.                                              L.} ",
"  K.).W.                              7.V.=XtXC.,.| | 7.      C.=XC       C.=XU.      ,.q.J.e.=XtXC.8.                                )._. .",
"  | 4X4XW.                          5.C.9XyXyXC.7.K.K.K.    v.D.tXC       C.0XV.f.  K.Y.P.P.e.tXyXtX&X6.9.                        W.).uXY.} ",
"  [ E.5X4XY.q.                  d.V.&XD.#.r.*Xe.o.q.!.h.| 8.m.N.H.6       y.D.N.v.q.q.^.Y.o.K.C.y.@.M.&XH.z.                  P.P.!.4X>X8.} ",
"  ` h.>XdXuX!.q.|             0.B.0XN.#.B V u.8.q.I.2X^.7.6.N.*.t.6       >.=.N.m.,.k.3X^.q.P.V.r.M @.*.%X&Xv.            P.q.U.2XdX5XT.7.} ",
"  ` d.R.uXfXaX2XE.P.K.      5.m.0XS.*.*.%.@.u.8.,.E.2X/.e.y.N.%.y.@.6.6.>.>.#.*.b.>.U.2X/.w.q.V.-.$.*.*.b.6XD.z.      P.P.U./.uXfXdX>Xg.;.` ",
"  a 9.x.2XfXfXfXuX5X>XE.Y.,.>.D.A.i.N.S.n.*.D.u.s w.Y.8.:.y.=.=.B.$X$X$X$X*X=.=.y.>.,.Y.Y.;.:.B.t.i.A.S.i.n.F.m.s w.U.).2XuXfXfXfXuX~.d.[   ",
"  } ] k.1XaXsXaXdXfXfXaX5Xe.m.S.i.A.F.F.F.n.G.C.:.w.z.:.B =.B.$XrXpXpXpXpXeX8X*XM.@.s w.z.8.y.%XN.A.F.F.F.Z.A.D.6.).uXdXfXdXaXaXaXuXT.0.`   ",
"  { ] k.,XsXiX3X3X3X5XuX4Xe.D.A.A.F.A.F.F.A.A.D.V.(./.8.O.B.8XqXeXgXgXgXgXhXwXqX$Xr.:._./.V.D.S.A.F.F.A.F.F.Z.G.u._.uXuX5X2X3XiXsX3XT.0.`   ",
"  { ] g.:XuX3X3X1X>X>X>XY.u.S.Z.F.F.A.Z.F.A.n.M.B.u.:.3 V *X8XqXeXgXgXgXgXhXwX8X$Xy.3 C 6.M.N.n.A.F.A.A.A.F.Z.S.B.e.).>X>X,X1X3XsX2Xx.0.a   ",
"    ) d.~.3X3X1X,X;X/.^.e.M.A.n.n.y.$.$.b.n.n.*.t.r.M * 3 y.$X8XwXpXpXpXpXeXqX7XB.B * 2 @.t.*.b.n.n.&.$.&.b.n.n.D.6.!./.;X,X1X3X3X,Xk.1.y   ",
"    ` 9.x.,X3X1X1X;X/.^.e.m.b.+.B 8 _ :.+.O.%.*.%.N B 3 & 2 #.N.$X7X7X7X7X$X%Xt.M & * B N $.&.%.O.O.:._ 8 6 O.&.N.v.!./.;X,X1X1X3X~.d.`  .  ",
"    } 7.g.-X1X>X>X;X/.^.e.y.$./ _ ' 4.4.<._ B O.$.N $.@.& # * m @.%.%.%.%.$.B 2 & # M r.N O.+.B / :.4.4.1._ / +.6.e.!././.:X,X1X1Xc.d.`     ",
"    ` 1.g.~.,X;X;X/././.w.:.:.<.4.g.T.T.g.d.;.8 6 M >.t.B & # # & 1 3 3 2 & # # # 2 6.t.N M 6 _ 0.g.k.T.k.d.3.:.:.e.!./.;X-X-X,X:Xk.0.a     ",
"    { [ d.T.:X<X/./././.!.0.<.s.k.~.~.k.4.j.T.0._ 4 >.&Xb.B 2 2 3 @.=.=.#.m 2 2 3 #.%XM.6 6 1.l.T.4.d.T.~.T.d.3.1.I./././././.:X~.g.1.y     ",
"      ` 0.k.;X,X<X/./././.T.j.k.~.~.k.4...d.-X~.0.s O.&X9XD.M.M.*X$X7X6X7X$XB.M.B.&X0Xy.6 ;.T.;Xc.3...j.T./.T.d.k.^././.<X/.>X,XT.d.] |     ",
"      p 1.g.~.,X:X-X-X/././.R.R.^.x.s.....s.~.:Xl.:.8 %.&X9XwXwXwX7XB.M.%XrXwXwXwX9Xn.O.8 d.^.:Xk.<...2.j.~.~.T./././././.<X,X-Xk.d.p  .    ",
"    } p 1.d.x.:X,X;X-X/./.>X/.^.k.s.2.' ' a.c.,XR.0./ O.&.n.A.N.b.@.m 3 N y.N.S.N.i.+.8 1.x.:X~.s...' <.2.j.R././.>X-X/./.>X,XR.g.9.[ p     ",
"    | d.<.d.k.~.,X,X;X/./././.T.s.2...' ' 2.j.-X;Xl.;.6 N &.$.B 3 2 N $.3 2 m O.&.$.6 s h.^.:Xc.a...' ' <.2.k././.;X;X>X>X1X;XT.g.3.9.q. .  ",
"  | I.l.<.3.d.d.x.~.,X,X;X>X/.k.2...3.d.<...a.k.^.^.h.e m #.N 2 B $.&.&.&.O.3 3 #.V 4 ,.~.-Xc.s.<...0.4...<.d.~.-X>X>X,X;XT.j.d.4.X.d.Q.7.  ",
"  7.>XQ.d...<.2.a.d.x.~.:X,X~.d.<.<.g.T.d...<.a.k.^.~.,.>.M.#.3 B N N N N B 3 M b.y.C U.-XT.s.2...3.k.k.4...2.x.,X,X-XT.j.a.2.<.<.3.k.:XI. .",
"  w.>X~.T.d.....<.2.2.s.x.R.j.<.' 0.T.T.k.4...<.a.k.^.w.:.6.N 1 1 1 1 1 1 1 1 6 $.>.,.^.T.d.2...3.g.T.T.k.....4.T.c.j.a.2.<.<...3.k.T./.E.| ",
"  w.;XT.T.T.g.0.<...<.2.a.a.<.' ' g.R.R.T.k.4...<.a.k.h.:.B / ' 1.1.1.1.1.1.:._ 8 C 8.x.d.2...3.g.T.R.T.T.3.' ' 2.a.2.<.....3.d.k.T.T.~.Q.| ",
"  w.;XT.T.T.T.T.g.4.<...<.<.' / ..k.T.T.T.U.g.3...<.2.d.1._ ' <.2.2.2.2.2.2.2.<._ ' 4.s.<.....d.k.T.T.T.T.0.' ' <.<.<...3.d.k.T.T.T.T.~.Q.| ",
"  w.;XT.T.T.T.T.T.U.h.4.<.' ) 7 [ 1.1.1.1.1.1.' ) 7 ) ' ' ) ) ' ' ' ' ' ' ' ' ) ) ' ' _ 7 7 ' ] 1.1.1.1.1.' 7 7 ' ..3.d.k.T.T.T.T.~.Q.~.Q.| ",
"  w.:X~.T.T.T.T.T.T.T.U.d...7 > > > > > > > > > > & % > > > > > > > > 1 > > > > > > > > & % > > > > > > > > > < ' 4.g.T.T.T.T.T.T.~.Q.^.Q.| ",
"  7.;X^.~.T.T.T.T.T.T.T.d.' < : ; ; ; ; ; ; ; ; ; ; ; ; ; ; ; ; ; ; # o $ ; ; ; ; ; ; ; ; ; ; ; ; ; ; ; ; ; ; % _ 3.g.T.T.T.T.T.~.~.~.:XI. .",
"  | g.-X-X~.T.R.T.T.T.d...i j b v v v v v v v v v v v v v v v v v b # . l v v v v v v v v v v v v v v v v v b l w _ 4.k.T.T.T.T.R.^.-XT.7.  ",
"  ( ' x.-X^.R.T.T.T.d...i j H R T R U G G G G G G G G G G G G U T Y = o H R U G G G G G G G G G G G G G U T T U b w _ 4.k.T.T.T.~.-XR.4.`   ",
"    p 4.x.~.~.T.T.d.<.7 : H [.+X+X[.H S S S S S S S S S S S S T +X|.g O W +X[.H S S S S S S S S S S S S T +XOX|.T l > ' s.k.T.~.~.c.d.' t   ",
"    < ' a.j.T.T.d.3.' < h Y XX@XOXP H G G G G G G G G G G G H `.@XXXf O '.@X|.H G G G G G G G G G G G G D [.#X@X{.x % ) ..s.k.T.x.s.<.7 r   ",
"    5 ....2.d.d.3.<...5 h Y XX+XP D T ].].].].].].].].].].].Y [.@XXXf O '.@X XP T ].].].].].].].].].].].P D [.#X{.x % [ <.<.s.j.s.<..._ r   ",
"    _ s.<...2.<...3.3.i h Y OX`.D T {.{.{.{..X.X{.{.{.{.{.{.T [.@XXXf O '.@X|.P ].{.{.{.{.{.{.{.{.{.{.{.].U P OX{.x % ] 4...<.2.<...4.<.t   ",
"    [ k.d.<.......3.9.i h Y OXI T [.{.{.oXoXoXoXoXoXoXoX{.[.T [.@XXXf O '.@X|.P ].{.oXoXoXoXoXoXoX.X.X{.{.[.P +X{.c % ] 0.....<...4.k.9.y   ",
"    p k.T.d.<.' ' 4.0.i h Y OXI T {.{..X{.{.{.{.{.{.oXoX{.{.T [.@XXXf O '.@X|.P ].{.oXoX.X{.{.{.{..X.X{.{.].P +X{.c w 1.d...' ..4.k.T.1.r   ",
"    t X.T.T.g.3...4.d.i h Y OXI T {.oXoX{.{.].T ].{.oXoXoX{.T [.@XXXf O '.@X|.P ].{.oX.X.X{.`.].{.{.oXoX{.].P OX{.c w 1.d.<...d.x.~.d.p (   ",
"    y ) 3.T.T.T.g.d.d.i h Y OXI T {.oX.X{.{.T U T [.{..XoX{.T [.@XXXf O '.@X|.P ].{.oX.X{.].U T [.{.{.oX{.].P +X{.c w 7.g.j.k.T.~.g.' t     ",
"    ( ' <.3.T.~.T.U.f.i h Y OXI T {.oX{.{.[.R K U ].{.{.{.{.T [.@XXXf O '.@X|.P ].{.oX.X[.T U U ].{.{.{.{.].P +X{.c w 7.k.T.R.R.d.X.1.p     ",
"    y 1.d.X.4.T.~.T.h.i h Y OXI T {.oX{.{.T U K U T {.{.{.{.T [.@XXXf O '.@X|.P ].{.{.{.].U G G T [.{.{.{.].P +X{.c w 7.T.T.R.g.<.4.d.`     ",
"    ( 1.k.4...3.T.~.h.i h Y OXI T {.oX{.].U K U K Y ].{.{.{.T [.@XXXf O '.@X|.P ].{.{.[.T U G G U ].{.{.{.].P +X{.c w 7.T.T.d...3.g.h.`     ",
"    ( 1.k.d.4.<.0.U.h.i h Y OXI T {.oX{.T U G Q Q U T [.{.{.T [.@XXXf O '.@X|.P ].{.{.].U G Q ~ G R [.{.{.].P +X{.c w 7.T.d.<.3.d.g.h.`     ",
"    ( 1.k.g.d.4.X.1.9.i h Y OXI T {.{.[.U G ! ~ Q G U ].{.{.T [.@XXXf O '.@X|.P ].{.{.T U Q ! ~ G U ].{.{.].P +X{.c : ;.9.X.3.d.g.k.h.`     ",
"    ( 7.T.U.k.g.4...[ > h Y OXI T {.{.].U Q ~ ~ Q G U ].{.{.T [.@XXXf O '.@X|.P ].{.].U G Q ~ ~ Q G R [.{.].P +X{.c % p ' <.d.g.k.T.h.`     ",
"    y 7.T.T.T.k.d.4.[ % h Y OXI T {.[.U G ^ ~ ~ Q Q G R ].[.T [.@XXXf O '.@X|.P ].[.T U G Q ~ ~ Q G U ].{.].P +X{.x $ p 1.d.g.T.T.T.h.p     ",
"    r 1.T.R.R.T.k.g.9.0 h Y OXI T [.T U G ~ ~ ~ ~ Q G U T ].T [.@XXXf O '.@X XP ].].U G Q ~ ~ ~ ~ ^ G U ].].P +X{.c - ] d.g.T.T.T.T.h.p }   ",
"    p d.x.T.T.T.T.U.h.i h Y OXI T ].Y G G ~ ~ ~ ~ ~ Q G U ].T ].@XXXf O '.@X XP ].T U K ~ ~ ~ ~ ~ ^ Q U T ].P +X{.c : 7.k.T.T.T.T.T.j.] y   ",
"    _ ~.x.k.T.T.T.T.h.i h Y OXI T T U G G ~ ~ ~ ~ ~ Q G U T T [.@XXXf O '.@X XP T Y K K ~ ~ ~ ~ ~ ~ Q K R ].P +X{.c w 8.T.T.T.T.T.k.~.d.y   ",
"    ' -X~.x.k.T.T.T.k.i h Y OXI T ].U G U ~ U U ~ ~ Q G U ].T [.@XXXf O '.@X|.P E T U K ~ ~ ~ ~ ~ ~ Q K T ].P +X{.c w 9.T.T.T.T.k.c.;Xj.a   ",
"    ' ~.~.T.k.k.T.T.I.p h Y OXI T [.T U ^ ! K ! ~ Q G U T ].T [.@XXXf O '.@X|.P ].].U G Q ! ! ~ ~ Q G Y ].].P +X{.c w 9.T.T.T.g.x.R.^.d.a   ",
"    _ T.R.T.k.d.T.T.I.p h Y OXI T {.].U G Q ! ! Q Q G U ].[.T [.@XXXf O '.@X|.P ].[.T U G Q ! ~ Q Q U T [.].P +X{.c w 9.T.T.g.j.T.R.~.0.a   ",
"    _ T.T.T.j.d.T.T.I.p h Y OXI T {.{.T G Q ! ! Q G U T [.[.T [.@XXXf O '.@X|.P ].{.].U G Q ! ~ Q G Y [.{.].P +X{.c w 9.T.T.g.d.k.T.~.0.y   ",
"    _ T.T.j.d.k.T.T.I.p h Y OXI T {.{.[.U Q ! ! Q G U ].{.{.T [.@XXXf O '.@X|.P ].{.[.R G Q ! ~ Q U T {.{.].P OX{.c w 9.T.T.T.g.d.k.Q.0.y   ",
"    _ k.j.d.k.T.T.T.I.i h Y OXI T {..X{.T G Q Q Q U T [.{.{.T [.@XXXf O '.@X+XP ].{.{.].U ^ ^ ^ K U ].{.{.].P OX{.c w 9.T.T.T.T.j.d.k.0.y   ",
"    p <.s.k.T.T.T.T.h.i h Y OXI T {..X{.].U Q Q K U [.{.{.{.T }.@XXXf O '.@X|.P ].{..X[.T K Q Q K T {.{.{.].P +X{.c w 7.U.T.R.T.T.g.3.' t   ",
"    1 ] k.k.T.T.T.T.f.e h Y OXI T [.{.{.[.T U G U T [.{.{.{.T }.@XXXf O '.@X|.P ].{..X{.].U G G U ].{.{.{.].P +X{.c : ,.k.T.T.T.T.k.0.5 q   ",
"    0 1.k.k.T.T.T.g.;.% h Y +XI T ].].[.{.].U G U [.{.{.{.{.T [.@XXXf O '.@X|.P ].{..X{.[.R U U E [.{.[.[.].P |.[.x $ p d.U.T.T.k.k.g.i d   ",
"    ( 7.k.g.k.k.g.9.) > h Y +XR Y ].T [.{.[.T U T [.{.{.{.[.U `.XXOXf O }.@X{.D ].{.{.{.{.].U U ].{.{.].].`.D |.[.x $ p X.d.k.k.k.k.h.`     ",
"    ( 7.k.g.g.d.3.1.7.i h Y |.P G ].E ].[.[.].T ].[.}.].].[.G R +XoXg O ].+X}.H T ].].].[.].R R ].].].E ].R S [.[.x : ] 7.1.0.g.g.g.d.a     ",
"    y ] g.d.d.3.1.d.f.i h Y [.H G R T T ].].T T T ].].].`.T G P {.'.g O I .X`.S U E ].E ].T T T ].].].T T U n [.].x w 7.h.3.X.9.d.h.0.t     ",
"    y ) d.4.X.X.0.d.0.i h L ].H S U U U U T R U U U U R R U H J ].E = o L ].T S U U Y Y Y U U R T R U U U G c T T x : 1.d.d.1.X.3.d.1.r     ",
"    y ) 3...X.0.d.d.3.i h L R S v G G G G U U U G K U U U G S G T U = o H R U v G U U U U G G U U U G G G H z U U x % ] d.d.d.1...3.] r     ",
"    y p X.X.0.d.s.s.3.i h H U v v H G H H H H H H H G G H H c H U K = o F U G c S H G G G H H H H H H G H H z G G b % ] s.s.d.d.1...[ r     ",
"    y t X.d.d.a.a.a.<.5 h F G v v S S v S S S S v S S S S S c n G H @ . x G H z v S S S S v S S v S v S S S z H H b % [ 2.a.a.s.d.9.) r     ",
"    u ) 0.d.a.p.p.2.<.5 ; A H b v v S v S n n v v v S S S v c v H v @ . k S S z v S S S S v v S v v v v S v z F S k % ' 2.p.p.a.s.d.1.r     ",
"    0 7.d.a.p.p.p.2.<.5 ; c F v v S S S S S S S S S S S S n c v S v @ . k S S z v S S S S S S S S v v S S v z S A l % ' 2.p.p.p.a.s.0.p u   ",
"    r 0.2.2.p.p.p.2...5 ; c S v v S S S S S S S S S S S S S c v S c @ . k S S z v S S S S S S S S S S S S S z S v k % ' 2.2.p.2.2.2.0.[ u   ",
"    r 9...<.2.2.<...' < ; c S v G G G G G G G G G G G G G G H S S c @ . k S S v G G G G G G G G G G G G G G v S v l % ) ..<.2.2.2...3.[ u   ",
"    5 X.' ........' ' < : v S H G G G G G G G G G G G G G G G H S c @ . k S H H G G G G G G G G G G G G G G H H v l % ) ' ' ......' ' ) u   ",
"    < [ ) ) ) / ) ) ) 5 Z b c c c c c c c c c c c c c c v c v v x b # . l c x c c c c c c c c c c c c v c c v v b l e ) ) ) ) ) ) ) ) p u   ",
"    q 0 < , , , , < 0 0 > - - - - - - - $ $ - - - - - - - $ $ $ $ $ + X # @ @ @ $ - - - - - - - - - - - - - - - $ % < < < , , , , , 0 0 q   "
};
