/* XPM */
static char *result[] = {
/* columns rows colors chars-per-pixel */
"40 70 157 2 ",
"   c #020202",
".  c #01030C",
"X  c #0C0C0C",
"o  c #000513",
"O  c #070912",
"+  c #0E0F10",
"@  c #000718",
"#  c #030A1B",
"$  c #090E1D",
"%  c #0A101C",
"&  c #131313",
"*  c #16191F",
"=  c #1A1A1A",
"-  c #020D25",
";  c #090F20",
":  c #010C2D",
">  c #031126",
",  c #171A24",
"<  c #1B1C21",
"1  c #1B1E28",
"2  c #020E32",
"3  c #031436",
"4  c #081936",
"5  c #02123A",
"6  c #061838",
"7  c #091C3C",
"8  c #1B2539",
"9  c #242424",
"0  c #2B2B2C",
"q  c #31312F",
"w  c #2D2E30",
"e  c #333333",
"r  c #34363A",
"t  c #3B3B3B",
"y  c #021745",
"u  c #041843",
"i  c #081F45",
"p  c #02164A",
"a  c #051C4C",
"s  c #062041",
"d  c #0B2144",
"f  c #05224C",
"g  c #0A244C",
"h  c #042155",
"j  c #092451",
"k  c #062954",
"l  c #04215C",
"z  c #082559",
"x  c #0B295E",
"c  c #12315C",
"v  c #222E43",
"b  c #253447",
"n  c #293F5A",
"m  c #042460",
"M  c #062B65",
"N  c #0A2D67",
"B  c #023166",
"V  c #0E3264",
"C  c #0B346D",
"Z  c #133964",
"A  c #103B6E",
"S  c #053376",
"D  c #0B3573",
"F  c #0B3A75",
"G  c #09377B",
"H  c #063A7C",
"J  c #0C3C7C",
"K  c #133D7A",
"L  c #3D4248",
"P  c #1D4473",
"I  c #13417E",
"U  c #19457E",
"Y  c #1B487C",
"T  c #2E4460",
"R  c #444444",
"E  c #4D4C4D",
"W  c #454B54",
"Q  c #545454",
"!  c #585857",
"~  c #575858",
"^  c #5C5C5C",
"/  c #4A5E76",
"(  c #646464",
")  c #60656B",
"_  c #6C6C6D",
"`  c #66727F",
"'  c #6F747A",
"]  c #737373",
"[  c #777778",
"{  c #7C7C7C",
"}  c #073C83",
"|  c #0A3981",
" . c #0F4284",
".. c #07418D",
"X. c #0E438A",
"o. c #144381",
"O. c #154885",
"+. c #11478E",
"@. c #174B8B",
"#. c #0A4695",
"$. c #0D4D96",
"%. c #0B4B9A",
"&. c #114B92",
"*. c #175297",
"=. c #1C5090",
"-. c #14539E",
";. c #1A5598",
":. c #205592",
">. c #0A4DA1",
",. c #0F55A7",
"<. c #0D55AA",
"1. c #0F58AB",
"2. c #1354A1",
"3. c #1559A4",
"4. c #185AA5",
"5. c #155BAB",
"6. c #195FAF",
"7. c #0C5CB4",
"8. c #075BB8",
"9. c #125DB2",
"0. c #1C60AD",
"q. c #0F63BF",
"w. c #1162B7",
"e. c #1962B3",
"r. c #1464BD",
"t. c #687482",
"y. c #0766C7",
"u. c #0B63C3",
"i. c #0F68C7",
"p. c #0666CC",
"a. c #0967CC",
"s. c #0C69CB",
"d. c #1066C2",
"f. c #1169C5",
"g. c #056AD4",
"h. c #086CD3",
"j. c #036EDB",
"k. c #006FE1",
"l. c #848484",
"z. c #8D8D8D",
"x. c #939393",
"c. c #9B9B9B",
"v. c #A4A4A4",
"b. c #AAAAAA",
"n. c #B4B4B4",
"m. c #B7B8B8",
"M. c #BABABA",
"N. c #C4C4C4",
"B. c #CCCCCC",
"V. c #D5D5D5",
"C. c #DCDCDC",
"Z. c #E3E3E3",
"A. c #EBEBEB",
"S. c #F4F4F4",
"D. c #F8F7F8",
"F. c #FDFDFD",
"G. c None",
/* pixels */
"G.G.G.G.G.G.G.G.G.G.G.G.G.G.G.G.G.G.G.G.G.G.G.G.G.G.G.G.G.G.G.G.G.G.G.G.G.G.G.G.",
"G.G.G.G.G.G.G.G.G.G.G.G.G.G.G.G.G.G.G.G.G.G.G.G.G.G.G.G.G.G.G.G.G.G.G.G.G.G.G.G.",
"G.G.G.G.G.G.G.G.G.{ e 9 9 9 9 0 0 9 9 0 9 0 9 9 0 9 9 0 9 E G.G.G.G.G.G.G.G.G.G.",
"G.G.G.G.G.G.G.G.G._ 0 9 9 9 9 9 9 9 9 9 9 9 9 9 9 9 9 9 9 E G.G.G.G.G.G.G.G.G.G.",
"G.G.G.G.G.t X X = ( M.N.B.N.N.N.B.N.N.N.N.N.N.B.N.N.B.N.N.x.0 X   9 G.G.G.G.G.G.",
"G.G.G.G.G.R = = 9 ( A.F.F.F.F.F.F.F.F.F.F.F.F.F.F.F.F.F.F.b.e = = e ( G.G.G.G.G.",
"G.G.G.9 r { z.z.z.n.S.F.F.F.F.F.F.F.F.F.F.F.F.F.F.F.F.F.D.V.c.z.z.z.! = G.G.G.G.",
"G.G.G.& 9 v.D.D.D.D.F.F.F.F.F.F.F.F.F.F.F.F.F.F.F.F.F.F.F.F.D.D.D.V.E X ( G.G.G.",
"G.G.G.& = b.F.F.F.F.F.F.F.F.F.F.F.F.F.F.F.F.F.F.F.F.F.F.F.F.F.F.F.V.E   ( G.G.G.",
"G.G.G.& 9 b.D.F.F.F.F.F.F.F.F.F.F.F.F.F.F.F.F.F.F.F.F.F.F.F.F.F.F.V.E X ( G.G.G.",
"G.G.^ Q ^ N.F.F.F.F.F.F.F.F.F.F.F.F.F.F.F.F.F.F.F.F.F.F.F.F.F.F.F.Z.{ E _ G.G.G.",
"G.9 t N.C.A.F.F.F.F.F.F.F.F.F.F.F.F.F.F.F.F.F.F.F.F.F.F.F.F.F.F.F.S.C.V._ & t G.",
"G.& r Z.F.F.F.F.D.A.B.N.N.N.N.B.Z.D.F.F.F.F.F.F.F.F.F.F.F.F.F.F.F.F.F.D.]   e G.",
"G.= r Z.F.F.F.F.S.N.^ E E E E ( n.S.F.F.F.F.F.F.F.F.F.F.F.F.F.F.F.F.F.D.]   e G.",
"G.= e Z.F.F.F.F.S.b.&         9 x.S.F.F.F.F.F.F.F.F.F.F.F.F.F.F.F.F.F.F.]   r G.",
"G.= e Z.F.F.F.F.S.b.&         9 x.S.F.F.F.F.F.F.F.F.F.F.F.F.F.F.F.F.F.D._   q G.",
"G.= 0 B.Z.S.F.F.S.v.&         9 z.S.F.F.F.F.F.F.F.F.F.F.F.F.F.F.F.D.Z.C.(   e G.",
"G.= = ^ { B.F.D.S.b.&         = z.S.F.F.F.F.F.F.F.F.F.F.F.F.F.F.F.A.x._ 0   e G.",
"G.=   X 0 b.D.F.S.b.&         9 z.S.F.F.F.F.F.F.D.F.F.D.F.F.F.F.D.V.Q &     r G.",
"G.E r X & _ c.N.D.B._ ( ^ ( ( ] M.D.F.F.F.F.A.M.c.c.v.V.S.F.F.Z.v.l.0   0 R ( G.",
"G.G._ &   & 0 l.D.S.C.C.C.C.C.C.S.F.F.F.F.F.V.( 9 9 q c.A.D.F.M.r = X   ( G.G.G.",
"G.G._ ! Q Q ^ c.F.F.F.F.F.F.F.F.F.F.V.b.B.S.C.l.Q Q ! l.v.b.b.z.^ R =   ( G.G.G.",
"G.0 R N.V.V.V.A.F.F.F.F.F.F.F.F.F.D.c.r { C.S.Z.V.V.N.] e 0 0 ! N.n.t   ( G.G.G.",
"G.= 0 M.B.B.B.B.B.B.B.B.B.B.B.B.B.B.] X Q n.V.A.F.F.A.( & & 0 ( A.V.R X ( G.G.G.",
"G.= + R E E E E E E E E E E E E E E 0   = R _ N.D.F.A._ & t c.N.S.V.R X ( G.G.G.",
"G.&   X X X & X X X & & X X & & X   X & & & R m.D.F.A._ & Q V.A.S.B.E & _ G.G.G.",
"G.&     & _ x.Q   q z.] 9 = ( l.R X R z.c.c.b.C.F.F.A._ & 9 Q ( ^ _ _ Q G.G.G.G.",
"G.9     = x.V.{ X E V.b.r q c.N.( = [ Z.S.S.D.F.F.S.V.( &   X X X 9 _ G.G.G.G.G.",
"G.E t X X E _ R   0 _ ^ = & E { { l.M.D.F.F.F.F.S.c._ e X & 0 9   = G.G.G.G.G.G.",
"G.G.G.&   X X X     X X     X 0 z.Z.S.D.F.F.F.F.A.^ =     = E R X = G.G.G.G.G.G.",
"G.G.G.& X t ^ ^ ^ ^ ^ ^ ^ ^ ^ ] M.S.F.F.F.F.A.M.x.q   & 9 t ! E 0 e ! ^ G.G.G.G.",
"G.G.G.& = x.Z.Z.Z.Z.Z.Z.Z.Z.Z.A.S.F.F.F.F.F.B.^ = X X q E ! ^ ^ Q E 9 & _ G.G.G.",
"G.G.G.& = { N.N.N.N.N.N.N.N.N.N.N.N.N.N.N.N.v.E & & = t ^ ^ ^ ^ ^ Q 9 = ( c.G.G.",
"G.G.G.&   X X + + + X & X & X X + + + + X X = R ^ ! ^ ^ ^ ( ^ ^ ^ ^ ^ ! 0 X t G.",
"G.G.G.9 & & & X         & & X         X X X = R ^ ! Q ! ! ! Q Q ! ! Q Q 9   e G.",
"G.G.G.G.G.G.( Q       0 z.x.t       = R R R E ^ ! 0 = = = = * * = = & = X   e G.",
"G.G.G.G.G.G.G.]       r M.B.E       0 ! ^ ^ ^ ^ ! 9   . o o o .             e G.",
"G.G.G.G.G._ ( Q 0 9   = ! _ R q q q R ^ E e 0 q 9 + o i C H F k @       r E G.G.",
"G.G.G.G.G.e   0 ! R X X X & R ^ ^ ^ ^ ^ e X . . . . # A w.s.f.$.3 o   . ( G.G.G.",
"G.G.G.G.G.e   = r R ( ^ ( ^ R t Q ^ E t 9 X @ 7 g > - H y.j.h.8.S f # . ( G.G.G.",
"G.G.G.G.G.e     X Q C.S.A.N.E X r ! r O . o 6 U :.g 3 | a.j.k.j.s.2.f o ) G.G.G.",
"G.G.G.G.G.e     X Q A.A.N.x.r X 9 L b d f f x K @.V N %.h.k.k.k.j.u.H g / ' G.G.",
"G.G.G.G.G.e     X E A.B.! = X   X $ c ;.5.4.@.x a | 1.i.g.k.k.k.k.j.u.4.Z , R G.",
"G.G.G.G.G.t & & X Q Z.B.( e e 0 & @ c e.r.3.@.x h K 2.q.j.k.k.k.k.j.j.f.B . e G.",
"G.G.G.G.G.G.G.^ X Q Z.S.Z.V.V.M.^ $ V 0.%.m z o.=.N l #.a.j.k.k.k.k.j.d.B . e G.",
"G.G.G.G.G.G.G._ X R N.V.V.V.V.M.^ $ V 6.} u u &.6.S h J ,.u.g.k.k.g.u.3.k . e G.",
"G.G.G.G.G.G.G.]   = E Q Q E E R 9 # V 6.o.3 u %.d.<.+.D N } a.k.k.u.} j >   e G.",
"G.G.G.G.G.G.G._         X + + X . @ V 6.X.3 u %.h.h.q.| p S u.k.j.7.h @ .   e G.",
"G.G.G.G.G.G.G._       = E _ _ ^ w # V 6.o.5 u %.h.j.a.>.| %.s.j.j.1.f . 9 & G.G.",
"G.G.G.G.G.G.G.]       r M.S.S.B._ $ V 6.X.y p +.d.f.f.r.e.r.f.s.s.2.f . ( G.G.G.",
"G.G.G.G.G.G.G._       9 [ c.c.l.R # V e.<.G C K o.o.o.o.I I o.| I P n , G.G.G.G.",
"G.G.G.G.G.G.G._         X X & X . o c 6.f.r.*.x 5 2 2 2 3 2 2 : - 8 t.G.G.G.G.G.",
"G.G.G.G.G.G.G._                   . d o.1.i.7.J l j j j j j g 6 . < G.G.G.G.G.G.",
"G.G.G.G.G.G.G.]                     # 4 J 9.f.5.2.-.-.-.-.-.*.A # < G.G.G.G.G.G.",
"G.G.G.G.G.G.G.] 9 =                   o d O.-.-.2.-.2.2.-.-.*.U b r G.G.G.G.G.G.",
"G.G.G.G.G.G.G.G.{ ^ X                   # 4 i i i i i i i i i T t.G.G.G.G.G.G.G.",
"G.G.G.G.G.G.G.G.G.{ X                       . . . . . . . $ 1 W G.G.G.G.G.G.G.G.",
"G.G.G.G.G.G.G.G.G.] X                                     0 ^ G.G.G.G.G.G.G.G.G.",
"G.G.G.G.G.G.G.G.G.] &               X X X & X       X X X t G.G.G.G.G.G.G.G.G.G.",
"G.G.G.G.G.G.G.G.G.] X               t ] t.l.( 9 X t Q E Q G.G.G.G.G.G.G.G.G.G.G.",
"G.G.G.G.G.G.G.G.G.] X               _ C.A.A.N.R = ( G.G.G.G.G.G.G.G.G.G.G.G.G.G.",
"G.G.G.G.G.G.G.G.E R       & E _ _ ] n.S.D.D.Z.c.] _ ^ G.G.G.G.G.G.G.G.G.G.G.G.G.",
"G.G.G.G.G.G.G.] & X       0 c.Z.Z.Z.S.D.F.F.D.A.V.^ 9 ^ G.G.G.G.G.G.G.G.G.G.G.G.",
"G.G.G.G.G.G.G.]   & t R R ( N.S.V.M.n.n.M.n.n.n.v.R & E G.G.G.G.G.G.G.G.G.G.G.G.",
"G.G.G.G.G.G.G._ X t n.N.N.B.A.Z.z.R t t r r t e e & & E G.G.G.G.G.G.G.G.G.G.G.G.",
"G.G.G.G.G.G.G.] = ^ V.Z.Z.Z.A.B.( X X X & & & & & & = ^ G.G.G.G.G.G.G.G.G.G.G.G.",
"G.G.G.G.G.G.G.G.( ] Q Q Q E Q R 9   r _ ^ G.G.G.G.G.G.G.G.G.G.G.G.G.G.G.G.G.G.G.",
"G.G.G.G.G.G.G.G.G.] 9 & & = & & & & R G.G.G.G.G.G.G.G.G.G.G.G.G.G.G.G.G.G.G.G.G.",
"G.G.G.G.G.G.G.G.G.G.G.G.G.G.G.G.G.G.G.G.G.G.G.G.G.G.G.G.G.G.G.G.G.G.G.G.G.G.G.G.",
"G.G.G.G.G.G.G.G.G.G.G.G.G.G.G.G.G.G.G.G.G.G.G.G.G.G.G.G.G.G.G.G.G.G.G.G.G.G.G.G."
};
