/* XPM */
static char *result[] = {
/* columns rows colors chars-per-pixel */
"40 70 149 2 ",
"   c #020202",
".  c #02030C",
"X  c #0B0B0B",
"o  c #010513",
"O  c #010817",
"+  c #00051B",
"@  c #02091D",
"#  c #141414",
"$  c #131419",
"%  c #1B1B1B",
"&  c #1F201F",
"*  c #000624",
"=  c #020C24",
"-  c #010C2B",
";  c #02112B",
":  c #121521",
">  c #020F34",
",  c #031234",
"<  c #051937",
"1  c #04143B",
"2  c #041B39",
"3  c #081838",
"4  c #131F37",
"5  c #232424",
"6  c #23242A",
"7  c #2C2C2C",
"8  c #302E2F",
"9  c #2D2E30",
"0  c #343434",
"q  c #3C3C3C",
"w  c #011446",
"e  c #061C47",
"r  c #0A1E43",
"t  c #041A4B",
"y  c #081F4B",
"u  c #031B50",
"i  c #021F58",
"p  c #0B2347",
"a  c #06214C",
"s  c #0A234B",
"d  c #1D2D46",
"f  c #052553",
"g  c #042459",
"h  c #0A2558",
"j  c #032A5E",
"k  c #09285D",
"l  c #10335E",
"z  c #3E3E40",
"x  c #233B59",
"c  c #062B66",
"v  c #0B2D65",
"b  c #082D6B",
"n  c #0E3467",
"m  c #0D356C",
"M  c #133764",
"N  c #11366F",
"B  c #163B6A",
"V  c #0C3671",
"C  c #05387D",
"Z  c #0C3D7C",
"A  c #113770",
"S  c #103C73",
"D  c #113E79",
"F  c #3E444D",
"G  c #374250",
"H  c #0A407C",
"J  c #14437C",
"K  c #1E4B7F",
"L  c #27466A",
"P  c #434343",
"I  c #474847",
"U  c #4C4C4C",
"Y  c #414A57",
"T  c #535354",
"R  c #565759",
"E  c #585758",
"W  c #5B5B5B",
"Q  c #5D5F62",
"!  c #636363",
"~  c #65676A",
"^  c #6C6C6C",
"/  c #646F7F",
"(  c #747474",
")  c #7C7C7C",
"_  c #0B3A81",
"`  c #063D88",
"'  c #0D448C",
"]  c #124485",
"[  c #164984",
"{  c #1A4B81",
"}  c #144689",
"|  c #154A8B",
" . c #194B8D",
".. c #074595",
"X. c #0A4795",
"o. c #0E4B95",
"O. c #0C4D9D",
"+. c #134C90",
"@. c #184E92",
"#. c #114E99",
"$. c #1D5193",
"%. c #1A579D",
"&. c #1E5B9F",
"*. c #0C52A3",
"=. c #0C55A9",
"-. c #1958A1",
";. c #1257AA",
":. c #135BAB",
">. c #195DA9",
",. c #0F5DB4",
"<. c #0B5FBE",
"1. c #125DB3",
"2. c #0D60B4",
"3. c #0B60B8",
"4. c #1662B6",
"5. c #1A63B2",
"6. c #1565BB",
"7. c #1668BD",
"8. c #2060A9",
"9. c #0B64C4",
"0. c #0766C8",
"q. c #0A67CA",
"w. c #0768CE",
"e. c #0D6ACC",
"r. c #1265C1",
"t. c #1468C2",
"y. c #066BD5",
"u. c #096BD2",
"i. c #026EDC",
"p. c #006FE1",
"a. c #838383",
"s. c #8D8D8D",
"d. c #908F90",
"f. c #939393",
"g. c #9C9C9C",
"h. c #A5A5A5",
"j. c #ACACAB",
"k. c #B4B4B4",
"l. c #BBBBBB",
"z. c #C1C2C1",
"x. c #C8C8C7",
"c. c #CCCCCC",
"v. c #D2D2D2",
"b. c #DCDCDC",
"n. c #E2E2E2",
"m. c #EDEDED",
"M. c #F4F4F4",
"N. c #FDFDFD",
"B. c None",
/* pixels */
"B.B.B.B.B.B.B.B.B.B.B.B.B.B.B.B.B.B.B.B.B.B.B.B.B.B.B.B.B.B.B.B.B.B.B.B.B.B.B.B.",
"B.B.B.B.B.B.B.B.B.B.( P q q q P q q P q z q q q q z z z q q q T B.B.B.B.B.B.B.B.",
"B.B.B.B.B.B.B.B.B.B.W X   X X     X X   X   X X   X X     X X T B.B.B.B.B.B.B.B.",
"B.B.B.B.B.B.B.B.B.7 ^ ) ( ( ( ( ( ( ( ( ( ( ( ( ( ( ( ( ( ( ( ( z B.B.B.B.B.B.B.",
"B.B.B.B.B.B.#     X ) m.N.N.N.N.N.N.N.N.N.N.N.N.N.N.N.N.N.N.M.f.X       ~ B.B.B.",
"B.B.B.B.B.W P q 0 P f.M.N.N.N.N.N.N.N.N.N.N.N.N.N.N.N.N.N.N.N.h.P 0 q q ^ B.B.B.",
"B.B.B.q X W l.c.c.v.n.N.N.N.N.N.N.N.N.N.N.N.N.N.N.N.N.N.N.N.N.m.v.v.v.x.~ # q B.",
"B.B.B.0   T n.N.N.N.N.N.N.N.N.N.N.N.N.N.N.N.N.N.N.N.N.N.N.N.N.N.N.N.N.M.! X q B.",
"B.B.B.0   T n.N.N.N.N.N.N.N.N.N.N.N.N.N.N.N.N.N.N.N.N.N.N.N.N.N.N.N.N.M.! X 0 B.",
"B.B.B.q   T n.N.N.N.N.N.N.N.N.N.N.N.N.N.N.N.N.N.N.N.N.N.N.N.N.N.N.N.N.M.! # q B.",
"B.B.q ! W f.m.N.N.N.N.N.N.N.N.N.N.N.N.N.N.N.N.N.N.N.N.N.N.N.N.N.N.N.N.M.g.! ! q ",
"B.5 % f.n.m.N.N.N.N.N.N.N.N.N.N.N.N.N.N.N.N.N.N.N.N.N.N.N.N.N.N.N.N.N.N.m.n.f.% ",
"B.5 # f.N.N.N.N.N.N.N.N.N.N.N.N.N.N.N.N.N.N.N.N.m.v.v.c.v.c.v.n.N.N.N.N.N.N.g.# ",
"B.5 # g.N.N.N.N.N.N.N.N.N.N.N.N.N.N.N.N.N.N.N.M.g.0 7 5 5 5 7 ) m.N.N.N.N.N.g.# ",
"B.5 # f.N.N.N.N.N.N.N.N.N.N.N.N.N.N.N.N.N.N.N.N.s.#           ^ m.N.N.N.N.N.f.# ",
"B.5 # f.N.N.N.N.N.N.N.N.N.N.N.N.N.N.N.N.N.N.N.M.f.X           ^ m.N.N.N.N.M.g.# ",
"B.5 # f.M.N.N.N.N.N.N.N.N.N.N.N.N.N.N.N.N.N.N.N.s.X           ^ m.N.N.N.M.M.f.# ",
"B.5 X T d.k.m.N.N.N.N.N.N.N.N.N.N.N.N.N.N.N.N.N.s.#           ~ M.N.N.M.l.f.T X ",
"B.5   X # W n.N.N.N.N.N.N.N.M.N.N.N.N.N.N.N.N.M.f.#           ^ m.N.N.M.^ % X   ",
"B.P 5 #   q j.x.m.N.N.N.m.x.z.z.z.b.N.N.N.N.N.N.h.P q q q 0 q s.M.m.x.l.U   # 5 ",
"B.B.^ 0   # 0 E v.N.N.N.z.U q q z g.N.N.N.N.N.N.n.z.z.z.z.z.l.b.M.x.W q #   0 ( ",
"B.B.B.0     X 0 l.m.m.m.j.% X X # s.N.M.M.M.N.N.N.N.M.N.N.M.N.N.N.l.q X X X P B.",
"B.B.B.0   8 a.s.^ ! Q ! ( f.f.g.g.c.M.v.) ~ v.N.N.N.N.N.N.N.N.N.N.n.j.g.g.f.a.P ",
"B.B.B.0   U b.c.P X X X U n.M.M.M.M.M.k.7 # l.M.M.N.M.M.N.M.N.M.M.M.m.m.m.m.f.% ",
"B.B.B.0   T b.n.a.E 0   U m.N.N.N.c.g.( # X ( g.g.g.g.g.g.g.h.g.g.h.g.g.g.g.Q X ",
"B.B.B.0   T n.M.m.v.( X I m.N.N.M.a.% #     # # % % % % # % % # % # % % % $ X   ",
"B.B.B.P % E x.b.b.v.( X I n.N.N.M.s.% & & %     X % %     # & #     % % X       ",
"B.B.B.B.B.^ P q q 0 % X I m.N.N.N.b.z.z.z.k.0   T k.g.% # a.k.^ X 7 g.l.U       ",
"B.B.B.B.B.~ #   X X     P v.n.M.N.N.N.N.N.M.T % ^ v.k.5 % f.b.) X q l.v.E X   # ",
"B.B.B.B.B.! #   7 8 %   & W ) v.N.N.N.N.N.M.j.d.a.^ T X X P ~ q   % T ! 5   5 P ",
"B.B.B.B.B.! # # P E 8       7 j.M.N.N.N.N.N.N.M.s.%         X         X     q B.",
"B.B.B.B.! E 7 7 U W P 5 #   # ^ h.v.M.N.N.N.N.N.k.! E W E W E E E E E T 5   q B.",
"B.B.B.P # 7 U E W W W T q     # 5 s.N.N.N.N.N.N.M.n.b.n.n.n.n.b.n.n.n.b.T X 0 B.",
"B.B.) z # 7 E W ! ! W W U # # X $ ^ x.x.x.x.x.x.x.c.x.x.x.c.x.x.x.c.x.x.U X q B.",
"B.P 7 q U U W Q W ! Q Q E U U U U q 0 0 0 0 0 0 0 0 0 0 0 0 0 0 0 0 0 0 #   0 B.",
"B.5 X 0 E W E W E E W E W E W W E 0                   X X                 X q B.",
"B.&   % 7 7 7 7 8 7 7 9 9 9 0 U W P 0 7 8 7 X       # ~ ( 7       % q q q q B.B.",
"B.5           X X o o o .   # z W W E E W T %       8 x.v.U       7 a.B.B.B.B.B.",
"B.q 5 #       o 2 f h a 3 . . 7 z z z I E W 8 & & & q d.f.0   X % q ~ ( B.B.B.B.",
"B.B.B.0       ; [ 4.4.5.J =         X & T W E E E E I % #     5 T P % # ( B.B.B.",
"B.B.B.0   O , g =.u.y.e.+.- . = ; @   $ P U W Q E U I 8 7 7 7 0 U q X   ~ B.B.B.",
"B.B.B.0 . 2 H *.q.p.p.y.o.- = l K p . X $ % U W z & q g.j.k.k.( & #     ^ B.B.B.",
"B.B.B.G = j 2.e.y.p.p.y.O.w 1 J &.n = @ @ @ Y T 0   7 c.m.M.N.d.X       ~ B.B.B.",
"B.Q Y L H *.w.i.p.p.p.i.<.X.D m n m D Z J B d 6 #   # E ( c.M.d.X       ^ B.B.B.",
"B.6 O J 7.e.i.p.p.p.p.p.u.r.%.h > A 5.t.t.8.r .         & j.M.d.X       ^ B.B.B.",
"B.5 @ H e.i.p.p.p.p.p.i.<.o.] v k N } *.9.4.y . 5 U T T ! z.M.d.X # & % B.B.B.B.",
"B.5 @ H t.i.i.p.p.p.i.e.*.u u } -.A 1 c 1.4.y . W v.n.n.n.M.M.d.X 7 ! B.B.B.B.B.",
"B.5 O M >.9.i.p.p.y.q.1.} t i #.<.V * f :.4.s . ! v.n.n.n.n.n.a.X 7 B.B.B.B.B.B.",
"B.5   = e C 0.i.p.w...i c @.;.q.r.V + y ;.4.y . # 8 0 0 0 0 8 %   8 B.B.B.B.B.B.",
"B.5   . o j ,.i.i.w.` w c 1.u.i.q.V * e :.4.y .   X X X X         8 B.B.B.B.B.B.",
"B.B.% $ . f 2.y.i.y.*._ X.e.p.i.9.V + y ;.4.s . 0 ^ ( ( ~ 7       7 B.B.B.B.B.B.",
"B.B.B.0 . a :.e.u.e.9.6.r.e.e.u.r.A * i :.6.y . ~ n.m.m.v.U       7 B.B.B.B.B.B.",
"B.B.B.B.: x K @.@.@.@. .@.@.@.@. .A h C <.6.y . T j.l.l.h.q       7 B.B.B.B.B.B.",
"B.B.B.B.B./ 4 - > > > > > > > > w A >.r.e.4.e . X $ % # %         7 B.B.B.B.B.B.",
"B.B.B.B.B.~ $ o = 1 1 1 1 1 1 1 t ` q.e.1.@.3                     5 W B.B.B.B.B.",
"B.B.B.B.B.! $ = M | @.+.| | @.@.#.,.e.;.b r O                     X % X X X z B.",
"B.B.B.B.B.Q # ; { 5.4.6.6.4.7.4.6.6.6.} , .                         X       q B.",
"B.B.B.B.B.! # + p n m m m m m m m m m p O                     q a.a.a.a.0   0 B.",
"B.B.B.B.B.! #   o @ @ * @ @ @ + + + O .                       ~ n.M.M.m.!   q B.",
"B.B.B.B.B.! # X P T T T q                           X P U T T g.M.N.N.M.! X q B.",
"B.B.B.B.B.! # 5 j.b.b.b.g.#                         7 l.b.b.b.m.N.N.N.M.! X q B.",
"B.B.B.B.B.~ # 7 z.N.N.N.j.$         X X X X       X q v.N.N.N.M.m.m.m.n.! # z B.",
"B.B.B.B.B.! X 7 z.N.N.M.k.#       q ) a.) ( %   U h.z.M.N.N.M.k.T U P U ) a.B.B.",
"B.B.B.B.B.^ % 8 z.m.M.M.j.% X   X 0 B.B.B.B.X   ~ m.M.N.N.M.M.d.# X X # ( B.B.B.",
"B.B.B.B.B.B.W ! ) a.a.a.) ) ) ( ) ! 8 B.B.B.    ^ m.N.N.m.j.a.) W U U T B.B.B.B.",
"B.B.B.B.B.B.B.B.8 X X X U b.m.M.m.( X X B.B.X   ^ m.N.N.n.E # T B.B.B.B.B.B.B.B.",
"B.B.B.B.B.B.B.B.P 5 #   0 j.l.l.k.E   X B.B.7 7 ^ k.z.z.k.! 7 E B.B.B.B.B.B.B.B.",
"B.B.B.B.B.B.B.B.B.a.T X X 7 7 7 7 #   X B.B.B.B.U 8 7 7 0 ( B.B.B.B.B.B.B.B.B.B.",
"B.B.B.B.B.B.B.B.B.B.^ 5 # % $ % # # # 5 B.B.B.B.B.% # % 5 ( B.B.B.B.B.B.B.B.B.B.",
"B.B.B.B.B.B.B.B.B.B.B.( ^ ^ ^ ^ ( ^ ^ B.B.B.B.B.B.B.^ ^ B.B.B.B.B.B.B.B.B.B.B.B."
};
