/* XPM */
static char *result[] = {
/* columns rows colors chars-per-pixel */
"70 70 217 2 ",
"   c #020000",
".  c #17181A",
"X  c #1C0A00",
"o  c #381705",
"O  c #29120A",
"+  c #191D23",
"@  c #282A3B",
"#  c #373737",
"$  c #252A34",
"%  c #5A3016",
"&  c #61463C",
"*  c #3B2A4E",
"=  c #362A48",
"-  c #3B3C4B",
";  c #383447",
":  c #383759",
">  c #342850",
",  c #3C3C65",
"<  c #422C4F",
"1  c #41324C",
"2  c #432A5A",
"3  c #422D53",
"4  c #4B3652",
"5  c #493857",
"6  c #503A59",
"7  c #523961",
"8  c #4A3462",
"9  c #3B404F",
"0  c #3B4254",
"q  c #464A5A",
"w  c #544A5F",
"e  c #495157",
"r  c #575758",
"t  c #4A4644",
"y  c #6C5B53",
"u  c #494965",
"i  c #594863",
"p  c #4F5568",
"a  c #575767",
"s  c #574270",
"d  c #575578",
"f  c #694B6C",
"g  c #785A7A",
"h  c #664D76",
"j  c #5C626E",
"k  c #5C6774",
"l  c #63636E",
"z  c #656566",
"x  c #666577",
"c  c #6C737B",
"v  c #747574",
"b  c #7C7B7C",
"n  c #7B7674",
"m  c #904817",
"M  c #B26533",
"N  c #825C7E",
"B  c #807F7E",
"V  c #AB724C",
"C  c #C78457",
"Z  c #E9A172",
"A  c #6F3A90",
"S  c #724B8D",
"D  c #646984",
"F  c #6B7484",
"G  c #737587",
"H  c #6A6B90",
"J  c #787591",
"K  c #8D5A87",
"L  c #8C5591",
"P  c #9B648E",
"I  c #92648C",
"U  c #9B6291",
"Y  c #966190",
"T  c #8E618B",
"R  c #A76A9C",
"E  c #B1719F",
"W  c #AA709C",
"Q  c #8644A9",
"!  c #9245B8",
"~  c #9349B6",
"^  c #9F59AB",
"/  c #A55CAC",
"(  c #AE6EA2",
")  c #B26FA5",
"_  c #B271A1",
"`  c #BA71B1",
"'  c #C77AB8",
"]  c #8639D4",
"[  c #893BD6",
"{  c #8E3DD9",
"}  c #8137D2",
"|  c #903FDA",
" . c #9541DC",
".. c #9943DF",
"X. c #9444C5",
"o. c #AC52CF",
"O. c #9D45E1",
"+. c #A147E3",
"@. c #A649E5",
"#. c #A94BE7",
"$. c #AD4CE9",
"%. c #A749EA",
"&. c #B24FEC",
"*. c #B550EE",
"=. c #BA53EE",
"-. c #B251E3",
";. c #BD54F2",
":. c #C76ECE",
">. c #C256F4",
",. c #C659F6",
"<. c #CB5CF7",
"1. c #C657F9",
"2. c #C758F9",
"3. c #CA5AF9",
"4. c #D05DFF",
"5. c #C359ED",
"6. c #CC65E8",
"7. c #D76DEF",
"8. c #D86EEE",
"9. c #DC73EC",
"0. c #D973E7",
"q. c #CE61F5",
"w. c #D165F4",
"e. c #D56AF1",
"r. c #D869F9",
"t. c #DD71F2",
"y. c #E47EE7",
"u. c #E27AEB",
"i. c #E177EE",
"p. c #E176F2",
"a. c #E479F1",
"s. c #7B8899",
"d. c #75818D",
"f. c #878789",
"g. c #8A8A94",
"h. c #878B98",
"j. c #949595",
"k. c #8D8F96",
"l. c #838CA2",
"z. c #8A97AA",
"x. c #949CA6",
"c. c #8D9BB2",
"v. c #988EA7",
"b. c #98A3AD",
"n. c #9AAAB4",
"m. c #96A5B6",
"M. c #A9A9A9",
"N. c #A1B2BD",
"B. c #B6B9BB",
"V. c #AAACB7",
"C. c #B38FAD",
"Z. c #C09F92",
"A. c #D284BB",
"S. c #CA8EB5",
"D. c #CDB5A6",
"F. c #D6C5BF",
"G. c #EBCABD",
"H. c #9CA8C3",
"J. c #A2AFCA",
"K. c #A3B4C3",
"L. c #ABB9CB",
"P. c #B4BBC5",
"I. c #ACBDD2",
"U. c #B3BDD3",
"Y. c #D886C4",
"T. c #DF86D0",
"R. c #E18CC8",
"E. c #ED8DDC",
"W. c #E483DC",
"Q. c #F18FDF",
"!. c #EE95D3",
"~. c #F195D4",
"^. c #F393DD",
"/. c #F798DA",
"(. c #FC9CDB",
"). c #F49AD7",
"_. c #E890CC",
"`. c #FDA3DE",
"'. c #F6A6DD",
"]. c #E681E6",
"[. c #EA85E3",
"{. c #ED8BE1",
"}. c #EC84EB",
"|. c #F38EE5",
" X c #F28AEB",
".X c #FE9CE0",
"XX c #FA96E3",
"oX c #FCABE1",
"OX c #B8C5D9",
"+X c #BACBE3",
"@X c #B7C6E2",
"#X c #C2C2C3",
"$X c #C7CBD4",
"%X c #D3D3D3",
"&X c #D9DADB",
"*X c #D6D1D0",
"=X c #F7DDCC",
"-X c #C6D6EA",
";X c #C4D5F3",
":X c #CBDBFC",
">X c #CAD9F3",
",X c #CFD7E9",
"<X c #FBD0EA",
"1X c #D6E3FC",
"2X c #DBE6FB",
"3X c #D7E1F1",
"4X c #E7E7E7",
"5X c #F8F2EF",
"6X c #E2ECFD",
"7X c #E6EBF4",
"8X c #ECF4FD",
"9X c #F4F4F4",
"0X c #F5FAFF",
"qX c #FEFEFE",
"wX c #F1F7FF",
"eX c #FFE3F4",
"rX c None",
/* pixels */
"rXrXrXrXrXrXrXrXrXrXrXrXrXrXrXrXrXrXrXrXrXrXrXrXrXrXrXrXrXrXrXrXrXrXrXrXrXrXrXrXrXrXrXrXrXrXrXrXrXrXrXrXrXrXrXrXrXrXrXrXrXrXrXrXrXrXrXrXrXrX",
"rXrXrXrXrXrXrXrXrXrXrXrXrXrXrXrXrXrXrXrXrXrXrXrXrXrXrXrXrXrXrXrXrXrXrXrXrXrXrXrXrXrXrXrXrXrXrXrXrXrXrXrXrXrXrXrXrXrXrXrXrXrXrXrXrXrXrXrXrXrX",
"rXrXrXrXrXrXrXrXrXrXrXrXrXrXrXrXrXrXrXrXrXrXrXrXrXrXrXrXrXrXrXrXrXrXrXrXrXrXrXrXrXrXrXrXrXrXrXrXrXrXrXrXrXrXrXrXrXrXrXrXrXrXrXrXrXrXrXrXrXrX",
"rXrXrXrXrXrXrXrXrXrXrXrXrXrXrXrXrXrXrXrXrXrXrXrXrXrXrXrXrXrXrXrXrXrXrXrXrXrXrXrXrXrXrXrXrXrXrXrXrXrXrXrXrXrXrXrXrXrXrXrXrXrXrXrXrXrXrXrXrXrX",
"rXrXrXrXrXrXrXrXrXrXrXrXrXrXrXrXrXrXrXrXrXrXrXrXrXrXrXrXrXrXrXrXrXrXrXrXrXrXrXrXrXrXrXrXrXrXrXrXrXrXrXrXrXrXrXrXrXrXrXrXrXrXrXrXrXrXrXrXrXrX",
"rXrXrXrXrXrXrXrXrXrXrXrXrXrXrXrXrXrXrXrXrXrXrXrXrXrXrXrXrXrXrXrXrXrXrXrXrXrXrXrXrXrXrXrXrXrXrXrXrXrXrXrXrXrXrXrXrXrXrXrXrXrXrXrXrXrXrXrXrXrX",
"rXrXrXrXrXrXrXrXrXrXrXrXrXrXrXrXrXrXrXrXrXrXrXrXrXrXrXrXrXrXrXrXrXrXrXrXrXrXrXrXrXrXrXrXrXrXrXrXrXrXrXrXrXrXrXrXrXrXrXrXrXrXrXrXrXrXrXrXrXrX",
"rXrXrXrXrXrXrXrXrXrXrXrXrXrXrXrXrXrXrXrXrXrXrXrXrXrXrXrXrXrXrXrXrXrXrX[ [ ] ] ] ] ] [ ] rXrXrXrXrXrXrXrXrXrXrXrXrXrXrXrXrXrXrXrXrXrXrXrXrXrX",
"rXrXrXrXrXrXrXrXrXrXrXrXrXrXrXrXrXrXrXrXrXrXrXrXrXrXrXrXrXrXrXrXrXrX .....{ ] ] ] ] ] ] rXrXrXrXrXrXrXrXrXrXrXrXrXrXrXrXrXrXrXrXrXrXrXrXrXrX",
"rXrXrXrXrXrXrXrXrXrXrXrXrXrXrXrXrXrXrXrXrXrXrXrXrXrXrXrXrX] ] [ ] ] ..&.&.O.] ] ] ] ] ] ] ] rXrXrXrXrXrXrXrXrXrXrXrXrXrXrXrXrXrXrXrXrXrXrXrX",
"rXrXrXrXrXrXrXrXrXrXrXrXrXrXrXrXrXrXrXrXrXrXrXrXrXrXrXrX] ] [ ......#.;.>.$.O. ...O...| [ ] rXrXrXrXrXrXrXrXrXrXrXrXrXrXrXrXrXrXrXrXrXrXrXrX",
"rXrXrXrXrXrXrXrXrXrXrXrXrXrXrXrXrXrXrXrXrXrX] ] [ ] ] ] ] ] ..&.;.=.>.,.2.;.;.;.;.;.=.@.{ ] ] ] rXrXrXrXrXrXrXrXrXrXrXrXrXrXrXrXrXrXrXrXrXrX",
"rXrXrXrXrXrXrXrXrXrXrXrXrXrXrXrXrXrXrXrXrXrX] ] ] ] ] ] { ..$.,.3.3.3.3.2.3.3.3.3.3.3.*.O.{ ] ] rXrXrXrXrXrXrXrXrXrXrXrXrXrXrXrXrXrXrXrXrXrX",
"rXrXrXrXrXrXrXrXrXrXrXrXrXrXrXrXrXrXrXrX] } ] ] ] ] ] [ ..&.>.2.3.3.3.2.3.2.3.3.3.3.3.>.;.@. .] ] ] [ ] rXrXrXrXrXrXrXrXrXrXrXrXrXrXrXrXrXrX",
"rXrXrXrXrXrXrXrXrXrXrXrXrXrXrXrXrXrXrXrX{ | | | | | {  .$.1.3.,.3.q.q.w.q.q.q.w.q.<.<.3.2.*.O.[ [ ] ] ] ] rXrXrXrXrXrXrXrXrXrXrXrXrXrXrXrXrX",
"rXrXrXrXrXrXrXrXrXrXrXrXrXrXrXrX] ] ] ..#.$.$.&.$.$.$.&.>.3.3.3.w.u.].y.y.y.y.].u.7.<.3.3.2.*.@. .] ] ] [ ] rXrXrXrXrXrXrXrXrXrXrXrXrXrXrXrX",
"rXrXrXrXrXrXrXrXrXrXrXrXrXrXrX] ] ] { @.>.,.2.,.3.3.3.3.2.3.3.<.8.|././././././.^.y.w.3.3.3.3.=.O.{ ] ] ] [ ] rXrXrXrXrXrXrXrXrXrXrXrXrXrXrX",
"rXrXrXrXrXrXrXrXrXrXrXrXrXrXrX] [  .@.*.1.3.3.3.3.3.3.2.2.4.r.a. X.X`..X.X.X`.`.(.|.u.7.q.3.3.1.*.+. .] ] ] ] rXrXrXrXrXrXrXrXrXrXrXrXrXrXrX",
"rXrXrXrXrXrXrXrXrXrXrXrXrXrXrX] { @.;.,.,.<.3.<.,.<.3.,.1.5.0.E.~.!.~.~.~.~.~.~.~./.^.y.w.3.3.,.2.;.O.[ ] ] [ rXrXrXrXrXrXrXrXrXrXrXrXrXrXrX",
"rXrXrXrXrXrXrXrXrXrXrXrXrXrXrX} [ #.2.r.9.i.9.9.9.i.a.0.o.Q L U P P U U U Y U Y R A.^. Xr.2.3.3.<.,.+.[ ] ] ] rXrXrXrXrXrXrXrXrXrXrXrXrXrXrX",
"rXrXrXrXrXrXrXrXrXrXrXrXrX] ] ] { @.,.9.{.^.^.Q.^.^.XXT.T 2 = 1 1 1 * 1 * 1 1 ; 1 P R.}.e.3.3.<.<.,.+.{ ] ] ] rXrXrXrXrXrXrXrXrXrXrXrXrXrXrX",
"rXrXrXrXrXrXrXrXrXrXrXrXrX] [ | +.&.,.i.Q.(.(.(.(.~.A.E g e u p a l l x k a p q q g R ( ~ X.=.4.3.;.+.] ] ] ] rXrXrXrXrXrXrXrXrXrXrXrXrXrXrX",
"rXrXrXrXrXrXrXrXrXrXrXrXrX] { +.=.>.<.9.^.(./.(.(.R.K 6 k s.c.J.U.$X%X%X$XU.J.c.s.x 5 3 3 A -.3.4.,.+.] ] ] ] rXrXrXrXrXrXrXrXrXrXrXrXrXrXrX",
"rXrXrXrXrXrXrXrXrXrXrXrXrX]  .$.2.3.<.9.Q.(.(.~.Y.E f q F K.-X:X6XqXqXqXqX8X2X,XL.s.p - 9 s Q o.5.;.+.{ ] ] ] rXrXrXrXrXrXrXrXrXrXrXrXrXrXrX",
"rXrXrXrXrXrXrXrXrXrXrXrXrX] { $.2.3.<.9.^.(..XY.K f w x c.+X:X:X2XqXqXqXqXqXwX8X4XOXH.z.s.x s A o.;.%.] ] ] ] rXrXrXrXrXrXrXrXrXrXrXrXrXrXrX",
"rXrXrXrXrXrXrXrXrXrXrXrXrX} | $.2.3.<.9.^.~.R.( i - z k.L.;X:X:X2X0XqXqXqXqXqXqXqX8X1X-XL.s.0 2 ! ;.%.{ ] { ] rXrXrXrXrXrXrXrXrXrXrXrXrXrXrX",
"rXrXrXrXrXrXrXrXrXrXrXrXrX] | $.3.3.<.i.^.A.T f i l G b.OX>X:X:X2X0XqXqXqXqXqXqXqXqXwX6X+Xz.0 > ! 1.%.[ } ] ] ] rXrXrXrXrXrXrXrXrXrXrXrXrXrX",
"rXrXrXrXrXrXrXrXrXrXrXrXrX] | #.>.1.<.p.E._ 6 ; l f.b.N.@X:X:X:X2X0XqXqXqXqXqXqXqXqXqXwX1XH.p 8 Q $.O.{ { ] ] ] [ rXrXrXrXrXrXrXrXrXrXrXrXrX",
"rXrXrXrXrXrXrXrXrXrXrXrXrX] { ..@.;.2.r.9.^ < ; c b.I.+X;X:X:X:X1X6X0XqXqXqXqXqXqXqXqX0X1X@Xs.D S A X.%.O.] } ] ] ] } ] rXrXrXrXrXrXrXrXrXrX",
"rXrXrXrXrXrXrXrXrXrXrXrXrX] ] ] | #.2.4.<.~ 2 - d.N.OX>X>X:X:X:X>X;X3X7X9X9X9X9X0XqXqX6X>X@Xn.d.q * Q ;.&.| ] { ] { ] ] ] rXrXrXrXrXrXrXrXrX",
"rXrXrXrXrXrXrXrXrXrXrXrXrXrX] } [ @.>.4.2.! 2 ; c b.U.OX@X@X;X:XI.s.G f.f.f.j.B.%X7X7XOXl.F j q $ = Q ,.;.%.+.+.@.+.O.{ ] rXrXrXrXrXrXrXrXrX",
"rXrXrXrX] ] ] ] [ ] [ rXrXrXrX] { @.>.4.,.! 2 ; l k.b.N.N.K.OX;Xc.- . . + . # c N.-X;Xz.# . . . + * Q >.3.>.>.>.>.,.&.O.] rXrXrXrXrXrXrXrXrX",
"rXrXrXrX] [  ...+.O...[ rXrXrX] [ @.,.4.2.! * @ u F h.x.b.n.OXOXc.q .     O % n K.;X;Xs.+   o o O > ! ;.4.3.3.3.4.3.=.$... .rXrXrXrXrXrXrXrX",
"rXrX] ] ] [ O.*.;.;.&. .] ] ] [ [ #.1.4.2.! 2 @ , d G g.x.n.N.K.n.l.j + X % M Z.-X:X:Xs.+ O m m % > A >.3.3.3.3.3.3.2.,.=...] rXrXrXrXrXrXrX",
"rXrX[ ] ] [ @.1.4.<.=.@.....| | ..*.2.3.3.o.S 5 : 8 d G s.b.b.n.K.OXs.p & V Z G.3X@Xm.F e y C C t * ~ 7.r.2.3.,.3.3.3.4.>.+.] rXrXrXrXrXrXrX",
"rXrX] [ ] [ @.>.3.<.1.;.=.&.=.=.=.>.,.3.,.6.' U 5 > : d F g.x.n.OXOX@XK.V.F.=X5X4Xx.e z M.*X=XD.y 1 L W.p.<.2.2.<.3.3.3.;.+.] rXrXrXrXrXrXrX",
"rXrX] ] ] ] #.,.3.3.<.3.3.3.3.3.,.3.3.3.3.t.|.A.g 1 : , d H h.b.OX;X:X2X2X0XqXqX9Xj.t n 4XqXqX$Xx 1 P !.}.e.<.<.3.3.3.<.>.#.| | rXrXrXrXrXrX",
"] ] [ ] ] ] @.>.3.3.3.3.<.<.3.<.<.3.3.3.2.9.|.!.S.Y 7 > : D J c.L.;X1X0XqXqXqXqXqX%XV.#X0XqX0XU.a * P ~.XX[.9.q.3.3.3.3.2.=.&.O.{ rXrXrXrXrX",
"] ] ] ] { | #.1.3.3.3.<.<.2.2.<.2.1.3.3.2.8.|.(.(.A.S t : 8 H m.OX;X3X3X4X9XqX7X4X4X9X9X4X&X-XH.d 7 R !.XX|.y.q.3.3.3.,.,.<.>.@.] ] rXrXrXrX",
"rX] ] | ..$.>.,.3.,.3.3.3.2.<.3.,.3.3.3.<.8.Q.(.(.'.S.g.a : H J.3X2X$Xf.f.%X5XM.n B.qX%Xf.l x H S ~ o.9.u.i.7.<.2.3.3.3.3.3.,.@.{ ] ] rXrXrX",
"rXrX] { @.>.2.,.2.<.2.2.<.3.<.2.<.3.,.3.3.8.{././.`.<X*XB 1 D @X6X0X#Xe # M.%Xv # B %XM.9 . $ 5 ~ ,.<.<.<.,.<.3.,.3.,.3.3.<.1.@.{ ] ] ] rXrX",
"rXrX] { ..$.=.2.3.<.<.3.3.2.3.2.,.3.2.3.3.<.i.y.Q.oXeX4Xf.# D @X8XqX&Xj.v v B v v v B B v r $ * / p.r.3.3.3.3.3.,.3.2.3.<.4.,.@.] ] ] ] rXrX",
"rXrX] ] ]  .#.2.3.2.3.3.3.2.<.<.3.3.3.2.<.<.<.7.E.`.eX4Xf.- D @X2X0XqX5XF.r # f.%Xf.# z F.M.w 4 ( {.p.,.3.3.3.,.3.<.3.3.3.3.>.@.{ ] ] ] rXrX",
"rXrXrX] } [ +.,.4.3.3.3.3.<.2.3.3.3.2.w.7.e.<.w.y.(.<X<XC.g H l.K.&X7X0X3Xk.n #X9XB.j c b.v.S S ' ^.i.3.2.3.3.3.3.3.3.<.1.=.#...[ ] [ rXrXrX",
"rXrXrXrX} [ #.2.3.<.3.<.<.2.2.2.3.3.<.9.E.y.w.w.[./.`.'.!.A.T i k b.OX>X2X&X&X5X0X3XI.s.d s ~ 6.W.|.u.<.3.3.3.,.3.3.3.3.>.#.| { ] [ rXrXrXrX",
"rXrXrXrXrX[ ..*.=.,.3.3.3.<.2.3.3.w.8.y.Q.Q.u.8.y.{.^./.`.(._ f a c s.c.H.P.#XOXP.P.H.h.f A -.r.u.[.7.<.3.3.3.3.3.3.4.<.>...[ } ] rXrXrXrXrX",
"rXrXrXrXrXrX . .#.,.<.<.2.<.3.3.<.8.{.Q././.Q.].9.8.[./.(.(._.' I i : 0 u p a r r u p g _ :.6.<.w.w.q.,.3.,.3.,.,.3.3.<.;.+.[ } rXrXrXrXrXrX",
"rXrXrXrXrXrXrX] ..&.1.2.2.3.<.<.<.9.E.^././.^.y.e.q.9.E.|.E.|.{.` f 1 4 4 4 4 4 5 1 4 K T.}.7.3.3.3.3.3.3.<.3.,.2.>.;.;.&...] rXrXrXrXrXrXrX",
"rXrXrXrXrXrXrX] { ..#.;.3.2.3.3.,.w.8.[.^.|.u.7.<.<.w.8.8.8.t.t.:.` E E ( E E ( E E E :.0.r.q.2.3.2.3.,.3.,.3.<.;.#.O.O. .{ [ rXrXrXrXrXrXrX",
"rXrXrXrXrXrXrX] ] ] ..=.<.<.3.3.3.2.<.9.E.].w.2.2.,.3.,.3.3.2.3.t.[.^.^.Q.^.Q.^.E./.~.].q.2.3.2.3.3.3.3.3.3.,.>.$.| ] ] ] ] ] rXrXrXrXrXrXrX",
"rXrXrXrXrXrXrXrX} ] O.;.3.<.3.3.3.3.3.w.8.t.<.3.3.3.3.3.,.3.3.3.w.t.a.a.i.p.p.p.i.|..X[.w.1.3.3.,.<.3.3.<.3.;.@...{ ] } rXrXrXrXrXrXrXrXrXrX",
"rXrXrXrXrXrXrXrXrX]  .*.2.3.3.3.3.3.,.<.,.<.3.,.3.,.3.3.2.1.>.1.3.3.<.<.<.<.3.2.<.i.E.].w.1.3.3.<.2.2.2.2.>.$. .] ] ] rXrXrXrXrXrXrXrXrXrXrX",
"rXrXrXrXrXrXrXrXrX] | O.*.;.<.3.3.3.,.3.3.3.<.,.3.3.<.3.;.#.@.#.&.1.2.3.3.3.3.2.,.e.i.8.q.3.<.<.<.2.*.#.#.@...] ] ] ] rXrXrXrXrXrXrXrXrXrXrX",
"rXrXrXrXrXrXrXrXrX[ ] [  .*.3.<.3.3.3.3.3.3.,.2.,.,.,.>.#.| ] { +.;.3.3.3.3.3.3.<.<.<.<.,.2.3.2.<.;.@.{ [ { { ] ] ] [ rXrXrXrXrXrXrXrXrXrXrX",
"rXrXrXrXrXrXrXrXrX] ] ] { O.&.>.3.3.3.3.3.>.*.$.$.$.$.#...] ] ] O.;.3.3.<.3.3.3.<.3.,.>.*.$.$.$.$.@. .] ] ] ] ] ] [ rXrXrXrXrXrXrXrXrXrXrXrX",
"rXrXrXrXrXrXrXrXrX[ ] ] [ ] O.&.3.3.3.3.3.=.O.{ | | | | ] ] ] ] +.>.3.3.3.3.3.3.3.3.,.*...{ { {  .{ { ] ] ] ] ] ] rXrXrXrXrXrXrXrXrXrXrXrXrX",
"rXrXrXrXrXrXrXrXrX] ] [ ] ] [ +.&.*.&.*.&.@.| ] } ] ] ] ] ] ] ]  .#.&.&.=.&.&.*.*.*.&.+.{ } ] ] ] ] ] ] ] ] [ ] rXrXrXrXrXrXrXrXrXrXrXrXrXrX",
"rXrXrXrXrXrXrXrXrXrXrXrXrX] ] { |  . . . .{ ] ] rXrXrXrXrXrX] ] { |  . . . . . . . . .{ [ ] rXrX] ] ] [ [ rXrXrXrXrXrXrXrXrXrXrXrXrXrXrXrXrX",
"rXrXrXrXrXrXrXrXrXrXrXrXrX] ] ] ] ] ] ] ] ] ] ] rXrXrXrXrXrXrX{ ] ] ] ] ] ] ] ] ] ] ] ] ] ] rXrXrX] ] ] rXrXrXrXrXrXrXrXrXrXrXrXrXrXrXrXrXrX",
"rXrXrXrXrXrXrXrXrXrXrXrXrXrXrXrXrXrXrXrXrXrXrXrXrXrXrXrXrXrXrXrX] ] ] ] ] ] ] ] ] ] ] ] rXrXrXrXrXrXrXrXrXrXrXrXrXrXrXrXrXrXrXrXrXrXrXrXrXrX",
"rXrXrXrXrXrXrXrXrXrXrXrXrXrXrXrXrXrXrXrXrXrXrXrXrXrXrXrXrXrXrXrXrX] ] ] ] ] ] ] ] [ ] ] rXrXrXrXrXrXrXrXrXrXrXrXrXrXrXrXrXrXrXrXrXrXrXrXrXrX",
"rXrXrXrXrXrXrXrXrXrXrXrXrXrXrXrXrXrXrXrXrXrXrXrXrXrXrXrXrXrXrXrXrXrXrXrXrX] { ] ] [ rXrXrXrXrXrXrXrXrXrXrXrXrXrXrXrXrXrXrXrXrXrXrXrXrXrXrXrX",
"rXrXrXrXrXrXrXrXrXrXrXrXrXrXrXrXrXrXrXrXrXrXrXrXrXrXrXrXrXrXrXrXrXrXrXrXrX] ] ] ] rXrXrXrXrXrXrXrXrXrXrXrXrXrXrXrXrXrXrXrXrXrXrXrXrXrXrXrXrX",
"rXrXrXrXrXrXrXrXrXrXrXrXrXrXrXrXrXrXrXrXrXrXrXrXrXrXrXrXrXrXrXrXrXrXrXrXrXrXrX] rXrXrXrXrXrXrXrXrXrXrXrXrXrXrXrXrXrXrXrXrXrXrXrXrXrXrXrXrXrX",
"rXrXrXrXrXrXrXrXrXrXrXrXrXrXrXrXrXrXrXrXrXrXrXrXrXrXrXrXrXrXrXrXrXrXrXrXrXrXrXrXrXrXrXrXrXrXrXrXrXrXrXrXrXrXrXrXrXrXrXrXrXrXrXrXrXrXrXrXrXrX",
"rXrXrXrXrXrXrXrXrXrXrXrXrXrXrXrXrXrXrXrXrXrXrXrXrXrXrXrXrXrXrXrXrXrXrXrXrXrXrXrXrXrXrXrXrXrXrXrXrXrXrXrXrXrXrXrXrXrXrXrXrXrXrXrXrXrXrXrXrXrX",
"rXrXrXrXrXrXrXrXrXrXrXrXrXrXrXrXrXrXrXrXrXrXrXrXrXrXrXrXrXrXrXrXrXrXrXrXrXrXrXrXrXrXrXrXrXrXrXrXrXrXrXrXrXrXrXrXrXrXrXrXrXrXrXrXrXrXrXrXrXrX",
"rXrXrXrXrXrXrXrXrXrXrXrXrXrXrXrXrXrXrXrXrXrXrXrXrXrXrXrXrXrXrXrXrXrXrXrXrXrXrXrXrXrXrXrXrXrXrXrXrXrXrXrXrXrXrXrXrXrXrXrXrXrXrXrXrXrXrXrXrXrX",
"rXrXrXrXrXrXrXrXrXrXrXrXrXrXrXrXrXrXrXrXrXrXrXrXrXrXrXrXrXrXrXrXrXrXrXrXrXrXrXrXrXrXrXrXrXrXrXrXrXrXrXrXrXrXrXrXrXrXrXrXrXrXrXrXrXrXrXrXrXrX",
"rXrXrXrXrXrXrXrXrXrXrXrXrXrXrXrXrXrXrXrXrXrXrXrXrXrXrXrXrXrXrXrXrXrXrXrXrXrXrXrXrXrXrXrXrXrXrXrXrXrXrXrXrXrXrXrXrXrXrXrXrXrXrXrXrXrXrXrXrXrX"
};
