/* XPM */
static char *_1985_46c7c9c3b0e521bef1b8cb2a61bc6e4759fc2437b9ad4f7dd68bdb41de76a8d6[] = {
/* columns rows colors chars-per-pixel */
"51 70 232 2 ",
"   c #020202",
".  c #090301",
"X  c #040902",
"o  c #0A0A04",
"O  c #02030B",
"+  c #030B0A",
"@  c #0B0B0C",
"#  c #0A040C",
"$  c #110F0B",
"%  c #09110B",
"&  c #12150E",
"*  c #000213",
"=  c #020A12",
"-  c #0C0D12",
";  c #00041B",
":  c #000A1C",
">  c #0C0C1A",
",  c #080317",
"<  c #0C1213",
"1  c #0D121C",
"2  c #03111D",
"3  c #131314",
"4  c #12121B",
"5  c #1C1C1C",
"6  c #181815",
"7  c #10091B",
"8  c #211D1C",
"9  c #24211F",
"0  c #000424",
"q  c #010B23",
"w  c #00052B",
"e  c #000B2B",
"r  c #03122E",
"t  c #1C1D21",
"y  c #1A1829",
"u  c #000C34",
"i  c #000C3B",
"p  c #00043B",
"a  c #011335",
"s  c #01123A",
"d  c #00193A",
"f  c #041934",
"g  c #231F20",
"h  c #1A2225",
"j  c #112137",
"k  c #232323",
"l  c #2C2C2C",
"z  c #272A2A",
"x  c #36362E",
"c  c #282833",
"v  c #2C333A",
"b  c #343434",
"n  c #3C3C3C",
"m  c #322E2B",
"M  c #31403D",
"N  c #44443C",
"B  c #000E43",
"V  c #000D4E",
"C  c #001342",
"Z  c #041D42",
"A  c #021A4B",
"S  c #000E54",
"D  c #001A55",
"F  c #01244C",
"G  c #072346",
"H  c #162947",
"J  c #022253",
"K  c #0A2C56",
"L  c #06285A",
"P  c #132C55",
"I  c #17335C",
"U  c #15334D",
"Y  c #2A344B",
"T  c #31364A",
"R  c #263655",
"E  c #333953",
"W  c #242841",
"Q  c #001F69",
"!  c #022B64",
"~  c #012768",
"^  c #053167",
"/  c #153968",
"(  c #002D72",
")  c #052E75",
"_  c #003275",
"`  c #0B3D7B",
"'  c #073677",
"]  c #183A79",
"[  c #132A60",
"{  c #243E65",
"}  c #3B4348",
"|  c #384653",
" . c #1B4479",
".. c #3A557C",
"X. c #25446E",
"o. c #444444",
"O. c #4C4B4B",
"+. c #41414D",
"@. c #494A57",
"#. c #525252",
"$. c #555C5A",
"%. c #5C5C5B",
"&. c #575757",
"*. c #55564B",
"=. c #635D5D",
"-. c #635758",
";. c #5D605D",
":. c #5E6053",
">. c #62625C",
",. c #69625C",
"<. c #5B5C63",
"1. c #5C5D69",
"2. c #545962",
"3. c #625D62",
"4. c #625E6D",
"5. c #5C6262",
"6. c #586469",
"7. c #5E6174",
"8. c #646364",
"9. c #636269",
"0. c #6B6B6B",
"q. c #676665",
"w. c #737373",
"e. c #7C7C7C",
"r. c #74737A",
"t. c #707175",
"y. c #023A83",
"u. c #153D87",
"i. c #223D84",
"p. c #0E4988",
"a. c #134B8D",
"s. c #16488A",
"d. c #164B93",
"f. c #1A5396",
"g. c #014292",
"h. c #2D548B",
"j. c #285485",
"k. c #365787",
"l. c #2C5E9C",
"z. c #2A5A94",
"x. c #375E98",
"c. c #2F4E87",
"v. c #386598",
"b. c #2E629C",
"n. c #0B57A3",
"m. c #1959A5",
"M. c #1054AA",
"N. c #285CA5",
"B. c #1B62AD",
"V. c #0D61BA",
"C. c #1663B5",
"Z. c #1B66B5",
"A. c #1464BC",
"S. c #1B65BB",
"D. c #1669BE",
"F. c #1C6ABD",
"G. c #1F68B5",
"H. c #2463AC",
"J. c #2A62A7",
"K. c #3769A8",
"L. c #2264B3",
"P. c #2B6AB5",
"I. c #226BBB",
"U. c #2767B7",
"Y. c #3071B6",
"T. c #556687",
"R. c #737888",
"E. c #0A64CE",
"W. c #046BCD",
"Q. c #0B6BCA",
"!. c #0B67C5",
"~. c #146AC3",
"^. c #1C6CC5",
"/. c #1366C9",
"(. c #136CCC",
"). c #1C6BCA",
"_. c #1865C2",
"`. c #0F71CE",
"'. c #1773CE",
"]. c #036CD5",
"[. c #0B6DD4",
"{. c #026DDC",
"}. c #0A6DDC",
"|. c #0064D3",
" X c #146DD2",
".X c #1C6DD8",
"XX c #0A71D4",
"oX c #0271DC",
"OX c #0A72DB",
"+X c #0671D3",
"@X c #1473D7",
"#X c #236AC5",
"$X c #266ECD",
"%X c #026DE3",
"&X c #096DE3",
"*X c #036CE7",
"=X c #0272E3",
"-X c #0B73E3",
";X c #0173EA",
":X c #0676E6",
">X c #1675E5",
",X c #76848E",
"<X c #848484",
"1X c #8C8B84",
"2X c #8B8B8B",
"3X c #868F8A",
"4X c #8A8A95",
"5X c #959797",
"6X c #8D918F",
"7X c #A1989D",
"8X c #939BAB",
"9X c #A49BA2",
"0X c #ACACAC",
"qX c #A5A4A6",
"wX c #B4B4B4",
"eX c #B9BABA",
"rX c #B6BBBE",
"tX c #C3C7BA",
"yX c #BCC2C0",
"uX c #C3C3C4",
"iX c #CECECE",
"pX c #DBDBDC",
"aX c #D0D0D0",
"sX c #D1CFD0",
"dX c #EBEBEB",
"fX c #F5F2EF",
"gX c #F3F3F3",
"hX c #FBFBF5",
"jX c #FDF5FB",
"kX c #FEFDFE",
"lX c #F7F7F8",
"zX c None",
/* pixels */
"zXzXzXzXzXzXzXzXzXzXzXzXzXzXzXzXzXzXzXzXzXzXzXzXzXzXzXzXzXzXzXzXzXzXzXzXzXzXzXzXzXzXzXzXzXzXzXzXzXzXzX",
"zXzXzXzXzXzXzXzXzXzXzXzXzXzXzXzXT o @ $ @ 3 @ @ @ $ @ < @ 3 @ 3 @ @ 3 k zXzXzXzXzXzXzXzXzXzXzXzXzXzXzX",
"zXzXzXzXzXzXzXzXzXzXzXzXzXzXzXzXb 6 5 k 6 g t 5 5 6 5 5 6 5 5 5 6 5 6 l 0XzXzXzXzXzXzXzXzXzXzXzXzXzXzX",
"zXzXzXzXzXzXzXzXzXzXzXzX@ o @ k zXgXgXgXdXdXgXdXgXfXgXgXgXdXgXgXgXgXgXpXn   @   r.zXzXzXzXzXzXzXzXzXzX",
"zXzXzXzXzXzXzXzXzXzXzXzX@ @ 3 k pXkXlXkXkXkXkXkXkXkXkXkXkXkXkXkXkXkXkXdX#.o 6 @ 0.zXzXzXzXzXzXzXzXzXzX",
"zXzXzXzXzXzXzXzXzXw.l 0.zXzXzXzXlXkXkXkXkXkXkXkXkXkXkXkXkXkXkXkXlXkXkXgXiXeXwXuX2Xm w.zXzXzXzXzXzXzXzX",
"zXzXzXzXzXzXzXzXzXO.  #.zXzXzXzXkXlXkXkXlXkXkXkXkXkXkXkXkXkXkXkXkXlXkXkXgXkXkXkX2X  o.zXzXzXzXzXzXzXzX",
"zXzXzXzXzXzXzXzXzXn   &.zXzXzXkXkXkXlXkXkXlXkXkXkXkXkXkXkXkXkXkXkXkXkXlXkXlXkXkX6XO o.zXzXzXzXzXzXzXzX",
"zXzXzXzXzXzXzXzXzXn o O.zXzXzXkXkXkXkXkXkXkXkXkXkXkXkXkXkXkXkXkXkXkXkXkXlXkXkXkX2X  o.zXzXzXzXzXzXzXzX",
"zXzXzXzXzXzXzXzXzX0.#.zXzXzXzXkXkXkXkXkXkXkXkXkXkXkXkXkXkXkXkXkXkXkXkXlXkXkXkXkXeXO.w.qXzXzXzXzXzXzXzX",
"zXzXzXzXzXzXzX@   zXzXzXzXzXzXkXkXkXkXkXkXkXkXkXkXkXkXkXkXkXkXkXkXkXkXkXkXkXkXkXkXkXwXo   zXzXzXzXzXzX",
"zXzXzXzXzXzXzX5   zXzXzXzXzXkXkXkXkXkXkXkXkXkXkXkXkXkXkXkXkXkXkXkXkXkXkXkXkXkXkXkXkX0X@   zXzXzXzXzXzX",
"zXzXzXzXzXzXzX@   zXzXzXzXkXkXkXkXkXkXkXkXkXkXkXkXkXkXkXkXkXkXkXkXkXkXkXkXkXkXkXlXkX0Xo @ zXzXzXzXzXzX",
"zXzXzXzXzXzXzX3 o zXzXzXzXkXkXkXkXkXkXkXkXkXkXkXkXkXkXkXkXkXkXkXkXkXkXkXkXkXkXkXkXkXwX  O zXzXzXzXzXzX",
"zXzXzXzXzXzXzX3   zXzXzXkXkXkXlXkXkXkXkXkXkXkXkXkXkXkXkXkXkXkXkXkXkXkXkXkXkXkXkXkXlXeXo   zXzXzXzXzXzX",
"zXzXzXzXzXzXzX3   zXzXzXkXlXkXkXkXkXkXkXkXkXkXkXkXkXkXkXkXkXkXkXkXkXkXkXkXkXkXkXkXkX0X@ o zXzXzXzXzXzX",
"zXzXzXzXzXzXzX3   zXzXlXkXkXlXkXkXkXkXkXkXkXkXlXkXkXkXkXkXkXkXkXkXkXkXkXkXkXlXkXkXkXeXo O zXzXzXzXzXzX",
"zXzXzXzXzXzXzX3   zXzXkXkXkXkXkXkXkXkXlXlXkXkXkXkXkXkXkXkXkXkXkXkXlXkXlXkXkXkXlXkXgX0Xo   zXzXzXzXzXzX",
"zXzXzXzXzXzXzXzXe.e.w.qXkXlXkXkXkXlXlXkXkXkXkXlXkXkXkXkXkXkXkXkXlXkXkXkXkXkXlXkXuXr.e.<Xe.zXzXzXzXzXzX",
"zXzXzXzXzXzXzXzXzXo.  #.lXkXkXlXkXkXkXkXkXlXkXkXkXkXkXkXkXkXkXkXkXkXlXkXkXlXkXkX2X  O.dXzXzXzXzXzXzXzX",
"zXzXzXzXzXzXzXzXzXb   %.kXkXkXkXlXkXkXgXkXkXkXkXkXkXkXkXkXkXkXkXkXgXkXkXkXlXkXkX5X  b eXzXzXzXzXzXzXzX",
"zXzXzXzXzXzXzXo   o   O.lXlXkXkXkXgXkXkXkXkXkXkXkXkXkXkXkXkXkXkXkXkXlXlXkXkXgXkX1Xo     @ zXzXzXzXzXzX",
"zXzXzXzXzXzXzX6   @   %.kXkXkXlXkXkXlXlXdXgXgXlXgXgXgXgXlXgXgXgXdXkXlXkXkXlXkXkX6X  o     zXzXzXzXzXzX",
"zXzXzXzXzXzXzX-   eXkXkXkXkXkXkXlXkXO.                            k kXkXkXkXlXkXkXkXeXO o zXzXzXzXzXzX",
"zXzXzXzXzXzXzX3   eXlXkXlXkXkXkXgXdX#.        @ @ @ o O @         l lXgXkXkXlXkXlXkXeX  o zXzXzXzXzXzX",
"zXzXzXzXzXzXzX-   wXkXkXkXkXlXdX0.o.@       n 0XwXeXeXeXwX#.      o O.#.iXkXkXkXkXkX0Xo   zXzXzXzXzXzX",
"zXzXzXzXzXzXzX@   wXkXlXlXkXkXpX6     @   o &.kXkXkXlXkXkXw.o     O   @ uXkXkXkXkXkXwX    zXzXzXzXzXzX",
"zXzXzXzXzXzXzX2X1Xw.w.w.0.<XkXdX5X6X2X<Xo.  k 0.e.dXkX2Xw.l   b <X<X1X2XdXkX0X0.w.q.e.<X6XzXzXzXzXzXzX",
"zXzXzXzXzXzXzXzXzXO.      @ kXkXkXkXlXkXe.  o   6 aXkXb       8.kXkXkXkXlXkXr.      O.zXzXzXzXzXzXzXzX",
"zXzXzXzXzXzXzX2X<Xk   @ l l <X<X<X<X2X2X#.l k   3 8.<Xn m l m O.<X<X<X2Xe.<X&.l 3 o k e.e.zXzXzXzXzXzX",
"zXzXzXzXzXzXzX@ o     z 8.%.            b 8.b     # @ O.5.5.0.b         o   b q.N     o   zXzXzXzXzXzX",
"zXzXzXzXzXzXzX- O 3 8 m &.&.k t 5 t k 4 o.8.o.k t 5 3 #.5.=.&.O.6 5 5 k 6 9 b 0.T k <   @ qXzXzXzXzXzX",
"zXzXzXzXzXz O * , +.-.=.-.<.<.2.2.1.1.<.8.5.%.%.2.&.1.5.%.>.=.=.%.%.%.3.-.-.=.=.=.;.o.  O # O zXzXzXzX",
"zXzXzXzXzXt q ; q E q.q.=.8.9.6.2.2.3.3.<.;.;.;.4.4.<.%.;.&.q.=.%.8.3.-.-.3.;.8.<.6.| : q ; O zXzXzXzX",
"zXzXzX= y ; ; ..k.G 2 h 5.;.;.;.q.;.8.3.=.>.:.;.#.3.8.5.5.;.5.<.5.5.5.3.8.q.$.6.T r C k...q ; 4 3 ,XzX",
"zXzXzXO ; ; A b.b.^ d d 6.5.;.;.&.;.=.8.>.,.>.>.0.9.6.5.$.;.6.7.6.6.5.3.%.;.6.6.E p ) x.K.F 0 ,   r.zX",
"zXzXzX* e X.N.B.I.n.z.X.q < ,.:.,.=.c 7 > = 4 1 7 , 4 @.<.9.1.} = h 3.-.;.:.M 2 [ z.m.#XM.J.k.e * t.zX",
"zXzX0X* Z h.B.'.`.`.G. .q # &.>.%.2.c 0 e 0 e 0 w q q @.1.4.7.T * : 4.3.;.5.z ; [ J.$X>XQ.D.l.Z ; r.zX",
"yXe.2.* d l.Z.!.{.OXF. .w , v v T R I ^ ' ` ` ` _ / I R Y W E H R H E Y v v 2 q / U..X|.oX`.P.A 0 T R.",
"3XO O w J H.^.].oX{.).a.w , 0 q w B s.H.G.D.C.^.I.H.J.D i w u K v...C u q q * e ^ Y.E.=X:XW.Z.~ u 0 ; ",
"3X= e K ' I.^.}.{.-X).u.i w F ! ! ( n.(.XX].OX].+XQ.F.y.^ ^ ! p.H.B.( ( L J s w ' L. X-X{.+XF.` K a q ",
"4X; G K.H.A.!.].%X}._.u.p Z z.J.U.Z.!.OX].oX=X=XoXOX`.V.F.I.B.F.D.~.A.F.H.l.[ C ' H.(.|.{.}.~.H.x./ e ",
"4X; J K.S.).OX=X;X=X#Xd.B A J.Z.D.~.}.-X;X=XoXoX{.{.}.E.`.'.W.[.+XW.XX`.D.Y.) V _ I.).OX&X&X XU.x.{ w ",
"4Xq F N.#X(.|.{.*XE.I.s.B V P.^.(.Q.].{.{.oX{.oX%X-XOX{.].].{.=XoX].oXoXQ.$X_ S u.P.V. X].}.E.#XT.X.q ",
"9Xy U z.m.^.@XOX[.V.m.p.J ( C.(.@X&X&X&X}.}.}.oX{.&X%X{.oX=X*X%X:X].{.oXW.~.g.~ _ N.I._.!.@X~.Z.z.{ H ",
"zXzX8XF ^ n.C.'.#Xy.~ ^ f.M./.}.|.{.&X&X-XoXOX{.-X*X*X*X=X=X;X%X-XoX{.=X+X!.C.m.u.Q _ B.I.C.I._ D T.zX",
"zXzXzXr d j.K.J.K.L u ! U./.&X*X;X;X;X*X=XoX=XoX%X%X*X=X{.oX{.*X%X*X;X*XOXQ.D.L.] S Q z.K.K.v.G w R.zX",
"zXzXzXzX,XU K K G a e ! I.E.>X*X;X;X;X;X{.oX=XoX;X*X;X=XoXoX}.}.&X*X;X%X=XOX~.U.i.p i K F G d zXzXzXzX",
"zXzXzXzXzXj = * : 0 e ! Z.(.=X%X=X=XoX{.oXOX}.{.=X*X;X%X=X{.}.OX}.{.;X;X;X{.).L. .p 0 0 q : ; zXzXzXzX",
"zXzXzXzXzXt # o O * e ! H.D.[.=XoX}.].+X[.Q.@X[.OX{.{.}.[.XX(.Q. X[.{.%X;X{.).J.] u ; * = r.R.zXzXzXzX",
"zXzXzXzXzXz     O * q K l.Z.~.E.}.}.Q./.~.A.^.D.D.~.~.~.D.D.F.S.S.).[.{.-XE.I.N.I q O + < zXzXzXzXzXzX",
"zXzXzXzXzXt   o   O ; Z  .f.U.^././.V.M.d.d.s.s.p.a.a.a.a.s.p.a.d.M.)./.'.A.N. .H :     % zXzXzXzXzXzX",
"zXzXzXzXzXc       # * q a D l.J.U.N.' V B B u a a u u d i u u i B D P.P.U.N.] d ; O     & zXzXzXzXzXzX",
"zXzXzXzXzXn 5 .   .   * 0 d k.h.h.c.L p 0 * O O O O * ; ; ; ; ; w i k.h.z.j.K 0 *   o   $ zXzXzXzXzXzX",
"zXzXzXzXzXzXzX6 . .     * ; f a d f q * O   . .     .     * O O * ; f a d d q * - .     3 zXzXzXzXzXzX",
"zXzXzXzXzXzXzXk . .     # O * q ; O O +         . & 6 o     O     # O * : * O O     #   4 zXzXzXzXzXzX",
"zXzXzXzXzXzXzXk .     o     = O # = O     X     5 zXzXb   O O       + +   +   X .   # , 7 zXzXzXzXzXzX",
"zXzXzXzXzXzXzX6 .     o $ @ < O # # @ @ 6 < +   h zXzXT   = 3 $ @ - % < + % X     # 7 , y zXzXzXzXzXzX",
"zXzXzXzXzXzX1.@     . m 6X9X5X7X7X7X7X7X5X4X9.- z zXzXn - #.5X7X9X8X5X5X5X3XO.      c zXzXzXzXzXzXzXzX",
"zXzXzXzXzXz   @       %.fXkXgXhXjXjXjXkXkXkXzX- h zXzXn $ 2XfXhXlXlXkXkXkXfXw.    # @.zXzXzXzXzXzXzXzX",
"zXzXzXzXzXr.&.O O     %.fXlXkXkXkXkXjXjXkXzXzX< 5 zXzXN o 1XhXhXkXkXlXkXkXkX5X%.z   #.zXzXzXzXzXzXzXzX",
"zXzXzXzXzXzXzXt   O   &.gXhXkXkXkXzXzXzXzXzXzX$ l zXzXN X 3XhXkXlXkXkXkXlXkXkXhX1Xo o.zXzXzXzXzXzXzXzX",
"zXzXzXzXzXzXzX&.n 3   o.zXuXeXuXzXzXzXzXzXzXzXo.O.zXzXN o 0.rXyXtXtXkXjXjXkXkXhXzXo x zXzXzXzXzXzXzXzX",
"zXzXzXzXzXzXzXzXzXO.O   #   -     + X   + o #.zXzXzXzXn       +   x lXjXkXjXjXkXzX    o   O @ zXzXzXzX",
"zXzXzXzXzXzXzXzXzX8.k k t k k k k h 5 k 9 5 0.zXzXzXzXn           z iXpXlXkXkXzXzXl $       O zXzXzXzX",
"zXzXzXzXzXzXzXzXzXzXzXzXzXzXzXzXzXzXzXzXzXzXzXzXzXzXzXN           @ n O.iXkXzXzXzXzXzX@   o o zXzXzXzX",
"zXzXzXzXzXzXzXzXzXzXzXzXzXzXzXzXzXzXzXzXzXzXzXzXzXzXzXM     o         k zXzXzXzXzXzXzX6 o     zXzXzXzX",
"zXzXzXzXzXzXzXzXzXzXzXzXzXzXzXzXzXzXzXzXzXzXzXzXzXzXzXo.o             O b O.#.o.o.O.0.zXzXzXzXzXzXzXzX",
"zXzXzXzXzXzXzXzXzXzXzXzXzXzXzXzXzXzXzXzXzXzXzXzXzXzXzXT     o   o O @ o   o   $ @ @ O.zXzXzXzXzXzXzXzX",
"zXzXzXzXzXzXzXzXzXzXzXzXzXzXzXzXzXzXzXzXzXzXzXzXzXzXzXzXzXzXzXzXzXzXzXzXzXzXzXzXzXzXzXzXzXzXzXzXzXzXzX"
};
