/* XPM */
static char *result[] = {
/* columns rows colors chars-per-pixel */
"45 45 11 1 ",
"  c black",
". c #05090F",
"X c #0C0E17",
"o c #0F1A25",
"O c #1D303B",
"+ c #552F87",
"@ c #9F51F7",
"# c #DC8BF7",
"$ c #F7CEF7",
"% c gray97",
"& c None",
/* pixels */
"&&&&&&&&&&&&&&&&&&&&&&&&&&&&&&&&&&&&&&&&&&&&&",
"&&&&&&&&&&&&&&&&&&&&&&&&&&&&&&&&&&&&&&&&&&&&&",
"&&&&&&&&&&&&&&&&&&&&&&&&&&&&&&&&&&&&&&&&&&&&&",
"&&&&&&&&&&&&&&&&&&&&&&&&&&&&&&&&&&&&&&&&&&&&&",
"&&&&&&&&&&&&&&&&&&&&&&&&&&&&&&&&&&&&&&&&&&&&&",
"&&&&&&&&&&&&&&&&&&&&&&&&&&&&&&&&&&&&&&&&&&&&&",
"&&&&&&&&&&&&&&&&&&&&&&&&&&&&&&&&&&&&&&&&&&&&&",
"&&&&&&&&&&&&&&&&&&&&&&&&&&&&&&&&&&&&&&&&&&&&&",
"&&&&&&&&&&&&&&&&&&&&&&&&&&&&&&&&&&&&&&&&&&&&&",
"&&&&&&&&&&&&&&&&&&&&&&&&&&&.&&&&.&&&&&&&&&&&&",
"&&&&&&&&&&&&&&&&&&&&&&&&&&&ooo&&.o&&&&&&&&&&&",
"&&&&&&&&&&&&&&&&&&&&&&&&&&&&Ooo&&Xo&&&&&&&&&&",
"&&&&&&&&&&&&&&&&&&&&&&&&&&&&&Oo&&Xo&&&&&&&&&&",
"&&&&&&&&&&&&&&&&&&&&&&&&&&&&&Oo&oXo&&&&&&&&&&",
"&&&&&&&&&&&&&&&&&&&oooooOOo&&ooOoo&&&&&&&&&&&",
"&&&&&&&&&&&&&&&&oooOoOOOoOOo.ooOOo&&&&&&&&&&&",
"&&&&&&&&&&&&&%&ooOoOooooOoOO.oo@O@&&&&&&&&&&&",
"&&&&&&&&&&%%&&oOOooooOOOoOoo.ooOOo&&&&&&&&&&&",
"&&&&&&&&&&%&&oOoo&&&&OOOoOo.o.oOO&&&&&&&&&&&&",
"&&&&&&&&&&&%Ooo&&&&&&&oOoo.o.o.&&&&&&&&&&&&&&",
"&&&&&&&&@&@Oooo&&&&&&OOoOO.oooo &&.o&&&&&&&&&",
"&&&&&&&%#$$OOo&&&&&&&ooOo.o.oo.  . o&&&&&&&&&",
"&&&&&&@#$$%%@&&&&&&&&OOo.&&&o. ..  &&&&&&&&&&",
"&&&&&@%$%@$$&&&&&&&&@@@Oo+&&&&&.. &&&&&&&&&&&",
"&&&&@#$%$%&&&&&&&&&&...@+.o&&&&&&&&&&&&&&&&&&",
"&&&@#$@$%%&&&&&&&&O.ooo....oo.&&&&&&&&&&&&&&&",
"&&@#$@$&%&&&&&&&&OOooo.o.oooo..&&&&&&&&&&&&&&",
"&%#$@$&%%&&&&&&&&O..oo.o.oooo ...&&&&&&&&&&&&",
"&#%$%&&&&&&&&&&&&..oo..o&&oo    .o&&&&&&&&&&&",
"&@$$&%%&%&&&&&&&..oOO&&&&&&&    +@&&&&&&&&&&&",
"&$@&&&&%&&&&&&&oo.OOo&&&&&&&&..  +&&&&&&&&&&&",
"&&&&&&&&&&&&&&.@+.oo&&&&&&&&&.. .&&&&&&&&&&&&",
"&&&&&&&&&&&&&&.+..&&&&&&&&&&&&  &&&&&&&&&&&&&",
"&&&&&&&&&&&&&...&&&&&&&&&&&&&&.&&&&&&&&&&&&&&",
"&&&&&&&&&&&&oo.&&&&&&&&&&&&&&& &&&&&&&&&&&&&&",
"&&&&&&&&&&&oO&&&&&&&&&&&&&&&&&..&&&&&&&&&&&&&",
"&&&&&&&&&&&O.&&&&&&&&&&&&&&&&&&&&&&&&&&&&&&&&",
"&&&&&&&&&&&oo&&&&&&&&&&&&&&&&&&&&&&&&&&&&&&&&",
"&&&&&&&&&&&&&&&&&&&&&&&&&&&&&&&&&&&&&&&&&&&&&",
"&&&&&&&&&&&&&&&&&&&&&&&&&&&&&&&&&&&&&&&&&&&&&",
"&&&&&&&&&&&&&&&&&&&&&&&&&&&&&&&&&&&&&&&&&&&&&",
"&&&&&&&&&&&&&&&&&&&&&&&&&&&&&&&&&&&&&&&&&&&&&",
"&&&&&&&&&&&&&&&&&&&&&&&&&&&&&&&&&&&&&&&&&&&&&",
"&&&&&&&&&&&&&&&&&&&&&&&&&&&&&&&&&&&&&&&&&&&&&",
"&&&&&&&&&&&&&&&&&&&&&&&&&&&&&&&&&&&&&&&&&&&&&"
};
