/* XPM */
static char *_ef4dea298bc4de19146d5dbb008b54b8l6rjH6RbNc1W2sO[] = {
/* columns rows colors chars-per-pixel */
"41 70 183 2 ",
"   c None",
".  c #010102",
"X  c #01030C",
"o  c #0C0C0C",
"O  c #000414",
"+  c #010817",
"@  c #0D0D11",
"#  c #00051A",
"$  c #01091C",
"%  c #141414",
"&  c #151519",
"*  c #1B1B1B",
"=  c #000623",
"-  c #010A25",
";  c #010B29",
":  c #04132E",
">  c #0C172B",
",  c #000935",
"<  c #021036",
"1  c #021239",
"2  c #041A3E",
"3  c #0B1C35",
"4  c #1F2025",
"5  c #1D2129",
"6  c #0C213D",
"7  c #232323",
"8  c #2D2D2D",
"9  c #333333",
"0  c #3B3B3B",
"q  c #021444",
"w  c #031A42",
"e  c #00174B",
"r  c #031B4C",
"t  c #041D53",
"y  c #072246",
"u  c #0A2141",
"i  c #06254C",
"p  c #0B2449",
"a  c #112546",
"s  c #1F2F4A",
"d  c #062355",
"f  c #06255B",
"g  c #082559",
"h  c #062B58",
"j  c #0C2A54",
"k  c #3F3F41",
"l  c #052664",
"z  c #022E61",
"x  c #0B2B62",
"c  c #052E6B",
"v  c #0F3061",
"b  c #0A346B",
"n  c #183A61",
"m  c #12396D",
"M  c #043177",
"N  c #0D3573",
"B  c #073976",
"V  c #083972",
"C  c #06377F",
"Z  c #113B74",
"A  c #123C79",
"S  c #14437D",
"D  c #2C4B72",
"F  c #434343",
"G  c #4B4B4B",
"H  c #51514F",
"J  c #474F5D",
"K  c #454D56",
"L  c #545454",
"P  c #575856",
"I  c #585857",
"U  c #5D5D5D",
"Y  c #586370",
"T  c #5A6B7F",
"R  c #646465",
"E  c #6B6B6B",
"W  c #6E7275",
"Q  c #737373",
"!  c #7C7C7C",
"~  c #063783",
"^  c #0B4687",
"/  c #0C438D",
"(  c #124385",
")  c #194683",
"_  c #1B4B88",
"`  c #184985",
"'  c #1F518D",
"]  c #0F4791",
"[  c #0B4895",
"{  c #134D92",
"}  c #1C4F90",
"|  c #124E99",
" . c #1B579C",
".. c #1F5A9F",
"X. c #165398",
"o. c #204C81",
"O. c #23538E",
"+. c #235D9E",
"@. c #084FA5",
"#. c #0A55AC",
"$. c #0C59AC",
"%. c #1459A5",
"&. c #1D5AA1",
"*. c #1157A9",
"=. c #1E5EAC",
"-. c #145AA8",
";. c #0C5FBA",
":. c #0B5BB1",
">. c #145DB1",
",. c #1D60AD",
"<. c #0F60BB",
"1. c #1B65B4",
"2. c #1464BC",
"3. c #1B67BA",
"4. c #1868BF",
"5. c #0C64C3",
"6. c #0D6BCD",
"7. c #1165C1",
"8. c #1469C3",
"9. c #126AC9",
"0. c #076DD6",
"q. c #0A6CD3",
"w. c #046EDC",
"e. c #016FE1",
"r. c #0170E2",
"t. c #778595",
"y. c #828282",
"u. c #8B8B8B",
"i. c #83898E",
"p. c #939393",
"a. c #9A9A9A",
"s. c #9A9A9A",
"d. c #A3A3A3",
"f. c #A5A5A5",
"g. c #A4A4A4",
"h. c #ABABAB",
"j. c #A9A9A9",
"k. c #AEAEAE",
"l. c #ACACAC",
"z. c #B3B3B3",
"x. c #B1B1B1",
"c. c #B7B7B7",
"v. c #B5B5B5",
"b. c #B3B3B3",
"n. c gray73",
"m. c gray72",
"M. c #BFBFBF",
"N. c #C0C0C0",
"B. c #C1C1C1",
"V. c #C3C3C3",
"C. c #C6C6C6",
"Z. c #C9C9C9",
"A. c #CECECE",
"S. c #CDCDCD",
"D. c gray82",
"F. c #D2D2D2",
"G. c #D7D7D7",
"H. c #D2D2D3",
"J. c #D9D9D9",
"K. c #DADADA",
"L. c #DFDFDF",
"P. c #DDDDDD",
"I. c #DDDDDD",
"U. c #E1E1E1",
"Y. c #E2E2E2",
"T. c #E3E3E3",
"R. c gray91",
"E. c #E9E9E9",
"W. c #EAEAEA",
"Q. c #ECECEC",
"!. c #F2F2F2",
"~. c #F1F1F1",
"^. c #F5F5F5",
"/. c #F7F7F7",
"(. c #F5F5F5",
"). c #F9F9F9",
"_. c #F8F8F8",
"`. c gray98",
"'. c #FBFBFB",
"]. c gray99",
"[. c #FDFDFD",
"{. c #FEFEFE",
"}. c #FBFBFB",
/* pixels */
"                                                                                  ",
"                    R 9 8 8 8 8 8 8 8 8 8 8 8 8 8 8 8 8 8 8 0                     ",
"                    L o . . . . . . . . . . . . . . . . . . % j.                  ",
"            8 o o % ! n.n.n.n.n.n.n.n.n.n.n.n.n.n.n.n.n.n.n.k.F o o o             ",
"            7 . . . y.{.{.{.{.{.{.{.{.{.{.{.{.{.{.{.{.{.{.{.U.7 . . . F           ",
"          I E E E E v.{.{.{.{.{.{.{.{.{.{.{.{.{.{.{.{.{.{.{.Q.! E E E E 0         ",
"      Q o 0 A._._._._.{.{.{.{.{.{.{.{.{.{.{.{.{.{.{.{.{.{.{.{._._._./.p.% %       ",
"      Q . 9 D.{.{.{.{.{.{.{.{.{.{.{.{.{.{.{.{.{.{.{.{.{.{.{.{.{.{.{._.p.o %       ",
"      Q . 9 D.{.{.{.{.{.{.{.{.{.{.{.{.{.{.{.{.{.{.{.{.{.{.{.{.{.{.{._.p.o %       ",
"      E o 0 D.{.{.{.{.{.{.{.{.{.{.{.{.{.{.{.{.{.{.{.{.{.{.{.{.{.{.{._.a.% *       ",
"    * E n.Z.!.{.{.{.{.{.{.{.{.{.{.{.{.{.{.{.{.{.{.{.{.{.{.{.{.{.{.{.{.U.M.k.9 8   ",
"  9 . R _.{.{.{.{.{.{.{.{.{.{.{.{.{.{.{.{.{.{.{._._._._._._._.{.{.{.{.{.{.U.* *   ",
"  9 . R _.{.{.{.{.{.{.{.{.{.{.{.{.{.{.{.{.{.{.!.f.y.y.y.y.y.p.W.{.{.{.{.{.U.* *   ",
"  9 . R _.{.{.{.{.{.{.{.{.{.{.{.{.{.{.{.{.{.{.W.L o o o o o 7 K.{.{.{.{.{.U.* *   ",
"  9 . R _.{.{.{.{.{.{.{.{.{.{.{.{.{.{.{.{.{.{.T.G . . . . . * K.{.{.{.{.{.U.* *   ",
"  9 . R _.{.{.{.{.{.{.{.{.{.{.{.{.{.{.{.{.{.{.W.G . . . . . * K.{.{.{.{.{.U.* *   ",
"  9 . L V.D.!.{.{.{.{.{.{.{.{.{.{.{.{.{.{.{.{.W.G . . . . . * K.{.{.{.T.Z.z.% *   ",
"  9 . o 7 L G.{.{.{.{.{.{.{.{.{.{.{.{.{.{.{.{.W.G . . . . . * K.{.{._.d.8 * . *   ",
"  0 o . . 9 A._.{.{.{.{.{._._._._.{.{.{.{.{.{.W.G o o . . . * K.{._._.p.o . . *   ",
"    u.L . % F L V._.{.{.A.R L L I Z.{.{.{.{.{./.V.j.j.j.j.l.v.!._.y.L 9 o o ! p.  ",
"      Q . . . o d._._._.z.7 . . % z.{.{._._.{.{.{.{.{.{.{.{.{.{._.G o . . *       ",
"      Q . * E y.! ! ! ! ! y.y.y.u.K.{.G.! u._.{.{.{.{.{.{.{.{.{._.f.y.y.y.y.R E   ",
"      Q . 9 A./.I . . . G P.{.{.{.{.{.z.o * /.{.{.{.{.{.{.{.{.{.{._._._._.U.* *   ",
"      Q . 9 D._.u.G 7 . G P.{.{._.A.v.y.. % z.v.v.v.v.v.v.v.v.v.v.v.v.v.v.f.% *   ",
"      Q . 9 D.{.W.P.E . G P.{.{.!.U * % . . * * * * * * * * * * * * * * * * . *   ",
"      ! % 0 C.W.W.W.Q . G P.{.{.!.I % % % o . . o % o . o % % . . o % o . . . *   ",
"          ! G 9 9 9 * . G P.{.{._.K.Z.Z.Z.z.o % u.Z.R . G M.z.* . p.Z.Q o . . *   ",
"            7 . o o . . F A.Q._.{.{.{.{.{.U.% 7 j.W.Q . L P.D.7 o j.W.u.o . o 7   ",
"            * . 7 0 * . * L E T.{.{.{.{.{.!.d.a.Q I 8 . 7 L L o . F I 9 o o L I   ",
"            7 . 0 U 8 . . . * G.{.{.{.{.{.{.{.W.G . . . . . . . . . . . . %       ",
"        U I 9 8 G U F 8 * o o ! a.P.{.{.{.{.{.!.p.E E E E E E E E E E 0 o %       ",
"      Q o * G U U U U U F o . o % v._.{.{.{.{.{././././././././././.!.p.o %       ",
"    p.E * 7 L U U U U R G * % % * u.M.M.V.V.V.V.V.V.V.V.V.N.M.V.V.V.M.Q o %       ",
"  0 o 8 I U U U U U U U U U U U L * . . o o o o o o o . . . . o o o . . . %       ",
"  9 . 7 L L L L L L L L L L L U I 7 o o o o . . . . o * o . . . . % % % % 7       ",
"  9 . o * * * * * * * * * * 7 L U G G G G 0 . . . . U v.Q o . . . Q               ",
"  9 . . . . . . X O O O X . o H U U U U U L . . . . ! /.a.o . . o f.              ",
"    G 0 . . . X i b B V i + o 8 9 9 9 0 U I 8 8 8 8 L ! L o o 7 8 R E             ",
"      E . . X = ^ 8.6.9.` ; . X X . . * U U U U U U 8 . . . o L U * . F           ",
"      Q . + y c #.0.w.0.{ : # u p - . % 0 F U U G 0 G I I I L F 0 o . F           ",
"      W X 1 X.8.0.w.r.0.| < ; O.+.p O . X @ U P * . ! !./.!.K.7 . . . F           ",
"    i.T 2 c ;.w.e.e.r.0.#.f d _ } x w 2 2 3 K G % . R Z.P._.U.7 . . . F           ",
"  G 5 n  .;.0.e.e.r.e.w.6.>.{ d r S &.-.%.o.> @ o . % 8 ! !.U.7 . . . k           ",
"  9 X z 8.0.e.r.e.e.e.e.q.2. .r 1 ) ,.7.9...= . o o o o R !.U.7 . o o G           ",
"  9 O z 9.w.e.e.e.r.e.0.#.l d _ ' x t ~ 8.&.; % p.A.D.D.U._.U.7 . y.              ",
"  9 X h 1.6.0.e.e.w.0.9.{ q e -.1.g = l 3.&.; & k./._./._._.P.7 . f.              ",
"  9 . : v / 5.e.e.0.@.N N A / 7.2.g # f 3.&.; o G E E E E E R o . f.              ",
"  9 . . O r :.w.e.q.C , f >.q.0.5.g # f 3.&.; . . . . . . . . . . f.              ",
"    % % X w $.0.w.0.[ f ~ 5.w.w.5.g # f 3.&.; X * 8 8 8 * . . . o f.              ",
"      E X 2 %.0.0.0.9.3.8.q.0.0.2.g = f 3.&.; & k./././.a.o . . o f.              ",
"        @ 6 ' ,.=.,.,.,.=.=.,.,.&.x q M 8.&.; & f.W.W.W.p.o . . o f.              ",
"          t.s < < < < < < 1 , < q ) =.7.9.&.; . @ % % % o . . . o f.              ",
"            4 X # = ; ; ; ; ; ; q | 6.6.2.O.$ . . . . . . . . . o f.              ",
"            4 O j S ( ( ( ( ( ( ] <.6.*.b a X . . . . . . . . . o f.              ",
"            7 # S 1.4.8.8.8.8.8.8.9.8.) = X . . . . . . . . . . . f.              ",
"            R Y D Z Z Z Z Z Z Z Z Z m a O . . . . . . . . . o L U                 ",
"                J # # O # # O # O O O X . . . . . . . . . . % v.                  ",
"                R k 7 . . . . . . . . . . . . . . . . . . . %                     ",
"                    L . . . . . . . . . . . . . . . . . . . %                     ",
"                    I % % % % . . % * * * & . . . . . . . . %                     ",
"                        j.k.s.* o p.A.A.A.v.o . . . . . . . %                     ",
"                            d.7 % z.{.{.{.P.o o . . . . . . % d.                  ",
"                          G G d.b.T.].{.{./.z.z.z.z.L . . . o 0 F                 ",
"                        Q % * G._._._.{.{._._._._._.! . . . . . o f.              ",
"                        E % % y.a.a.a.a.a.a.a.d.P.{.z.R R R I o o f.              ",
"                        E % . o o o o o o o o 7 v.{./.Q.Q.Q.G.7 o f.              ",
"                        ! 7 % % % % % % % % . % s.U.U.U.U.U.A.9 % d.              ",
"                                          j.o . % * * * * * 8 d.                  ",
"                                            * % % % % * * % 7                     ",
"                                                                                  "
};
