/* XPM */
static char *result[] = {
/* columns rows colors chars-per-pixel */
"45 45 130 2 ",
"   c black",
".  c #010000",
"X  c #2F2400",
"o  c #2F2500",
"O  c #302400",
"+  c #302500",
"@  c #302501",
"#  c #302502",
"$  c #312502",
"%  c #3F3000",
"&  c #3F3100",
"*  c #3F3200",
"=  c #30302E",
"-  c #303130",
";  c #303131",
":  c #313131",
">  c #402F02",
",  c #403000",
"<  c #403001",
"1  c #403101",
"2  c #403102",
"3  c #404141",
"4  c #414141",
"5  c #937100",
"6  c #947500",
"7  c #977500",
"8  c #997700",
"9  c #9A7600",
"0  c #9B7700",
"q  c #987502",
"w  c #B18900",
"e  c #B38800",
"r  c #B38900",
"t  c #B08A00",
"y  c #B38A00",
"u  c #B48900",
"i  c #B48A00",
"p  c #B48B00",
"a  c #B38C00",
"s  c #BF9600",
"d  c #CD8700",
"f  c #CE8700",
"g  c #CD8800",
"h  c #CE8800",
"j  c #CE8900",
"k  c #C09400",
"l  c #C19501",
"z  c #C39400",
"x  c #C29500",
"c  c #C39500",
"v  c #C09601",
"b  c #C29600",
"n  c #C39600",
"m  c #C29700",
"M  c #C39700",
"N  c #C49500",
"B  c #C49600",
"V  c #C49801",
"C  c #C49802",
"Z  c #EDBA00",
"A  c #ECBB00",
"S  c #EFBA00",
"D  c #EFBB01",
"F  c #F1B700",
"G  c #F1B800",
"H  c #F1B900",
"J  c #F2B800",
"K  c #F3B800",
"L  c #F2B900",
"P  c #F3B900",
"I  c #F1BA00",
"U  c #F2BA00",
"Y  c #F3BA00",
"T  c #F3BA01",
"R  c #F4B800",
"E  c #F5B800",
"W  c #F4B900",
"Q  c #F5B900",
"!  c #F6B800",
"~  c #F6B900",
"^  c #F4BA00",
"/  c #F5BA00",
"(  c #F6BA00",
")  c #F6BB00",
"_  c #F4BA02",
"`  c #F1BC00",
"'  c #F2BC00",
"]  c #F3BC00",
"[  c #F4BC00",
"{  c #F3B904",
"}  c #F4BA04",
"|  c #F7BB05",
" . c #F1B709",
".. c #F2B709",
"X. c #F5B709",
"o. c #F4C52D",
"O. c #F5C72C",
"+. c #F4C52F",
"@. c #F4CA3B",
"#. c #F6E9B6",
"$. c #F7E8B8",
"%. c #F6ECC6",
"&. c #F6ECC7",
"*. c #F4F9E9",
"=. c #F4FAE9",
"-. c #F4FAF2",
";. c #F3F9F4",
":. c #F5F9F5",
">. c #F4F8F7",
",. c #F4F9F7",
"<. c #F7F9F7",
"1. c #F4F9F8",
"2. c #F5F9F8",
"3. c #F4F8F9",
"4. c #F5F8F9",
"5. c #F4F9F9",
"6. c #F5F9F9",
"7. c #F6F9F8",
"8. c #F7F9F8",
"9. c #F6F9F9",
"0. c #F7F9F9",
"q. c #F4F9FA",
"w. c #F5F9FA",
"e. c #F6F8FA",
"r. c #F8F9F8",
"t. c #F8F9F9",
"y. c #F9F9F9",
"u. c #F8F9FA",
"i. c #F9F9FA",
"p. c None",
/* pixels */
"p.p.p.p.p.p.p.p.p.p.p.p.p.p.p.p.                          p.p.p.p.p.p.p.p.p.p.p.p.p.p.p.p.",
"p.p.p.p.p.p.p.p.p.p.p.p.p.p.p.p.                          p.p.p.p.p.p.p.p.p.p.p.p.p.p.p.p.",
"p.p.p.p.p.p.p.p.p.p.p.p.p.p.p.p.                          p.p.p.p.p.p.p.p.p.p.p.p.p.p.p.p.",
"p.p.p.p.p.p.p.p.p.p.p.p.p.p.p.p.                          p.p.p.p.p.p.p.p.p.p.p.p.p.p.p.p.",
"p.p.p.p.p.p.p.p.p.p.p.p.        q N u N 7         N N u C         p.p.p.p.p.p.p.p.p.p.p.p.",
"p.p.p.p.p.p.p.p.p.p.p.p.        B L L L M         P P P _         p.p.p.p.p.p.p.p.p.p.p.p.",
"p.p.p.p.p.p.p.p.p.p.p.p.        i L L H r         P P P }         p.p.p.p.p.p.p.p.p.p.p.p.",
"p.p.p.p.p.p.p.p.p.p.p.p.        B L G H x         P P P _         p.p.p.p.p.p.p.p.p.p.p.p.",
"p.p.p.p.p.p.p.p.p.p.p.p.* O X % 9 c e z 7 % X X % P P P T X % X o p.p.p.p.p.p.p.p.p.p.p.p.",
"p.p.p.p.p.p.p.p.p.      ] W W P %       % Y U L L L L P L L L L W         p.p.p.p.p.p.p.p.",
"p.p.p.p.p.p.p.p.p.      [ W P Q O       + Y P L L L J J L L L P P         p.p.p.p.p.p.p.p.",
"p.p.p.p.p.p.p.p.p.      [ Q E ~ O       + Y Y L L L J J J J P P P         p.p.p.p.p.p.p.p.",
"p.p.p.p.p.p.p.p.p.      D .. .X.>       % Y Y L L K J J J J J P W         p.p.p.p.p.p.p.p.",
"p.p.p.p.p.p.p.p.p.      t.t.t.t.;       + Y Y Y Y j j j j J J P W         p.p.p.p.p.p.p.p.",
"p.p.p.p.p.p.p.p.p.      t.t.t.t.:       o Y Y Y Y h h j j J J P W         p.p.p.p.p.p.p.p.",
"p.p.p.p.p.p.p.p.p.      i.y.t.y.4       % Y Y Y Y g g j j J J P W         p.p.p.p.p.p.p.p.",
"p.p.p.p.p.p.p.p.p.      i.y.t.y.:       o Y Y Y Y g h j j J J P P         p.p.p.p.p.p.p.p.",
"p.p.p.p.p.p.p.p.p.      i.t.t.y.:       o Y Y Y Y g h j j J J P P         p.p.p.p.p.p.p.p.",
"p.p.p.p.p.p.p.p.p.      u.t.r.t.3       % Y Y Y Y g g h j J J P W         p.p.p.p.p.p.p.p.",
"p.p.p.p.p.p.p.p.p.      0.8.<.8.-       o Y Y Y Y g g h h J J P P         p.p.p.p.p.p.p.p.",
"p.p.p.p.p.p.p.p.p.      #.%.&.$.=       o Y Y Y Y d g h h J J P P         p.p.p.p.p.p.p.p.",
"p.p.p.p.p.p.p.p.p.      ] E E E ,       % Y Y Y Y d d h h J J P W         p.p.p.p.p.p.p.p.",
"p.p.p.p.p.p.p.p.p.      ] W W W O       o Y Y Y Y d f h h J J P P         p.p.p.p.p.p.p.p.",
"p.p.p.p.p.p.p.p.p.      ] W W W O       o Y Y Y Y d f h h J J P P         p.p.p.p.p.p.p.p.",
"p.p.p.p.p.p.p.p.p.      ' P P P %       % Y Y Y Y g g h h J P P W         p.p.p.p.p.p.p.p.",
"p.p.p.p.p.p.p.p.p.      ' P P P O       + Y Y Y P g g h h K P P W         p.p.p.p.p.p.p.p.",
"p.p.p.p.p.p.p.p.p.      ' P P P O       + Y Y Y P g g h h P P W /         p.p.p.p.p.p.p.p.",
"p.p.p.p.p.p.p.p.p.      ' P P W %       % Y Y Y P g g h h W ^ ^ /         p.p.p.p.p.p.p.p.",
"p.p.p.p.p.p.p.p.p.      ' P P W O       o Y Y Y Y g g g h I S Z A         p.p.p.p.p.p.p.p.",
"p.p.p.p.p.p.p.p.p.      ' P P W O       o Y Y L L K K R F q.5.6.9.        p.p.p.p.p.p.p.p.",
"p.p.p.p.p.p.p.p.p.      ' P P W %       % Y Y Y P P W R F 3.6.9.0.        p.p.p.p.p.p.p.p.",
"p.p.p.p.p.p.p.p.p.      ' P P P X       + Y Y P P P R R F 4.2.7.0.        p.p.p.p.p.p.p.p.",
"p.p.p.p.p.p.p.p.p.      ' P P P X       + Y Y P P K R R F w.6.:.e.        p.p.p.p.p.p.p.p.",
"p.p.p.p.p.p.p.p.p.      ` L P P %       % Y Y P P q.1.1.;.R E E !         p.p.p.p.p.p.p.p.",
"p.p.p.p.p.p.p.p.p.      ` L L P X       o Y Y P { 1.1.,.-.W E Q Q         p.p.p.p.p.p.p.p.",
"p.p.p.p.p.p.p.p.p.      ` L P P X       o Y Y W W 1.,.,.=.W W Q Q         p.p.p.p.p.p.p.p.",
"p.p.p.p.p.p.p.p.p.      ` P P P %       % Y ^ ^ W >.,.,.*.W Q Q (         p.p.p.p.p.p.p.p.",
"p.p.p.p.p.p.p.p.p.p.p.p.& @ @ < 0 n y n 8 1 + + , +.o.@.O.+ 2 # $ p.p.p.p.p.p.p.p.p.p.p.p.",
"p.p.p.p.p.p.p.p.p.p.p.p.        B U U U m       . W W W )         p.p.p.p.p.p.p.p.p.p.p.p.",
"p.p.p.p.p.p.p.p.p.p.p.p.        p U U I a       . W W W /         p.p.p.p.p.p.p.p.p.p.p.p.",
"p.p.p.p.p.p.p.p.p.p.p.p.        V Y U U b         W W W |         p.p.p.p.p.p.p.p.p.p.p.p.",
"p.p.p.p.p.p.p.p.p.p.p.p.        6 s t k 5         l v w c         p.p.p.p.p.p.p.p.p.p.p.p.",
"p.p.p.p.p.p.p.p.p.p.p.p.p.p.p.p.                          p.p.p.p.p.p.p.p.p.p.p.p.p.p.p.p.",
"p.p.p.p.p.p.p.p.p.p.p.p.p.p.p.p.                          p.p.p.p.p.p.p.p.p.p.p.p.p.p.p.p.",
"p.p.p.p.p.p.p.p.p.p.p.p.p.p.p.p.                          p.p.p.p.p.p.p.p.p.p.p.p.p.p.p.p."
};
