/* XPM */
static char *result[] = {
/* columns rows colors chars-per-pixel */
"45 45 166 2 ",
"   c black",
".  c #010000",
"X  c #000001",
"o  c #030000",
"O  c #020001",
"+  c #000003",
"@  c #020202",
"#  c #040000",
"$  c #050000",
"%  c #050001",
"&  c #060000",
"*  c #2B2200",
"=  c #2D2200",
"-  c #2B2400",
";  c #2D2400",
":  c #2D2401",
">  c #2E2400",
",  c #2F2400",
"<  c #2F2500",
"1  c #2F2501",
"2  c #302400",
"3  c #302500",
"4  c #302401",
"5  c #302501",
"6  c #3C3000",
"7  c #3D3000",
"8  c #3F3000",
"9  c #3F3100",
"0  c #403002",
"q  c #403102",
"w  c #594500",
"e  c #5A4500",
"r  c #5B4601",
"t  c #B08800",
"y  c #B38801",
"u  c #B08A00",
"i  c #B28B00",
"p  c #B48800",
"a  c #B58800",
"s  c #B48900",
"d  c #B58900",
"f  c #B48A00",
"g  c #B48B00",
"h  c #B58B00",
"j  c #B58B03",
"k  c #BF9600",
"l  c #CC8700",
"z  c #CD8700",
"x  c #CD8701",
"c  c #CE8700",
"v  c #CF8700",
"b  c #CF8701",
"n  c #CC8800",
"m  c #CD8800",
"M  c #CD8900",
"N  c #CD8801",
"B  c #CE8800",
"V  c #CF8800",
"C  c #CE8900",
"Z  c #CF8801",
"A  c #CD8A00",
"S  c #CE8A00",
"D  c #CF8A00",
"F  c #CF8B00",
"G  c #C19300",
"H  c #C09500",
"J  c #C09600",
"K  c #C39403",
"L  c #C49400",
"P  c #C59400",
"I  c #C49500",
"U  c #C49600",
"Y  c #C49402",
"T  c #C79602",
"R  c #D49100",
"E  c #D49200",
"W  c #D59200",
"Q  c #D79500",
"!  c #E9AC00",
"~  c #E9AC01",
"^  c #EAAC00",
"/  c #EBAF00",
"(  c #ECAF00",
")  c #EFB900",
"_  c #F1B700",
"`  c #F2B700",
"'  c #F3B700",
"]  c #F1B800",
"[  c #F0B900",
"{  c #F1B900",
"}  c #F2B800",
"|  c #F3B800",
" . c #F2B900",
".. c #F3B900",
"X. c #F2B801",
"o. c #F1BA00",
"O. c #F1BB00",
"+. c #F2BA00",
"@. c #F3BA00",
"#. c #F2BB00",
"$. c #F3BA01",
"%. c #F2B802",
"&. c #F3B902",
"*. c #F4B800",
"=. c #F5B800",
"-. c #F4B900",
";. c #F5B900",
":. c #F4BA00",
">. c #F5BA00",
",. c #F4BA01",
"<. c #F5BA01",
"1. c #F4BA02",
"2. c #F1B806",
"3. c #F1B807",
"4. c #F3B807",
"5. c #F4BB0E",
"6. c #F4BC0D",
"7. c #F3C430",
"8. c #F3C431",
"9. c #F3C630",
"0. c #F4C530",
"q. c #F4C630",
"w. c #F3C940",
"e. c #F4CA40",
"r. c #F4E9B8",
"t. c #F4ECC8",
"y. c #F5ECC8",
"u. c #F6ECC8",
"i. c #F3F7F2",
"p. c #F3F7F3",
"a. c #F3F7F4",
"s. c #F3F7F5",
"d. c #F3F7F6",
"f. c #F4F7F4",
"g. c #F4F8F3",
"h. c #F5F8F3",
"j. c #F6FBF3",
"k. c #F6F9F4",
"l. c #F6F8F5",
"z. c #F7F8F5",
"x. c #F6F9F5",
"c. c #F4F8F6",
"v. c #F5F8F6",
"b. c #F4F9F6",
"n. c #F4F8F7",
"m. c #F5F8F7",
"M. c #F6F8F6",
"N. c #F9F7F9",
"B. c #F3F9F8",
"V. c #F3F9F9",
"C. c #F3F9FB",
"Z. c #F4F9F8",
"A. c #F5F9F8",
"S. c #F4F9F9",
"D. c #F6F8F8",
"F. c #F6F9F8",
"G. c #F7F9F8",
"H. c #F7F8F9",
"J. c #F7F9F9",
"K. c #F8F9F8",
"L. c #F8F8F9",
"P. c #F9F8F9",
"I. c #F8F9F9",
"U. c #F9F9F9",
"Y. c #F8F9FA",
"T. c None",
/* pixels */
"T.T.T.T.T.T.T.T.T.T.T.T.T.T.T.                                T.T.T.T.T.T.T.T.T.T.T.T.T.T.",
"T.T.T.T.T.T.T.T.T.T.T.T.T.T.T.                                T.T.T.T.T.T.T.T.T.T.T.T.T.T.",
"T.T.T.T.T.T.T.T.T.T.T.T.T.T.T.                                T.T.T.T.T.T.T.T.T.T.T.T.T.T.",
"T.T.T.T.T.T.T.T.T.T.T.T.T.T.T.                                T.T.T.T.T.T.T.T.T.T.T.T.T.T.",
"T.T.T.T.T.T.T.T.T.T.T.      * g I I d I I d T         h U U f :       T.T.T.T.T.T.T.T.T.T.",
"T.T.T.T.T.T.T.T.T.T.T.      ;  .............@.        @.......<       T.T.T.T.T.T.T.T.T.T.",
"T.T.T.T.T.T.T.T.T.T.T.      6 }  ...| ......:.        ...... .9       T.T.T.T.T.T.T.T.T.T.",
"T.T.T.T.T.T.T.T.T.T.T.      ;  .....| | | | :.        ..} |  .<       T.T.T.T.T.T.T.T.T.T.",
"T.T.T.T.T.T.T.T.T.T.T., 8 , e ~ ( ( ^ 8.7.w.0.4 8 2 , s K Y y w , 8 , T.T.T.T.T.T.T.T.T.T.",
"T.T.T.T.T.T.T.         . .| | B B m m b.g.n.c.-.:.:.:.        a  .....o       T.T.T.T.T.T.",
"T.T.T.T.T.T.T.        } } | | M m m m v.v.m.v. .;.>.<.        P | ..-.&       T.T.T.T.T.T.",
"T.T.T.T.T.T.T.        } } | | C m m m M.m.m.h.-.;.;.>.        P *.-.-.#       T.T.T.T.T.T.",
"T.T.T.T.T.T.T.        _ } | | C B m x j.k.x.x.4.3.3.2.    +   j 5.5.6.O       T.T.T.T.T.T.",
"T.T.T.         .....} C C C C C B B c z z z l l.F.A.A.[ -.-...<       N.K.I.U.        T.T.",
"T.T.T.        }  .} } C C C C B B B z z z m l z.D.A.A.) -.-...3       P.L.I.U.        T.T.",
"T.T.T.        } } } } M C C C B B B B B m m n A.A.A.A...-.-...9       U.I.I.I.        T.T.",
"T.T.T.        } } } } F D F F D D S C B B m N A.A.A.A...-.-...3       U.I.I.I.        T.T.",
"T.T.T.        } } } } } } } } } ] ] { m m m B B Z b v | | ....3       U.I.J.I.        T.T.",
"T.T.T.        } }  .} } } } } } }  .{ m m B B B B V V | | .. .9       Y.G.G.J.        T.T.",
"T.T.T.        } }  . .} } } } .. . . .m m m B B B V V } | .. .3       H.F.F.F.        T.T.",
"T.T.T.        } } } } } } } } ! ( / ! R E Q W B B V V } }  . .3       t.r.y.u..       T.T.",
"T.T.T.        } } } } } } } ` B c c c .. . . .z c B B } }  . .9       @.-.*.=.        T.T.",
"T.T.T.        } } } } } | } } B c z z .... ...z c B B } }  . .3       #...-.-.        T.T.",
"T.T.T.        } } } } } | | } B z z z ........z z B B } }  . .3       #.....-.        T.T.",
"T.T.T.        } }  . .X.' | ` c z z z ........z z B B } }  . .9       o.......        T.T.",
"T.T.T.        } } } ] i.d.p.a.| ...... . .....z m B B } }  . .3       O. .....        T.T.",
"T.T.T.        } } } ] a.d.a.s.| ..........| | m m B B } }  . .3       O. .....        T.T.",
"T.T.T.        } } } | d.d.d.n.| -.............m m B C } }  . .9       o. .....        T.T.",
"T.T.T.        } } } X.a.d.a.f.*.-.-. .....| } A M M M | }  . .3       O. .....        T.T.",
"T.T.T.        } } | ..| | ..q.S.S.S.C.} | | } } } } } } }  . .3       O. .....        T.T.",
"T.T.T.        } } | ........e.Z.S.S.V.X.| | } } } } } }  . . .9       O. .....        T.T.",
"T.T.T.        } } |  .....@.q.Z.S.S.V.X.| ...... . . . .} }  .<       #. ...|         T.T.",
"T.T.T.         .| |  . ...@.9.B.S.S.V.%.| .... . ... . .} |  .<       o.....|         T.T.",
"T.T.T.T.T.T.T.        @...@.@.....| ] | | ...... ...&.        s +.+.+.#       T.T.T.T.T.T.",
"T.T.T.T.T.T.T.         . .@.@.......| ............@.@.        L .. . .%       T.T.T.T.T.T.",
"T.T.T.T.T.T.T.         ...@.@.......| ..........@.@.@.        L .... .$       T.T.T.T.T.T.",
"T.T.T.T.T.T.T.        ..@.@.@.......| ........@.@.@.,.        p ......#       T.T.T.T.T.T.",
"T.T.T.T.T.T.T.T.T.T.T.5 q 5 r | ....| ......$.3 q 5 5 d I I s e 5 0 5 T.T.T.T.T.T.T.T.T.T.",
"T.T.T.T.T.T.T.T.T.T.T.      > | | | | ......$.        | .... .<       T.T.T.T.T.T.T.T.T.T.",
"T.T.T.T.T.T.T.T.T.T.T.      7 | ............$.X       | .... .9       T.T.T.T.T.T.T.T.T.T.",
"T.T.T.T.T.T.T.T.T.T.T.      , | ............1.        ,.......1       T.T.T.T.T.T.T.T.T.T.",
"T.T.T.T.T.T.T.T.T.T.T.@     = p H J u k J t G         i H J u -     @ T.T.T.T.T.T.T.T.T.T.",
"T.T.T.T.T.T.T.T.T.T.T.T.T.T.T.                                T.T.T.T.T.T.T.T.T.T.T.T.T.T.",
"T.T.T.T.T.T.T.T.T.T.T.T.T.T.T.                                T.T.T.T.T.T.T.T.T.T.T.T.T.T.",
"T.T.T.T.T.T.T.T.T.T.T.T.T.T.T.                                T.T.T.T.T.T.T.T.T.T.T.T.T.T."
};
