/* XPM */
static char *a679222e9df045ca979f95d19962ab40AxZyehDpYV4vRRre[] = {
/* columns rows colors chars-per-pixel */
"15 19 234 2 ",
"   c None",
".  c #3B2600",
"X  c #392703",
"o  c #3D2700",
"O  c #312F00",
"+  c #362D04",
"@  c #3F2800",
"#  c #3E2900",
"$  c #3F2A00",
"%  c #3F2C00",
"&  c #382A05",
"*  c #38290A",
"=  c #3C2C0A",
"-  c #3C2C0B",
";  c #3D3000",
":  c #422700",
">  c #432700",
",  c #452700",
"<  c #422900",
"1  c #432900",
"2  c #412B00",
"3  c #432A00",
"4  c #432B00",
"5  c #432D00",
"6  c #422E00",
"7  c #422F00",
"8  c #432F00",
"9  c #432E01",
"0  c #402D03",
"q  c #452F00",
"w  c #462F00",
"e  c #482B00",
"r  c #423002",
"t  c #473100",
"y  c #443204",
"u  c #4A3200",
"i  c #412C11",
"p  c #CF9C0B",
"a  c #CE9E0E",
"s  c #D09F04",
"d  c #D09C08",
"f  c #D39D09",
"g  c #D39C0B",
"h  c #CA9910",
"j  c #D09F14",
"k  c #D3A10E",
"l  c #D8A00D",
"z  c #D0A010",
"x  c #D5A213",
"c  c #D4A016",
"v  c #D9A514",
"b  c #DBA715",
"n  c #DBA716",
"m  c #DFA515",
"M  c #DAA815",
"N  c #D6A518",
"B  c #DCA21A",
"V  c #DDA419",
"C  c #DEA41E",
"Z  c #DCA61F",
"A  c #DDA918",
"S  c #DCA91A",
"D  c #DFAA1C",
"F  c #DEAB1C",
"G  c #E2A614",
"H  c #E6AE13",
"J  c #E1AE15",
"K  c #E4AB1C",
"L  c #EDB11B",
"P  c #D6A522",
"I  c #D8AA21",
"U  c #D9A923",
"Y  c #DFAA20",
"T  c #DCAB22",
"R  c #DFA72C",
"E  c #C2A339",
"W  c #CFA23B",
"Q  c #C1A93F",
"!  c #D5A632",
"~  c #D9AA3E",
"^  c #DDB836",
"/  c #DDB539",
"(  c #E3A820",
")  c #E5AC21",
"_  c #E7AE23",
"`  c #E3AD29",
"'  c #E4B326",
"]  c #EAB221",
"[  c #EAB322",
"{  c #EFB523",
"}  c #EEB822",
"|  c #EDBC22",
" . c #E9BA26",
".. c #EBBE25",
"X. c #E2B92D",
"o. c #E6B82E",
"O. c #EFB828",
"+. c #EBBD2A",
"@. c #F3B927",
"#. c #F2B72D",
"$. c #F3BD29",
"%. c #F1BD2C",
"&. c #F1BE2F",
"*. c #F4BD2C",
"=. c #E8B736",
"-. c #E0B930",
";. c #E6BB30",
":. c #E5B936",
">. c #E8B832",
",. c #E8BD30",
"<. c #EFBE31",
"1. c #E3B03B",
"2. c #E6B23A",
"3. c #ECB93C",
"4. c #F0BF32",
"5. c #F4BF35",
"6. c #F3BF38",
"7. c #F1BF3A",
"8. c #F1BE3F",
"9. c #EAC12B",
"0. c #EEC02D",
"q. c #F2C02D",
"w. c #F1C22E",
"e. c #F6C02C",
"r. c #F5C12F",
"t. c #F2C52E",
"y. c #F9C62D",
"u. c #F8C72D",
"i. c #EBC033",
"p. c #EFC630",
"a. c #F5C632",
"s. c #F0C239",
"d. c #F2C538",
"f. c #FAC63E",
"g. c #F3CA3E",
"h. c #BCA34F",
"j. c #BFA74D",
"k. c #B7A251",
"l. c #BEA354",
"z. c #B9A35A",
"x. c #BDA359",
"c. c #CAA743",
"v. c #CDA641",
"b. c #C9A044",
"n. c #CBA447",
"m. c #CCAD41",
"M. c #C9AC44",
"N. c #CAAD47",
"B. c #C7A249",
"V. c #C5A74D",
"C. c #C6A74C",
"Z. c #CAA54D",
"A. c #CDA54D",
"S. c #C2AB4E",
"D. c #CBAD4B",
"F. c #D6AD41",
"G. c #D0A74D",
"H. c #C4A352",
"J. c #C1A551",
"K. c #C7A754",
"L. c #C5A656",
"P. c #CAA753",
"I. c #CCA653",
"U. c #C2AA52",
"Y. c #C4A952",
"T. c #CFAA52",
"R. c #CBAE50",
"E. c #CCA957",
"W. c #C3A159",
"Q. c #C3A75E",
"!. c #CAA658",
"~. c #E9BD40",
"^. c #EBBE41",
"/. c #F3BD43",
"(. c #C4A761",
"). c #CEA963",
"_. c #DDC241",
"`. c #E7C444",
"'. c #EDC541",
"]. c #EAC047",
"[. c #EEC547",
"{. c #E6C846",
"}. c #EBC941",
"|. c #EAC842",
" X c #EBC943",
".X c #E2C14E",
"XX c #E5C04E",
"oX c #E0C64D",
"OX c #EFC149",
"+X c #EDC74A",
"@X c #EEC64A",
"#X c #EAC34E",
"$X c #E9C74C",
"%X c #EBC74C",
"&X c #EDC54C",
"*X c #EDC64F",
"=X c #EAC948",
"-X c #EFC84F",
";X c #F7C242",
":X c #F0C747",
">X c #FAC545",
",X c #F0C940",
"<X c #F7CB44",
"1X c #F9C24B",
"2X c #F7CC4C",
"3X c #E3C650",
"4X c #E7C854",
"5X c #E9C950",
"6X c #EBCB54",
"7X c #EFCC56",
"8X c #EEC15A",
"9X c #EEC55B",
"0X c #EDC75C",
"qX c #E5C95C",
"wX c #E9C958",
"eX c #ECCA5E",
"rX c #F3C053",
"tX c #F2C550",
"yX c #F0C753",
"uX c #F3CB52",
"iX c #F5C855",
"pX c #F0CC54",
"aX c #F0C159",
"sX c #F1CD5B",
"dX c #F2C85C",
"fX c #F1D857",
"gX c #F2D55F",
"hX c #FFDC5D",
"jX c #FCD762",
"kX c #F7D967",
"lX c #F9D962",
"zX c #FBD268",
"xX c #FBD269",
"cX c #FDDC7D",
/* pixels */
"          . w 0 #             ",
"      0 4 l.V.V.J.4 0         ",
"    y z.R.wX%X%X7XN.h.0       ",
"  # x.cX.X=X|.|.`.5XqXU.%     ",
"& L.9XiX@X{.fXoXgXlX6X4Xj.+   ",
"0 v.8.7.<X|._.3XkXsXjX@XN.;   ",
"e ~ 5.r. .,.-.^ pXzXzX*XE w   ",
"W.1.O.y.s q.' o.2XdXzX-XeX(.. ",
"Z.3.] | y.r.f k d.[.uXhXXXE.# ",
"c.=.v q. .*.l f 0.g.,X'.yXT.4 ",
"m.:.N I s.%.p x +.9.p.i.].B.u ",
"Q :XY P >.4.z j <.t...a.~.P.o ",
"S.*X7.` Z D a h f.%.$.} ~.Q.= ",
"t F.>XZ V A A c Y ] { @.! 4   ",
"4 b./.#.G m K v f H L _ W r   ",
"i ).aX;X_ ( B D M J v 2.I.*   ",
"  : !.0XOX1XR I ;.X./ A.,     ",
"    0 k.D.8XrXyX#Xm.Y.:       ",
"      O ; L.G.n.H.0 =         "
};
