/* XPM */
static char *_660d4fd65f84227ee64a3df06309dd9y5TSQloa0eNidzub[] = {
/* columns rows colors chars-per-pixel */
"19 18 149 2 ",
"   c None",
".  c #3C2500",
"X  c #352C01",
"o  c #3C2B01",
"O  c #3E3300",
"+  c #3E300B",
"@  c #422B00",
"#  c #492C00",
"$  c #472F09",
"%  c #443003",
"&  c #4A3100",
"*  c #C59706",
"=  c #C59904",
"-  c #C89903",
";  c #C4960D",
":  c #CD9E0C",
">  c #D39D07",
",  c #D29E0B",
"<  c #C29715",
"1  c #CA9E13",
"2  c #CC9C1A",
"3  c #D19C12",
"4  c #D9921C",
"5  c #D79C1A",
"6  c #DD991E",
"7  c #CFA00D",
"8  c #D3A20C",
"9  c #CFA118",
"0  c #D3A512",
"q  c #DBA817",
"w  c #D2A01D",
"e  c #DBA119",
"r  c #DEAE1C",
"t  c #DDB01F",
"y  c #E3B11E",
"u  c #E3BB1E",
"i  c #DC9B21",
"p  c #D4A320",
"a  c #DCA424",
"s  c #DBAA22",
"d  c #D0AA2F",
"f  c #CBAB32",
"g  c #C3A63E",
"h  c #CCAA3F",
"j  c #D1AE36",
"k  c #DFB731",
"l  c #E5A325",
"z  c #E3AF25",
"x  c #E5A529",
"c  c #E6B423",
"v  c #EDB623",
"b  c #E7B925",
"n  c #ECBC23",
"m  c #E5B32C",
"M  c #EBB22B",
"N  c #EEBC2B",
"B  c #F1B428",
"V  c #F3BB2E",
"C  c #E3A830",
"Z  c #E1BB33",
"A  c #EDBB36",
"S  c #E2BF39",
"D  c #ECBB38",
"F  c #F1B231",
"G  c #F2BE35",
"H  c #FABF35",
"J  c #F9BF39",
"K  c #EBC31E",
"L  c #F0CA1F",
"P  c #EDC227",
"I  c #EEC22B",
"U  c #F0C326",
"Y  c #F3C32C",
"T  c #E7C337",
"R  c #E9C235",
"E  c #EDC933",
"W  c #E0C63D",
"Q  c #ECC23D",
"!  c #F2C333",
"~  c #FCC335",
"^  c #FFC933",
"/  c #F6C33B",
"(  c #F8C23B",
")  c #FBD23E",
"_  c #B6A344",
"`  c #BEA258",
"'  c #CB9D4F",
"]  c #C5A344",
"[  c #CAA446",
"{  c #C4A844",
"}  c #C3A44E",
"|  c #C9A54C",
" . c #C3AC4A",
".. c #CBAA4D",
"X. c #D2A24E",
"o. c #CBB142",
"O. c #CBB049",
"+. c #C5A653",
"@. c #CFA654",
"#. c #C3AC54",
"$. c #CAAA57",
"%. c #C3A75E",
"&. c #C4AA5F",
"*. c #CAAA5D",
"=. c #D9A552",
"-. c #E4BC42",
";. c #EEBD42",
":. c #E5BE49",
">. c #EABA4C",
",. c #FABF49",
"<. c #E6BD51",
"1. c #DFC04B",
"2. c #EDC343",
"3. c #E3C24F",
"4. c #ECC54B",
"5. c #E0C84C",
"6. c #EACD4D",
"7. c #F9C444",
"8. c #FBCC41",
"9. c #F5CC4A",
"0. c #FACB4C",
"q. c #EFD34C",
"w. c #FCD240",
"e. c #F4D24C",
"r. c #FCD04D",
"t. c #E5C255",
"y. c #EEC253",
"u. c #EDCB53",
"i. c #E8C658",
"p. c #F2C354",
"a. c #F7CE5C",
"s. c #F9CF5F",
"d. c #EDD25F",
"f. c #FAD452",
"g. c #F2D850",
"h. c #FEDD53",
"j. c #F8D45C",
"k. c #FFD859",
"l. c #FEDB5B",
"z. c #FFD85C",
"x. c #FFDC5D",
"c. c #FCE059",
"v. c #FCE15C",
"b. c #FFDD63",
"n. c #FFE061",
"m. c #FFE167",
"M. c #FFE564",
"N. c #FFE168",
"B. c #FFEA68",
/* pixels */
"        @ @ ` $.....} &.@ %           ",
"      @  .d.u.:.s.<.t.1.o._ O         ",
"    @  .6.T R h.r.N.m.h.W 5. .o       ",
"  # [ 2.! 8.8.I ) Q x.c.g.B.3.[ #     ",
"% | 2.V ^ ( D c 8 Q f.q.v.l.-.4.] $   ",
". f I n Y D p : : m 0.f.n.j.b.R j .   ",
"#.S u Y I 1 9 N , 3 / Z e.a.z.) S *.o ",
"{ Z b I P I ! ! , , I P E l.f.w.Q | @ ",
"g 2.z y n P P n > 8 U K P k M.! 9.[ # ",
"..p.a e v U Y Y 8 , P L K ! D G ;.... ",
"+.y.C l M v Y n 8 : I K U V ( G 2...@ ",
"&.y.7.6 l F M c 7 7 Y I N H ~ v 2.#.o ",
". h 7.i 4 x a b 7 0 N ! ! V V ~ d o   ",
"+ +.y.,.i 5 s * = - 8 c c B J ;.] O   ",
"  % | y.0.2 ; 1 t r q s s m ;.[ &     ",
"    # } i.4.9.< 2 w s 2.4.u...#       ",
"      @ #. .t.s.>.p.p.i.O.#.@         ",
"        X % %.' =.X.@.%.o X           "
};
