/* XPM */
static char *ddddece1a8e14eedb17538123bef6499mAKye4ZU4Nc6bSCa[] = {
/* columns rows colors chars-per-pixel */
"15 18 232 2 ",
"   c None",
".  c #2F2C00",
"X  c #342707",
"o  c #332B00",
"O  c #372A00",
"+  c #3D2900",
"@  c #3F2800",
"#  c #3F2B00",
"$  c #392C00",
"%  c #3F2C00",
"&  c #3C2908",
"*  c #3C2909",
"=  c #3D2A0A",
"-  c #3F3100",
";  c #412400",
":  c #422800",
">  c #432800",
",  c #422900",
"<  c #412A00",
"1  c #432A00",
"2  c #432B00",
"3  c #412C00",
"4  c #432C00",
"5  c #422F00",
"6  c #432F00",
"7  c #432E01",
"8  c #462D00",
"9  c #402F04",
"0  c #492F00",
"q  c #413000",
"w  c #433005",
"e  c #493000",
"r  c #402B10",
"t  c #CB9A00",
"y  c #CA9B05",
"u  c #CD9B04",
"i  c #CE9F07",
"p  c #CD9A09",
"a  c #CF980A",
"s  c #C99D09",
"d  c #CB9F0B",
"f  c #C89B0C",
"g  c #CD990F",
"h  c #CA9D0C",
"j  c #CD9D0D",
"k  c #D79A04",
"l  c #D39C04",
"z  c #D89C06",
"x  c #D0980F",
"c  c #D19D0C",
"v  c #D29D0F",
"b  c #D29F0E",
"n  c #D39F0E",
"m  c #D59D0C",
"M  c #D59E0E",
"N  c #D69F0F",
"B  c #CB9C12",
"V  c #CE9D10",
"C  c #D39911",
"Z  c #D09B11",
"A  c #D29D11",
"S  c #D29F10",
"D  c #D59F19",
"F  c #D3A207",
"G  c #D0A109",
"H  c #D5A20B",
"J  c #D6A00C",
"K  c #D3A011",
"L  c #D6A211",
"P  c #D0A314",
"I  c #D5A014",
"U  c #D6A314",
"Y  c #D2A516",
"T  c #DCA212",
"R  c #DAA718",
"E  c #DBA61A",
"W  c #DEA51A",
"Q  c #D5AF1E",
"!  c #D8A818",
"~  c #DBAC1E",
"^  c #DCAD1F",
"/  c #E3A711",
"(  c #E5A917",
")  c #E5AE16",
"_  c #E2B019",
"`  c #E4B01E",
"'  c #E7B41D",
"]  c #EDB41D",
"[  c #D1AE20",
"{  c #DBAC20",
"}  c #DFAA2A",
"|  c #DDB227",
" . c #C5A63C",
".. c #C5A93B",
"X. c #D6A735",
"o. c #D1A83C",
"O. c #D7A83C",
"+. c #DEBC37",
"@. c #D7B338",
"#. c #E3A820",
"$. c #E0AC24",
"%. c #E5AD26",
"&. c #E2B126",
"*. c #EBB225",
"=. c #E7B12B",
"-. c #EAB229",
";. c #E1BA2F",
":. c #E4B92C",
">. c #EBB82B",
",. c #F1B523",
"<. c #F0B928",
"1. c #F2B829",
"2. c #F5BB29",
"3. c #F1BA2C",
"4. c #F4BD2C",
"5. c #E2AE34",
"6. c #E0AF38",
"7. c #E1AE3B",
"8. c #E0B332",
"9. c #E7BA39",
"0. c #E6B93A",
"q. c #E3BE3A",
"w. c #ECBB3B",
"e. c #F4BE38",
"r. c #F3BE3C",
"t. c #EAC02E",
"y. c #F5C12F",
"u. c #E7C034",
"i. c #E8C03A",
"p. c #F1C033",
"a. c #F5C231",
"s. c #F1C437",
"d. c #BCA34F",
"f. c #BEA64E",
"g. c #BCA056",
"h. c #BEA555",
"j. c #BBA55A",
"k. c #BEA95A",
"l. c #C49B41",
"z. c #C5A143",
"x. c #CBA746",
"c. c #C5AC45",
"v. c #CFA843",
"b. c #CCAD43",
"n. c #C9AC44",
"m. c #CAAD47",
"M. c #C6A74D",
"N. c #CBA248",
"B. c #C8A549",
"V. c #C9A44B",
"C. c #CFA448",
"Z. c #C9AB4B",
"A. c #D3A842",
"S. c #DFBB40",
"D. c #DEBA48",
"F. c #C1A551",
"G. c #CBA655",
"H. c #C8A456",
"J. c #C2AA52",
"K. c #C7A953",
"L. c #C7A855",
"P. c #C6AC55",
"I. c #C7AE54",
"U. c #CDA850",
"Y. c #C9A956",
"T. c #CFAB55",
"R. c #CDAA59",
"E. c #CEAB5A",
"W. c #CDB054",
"Q. c #F0BD40",
"!. c #F1BF44",
"~. c #F5BF45",
"^. c #F1BF50",
"/. c #C1A460",
"(. c #C5A761",
"). c #CDAB63",
"_. c #CFAA64",
"`. c #E4C247",
"'. c #E7C444",
"]. c #E9C440",
"[. c #EBC441",
"{. c #E4C946",
"}. c #EBC846",
"|. c #EDC844",
" X c #E0C34B",
".X c #E4C64E",
"XX c #EEC549",
"oX c #EBC74D",
"OX c #E5C94B",
"+X c #E9CA4B",
"@X c #EFCD48",
"#X c #ECCA4E",
"$X c #F1CB42",
"%X c #FDC846",
"&X c #F1C34B",
"*X c #F8C548",
"=X c #FBC54B",
"-X c #F1C848",
";X c #F1C84C",
":X c #F0CA4D",
">X c #E4C050",
",X c #E7C353",
"<X c #E5C453",
"1X c #E5C554",
"2X c #E6C456",
"3X c #EAC753",
"4X c #ECC550",
"5X c #EDC553",
"6X c #EFC056",
"7X c #E9C555",
"8X c #EBC755",
"9X c #EAC656",
"0X c #E9C952",
"qX c #EFCB50",
"wX c #ECC856",
"eX c #EFCC56",
"rX c #E7C65B",
"tX c #EBC258",
"yX c #EEC15A",
"uX c #E5C95E",
"iX c #EFCE5B",
"pX c #EBCB5E",
"aX c #F0C253",
"sX c #F2CA51",
"dX c #F1CD52",
"fX c #F1CE56",
"gX c #F2CF5B",
"hX c #F2D054",
"jX c #F9D05A",
"kX c #F1CB60",
"lX c #FFDC61",
"zX c #FAD97A",
/* pixels */
"      w 2 g.K.M.F.2 5         ",
"    q j.W.rX3XoXeXm.d.5       ",
"  % h.zX2XhX}.|.'.0XuXJ.%     ",
"$ L.tXaXjX+XOX.XiXwXD.<XI.o   ",
"# v.*XQ.9.+.{. X2X>X5X:Xm.O   ",
"; O.e.I j :.$X@X#X>X7XqX .5   ",
").7.3.H u a.^ u.q.gX7XdXpX/.& ",
"U.5.<.t F J n h ;.@.fXlX7XE.# ",
"x.w.` G i 4.M n Y i.].].5XV.0 ",
"b.8.! P f K n n p d t.s.XXz.2 ",
"c.-X&.B { p.S n M ' _ y.9.T.5 ",
"f.sX$.C S E >.D C 2.z ] !.(.& ",
"5 o.%XW M L E =.%.( k ,.X.2   ",
"2 l.*X<./ T p g I l ) -.A.9   ",
"r _.6Xr.*.#.x V d y ~ 7.G.X   ",
"  2 G.kX&X~.} | Q [ S.V.2     ",
"    # k.Z.yX^.:X`...I.e       ",
"      . - Y.C.N.E.8 &         "
};
