/* XPM */
static char *result[] = {
/* columns rows colors chars-per-pixel */
"35 79 22 1 ",
"  c black",
". c #010102",
"X c #0D0A17",
"o c #12191B",
"O c #0A112B",
"+ c #1B323E",
"@ c #401A22",
"# c #7F3F38",
"$ c #272744",
"% c #005652",
"& c #394775",
"* c #87102A",
"= c #90352F",
"- c #A24C57",
"; c #65709C",
": c #7A9CE7",
"> c #FAB6A4",
", c #A3A9C4",
"< c #B8C0FD",
"1 c #DFE1E9",
"2 c #F1FFE8",
"3 c None",
/* pixels */
"333333333333333...33333333333333333",
"333333333333333.==.333.333333333333",
"33333333........@@=.3.=.33333333333",
"3333333.========.@@=.@=.33333333333",
"33333333.@@@@@@@=.@@@@=.33333333333",
"333333333.@@@@@@@@@@@@@.33333333333",
"3333333....@@@@@@@@@@@@.33333333333",
"33333..==@@@@@@@@@@@@@@=.3333333333",
"333..==@@@@@@@@@@@@@@@@=.3333333333",
"33.==@@@@@@@@@@@@@@@@@@@=.333333333",
"333..@@@@@@@@@@@@.@@@@@@=.333333333",
"33333..@@@@@@@@@.-.@@@@@=.333333333",
"3333.=@@@@@@@@@.---.@@@@@=.33333333",
"333.=@@@@@@@@@.-->>-.@@@@=.33333333",
"33.=@@@@@@@@@@.->>>>-.@@@=.33333333",
"33.@@@@@@@@@@@....>.>-.@@=.33333333",
"333...@@@@@@@.11o+.->.+..=.33333333",
"33333.=@@@@@@.>2o%->>1%.3..33333333",
"33333.=@@@@@@.>>>>->>>>.33333333333",
"3333.=@@@@@@.->>>->>>>>.33333333333",
"3333.=@..@@@.->>>>>>>>.333333333333",
"3333.=.3.@@.3.-->>>>>>.333333333333",
"33333.333.@.3.-.-->>>.3333333333333",
"333333333.@.3.>-..---.3333333333333",
"3333333333.33.>---...33333333333333",
"33333333333 .>>>-.33333333333333333",
"333333333  %%.>>>>..    33333333333",
"333333   %%%%%..>>.++.>>  333333333",
"33333 %%%++++%%%..+++.>>>>. 3333333",
"33333 %%++++++++% ++++.>>>>>.    33",
"33333 %%+++++++++% ++o.--->>>> >> 3",
"33333 %++++o+++++% ++o -----  >>>> ",
"3333 %%+++o o++++++ o  ---  >>>>>>>",
"3333 %++++o o++++++  OO   OO >>>---",
"3333 %++++o o+++++++ OOOOOOO ----  ",
"3333 %++++ oo+++++++  OOOO       33",
"3333 %+++o oo++++++ OO    333333333",
"333 %++++o ooo++++++  oo 3333333333",
"333 %++++o oooo++++++ oo 3333333333",
"333 %+++oo ooooo++++++ oo 333333333",
"333 %+++oo oooooooo+++ oo 333333333",
"33 %++++o oooooooo      o 333333333",
"33 %++++o oo      111111  333333333",
"33 %+++oo   ,,,,,,,,,,,111 33333333",
"33 %+++oo ,,            11 33333333",
"3 %++++oo   $$$$$$$$$$$$   33333333",
"3 %++++oo $$$$$$$$$$$$$$$$ 33333333",
"3 %+++ooo $$$$O$$$$$$$OX$$$ 3333333",
"3 %+++ooo $$$$$XX$$$$OXO$$$ 3333333",
" %++++ooo $$$$$$OXXOOXOO$$$ 3333333",
" %+++oooo $$$$$$OOXX OO$$$$ 3333333",
" %+++oooo $$$$$$OXXX XO$$$$ 3333333",
" %++ooooo $$$$$OOXX XOO$$$$$ 333333",
" %+ooooo #  $$$OXXX XOO$$$$$ 333333",
"3 oooooo  ::  OOXX XXO$$$$$$ 333333",
"3 oooo  $$  :: XX  XOO$$$$$$ 333333",
"33    $$$ ::   X 3 XOO$$$$$$ 333333",
"33 O$$$$$ ::< XX 3 XOO$$$$$$ 333333",
"33 OO$$$O ::< X 3 XXOO$$$$$$ 333333",
"33 OOOOO ::< XX 3 XXOOO$$$$$ 333333",
"333 OOOO ::< X 3 XXXOOO$$$$ 3333333",
"333 XOOO :< XX 3 XXXXOOO$$$ 3333333",
"333 XXX ::< X 333 XXXXXOOOX 3333333",
"3333 XX :< X 33333 XXXXXXXX 3333333",
"3333 X :<   3333333 X  XXX 33333333",
"3333   <  3333333333 &&   333333333",
"333 ;;  & 3333333333 &&&& 333333333",
"333 ;;;& 33333333333 &&& 3333333333",
"333 ;;;& 33333333333 &&& 3333333333",
"333 ;;& 333333333333 &&& 3333333333",
"333 ;;& 333333333333 && 33333333333",
"33 ;;& 3333333333333 && 33333333333",
"33 ;;& 333333333333 &&& 33333333333",
"33 ;;& 333333333333 &&& 33333333333",
"33 ;;& 333333333333 &&& 33333333333",
"33 ;** 333333333333 &&** 3333333333",
"33 *<<* 33333333333 **,,* 333333333",
"33 <<<*< 3333333333 ,,,,,*  3333333",
"33 <<<*< 3333333333 ,,,,,,,, 333333"
};
