/* XPM */
static char *_149_79bf7b7f847d31652e7e2fa967a5d12542c8e0ddce5baf1c30155888ebe914b4[] = {
/* columns rows colors chars-per-pixel */
"54 70 230 2 ",
"   c #020102",
".  c #01030A",
"X  c #09050A",
"o  c #040A0B",
"O  c #0B0C0B",
"+  c #080705",
"@  c #14120E",
"#  c #010414",
"$  c #040914",
"%  c #0C0E14",
"&  c #00051B",
"*  c #020C1D",
"=  c #0A0C19",
"-  c #120F15",
";  c #0C1218",
":  c #131313",
">  c #13141A",
",  c #1B1B1B",
"<  c #171819",
"1  c #140C0A",
"2  c #27241E",
"3  c #000622",
"4  c #010B23",
"5  c #010C2D",
"6  c #02072A",
"7  c #031124",
"8  c #09162D",
"9  c #171C25",
"0  c #000A36",
"q  c #011233",
"w  c #00143B",
"e  c #081B39",
"r  c #111C3A",
"t  c #221F22",
"y  c #17263A",
"u  c #112134",
"i  c #242424",
"p  c #24292C",
"a  c #2C2B2D",
"s  c #252628",
"d  c #34342B",
"f  c #282A36",
"g  c #322F36",
"h  c #333333",
"j  c #3C3C3C",
"k  c #383838",
"l  c #2D2E2F",
"z  c #423F3D",
"x  c #3E413B",
"c  c #42423C",
"v  c #000C46",
"b  c #001444",
"n  c #011B44",
"m  c #00134A",
"M  c #031B49",
"N  c #000D54",
"B  c #011757",
"V  c #151D4C",
"C  c #052248",
"Z  c #192847",
"A  c #032559",
"S  c #172C59",
"D  c #1A365A",
"F  c #273446",
"G  c #3C3F45",
"H  c #283C59",
"J  c #273350",
"K  c #001A64",
"L  c #012769",
"P  c #193867",
"I  c #022979",
"U  c #063879",
"Y  c #1A3A76",
"T  c #0F3267",
"R  c #253B62",
"E  c #213E76",
"W  c #403E41",
"Q  c #3C4346",
"!  c #3B4856",
"~  c #2F4559",
"^  c #0C447D",
"/  c #15427B",
"(  c #1C4579",
")  c #2B4667",
"_  c #394A67",
"`  c #38567D",
"'  c #2E4976",
"]  c #434343",
"[  c #4B4B4C",
"{  c #464946",
"}  c #4F514D",
"|  c #464D55",
" . c #48525A",
".. c #535354",
"X. c #5D5C5D",
"o. c #555759",
"O. c #534E52",
"+. c #67675E",
"@. c #495464",
"#. c #535A67",
"$. c #465572",
"%. c #5A646A",
"&. c #576373",
"*. c #636363",
"=. c #6C6C6C",
"-. c #666767",
";. c #72726A",
":. c #696E72",
">. c #736E75",
",. c #737272",
"<. c #7A7A7B",
"1. c #787777",
"2. c #726F69",
"3. c #665D62",
"4. c #84837E",
"5. c #053A86",
"6. c #143C88",
"7. c #08458B",
"8. c #134686",
"9. c #094996",
"0. c #184C95",
"q. c #175399",
"w. c #105297",
"e. c #284A85",
"r. c #344A82",
"t. c #28548A",
"y. c #37588A",
"u. c #285997",
"i. c #325C99",
"p. c #214D98",
"a. c #2A619B",
"s. c #376298",
"d. c #3B638D",
"f. c #0E58A7",
"g. c #1659A3",
"h. c #0853B5",
"j. c #1159AF",
"k. c #255AA5",
"l. c #1B63AE",
"z. c #1A66AB",
"x. c #0E62BA",
"c. c #1A64BA",
"v. c #1D6BBB",
"b. c #1568BA",
"n. c #2463AC",
"m. c #2A64A6",
"M. c #3764A7",
"N. c #2264B2",
"B. c #236BBA",
"V. c #2A69B5",
"C. c #3569B3",
"Z. c #445884",
"A. c #4A6589",
"S. c #576C8E",
"D. c #7C7B81",
"F. c #647692",
"G. c #436AA2",
"H. c #0B67CA",
"J. c #096CC8",
"K. c #1B6CC4",
"L. c #146BCC",
"P. c #1669C5",
"I. c #1571C7",
"U. c #036BD4",
"Y. c #036BDB",
"T. c #0C6BD7",
"R. c #146CD2",
"E. c #0571DA",
"W. c #1371D9",
"Q. c #236AC3",
"!. c #2672C0",
"~. c #036EE3",
"^. c #0A74E4",
"/. c #1070E0",
"(. c #7A858D",
"). c #838382",
"_. c #8D8D8D",
"`. c #898788",
"'. c #8D9396",
"]. c #939393",
"[. c #9C9C9B",
"{. c #989798",
"}. c #8E8F90",
"|. c #A09C99",
" X c #9B9EA2",
".X c #8C92A2",
"XX c #9DA7A8",
"oX c #A2A2A2",
"OX c #ABACAC",
"+X c #A5A6AC",
"@X c #A9A9B3",
"#X c #B2B2B3",
"$X c #BAB9B6",
"%X c #BCBCBC",
"&X c #B6B7BA",
"*X c #B1B1B1",
"=X c #C0BDBB",
"-X c #BEC1BF",
";X c #C2C1BE",
":X c #B9BEC5",
">X c #B8C0C2",
",X c #C3C3C3",
"<X c #CACACB",
"1X c #C7C8C8",
"2X c #D5D5D4",
"3X c #DADADA",
"4X c #D7DAD6",
"5X c #D0D3CE",
"6X c #DEE5DE",
"7X c #E4E3DC",
"8X c #CFD8E2",
"9X c #E2DDE3",
"0X c #E4E3E3",
"qX c #ECECEB",
"wX c #E8E7E8",
"eX c #F0EDED",
"rX c #F4F4ED",
"tX c #FAFAEE",
"yX c #EAEEF2",
"uX c #EEF4F7",
"iX c #F5F4F4",
"pX c #FAF6F5",
"aX c #F5FAF6",
"sX c #FCFCF6",
"dX c #F5F5FA",
"fX c #FBF6FB",
"gX c #F5FBFC",
"hX c #FDFDFD",
"jX c #F0EFF2",
"kX c None",
/* pixels */
"kXkXkXkXkXkXkXkXkXkXkXkXkXkXkXkXkXkXkXkXkXkXkXkXkXkXkXkXkXkXkXkXkXkXkXkXkXkXkXkXkXkXkXkXkXkXkXkXkXkXkXkXkXkX",
"kXkXkXkXkXkXkXkXkXkXkXkXkXkXkXkXkXi O < , O O : : : : : : : : : + < : O , kXkXkXkXkXkXkXkXkXkXkXkXkXkXkXkXkX",
"kXkXkXkXkXkXkXkXkXkXkXkXkXkXkXkX|.h - X , < : : : < : : < : : < < , : : i ].kXkXkXkXkXkXkXkXkXkXkXkXkXkXkXkX",
"kXkXkXkXkXkXkXkXkXkXkXkX*.i , i o.;X0X3X2X2X2X3X4X2X3X2X2X3X2X3X3X2X2X2X<X-.i i , *.kXkXkXkXkXkXkXkXkXkXkXkX",
"kXkXkXkXkXkXkXkXkXkXkXkX]       ..qXhXhXhXhXhXhXhXhXhXhXhXhXhXhXhXhXhXhXiX*.      h kXkXkXkXkXkXkXkXkXkXkXkX",
"kXkXkXkXkXkXkXkXkXkXkX,.kX]._._.#XiXhXaXhXhXaXhXhXhXhXhXhXhXhXhXhXhXhXhXiX$X_._.].<.-.,.kXkXkXkXkXkXkXkXkXkX",
"kXkXkXkXkXkXkXkXkXkX,   kXkXaXhXhXhXhXhXhXhXhXhXhXhXhXhXhXhXhXhXhXhXhXhXhXhXhXhXhX<X  : kXkXkXkXkXkXkXkXkXkX",
"kXkXkXkXkXkXkXkXkXkXi   #XhXhXpXhXhXhXhXhXhXhXhXhXhXhXhXhXhXhXhXhXhXhXhXhXhXaXhXaX,X  < kXkXkXkXkXkXkXkXkXkX",
"kXkXkXkXkXkXkXkXkXkX: O *XhXhXfXhXaXhXhXhXpXhXhXhXhXhXhXhXhXhXhXhXhXhXhXaXhXhXhXhX%X  , $XkXkXkXkXkXkXkXkXkX",
"kXkXkXkXkXkXkXkXkXkXQ i =XhXhXhXiXhXhXaXhXhXhXaXhXhXhXhXhXhXhXhXhXhXhXhXhXhXhXaXhX2Xi h oXkXkXkXkXkXkXkXkXkX",
"kXkXkXkXkXkXkXkXi [ $X2XiXaXhXiXhXhXhXiXhXaXhXhXhXhXhXhXhXhXhXhXhXhXiXhXhXiXhXhXaXpX2X,X..i kXkXkXkXkXkXkXkX",
"kXkXkXkXkXkXkXkX  l 0XhXhXhXhXhXhXpXhXhXhXhXhXhXhXhXhXhXhXhXhXhXhXhXhXhXhXhXhXsXhXhXhXwX]   ).kXkXkXkXkXkXkX",
"kXkXkXkXkXkXkXkX  j 0XaXhXhX[.o.o.X.o.o.3.%XhXhXhXhXhXhXhXhXhXhX<X-.} X.o.[ ..|.hXhXhX9X]   4.kXkXkXkXkXkXkX",
"kXkXkXkXkXkXkXkX  h 3XhXpXhX1.    +     O oXhXhXhXhXhXhXhXhXhXhXOX,           X.iXiXhXqXj   `.kXkXkXkXkXkXkX",
"kXkXkXkXkXkXkXkX  k 3XhXhXhX=.          % |.hXaXhXhXhXhXhXhXhXhXOX-           *.aXhXhX9X]   ).kXkXkXkXkXkXkX",
"kXkXkXkXkXkXkXkX  k 3XhXhXpX,.          : [.hXhXhXhXhXhXhXhXhXhXOX< +         -.iXhXhXwX]   ).kXkXkXkXkXkXkX",
"kXkXkXkXkXkXkXkX  k 4XhXhXsX1.  +       O oXpXhXhXaX1X<XpXhXaXhX*X<           -.pXfXfXyX]   ).kXkXkXkXkXkXkX",
"kXkXkXkXkXkXkXkX  k 3XhXsXpX1.        + + XXfXhXhX1Xh i #XhXpXhX@Xt         O X.dXhXhX9XG   4.kXkXkXkXkXkXkX",
"kXkXkXkXkXkXkX}.. j 2XjXhXhX1.    @ . O , oXhXaXiXOX< : #XiXaXhX*X< :   + :   -.jXfXaX9X[   ).kXkXkXkXkXkXkX",
"kXkXkXkXkXkXkXkXhX1X< . #XhXhXhXhXhXhXhXfXhXhX[.+         + ].hXhXfXhXhXgXsXhXhXhX<XX X #XkXkXkXkXkXkXkXkXkX",
"kXkXkXkXkXkXkXkXhX&X, . &XhXhXaXhXhXaXhXhXhXhX[.+ O       + 4.hXhXrXaXsXgXgXgXaXhX%X  , &XkXkXkXkXkXkXkXkXkX",
"kXkXkXkXkXkXkX$XX.X.- X #XdX&X-.].pXhXhXhXhXaX2X{._._._.}.].2XhXsXhXhXgXyX X:.*XhX,X  o [ =.kXkXkXkXkXkXkXkX",
"kXkXkXkXkXkXkX].+       &XhX-.. [ eXhXhXhXhXhXhXhXhXhXhXhXaXaXhXrXhXsXgXuX*.  X.rX<X        (.kXkXkXkXkXkXkX",
"kXkXkXkXkXkXkX].    2 2 $XhX1.. { 1X3X3X2X2X3X2X2X2X3X2X3X3X2X3X4X2X3X6X1XO.+ %.sX;X< i +   `.kXkXkXkXkXkXkX",
"kXkXkXkXkXkXkX].  d 7XsXsXsX1.  .     +     O               +   +   +         3.yXsXsXwXc + 4.kXkXkXkXkXkXkX",
"kXkXkXkXkXkXkX'.  d 4XtXsXsX_.: : +   , , O   + < <     < , O   + @ t   X - > <.sXhXaX0Xc   `.kXkXkXkXkXkXkX",
"kXkXkXkXkXkXkX{.  x 4XtXsXrXiXwX[.O i ,X2XX.  X.4XOX, , oX4XX.  { 2X<Xs + `.eX0XgXhXaX6X{   4.kXkXkXkXkXkXkX",
"kXkXkXkXkXkXkX'.o l 4XsXaXhXhXpXOX: , qXqXX.  X.pX,X, : &XhX1.  ..qX0Xd 1 [.hXhXgXgXgXyXx   4.kXkXkXkXkXkXkX",
"kXkXkXkXkXkXkXkXXX'.%. .! o.#XhX9X#X[.X.[ , O , } G +   k ..s   : ..X.|.OX7XpX%X#. .! #.'.@XkXkXkXkXkXkXkXkX",
"kXkXkXkXkXkXkXkXuX8X8 # * . `.hXhXhX0X:               +         +   + 4XsXsXhX[.. * 7 7 :XkXkXkXkXkXkXkXkXkX",
"kXkXkXkXkXkXkX&XS.` ) H * $ k =.-.,.-.].].].}.[._.{._._.].].}.].'.].`.;.+.2.X.{ * * H H $.&.kXkXkXkXkXkXkXkX",
"kXkXkXkXkXkXkX.X4 C ` A.Z # .       , wXhXaXhXhXhXhXhXhXiXhXhXpXgXgXqX2 +     o . y A.y.e 5 (.kXkXkXkXkXkXkX",
"kXkXkXkXkXkXkXF.A T u.A.n & . X     , OX%X,X=X$X=X=X;X;X$X;X$X;X,X%X*X, +     o # e d.a.T C S.kXkXkXkXkXkXkX",
"kXkXkXkXkX:.& S i.i.a.s.n 4   + +   . O O + X : O X + 1 O + 1 O @ + O   o       X q G.m.z.t.D & &.kXkXkXkXkX",
"kXkXkXkXkX&.5 T i.M.M.s.e #   + .     .     .   .     .     .                 X & 0 y.M.M.s.D 3  .kXkXkXkXkX",
"kXkXkXG > & 6 L C.u.L m _ #.O.X.h + i <XwXwXwXwXwXOX9 - +XjXjXwXqXeX5Xs   l X.o.#.@.b K 0.M.P 6 4 ; s kXkXkX",
"kXkXkX9 & 3 0 U V.9.L m ) &.-.X.c + , 7XhXsXhXhXhX<X> = &XfXhXfXpXhX6Xp + k *.*.#.$.v K q.V.^ w 3 $ - kXkXkX",
"kXkXkXp # n / 0.N.l.9.Y S F Q -.} k c -.2.2.;.2.>.1._.`.<.,.>.>.,.1.+.x k O.#.@.J Z P 6.g.z.w./ C 3 = kXkXkX",
"kXkXkX9 3 ' u.B.c.N.C.G.M & F %.%.X.} @       +   h 0XwX] +     + + O { o.:.&.F & M G.C.v.I.b.z.( 5 > kXkXkX",
"kXkX'.u 6 / N.Q.K.c.p.6.S Z J ! Q | k     d c c c ,.6XuX,.c { c g   o Q ! ! ! D C S e.q.x.J.J.B.8.0 5 .XkXkX",
"kX, . 3 m 9.c.R.R.j.I N r.Z.S 5 4 * # $ @ [.rXrXrXpXhXsXaXaXrXpX+X= # $ $ 4 q C Z.' B 5.h.H.H.K.8.m 6 & s kX",
"kX, * w B 9.R.R.R.h.5.K Y r.P b C C 5 # = oXsXhXhXhXaXaXsXsXhXhX#X9 # 4 e w n S y.Y N 5.h././.R.g.A q 4 9 kX",
"kX= q e.N.Q./.~.Y.W.c.m.K B Y s.t.y.' 0 3 +XhXpXaXhXhXgXhXaXhXhX*X7 7 ) d.y.t.Y N I N.Q.L.T.Y.H.c.m.t.b 4 kX",
"kX8 w t.V.H./.~.^.T.K.B.U K U a.M.s.y.0 r +XjXfXhXhXgXgXgXhXhXfX+X8 q ` s.m.s.6.B K N.H.T.^.Y.J.j.N.i.C e kX",
"kXu n t.N.P.Y.~.Y.U.L.v.w.0.U I 5.u.i.n 3 y [ ].pXhXhXhXhXdX'.[ f 4 q r.m.7.I U 6.0.I.J.E.E.U.E.R.N.a.b r kX",
"kX7 q y.k.Q.R.~.^.Y.J.b.z.C.U N 5.k.t.M 3 # + O.rXsXhXhXgXdX>.. o & b r.m.5.N 5.M.V.b.J.E.E.U.L.K.n.s.w 8 kX",
"kXkXF.D U q.K.H.W.U.J.K.9.U T U 9.k.t.n 4 | 1.*XtXsXhXhXgXhX#X>. .& w t.z.9.7.5.U 5.P.J.E.T.R.P.w.U P S.kXkX",
"kXkXkXy 0 Y n.Q.L.H.P.!.I B 6.C.B.l.t.C 7  XhXtXsXsXsXhXgXhXhXhX&Xu b u.c.c.B.6.K I v.J.R.L.Q.V.8.C 8 kXkXkX",
"kXkXkX#.~ ) e.0.w.j.z.m.L N U V.K.v.u.n * <.>X:X>X>X-X&X=X=X=X=X`.4 b k.b.I.B.7.N L C.z.j.w.q.( ) ~ ! kXkXkX",
"kXkXkXkXkX&.5 b B L a.s.B v U !.L.K.q.w & ; ; > 9 > < < @ < , , : # b q.P.L.B.5.B A s.a.A M M q _ kXkXkXkXkX",
"kXkXkXkXkX%.# 6 6 C ` A.V v U K.H.K.q.w & . . %                   * m p.K.P.B.8.v M Z.Z.C 4 3 #  .kXkXkXkXkX",
"kXkXkXkXkXkXkX>.& & * u 6 v 7.P.H.K.m.n & .     o           . . . $ v u.v.x.v.8.m 6 r 8 4 . 3.kXkXkXkXkXkXkX",
"kXkXkXkXkXkXkXkX. # o * 5 b 7.I.L.b.q.n #   X               . . . & m u.v.I.K.7.m 0 & X . + kXkXkXkXkXkXkXkX",
"kXkXkXkXkXkXkXkXX . . . Z E 9.I.K.N.u.n &     +             . . . * b p.c.K.c.g.Y D 3 $     kXkXkXkXkXkXkXkX",
"kXkXkXkXkXkXkXkX. . . * ~ y.z.B.v.V.e.w # X   +               . . & 0 e.V.B.z.n.i.R 3 # .   D.kXkXkXkXkXkXkX",
"kXkXkXkXkXkXkXkX@.G > . Z ~ ( ^ 8.( D 5 # X                 .   . & 3 H ( 8.8.( Y H 4 X Q #.kXkXkXkXkXkXkXkX",
"kXkXkXkXkXkXkXkXkXkXs $ . 4 q w w 0 5 & . X . .   o           +   . # 4 6 w w q 7 4 $ 9 kXkXkXkXkXkXkXkXkXkX",
"kXkXkXkXkXkXkXkXkXkXp . 9 a F Z F F f f t a k < . .         , s a a g l g F y F F u   p kXkXkXkXkXkXkXkXkXkX",
"kXkXkXkXkXkXkXkXkXkX, O OXeXhXdXfXdXpXfXfXjXjX'.>   .     O `.iXiXdXpXeXfXpXiXkXkXkX  , kXkXkXkXkXkXkXkXkXkX",
"kXkXkXkXkXkXkXkXkXkXa . OXpXfXhXpXsXfXhXhXhXhX{.> . % : + @ 4.wXeXgXgXhXfXsXhXkXkXkX: d kXkXkXkXkXkXkXkXkXkX",
"kXkXkXkXkXkXkXkXkXkXp o OXhXhXfXsXhXsXpXhXaXsX[.  s )._.h . a *..XyXgXhXfXhXhXkXkXkXkX].=.o.kXkXkXkXkXkXkXkX",
"kXkXkXkXkXkXkXkXkXkX9 o OXsXhXhXpXsXhXpXhXhXpX{.t { <XkX{     o o.6XuXaXhXkXkXkXkXkXkXkXQ o kXkXkXkXkXkXkXkX",
"kXkXkXkXkXkXkXkXkXkX%.%.<XsXpXhXhXhXhXhXhXaXsX|.@ k kXkX_.o.p   h _.XXXX XoX[.[.kXkXkX}.l o (.kXkXkXkXkXkXkX",
"kXkXkXkXkXkXkXkXo k kXkXaXhXsXhXhXgXgXgXdXhXhX_.@ ] kXkXkXkX:.        o . X +         o   o kXkXkXkXkXkXkXkX",
"kXkXkXkXkXkXkXkX  a kXkX-X$X&X%X$X%X%X$X$X>X*X=.@ j kXkXkXkXkX] c z Q ] G z j ] c j j ] Q ] kXkXkXkXkXkXkXkX",
"kXkXkXkXkXkXkXkXo   , , , < , : : , < < , , , @   j kXkXkXkXkXkXkXkXkXkXkXkXkXkXkXkXkXkXkXkXkXkXkXkXkXkXkXkX",
"kXkXkXkXkXkXkXkX@ @ o : : - < @ : < O O : O O : - [ kXkXkXkXkXkXkXkXkXkXkXkXkXkXkXkXkXkXkXkXkXkXkXkXkXkXkXkX",
"kXkXkXkXkXkXkXkXkXkXkXkXkXkXkXkXkXkXkXkXkXkXkXkXkXkXkXkXkXkXkXkXkXkXkXkXkXkXkXkXkXkXkXkXkXkXkXkXkXkXkXkXkXkX",
"kXkXkXkXkXkXkXkXkXkXkXkXkXkXkXkXkXkXkXkXkXkXkXkXkXkXkXkXkXkXkXkXkXkXkXkXkXkXkXkXkXkXkXkXkXkXkXkXkXkXkXkXkXkX",
"kXkXkXkXkXkXkXkXkXkXkXkXkXkXkXkXkXkXkXkXkXkXkXkXkXkXkXkXkXkXkXkXkXkXkXkXkXkXkXkXkXkXkXkXkXkXkXkXkXkXkXkXkXkX"
};
