/* XPM */
static char *result[] = {
/* columns rows colors chars-per-pixel */
"40 70 155 2 ",
"   c #020202",
".  c #02030C",
"X  c #0C0C0C",
"o  c #010614",
"O  c #040813",
"+  c #090A10",
"@  c #00071B",
"#  c #020B1D",
"$  c #0F1115",
"%  c #0F111A",
"&  c #131313",
"*  c #141418",
"=  c #1D1D1D",
"-  c #020C24",
";  c #020D2B",
":  c #041127",
">  c #0B1221",
",  c #021029",
"<  c #0A192E",
"1  c #151926",
"2  c #1D1D22",
"3  c #041533",
"4  c #04153C",
"5  c #061B3D",
"6  c #091A38",
"7  c #12213C",
"8  c #242424",
"9  c #272827",
"0  c #272729",
"q  c #2B2C2C",
"w  c #2D2E32",
"e  c #2F3034",
"r  c #353535",
"t  c #3B3B3B",
"y  c #021643",
"u  c #01164C",
"i  c #041C4C",
"p  c #041D52",
"a  c #021F59",
"s  c #0B2144",
"d  c #07224D",
"f  c #09224A",
"g  c #062453",
"h  c #092554",
"j  c #052956",
"k  c #0D2A50",
"l  c #08275D",
"z  c #022A59",
"x  c #0C2B5F",
"c  c #223047",
"v  c #2C3744",
"b  c #042B63",
"n  c #092E65",
"m  c #072E6B",
"M  c #0D356D",
"N  c #123360",
"B  c #143966",
"V  c #123A6A",
"C  c #073170",
"Z  c #0B3671",
"A  c #0D3972",
"S  c #0F3D7C",
"D  c #113A75",
"F  c #233F60",
"G  c #3B4047",
"H  c #13447E",
"J  c #19457B",
"K  c #25466A",
"L  c #434343",
"P  c #4C4C4C",
"I  c #4D4E51",
"U  c #4F5052",
"Y  c #545454",
"T  c #585857",
"R  c #5D5D5D",
"E  c #5F615F",
"W  c #4F5C6A",
"Q  c #5F6161",
"!  c #566477",
"~  c #636363",
"^  c #62656C",
"/  c #6C6C6C",
"(  c #6A6D70",
")  c #747474",
"_  c #787877",
"`  c #7D7D7D",
"'  c #053781",
"]  c #0A3C83",
"[  c #0C4485",
"{  c #06418A",
"}  c #0C468F",
"|  c #124784",
" . c #144985",
".. c #184A81",
"X. c #114689",
"o. c #144A8D",
"O. c #074594",
"+. c #084593",
"@. c #0A4996",
"#. c #064C9E",
"$. c #0B4D9D",
"%. c #134C92",
"&. c #185195",
"*. c #12529D",
"=. c #185399",
"-. c #1C589B",
";. c #0B4FA3",
":. c #0E53A4",
">. c #0C56A9",
",. c #0C58AB",
"<. c #1255A3",
"1. c #1359A6",
"2. c #185AA6",
"3. c #125AAB",
"4. c #0D5BB3",
"5. c #0C5EBA",
"6. c #125EB1",
"7. c #1962AF",
"8. c #0E61B6",
"9. c #0C61BC",
"0. c #1562B6",
"q. c #1363BA",
"w. c #0765C7",
"e. c #0C65C5",
"r. c #0667CC",
"t. c #0A67CA",
"y. c #0768CE",
"u. c #0A6ACC",
"i. c #1369C4",
"p. c #1068C8",
"a. c #066BD4",
"s. c #096BD1",
"d. c #026DDC",
"f. c #006FE1",
"g. c #848484",
"h. c #8B8B8B",
"j. c #959595",
"k. c #9A9B9B",
"l. c #A4A4A4",
"z. c #A7A8A6",
"x. c #ACACAC",
"c. c #AFB0AF",
"v. c #AFB0B0",
"b. c #B2B2B2",
"n. c #B8B7B7",
"m. c #BBBBBB",
"M. c #C3C3C3",
"N. c #CCCCCC",
"B. c #D4D4D4",
"V. c #DCDCDC",
"C. c #E3E3E3",
"Z. c #ECECEC",
"A. c #F4F4F4",
"S. c #FDFDFD",
"D. c None",
/* pixels */
"D.D.D.D.D.D.D.D.D.D.D.D.D.D.D.D.D.D.D.D.D.D.D.D.D.D.D.D.D.D.D.D.D.D.D.D.D.D.D.D.",
"D.D.D.D.D.D.D.D.D.r r t r t t r t r r t t r t r r t t r t ~ D.D.D.D.D.D.D.D.D.D.",
"D.D.D.D.D.D.D.D.Y & X X X X X X $ X X $ X X X $ X X X X & P D.D.D.D.D.D.D.D.D.D.",
"D.D.D.D.D.D.D.r / ` ` ` ` ` ` ` ` ` ` ` ` ` ` ` ` ` ` ` ` ) q D.D.D.D.D.D.D.D.D.",
"D.D.D.~ X     & h.Z.A.A.A.A.A.A.A.A.A.A.A.A.A.A.A.A.A.A.Z.h.X     & ~ D.D.D.D.D.",
"D.D.D.~ L t t P k.A.S.S.S.S.S.S.S.S.S.S.S.S.S.S.S.S.S.S.A.z.L t r L ~ D.D.D.D.D.",
"D.L * ~ M.B.B.B.Z.S.S.S.S.S.S.S.S.S.S.S.S.S.S.S.S.S.S.S.S.Z.B.B.B.M.~ $ r D.D.D.",
"D.L X R C.S.S.S.S.S.S.S.S.S.S.S.S.S.S.S.S.S.S.S.S.S.S.S.S.S.S.S.S.C.E   0 D.D.D.",
"D.L X R C.S.S.S.S.S.S.S.S.S.S.S.S.S.S.S.S.S.S.S.S.S.S.S.S.S.S.S.S.C.R X q D.D.D.",
"D.L & R C.S.S.S.S.S.S.S.S.S.S.S.S.S.S.S.S.S.S.S.S.S.S.S.S.S.S.S.S.C.R X w D.D.D.",
"r / ) l.A.S.S.S.S.S.S.S.S.S.S.S.S.S.S.S.S.S.S.S.S.S.S.S.S.S.S.S.S.Z.l./ ~ L D.D.",
"& g.V.Z.S.S.S.S.S.S.A.S.S.A.S.S.S.S.S.S.S.S.S.S.S.S.S.S.S.S.S.S.S.S.Z.V.l.9 9 D.",
"X h.A.S.S.S.S.A.V.m.m.n.n.n.m.V.S.S.S.S.S.S.S.S.S.S.S.S.S.S.S.S.S.S.S.S.z.= = D.",
"& g.A.S.S.S.S.Z.h.r r q q r r j.A.S.S.S.S.S.S.S.S.S.S.S.S.S.S.S.S.S.S.A.z.2 = D.",
"X g.A.S.S.S.S.C._ X         X ` S.S.S.S.S.S.S.S.S.S.S.S.S.S.S.S.S.S.S.S.z.= = D.",
"& g.S.S.S.S.S.Z.) X         X ` A.S.S.S.S.S.S.S.S.S.S.S.S.S.S.S.S.S.S.S.z.2 = D.",
"X g.Z.A.S.S.S.Z.) X         X ` A.S.S.S.S.S.S.S.S.S.S.S.S.S.S.S.S.S.A.Z.k.= = D.",
"X L h.b.Z.S.S.Z.) X         X ` A.S.S.S.S.S.S.S.S.S.S.S.S.S.S.S.S.A.n.g.R & = D.",
"    * / C.S.A.Z.) X         X ` A.S.S.S.S.S.S.S.S.S.S.S.S.S.S.S.S.C./ & X   = D.",
"= & X L b.N.C.Z.j.t r r r r t j.A.S.S.S.S.S.C.N.M.M.N.C.S.S.S.Z.N.c.L   X = t D.",
"/ t   & r Y M.A.V.M.M.M.m.M.M.V.A.S.S.S.S.A.z.P t t P b.A.S.S.N.~ r &   9 ~ D.D.",
"D.Y 8 = 8 L b.S.S.A.S.A.S.S.A.S.S.A.C.C.A.A.k.r 8 = r j.B.V.V.n.I 8 X   w D.D.D.",
"r ` l.l.l.c.C.S.S.S.S.S.S.S.S.S.S.N.) ~ N.A.B.x.l.l.k.) T T T ~ h.j.t   q D.D.D.",
"& g.Z.Z.A.A.A.A.A.S.A.A.S.A.A.S.A.x.0 = b.A.A.A.A.A.V.E &   X t m.V.T X q D.D.D.",
"X U j.j.k.j.j.k.j.j.j.j.j.j.k.k.j./ & X / k.M.A.S.S.V.E X 9 R g.B.C.R   q D.D.D.",
"  X = = = = = = = 8 = = = = = = * & X   * 0 ` Z.S.S.V.E X E N.C.A.C.R X q D.D.D.",
"      & r q &   = r 9 X X 0 r =   & q r t t h.Z.S.S.C.E X T m.M.M.n.~ q P D.D.D.",
"    X L c.l.t & ~ m.h.= = h.n.~ X r z.M.M.M.V.A.S.S.V.E X & r t r L / D.D.D.D.D.",
"    X Y B.M.L & ` V.z.8 8 x.V.` & Y B.S.S.A.S.S.A.Z.B.T           & ~ D.D.D.D.D.",
"P q   9 ~ R = X t ~ P & & P / ` h.x.Z.S.S.S.S.S.V.g.~ q   = w 9 X $ R D.D.D.D.D.",
"D.L     X $ X   X & X     & = ` Z.A.S.S.S.S.A.A.m.w X     9 Y L & & ~ D.D.D.D.D.",
"D.L   8 Y E R R E E E E R R ~ x.A.S.S.S.S.S.B.l.) *   & 8 t R U e 0 Y R D.D.D.D.",
"D.L X Y N.C.C.C.C.C.C.C.C.C.C.Z.S.S.S.S.S.A.k.0 &     r Y R R R T I 9 & t D.D.D.",
"D.L X U M.B.B.B.B.B.B.B.B.B.B.B.N.B.B.B.B.N.` = X X & L R R R R E T 9 $ r ) D.D.",
"D.L   * t L L L L L L L L L L L L L L L L L L L L L L Y R R R ~ E R P L t q t D.",
"D.P X X   X           X $           X     X q Y R R Y R Y Y T T T T T Y t $ = D.",
"D.D.t r t L =       8 _ _ 9       & q r r t L R I q 9 9 8 8 0 8 0 8 8 8 =   = D.",
"D.D.D.D.D.D.t       L N.N.L       * I R R R R R L $     . . . .             = D.",
"D.D.D.D./ / t = &   q h.h.L 8 = = e Y T L t t t q . . 3 d z d 5 @       $ 8 t D.",
"D.D.D./ 8 = L P 9   X * 9 L U Y T T R Y 8 X + + X   # V 1.0.,.X.3 .     9 D.D.D.",
"D.D.D.~ X X r P t 0 0 0 e L P T R T U L *   @ : - o - S e.a.s.>.b , @   q D.D.D.",
"D.D.D.~ $   X = / n.M.m.l.L = t T P 2 $ . . s J B - ; { s.f.d.r.,.| s . w D.D.D.",
"D.D.D.~ X     & g.A.A.Z.M.L   q Y G % # # - N -.o.4 u ] s.d.f.d.a.8.b - v D.D.D.",
"D.D.D.~ X     & g.Z.B.j./ 8   & w c N M Z M M M Z A ] 4.d.d.f.f.d.y.#.A K W ( D.",
"D.D.D.~ X     & g.Z.m.t &       + s =.q.6.2.S y a &.6.t.f.f.f.f.f.d.r.8.J < 0 D.",
"D.D.D.D.8 = & & g.Z.N./ Y Y U 0 . f 3.e.:.X.D l N ] &.5.a.f.f.f.f.f.d.u.[ : 2 D.",
"D.D.D.D.D.~ e & g.Z.A.C.V.V.B./ . f 3.5.m y n =.o.p p @.y.d.f.f.f.f.d.e.[ : = D.",
"D.D.D.D.D.D.r & ) B.V.C.V.C.B./ + f 2.6.p - n 0.<.a u ] 3.e.a.f.f.a.e.7.J O = D.",
"D.D.D.D.D.D.r X 8 P P P Y I P 9 . f 3.6.d - n 5.e.;.[ M n O.y.f.d.w.] h < . = D.",
"D.D.D.D.D.D.r       X & & & & X . f 3.6.i - n e.a.y.5.C u ' t.f.d.w.b @ . . = D.",
"D.D.D.D.D.D.r       8 / ` g.` t . d 3.3.d - n 5.d.d.w.$.] ;.y.d.d.8.z . * = D.D.",
"D.D.D.D.D.D.r       L B.S.S.Z.` + f 3.6.g ; n 5.s.s.s.i.i.p.s.a.s.3.j o w D.D.D.",
"D.D.D.D.D.D.r       q j.c.c.z.T + i 2.e.] l M  .%.o.%.%.o.o.%.o.o.J K 1 w D.D.D.",
"D.D.D.D.D.D.r       X 8 9 9 9 &   i 2.t.5.<.S i y 4 4 4 4 4 4 4 4 7 ! D.D.D.D.D.",
"D.D.D.D.D.~ q                   . 6 o.6.e.e.+.i 4 4 4 3 4 4 3 ; o % ^ D.D.D.D.D.",
"D.D.& X X & &                     @ 4 b :.p.5.*.%.%.&.%.%.&.o.B : $ Q D.D.D.D.D.",
"D.L     X . X X                     . ; X.q.q.q.0.0.0.0.0.0.7.J 3 $ ~ D.D.D.D.D.",
"D.L X q / _ _ / t                     o f M A Z D A A Z A A V k - $ R D.D.D.D.D.",
"D.L X Y N.Z.C.B./ X                     O # # - # - - - : : : @ . $ E D.D.D.D.D.",
"D.L X T C.S.S.Z.k.R P Y L &                         + w I Y U t & X E D.D.D.D.D.",
"D.L X R C.S.S.S.Z.B.B.B.c.t                         & g.N.B.B.l.q $ Q D.D.D.D.D.",
"D.P * ~ N.C.C.C.Z.A.S.S.B.Y * X     X X X X X       * k.A.S.A.M.t & ~ D.D.D.D.D.",
"D.D./ / ~ R R ~ b.A.S.S.Z.n.k.U   * P ~ ~ R e       = k.Z.S.S.M.t & ~ D.D.D.D.D.",
"D.D.D./ = X X 8 g.Z.A.S.S.A.C._   X D.D.D.D.e X X   8 j.Z.A.A.M.t & ~ D.D.D.D.D.",
"D.D.D.D.Y P P Y ) g.z.Z.S.S.A.`     D.D.D.t R ) ) ) ) g.g.g.g.g.~ Y D.D.D.D.D.D.",
"D.D.D.D.D.D.D.D.T = Y V.S.S.A.` .   D.D.& & / V.Z.Z.B.~ & X X r g.D.D.D.D.D.D.D.",
"D.D.D.D.D.D.D.D.Y q R x.n.n.n._ 0 9 D.D.X   Y z.n.n.z.L   & 8 L D.D.D.D.D.D.D.D.",
"D.D.D.D.D.D.D.D.D.D.` L r r t P D.D.D.D.X   & q r r 0 & X t ` D.D.D.D.D.D.D.D.D.",
"D.D.D.D.D.D.D.D.D.D.g.0 & & * 0 D.D.D.D.8 & & & & & & & * R D.D.D.D.D.D.D.D.D.D.",
"D.D.D.D.D.D.D.D.D.D.D.D.~ ~ ~ D.D.D.D.D.D.~ ~ ~ R ~ ~ ~ / D.D.D.D.D.D.D.D.D.D.D."
};
