/* XPM */
static char *_2142_bf6724727ffab68dcf277afd60fde0ea1bc25a8037408e68451aa454b9c1feaa[] = {
/* columns rows colors chars-per-pixel */
"51 70 228 2 ",
"   c #020202",
".  c #060C03",
"X  c #02020B",
"o  c #050A0B",
"O  c #0B0B0B",
"+  c #0A0609",
"@  c #010313",
"#  c #0D0D11",
"$  c #00031B",
"%  c #01091B",
"&  c #060916",
"*  c #110C13",
"=  c #0D1113",
"-  c #0B131B",
";  c #141415",
":  c #1B1B1B",
">  c #161618",
",  c #0F110E",
"<  c #201C1D",
"1  c #1C201F",
"2  c #000423",
"3  c #000B23",
"4  c #00052A",
"5  c #010B2A",
"6  c #0A1323",
"7  c #03142A",
"8  c #181C26",
"9  c #000C33",
"0  c #000B3B",
"q  c #000737",
"w  c #001233",
"e  c #00133B",
"r  c #021B3D",
"t  c #061B38",
"y  c #191B34",
"u  c #201E26",
"i  c #1C2126",
"p  c #182B32",
"a  c #232323",
"s  c #2C2C2C",
"d  c #26292B",
"f  c #292B33",
"g  c #2C3136",
"h  c #3C3C3C",
"j  c #343437",
"k  c #31302B",
"l  c #413D3E",
"z  c #44433E",
"x  c #000D44",
"c  c #001443",
"v  c #001C4C",
"b  c #021746",
"n  c #001A54",
"m  c #001352",
"M  c #06244A",
"N  c #032352",
"B  c #0A2A54",
"V  c #00225C",
"C  c #012B5D",
"Z  c #0A2C5A",
"A  c #132B55",
"S  c #0A315B",
"D  c #1A365A",
"F  c #17304F",
"G  c #262B4A",
"H  c #2D3646",
"J  c #383E48",
"K  c #283858",
"L  c #2C3253",
"P  c #001D63",
"I  c #002461",
"U  c #002B6B",
"Y  c #042967",
"T  c #08336B",
"R  c #183766",
"E  c #002C77",
"W  c #023274",
"Q  c #083676",
"!  c #1F3571",
"~  c #243E68",
"^  c #203E72",
"/  c #3A4453",
"(  c #154378",
")  c #27436C",
"_  c #244679",
"`  c #30527C",
"'  c #434343",
"]  c #4C4C4C",
"[  c #464A49",
"{  c #4E504A",
"}  c #544D53",
"|  c #4F5356",
" . c #535353",
".. c #5A5B55",
"X. c #565B5D",
"o. c #5C5B5C",
"O. c #575657",
"+. c #625E5C",
"@. c #5C615C",
"#. c #62625E",
"$. c #60685D",
"%. c #4C5767",
"&. c #5C5D63",
"*. c #595B67",
"=. c #595F78",
"-. c #49536C",
";. c #615D62",
":. c #5C6262",
">. c #5D636B",
",. c #576566",
"<. c #5B6571",
"1. c #626362",
"2. c #63646A",
"3. c #6D6C6C",
"4. c #666866",
"5. c #666A77",
"6. c #6E7074",
"7. c #757575",
"8. c #7C7C7C",
"9. c #757878",
"0. c #726E6B",
"q. c #827E7D",
"w. c #013F8A",
"e. c #08478B",
"r. c #124B8C",
"t. c #194987",
"y. c #0F5086",
"u. c #044897",
"i. c #164C97",
"p. c #185499",
"a. c #254B86",
"s. c #2B558C",
"d. c #265B87",
"f. c #265896",
"g. c #315F9B",
"h. c #2A619E",
"j. c #26618D",
"k. c #1A59A6",
"l. c #195EB5",
"z. c #0A58AD",
"x. c #245EA3",
"c. c #1E64AC",
"v. c #1B65AC",
"b. c #0D68BE",
"n. c #1A66B5",
"m. c #1363BA",
"M. c #1C64BA",
"N. c #156BBD",
"B. c #196ABB",
"V. c #1967B5",
"C. c #2D63A2",
"Z. c #2463AC",
"A. c #2764A8",
"S. c #3367A9",
"D. c #2465B3",
"F. c #2265BA",
"G. c #2769BA",
"H. c #425F9B",
"J. c #6F7D97",
"K. c #0C6BCC",
"L. c #0A68C7",
"P. c #136AC4",
"I. c #1B6AC4",
"U. c #136CCB",
"Y. c #1767C9",
"T. c #036BD4",
"R. c #0C6CD3",
"E. c #026DDC",
"W. c #096CDC",
"Q. c #0F66D7",
"!. c #126AD3",
"~. c #136DD9",
"^. c #0371DC",
"/. c #0A73DD",
"(. c #0871D4",
"). c #1271D7",
"_. c #256BC3",
"`. c #036DE2",
"'. c #0C6CE3",
"]. c #016EEB",
"[. c #0372E4",
"{. c #0772E7",
"}. c #7E8385",
"|. c #838383",
" X c #8C8C8C",
".X c #84888B",
"XX c #8C8A91",
"oX c #928D97",
"OX c #949494",
"+X c #9A9A9A",
"@X c #959E94",
"#X c #8F8F90",
"$X c #9CA2A0",
"%X c #ACACAC",
"&X c gray64",
"*X c #B4B4B4",
"=X c #BBBBBB",
"-X c #B9B8B6",
";X c #ADAFAF",
":X c #C2C1BD",
">X c #BDC1C0",
",X c #CDCCCC",
"<X c #C5C5C5",
"1X c #D1CDC9",
"2X c #D4D4D4",
"3X c #DDDDDC",
"4X c #DCD6D6",
"5X c #D2D3CE",
"6X c #DEE3DE",
"7X c #E4E3DF",
"8X c #E1DFE1",
"9X c #E2E3E3",
"0X c #ECECEC",
"qX c #EAE8E5",
"wX c #F2EEE9",
"eX c #F4F1EE",
"rX c #EFEFF2",
"tX c #F3EFF5",
"yX c #EEF2F7",
"uX c #F4F4F4",
"iX c #FAF5F4",
"pX c #FCFBF5",
"aX c #F3F5FA",
"sX c #F6FAFC",
"dX c #FDFDFD",
"fX c #F5F7F9",
"gX c #EEF3EF",
"hX c None",
/* pixels */
"hXhXhXhXhXhXhXhXhXhXhXhXhXhXhXhXhXhXhXhXhXhXhXhXhXhXhXhXhXhXhXhXhXhXhXhXhXhXhXhXhXhXhXhXhXhXhXhXhXhXhX",
"hXhXhXhXhXhXhXhXhXhXhXhXhXhXhXhXhX# : : O : > : > > > : ; > : > > > ; > { hXhXhXhXhXhXhXhXhXhXhXhXhXhX",
"hXhXhXhXhXhXhXhXhXhXhXhXhXhXhXhXhX; ; : : ; : : > : > : > : > : : a ; ; [ hXhXhXhXhXhXhXhXhXhXhXhXhXhX",
"hXhXhXhXhXhXhXhXhXhXhXhXhXa > > ' 9XqX2X9X9X3X3X3X3X6X3X8X6X3X9X4X3X3X0X%X> > : a hXhXhXhXhXhXhXhXhXhX",
"hXhXhXhXhXhXhXhXhXhXhXhXhX  + ,  .dXuXdXdXdXdXdXdXdXdXdXdXdXdXdXdXdXdXdX:X+ ;   O hXhXhXhXhXhXhXhXhXhX",
"hXhXhXhXhXhXhXhXhXhXhXhXhXhXhX*X=XdXdXdXdXdXdXdXdXdXdXdXdXdXdXdXdXdXdXdX0X%X*X*X%X1.[ hXhXhXhXhXhXhXhX",
"hXhXhXhXhXhXhXhXhXhXa   hXhXhXdXdXdXdXdXuXdXdXdXdXdXdXdXdXdXdXdXdXdXdXdXfXdXfXdXdX'   hXhXhXhXhXhXhXhX",
"hXhXhXhXhXhXhXhXhXhXa O hXhXdXdXuXdXdXdXdXdXdXdXdXdXdXdXdXdXdXdXdXdXdXdXdXdXdXdXdXh   |.hXhXhXhXhXhXhX",
"hXhXhXhXhXhXhXhXhXhXa   hXhXdXdXdXdXdXdXdXdXdXdXdXdXdXdXdXdXdXdXdXdXdXdXdXdXdXdXiX'   8.hXhXhXhXhXhXhX",
"hXhXhXhXhXhXhXhXhXhXhX] hXhXuXdXdXdXdXdXdXdXdXdXdXdXdXdXdXdXdXdXdXdXdXdXdXdXdXdXdX7.] |.hXhXhXhXhXhXhX",
"hXhXhXhXhXhXhXhXa   hXhXhXhXdXdXdXdXdXdXdXdXdXdXdXdXdXdXdXdXdXdXdXdXdXdXdXdXdXdXsXdXuX7.   .hXhXhXhXhX",
"hXhXhXhXhXhXhXhX: O hXhXhXdXdXuXdXdXdXdXdXdXdXdXdXdXdXdXdXdXdXdXdXdXdXdXdXdXdXdXdXdXdX7.  ] hXhXhXhXhX",
"hXhXhXhXhXhXhXhX: O hXhXhXdXdXdXdXdXdXdXdXdXdXdXdXdXdXdXdXdXdXdXdXdXdXdXdXdXdXdXdXdXdX7.   .hXhXhXhXhX",
"hXhXhXhXhXhXhXhXa   hXhXdXdXuXdXdXdXdXdXdXdXdXdXdXdXdXdXdXdXdXdXdXdXdXdXdXdXdXdXdXdXdX7.  ] hXhXhXhXhX",
"hXhXhXhXhXhXhXhX1   hXhXuXdXdXdXdXdXdXdXdXdXdXdXdXdXdXdXdXdXdXdXdXdXdXdXdXdXdXdXdXdXdX3.  ] hXhXhXhXhX",
"hXhXhXhXhXhXhXhX1   hXdXdXdXdXdXdXdXdXdXdXdXdXdXdXdXdXdXdXdXdXdXdXdXdXdXdXdXdXdXdXdXdX7.  ] hXhXhXhXhX",
"hXhXhXhXhXhXhXhX: + 5XdXdXdXdXdXdXdXdXdXdXdXdXdXdXdXdXdXdXdXdXdXdXdXdXdXdXdXdXdXdXdXdX6.  } hXhXhXhXhX",
"hXhXhXhXhXhXhXhX: + 4XfXdXdXdXuXdXdXuXdXdXdXdXdXdXdXdXdXdXdXdXdXdXdXdXdXdXdXdXuXdXdXdX7.  [ hXhXhXhXhX",
"hXhXhXhXhXhXhXhXhX3. X X5XdXuXdXdXdXdXdXdXdXdXdXdXdXdXdXdXdXdXdXdXdXdXuXdXdXdXdXdX&Xq.8.7.+XhXhXhXhXhX",
"hXhXhXhXhXhXhXhXhXhX1 O OXsXdXdXdXuXdXuXdXdXdXdXdXdXdXdXdXdXdXdXdXdXdXdXdXdXdXuXfX'   |.uXhXhXhXhXhXhX",
"hXhXhXhXhXhXhXhXhXhX1   &XdXdXdXdXdXdXdXdXdXdXdXdXdXdXdXdXdXdXdXdXdXdXdXuXdXdXdXdXz   7.,X2XhXhXhXhXhX",
"hXhXhXhXhXhXhXhXa   + ; OXdXdXdXfXdXuXdXdXuXdXdXdXdXdXdXdXdXdXdXdXdXdXdXdXdXdXdXfX]       { hXhXhXhXhX",
"hXhXhXhXhXhXhXhX:     , $XdXdXuXdXdXdXuXdXuXuXdXuXuXuXuXuXuXuXuXrXdXuXdXdXdXuXdXiX[       } hXhXhXhXhX",
"hXhXhXhXhXhXhXhXu   ,XdXuXdXdXdXfXdX9Xs   O O   + + . + O O O O +   ..dXdXdXdXdXdXuX0X3.  ] hXhXhXhXhX",
"hXhXhXhXhXhXhXhX<   4XdXdXuXdXdXdXeX,Xs           O   O   .          .iXpXdXdXdXdXdXdX7.  ] hXhXhXhXhX",
"hXhXhXhXhXhXhXhXa , ,XdXdXdXuXdX<X .' O   +   ..*X%X*X%X%X%X        > { 7.dXdXdXdXfXdX3., [ hXhXhXhXhX",
"hXhXhXhXhXhXhXhX>   3XdXdXiXdXdX:X             XuXdXdXdXdXdX+     .     h dXiXdXdXdXdX3.  ' hXhXhXhXhX",
"hXhXhXhXhXhXhXhX|.7.|.8.9.8.*XdX3X9.|.q.8.s   ' |.*XdX0X|.9.+   ' q.|.J.+XdX0XOX8.9.7.9.9.hXhXhXhXhXhX",
"hXhXhXhXhXhXhXhXhXhXa       3.dXdXdXdXdXdX1.      O.dX3X        |.dXfXdXdXdX3Xa       OXhXhXhXhXhXhXhX",
"hXhXhXhXhXhXhXhX+X X;   : < 1.#XOXOXOXOXOX .a #   j OX Xa s a a 4.+X+X+XOXOX|.h < +   ] #XhXhXhXhXhXhX",
"hXhXhXhXhXhXhXhX>     + ' 1.s             z +.s         1...3.1.d         +   ] 1.1       ] hXhXhXhXhX",
"hXhXhXhXhXhXhXhX:   ; 8 l 1.' > > : ; : > J +.h ; : : : #.1.&.o.h > > : : * d  .@.s ;     h hXhXhXhXhX",
"hXhXhXhXhXhX= o @ + } } +.;.o.X.o.O...O.o.&.1.o.o.O. .o.o.;.;.o. .+.+.} ;.;.} ;.+... .d . o & s hXhXhX",
"hXhXhXhXhXhX  & $ 2 %.5.+.&.2.:.o.1.o.1.o.;.;.;.+.#.#...1...o.1.#...+.4.;.;.2.;.#.1.,.p X % @ * hXhXhX",
"hXhXhXhX: - % 7 ) ` t 7 J 2.&.&.o.@.@.1.;.......+.+.@...4.@.@.:.X.,.1.:.X.*.&.&.&.i 5 ~ ` ) % $ y [ hX",
"hXhXhXX.@ $ 7 M s.g.n e K =.>.:.@.@.o.X.:.1.:.4.$.@.#.$.@.@.&.&.:.2.@.X.o.:.2.5.=.b q ! g.a.e 5 @ 8 hX",
"hXhXhX,.@ t ` p.V.m.p.t.M 8 j +.1.o.| i 8 8 * 6 8 - - i | &.1.&.j - g :.:.@.| 8 t ~ i.l.F.D.t.) 5 u hX",
"hXhXhX:.% A A.b.K.R._.f.D $ i 1.:.*.%.6 $ 4 5 4 5 3 % % *.=.;.*.H @ 8 ,.@.| | - 4 a.G.Y.!.P.D.j.2 y ;X",
"hXhX.Xf 2 Y D.U./.W.U.x.B $ 8 j H L K F Z T Q W U T R A K G L L G G G H H g f - 4 a._.!.E.W.N.p.e y =.",
"hXJ X $ w T M.!.`.{.P.D.Z 5 3 $ 2 9 c s.S.x.G.F.G.G.Z.f.m x q q ! H.^ e 3 3 % $ q a.F.W.[.E.b.v.v 4 5 ",
"hXH $ 5 Z e.I.Q.`.W.Y.D.I 9 c M V V Q k.I.U.K.W.(.K.I.V.E U Y U i.F.i.E I n M 4 9 a.G.~.E.^.L.v.T N e ",
"hX/ 3 ) f.n.Y.W.'.'.P.k.T 0 V h.A.n.m.P.(.(.^.^.^.^.(.U.m.M.G.l.Y.Q.Y.M.G.x._ b 0 a.D.).[.^.T.N.x.s.v ",
"hXJ 2 ^ f.I.'.`.].{.m.c.Q m E Z.N.U.K.(.T.E.[.[.^.^.^.T.T.L.U.K.W.W.Q.Q.Y.l.f.P m s.F.L.E.[.E.U.D.p.I ",
"hX/ 2 ) S.m.Q.].`.{.I.A.P m w.F.L.(.[./.[.[.[.[.[.[.{.^.W.T.W.W.^.{.`.`.Q.Y.k.P x i.G.U.W.[.W.U.G.f.I ",
"hX&.6 R C.G.L.W.^.K.V.p.U P u.P.T.E.E.`.E.`.`.`.E.E.E.T.{.E.W.`.E.^.E.E.W.).z.w.U r.x.I.!.R.R.Y.p.s.C ",
"hXhXhX-.v Q _.P.U.V.W Y ( p.z.Q./.`.`.[.{.[.[.[.[.[.^.^.{.{.`.`.^.{.[.[.`.T.L.l.i.U E e.M.I.B.c.T R hX",
"hXhXhX%.4 A S.f.A.A.V c Q c.!.W.[.E.[.`.{.`.`.[.E.[.[.[.E.[.`.`.E.E.E.[.[.E.L.M.S.P n Q S.S.C.s.b t hX",
"hXhXhXhXhX=.B S C Z 4 c ( B.).`.`.`.`.[.`.{.[.[.[.[.`.[.`.[.`.`.{.E.[.{.].{.W.I.Z.n b v B B S F J.hXhX",
"hXhXhXhXhXhX2 7 3 % % 9 Q G./.].].`.'.W.W.E.(.^.^.[.[.[.].'.'.W.^.^.[.].].{.W.P.Z.V 9 5 $ @ $ 6 hXhXhX",
"hXhXhXhXhXhX5.%.- @ % 7 ( A.T.[.[.^.W.Q.R.!.(.(.(.^.E.E.T.R.!.!.(./.E.E.].`.W.I.c.T w @ @ d &.|.hXhXhX",
"hXhXhXhXhXhXhXhXi X X $ R A.I.R.(.(.(.L.P.N.b.V.N.P.P.b.N.B.V.B.m.I.U.Q.'.Q.U.B.g.c 2 X   ] hXhXhXhXhX",
"hXhXhXhXhXhXhXhXf X & % F _ k.m.(.L.b.z.u.p.r.r.r.r.r.y.y.y.y.y.i.p.z.P.P.P.V.p._ t @   + } hXhXhXhXhX",
"hXhXhXhXhXhXhXhXd     X 7 e T A.G.V.p.T m b c 0 0 c c c w w w e x m Q Z.v.v.j.C 0 $ @     { hXhXhXhXhX",
"hXhXhXhXhXhXhXhXi       X 3 F s.s.s.( M 4 4 $ $ $ $ $ $ $ $ @ $ 2 4 B d.j.j._ r 3 X + +   [ hXhXhXhXhX",
"hXhXhXhXhXhXh a X       X @ 7 w r b t 2 @ @ + X X   X X X @ X X & @ 3 t t r t $ @         # f O.hXhXhX",
"hXhXhXhXhXhXO   X           @ % $ @ @ X           O ; * +     X     X @ @ % @ @ X   +       X u hXhXhX",
"hXhXhXhXhXhXO     o         X X X &   +           { %X$X>             X X X @ X . . .     + X u hXhXhX",
"hXhXhXhXhXhX> O X   - # O O O # O # # O       . . hXhXhXhX#       o + @ * * = # . , o         f hXhXhX",
"hXhXhXhXhXhXhX6.- X 6..X|.#X|. XXXXXXX X|.j   z |.hXhXhXhX .,   [ oXoXXXoX.X}..X.X.Xq.l   k 8.hXhXhXhX",
"hXhXhXhXhXhXhXhXs > <XdXgXsXdXsXsXsXaXuXuX..O q.hXhXhXhXhXhX> # .XyXaXaXaXsXsXsXfXeXwX7.  { hXhXhXhXhX",
"hXhXhXhXhXhXhXhX: # <XdXsXdXdXsXsXsXdXdXsX&.# 9.hXhXhXhXhXhX, + oXaXdXdXdXdXdXaXdXdXuX0.  k @XhXhXhXhX",
"hXhXhX1.o o . ;   u 1XpXdXdXdXsXdXpXsXsXyX&.o }.hXhXhXhXhXhX:   .XsXdXdXdXdXdXdXtXdXrX9..   .   O s hX",
"hXhXhXX.  o       < 1XeXdXpXpXdXpXpXpX,X>X[   }.hXhXhXhXhXhX; + 3.:X5XpXiXdXiXdXdXdXuX7.          a hX",
"hXhXhX4.X   O   + + <XdXdXdXdXpXpXpX1Xh O o . }.hXhXhXhXhXhX;     , $.pXdXdXdXiXfXdXuXJ.          : hX",
"hXhXhX7.: : a : 1 s *X7X8X3X9X3X3X4X-Xh :  hXhXhXhXhXhXhXhXhXhX : 1 4.5X3X3X3X3X8X3X3X7.: a : : u h hX",
"hXhXhXhXhXhXhXhXhXhXo.j ' l h ' z h O.&X=hXhXhXhXhXhXhXhXhXhXhXhXhXhX ' l z ' h h h z J.hXhXhXhXhXhXhX",
"hXhXhXhXhXhXhXhXhXhXh +   . +       j <XhXhXhXhXhXhXhXhXhXhXhXhXhXhXhX  +         + O hXhXhXhXhXhXhXhX",
"hXhXhXhXhXhXhXhXhXhXhXhXhXhXhXhXhXhXhXhXhXhXhXhXhXhXhXhXhXhXhXhXhXhXhXhXhXhXhXhXhXhXhXhXhXhXhXhXhXhXhX",
"hXhXhXhXhXhXhXhXhXhXhXhXhXhXhXhXhXhXhXhXhXhXhXhXhXhXhXhXhXhXhXhXhXhXhXhXhXhXhXhXhXhXhXhXhXhXhXhXhXhXhX",
"hXhXhXhXhXhXhXhXhXhXhXhXhXhXhXhXhXhXhXhXhXhXhXhXhXhXhXhXhXhXhXhXhXhXhXhXhXhXhXhXhXhXhXhXhXhXhXhXhXhXhX"
};
