/* XPM */
static char *result[] = {
/* columns rows colors chars-per-pixel */
"45 45 10 1 ",
"  c black",
". c #05090F",
"X c #0C0E17",
"o c #0F1A25",
"O c #1D303B",
"+ c #552F87",
"@ c #9F51F7",
"# c #DC8BF7",
"$ c #F7CEF7",
"% c None",
/* pixels */
"%%%%%%%%%%%%%%%%%%%%%%%%%%%%%%%%%%%%%%%%%%%%%",
"%%%%%%%%%%%%%%%%%%%%%%%%%%%%%%%%%%%%%%%%%%%%%",
"%%%%%%%%%%%%%%%%%%%%%%%%%%%%%%%%%%%%%%%%%%%%%",
"%%%%%%%%%%%%%%%%%%%%%%%%%%%%%%%%%%%%%%%%%%%%%",
"%%%%%%%%%%%%%%%%%%%%%%%%%%%%%%%%%%%%%%%%%%%%%",
"%%%%%%%%%%%%%%%%%%%%%%%%%%%%%%%%%%%%%%%%%%%%%",
"%%%%%%%%%%%%%%%%%%%%%%%%%%%%%%%%%%%%%%%%%%%%%",
"%%%%%%%%%%%%%%%%%%%%%%%%%%%%%%%%%%%%%%%%%%%%%",
"%%%%%%%%%%%%%%%%%%%%%%%%%%%%%%%%%%%%%%%%%%%%%",
"%%%%%%%%%%%%%%%%%%%%%%%%%%.%%%%.%%%%%%%%%%%%%",
"%%%%%%%%%%%%%%%%%%%%%%%%%%ooo%%.o%%%%%%%%%%%%",
"%%%%%%%%%%%%%%%%%%%%%%%%%%%Ooo%oXo%%%%%%%%%%%",
"%%%%%%%%%%%%%%%%%%%%%%%%%%%%Oo%%Xo%%%%%%%%%%%",
"%%%%%%%%%%%%%%%%%%%%%%%%%%%%Oo%oXo%%%%%%%%%%%",
"%%%%%%%%%%%%%%%%%%oooooOOo%%ooOoo%%%%%%%%%%%%",
"%%%%%%%%%%%%%%%oooOoOOOoOOo.ooOOo%%%%%%%%%%%%",
"%%%%%%%%%%%%%oooOoOooooOoOO.oo@O@%%%%%%%%%%%%",
"%%%%%%%%%%%%ooOOooooOOOoOoo.ooOOo%%%%%%%%%%%%",
"%%%%%%%%%%oOoOoo%%%%OOOoOo.o.oOO%%%%%%%%%%%%%",
"%%%%%%%%%@Oooo%%%%%%%oOoo.o.o.%%%%%%%%%%%%%%%",
"%%%%%%%@$$OOo%%%%%%%oOooO.oooo%%%%%%%%%%%%%%%",
"%%%%%%@#$@$@%%%%%%%%ooOO.o.ooo %%.o%%%%%%%%%%",
"%%%%%@#$@$$%%%%%%%%%OOo.%%%oo.  . o%%%%%%%%%%",
"%%%%@#$@$%%%%%%%%%%@@@OO+%%%. ..  %%%%%%%%%%%",
"%%%@#$@$%%%%%%%%%%%...@+.o%%%%.. %%%%%%%%%%%%",
"%%@#$@$%%%%%%%%%%%.ooo....oo .%%%%%%%%%%%%%%%",
"%@#$@$%%%%%%%%%%%OOoo.o.oooo ...%%%%%%%%%%%%%",
"@#$@$%%%%%%%%%%%%O.oo.o.oooo   .o%%%%%%%%%%%%",
"#$$$%%%%%%%%%%%%%.....o%%oo%    .%%%%%%%%%%%%",
"@$$%%%%%%%%%%%%o..oOOo%%%%%%...+@%%%%%%%%%%%%",
"$@%%%%%%%%%%%%ooo.OOo%%%%%%%% ..+%%%%%%%%%%%%",
"%%%%%%%%%%%%%.@+..oo%%%%%%%%%  %%%%%%%%%%%%%%",
"%%%%%%%%%%%.oo+.%%%%%%%%%%%%% %%%%%%%%%%%%%%%",
"%%%%%%%%%%oOo.%%%%%%%%%%%%%%%..%%%%%%%%%%%%%%",
"%%%%%%%%%%O.%%%%%%%%%%%%%%%%%%%%%%%%%%%%%%%%%",
"%%%%%%%%%%oo%%%%%%%%%%%%%%%%%%%%%%%%%%%%%%%%%",
"%%%%%%%%%%%%%%%%%%%%%%%%%%%%%%%%%%%%%%%%%%%%%",
"%%%%%%%%%%%%%%%%%%%%%%%%%%%%%%%%%%%%%%%%%%%%%",
"%%%%%%%%%%%%%%%%%%%%%%%%%%%%%%%%%%%%%%%%%%%%%",
"%%%%%%%%%%%%%%%%%%%%%%%%%%%%%%%%%%%%%%%%%%%%%",
"%%%%%%%%%%%%%%%%%%%%%%%%%%%%%%%%%%%%%%%%%%%%%",
"%%%%%%%%%%%%%%%%%%%%%%%%%%%%%%%%%%%%%%%%%%%%%",
"%%%%%%%%%%%%%%%%%%%%%%%%%%%%%%%%%%%%%%%%%%%%%",
"%%%%%%%%%%%%%%%%%%%%%%%%%%%%%%%%%%%%%%%%%%%%%",
"%%%%%%%%%%%%%%%%%%%%%%%%%%%%%%%%%%%%%%%%%%%%%"
};
