/* XPM */
static char *result[] = {
/* columns rows colors chars-per-pixel */
"102 50 120 2 ",
"   c #000000",
".  c #080702",
"X  c #0D0B04",
"o  c #120F06",
"O  c #161207",
"+  c #1C170A",
"@  c #1F190A",
"#  c #231D0D",
"$  c #27200D",
"%  c #2C250E",
"&  c #2E2712",
"*  c #362D15",
"=  c #393016",
"-  c #3E3519",
";  c #433716",
":  c #463A17",
">  c #463A18",
",  c #4A3D1B",
"<  c #4F411A",
"1  c #50411A",
"2  c #5B4B1E",
"3  c #67582D",
"4  c #725E26",
"5  c #6B5C31",
"6  c #7F6E3B",
"7  c #8B722E",
"8  c #917935",
"9  c #897740",
"0  c #8C7A43",
"q  c #8F7E4C",
"w  c #927E45",
"e  c #9E8234",
"r  c #A38636",
"t  c #AF8F3A",
"y  c #B2923B",
"u  c #96844F",
"i  c #99854A",
"p  c #A08A4A",
"a  c #AB9041",
"s  c #B79945",
"d  c #BE9E45",
"f  c #B69B4C",
"g  c #A99454",
"h  c #B7A15D",
"j  c #BEA762",
"k  c #B8A670",
"l  c #C4A242",
"z  c #C9A647",
"x  c #C7A64B",
"c  c #C9A749",
"v  c #CDAB4C",
"b  c #D3B255",
"n  c #D6B659",
"m  c #DABA5D",
"M  c #CCB56A",
"N  c #D0B667",
"B  c #D7B961",
"V  c #DCBC64",
"C  c #DFC065",
"Z  c #DEC26E",
"A  c #DFC472",
"S  c #E0C166",
"D  c #E5C66C",
"F  c #E6C86E",
"G  c #E2C674",
"H  c #EACD73",
"J  c #E0C77E",
"K  c #E6CA7B",
"L  c #E9CE7E",
"P  c #EDD077",
"I  c #EDD27D",
"U  c #F2D57D",
"Y  c #EFD484",
"T  c #EED58B",
"R  c #F1D685",
"E  c #F6DA83",
"W  c #F8DD86",
"Q  c #F0D78C",
"!  c #F4DB8D",
"~  c #FADF88",
"^  c #EDD692",
"/  c #EED991",
"(  c #E1D19D",
")  c #EED799",
"_  c #EED99B",
"`  c #F2DB95",
"'  c #F1DB9B",
"]  c #FCE18B",
"[  c #FCE393",
"{  c #F7E09C",
"}  c #FCE59B",
"|  c #F1DEA4",
" . c #F2DFAA",
".. c #EFDFB3",
"X. c #F5E1A3",
"o. c #FBE5A1",
"O. c #FEE9A3",
"+. c #F2E0AB",
"@. c #F9E6AA",
"#. c #FEEBAB",
"$. c #EFE2B7",
"%. c #EFE1B8",
"&. c #F2E2B4",
"*. c #FFEDB3",
"=. c #F2E4BA",
"-. c #FEEFBA",
";. c #FFF0BD",
":. c #F7EAC3",
">. c #FCEFC3",
",. c #F0E7C9",
"<. c #F5EACA",
"1. c #FFF2C4",
"2. c #FEF3CB",
"3. c #FDF4D3",
"4. c #FEF6DB",
"5. c cornsilk",
"6. c #FBF6E2",
"7. c #FFF9E4",
"8. c #FFFBEE",
"9. c None",
/* pixels */
"9.9.9.9.9.9.9.9.9.9.9.9.9.9.9.9.9.9.9.9.9.9.9.9.9.9.9.9.9.9.9.9.9.9.9.9.9.9.9.9.9.9.9.9.9.9.9.9.9.9.9.9.9.9.9.9.9.9.9.9.9.9.9.9.9.9.9.9.9.9.9.9.9.9.9.9.9.9.9.9.9.9.9.9.9.9.9.9.9.9.9.9.9.9.9.9.9.9.9.9.9.9.",
"9.9.9.9.9.9.9.9.9.9.9.9.9.9.9.9.9.9.9.9.9.9.9.9.9.9.9.9.9.7.7.6.8.8.8.8.8.8.8.8.8.7.5.9.9.9.9.9.9.9.9.9.9.9.9.9.9.9.9.9.9.9.9.9.9.9.9.9.9.9.9.9.9.9.9.9.9.9.9.9.9.9.9.9.9.9.9.9.9.9.9.9.9.9.9.9.9.9.9.9.9.9.",
"9.9.9.9.9.9.9.9.9.9.9.9.9.9.9.9.9.9.9.9.9.9.9.9.9.9.5.8.8.8.8.8.8.8.8.8.8.8.8.8.8.8.8.8.8.7.4.9.9.9.9.9.9.9.9.9.9.9.9.9.9.9.9.9.9.9.9.9.9.9.9.9.9.9.9.9.9.9.9.9.9.9.9.9.9.9.9.9.9.9.9.9.9.9.9.9.9.9.9.9.9.9.",
"9.9.9.9.9.9.9.9.9.9.9.9.9.9.9.9.9.9.9.9.9.9.9.9.7.8.8.8.8.8.8.8.8.8.8.8.8.8.8.8.8.8.8.8.8.8.8.8.4.9.9.9.9.9.9.9.9.9.9.9.9.9.9.9.9.9.9.9.9.9.9.9.9.9.9.9.9.9.9.9.9.9.9.9.9.9.9.9.9.9.9.9.9.9.9.9.9.9.9.9.9.9.",
"9.9.9.9.9.9.9.9.9.9.9.9.9.9.9.9.9.9.9.9.9.9.6.8.8.8.8.8.8.8.7.5.3.2.1.1.1.1.1.1.1.1.1.2.2.5.7.8.8.8.4.9.9.9.9.9.9.9.9.9.9.9.9.9.9.9.9.9.9.9.9.9.9.9.9.9.9.9.9.9.9.9.9.9.9.9.9.9.9.9.9.9.9.9.9.9.9.9.9.9.9.9.",
"9.9.9.9.9.9.9.9.9.9.9.9.9.9.9.9.9.9.9.9.4.8.8.8.8.8.8.7.3.1.1.1.1.1.1.1.1.1.1.1.1.1.1.1.1.1.1.2.3.4.8.6.9.9.9.9.9.9.9.9.9.9.9.9.9.9.9.9.9.9.9.9.9.9.9.9.9.9.9.9.9.9.9.9.9.9.9.9.9.9.9.9.9.9.9.9.9.9.9.9.9.9.",
"9.9.9.9.9.9.9.9.9.9.9.9.9.9.9.9.9.9.9.6.8.8.8.8.8.5.1.1.1.1.1.1.1.1.1.1.1.1.1.1.1.1.1.1.1.1.1.1.1.1.2.3.8.4.9.9.9.9.9.9.9.9.9.9.9.9.9.9.9.9.9.9.9.9.9.9.9.9.9.9.9.9.9.9.9.9.9.9.9.9.9.9.9.9.9.9.9.9.9.9.9.9.",
"9.9.9.9.9.9.9.9.9.9.9.9.9.9.9.9.9.9.6.8.8.8.8.5.2.1.1.1.1.1.1.1.1.1.1.1.1.1.1.1.1.1.1.1.1.1.1.1.1.1.1.1.1.3.4.9.9.9.9.9.9.9.9.9.9.9.9.9.9.9.9.9.9.9.9.9.9.9.9.9.9.9.9.9.9.9.9.9.9.9.9.9.9.9.9.9.9.9.9.9.9.9.",
"9.9.9.9.9.9.9.9.9.9.9.9.9.9.9.9.9.7.8.8.8.8.2.1.*.#.1.1.;.#.#.#.#.#.*.;.1.1.1.1.1.1.1.1.1.1.1.1.1.1.1.1.1.1.2.#.9.9.9.9.9.9.9.9.9.9.9.9.9.9.9.9.9.9.9.9.9.9.9.9.9.9.9.9.9.9.9.9.9.9.9.9.9.9.9.9.9.9.9.9.9.9.",
"9.9.9.9.9.9.9.9.9.9.9.9.9.9.9.9.6.8.8.8.5.1.;.} [ *.O.] ] ] ] } O.#.*.*.;.1.1.1.1.1.1.1.1.1.1.1.1.1.1.1.1.1.1.] } 9.9.9.9.9.9.9.9.9.9.9.9.9.9.9.9.9.9.9.9.9.9.9.9.9.9.9.9.9.9.9.9.9.9.9.9.9.9.9.9.9.9.9.9.9.",
"9.9.9.9.9.9.9.9.9.9.9.9.9.9.9.4.8.8.8.5.1.*.] ] [ ] ] } #.;.1.1.1.1.1.1.1.1.1.1.1.1.1.1.1.1.1.1.1.1.1.1.1.1.1.[ [ 9.9.9.9.9.9.9.9.9.9.9.9.9.9.9.9.9.9.9.9.9.9.9.9.9.9.9.9.9.9.9.9.9.9.9.9.9.9.9.9.9.9.9.9.9.",
"9.9.9.9.9.9.9.9.9.9.9.9.9.9.9.8.8.8.2.1.#.] ] ] } #.1.1.1.1.1.1.1.1.1.1.1.1.1.1.1.1.1.1.1.1.1.1.1.1.1.1.1.1.1.[ ] [ 9.9.9.9.9.9.9.9.9.9.9.9.9.9.9.9.9.9.9.9.9.9.9.9.9.9.9.9.9.9.9.9.9.9.9.9.9.9.9.9.9.9.9.9.",
"9.9.9.9.9.9.9.9.9.9.9.9.9.9.8.8.8.2.1.#.] ] #.;.1.1.1.1.1.1.1.;.1.1.1.1.1.1.1.1.1.1.1.1.1.1.1.1.1.1.1.1.1.1.1.[ ] ] o.9.9.9.9.9.9.9.9.9.9.9.9.9.9.9.9.9.9.9.9.9.9.9.9.9.9.9.9.9.9.9.9.9.9.9.9.9.9.9.9.9.9.9.",
"9.9.9.9.9.9.9.9.9.9.9.9.9.6.8.8.3.1.-.] #.1.1.1.1.1.;.#.} ] ] ] ] ] ] [ #.;.1.1.1.1.1.1.1.1.1.1.1.1.1.1.1.1.1.[ ] ] ] 9.9.9.9.9.9.9.9.9.9.9.9.9.9.9.9.9.9.9.9.9.9.9.9.9.9.9.9.9.9.9.9.9.9.9.9.9.9.9.9.9.9.9.",
"9.9.9.9.9.9.9.9.9.9.9.9.4.8.8.3.1.1.#.1.1.1.1.1.#.[ ] ] ] ] ] ] ] ] ] ] ] ] } ;.1.1.1.1.1.1.1.1.1.1.1.1.1.1.1.] ] ] ] } 9.9.9.9.9.9.9.9.9.9.9.9.9.9.9.9.9.9.9.9.9.9.9.9.9.9.9.9.9.9.9.9.9.9.9.9.9.9.9.9.9.9.",
"9.9.9.9.9.9.9.9.9.9.9.9.8.8.5.1.1.1.1.1.1.1.*.[ ] ] U P D D H E ] ] ] ] ] ] ] ] *.1.1.1.1.1.1.1.1.1.1.1.1.1.-.] ] ~ ~ [ 9.9.9.9.9.9.9.9.9.9.9.9.9.9.9.9.9.9.9.9.9.9.9.9.9.9.9.9.9.9.9.9.9.9.9.9.9.9.9.9.9.9.",
"9.9.9.9.9.9.9.9.9.9.9.6.8.7.1.1.1.1.1.1.1.O.] ] S v l l l l l l b U ] ] ] ] ] ] ] *.1.1.1.1.1.1.1.1.1.1.1.1.*.] ] ] ] ] 9.9.9.9.9.9.9.9.9.9.9.9.9.9.9.9.9.9.9.9.9.9.9.9.9.9.9.9.9.9.9.9.9.9.9.9.9.9.9.9.9.9.",
"9.9.9.9.9.9.9.9.9.9.9.8.8.2.1.1.1.1.1.;.} ] 6 + + $ ; 4 t l l l l l H ] P U ] ] ] ] ;.1.1.1.1.1.1.1.1.1.1.1.#.] ] ] ] ] } 9.9.9.9.9.9.9.9.9.9.9.9.9.9.9.9.9.9.9.9.9.9.9.9.9.9.9.9.9.9.9.9.9.9.9.9.9.9.9.9.9.",
"9.9.9.9.9.9.9.9.9.9.6.8.2.1.1.1.1.1.1.} K *               : y l l l l U ] v W ] ] ] O.1.1.1.1.1.1.1.1.1.1.1.O.] ] ] ] ] [ 9.9.9.9.9.9.9.9.9.9.9.9.9.9.9.9.9.9.9.9.9.9.9.9.9.9.9.9.9.9.9.9.9.9.9.9.9.9.9.9.9.",
"9.9.9.9.9.9.9.9.9.9.8.7.1.1.1.1.1.1.#.K #                   . 7 l l l v ] n m ] ] ] ] 1.1.1.1.1.1.1.1.1.1.1.[ ] ] ] ] ] ] 9.3.9.9.9.9.9.9.9.9.9.9.9.9.9.9.9.9.9.9.9.9.9.9.9.9.9.9.9.9.9.9.9.9.9.9.9.9.9.9.9.",
"9.9.9.9.9.9.9.9.9.6.8.2.1.1.1.1.1.;.] *                         7 l l l P C l W ] ] ] ;.1.1.1.1.1.1.1.1.1.1.] ] ] ] ] ] ] 9.9.4.4.3.3.9.9.9.9.9.9.9.9.9.9.9.9.9.9.9.9.9.9.9.9.9.9.9.9.9.9.9.9.9.9.9.9.9.9.9.",
"9.9.9.9.9.9.9.9.9.8.3.1.1.1.1.1.1.O.8                           O y l l m S l F ] ] ] -.1.1.1.1.1.1.1.1.1.#.] ] ] ] ] ] ] 9.9.9.2.3.4.4.3.9.9.9.9.9.9.9.9.9.9.9.9.9.9.9.9.9.9.9.9.9.9.9.9.9.9.9.9.9.9.9.9.9.",
"9.9.9.9.9.9.9.9.6.8.1.1.1.1.1.1.1.[ +                             2 l l v C l S ] ] ] *.1.1.1.1.1.1.1.1.1.} ] ] ] ] ] ] ] 9.9.9.9.} O.2.4.4.3.9.9.9.9.9.9.9.9.9.9.9.9.9.9.9.9.9.9.9.9.9.9.9.9.9.9.9.9.9.9.9.",
"9.9.9.9.9.9.9.9.8.3.1.1.1.1.1.1.-.M                               O l l l b l S ] ] ] 1.1.1.1.1.1.1.1.1.;.] ] ] ] ] ] ] ] 9.9.9.9.9.} ] } 1.3.5.4.3.9.9.9.9.9.9.9.9.9.9.9.9.9.9.9.9.9.9.9.9.9.9.9.9.9.9.9.9.",
"9.9.9.9.9.9.9.4.7.1.1.1.1.1.1.1.*.g                                 y l l l l F ] ] O.1.1.1.1.1.1.1.1.1.O.] ] ] ] ] ] ] ] 2.9.9.9.9.9.O.] ] *.1.3.4.3.4.3.3.9.9.9.9.9.9.9.9.9.9.9.9.9.9.9.9.9.9.9.9.9.9.9.9.",
"9.9.9.9.9.9.9.8.2.u 1.1.1.1.1.1.*.h                                 r l l l l W ] ] ;.1.1.1.1.1.1.1.1.;.] ~ ] ] ] ] ] ] ] 2.4.3.9.9.9.9.} ] ] #.1.2.4.2.2.4.4.3.9.9.9.9.9.9.9.9.9.9.9.9.9.9.9.9.9.9.9.9.9.9.",
"9.9.9.9.9.9.4.5.p   ( 1.1.1.1.1.;.R .                               t l l l V ] ] O.1.1.1.1.1.1.1.1.1.} ] ] ] ] ] ] ] ] [ ;.2.3.3.9.9.9.9.} ] ] #.1.1.5.>.} 1.3.4.3.9.9.9.9.9.9.9.9.9.9.9.9.9.9.9.9.9.9.9.9.",
"9.9.9.9.9.9.4.N X   k 1.1.1.1.1.1.} 3                             X l l l z E ] [ 1.1.1.1.1.1.1.1.1.*.] ] ] ] ] ] ] ] ] } ] ;.1.3.4.9.9.9.9.[ ] ] -.1.1.4.-.] O.2.3.3.9.9.9.9.9.9.9.9.9.9.9.9.9.9.9.9.9.9.9.",
"9.9.9.9.9.9.{ >     q 1.1.1.1.1.1.-.E &                           > l l l P ] [ 1.1.1.1.1.1.1.1.1.;.] ] ] ] ] ] ] ] ] ] } ] ] ;.1.2.3.9.9.9.9.] ] ] ;.1.1.5.O.] } 1.2.5.3.9.9.9.9.9.9.9.9.9.9.9.9.9.9.9.9.9.",
"9.9.9.9.9.>.f       5 1.1.1.1.1.1.1.O.Y -                         e l l H ] } 1.1.1.1.1.1.1.1.1.;.[ ] ] ] ] ] ] ] ] ] ] O.] ] [ 1.1.3.3.9.9.9.[ ] ] } 1.1.2.3.[ ] [ 1.2.4.3.3.3.9.9.9.9.9.9.9.9.9.9.9.9.9.9.",
"9.9.9.9.9.! <   .   , 1.1.1.1.1.1.1.1.O.] 9 o                   1 l v U ] *.1.1.1.1.1.1.1.1.1.;.] ] ] ] ] ] ] ] ] ] ] [ 9.} ] ] #.1.1.3.9.9.9.9.] ] ] ;.1.1.3.-.] ] } 1.1.3.;.3.4.3.9.9.9.9.9.9.9.9.9.9.9.9.",
"9.9.9.9.9.n % 8 a O % 1.1.1.1.1.1.1.1.1.-.[ E w = .           % v F ] #.1.1.1.1.1.1.1.1.1.1.#.] ] ] ] ] ] ] ] ] ] ] ] O.,.:.] ] ] ;.1.2.3.9.9.9.[ ] ] O.1.1.1.3.} ] ] *.1.2.3.[ ;.3.3.9.9.9.9.9.9.9.9.9.9.9.",
"9.9.9.9.@.x D ] ] s & @.1.1.1.1.1.1.1.1.1.1.*.O.[ E j i 0 0 g Y O.*.1.1.1.1.1.1.1.1.1.1.*.} ] ] ] ] ] ] ] ] ] ] ] ] [ <.=.T } ] ] #.1.1.2.9.9.9.} ] ] ] 1.1.1.2.9.] ] [ 1.1.2.;.[ *.2.3.3.3.9.9.9.9.9.9.9.9.",
"9.9.9.9.] ] ] *.} W d ! 1.1.1.1.1.1.1.1.1.1.1.1.1.;.;.;.-.-.1.1.1.1.1.1.1.1.1.1.1.1.*.} ] ] ] ] ] ] ] ] ] ] ] ] ] ] @.' R 9.} ] ] [ 1.1.1.3.9.9.9.] ] ] *.1.1.2.9.} ] ] #.1.1.3.] ] -.1.3.1.3.3.9.9.9.9.9.9.",
"9.9.9.9.} [ ;.1.1.[ U R 1.1.1.1.1.1.1.#.} } #.#.-.1.1.1.1.1.1.1.1.1.1.1.1.1.1.*.} [ ] ] ] ] ] ] ] ] ] ] ] ] ] ] ] [ _ Y _ 9.9.] ] ] ;.1.1.2.9.9.9.[ ] ] #.1.1.1.2.9.] ] } 1.1.2.*.] ] 1.1.3.[ 1.3.3.9.9.9.9.",
"9.9.9.4.} ;.1.1.1.1.[ } 1.1.1.1.1.1.1.1.#.] ] ] ] ] ] } O.#.#.-.*.#.#.O.} [ ] ] ] ] ] ] ] ] ] ] ] ] ] ] ] ] ] ] ] X.Y / 9.9.9.[ ] ] #.1.1.2.9.9.9.[ ] ] } 1.1.1.2.9.] ] ] ;.1.1.2.[ ] O.1.2.-.[ ;.2.3.9.9.9.",
"9.9.9.3.;.1.1.1.1.1.;.[ 1.1.1.1.1.1.1.1.1.} ] ] ] E E ] ] ] ] ] ] ] ] ] ] ] ] ] ~ ] ] ] ] ] ] ] ] ] ] ] ] ] ] ] @.R R 9.9.9.9.} ] ] #.1.1.1.9.9.9.} ] ] [ 1.1.1.2.9.[ ] ] *.1.1.2.{ ] [ 1.1.2.[ ] 1.2.3.9.9.",
"9.9.9.2.1.1.1.1.1.1.1.;.1.1.1.1.1.1.1.1.1.1.} ] ] ] b b D E ] ] ] ] ] ] ] ] ] ] ] ] ] ] ] ] ] ] ] ] ] ] ] ] ] O.' R ^ 9.9.9.9.} ] ] } 1.1.1.9.9.9.} ] ] [ 1.1.1.1.9.} ] ] #.1.1.2.9.] ] *.1.1.*.] } 1.2.9.9.",
"9.9.3.1.1.1.1.1.1.1.1.1.1.1.1.1.1.1.1.1.1.1.1.} ] ] ] b l l b H W ] ] ] ] ] ] ] ] ] ] ] ] ] ] ] ] ] ] ] ] ] @.=.T Y _ 9.9.9.9.{ ] ] } 1.1.1.9.9.9.} ] ] [ 1.1.1.1.9.o.] ] O.1.1.1.9.[ ] o.1.1.9.[ ] ;.1.2.9.",
"9.9.2.1.1.1.1.1.1.1.1.1.1.1.1.1.1.1.1.1.1.1.1.;.[ ] ] W z l b z z S E ] ] H F ] ] ] ] ] ] ] ] ] ] ] ] ] ] @.=.&.Y R 9.9.9.9.9.} ] ] } 1.1.1.9.9.9.{ ] ] [ 1.1.1.1.9.} ] ] O.1.1.1.9.{ ] [ 1.1.2.} ] #.1.2.9.",
"9.9.1.1.1.1.1.1.1.1.1.1.1.1.1.1.1.1.*.1.1.;.1.1.[ ] ] n l Z =.&.D z l m U m l F ] ] ] ] ] ] ] ] ] ] ] } 9.%.=. .Y T 9.9.9.9.9.} ] ] [ 1.1.1.9.9.9.} ] ] ] 1.1.1.>.9.o.] ] } 1.1.1.9.} ] [ 1.1.1.9.] } 1.2.9.",
"9.9.*.1.1.1.1.1.1.1.1.1.1.1.1.1.1.*.] *.1.} -.-.] ] m z K 9.=.=.=._ G v l z l l n U ] ] ] ] ] ] ] [ ` Y 9.%.=.X.Y T 9.9.9.9.9.{ ] ] } 1.1.1.9.9.9.[ ] ] [ 1.1.1.:.9.} ] ] O.1.1.1.9.{ ] [ 1.1.1.9.] [ 1.1.9.",
"9.;.[ } ] #.-.@.1.1.1.1.1.;.[ -.;.[ ] #.#.] } } ] D l K 9.9.=.=.=.| Y Y T A n v l l v V F U [ @.=.` Y Y ' =.=.| Y T 9.9.9.9.9.[ ] ] } 1.1.1.9.9.9.[ ] ] } 1.1.1.1.9.} ] ] #.1.1.1.9.} ] ] 1.1.1.9.] ] 1.1.9.",
"9.1.O.#.#.[ [ O.#.1.1.1.;.] ] ] ] ] ] [ ] ] ] ] E l G 9.9.9.9.=.=.+.Y Y ^ %.=.=.| Y Y Y / 9.$.=.=.' Y Y ) %.=.| R T 9.9.9.9.9.[ ] ] #.1.1.1.9.9.9.~ ] ] O.1.1.1.9.9.{ ] ] #.1.1.:.9.} ] [ 1.1.1.9.] ] 1.1.9.",
"9.1.#.5.*.} 2.1.] ;.;.#.[ R Y P ] I D ] ] ] F ] n B 9.9.9.9.9.=.=.&.Y Y T =.=.=.=.Y Y Y / 9.=.=.=.X.R Y ^ $.=.| Y R 9.9.9.9.9.] ] ] *.1.1.:.9.9.9.] ] ] #.1.1.1.9.9.] ] ] -.1.1.1.9.[ ~ } 1.1.9.9.] [ 1.1.9.",
"9.#.1.5.#.#.8.1.[ #.1.] *.4.*.Y C ^ ! m U m l m v 9.9.9.9.9.9.=.=.=.Y Y Y &.=.=.=.T Y Y T 9.9.=.=.&.R Y T $.=.&.Y Y 9.9.9.9.o.] ] ] ;.1.1.1.9.9.} ] ] ] -.1.1.1.9.9.] ] ] -.1.1.9.9.] ] O.1.1.9.o.] [ 1.1.9.",
"9.[ 2.2.O.-.5.1.[ *.;.] 3.3.*.[ _ 1.} L A #.b z A 9.9.9.9.9.9.%.=.=.Q Y Y _ =.=.=.` Y Y Y 9.9.=.=.=.Y Y R ..=.=.Y Y ) 9.9.9.} ] ] ] 1.1.1.1.9.9.[ ] ] ] ;.1.1.1.9.o.] ] ] 1.1.1.9.9.] ] #.1.1.9.} ] O.1.1.9.",
"9.9.9.#.{ 1.;.#.] *.#.[ 2.1.O.[ 1.1.} ! 1.[ D v 9.9.9.9.9.9.9.=.=.=.' R Y T =.=.=.| Y Y Y ` 9.=.=.=.Q Y Y | =.=.Q Y ^ 9.9.9.] ] ] [ 1.1.1.9.9.9.] ] ] [ 1.1.1.>.9.[ ] ] } 1.1.1.9.} ] ] -.1.:.9.[ ] #.1.:.9.",
"9.9.9.9.9.9.9.9.9.9.O.O.-.} [ } ;.O.] } -.] E V 9.9.9.9.9.9.9.9.9.9.9.) ) 9.9.9.9.9.) ) ) 9.9.9.9.9.9.) ) 9.9.9.9.) ' 9.9.9.o.o.o.9.9.9.9.9.9.9.o.o.o.9.9.9.9.9.9.o.o.o.9.9.9.9.9.9.o.o.9.9.9.9.{ o.9.9.9.9.",
"9.9.9.9.9.9.9.9.9.9.9.9.9.9.9.9.9.9.9.9.9.} } 9.9.9.9.9.9.9.9.9.9.9.9.9.9.9.9.9.9.9.9.9.9.9.9.9.9.9.9.9.9.9.9.9.9.9.9.9.9.9.9.9.9.9.9.9.9.9.9.9.9.9.9.9.9.9.9.9.9.9.9.9.9.9.9.9.9.9.9.9.9.9.9.9.9.9.9.9.9.9."
};
