/* XPM */
static char *result[] = {
/* columns rows colors chars-per-pixel */
"69 66 132 2 ",
"   c #010101",
".  c #0C0C0C",
"X  c #141414",
"o  c #1C1C1C",
"O  c #1F1E21",
"+  c #211D24",
"@  c #252426",
"#  c #27242C",
"$  c #2A252E",
"%  c #2C2B2C",
"&  c #30302E",
"*  c #363636",
"=  c #383837",
"-  c #39363C",
";  c #3B3B3B",
":  c #382C43",
">  c #3C3444",
",  c #3E3A43",
"<  c #41364C",
"1  c #41384A",
"2  c #473C50",
"3  c #434343",
"4  c #484847",
"5  c #464449",
"6  c #4C4C4C",
"7  c #4E4157",
"8  c #4F4C52",
"9  c #504F51",
"0  c #554E5C",
"q  c #535354",
"w  c #575956",
"e  c #585A57",
"r  c #56535A",
"t  c #5B5C5B",
"y  c #5D5465",
"u  c #5C5860",
"i  c #5E506E",
"p  c #615E63",
"a  c #61546F",
"s  c #655D6C",
"d  c #635373",
"f  c #675A73",
"g  c #6A5F74",
"h  c #67547B",
"j  c #6B5A7D",
"k  c #646364",
"l  c #68646A",
"z  c #6B6B6B",
"x  c #6F706D",
"c  c #6E6675",
"v  c #6E6B72",
"b  c #6E637A",
"n  c #726E76",
"m  c #73697D",
"M  c #737374",
"N  c #797B77",
"B  c #77717C",
"V  c #79757D",
"C  c #7E7E7E",
"Z  c #7E807C",
"A  c #80807F",
"S  c #6B5482",
"D  c #6E5B80",
"F  c #756386",
"G  c #766D81",
"H  c #796C84",
"J  c #796889",
"K  c #7C7483",
"L  c #7E7A82",
"P  c #807C83",
"I  c #83798C",
"U  c #857893",
"Y  c #838383",
"T  c #878886",
"R  c #87858A",
"E  c #8B868F",
"W  c #8C8B8C",
"Q  c #898290",
"!  c #8D8A90",
"~  c #938B9B",
"^  c #949394",
"/  c #999997",
"(  c #96919B",
")  c #99969C",
"_  c #9C9B9C",
"`  c #9B95A1",
"'  c #9F9FA0",
"]  c #A09FA0",
"[  c #A39FA8",
"{  c #A4A4A4",
"}  c #A7A8A7",
"|  c #A8A8A7",
" . c #A7A6A8",
".. c #AAA7AC",
"X. c #A7A8A8",
"o. c #ABABAA",
"O. c #AFB1AE",
"+. c #AFABB3",
"@. c #B1AFB4",
"#. c #B3B3B3",
"$. c #B7B8B6",
"%. c #B7B4BA",
"&. c #B8B6BB",
"*. c #BBBBBB",
"=. c #BFC1BD",
"-. c #C0C0BF",
";. c #BDBBC1",
":. c #C1BEC2",
">. c #C3C3C3",
",. c #C8C8C7",
"<. c #C7C5C8",
"1. c #C8C7CA",
"2. c #CCCCCC",
"3. c #CFD0CF",
"4. c #D0D0CF",
"5. c #CECED0",
"6. c #D0CFD1",
"7. c #D4D4D4",
"8. c #D7D8D7",
"9. c #D6D5D8",
"0. c #DBDBDB",
"q. c #DFE0DF",
"w. c #E1E1DF",
"e. c #DFDFE1",
"r. c #E0DFE1",
"t. c #E3E3E3",
"y. c #E7E8E7",
"u. c #ECECEB",
"i. c #F0F0EF",
"p. c #F3F3F3",
"a. c #FFFFFF",
"s. c None",
/* pixels */
"s.s.s.s.s.s.s.s.s.s.s.s.s.s.s.s.s.s.s.s.s.s.s.s.s.s.s.s.s.s.s.s.s.s.s.s.s.s.s.s.s.s.s.s.s.s.s.s.s.s.s.s.s.s.s.s.s.s.s.s.s.s.s.s.s.s.s.s.s.",
"s.s.s.s.s.s.s.s.s.s.s.s.s.s.s.s.s.s.s.s.s.s.s.s.s.s.s.s.s.s.s.s.s.s.s.s.s.s.s.s.s.s.s.s.s.s.s.s.s.s.s.s.s.s.s.s.s.s.s.s.s.s.s.s.s.s.s.s.s.",
"s.s.s.s.s.s.s.s.s.s.s.s.s.s.s.s.s.s.s.s.s.s.s.s.s.s.s.s.s.s.s.s.s.s.s.s.s.s.s.s.s.s.s.s.s.s.s.s.s.s.s.s.s.s.s.s.s.s.s.s.s.s.s.s.s.s.s.s.s.",
"s.s.s.s.s.s.j G K G j s.s.h G L P A A C C C C C Y C B g s.s.s.F K K b s.s.s.s.s.s.s.s.s.s.s.s.s.s.s.s.s.s.s.s.s.s.s.s.s.s.s.s.s.s.s.s.s.s.",
"s.s.s.s.s.s.s ` &.[ m < > s ~ :.6.2.2.2.,.2.,.2.2.,...B 2 : y ~ %...V s.s.s.s.s.s.s.s.s.s.s.s.s.s.s.s.s.s.s.s.s.s.s.s.s.s.s.s.s.s.s.s.s.s.",
"s.s.s.s.s.s.p #.e.1.Y 5 , n &.i.a.a.a.p.a.p.a.a.a.p.6.W 9 - l +.r.1.Y - s.s.s.s.s.s.s.s.s.s.s.s.s.s.s.s.s.s.s.s.s.s.s.s.s.s.s.s.s.s.s.s.s.",
"s.s.s.s.s.s.t $.u.t.o.M n / 7.a.a.a.a.a.a.a.a.a.a.a.y.@.C z ^ 2.i.6.C % s.s.s.s.s.s.s.s.s.s.s.s.s.s.s.s.s.s.s.s.s.s.s.s.s.s.s.s.s.s.s.s.s.",
"s.s.s.s.s.s.t #.u.p.7.$.#.,.y.a.a.a.a.a.a.a.a.a.a.a.p.7.*.#.,.u.p.2.N s.s.s.s.s.s.s.s.s.s.s.s.s.s.s.s.s.s.s.s.s.s.s.s.s.s.s.s.s.s.s.s.s.s.",
"s.s.s.s.s.s.t o.u.a.a.u.u.p.p.a.a.a.a.a.a.a.a.a.a.a.a.p.u.u.p.a.p.2.Z = s.s.s.s.s.s.s.s.s.s.s.s.s.s.s.s.s.s.s.s.s.s.s.s.s.s.s.s.s.s.s.s.s.",
"s.s.s.s.s.s.w | u.a.a.a.a.a.a.a.a.a.a.a.a.a.a.a.a.a.a.a.a.a.a.a.a.8._ k 5 s.s.s.s.s.s.s.s.s.s.s.s.s.s.s.s.s.s.s.s.s.s.s.s.s.s.s.s.s.s.s.s.",
"s.s.s.s.s.s.q } u.a.a.a.a.a.a.a.a.a.a.a.a.a.a.a.a.a.a.a.a.a.a.a.a.y.>.] Y c s.s.s.s.s.s.s.s.s.s.s.s.s.s.s.s.s.s.s.s.s.s.s.s.s.s.s.s.s.s.s.",
"s.s.s.s.s.+ t | u.a.a.a.a.a.a.a.a.a.a.a.a.a.a.a.a.a.a.a.a.a.a.a.a.p.i.0.:.! r s.s.s.s.s.s.s.s.s.s.s.s.s.s.s.s.s.s.s.s.s.s.s.s.s.s.s.s.s.s.",
"s.s.s.s.: > n $.p.p.p.y.y.u.p.a.a.a.a.p.p.y.t.u.p.p.a.a.a.a.a.a.a.a.a.a.t._ 6 s.s.s.s.s.s.s.s.s.s.s.s.s.s.s.s.s.s.s.s.s.s.s.s.s.s.s.s.s.s.",
"s.s.s.h s M _ 4.u.u.1.X.{ *.t.p.a.a.a.u.2.O.{ #.7.p.a.a.a.a.a.a.a.a.a.a.u.{ 6 s.s.s.s.s.s.s.s.s.s.s.s.s.s.s.s.s.s.s.s.s.s.s.s.s.s.s.s.s.s.",
"s.s.s.m ( &.8.u.p.7./ k k W ,.p.a.a.a.t.X.M t V #.u.a.a.a.a.a.a.a.a.a.a.u.{ 4 s.s.s.s.s.s.s.s.s.s.s.s.s.s.s.s.s.s.s.s.s.s.s.s.s.s.s.s.s.s.",
"s.s.1 L :.u.a.a.p.>.C 3 ; M *.p.a.a.a.8./ q * t _ t.a.a.a.a.a.a.a.a.a.a.y.{ t o s.s.s.s.s.s.s.s.s.s.s.s.s.s.s.s.s.s.s.s.s.s.s.s.s.s.s.s.s.",
"s.s.* A 6.a.a.a.a.,.W r q Y ,.p.a.a.a.t.{ k 6 z o.y.a.a.a.a.a.a.a.a.a.a.u.*.A 6 = s.s.s.s.s.s.s.s.s.s.s.s.s.s.s.s.s.s.s.s.s.s.s.s.s.s.s.s.",
"s.s.* C 7.a.a.a.p.0.$./ / #.0.a.a.a.a.p.,.{ ^ { ,.p.a.a.a.a.a.a.a.a.a.a.p.7.#.^ T Y Y C c s.s.s.s.s.s.s.s.s.s.s.s.s.s.s.s.s.J I K c s.s.s.",
"s.s.* Y 2.a.a.a.a.p.y.8.7.t.p.a.a.a.a.p.u.0.7.0.u.p.a.a.a.a.a.a.a.a.a.a.p.p.e.7.7.8.7.*.W 0 s.s.s.s.s.s.s.s.s.s.s.s.s.s.s.i ~ ;.#.L s.s.s.",
"s.s.= C 2.p.a.a.a.a.a.a.p.p.y.e.0.0.0.y.u.p.a.a.a.a.a.a.a.a.a.a.a.a.a.a.a.a.a.a.a.a.a.t. .k s.s.s.s.s.s.s.s.s.s.s.s.s.s.s.0 { e.5.T s.s.s.",
"s.s.* A 2.a.a.a.a.a.a.a.a.0.*.' ^ W ^ { ,.y.a.a.a.a.a.a.a.a.a.a.a.a.a.a.a.a.a.a.a.a.a.p.1.^ l t t u u s.s.s.s.s.s.s.s.s.s.8 X.t.7.W s.s.s.",
"s.s.* Z 2.a.a.a.a.a.a.a.u.*.A w 3 ; 4 k / 7.p.a.a.a.a.a.a.a.a.a.a.a.a.a.a.a.a.a.a.a.a.p.y.,.#.O.O.O._ B s.s.s.s.s.s.s.s.s.8 } t.7.W = s.s.",
"s.s.= P 2.a.a.p.p.p.a.a.0.' w O . . o ; L ,.p.a.a.p.p.a.p.a.a.a.a.a.a.a.a.a.a.a.a.a.a.a.p.p.u.p.p.u.3.^ r s.s.s.s.s.s.s.O t o.q.7.Y ; s.s.",
"s.s.= Y 2.p.u.7.>.2.u.p.q./ 3 .   . * p / 7.p.p.8.>.,.8.u.a.a.a.a.a.a.a.a.a.a.a.a.a.a.a.a.a.a.a.a.a.u.#.M 4 = = ; , = ; 8 Y >.y.2.T = s.s.",
"s.s.= Y 3.u.,./ V W ,.u.t._ 3 X X 3 N { 3.p.p.8.{ N Y X.8.a.a.a.a.a.a.a.a.a.a.a.a.a.a.a.a.a.a.a.a.a.p.4.o.W Y Y W T T W / $.0.u.2.Y = s.s.",
"s.s.= R 2.t.#.z 3 t { 0.0./ 4 X * x #.0.p.a.p.*.N 5 8 Y ,.a.a.a.a.a.a.a.a.a.a.a.a.a.a.a.a.a.a.a.a.a.a.u.w.8.7.7.7.8.4.4.8.y.a.p.2.Y = s.s.",
"s.s.= W 3.t.#.l ; 9 T *.*.Y ; X * N *.0.y.t.2.' k ; 6 Y 2.p.a.a.a.a.a.a.a.a.a.a.a.a.a.a.a.a.a.a.a.a.a.a.a.a.a.a.a.a.a.a.a.a.a.a.2.L * s.s.",
"s.s.= Y 2.u.,./ x l C T N 9 @ . o 9 A / _ ^ W Z x k C X.0.p.a.a.a.a.a.a.a.a.a.a.a.a.a.a.a.a.a.a.a.a.a.a.a.a.a.a.a.a.a.a.a.a.a.p.2.A * s.s.",
"s.s.= Y 2.p.u.7.#.^ M q = O .   . @ ; 3 3 3 4 k Y { >.8.i.a.a.a.a.a.a.a.a.a.a.a.a.a.a.a.a.a.a.a.a.a.a.a.a.a.a.a.a.a.a.a.a.a.a.p.2.Z = s.s.",
"s.s.= A 1.a.a.a.u.*.N 3 o . . . X X o o X X % t _ 8.p.a.a.a.a.a.a.a.a.a.a.a.a.a.a.a.a.a.a.a.a.a.a.a.a.a.a.a.a.a.a.a.a.a.a.a.a.a.2.L = s.s.",
"s.s.= Z 2.p.a.a.a.7./ t 3 = , 3 , 3 3 ; = ; 6 V *.i.a.a.a.a.a.a.a.a.a.a.a.a.a.a.a.a.a.a.a.a.a.a.a.a.a.a.a.a.a.a.a.a.a.a.a.a.a.a.2.A * s.s.",
"s.s.= L 2.a.a.a.a.y.>.' W W W ^ W W W W T T ^ O.7.p.a.a.a.a.a.a.a.a.a.a.a.a.a.a.a.a.a.a.a.a.a.a.a.a.a.a.a.a.a.a.a.a.a.a.a.a.a.p.2.C = s.s.",
"s.s.= Z 2.a.a.a.a.p.u.0.8.8.8.8.8.8.8.7.8.7.8.y.p.p.a.a.a.a.a.a.a.a.a.a.a.a.a.a.a.a.a.a.a.a.a.a.a.a.a.a.a.a.a.a.a.a.a.a.a.a.a.p.2.Y * s.s.",
"s.s.= A 2.p.a.a.a.a.a.a.a.a.a.a.a.a.a.a.a.a.a.a.a.a.a.a.a.a.a.a.a.a.a.a.a.a.a.a.a.a.a.a.a.a.a.a.a.a.a.a.a.a.a.a.a.a.a.a.a.a.a.a.2.Z * s.s.",
"s.s.= L 2.a.a.a.a.a.a.a.a.a.a.a.a.a.a.a.a.a.a.a.a.a.a.a.a.a.a.a.a.a.a.a.a.a.a.a.a.a.a.a.a.a.a.a.a.a.a.a.a.a.a.a.a.a.a.a.a.a.a.a.2.A * s.s.",
"s.s.= C 7.p.a.a.a.a.a.a.a.a.a.a.a.a.a.a.a.a.a.a.a.a.a.a.a.a.a.a.a.a.a.a.a.a.a.a.a.a.a.a.a.a.a.a.a.a.a.a.a.a.a.a.a.a.a.a.a.a.a.p.2.L = s.s.",
"s.s.= L 2.a.a.a.a.a.a.a.a.a.a.a.a.a.a.a.a.a.a.a.a.a.a.a.a.a.a.a.a.a.a.a.a.a.a.a.a.a.a.a.a.a.a.a.a.a.a.a.a.a.a.a.a.a.a.a.a.a.a.p.2.C * s.s.",
"s.s.= A 2.a.a.a.a.a.a.a.a.a.a.a.a.a.a.a.a.a.a.a.a.a.a.a.a.a.a.a.a.a.a.a.a.a.a.a.a.a.a.a.a.a.a.a.a.a.a.a.a.a.a.a.a.a.a.a.a.a.a.a.2.C = s.s.",
"s.s.= A 2.p.a.a.a.a.a.a.a.a.a.a.a.a.a.a.a.a.a.a.a.a.a.a.a.a.a.a.a.a.a.a.a.a.a.a.a.a.a.a.a.a.a.a.a.a.a.a.a.a.a.a.a.a.a.a.a.a.a.a.2.Y * s.s.",
"s.s.= A 7.p.a.a.a.a.a.a.a.a.a.a.a.a.a.a.a.a.a.a.a.a.a.a.a.a.a.a.a.a.a.a.a.a.a.a.a.a.a.a.a.a.a.a.a.a.a.a.a.a.a.a.a.a.a.a.a.a.a.p.2.C * s.s.",
"s.s.= L 2.a.a.a.a.a.a.a.a.a.a.a.a.a.a.a.a.a.a.a.a.a.a.a.a.a.a.a.a.a.a.a.a.a.a.a.a.a.a.a.a.a.a.a.a.a.a.a.a.a.a.a.a.a.a.a.a.a.a.a.2.C * s.s.",
"s.s.= A 2.a.a.a.a.a.a.a.a.a.a.a.a.a.a.a.a.a.a.a.a.a.a.a.a.a.a.a.a.a.a.a.a.a.a.a.a.a.a.a.a.a.a.a.a.a.a.a.a.a.a.a.a.a.a.a.a.a.a.a.7.C * s.s.",
"s.s.= A 2.p.a.a.a.a.a.a.a.a.a.a.a.a.a.a.a.a.a.a.a.a.a.a.a.a.a.a.a.a.a.a.a.a.a.a.a.a.a.a.a.a.a.a.a.a.a.a.a.a.a.a.a.a.a.a.a.a.a.a.3.Y * s.s.",
"s.s.= L 2.a.a.a.a.a.a.a.a.a.a.a.a.a.a.a.a.a.a.a.a.a.a.a.a.a.a.a.a.a.a.a.a.a.a.a.a.a.a.a.a.a.a.a.a.a.a.a.a.a.a.a.a.a.a.a.a.a.a.u.;.C , s.s.",
"s.s.* A 3.a.a.a.a.a.a.a.a.a.a.a.a.a.a.a.a.a.a.a.a.a.a.a.a.a.a.a.a.a.a.a.a.a.a.a.a.a.a.a.a.a.a.a.a.a.a.a.a.a.a.a.a.a.a.a.p.u.7.*.) n s.s.s.",
"s.s.* Y 7.a.a.a.a.a.a.a.a.a.a.a.a.a.a.a.a.a.a.a.a.a.a.a.a.a.a.a.a.a.a.a.a.a.a.a.a.a.a.a.a.a.a.a.a.a.a.a.a.a.a.a.a.a.a.a.p.4._ M k s.s.s.s.",
"s.s.- L 5.p.a.a.a.a.a.a.a.a.a.a.a.a.a.a.a.a.a.a.a.a.a.a.a.a.a.a.a.a.a.a.a.a.a.a.a.a.a.a.a.a.a.a.a.a.a.a.a.a.a.a.a.a.a.a.u.$.x ; s.s.s.s.s.",
"s.s.s.K +.8.u.p.a.a.a.a.a.a.a.a.a.a.a.a.a.a.a.a.a.a.a.a.a.a.a.a.a.a.a.a.a.a.a.a.a.a.a.a.a.a.a.a.a.a.a.a.a.a.a.a.a.a.a.a.u.o.e s.s.s.s.s.s.",
"s.s.s.b P ) *.0.p.a.a.a.a.a.a.a.a.a.a.a.a.a.a.a.a.a.a.a.a.a.a.a.a.a.a.a.a.a.a.a.a.a.a.a.a.a.a.a.a.a.a.a.a.a.a.a.a.a.a.a.u.X.q s.s.s.s.s.s.",
"s.s.s.s.7 r Y :.i.a.a.a.a.a.a.a.a.a.a.a.a.a.a.a.a.a.a.a.a.a.a.a.a.a.a.a.a.a.a.a.a.a.a.a.a.a.a.a.a.a.a.a.a.a.a.a.a.a.a.a.u.X.w s.s.s.s.s.s.",
"s.s.s.s.s.$ p O.u.a.a.a.a.p.p.u.u.u.u.i.p.p.a.a.a.a.a.p.i.u.u.u.y.u.u.y.u.u.u.u.p.p.p.a.a.a.a.p.p.p.u.u.u.u.p.p.p.a.a.a.u.X.t s.s.s.s.s.s.",
"s.s.s.s.s.s.w } u.a.a.a.p.e.,.#.} } O.*.7.u.a.a.a.a.p.8.>.#.X.o.o.o.o.o.o.o.X.#.>.8.p.a.a.a.a.u.7.*.o.X.o.#.,.q.p.a.a.a.p.O.e s.s.s.s.s.s.",
"s.s.s.s.s.s.r } u.a.a.a.p.>.W k q q p V X.8.p.a.a.a.t.$.Y k t w e t t e t e t k Y #.t.a.a.a.p.8.{ V k q t l W =.u.a.a.a.p.O.e s.s.s.s.s.s.",
"s.s.s.s.s.s.t o.u.a.a.a.r.{ p s.s.s.o 3 Y ,.p.a.a.a.7./ q @ s.s.s.s.s.s.s.s.s.@ q / 7.a.a.a.p.,.Z 3 s.s.s.% p { t.a.a.a.u.X.t s.s.s.s.s.s.",
"s.s.s.s.s.s.t o.u.a.p.0.&.R s.s.s.s.s.@ z *.p.a.a.a.7.Y * s.s.s.s.s.s.s.s.s.s.s.= Y 5.a.a.a.p.*.z s.s.s.s.s.4 / 0.a.p.y.>.^ u s.s.s.s.s.s.",
"s.s.s.s.s.s.t #.i.u.,.) K s.s.s.s.s.s.+ l *.p.a.a.a.7.Y & s.s.s.s.s.s.s.s.s.s.s.* P 2.a.a.a.a.>.z s.s.s.s.s.3 _ w.p.7.| Z c s.s.s.s.s.s.s.",
"s.s.s.s.s.s.p #.y.8./ u s.s.s.s.s.s.s.# l *.p.a.a.a.7.Y s.s.s.s.s.s.s.s.s.s.s.s.- Y 2.a.a.a.p.>.v s.s.s.s.s.6 ] 0.t.o.z 5 s.s.s.s.s.s.s.s.",
"s.s.s.s.s.s.k ..7.*.V s.s.s.s.s.s.s.s.$ z *.p.a.a.u.>.P s.s.s.s.s.s.s.s.s.s.s.s.- Y 4.a.a.a.r.#.n s.s.s.s.s.0 ` 2.1.W 8 s.s.s.s.s.s.s.s.s.",
"s.s.s.s.s.s.f Q ) W g s.s.s.s.s.s.s.s.s.x =.p.p.7.#.^ c s.s.s.s.s.s.s.s.s.s.s.s.- T 7.p.y.2.} Y s.s.s.s.s.s.d U ` ~ n s.s.s.s.s.s.s.s.s.s.",
"s.s.s.s.s.s.s.f y a s.s.s.s.s.s.s.s.s.s.x >.i.0.{ v u s.s.s.s.s.s.s.s.s.s.s.s.s.> W 8.i.2.^ k s.s.s.s.s.s.s.s.S d y s.s.s.s.s.s.s.s.s.s.s.",
"s.s.s.s.s.s.s.s.s.s.s.s.s.s.s.s.s.s.s.s.M ;.t.*.N s.s.s.s.s.s.s.s.s.s.s.s.s.s.s.1 E 7.0.o.k s.s.s.s.s.s.s.s.s.s.s.s.s.s.s.s.s.s.s.s.s.s.s.",
"s.s.s.s.s.s.s.s.s.s.s.s.s.s.s.s.s.s.s.s.m [ &.) s s.s.s.s.s.s.s.s.s.s.s.s.s.s.s.s.I +.@.Q s.s.s.s.s.s.s.s.s.s.s.s.s.s.s.s.s.s.s.s.s.s.s.s.",
"s.s.s.s.s.s.s.s.s.s.s.s.s.s.s.s.s.s.s.s.D H K m s.s.s.s.s.s.s.s.s.s.s.s.s.s.s.s.s.F K K s.s.s.s.s.s.s.s.s.s.s.s.s.s.s.s.s.s.s.s.s.s.s.s.s.",
"s.s.s.s.s.s.s.s.s.s.s.s.s.s.s.s.s.s.s.s.s.s.s.s.s.s.s.s.s.s.s.s.s.s.s.s.s.s.s.s.s.s.s.s.s.s.s.s.s.s.s.s.s.s.s.s.s.s.s.s.s.s.s.s.s.s.s.s.s.",
"s.s.s.s.s.s.s.s.s.s.s.s.s.s.s.s.s.s.s.s.s.s.s.s.s.s.s.s.s.s.s.s.s.s.s.s.s.s.s.s.s.s.s.s.s.s.s.s.s.s.s.s.s.s.s.s.s.s.s.s.s.s.s.s.s.s.s.s.s.",
"s.s.s.s.s.s.s.s.s.s.s.s.s.s.s.s.s.s.s.s.s.s.s.s.s.s.s.s.s.s.s.s.s.s.s.s.s.s.s.s.s.s.s.s.s.s.s.s.s.s.s.s.s.s.s.s.s.s.s.s.s.s.s.s.s.s.s.s.s."
};
