/* XPM */
static char *result[] = {
/* columns rows colors chars-per-pixel */
"76 66 148 2 ",
"   c #020203",
".  c #0B0C0B",
"X  c #0D0C10",
"o  c #131313",
"O  c #15121B",
"+  c #1A171C",
"@  c #1C1C1C",
"#  c #1E1C21",
"$  c #231A28",
"%  c #291D34",
"&  c #232323",
"*  c #252028",
"=  c #28222F",
"-  c #2C2C2B",
";  c #2B2431",
":  c #2F2C31",
">  c #33293D",
",  c #373637",
"<  c #38323E",
"1  c #3C3B3D",
"2  c #3D3E40",
"3  c #423D45",
"4  c #443C4A",
"5  c #453653",
"6  c #463A54",
"7  c #493B55",
"8  c #454645",
"9  c #484947",
"0  c #464549",
"q  c #49464C",
"w  c #4B4A4C",
"e  c #4D4754",
"r  c #4F4D51",
"t  c #514E53",
"y  c #50445C",
"u  c #544B5C",
"i  c #535253",
"p  c #585957",
"a  c #575558",
"s  c #59545D",
"d  c #5A5A5A",
"f  c #584C63",
"g  c #5D4E6C",
"h  c #5A5362",
"j  c #5F5965",
"k  c #5D506A",
"l  c #645E6A",
"z  c #635771",
"x  c #665973",
"c  c #6A5D74",
"v  c #6C5F7B",
"b  c #646463",
"n  c #676668",
"m  c #69666D",
"M  c #6C6C6C",
"N  c #6B6373",
"B  c #6E6C71",
"V  c #6D6178",
"C  c #71657C",
"Z  c #736A7C",
"A  c #737373",
"S  c #76717B",
"D  c #78757B",
"F  c #7C7C7C",
"G  c #80807F",
"H  c #735D88",
"J  c #746584",
"K  c #756B80",
"L  c #786D82",
"P  c #76618D",
"I  c #7B678D",
"U  c #7E6D8E",
"Y  c #797082",
"T  c #7F7F80",
"R  c #7B6691",
"E  c #837F86",
"W  c #82768E",
"Q  c #837B8C",
"!  c #816F92",
"~  c #837493",
"^  c #867C92",
"/  c #887D94",
"(  c #828282",
")  c #86838A",
"_  c #8B8B8B",
"`  c #8F918C",
"'  c #8C8495",
"]  c #8D8A91",
"[  c #8F8599",
"{  c #8F8898",
"}  c #918E95",
"|  c #90879A",
" . c #948C9B",
".. c #929292",
"X. c #979996",
"o. c #989A97",
"O. c #97929B",
"+. c #98959C",
"@. c #9B9B9B",
"#. c #9FA09D",
"$. c #A0A09F",
"%. c #9B95A2",
"&. c #9D9CA1",
"*. c #A19BA6",
"=. c #A099A8",
"-. c #A4A4A4",
";. c #A7A8A4",
":. c #A5A2AA",
">. c #A9A5AE",
",. c #AAAAAA",
"<. c #ABA6B0",
"1. c #AEAAB2",
"2. c #B0ADB3",
"3. c #B4AEB8",
"4. c #B3B3B3",
"5. c #B7B9B6",
"6. c #B9BAB7",
"7. c #B5B2B9",
"8. c #BAB7BE",
"9. c #BCBCBB",
"0. c #BEC0BC",
"q. c #C0C1BE",
"w. c #BEBBC2",
"e. c #C1BEC4",
"r. c #C3BEC8",
"t. c #C3C4C3",
"y. c #C6C3C9",
"u. c #C8C7CA",
"i. c #CCCBCC",
"p. c #D4D4D4",
"a. c #D7D8D7",
"s. c #D8D9D7",
"d. c #D7D6D8",
"f. c #DCDCDC",
"g. c #DFE0DF",
"h. c #E0E2DF",
"j. c #DFDFE0",
"k. c #E0DFE0",
"l. c #E4E4E4",
"z. c #E7E8E6",
"x. c #E8E8E6",
"c. c #ECECEC",
"v. c #EFF0EF",
"b. c #F0F0EF",
"n. c #F0EEF0",
"m. c #F3F3F3",
"M. c #FFFFFF",
"N. c None",
/* pixels */
"N.N.N.N.N.N.N.N.N.N.N.N.N.N.N.N.N.N.N.N.N.N.N.N.N.N.N.N.N.N.N.N.N.N.N.N.N.N.N.N.N.N.N.N.N.N.N.N.N.N.N.N.N.N.N.N.N.N.N.N.N.N.N.N.N.N.N.N.N.N.N.N.N.N.N.N.",
"N.N.N.N.N.N.N.N.N.N.N.N.N.N.N.N.N.N.N.N.N.N.N.N.N.N.N.N.N.N.N.N.N.N.N.N.N.N.N.N.N.N.N.N.N.N.N.N.N.N.N.N.N.N.N.N.N.N.N.N.N.N.N.N.N.N.N.N.N.N.N.N.N.N.N.N.",
"N.N.N.N.N.N.N.N.N.N.N.N.N.N.N.N.N.N.N.8 8 8 8 8 N.N.N.N.N.N.N.N.N.N.N.N.N.N.N.N.N.N.N.N.N.N.N.N.N.N.N.N.N.N.N.N.N.N.N.N.N.N.N.N.N.N.N.N.N.N.N.N.N.N.N.N.",
"N.N.N.N.N.N.R ^ | / I N.N.P ~ ] } ` .._ .._ ......} ' U N.N.H ~ | ' ! N.N.N.N.N.N.N.N.N.N.N.N.N.N.N.N.N.N.N.N.N.N.N.N.N.N.N.N.N.N.N.N.N.N.N.N.N.N.N.N.N.",
"N.N.N.N.N.N.L <.r.2.W y 7 Z :.i.p.s.p.p.p.p.p.p.s.p.w.' f 5 c =.r.8.' g N.N.N.N.N.N.N.N.N.N.N.N.N.N.N.N.N.N.N.N.N.N.N.N.N.N.N.N.N.N.N.N.N.N.N.N.N.N.N.N.",
"N.N.N.N.N.> S q.z.p.O.s t E y.n.M.M.M.M.M.M.M.M.M.m.s.*.l q D 6.z.p.+.e N.N.N.N.N.N.N.N.N.N.N.N.N.N.N.N.N.N.N.N.N.N.N.N.N.N.N.N.N.N.N.N.N.N.N.N.N.N.N.N.",
"N.N.N.N.N.= A t.n.x.9._ ( ,.d.M.M.M.M.M.M.M.M.M.M.M.c.e.} G -.p.m.s.X.3 N.N.N.N.N.N.N.N.N.N.N.N.N.N.N.N.N.N.N.N.N.N.N.N.N.N.N.N.N.N.N.N.N.N.N.N.N.N.N.N.",
"N.N.N.N.N.; B 9.m.m.f.t.q.p.c.M.M.M.M.M.M.M.M.M.M.M.m.l.t.q.p.c.m.s...1 N.N.N.N.N.N.N.N.N.N.N.N.N.N.N.N.N.N.N.N.N.N.N.N.N.N.N.N.N.N.N.N.N.N.N.N.N.N.N.N.",
"N.N.N.N.N.; B 5.c.M.M.m.c.m.M.M.M.M.M.M.M.M.M.M.M.M.M.m.m.m.m.M.M.s.X.r % N.N.N.N.N.N.N.N.N.N.N.N.N.N.N.N.N.N.N.N.N.N.N.N.N.N.N.N.N.N.N.N.N.N.N.N.N.N.N.",
"N.N.N.N.N.= M 5.c.M.M.M.M.M.M.M.M.M.M.M.M.M.M.M.M.M.M.M.M.M.M.M.M.f.,.D h N.N.N.N.N.N.N.N.N.N.N.N.N.N.N.N.N.N.N.N.N.N.N.N.N.N.N.N.N.N.N.N.N.N.N.N.N.N.N.",
"N.N.N.N.N.$ n 5.v.M.M.M.M.M.M.M.M.M.M.M.M.M.M.M.M.M.M.M.M.M.M.M.M.v.p.2.+.~ N.N.N.N.N.N.N.N.N.N.N.N.N.N.N.N.N.N.N.N.N.N.N.N.N.N.N.N.N.N.N.N.N.N.N.N.N.N.",
"N.N.N.N.N.; M 5.v.M.M.M.M.M.M.M.M.M.M.M.M.M.M.M.M.M.M.M.M.M.M.M.M.m.m.l.i.*.V N.N.N.N.N.N.N.N.N.N.N.N.N.N.N.N.N.N.N.N.N.N.N.N.N.N.N.N.N.N.N.N.N.N.N.N.N.",
"N.N.N.N.5 e ( t.v.M.m.c.x.m.m.M.M.M.M.M.m.v.x.c.m.M.M.M.M.M.M.M.M.M.M.M.x.4.n N.N.N.N.N.N.N.N.N.N.N.N.N.N.N.N.N.N.N.N.N.N.N.N.N.N.N.N.N.N.N.N.N.N.N.N.N.",
"N.N.N.P K ) ,.d.m.c.p.5.4.u.l.M.M.M.M.m.s.w.4.9.f.m.M.M.M.M.M.M.M.M.M.M.m.4.b N.N.N.N.N.N.N.N.N.N.N.N.N.N.N.N.N.N.N.N.N.N.N.N.N.N.N.N.N.N.N.N.N.N.N.N.N.",
"N.N.N.^ :.y.f.m.m.f.;.F A #.i.m.M.M.M.x.9.) A _ 9.c.M.M.M.M.M.M.M.M.M.M.n.4.b N.N.N.N.N.N.N.N.N.N.N.N.N.N.N.N.N.N.N.N.N.N.N.N.N.N.N.N.N.N.N.N.N.N.N.N.N.",
"N.N.y ] i.n.M.M.m.p...a w ( u.m.M.M.M.l.;.n 0 M ,.z.M.M.M.M.M.M.M.M.M.M.c.9.A - N.N.N.N.N.N.N.N.N.N.N.N.N.N.N.N.N.N.N.N.N.N.N.N.N.N.N.N.N.N.N.N.N.N.N.N.",
"N.N.0 ..s.M.M.M.m.p.@.M n O.i.m.M.M.M.z.4.F b F 4.x.M.M.M.M.M.M.M.M.M.M.m.u...b 8 8 q f N.N.N.N.N.N.N.N.N.N.N.N.N.N.N.N.N.N.N.N.N.N.N.N.N.N.N.N.N.N.N.N.",
"N.N.8 ..s.M.M.M.M.z.t.;.;.9.l.M.M.M.M.m.p.2.-.4.p.m.M.M.M.M.M.M.M.M.M.M.m.f.t.;.X.X.@. .W N.N.N.N.N.N.N.N.N.N.N.N.N.N.N.N.N.N.N.N.N.N.N.N.N.N.N.N.N.N.N.",
"N.N.8 ..p.M.M.M.M.m.x.s.j.z.m.M.M.M.M.M.c.l.f.l.c.M.M.M.M.M.M.M.M.M.M.M.M.m.z.f.f.f.f.u.*.c N.N.N.N.N.N.N.N.N.N.N.N.N.N.N.N.N.N.N.N.N.N.N.N.N.N.N.N.N.N.",
"N.N.8 ..p.M.M.M.M.M.M.M.M.m.c.z.z.l.l.z.c.m.M.M.M.M.M.M.M.M.M.M.M.M.M.M.M.M.M.M.M.M.M.x.9.F 0 N.N.N.N.N.N.N.N.N.N.N.N.N.N.N.N.N.N.N.N.N.N.N.N.N.N.N.N.N.",
"N.N.8 ..p.M.M.M.M.M.M.M.M.z.t.4.;.#.;.5.p.c.M.M.M.M.M.M.M.M.M.M.M.M.M.M.M.M.M.M.M.M.M.m.p.;.F M B A Z N.N.N.N.N.N.N.N.N.N.N.N.N.N.N.N.N.N.N.N.N.N.N.N.N.",
"N.N.8 ..p.M.M.M.M.M.M.M.c.t.X.M i w a A ;.d.M.M.M.M.M.M.M.M.M.M.M.M.M.M.M.M.M.M.M.M.M.M.x.p.t.0.0.9.1.[ N.N.N.N.N.N.N.N.N.N.N.N.N.N.N.N.N.N.N.N.N.N.N.N.",
"N.N.8 ..p.M.M.M.M.M.M.M.z.2.n - .   # r ..i.m.M.M.m.m.M.M.M.M.M.M.M.M.M.M.M.M.M.M.M.M.M.M.m.m.m.M.v.s.>.B > N.N.N.N.N.N.N.N.N.N.N.N.N.N.N.N.N.N.N.N.N.N.",
"N.N.9 ..p.m.n.s.i.s.c.m.z.,.d .   + 8 B ,.f.m.m.l.i.p.f.v.M.M.M.M.M.M.M.M.M.M.M.M.M.M.M.M.M.M.M.M.M.n.t._ d w q w t r r r r r t t t i i i i s z N.N.N.N.",
"N.N.9 X.s.n.p.,._ @.p.v.x.,.d o @ i _ 4.p.m.m.l.4.....4.j.M.M.M.M.M.M.M.M.M.M.M.M.M.M.M.M.M.M.M.M.M.m.f.9.$.o.o.@.@.o.@.@.@.@.@.@.$.-.-.;.;.-.%.~ N.N.N.",
"N.N.9 +.d.x.w.T i M ,.l.l.;.d & 2 G 0.l.M.M.m.u._ d d X.p.m.M.M.M.M.M.M.M.M.M.M.M.M.M.M.M.M.M.M.M.M.M.m.x.g.f.s.g.f.f.f.f.f.f.f.f.f.f.g.g.g.f.w.[ N.N.N.",
"N.N.9 @.s.x.e.F w b @.u.u.X.w @ 8 ) t.l.c.x.p.4.D r d O.i.M.M.M.M.M.M.M.M.M.M.M.M.M.M.M.M.M.M.M.M.M.M.M.M.M.M.M.M.M.M.M.M.M.M.M.m.m.z.l.l.z.g.w.[ N.N.N.",
"N.N.0 X.s.c.p.;.T F _ @._ b - . - b ..;.,.,.@...G F _ 4.f.M.M.M.M.M.M.M.M.M.M.M.M.M.M.M.M.M.M.M.M.M.M.M.M.M.M.M.M.M.M.M.M.M.M.M.M.h.t.4.,.4.,.&.~ N.N.N.",
"N.N.8 ..p.m.m.s.0.;.) b 9 - .     : 9 p p r d A ..4.i.l.b.M.M.M.M.M.M.M.M.M.M.M.M.M.M.M.M.M.M.M.M.M.M.M.M.M.M.M.M.M.M.M.M.M.M.M.x.w._ n p a l c N.N.N.N.",
"N.N.8 ..p.M.M.M.c.u...i & X X o o @ & & @ @ , M ;.g.m.M.M.M.M.M.M.M.M.M.M.M.M.M.M.M.M.M.M.M.M.M.M.M.M.M.M.M.M.M.M.M.M.M.M.M.M.M.f.-.d & N.N.N.N.N.N.N.N.",
"N.N.8 ..p.M.M.M.M.f.,.A i w r p p r i r 9 9 d _ t.b.M.M.M.M.M.M.M.M.M.M.M.M.M.M.M.M.M.M.M.M.M.M.M.M.M.M.M.M.M.M.M.M.M.M.M.M.M.M.f.+.9 N.N.N.N.N.N.N.N.N.",
"N.N.8 ..p.M.M.M.M.c.i.4.#.@.$.$.$.$.#.@.o.@.;.9.g.m.M.M.M.M.M.M.M.M.M.M.M.M.M.M.M.M.M.M.M.M.M.M.M.M.M.M.M.M.M.M.M.M.M.M.M.M.M.M.s.X.0 N.N.N.N.N.N.N.N.N.",
"N.N.8 ..p.m.M.M.M.m.c.z.l.f.l.f.l.f.l.f.f.f.l.x.m.M.M.M.M.M.M.M.M.M.M.M.M.M.M.M.M.M.M.M.M.M.M.M.M.M.M.M.M.M.M.M.M.M.M.M.M.M.M.M.f.o.w N.N.N.N.N.N.N.N.N.",
"N.N.8 ..p.M.M.M.M.M.M.M.M.M.M.M.M.M.M.M.M.M.M.M.M.M.M.M.M.M.M.M.M.M.M.M.M.M.M.M.M.M.M.M.M.M.M.M.M.M.M.M.M.M.M.M.M.M.M.M.M.M.M.M.s.o.w N.N.N.N.N.N.N.N.N.",
"N.N.9 ..s.M.M.M.M.M.M.M.M.M.M.M.M.M.M.M.M.M.M.M.M.M.M.M.M.M.M.M.M.M.M.M.M.M.M.M.M.M.M.M.M.M.M.M.M.M.M.M.M.M.M.M.M.M.M.M.M.M.M.M.f.o.w N.N.N.N.N.N.N.N.N.",
"N.N.0 _ p.M.M.M.M.M.M.M.M.M.M.M.M.M.M.M.M.M.M.M.M.M.M.M.M.M.M.M.M.M.M.M.M.M.M.M.M.M.M.M.M.M.M.M.M.M.M.M.M.M.M.M.M.M.M.M.M.M.M.M.s.+.r N.N.N.N.N.N.N.N.N.",
"N.N.8 ..p.M.M.M.M.M.M.M.M.M.M.M.M.M.M.M.M.M.M.M.M.M.M.M.M.M.M.M.M.M.M.M.M.M.M.M.M.M.M.M.M.M.M.M.M.M.M.M.M.M.M.M.M.M.M.M.M.M.M.M.f.o.w N.N.N.N.N.N.N.N.N.",
"N.N.8 ..p.M.M.M.M.M.M.M.M.M.M.M.M.M.M.M.M.M.M.M.M.M.M.M.M.M.M.M.M.M.M.M.M.M.M.M.M.M.M.M.M.M.M.M.M.M.M.M.M.M.M.M.M.M.M.M.M.M.M.m.s.o.w N.N.N.N.N.N.N.N.N.",
"N.N.8 ..p.M.M.M.M.M.M.M.M.M.M.M.M.M.M.M.M.M.M.M.M.M.M.M.M.M.M.M.M.M.M.M.M.M.M.M.M.M.M.M.M.M.M.M.M.M.M.M.M.M.M.M.M.M.M.M.M.M.M.M.f.@.w N.N.N.N.N.N.N.N.N.",
"N.N.8 ..p.M.M.M.M.M.M.M.M.M.M.M.M.M.M.M.M.M.M.M.M.M.M.M.M.M.M.M.M.M.M.M.M.M.M.M.M.M.M.M.M.M.M.M.M.M.M.M.M.M.M.M.M.M.M.M.M.M.M.M.s.@.w N.N.N.N.N.N.N.N.N.",
"N.N.8 ..p.M.M.M.M.M.M.M.M.M.M.M.M.M.M.M.M.M.M.M.M.M.M.M.M.M.M.M.M.M.M.M.M.M.M.M.M.M.M.M.M.M.M.M.M.M.M.M.M.M.M.M.M.M.M.M.M.M.M.M.f.X.9 N.N.N.N.N.N.N.N.N.",
"N.N.8 ..p.M.M.M.M.M.M.M.M.M.M.M.M.M.M.M.M.M.M.M.M.M.M.M.M.M.M.M.M.M.M.M.M.M.M.M.M.M.M.M.M.M.M.M.M.M.M.M.M.M.M.M.M.M.M.M.M.M.M.M.g.o.w N.N.N.N.N.N.N.N.N.",
"N.N.8 ..p.M.M.M.M.M.M.M.M.M.M.M.M.M.M.M.M.M.M.M.M.M.M.M.M.M.M.M.M.M.M.M.M.M.M.M.M.M.M.M.M.M.M.M.M.M.M.M.M.M.M.M.M.M.M.M.M.M.M.M.f.@.w N.N.N.N.N.N.N.N.N.",
"N.N.8 ..p.M.M.M.M.M.M.M.M.M.M.M.M.M.M.M.M.M.M.M.M.M.M.M.M.M.M.M.M.M.M.M.M.M.M.M.M.M.M.M.M.M.M.M.M.M.M.M.M.M.M.M.M.M.M.M.M.M.M.m.p. .u N.N.N.N.N.N.N.N.N.",
"N.N.8 ..p.M.M.M.M.M.M.M.M.M.M.M.M.M.M.M.M.M.M.M.M.M.M.M.M.M.M.M.M.M.M.M.M.M.M.M.M.M.M.M.M.M.M.M.M.M.M.M.M.M.M.M.M.M.M.M.M.n.f.i.1.^ N.N.N.N.N.N.N.N.N.N.",
"N.N.8 ..s.M.M.M.M.M.M.M.M.M.M.M.M.M.M.M.M.M.M.M.M.M.M.M.M.M.M.M.M.M.M.M.M.M.M.M.M.M.M.M.M.M.M.M.M.M.M.M.M.M.M.M.M.M.M.M.m.s.4.] Y N.N.N.N.N.N.N.N.N.N.N.",
"N.N.q ] p.M.M.M.M.M.M.M.M.M.M.M.M.M.M.M.M.M.M.M.M.M.M.M.M.M.M.M.M.M.M.M.M.M.M.M.M.M.M.M.M.M.M.M.M.M.M.M.M.M.M.M.M.M.M.M.m.u._ t 6 N.N.N.N.N.N.N.N.N.N.N.",
"N.N.f ' w.k.c.m.M.M.M.M.M.M.M.M.M.M.M.M.M.M.M.M.M.M.M.M.M.M.M.M.M.M.M.M.M.M.M.M.M.M.M.M.M.M.M.M.M.M.M.M.M.M.M.M.M.M.M.M.m.q.A ; N.N.N.N.N.N.N.N.N.N.N.N.",
"N.N.N.U | ,.t.l.m.M.M.M.M.M.M.M.M.M.M.M.M.M.M.M.M.M.M.M.M.M.M.M.M.M.M.M.M.M.M.M.M.M.M.M.M.M.M.M.M.M.M.M.M.M.M.M.M.M.M.M.m.9.M N.N.N.N.N.N.N.N.N.N.N.N.N.",
"N.N.N.N.k m +.i.m.M.M.M.M.M.M.M.M.M.M.M.M.M.M.M.M.M.M.M.M.M.M.M.M.M.M.M.M.M.M.M.M.M.M.M.M.M.M.M.M.M.M.M.M.M.M.M.M.M.M.M.m.9.A N.N.N.N.N.N.N.N.N.N.N.N.N.",
"N.N.N.N.N.< A 0.b.M.M.M.M.M.m.m.v.c.b.b.m.M.M.M.M.M.M.m.m.b.v.v.c.m.n.b.b.c.c.v.m.m.M.M.M.M.M.M.m.m.m.c.c.m.m.M.M.M.M.M.m.q.A N.N.N.N.N.N.N.N.N.N.N.N.N.",
"N.N.N.N.N.N.n 5.v.M.M.M.m.z.i.t.6.5.0.t.f.c.M.M.M.M.m.l.i.9.5.6.5.9.5.6.9.9.9.0.i.j.m.M.M.M.M.n.f.u.9.4.9.9.i.z.m.M.M.M.m.q.A N.N.N.N.N.N.N.N.N.N.N.N.N.",
"N.N.N.N.N.N.m 5.c.M.M.M.c.i.@.T M n A _ 4.f.M.M.M.M.v.y.o.A M n M B A M B M M D X.0.z.M.M.M.M.z.9._ A b m F &.u.c.M.M.M.m.q.A N.N.N.N.N.N.N.N.N.N.N.N.N.",
"N.N.N.N.N.N.B 6.v.M.M.M.z.4.A 1 + o & i ..i.m.M.M.M.j.,.N < N.N.N.N.N.N.: * # : j -.s.M.M.M.m.p.+.s : O + , M ,.l.M.M.M.m.9.A N.N.N.N.N.N.N.N.N.N.N.N.N.",
"N.N.N.N.N.N.B 6.v.M.M.M.l.,.p . N.N.N.: ( u.m.M.m.f.w.{ N.N.N.N.N.N.N.N.N.N.N.  8 X.a.M.M.c.p.3.Q N.N.N.N.X i -.h.M.M.M.m.q.A N.N.N.N.N.N.N.N.N.N.N.N.N.",
"N.N.N.N.N.N.B 6.m.M.M.M.z.;.a N.N.N.N.& G i.m.v.i.-.' J N.N.N.N.N.N.N.N.N.N.N.N.1 ..s.m.z.t.&.^ N.N.N.N.N.N.w @.f.M.M.M.M.t.A N.N.N.N.N.N.N.N.N.N.N.N.N.",
"N.N.N.N.N.N.M 9.c.M.M.M.z.,.d N.N.N.N.: ) i.n.d.-.m N.N.N.N.N.N.N.N.N.N.N.N.N.N.0 X.s.n.i.} j N.N.N.N.N.N.N.t #.h.M.M.M.m.t.A N.N.N.N.N.N.N.N.N.N.N.N.N.",
"N.N.N.N.N.N.B 5.c.M.M.m.p.:.l N.N.N.N.4 ) t.d.w.E 7 N.N.N.N.N.N.N.N.N.N.N.N.N.N.u O.i.d.1.C N.N.N.N.N.N.N.N.a @.f.M.M.M.l.7.S N.N.N.N.N.N.N.N.N.N.N.N.N.",
"N.N.N.N.N.N.A 9.m.M.l.y.<.[ N.N.N.N.N.N.~ &.<.%.J N.N.N.N.N.N.N.N.N.N.N.N.N.N.N.N./ :.>.| N.N.N.N.N.N.N.N.N.t ;.l.m.b.p.4. .J N.N.N.N.N.N.N.N.N.N.N.N.N.",
"N.N.N.N.N.N.A t.m.x.9._ C N.N.N.N.N.N.N.N.J C J N.N.N.N.N.N.N.N.N.N.N.N.N.N.N.N.N.N.C C J N.N.N.N.N.N.N.N.N.a ;.l.m.p.@.S v N.N.N.N.N.N.N.N.N.N.N.N.N.N.",
"N.N.N.N.N.N.S w.z.p.@.h N.N.N.N.N.N.N.N.N.N.N.N.N.N.N.N.N.N.N.N.N.N.N.N.N.N.N.N.N.N.N.N.N.N.N.N.N.N.N.N.N.N.h -.f.k.4.B N.N.N.N.N.N.N.N.N.N.N.N.N.N.N.N.",
"N.N.N.N.N.N.L <.r.7.Q N.N.N.N.N.N.N.N.N.N.N.N.N.N.N.N.N.N.N.N.N.N.N.N.N.N.N.N.N.N.N.N.N.N.N.N.N.N.N.N.N.N.N.x +.r.r. .N.N.N.N.N.N.N.N.N.N.N.N.N.N.N.N.N.",
"N.N.N.N.N.N.R ^ [ / I N.N.N.N.N.N.N.N.N.N.N.N.N.N.N.N.N.N.N.N.N.N.N.N.N.N.N.N.N.N.N.N.N.N.N.N.N.N.N.N.N.N.N.N.~ ' ' ! N.N.N.N.N.N.N.N.N.N.N.N.N.N.N.N.N.",
"N.N.N.N.N.N.N.N.N.N.N.N.N.N.N.N.N.N.N.N.N.N.N.N.N.N.N.N.N.N.N.N.N.N.N.N.N.N.N.N.N.N.N.N.N.N.N.N.N.N.N.N.N.N.N.N.N.N.N.N.N.N.N.N.N.N.N.N.N.N.N.N.N.N.N.N.",
"N.N.N.N.N.N.N.N.N.N.N.N.N.N.N.N.N.N.N.N.N.N.N.N.N.N.N.N.N.N.N.N.N.N.N.N.N.N.N.N.N.N.N.N.N.N.N.N.N.N.N.N.N.N.N.N.N.N.N.N.N.N.N.N.N.N.N.N.N.N.N.N.N.N.N.N.",
"N.N.N.N.N.N.N.N.N.N.N.N.N.N.N.N.N.N.N.N.N.N.N.N.N.N.N.N.N.N.N.N.N.N.N.N.N.N.N.N.N.N.N.N.N.N.N.N.N.N.N.N.N.N.N.N.N.N.N.N.N.N.N.N.N.N.N.N.N.N.N.N.N.N.N.N."
};
