/* XPM */
static char *b13d97d76f4e431ede18bcc10bdea270NiLOv1jXG01vLyl1[] = {
/* columns rows colors chars-per-pixel */
"70 70 233 2 ",
"   c None",
".  c #1F1807",
"X  c #1E170D",
"o  c #1F1809",
"O  c #1F1707",
"+  c #1F1810",
"@  c #1F1710",
"#  c #201707",
"$  c #201807",
"%  c #201709",
"&  c #201909",
"*  c #311E0D",
"=  c #211713",
"-  c #241915",
";  c #231919",
":  c #2B1C1D",
">  c #2B181B",
",  c #31161C",
"<  c #33200F",
"1  c #35231B",
"2  c #2F2214",
"3  c #261A26",
"4  c #2D1D24",
"5  c #261B28",
"6  c #2A1D2A",
"7  c #3B1A2C",
"8  c #381827",
"9  c #2E1E36",
"0  c #331E35",
"q  c #3B1B32",
"w  c #311E3E",
"e  c #391F3C",
"r  c #2A242C",
"t  c #282228",
"y  c #342128",
"u  c #2D2433",
"i  c #2A2936",
"p  c #312335",
"a  c #33243B",
"s  c #312A3A",
"d  c #38273A",
"f  c #35343A",
"g  c #2D313B",
"h  c #4B131E",
"j  c #442616",
"k  c #4B2C16",
"l  c #4A2A18",
"z  c #462718",
"x  c #533316",
"c  c #563B13",
"v  c #5A3917",
"b  c #563619",
"n  c #5E3D18",
"m  c #55381B",
"M  c #4F3117",
"N  c #603F18",
"B  c #43142A",
"V  c #461937",
"C  c #52162D",
"Z  c #671232",
"A  c #5A3B24",
"S  c #43293C",
"D  c #613F2F",
"F  c #5F4018",
"G  c #5D4015",
"H  c #654416",
"J  c #6E4B17",
"K  c #604019",
"L  c #694617",
"P  c #724E17",
"I  c #745217",
"U  c #785417",
"Y  c #775418",
"T  c #634131",
"R  c #331F41",
"E  c #3B1E44",
"W  c #352043",
"Q  c #3C2345",
"!  c #362149",
"~  c #3A234C",
"^  c #3D2A4D",
"/  c #392A44",
"(  c #353445",
")  c #3C3A4C",
"_  c #383747",
"`  c #3D2452",
"'  c #3E2A52",
"]  c #323849",
"[  c #4C1B44",
"{  c #461D44",
"}  c #521B44",
"|  c #531C4B",
" . c #5C1B4B",
".. c #5A1C45",
"X. c #5B1D54",
"o. c #5B1E5C",
"O. c #561D55",
"+. c #641B44",
"@. c #741D4B",
"#. c #631F54",
"$. c #651E5A",
"%. c #452A49",
"&. c #58254B",
"*. c #48324B",
"=. c #402555",
"-. c #422C54",
";. c #44265D",
":. c #452B5C",
">. c #482E5D",
",. c #482C56",
"<. c #592755",
"1. c #443155",
"2. c #46325A",
"3. c #4A335D",
"4. c #4A3957",
"5. c #553656",
"6. c #533445",
"7. c #66234B",
"8. c #69265B",
"9. c #64335B",
"0. c #752A59",
"q. c #671E64",
"w. c #462760",
"e. c #472961",
"r. c #492D62",
"t. c #4D3464",
"y. c #4F3568",
"u. c #503667",
"i. c #523B65",
"p. c #51356A",
"a. c #543B6C",
"s. c #593F6E",
"d. c #593D72",
"f. c #573C70",
"g. c #6C2264",
"h. c #6B216D",
"j. c #682664",
"k. c #772669",
"l. c #653D65",
"z. c #753A65",
"x. c #6E2271",
"c. c #732374",
"v. c #7C2674",
"b. c #7B257B",
"n. c #7D2875",
"m. c #753973",
"M. c #3A4557",
"N. c #3A444F",
"B. c #48455A",
"V. c #4C4962",
"C. c #5B456C",
"Z. c #5A4669",
"A. c #5A5369",
"S. c #5D4475",
"D. c #5F4479",
"F. c #5F4878",
"G. c #5E4873",
"H. c #4D586D",
"J. c #63446C",
"K. c #614773",
"L. c #624974",
"P. c #61467A",
"I. c #644C7C",
"U. c #684E7D",
"Y. c #68527C",
"T. c #714E74",
"R. c #63637C",
"E. c #881722",
"W. c #B32726",
"Q. c #AC2835",
"!. c #A41C26",
"~. c #C75519",
"^. c #CE5809",
"/. c #D87415",
"(. c #D36A04",
"). c #C5442A",
"_. c #831948",
"`. c #8A1D5E",
"'. c #AD1F43",
"]. c #A32352",
"[. c #852979",
"{. c #96257A",
"}. c #8A3271",
"|. c #BE3962",
" X c #AD2D6F",
".X c #86205C",
"XX c #C13D61",
"oX c #DC820B",
"OX c #E5960B",
"+X c #EDAC04",
"@X c #F6C203",
"#X c #674D80",
"$X c #6A4D83",
"%X c #6E4F8A",
"&X c #674583",
"*X c #734E8C",
"=X c #6B5084",
"-X c #6E5189",
";X c #675080",
":X c #71528C",
">X c #76598A",
",X c #7A5896",
"<X c #556684",
"1X c #76648C",
"2X c #786593",
"3X c #737297",
"4X c #942D82",
"5X c #9D2D89",
"6X c #973588",
"7X c #9C3591",
"8X c #A22E8A",
"9X c #A12984",
"0X c #AA3493",
"qX c #A83996",
"wX c #AA3393",
"eX c #BB3EA0",
"rX c #855C9B",
"tX c #96488F",
"yX c #AB4399",
"uX c #86679C",
"iX c #89719D",
"pX c #B44DA3",
"aX c #8967A4",
"sX c #957AAC",
"dX c #9478A9",
"fX c #9072AB",
"gX c #845FA1",
"hX c #C54BA8",
"jX c #CD52AE",
"kX c #D65BB5",
"lX c #EC67C7",
"zX c #9587B1",
"xX c #A489B8",
/* pixels */
"B.A.V.                                  *.5.5.S _ M./ (       J.z.*.    *.z.T.      ) _   _ %.5.5.5.                                  V.A.) ",
") L.xXzX                            rXpXkXlXkX<.B.B.J.B.    rXpXtX*.    6.tXpXaX    B.Z.H.) j.kXlXlXpXrX                            zXxXZ.( ",
"_ i.iXzX3X                        tXhXqXk.}.6Xr M.4.=XZ.3X*X6X4X}.*.    6.}.6X6X*X<XZ.U.V.] e yX}.k.qXhXtX                        3XxXiX4.( ",
"( 1.S.dXsXuX2X                  yXqX[. .B 7.z.] B.i.2XC.Z.m.[.g.8.S     %.8.c.[.m.4.K.,X3.V.] 0.+.B  .[.qXyX                  2XiXsXiXS.1.f ",
"( 1.p.,XsXsXaXuX1XR.          yXqXn.X.} B 7.9.<XB.:XaX$X*.k.n.#.&.%.L.Z.6.&.#.n.k.5.%XaX$XV.H.7.+.V } X.n.qXyX          R.1XuXaXsXsX>Xa.1.s ",
"( -.t.#XaXsXsXfXuX>X2XfX3X1XtX7Xb.q.q.h.X.#.n.A.*.>X>XK.%.g.q. .#.k.[.[.k.#. .j.8.5.L.>X=X4.Z.}.+.X.h.g.$.[.7XtX1X3XiX2X1XuXfXsXsXaXI.t.^ s ",
"  / t.S.uXfXfXsXsXdXfXsXuXl.n.n.h.c.b.b.h.q.6X7 %.5.5.d V 8.8.k.4X0X0X0X0X4Xk.8.8.q S 5.5.S S qXq.h.b.b.c.h.n.n.l.uXsXdXdXsXsXfXfXuXS.t./   ",
"  s t.s.uXaXrXrXiXdXsXdXY.9.[.c.c.b.b.b.b.h.4X7.J.>X:X*.V k.8X0XeXjXjXjXhXeX0X8Xk.7 4.:X>Xl.8.6Xq.b.b.b.b.c.c.v.9.Y.sXsXdXuXrXgXaX,Xd.3.s   ",
"  s t.f.,XaX,X,X-X-X>X1XJ.j.n.c.b.b.c.b.b.x.c.[.8.J.J.S ..4X8X0XhXkXkXkXkXhX0X0X{...S J.l.j.[.x.x.b.b.b.b.b.c.v.8.Z.1X>X-X-X,XrXaX,Xs.3.s   ",
"  s t.a.,XaX,X:X=X$XU.C.5.k.c.x.c.c.h.h.b.c.$.g.n.<.7 h _.{.5X8XpXjXjXjXjXpX8X5X{._.h 7 <.v.g.$.c.b.h.h.c.c.x.v.k.5.K.U.$X$X:X,XaX:Xa.>.s   ",
"  i ^ p.$XaX:X:X=X#XU.C.5.k.h.o.X.[ { [ <.j.g.X.$...C E.W.].{.9X8XqXqXqX0X8X9X{.].W.E.C &.$.X.h.8.<.[ { [ X.o.h.k.9.K.U.U.-X-X:X,XI.p.^ s   ",
"  r d t.P.,X:X:X-XU.U.C.<.j.O.{ q e Q Q E V | o.| 7 @.W.^.~.Q.].{.[.[.[.[.{.].Q.~.^.W.+.B | o.| V E ~ ! e q { o.g.9.G.U.U.-X:X:X,XS.t.s     ",
"  i d t.d.:X-X$X$XU.;XC.5.&.{ Q -.>.p.t.>.%.q [ | 7 .XW.(.OXoX~.Q._. . ._.Q.~.oXOX(.W.@.V | { 7 %.>.y.y.>.-.Q { <.5.K.$XU.$X#X-X%Xd.t.s     ",
"    p t.s.$X-XU.#XU.#XL.5.%.=.>.a.S.P.s.t.s.,.Q 7 8 @.Q.(.+X@XOX~.!.Z Z !.^.+X@X+X^.Q.@.8 q Q ,.s.t.f.P.S.p.:.=.%.5.I.;XU.#XU.-X$Xa.3.u     ",
"    i -.p.D.-XU.U.U.U.U.S.3.:.p.S.I.S.3.=.S.P.u.d > 7. X)./.OX/.).'.`.`.'.)./.OX/.). X7.> Q i.&XS.` t.S.U.S.p.:.3.S.U.;XU.U.$X-XD.p.-.i     ",
"    g / t.d.%X$XU.U.U.U.U.S.a.S.I.S.t.` ` d.-XP.3.6 [ [. X|.XX|. X{.{.{. X X|.XX|. X[.V 0 t.P.:Xa.` ` y.S.I.S.a.S.U.U.;X#X#X=X%Xd.t./ i     ",
"    f a t.p.#X:X$XU.U.U.U.U.P.P.S.t.;.~ =.y.%X$Xa.~ 7 <.v.4X8X8X4Xk. . .k.4X8X8X{.v.X.q ~ a.$X%Xr.` ~ ;.t.S.I.P.U.U.U.U.U.#X-XP.p.3.a f     ",
"  A.*.~ :.p.S.:X-X$XU.U.U.U.U.S.t.;.` ! =.r.P.:XD.3.0 V o.h.g.#.} V B B V } #.g.h.X.V d t.P.:XP.w.` ! ` ;.t.S.U.#X#XU.U.$X-X-XS.t.>.^ *.    ",
"  B.S.:.` p.a.S.$X:X-X$XU.U.U.a.:.` =.=.` ;.p.$X%XS.%.> V } V 8 7 [ O.O.[ 7 8 V } B > -.S.%X#Xp.;.~ =.=.` :.a.U.#XU.$X-X:X$XS.a.t.' t.C.(   ",
"  G.=Xu.` :.r.r.p.D.$X-X-X=XP.t.` =.u.p.~ =.:.a.#X$Xi.8 } g.V 7 [ O.o.o.X.[ 7 [ g.V y i.$XI.p.r.` ~ p.t.` ` t.P.=X-X:X$XD.p.r.r.;.` p.%X4.  ",
"_ I.-XS.3.` ` ;.:.r.p.S.$X%Xf.=.` t.S.S.r.` =.e.p.$X$X*.} k.V , 8 8 8 8 8 8 , V c.V *.#XI.p.e.=.~ r.S.S.t.` ;.d.-X$XS.p.r.;.=.` ` t.S.%XC.) ",
") I.P.S.S.t.` ~ =.;.e.r.p.p.=.~ =.a.S.S.s.:.` =.e.p.I.5.7 | 8 0 0 0 0 0 0 0 0 q } 7 5.P.p.e.=.~ >.s.S.S.a.` ~ =.p.p.r.;.;.` ` ` t.S.S.I.K.) ",
") I.P.S.S.S.s.3.' ~ ` ;.w.;.` ! 3.S.P.P.S.S.:.` =.r.p.a.d 0 ~ :.r.r.r.r.r.r.:.~ q %.a.y.e.=.` >.S.D.P.P.S.>.! ` ;.;.=.` ` =.3.s.S.K.S.P.K.) ",
") I.P.P.F.S.F.S.S.3.~ ~ ` ` W ! t.d.S.S.S.d.p.;.` =.w.;.;.=.=.;.w.w.w.w.w.w.w.=.=.;.;.w.=.` :.p.d.S.S.S.d.r.! ! ` ` ~ ~ t.S.L.P.S.S.S.P.K.) ",
") I.P.P.F.S.S.S.L.S.s.3.~ R w w ! ! ! ! ! ! ! ! 0 6 W ! ! w w ! ! ! ! ! ! ! ! w w ! ! a 6 w ! ! Q ! ! ! ! ! w w R ` 3.s.S.S.S.S.S.P.S.P.K.) ",
") I.I.S.S.S.S.S.S.F.S.S.t.%.4 - - - - % X X X X o O X X X + + X X X X X X X X + + @ X X O X + X X X % - - - - 4 %.t.S.S.F.S.S.S.S.S.S.$XK.) ",
"( s.%XI.S.S.S.S.S.D.S.i.6.A M k k k k * # # $ $ $ $ & & & & & & & & & & & & & & $ . . . & & & & # O * k k k k x A 6.i.S.S.S.S.S.S.S.P.%Xi._ ",
"  / d.%XP.P.S.S.S.S.p.,.D I K n n N b * % & & $ $ $ & & & & & & & & & & & & & & & & $ $ & & & & % % < v N n n H Y T ,.a.S.S.S.S.S.P.$Xd.^   ",
"  u :.P.$XP.S.S.S.p.;.Q A I H n N K b < % & & & & & & & & & & & & & & & & & & & & & & & & & & & % % < v K K K H Y A Q :.a.S.S.S.P.$Xd.;.s   ",
"  u ~ r.d.I.D.S.p.;.! 4 c I H F K K b < % & & & & & & & & & & & & & & & & & & & & & & & & & & & & % < v K K K H Y c 4 ! :.a.S.F.I.d.r.! i   ",
"  t 0 =.e.a.S.p.:.` W 4 c I H K K K b < % & & & & & & & & & & & & & & & & & & & & & & & & & & & & & < v K K K H Y c 4 ! ` :.a.S.a.e.` 9 r   ",
"  r ~ ` =.>.t.:.` =.~ 4 c I H K K K b < % & & & & & & & & & & & & & & & & & & & & & & & & & & & & & < v K K K H Y c 4 ~ =.` :.t.e.=.=.Q u   ",
"  s r.t.` ` ;.=.` r.^ 4 c I H K K K b < % & & & & & & & & & & & & & & & & & & & & & & & & & & & & & < v K K K H U c 4 ' r.` =.;.` =.t.>.s   ",
"  u t.S.r.` =.` ` t.-.4 c I H K K K b < % & & & & & & & & & & & & & & & & & & & & & & & & & & & & & < v K K K H U c 4 -.t.` ` ` ` t.S.2.i   ",
"  r ^ P.S.t.` ! ` t.1.4 c I H K K K b < % & & & & & & & & & & & & & & & & & & & & & & & & & & & & & < v K K K H U c 4 1.t.~ E =.t.S.S.~ u   ",
"  r 9 t.P.S.t.=.=.t.1.4 c I H K K K b < % & & & & & & & & & & & & & & & & & & & & & & & & & & & & & < v K K K H U c 4 1.t.=.=.t.S.D.3.u g   ",
"  i u ` 3.S.P.s.p.p.1.4 c I H K K K b < % & & & & & & & & & & & & & & & & & & & & & & & & & & & & & < v K K K H U c 4 1.p.a.S.P.S.3.~ u     ",
"  ] p 3.' 3.D.P.S.C.1.4 c I H K K K b < % & & & & & & & & & & & & & & & & & & & & & & & & & & & & & < v K K K H U c 4 1.C.S.P.D.3.' >.s     ",
"    p s.3.` t.D.P.S.2.4 c I H K K K b < % & & & & & & & & & & & & & & & & & & & & & & & & & & & & & < v K K K H U c 4 2.S.P.S.3.` t.p.s     ",
"    p s.p.:.` 3.D.P.2.4 c I H K K K b < % & & & & & & & & & & & & & & & & & & & & & & & & & & & & & < v K K K H U c 4 2.P.D.2.` :.p.p.s     ",
"    p s.p.t.;.` 3.S.2.4 c I H K K K b < % & & & & & & & & & & & & & & & & & & & & & & & & & & & & & < v K K K H U c 4 2.S.3.` :.t.s.p.s     ",
"    p s.s.s.t.:.` ' ^ 4 c I H K K K b < % & & & & & & & & & & & & & & & & & & & & & & & & & & & & & < v K K K H U c 4 ^ ' ` :.t.a.s.p.s     ",
"    p s.S.S.s.t.>.~ u : c I H K K K b < % & & & & & & & & & & & & & & & & & & & & & & & & & & & & & < v K K K H U c > 9 ~ :.t.s.S.S.p.s     ",
"  N.p S.S.S.S.s.t.>.a - c I H K K K b < % & & & & & & & & & & & & & & & & & & & & & & & & & & & & & < v K K K H U c - a >.t.s.S.S.S.a.s     ",
"  _ 0 s.P.S.S.S.s.i.1.: c I H K K K b < % & & & & & & & & & & & & & & & & & & & & & & & & & & & & & < v K K K H U c 4 1.p.s.S.F.S.P.p.6 i   ",
"  s ,.t.S.S.S.S.S.S.2.4 c I H K K K b < % & & & & & & & & & & & & & & & & & & & & & & & & & & & & & < v K K K H Y c y 2.S.S.S.S.S.d.t.=.u   ",
"  s d.&Xp.S.S.S.S.S.2.y G I H K K K b < % & & & & & & & & & & & & & & & & & & & & & & & & & & & & & < v K K K H Y c y 2.S.S.S.S.f.p.&Xp.s   ",
"  s d.%XD.y.S.S.S.S.2.y c U H K K K b < % & & & & & & & & & & & & & & & & & & & & & & & & & & & & & < v K K K H U c y 3.S.S.S.f.p.P.%Xp.s   ",
"  u p.P.S.S.u.s.S.S.3.y c I H K K K b < % & & & & & & & & & & & & & & & & & & & & & & & & & & & & & < v K K K H U c y 3.S.S.s.y.d.S.P.t.s   ",
"  s p.L.S.S.p.p.S.S.3.4 c I H K K K b < % & & & & & & & & & & & & & & & & & & & & & & & & & & & & & < v K K K H U c y 3.S.S.p.p.S.S.P.3.s   ",
"  p p.L.S.a.r.p.S.S.3.4 c I H K K K b < % & & & & & & & & & & & & & & & & & & & & & & & & & & & & & < v K K K H U c y 3.S.S.p.t.s.S.P.3.s   ",
"  s p.P.a.r.y.S.S.S.3.4 c I H K K K b < % & & & & & & & & & & & & & & & & & & & & & & & & & & & & & < v K K K H U c y 3.F.S.S.u.r.f.P.t.s   ",
"  s t.a.r.u.S.D.S.S.2.4 c I H K K K b < % & & & & & & & & & & & & & & & & & & & & & & & & & & & & & < v K K K H U c 4 3.S.S.S.S.p.r.a.3.s   ",
"  u ~ :.p.S.S.S.S.S.2.4 c I H K K K b < % & & & & & & & & & & & & & & & & & & & & & & & & & & & & & < v K K K H U c 4 2.S.S.S.S.S.y.>.Q u   ",
"  t 6 i.s.S.S.S.S.s.*.: c I H F F K b < % & & & & & & & & & & & & & & & & & & & & & & & & & & & & & < v K K K H U c : *.s.S.S.S.S.s.t.4 t   ",
"  t 0 s.s.C.S.S.s.3.s - c I H F F K b < % & & & & & & & & & & & & & & & & & & & & & & & & & & & & & < v K K K H U c - a t.C.S.S.s.s.p.u     ",
"  r s s.s.s.s.a.t.' a : c I H n F K b < % & & & & & & & & & & & & & & & & & & & & & & & & & & & & & < v K n n H U c > a ' t.p.s.s.s.p.s     ",
"    p s.p.p.p.3.' 2.1.4 c P K n n K b < % & & & & & & & & & & & & & & & & & & & & & & & & & & & & & < v F n n K I c 4 -.1.' 3.p.p.a.i.s     ",
"    6 i.p.t.2.' 1.i.2.4 c J n n v n b < % & & & & & & & & & & & & & & & & & & & & & & & & & & & & & < v n v v K P c 4 2.i.-.' 2.t.p.3.r     ",
"    6 3.t.>.' -.t.t.-.4 c J v x x x b < % & & & & & & & & & & & & & & & & & & & & & & & & & & & & & < b x x x n I c 4 -.t.t.-.' >.t.1.r     ",
"    4 >.=.~ -.t.t.t.^ 4 c J b k k x b < % & & & & & & & & & & & & & & & & & & & & & & & & & & & & & < b x k k v P c 4 ' t.t.t.-.~ ;.' r     ",
"    6 ~ ~ -.t.t.r.r.^ 4 c L x z k x x < # & & & & & & & & & & & & & & & & & & & & & & & & & & & & & < x x k z x J c 4 ^ t.r.t.t.-.` ~ r     ",
"    5 ! 2.t.r.e.e.:.~ 4 c L k z k k x < % & & & & & & & & & & & & & & & & & & & & & & & & & & & & & < x k k z x J c 4 ~ e.e.e.r.t.2.W r     ",
"  N.t 1.t.r.;.w.w.;.! 4 c L k z z k x < % & & & $ & & & & & & & o o o o & $ & & & & & & $ & & & o . < b k z z x J c 4 ~ ;.w.e.w.r.u.-.r     ",
"  f d i.r.;.;.w.w.;.! 4 c L k z z k x < % % & & $ & & & & & & & o . . o & $ & & & & & & . o o $ o o < x k z z x J c 4 ~ ;.w.w.w.w.r.u.d i   ",
"  r *.t.;.:.;.w.;.;.! 4 c L k z z k x < # O & # & o o & & & & & o o O O O o o & & % % % . . & & o O < x k z z x J c 4 ~ ;.;.;.w.w.;.t./ r   ",
"  t -.=.` e.;.;.=.` ! 4 c L k z z k x 1 = ; - = - - - - - ; ; - - ; ; ; ; - - ; ; - - - - - - - ; - 1 b k z z x J c 4 ! ` =.;.;.;.=.>.~ u   ",
"  t ~ ~ ! ` ` ` ~ ! ! 4 c L k k k k x 1 5 5 5 6 5 5 6 5 5 5 5 5 5 5 3 3 5 5 5 5 5 6 5 5 5 5 5 5 5 6 1 b k z z x J c 4 ! ! ~ ` ` ` ! ` W r   ",
"  t W ! W R R ! W ! W y m F k j j z k y a W W R R W w W W W W W R R w w R w w w R W W W W W W W W a y k z j j k H m 0 W W W W W W W ! w t   ",
"  t r 6 5 5 5 5 5 6 r 6 1 2 - = = - - 4 u p p u u p 0 p p p p p p p p p p u 0 0 0 0 0 0 0 0 0 0 0 u 4 - = = = - 2 1 6 6 6 5 5 5 5 5 r t t   "
};
