/* XPM */
static char *result[] = {
/* columns rows colors chars-per-pixel */
"28 79 20 1 ",
"  c black",
". c #0D0A17",
"X c #12191B",
"o c #0A112B",
"O c #1B323E",
"+ c #401A22",
"@ c #7F3F38",
"# c #272744",
"$ c #005652",
"% c #394775",
"& c #87102A",
"* c #90352F",
"= c #A24C57",
"- c #65709C",
"; c #7A9CE7",
": c #FAB6A4",
"> c #A3A9C4",
", c #B8C0FD",
"< c #DFE1E9",
"1 c None",
/* pixels */
"11111    11111 * 11111111111",
"1111 ****   11 +* 1 11111111",
"11111 +++***  +++* * 1111111",
"111111 +++++**++++** 1111111",
"1111111 +++++++++++* 1111111",
"11111  * ++++++++++* 1111111",
"111  **+++++++++++++* 111111",
"1  **+++++++++++++++* 111111",
" **++++++++++++++ +++* 11111",
"1     *+++++++++++ ++* 11111",
"1111 *++++++++++++ ++* 11111",
"111 *++++++++++++ = ++* 1111",
"11 *+++++++++++++ = ++* 1111",
"1 *+++*+++++++++ =: ++* 1111",
" *+++*++++++++++   = + 11111",
"    *++++++++++ <XO  + 11111",
"111 *+++*++++++ :X$= + 11111",
"111 *+++*+++++ =:::= + 11111",
"11 *++++ *++++ =::=:: 111111",
"11 *++  1 *++ =:::::: 111111",
"11 *  111 *+ =::::::: 111111",
"111 11111 * =: ==::: 1111111",
"1111111111 1 ::  === 1111111",
"111111111111 ::::   11111111",
"11111111111  ::: 11111111111",
"1111111111 $$  : 11111111111",
"111111111 $$O$$  11111111111",
"11111111 $$OOOO$$ 1111111111",
"11111111 $$OOOOOO$ 111111111",
"11111111 $OOOOXOOO$ 11111111",
"11111111 $OOOXXXOO$ 11111111",
"11111111 $OOOX XOOO$ 1111111",
"11111111 $OOOX XXOO$ 1111111",
"11111111 $OOOX XXOOO$ 111111",
"111111111 $OOX XXXOO$ 111111",
"111111111 $OOX XXXOO$ 111111",
"111111111 $OOX XXXOOO$ 11111",
"111111111 $OOX XXXXOO$ 11111",
"111111111 $OOXX XXXOO$ 11111",
"111111111 $OOXX XXXXOO 11111",
"111111111 $OOXX XXXXXO 11111",
"111111111 $OOXX        11111",
"11111111 $OOOXX >><<<< 11111",
"11111111 $OOOXX >>>>>< 11111",
"11111111 $OOOXX        11111",
"11111111 $OOOXX ..o#### 1111",
"11111111 $OOOXX ..o#### 1111",
"11111111 $OOOXX .o###### 111",
"11111111 OOOOXXX o###### 111",
"11111111 OOOOXXX o###### 111",
"11111111 OOOOXXX .o###### 11",
"11111111 OOOXXXX .o###### 11",
"11111111 OOOXXXX .o###### 11",
"11111111 OOXXXXX ..o###### 1",
"11111111 OXXXXXX  .o###### 1",
"111111111  XXX  @@  o##### 1",
"111111111 o   .   ;;  #### 1",
"111111111 o.... ..  ;; ##o# ",
"11111111 o..... . ;;   ooo# ",
"11111111 o..... . ;;, oooo# ",
"11111111 o..... . ;;, .ooo# ",
"111111111 ...... ;;, ....o 1",
"1111111111  .... ;;,   .  11",
"111111111111     ;, %-- 1111",
"111111111111 %% ;;, %-- 1111",
"11111111111 %%% ;, %-- 11111",
"11111111111 %% ;,  %-- 11111",
"11111111111 %% , 1 %- 111111",
"11111111111 %%  1 %-- 111111",
"11111111111 %% 11 %- 1111111",
"11111111111 %% 11 %- 1111111",
"11111111111 %% 1 %-- 1111111",
"11111111111 %% 1 %&& 1111111",
"1111111111 %%% 1 &,,& 111111",
"1111111111 %%%% ,,,,,& 11111",
"1111111111 %%&& ,,,,,,&  111",
"1111111111 &&,,&    ,,,,, 11",
"1111111111 ,,,,,&  1      11",
"1111111111 ,,,,,,,, 11111111"
};
