/* XPM */
static char *result[] = {
/* columns rows colors chars-per-pixel */
"35 79 20 1 ",
"  c black",
". c #0D0A17",
"X c #12191B",
"o c #0A112B",
"O c #1B323E",
"+ c #401A22",
"@ c #7F3F38",
"# c #272744",
"$ c #005652",
"% c #394775",
"& c #87102A",
"* c #90352F",
"= c #A24C57",
"- c #65709C",
"; c #7A9CE7",
": c #FAB6A4",
"> c #A3A9C4",
", c #B8C0FD",
"< c #DFE1E9",
"1 c None",
/* pixels */
"111111111111111 1111111111111111111",
"11111    11111 * 111111111111111111",
"1111 ****   11 +* 1 111111111111111",
"11111 +++***  +++* * 11111111111111",
"111111 +++++**++++** 11111111111111",
"1111111 +++++++++++* 11111111111111",
"11111  * ++++++++++* 11111111111111",
"111  **+++++++++++++* 1111111111111",
"1  **+++++++++++++++* 1111111111111",
" **++++++++++++++ +++* 111111111111",
"1     *+++++++++++ ++* 111111111111",
"1111 *++++++++++++ ++* 111111111111",
"111 *++++++++++++ = ++* 11111111111",
"11 *+++++++++++++ = ++* 11111111111",
"1 *+++*+++++++++ =: ++* 11111111111",
" *+++*++++++++++   = + 111111111111",
"    *++++++++++ <XO  + 111111111111",
"111 *+++*++++++ :X$= + 111111111111",
"111 *+++*+++++ =:::= + 111111111111",
"11 *++++ *++++ =::=:: 1111111111111",
"11 *++  1 *++ =:::::: 1111111111111",
"11 *  111 *+ =::::::: 1111111111111",
"111 11111 * =: ==::: 11111111111111",
"1111111111 1 ::  === 11111111111111",
"111111111111 ::::   111111111111111",
"11111111111  ::: 111111111111111111",
"1111111111 $$  : 111111111111111111",
"111111111 $$O$$  111111111111111111",
"11111111 $$OOOO$$ 11111111111111111",
"11111111 $$OOOOOO$ 1111111111111111",
"11111111 $OOOOXOOO$ 111111111111111",
"11111111 $OOOX XOO$ 111111111111111",
"11111111 $OOOX XOOO$ 11111111111111",
"11111111 $OOOX XXOO$ 11111111111111",
"11111111 $OOOX XXOOO$ 1111111111111",
"11111111 $OOOX XXXOO$ 1111111111111",
"11111111 $OOOX XXXOO$ 1111111111111",
"11111111 $OOOX XXXOOO$ 111111111111",
"11111111 $OOOX XXXXOO$ 111111111111",
"11111111 $OOOX XXXXOO$ 111111111111",
"11111111 $OOOX XXXXXO$ 111111111111",
"11111111 $OOOX XXXXXXO 111111111111",
"11111111 $OOOXX        111111111111",
"11111111 $OOOXX >><<<< 111111111111",
"11111111 $OOOXX >>>>>< 111111111111",
"11111111 $OOOXX        111111111111",
"11111111 $OOOXX ..o#### 11111111111",
"11111111 $OOOXX ..o##### 1111111111",
"1111111 $OOOOXX ..o##### 1111111111",
"1111111 $OOOOXX .o####### 111111111",
"1111111 $OOOOXX .o####### 111111111",
"1111111 $OOOOXX .o######## 11111111",
"1111111 $OOOOXXX .o####### 11111111",
"1111111 $OOOXXXX .oo####### 1111111",
"1111111 $OOXXXXX ..oo###### 1111111",
"1111111 OXXXXXXX  .oo####### 111111",
"111111 o  XXXXXX @  oo###### 111111",
"111111 ooo      . ;;  o##### 111111",
"111111 ooo...... .  ;; o##oo# 11111",
"111111 .oo..... 1 ;;   ooooo# 11111",
"1111111 o...... 1 ;;, ..oooo# 11111",
"1111111 o..... 11 ;;, ....oo 111111",
"11111111   ... 1 ;;, 1       111111",
"1111111 %%%   11 ;;, 11 %%-- 111111",
"111111 %%%%% 111 ;, 111 %%-- 111111",
"111111 %%%% 111 ;;, 1111 %-- 111111",
"111111 %%% 1111 ;, 11111 %-- 111111",
"111111 %%% 111 ;, 111111 %-- 111111",
"111111 %% 1111 , 1111111 %-- 111111",
"11111 %%% 1111  111111111 %-- 11111",
"11111 %%% 111111111111111 %-- 11111",
"11111 %% 1111111111111111 %-- 11111",
"1111 %%% 1111111111111111 %&& 11111",
"1111 %%% 1111111111111111 &,,& 1111",
"1111 &&& 1111111111111111 ,,,,& 111",
"1111 ,,,& 111111111111111 ,,,,,&  1",
"1111 ,,,& 1111111111111111   ,,,,, ",
"11111  ,,& 111111111111111111      ",
"1111111 ,,, 11111111111111111111111"
};
