/* XPM */
static char *result[] = {
/* columns rows colors chars-per-pixel */
"35 80 20 1 ",
"  c black",
". c #0D0A17",
"X c #12191B",
"o c #0A112B",
"O c #1B323E",
"+ c #401A22",
"@ c #7F3F38",
"# c #272744",
"$ c #005652",
"% c #394775",
"& c #87102A",
"* c #90352F",
"= c #A24C57",
"- c #65709C",
"; c #7A9CE7",
": c #FAB6A4",
"> c #A3A9C4",
", c #B8C0FD",
"< c #DFE1E9",
"1 c None",
/* pixels */
"111111111111111 1111111111111111111",
"11111    11111 * 111111111111111111",
"1111 ****   11 +* 1 111111111111111",
"11111 +++***  +++* * 11111111111111",
"111111 +++++**++++** 11111111111111",
"1111111 +++++++++++* 11111111111111",
"11111  * ++++++++++* 11111111111111",
"111  **+++++++++++++* 1111111111111",
"1  **+++++++++++++++* 1111111111111",
" **++++++++++++++ +++* 111111111111",
"1     *+++++++++++ ++* 111111111111",
"1111 *++++++++++++ ++* 111111111111",
"111 *++++++++++++ = ++* 11111111111",
"11 *+++++++++++++ = ++* 11111111111",
"1 *+++*+++++++++ =: ++* 11111111111",
" *+++*++++++++++   = + 111111111111",
"    *++++++++++ <XO  + 111111111111",
"111 *+++*++++++ :X$= + 111111111111",
"111 *+++*+++++ =:::= + 111111111111",
"11 *++++ *++++ =::=:: 1111111111111",
"11 *++  1 *++ =:::::: 1111111111111",
"11 *  111 *+ =::::::: 1111111111111",
"111 11111 * =: ==::: 11111111111111",
"1111111111 1 ::  === 11111111111111",
"111111111111 ::::   111111111111111",
"111111111111  :: 111111111111111111",
"11111111111 $$   111111111111111111",
"11111111111 $$$$$ 11111111111111111",
"1111111111 $$OOOO$ 1111111111111111",
"1111111111 $OOOXOO$ 111111111111111",
"1111111111 $OOOXXO$ 111111111111111",
"1111111111 $OOX XOO$ 11111111111111",
"1111111111 $OOX XOO$ 11111111111111",
"1111111111 $OOX XOOO$ 1111111111111",
"1111111111 $OOX XXOO$ 1111111111111",
"1111111111 $OOX XXOO$ 1111111111111",
"1111111111 $OOX XXXOO$ 111111111111",
"1111111111 $OOX XXXOO$ 111111111111",
"1111111111 $OOX XXXXO$ 111111111111",
"1111111111 $OOXX XXXOO 111111111111",
"1111111111 $OOXX XXXXO 111111111111",
"1111111111 $OOOX       111111111111",
"1111111111 $OOOX ><<<< 111111111111",
"111111111 $OOOOX >>>>< 111111111111",
"111111111 $OOOOX       111111111111",
"111111111 $OOOOX ##### 111111111111",
"111111111 $OOOOOX ##### 11111111111",
"111111111 $OOOOOX ###o# 11111111111",
"111111111 $OOOOOX ##o. o 1111111111",
"111111111 OOOOOOX ##o. o 1111111111",
"111111111 OOOOOOO #o. ..o 111111111",
"111111111 OOOOOOOX o. ..o 111111111",
"111111111 XOOOOOOX .. ..o 111111111",
"111111111 XXOOOOOX .. ...o 11111111",
"111111111 XXXXOOXX    ...o 11111111",
"1111111111 XXXXXXX @@  ..o 11111111",
"1111111111   XXXXX   ;;  .o 1111111",
"1111111111 ##     ...  ;; o 1111111",
"111111111 #####oo... ;;   o 1111111",
"111111111 ####o..... ;;, ..o 111111",
"1111111111  oo...... ;;, ..o 111111",
"111111111111   .... ;;, ....o 11111",
"11111111111 -%% ..  ;;, ....o 11111",
"1111111111 --%%%  1 ;, %  ..o 11111",
"1111111111 -%%% 11 ;;, %%%   111111",
"111111111 --%% 111 ;,  %%%% 1111111",
"11111111 --%% 111 ;, 11 %%% 1111111",
"1111111 --%% 1111 , 111 %%% 1111111",
"111    ---% 11111  1111 %%% 1111111",
"111 ,,&--% 1111111111111 %% 1111111",
"111 ,,&-% 11111111111111 %% 1111111",
"111 ,,&% 111111111111111 %%% 111111",
"11 ,,,& 1111111111111111 %%% 111111",
"11 ,,& 11111111111111111 %%% 111111",
"11 ,& 111111111111111111 %%% 111111",
"11 , 11111111111111111111 %%% 11111",
"11 , 11111111111111111111 %%&& 1111",
"11  111111111111111111111 &&,,& 111",
"1111111111111111111111111 ,,,,,&  1",
"1111111111111111111111111 ,,,,,,,, "
};
