/* XPM */
static char *result[] = {
/* columns rows colors chars-per-pixel */
"28 81 20 1 ",
"  c black",
". c #0D0A17",
"X c #12191B",
"o c #0A112B",
"O c #1B323E",
"+ c #401A22",
"@ c #7F3F38",
"# c #272744",
"$ c #005652",
"% c #394775",
"& c #87102A",
"* c #90352F",
"= c #A24C57",
"- c #65709C",
"; c #7A9CE7",
": c #FAB6A4",
"> c #A3A9C4",
", c #B8C0FD",
"< c #DFE1E9",
"1 c None",
/* pixels */
"111111111111111 111111111111",
"11111    11111 * 11111111111",
"1111 ****   11 +* 1 11111111",
"11111 +++***  +++* * 1111111",
"111111 +++++**++++** 1111111",
"1111111 +++++++++++* 1111111",
"11111  * ++++++++++* 1111111",
"111  **+++++++++++++* 111111",
"1  **+++++++++++++++* 111111",
" **++++++++++++++ +++* 11111",
"1     *+++++++++++ ++* 11111",
"1111 *++++++++++++ ++* 11111",
"111 *++++++++++++ = ++* 1111",
"11 *+++++++++++++ = ++* 1111",
"1 *+++*+++++++++ =: ++* 1111",
" *+++*++++++++++   = + 11111",
"    *++++++++++ <XO  + 11111",
"111 *+++*++++++ :X$= + 11111",
"111 *+++*+++++ =:::= + 11111",
"11 *++++ *++++ =::=:: 111111",
"11 *++  1 *++ =:::::: 111111",
"11 *  111 *+ =::::::: 111111",
"111 11111 * =: ==::: 1111111",
"1111111111 1 ::  === 1111111",
"111111111111 ::::   11111111",
"111111111111   : 11111111111",
"11111111111 $$$  11111111111",
"11111111111 $OO$$ 1111111111",
"1111111111 $OOOOO$ 111111111",
"1111111111 $OOOOOO$ 11111111",
"1111111111 $OOOXOO$ 11111111",
"1111111111 $OOX XOO$ 1111111",
"1111111111 $OOX XOO$ 1111111",
"1111111111 $OOX XXOO$ 111111",
"1111111111 $OOX XXOO$ 111111",
"1111111111 $OOX XXOO$ 111111",
"1111111111 $OOX XXXOO$ 11111",
"111111111 $OOOX XXXOO$ 11111",
"111111111 $OOOX XXXXO$ 11111",
"111111111 $OOOX XXXXOO 11111",
"111111111 $OOOX XXXXXO 11111",
"111111111 $OOOXX       11111",
"111111111 $OOOXX ><<<< 11111",
"111111111 $OOOXX >>>>< 11111",
"111111111 $OOOXX       11111",
"111111111 $OOOXX oo### 11111",
"111111111 $OOOOXX o#### 1111",
"111111111 $OOOOXX oo### 1111",
"111111111 $OOOOXX .o#### 111",
"11111111 $OOOOOXX .oo### 111",
"11111111 $OOOOOXX .oo### 111",
"11111111 $OOOOOXX ..oo### 11",
"11111111 $OOOOOXXX .oo### 11",
"11111111 OOOOOOXXX .oo### 11",
"11111111 OOOOOXXXX ..oo### 1",
"11111111 OOOXXXXXX  .oo### 1",
"111111111 XXXXXX  @@  oo## 1",
"1111111111      ..  ;;  ### ",
"11111111111 .. .....  ;; o# ",
"11111111111 .. .... ;;   o# ",
"11111111111 .. .... ;;, .. 1",
"1111111111 ... .... ;;, .. 1",
"1111111111 ... ... ;;, .. 11",
"11111111111 ... .. ;;,   111",
"111111111111  .  . ;,  11111",
"11111111111111 %% ;;, 111111",
"11111111111111 %- ;, 1111111",
"1111111111111 %- ;, 11111111",
"1111111111111 %- , 111111111",
"111111111111 %--  1111111111",
"111111111111 %- % 1111111111",
"11111111111 %-- % 1111111111",
"11111111111 %- %% 1111111111",
"1111111111 ,&& %% 1111111111",
"1111111111 ,,,& % 1111111111",
"1111111111 ,,,& % 1111111111",
"11111111111  ,,&  1111111111",
"1111111111111 ,,,, 111111111",
"1111111111111     & 11111111",
"1111111111111 ,,,,,&  111111",
"1111111111111 ,,,,,,,, 11111"
};
