/* XPM */
static char *result[] = {
/* columns rows colors chars-per-pixel */
"45 45 11 1 ",
"  c black",
". c #05090F",
"X c #0C0E17",
"o c #0F1A25",
"O c #1D303B",
"+ c #552F87",
"@ c #9F51F7",
"# c #DC8BF7",
"$ c #F7CEF7",
"% c gray97",
"& c None",
/* pixels */
"&&&&&&&&&&&&&&&&&&&&&&&&&&&&&&&&&&&&&&&&&&&&&",
"&&&&&&&&&&&&&&&&&&&&&&&&&&&&&&&&&&&&&&&&&&&&&",
"&&&&&&&&&&&&&&&&&&&&&&&&&&&&&&&&&&&&&&&&&&&&&",
"&&&&&&&&&&&&&&&&&&&&&&&&&&&&&&&&&&&&&&&&&&&&&",
"&&&&&&&&&&&&&&&&&&&&&&&&&&&&&&&&&&&&&&&&&&&&&",
"&&&&&&&&&&&&&&&&&&&&&&&&&&&&&&&&&&&&&&&&&&&&&",
"&&&&&&&&&&&&&&&&&&&&&&&&&&&&&&&&&&&&&&&&&&&&&",
"&&&&&&&&&&&&&&&&&&&&&&&&&&&&&&&&&&&&&&&&&&&&&",
"&&&&&&&&&&&&&&&&&&&&&&&&&&&&&&&&&&&&&&&&&&&&&",
"&&&&&&&&&&&&&&&&&&&&&&&&&&&.&&&&.&&&&&&&&&&&&",
"&&&&&&&&&&&&&&&&&&&&&&&&&&&ooo&&.o&&&&&&&&&&&",
"&&&&&&&&&&&&&&&&&&&&&&&&&&&&Ooo&&Xo&&&&&&&&&&",
"&&&&&&&&&&&&&&&&&&&&&&&&&&&&&Oo&&Xo&&&&&&&&&&",
"&&&&&&&&&&&&&&&&&&&&&&&&&&&&&Oo&oXo&&&&&&&&&&",
"&&&&&&&&&&&&&&&&&&&oooooOOo&&ooOoo&&&&&&&&&&&",
"&&&&&&&&&&&&&&&&oooOoOOOoOOo.ooOOo&&&&&&&&&&&",
"&&&&&&&&&&&&&&oooOoO%oooOoOO.oo@O@&&&&&&&&&&&",
"&&&&&&&&&&&&&ooOOoo%oOOOoOoo.ooOOo&&&&&&&&&&&",
"&&&&&&&&&&&&OoOoo&&&&O%OoOo.o.oOO&&&&&&&&&&&&",
"&&&&&&&&&&&oooo&&&&&&&oOoo%o...&&&&&&&&&&&&&&",
"&&&&&&&&&&@Ooo&&&&&&&OOoO%.%ooo&&%&&&&&&&&&&&",
"&&&&&&&&@$$OOo&&&&&%&ooOo.%.%oo &%.o&&&&&&&&&",
"&&&&&&&@#$@$@&&&&%&&&OOo.%&&oo. %. o&&&&&&&&&",
"&&&&&&@#$@$$&&&&&&%&@@@OO%&&&. ..  %&&&&&&&&&",
"&&&&&@#$@$&&&&&&&&&%...@+.o&&&&.. &&&&&&&&&&&",
"&&&&@#$@$&&&&&&&&&&O%oo....oo..&&&%&&&&&&&&&&",
"&&&@#$@$&&&&&&&&&&OOoo.o.oooo%...&&&&&&&&&&&&",
"&&@#$@$&&&&&&&&&&&O.oo.o.oooo   %o&&&&&&&&&&&",
"&@#$@$&&&&&&&&&&&&..o..o&&oo %   .&&&&&&&&&&&",
"&#$$$&&&&&&&%&&&o..%OO&&&&&&& . +@&&&&&&&&&&&",
"&@$$&&&&&&&&&%&ooo.OOo&&&&&&&... +&&&&&&&&&&&",
"&$@&&&&&&&&&&&.@+..oo&&&&&&&&&  &&&&&&&&&&&&&",
"&&&&&&&&&&&&&..+&&&&&&&&&&&&&&.&&&&&&&&&&&&&&",
"&&&&&&&&&&&&oo.&&&&&&&&&&&&&&& &&&&&&&&&&&&&&",
"&&&&&&&&&&&oOo&&&&&&&&&&&&&&&&..&&&&&&&&&&&&&",
"&&&&&&&&&&&O.&&&&&&&&&&&&&&&&&&&&&&&&&&&&&&&&",
"&&&&&&&&&&&oo&&&&&&&&&&&&&&&&&&&&&&&&&&&&&&&&",
"&&&&&&&&&&&&&&&&&&&&&&&&&&&&&&&&&&&&&&&&&&&&&",
"&&&&&&&&&&&&&&&&&&&&&&&&&&&&&&&&&&&&&&&&&&&&&",
"&&&&&&&&&&&&&&&&&&&&&&&&&&&&&&&&&&&&&&&&&&&&&",
"&&&&&&&&&&&&&&&&&&&&&&&&&&&&&&&&&&&&&&&&&&&&&",
"&&&&&&&&&&&&&&&&&&&&&&&&&&&&&&&&&&&&&&&&&&&&&",
"&&&&&&&&&&&&&&&&&&&&&&&&&&&&&&&&&&&&&&&&&&&&&",
"&&&&&&&&&&&&&&&&&&&&&&&&&&&&&&&&&&&&&&&&&&&&&",
"&&&&&&&&&&&&&&&&&&&&&&&&&&&&&&&&&&&&&&&&&&&&&"
};
