/* XPM */
static char *result[] = {
/* columns rows colors chars-per-pixel */
"70 70 214 2 ",
"   c #010101",
".  c #0C0808",
"X  c #180400",
"o  c #18191A",
"O  c #0E041A",
"+  c #301A0F",
"@  c #1A1D24",
"#  c #1A2024",
"$  c #252627",
"%  c #262837",
"&  c #2E3038",
"*  c #353534",
"=  c #393737",
"-  c #511D00",
";  c #603012",
":  c #644736",
">  c #2D2847",
",  c #322946",
"<  c #362C4A",
"1  c #342446",
"2  c #373649",
"3  c #3E2B54",
"4  c #393758",
"5  c #2F2E51",
"6  c #3F3E6B",
"7  c #391B4F",
"8  c #42295A",
"9  c #5A3D5D",
"0  c #413F54",
"q  c #593D64",
"w  c #5A3476",
"e  c #4C3165",
"r  c #60377B",
"t  c #3D4252",
"y  c #3A434F",
"u  c #444343",
"i  c #484A5B",
"p  c #4E535E",
"a  c #545459",
"s  c #69605C",
"d  c #564367",
"f  c #4D5563",
"g  c #585867",
"h  c #5F457A",
"j  c #555C75",
"k  c #575577",
"l  c #644469",
"z  c #635E7A",
"x  c #5C6369",
"c  c #596571",
"v  c #686A7B",
"b  c #747679",
"n  c #726A67",
"m  c #944B1B",
"M  c #8F5935",
"N  c #B16F42",
"B  c #CB7D4A",
"V  c #B28A77",
"C  c #DD8D58",
"Z  c #6E368E",
"A  c #6A3B88",
"S  c #733B95",
"D  c #793C9A",
"F  c #6F3893",
"G  c #585E80",
"H  c #764496",
"J  c #6D508C",
"K  c #656488",
"L  c #776484",
"P  c #6C7787",
"I  c #737383",
"U  c #747888",
"Y  c #737793",
"T  c #823EA5",
"R  c #83578F",
"E  c #817E89",
"W  c #90668E",
"Q  c #AE6B9D",
"!  c #8644AA",
"~  c #8E43B4",
"^  c #8F48B4",
"/  c #9043B5",
"(  c #9747BD",
")  c #9252A9",
"_  c #B974AB",
"`  c #C47AB1",
"'  c #C87DB4",
"]  c #C37BAF",
"[  c #863AD5",
"{  c #893BD6",
"}  c #8D3DD8",
"|  c #8137D2",
" . c #903EDA",
".. c #9E4AC6",
"X. c #9541DC",
"o. c #9A43DF",
"O. c #A34CCB",
"+. c #B251DD",
"@. c #A94ED2",
"#. c #9D44E1",
"$. c #A147E3",
"%. c #A549E5",
"&. c #A94AE6",
"*. c #AD4CE9",
"=. c #B24FEC",
"-. c #B550ED",
";. c #BB55EA",
":. c #B753E4",
">. c #BB53F1",
",. c #B550F1",
"<. c #C157EE",
"1. c #C257F4",
"2. c #C659F6",
"3. c #CA5CF7",
"4. c #C557F9",
"5. c #C758F9",
"6. c #CA5AF9",
"7. c #D15DFF",
"8. c #DC73EC",
"9. c #CF61F5",
"0. c #D265F3",
"q. c #D56AF1",
"w. c #D968FC",
"e. c #D36AEB",
"r. c #E27BEA",
"t. c #E47BEA",
"y. c #C96CD7",
"u. c #7A818B",
"i. c #7D899B",
"p. c #87868A",
"a. c #898B94",
"s. c #838D9B",
"d. c #808A97",
"f. c #88939F",
"g. c #989799",
"h. c #968598",
"j. c #838EA1",
"k. c #8B9AAA",
"l. c #949BA3",
"z. c #949AA6",
"x. c #8D98B4",
"c. c #929EB7",
"v. c #98A4AE",
"b. c #9AAAB4",
"n. c #97A5B7",
"m. c #A7A7A7",
"M. c #A6ADB6",
"N. c #A8B1BA",
"B. c #B8B6B9",
"V. c #BCB3AC",
"C. c #D0B5A6",
"Z. c #E7BAA3",
"A. c #EFCEB7",
"S. c #A1ACC4",
"D. c #A4B4C3",
"F. c #ACBCCD",
"G. c #A7B6C9",
"H. c #B9BCC1",
"J. c #ACB9D7",
"K. c #D88BC4",
"L. c #F18FDF",
"P. c #F393DD",
"I. c #F896D9",
"U. c #FB9BDB",
"Y. c #F597D8",
"T. c #E58AD2",
"R. c #FBA2DD",
"E. c #FAA9DE",
"W. c #EFAFDC",
"Q. c #E681E6",
"!. c #ED8AE1",
"~. c #E985E6",
"^. c #F592E2",
"/. c #FBABE1",
"(. c #F3A6E7",
"). c #FBBDE6",
"_. c #FBB4E3",
"`. c #B6C4DA",
"'. c #BBC0C2",
"]. c #BDCEE9",
"[. c #BACAE5",
"{. c #BED1EC",
"}. c #C9C8C9",
"|. c #D5D6D6",
" X c #CACFD8",
".X c #FEE9DE",
"XX c #C4D3ED",
"oX c #C9D6E7",
"OX c #D8DBE3",
"+X c #C6D6F4",
"@X c #CBDBFC",
"#X c #D0DDF5",
"$X c #FDC2E9",
"%X c #F9D5EE",
"&X c #FEDCF4",
"*X c #FBD4F0",
"=X c #EDD8E8",
"-X c #DCE3EC",
";X c #D5E2FB",
":X c #D9E5FE",
">X c #DCE7FB",
",X c #E4E4E6",
"<X c #E1EDFF",
"1X c #E9ECF4",
"2X c #FEE8F6",
"3X c #EBF2FC",
"4X c #F2F2F1",
"5X c #F1F6FF",
"6X c #F6FAFD",
"7X c #FEFEFE",
"8X c #FDF4F5",
"9X c #F6F2EE",
"0X c #E0D4D0",
"qX c None",
/* pixels */
"qXqXqXqXqXqXqXqXqXqXqXqXqXqXqXqXqXqXqXqXqXqXqXqXqXqXqXqXqXqXqXqXqXqXqXqXqXqXqXqXqXqXqXqXqXqXqXqXqXqXqXqXqXqXqXqXqXqXqXqXqXqXqXqXqXqXqXqXqXqX",
"qXqXqXqXqXqXqXqXqXqXqXqXqXqXqXqXqXqXqXqXqXqXqXqXqXqXqXqXqXqXqXqXqXqXqXqXqXqXqXqXqXqXqXqXqXqXqXqXqXqXqXqXqXqXqXqXqXqXqXqXqXqXqXqXqXqXqXqXqXqX",
"qXqXqXqXqXqXqXqXqXqXqXqXqXqXqXqXqXqXqXqXqXqXqXqXqXqXqXqXqXqXqXqXqXqXqXqXqXqXqXqXqXqXqXqXqXqXqXqXqXqXqXqXqXqXqXqXqXqXqXqXqXqXqXqXqXqXqXqXqXqX",
"qXqXqXqXqXqXqXqXqXqXqXqXqXqXqXqXqXqXqXqXqXqXqXqXqXqXqXqXqXqXqXqXqXqXqXqXqXqXqXqXqXqXqXqXqXqXqXqXqXqXqXqXqXqXqXqXqXqXqXqXqXqXqXqXqXqXqXqXqXqX",
"qXqXqXqXqXqXqXqXqXqXqXqXqXqXqXqXqXqXqXqXqXqXqXqXqXqXqXqXqXqXqXqXqXqXqXqXqXqXqXqXqXqXqXqXqXqXqXqXqXqXqXqXqXqXqXqXqXqXqXqXqXqXqXqXqXqXqXqXqXqX",
"qXqXqXqXqXqXqXqXqXqXqXqXqXqXqXqXqXqXqXqXqXqXqXqXqXqXqXqXqXqXqXqXqXqXqXqXqXqXqXqXqXqXqXqXqXqXqXqXqXqXqXqXqXqXqXqXqXqXqXqXqXqXqXqXqXqXqXqXqXqX",
"qXqXqXqXqXqXqXqXqXqXqXqXqXqXqXqXqXqXqXqXqXqXqXqXqXqXqXqXqXqXqXqXqXqXqXqXqXqXqXqXqXqXqXqXqXqXqXqXqXqXqXqXqXqXqXqXqXqXqXqXqXqXqXqXqXqXqXqXqXqX",
"qXqXqXqXqXqXqXqXqXqXqXqXqXqXqXqXqXqXqXqX[ [ [ [ { [ qXqXqXqXqXqXqXqXqXqXqXqXqX[ { [ [ [ { [ [ [ qXqXqXqXqXqXqXqXqXqXqXqXqXqXqXqXqXqXqXqXqXqX",
"qXqXqXqXqXqXqXqXqXqXqXqXqXqXqXqXqXqXqX[ [ [ [ [ [ [ [ qXqXqXqXqXqXqXqXqXqXqXqX[ [ [ [ | [ [ [ [ [ qXqXqXqXqXqXqXqXqXqXqXqXqXqXqXqXqXqXqXqXqX",
"qXqXqXqXqXqXqXqXqXqXqXqXqXqXqXqXqXqX[ [ [ [ [ [ [ [ [ { qXqXqXqXqXqXqX{ [ { { [ [ [ { [ [ [ [ [ [ [ [ [ qXqXqXqXqXqXqXqXqXqXqXqXqXqXqXqXqXqX",
"qXqXqXqXqXqXqXqXqXqXqXqXqXqXqXqXqX[ { } o.o.o.o.o.o.o.o.X.qXqXqXqXqXqX[ {  .o.o.o.o.o.o.#.X.#.#.#.X.} [ [ qXqXqXqXqXqXqXqXqXqXqXqXqXqXqXqXqX",
"qXqXqXqXqXqXqXqXqXqXqXqXqXqXqXqX[ [ [ o.=.>.>.>.>.-.>.=.$.} [ [ [ [ [ |  .&.>.>.>.>.-.>.>.>.>.>.>.=.#.[ [ [ { [ [ qXqXqXqXqXqXqXqXqXqXqXqXqX",
"qXqXqXqXqXqXqXqXqXqXqXqXqXqXqX[ { { X.&.2.7.3.3.3.6.7.2.%.{ [ [ { X.X. .$.>.6.6.5.3.3.6.6.6.6.6.6.2.&.o.{ [ [ [ { qXqXqXqXqXqXqXqXqXqXqXqXqX",
"qXqXqXqXqXqXqXqXqXqXqXqXqXqXqX| { o.=.1.5.6.6.3.3.6.3.1.%.{ | [ X.&.=.>.>.1.6.3.3.6.3.3.6.6.6.3.6.5.>.=.#.} [ [ [ [ [ qXqXqXqXqXqXqXqXqXqXqX",
"qXqXqXqXqXqXqXqXqXqXqXqXqXqXqX} X.*.3.3.5.3.5.3.6.3.6.2.*. .}  .%.>.3.6.5.5.3.3.5.6.5.5.6.6.5.5.3.5.6.2.&.} [ [ [ { { qXqXqXqXqXqXqXqXqXqXqX",
"qXqXqXqXqXqXqXqXqXqXqXqXqXqX} $.=.>.5.6.3.5.6.3.5.5.5.5.;.=.*.*.-.2.3.6.5.6.6.5.6.6.3.6.3.6.3.6.5.6.6.2.%.} | [ [ [ [ qXqXqXqXqXqXqXqXqXqXqX",
"qXqXqXqXqXqXqXqXqXqXqXqXqX[  .*.2.5.5.6.3.5.6.3.3.6.5.6.2.5.5.5.3.3.5.3.6.6.6.6.6.6.6.3.6.5.3.6.3.3.6.2.&.X.[ [ [ [ [ qXqXqXqXqXqXqXqXqXqXqX",
"qXqXqXqXqXqXqXqXqXqXqXqXqX|  .*.6.3.3.6.6.3.3.5.5.6.3.6.3.3.3.3.5.5.3.6.3.6.5.5.5.3.5.5.3.3.5.6.6.6.5.2.;.&.#.{ [ { { qXqXqXqXqXqXqXqXqXqXqX",
"qXqXqXqXqXqXqXqXqXqXqXqXqX|  .*.5.6.6.3.5.3.5.3.5.3.6.3.6.5.6.5.6.5.5.5.5.3.6.6.3.6.3.6.5.3.5.6.3.5.6.3.3.1.&.} [ [ [ qXqXqXqXqXqXqXqXqXqXqX",
"qXqXqXqXqXqXqXqXqXqXqXqXqX[  .*.3.6.5.5.6.6.5.6.6.3.5.5.6.6.3.7.7.7.7.7.6.7.6.7.7.6.7.6.5.6.6.6.5.3.6.5.7.5.=. .| [ qXqXqXqXqXqXqXqXqXqXqXqX",
"qXqXqXqXqXqXqXqXqXqXqXqXqX[  .*.5.6.5.3.3.6.6.5.3.6.5.6.3.3.5.2.3.3.2.3.7.6.5.5.6.3.3.3.5.6.6.5.6.3.3.5.6.3.*. .[ qXqXqXqXqXqXqXqXqXqXqXqXqX",
"qXqXqXqXqXqXqXqXqXqXqXqXqX[  .*.5.6.3.0.q.q.3.5.5.6.3.6.6.5.+.( ~ / ~ ~ T / / / / / / @.2.6.7.3.6.6.5.5.1.=.%.} qXqXqXqXqXqXqXqXqXqXqXqXqXqX",
"qXqXqXqXqXqXqXqXqXqXqXqXqX[  .*.3.6.3.8.!.t.q.6.5.3.2.5.7.5./ w 3 3 8 8 8 8 8 3 8 8 8 D :.6.6.5.6.3.6.2.*.o. .qXqXqXqXqXqXqXqXqXqXqXqXqXqXqX",
"qXqXqXqXqXqXqXqXqXqXqXqXqX| } *.2.6.3.8.L.~.0.6.6.3.6.2.:.O.H 0 t i i p a f p p i t 4 h ^ O.O.@.<.6.6.3.*.o. .qXqXqXqXqXqXqXqXqXqXqXqXqXqXqX",
"qXqXqXqXqXqXqXqXqXqXqX[ [ | } *.5.6.3.r.P.!.q.6.6.6.7.<.T r k P i.c.D.H.H.'.H.D.n.j.u.v e e 8 A @.6.7.2.1.=.$.} qXqXqXqXqXqXqXqXqXqXqXqXqXqX",
"qXqXqXqXqXqXqXqXqXqXqX{ { } #.=.5.5.3.8.^.!.q.3.6.3.;.O.r 0 v v.`.+X:X5X7X7X7X3X;XoXF.i.f 2 2 d ! +.<.3.6.3.=.o.} qXqXqXqXqXqXqXqXqXqXqXqXqX",
"qXqXqXqXqXqXqXqXqXqXqX[ } $.=.2.6.6.3.8.P.I.~.t.w.;.T A q g s.J.+X@X>X6X7X7X7X7X5X1X-X`.c.i.P K h A ..2.7.5.1.=.%.X.qXqXqXqXqXqXqXqXqXqXqXqX",
"qXqXqXqXqXqXqXqXqXqXqX[ X.-.5.6.6.6.3.8.!.I.I.~.e.O.r 2 g E M.XX@X@X:X5X7X7X7X7X7X7X7X3X#X].F.i.i 8 T 2.7.3.5.3.=.X.[ qXqXqXqXqXqXqXqXqXqXqX",
"qXqXqXqXqXqXqXqXqXqX[ | X.-.3.6.5.5.3.0.8.~.P.K.) A d g b g.F.+X@X@X:X6X7X7X7X7X7X7X7X7X5X<X+Xn.i > D 5.7.3.3.6.-.X.| [ qXqXqXqXqXqXqXqXqXqX",
"qXqXqXqXqXqXqXqXqX[ [ [ X.-.6.3.5.5.5.6.3.r.^.' l 2 g E l.n.J.+X@X@X:X5X7X7X7X7X7X7X7X7X7X3X;XG.c 3 D ;.5.3.7.3.-.X.{ { [ qXqXqXqXqXqXqXqXqX",
"qXqXqXqXqXqXqXqX[ [ [ [ X.=.3.3.3.6.5.0.8.~.^.` 9 & x l.N.`.].@X@X@X;X<X6X7X7X7X7X7X7X7X7X6X<X[.i.v J ! @.2.6.6.>.*.#.} [ qXqXqXqXqXqXqXqXqX",
"qXqXqXqXqXqXqX[ { [ [ [ X.-.5.5.5.5.3.8.!.^.U.' 9 2 v b.`.{.@X@X@X@X@X@X;X3X7X7X7X7X7X7X7X5X;X].S.i.g 8 D ;.7.5.2.2.=.X.{ qXqXqXqXqXqXqXqXqX",
"qXqXqXqXqXqXqX[ { {  . .&.;.6.3.5.0.8.~.P./.U.` d 2 v z.`.[.].].+X@X[.c.j.z.m.m.m.'.|.1X3XoXb.i.U c y % Z ;.7.3.6.6.>.o.[ [ qXqXqXqXqXqXqXqX",
"qXqXqXqXqXqXqX{ [ {  .=.1.5.5.5.3.8.!.^.I.U.U.` d , g a.v.N.D.D.`.+XG.f $ $ & $ = b N.oX#XS.f # # # @ > S ;.7.3.6.6.>.o.[ [ { qXqXqXqXqXqXqX",
"qXqXqXqXqXqXqX[ [ [ #.>.6.6.5.5.9.r.I.U.U.U.U.` 9 % i I d.v.b.b.F.[.n.p o     X + s b.{.+Xc.%   X + o 1 D ;.7.6.7.6.;.o.[ [ [ qXqXqXqXqXqXqX",
"qXqXqXqXqXqXqXqX[ [ #.;.7.6.5.5.3.r.I.U.U.U.I.` 9 % 4 k P p.z.b.D.D.b.i.x @   - m V `.@X;Xc.% X ; m ; & F <.7.6.3.3.>.#.[ [ { qXqXqXqXqXqXqX",
"qXqXqXqXqXqXqXqXqX[ X.=.2.2.5.6.9.8.!.P.I././.K.M e 6 6 k I a.z.b.b.N.G.k.f = M C Z.OX+XF.i.y : N B : 8 Z :.7.6.2.1.=.X.[ [ [ qXqXqXqXqXqXqX",
"qXqXqXqXqXqXqXqXqX[ } X.%.>.3.6.3.0.8.t.P._.*X=XXXc.g > 6 k K a.k.b.D.`.`.n.k.C.A..X1XN.x x p.V.A.Z.n < Z <.7.6.>.&.X.} [ [ [ qXqXqXqXqXqXqX",
"qXqXqXqXqXqXqXqXqX{ { { o.-.5.6.5.6.3.8.P._.&X7X7X|.u.i 5 6 k I a.v.F.{.@X@X@X3X7X7X7Xm.y a '.7X8XOXb < Z +.7.1.=. .[ [ { [ { qXqXqXqXqXqXqX",
"qXqXqXqXqXqXqX[ [ [  .$.=.1.3.6.3.5.3.8.P./.).&X7X6X}.f.j 5 4 j P k.G.{.;X3X6X7X7X7X7X|.g.m.9X7X7XoXP , A <.2.*.o.} [ [ [ [ qXqXqXqXqXqXqXqX",
"qXqXqXqXqXqXqX[ [ [ o.=.5.6.6.3.5.6.3.8.P.U.I._.&X7X7X,Xa.4 , e K c.`.{.;X1X1X9X7X6X9X9X4X4X4X1X;XJ.v 8 D ;.,.X.[ [ [ [ { qXqXqXqXqXqXqXqXqX",
"qXqXqXqXqXqX{ [ | [ o.>.6.6.3.6.5.5.3.8.L.U.I.R.).&X7X8X}.p.d 0 G n.oX>X-XM.g.|.6X}.g.B.6X1Xm.u.u.Y J H ..>.=.} | [ { [ [ qXqXqXqXqXqXqXqXqX",
"qXqXqXqX{ [ [ [ [ { #.>.6.6.3.5.3.5.3.8.P.U.I.U.Y._.&X7X9X0Xp.0 j G.:X5X}.s * g.,Xa.* n {.`.a o % e ! +.2.2.=. .[ [ [ [ [ qXqXqXqXqXqXqXqXqX",
"qXqXqXqX[ [ [ {  .o.*.1.6.6.6.3.3.5.3.8.P.U.U.I.I.R.*X7X7X9Xg.0 j `.XXN.n $ . a p.a . * N b $ O 7 A @.3.7.2.*. .[ [ { [ [ qXqXqXqXqXqXqXqXqX",
"qXqXqXqX[ [ [ { o.-.2.3.5.3.5.6.6.5.3.8.P.Y.U.Y.I./.&X7X7X9Xg.0 j J.G.g o .   o $ o   . $ $ @ 7 H :.>.6.6.5.=. .[ [ { qXqXqXqXqXqXqXqXqXqXqX",
"qXqXqXqX{ [ [ { $.1.6.6.6.6.3.3.3.5.3.q.Q.L.Y.R./.$X2X7X7X%Xh.2 G J.J.v u u u o           o i L ) ..:.3.3.3.*. .[ [ [ qXqXqXqXqXqXqXqXqXqXqX",
"qXqXqXqX[ [ | { $.1.6.6.3.5.3.5.5.3.5.9.q.8.P.E.*X8X7X7X&XW.W 2 j J.#X X}.}.m.a           = m.B.L w / 2.7.2.*. .| qXqXqXqXqXqXqXqXqXqXqXqXqX",
"qXqXqXqXqX[ [ { o.=.2.3.6.3.5.3.6.5.3.5.2.q.Q.(.*X2X2X2X$XY.Q l G c.[.,X6X7X1Xa.u * * & & x M.B.v w ^ 1.7.5.*.} [ qXqXqXqXqXqXqXqXqXqXqXqXqX",
"qXqXqXqXqXqX[ { } o.*.>.3.3.5.3.5.3.6.5.6.3.q.Q.(.).$X_./.Y.K._ W z P N.oX<X<X XB.V.B.M.n.j.I z H ( +.3.6.5.=. .[ qXqXqXqXqXqXqXqXqXqXqXqXqX",
"qXqXqXqXqXqXqX[ [ [ X.=.5.5.6.6.3.5.5.3.3.6.5.q.Q.^.^.P.P.I.U.I._ l i u.v.G.`.oX-X,X|.oX`.x.d w ..5.6.5.3.3.*. .[ qXqXqXqXqXqXqXqXqXqXqXqXqX",
"qXqXqXqXqXqXqXqX[ [ } o.&.>.3.7.5.6.5.3.5.5.5.3.e.8.8.8.!.I.R.U.K.Q R g f c v I U p.p.U P K H / :.7.7.5.3.5.*. .| qXqXqXqXqXqXqXqXqXqXqXqXqX",
"qXqXqXqXqXqXqXqXqX[ [ [ o.=.2.2.2.3.3.5.6.3.6.3.3.3.3.9.r.^.I.P.P.P._ l , > < < < < < 1 < r O.3.3.5.6.3.5.2.&.} [ qXqXqXqXqXqXqXqXqXqXqXqXqX",
"qXqXqXqXqXqXqXqXqXqX[ [ { #.&.&.*.>.3.6.5.6.3.6.5.5.5.3.q.r.r.r.t.t.y.^ Z Z Z Z Z Z Z Z Z ~ :.6.6.5.6.5.>.*.X.} [ qXqXqXqXqXqXqXqXqXqXqXqXqX",
"qXqXqXqXqXqXqXqXqXqXqX[ { { } {  .&.1.5.3.3.5.5.5.5.5.6.3.3.3.0.3.0.3.<.;.;.;.<.;.;.;.;.;.<.2.3.6.6.5.1.&. .{ [ [ qXqXqXqXqXqXqXqXqXqXqXqXqX",
"qXqXqXqXqXqXqXqXqXqXqXqX[ [ [ | { X.&.>.3.6.5.3.3.3.3.6.6.5.5.5.5.2.3.7.7.7.7.7.7.7.7.7.7.7.6.6.6.3.>.*.o.{ [ [ qXqXqXqXqXqXqXqXqXqXqXqXqXqX",
"qXqXqXqXqXqXqXqXqXqXqXqXqX{ [ [ { {  .&.2.6.5.3.3.6.6.6.6.5.6.6.6.3.3.3.6.6.5.5.3.3.3.2.6.6.5.6.3.2.%. .{ [ [ qXqXqXqXqXqXqXqXqXqXqXqXqXqXqX",
"qXqXqXqXqXqXqXqXqXqXqXqXqXqX[ [ [ [ [ #.*.-.-.=.-.-.-.-.2.6.6.3.6.6.3.6.5.3.5.3.3.5.3.6.6.6.6.5.>.*.X.[ [ [ [ qXqXqXqXqXqXqXqXqXqXqXqXqXqXqX",
"qXqXqXqXqXqXqXqXqXqXqXqXqXqXqXqXqXqXqX .X.X.X.X.X.X.X.o.=.5.3.5.5.5.6.6.3.5.3.6.5.3.5.3.6.6.6.>.%.X.} { [ { [ qXqXqXqXqXqXqXqXqXqXqXqXqXqXqX",
"qXqXqXqXqXqXqXqXqXqXqXqXqXqXqXqXqXqXqXqX[ [ [ [ [ [ | { $.-.>.>.1.2.3.3.3.5.6.6.6.7.5.2.1.-.;.=.X.[ [ [ [ [ qXqXqXqXqXqXqXqXqXqXqXqXqXqXqXqX",
"qXqXqXqXqXqXqXqXqXqXqXqXqXqXqXqXqXqXqXqXqXqXqXqX| [ [ {  .o.o.o.&.2.6.5.6.3.5.6.3.3.5.>.$.o.#.X.} [ [ [ [ qXqXqXqXqXqXqXqXqXqXqXqXqXqXqXqXqX",
"qXqXqXqXqXqXqXqXqXqXqXqXqXqXqXqXqXqXqXqXqXqXqXqX[ { [ [ [ { [ [ o.=.2.5.6.3.5.2.1.1.>.&.} [ [ { [ { [ [ qXqXqXqXqXqXqXqXqXqXqXqXqXqXqXqXqXqX",
"qXqXqXqXqXqXqXqXqXqXqXqXqXqXqXqXqXqXqXqXqXqXqXqXqXqXqXqX[ [ | [  .o.&.2.6.7.5.=.$.#.#.X.{ [ | qXqXqXqXqXqXqXqXqXqXqXqXqXqXqXqXqXqXqXqXqXqXqX",
"qXqXqXqXqXqXqXqXqXqXqXqXqXqXqXqXqXqXqXqXqXqXqXqXqXqXqXqXqX{ [ [ [ { o.=.2.5.;.$.{ [ [ { [ [ qXqXqXqXqXqXqXqXqXqXqXqXqXqXqXqXqXqXqXqXqXqXqXqX",
"qXqXqXqXqXqXqXqXqXqXqXqXqXqXqXqXqXqXqXqXqXqXqXqXqXqXqXqXqXqX[ [ [ [ { #.%.%.%. .[ [ [ [ [ qXqXqXqXqXqXqXqXqXqXqXqXqXqXqXqXqXqXqXqXqXqXqXqXqX",
"qXqXqXqXqXqXqXqXqXqXqXqXqXqXqXqXqXqXqXqXqXqXqXqXqXqXqXqXqXqXqX{ [ [ { { } { { { [ [ [ { qXqXqXqXqXqXqXqXqXqXqXqXqXqXqXqXqXqXqXqXqXqXqXqXqXqX",
"qXqXqXqXqXqXqXqXqXqXqXqXqXqXqXqXqXqXqXqXqXqXqXqXqXqXqXqXqXqXqXqX{ [ [ [ [ [ [ [ { [ [ qXqXqXqXqXqXqXqXqXqXqXqXqXqXqXqXqXqXqXqXqXqXqXqXqXqXqX",
"qXqXqXqXqXqXqXqXqXqXqXqXqXqXqXqXqXqXqXqXqXqXqXqXqXqXqXqXqXqXqXqXqXqXqX[ [ [ [ [ { [ qXqXqXqXqXqXqXqXqXqXqXqXqXqXqXqXqXqXqXqXqXqXqXqXqXqXqXqX",
"qXqXqXqXqXqXqXqXqXqXqXqXqXqXqXqXqXqXqXqXqXqXqXqXqXqXqXqXqXqXqXqXqXqXqXqX[ [ [ { [ qXqXqXqXqXqXqXqXqXqXqXqXqXqXqXqXqXqXqXqXqXqXqXqXqXqXqXqXqX",
"qXqXqXqXqXqXqXqXqXqXqXqXqXqXqXqXqXqXqXqXqXqXqXqXqXqXqXqXqXqXqXqXqXqXqXqXqXqXqXqXqXqXqXqXqXqXqXqXqXqXqXqXqXqXqXqXqXqXqXqXqXqXqXqXqXqXqXqXqXqX",
"qXqXqXqXqXqXqXqXqXqXqXqXqXqXqXqXqXqXqXqXqXqXqXqXqXqXqXqXqXqXqXqXqXqXqXqXqXqXqXqXqXqXqXqXqXqXqXqXqXqXqXqXqXqXqXqXqXqXqXqXqXqXqXqXqXqXqXqXqXqX"
};
