/* XPM */
static char *result[] = {
/* columns rows colors chars-per-pixel */
"106 106 57 1 ",
"  c #383836",
". c #3C3C39",
"X c #403F3C",
"o c #42413E",
"O c #464541",
"+ c #484743",
"@ c #4C4946",
"# c #4F4C48",
"$ c #514E4A",
"% c #55514D",
"& c #58544F",
"* c #575450",
"= c #5A5651",
"- c #5D5954",
"; c #615C56",
": c #635E59",
"> c #66615C",
", c #6A645E",
"< c #6D6661",
"1 c #6F6962",
"2 c #726C65",
"3 c #766F68",
"4 c #77706A",
"5 c #7E756E",
"6 c #7F7770",
"7 c #7F7871",
"8 c #80766F",
"9 c #807770",
"0 c #847B73",
"q c #887F77",
"w c #8C837A",
"e c #91877E",
"r c #91887F",
"t c #958B82",
"y c #998F86",
"u c #9A9087",
"i c #9D9289",
"p c #A1968D",
"a c #A4988F",
"s c #A69A91",
"d c #A99C93",
"f c #ADA097",
"g c #AFA298",
"h c #B2A59B",
"j c #B6A99E",
"k c #B7A9A0",
"l c #BBADA3",
"z c #BEB0A5",
"x c #C0B2A7",
"c c #C3B5AA",
"v c #C7B8AE",
"b c #C8B9AF",
"n c #CCBCB2",
"m c #D0BFB5",
"M c #D1C1B6",
"N c #D5C4BA",
"B c #D9C7BD",
/* pixels */
"zlzlzzzzzzxzBiuyy tycczzzzzzgdddd555558.ddddBfddddzzzzzzzzzzzzzzzxBiut -uyylBlzlhlddM85555:.dddBhddsddddxz",
"zxzzzzzzzzdjcbyyy%<yiBzlzzdlddddi555552;dddlMddddzzzzzzzzzzzzzzzzzxBuu5.uuyyzBMhsdhB855555 wddgBdddddddzzz",
"zzzzzzzzzzzlznyyy0.yyknzzzlddddd555855.pdddvndddlzldzzzzzzzzzzzzzzxcBuu+wyyy550snNf555585;.ddsvngfdddfzzzz",
"zzzxdczzzzfdxzyyyy tyyBvvcllkdiy055552.dsddMbddglzcdczzzzzzzzzzzzzzzBuyt wyy5575555555555 7dddBghkddfzzzzz",
"zzzzzzzzzzvcbsuuyy $yyy06555yyyyy0555.4ddddBvsszzzzzzzzzzzzzzzzzxlxzlhyy  wy555555555555O sdsfNsdddgzzzzzz",
"zzzzzzzzzzzzm95569. %yy65558yyyyyyq5: idddgBddzzzzzzzzxdhzzzzzzzxlzgdayy   75555554422$  @ddfhMfdlgzzzzzzz",
"zzzzzzzzzzjzB55552    >654,$%-15qet5  ddddNndggzzzzzzzzcxzzzzzzzlxjdhuyy   -X            =dfszMadhlzzzzzzz",
"zzlzzzzzzzxxb5555  $:        +1=.     dddgBddcczzzzzzzzzzzzzzzzzxhddxyyt  ssyusddsdddir. %iiigbsglzzzzzzzz",
"zzczzzzzzzzB5555oOddiy0O.#5pddiuuy1   sddNlslzzzzzzzzzzzzzzzzzzzllhdhww2 pdduusdddddduuu+.uuyaMfzzzzzzzzzz",
"zzzzzzzzzzx9555% pddyyyysddddsuuyuyq  dsfBdgzzzzzzzzzzzzzzzzzzzlddda558 1ddhBBBBBBBBMputt wuuuMzjzzzzzzzzz",
"zzzlzzzzld5555, %dddyyyiddddlzfiyyyy4 wuyNhzzzzzzzzzzzzzzzzzzzzdddd555O ddfBBjjhhccbNBhyu# uyyNzczzzzzjzzz",
"zzcdczzds55555  sdcBnyypddcBnxMBBcyyy&OuyaBzzzzzdzzzzzzzzzzzzzdddd955> eddBMddddxxlxxvBxur 5yyjMzzzzzzzzzz",
"zzzzlhdd85555. &dnndkBsjNBzdddhzxBnuuy wyyNzzzhzzzzzzzzzzxzzzdddd9855 OddBBshhdjlxzfgxxNcy+ uuyMczzzzzzzzz",
"zzzjddd85585,  ahBddddcNjsdddfzfzlBiyy4XyyaMzzzzzzzzzzzzjlzzfddd0555. pdnBddddfdjxxxxzzzNgr >uyyBxzzzzzzzz",
"zldddda85555o =dBdddldddddddfzxxczbByyy.9uuNzzzzzzzzzzzzjczgdhhp555- :dgBjddddzcczzzzzzzvNuo yyypBzzhlzzzz",
"fddddde55555  sbldddddddddddzzzzzzzBfyy7 uyinzzzzzzzzzzzxzhddddr555  ddBmddddlzzzzzzzzzzzBfr $yyugBzcczzzz",
"dddddd85555: =hNdddsdldddddhzzzzzfzcNuyyX1yynzzzzzzzzzzzzjgddddw552 0dlBddddhzzzzzzzzzjfznByO wyyycNzlzzhd",
"ddddda55555. dnddddddddddslzzzzzzzzzMhyyw tuuBzzzzldzajzjddddda555X.ddBlddddzzzzzzzzzzdfzlBpe XyyyuMBclsdd",
"dddjdw55555 %dNddddddddddlzzzzzzzzzzzByyt.%uusBxzzcczw5jddddddd555 idnNddddzzzdczzzzzzvzzzMny+ 5yuuyiBsddd",
"ddddd55555% sdBdddddddddjzzzzzzzzzzzzblyy0 wuuunvzzxj55iddddddu55*%dfBddddhzzzczzzzzzzzzzzzBut  tuyyunhdsd",
"gdsu055555 %ddBddfdddddhzzzzzzzzzzzzzzByyy. tuuyfMMfw55uaddddw555 ddvxdsddzzzhzzzzzzzzzzzzzBxy4 ouyyuuBhhh",
"8855855552 adsBddddddddjzzzzzzzzzhfzzzczyy5  tuyuuuu558uupaw555522ddMfdfdczzzxzzzzzzzzzzzllxByy; $yyyyt785",
"555855555..dddMdddddddlxzzzzzzzzzcczzkzMwyy   5uutt8,,0tri558854 dddBdddzzzzzzzzzzzzzzzzzzzzBhyy# -yyu0555",
"55555558# .ddhMdddlddlxlzzzzzzzzzzzzzgvM557@           wrw5553& #dddBddfzzzzzzzzzzzzzzzzzzzzmNyyy. ;yu5555",
"555432,X   ddknddhddjlxzzzzzzzzzzzzzzzdc555o  :2580002  X       wssdBsgdlzzzzzzzfjzzzzzzlxxxjByyyw  -t5555",
"           asiBdddgdzzzzzzzlzzzzzzzzzddt555  pddadfdddu>     o- issfMszfvzzzzzzzczzzzzzzxllddBy954        ",
". .@2ydy0@ 2yypMdddxzzzzzzxdczzzzzzzfdd5582 addjvMNMcfuuuuusdddw>yuuBfzzzzzzzzzzzzzzdlzzlxdddBt852  ow7>#o",
"ypdsdddyyyw yuufmdlzzzzzzzzzzzzzzzzfdda555@&dMBMjfdfjMaupdddddau$yuynczzzzzzzzzzzzzzvxzzlddddnd85- 4dddyyu",
"ypddddljyyy;%yyylmzzzzzzzzzzzzzzxxddddr555 wdBddfdgdddNddddddduuy@yyuBzzzzzzzzzzzzzzzzzldddddNp55O#ddddpyy",
"uaddxBMBBpyy quyymnxzzzzzzzzzzzzzdddjd555, adBdddzdddddjvMMNNNury,wytbczzzzzzzzzzzzzzzjsddddlb584 dddfnBcy",
"fdbBmdjzMnuyw yyyiBlzzzlzzzzzzzzdddfzt558o ddNdddddddddlzzzzxBiuyy yuuBzzzzzzzzljxzzzfsdddddc855.tddfBldhB",
"mBvddljxxBuuy#%uyynmzzzlzzzzzzzddddds555, #dfNdddddddhxzgzzzzNfuyy5,uucczzzzzzzclzzzdddfdddh558$;ddfBdddfd",
"ddddzzzzzMcuut wyyuBxlgdblxxxldddddd8555  wddBddhdddzzzckzzzzcMyyyy.yyyBzzzzzzlzzzldddhdddt8552XdddBddzddd",
"ddgzzzzfjzBuuy2 yyyxMxcbxxllhddddddt555;  ddhmdlddkxzzzzzzzzzzByyyywOyyjvzzgzxdzzkdddddddt8555.pddBddddlld",
"djzzzzzcczMjyyu.%yyyBxxllxxxhdddddl5555  qddBddddzlzzzzzzzzzzzMayyyyO4uynNzzzzzlgddddfhdt5555*4ddBgddddddd",
"zzzzzzzzzzzNyyuw wyugBlxxldfdddddx5555@ oddbjddjxzzzzzzzzzzzzzcbyyyyy yyyicnzzldddsdddp055554Oddgmdddddddd",
"zzzzzzzzzzzbduuy# yyymBcljldddddhq5854  idhndfzzzzzzlfzzzzzzzzzBNdyyy5$yyyyyjNcljlchw5555555.sddmddddddhdc",
"zzzzzzzzzzzzNuyyy &yyypMNhdddjbNd5555. =ddBslzzzzzlfcczzzzzzxzzzxNdyyyXqyyyyyyide9885555555=qdddNdddddddcz",
"zzzzzzzzzzzzbpyyu> wyyyyaMBBBni98555>  ddclzlzzzzzxczzzzzzzzhzzzzzByyyt yyyyyyyq55555555553+dddvhdddddkzzz",
"zzzzzfzzzzzzzbyyyy  ,yyyyyp055555558  :ddBzzzzzzzzzzzzzzzzzkzzzzzzcxyyy*%yyyyyyw5555555555 tdssBddkzdllzzz",
"zzzzzzzzzzzldbuuyy.  .wuyyy5555658:.  yddmllzzzzzzzzzzzzzzzzzzzzxlxmiyyy  *tyyyq5585541$.  wdddBddddllxlzz",
"zzzzzzzzzzzzxcuuyy.    otyy55553@     ddjbzzzzzzzzzzzzzzzzzzzzzzxlhdmyyy=    @404:+.       qdddNsddlxxxxzz",
"zzzzzzzzzzzzzv558r.   .  +t62#   .+o .ddlczzzzzzzzzzzzfjzzzzzzzzljddbe08;    O=,12211>:%   4dddcddxlxllxzz",
"zzzzzzzzzzzzz05554 -udduy0=. O1ydddde yidnzzlzzzzzzzzzgvzzzzzzzzhdddc955X  .tdddsdddddddi2 >ddddmxlxzlxlzz",
"zzzxzzzzzzzxa5555.pddduuyyyyydddddddy@@yyMxzfzzzzzzzzzzzzzzzzzzgddddd555  *ddddddddddddsyy0.ddpiMzdzzclzzz",
"zzzjzzzzxxjd5555,2dddfuuyyyyidjcxjdyyy eyiBzzzzzzzzzzzzzzzzzzzgdddgd8552 .ddddbBBBBBNBBBiyy$4yyypBxzzzzzzz",
"zzzdczzzdjdy5555 dddMBBbdyyypBBccnBayy,Xyygnzzzzzlzzzzzzzzzzzgddddda555@ 5ddxBlddddddlzbByyy yyyuMcxzzzzzz",
"zzzzzzzzldd5555%wddzcdddhbBnBxzzxlcByyy.0yynczzzzzzzzzzzzzzzkdddddd0555  ddxmdddddddkdzznNyy5<yyuiBzzzzzzz",
"zzzzjzjdddw5554XddfnddddddlzzzzfzzzMcuyw yyyBlzzzzzzzzzzzzzdddddddd5653 $ddBdddddddhzzzzznMyyXyyyynnzzzzzz",
"zzzzzfddda5555.eddBddddddhzzzzzxczhzBiyy%1yyaBzzzzzzzzzzzzddddddddw655# iddBddddddgzzzzzzzMcyt#yyyiBzzzhzz",
"zzzlddddd8558>XsddBdddfgdxzzzzzzzzzzcByyu yyylnzzzzzzlzzldddddddds5555 #ddjBddddddzzzzzzzzzBgy-tyyycBzzlcz",
"zzjjdddfe5558 esddndsdddllzzzzzzzzzzzNayy5@yyybczzzzxfzjdddddddda5555O.dddNcdddjdzzzzzzzzzzzByyXyyyuBBxzzz",
"jfdddhv85588+.sdsjkddsdhzzzzzzzjzzzzzvlyyyo,uyycNzlzzzhddddhlddi5555* ddhBcdddhdkzzzzzzzzfhzbly54uyyycBnzz",
"ddgvMr555552 wdddvddddfzzzzzzzchzzzzzzMuyyt 9yyyivBBMnxlhhddddw5555< ddcBhdddddhzzzhzzzzzcczzByyXyyyyyiBBh",
"NMa55855858 .dddfBdddhfzzzzzzzzzzzzzzzByyyy> eyyuq55599998855555553 sdzNdhdddddxzzzzzzzzzzzlzclyt#yyyyyyhB",
"w555555555& 2dddBddddhzzzzzzzzzzzzzzzzvyyyyy  tyy55555555555555562 6ddBdllddddxlzzzzzzdzzzzzzzByy%7yyyyyyi",
"t5555555,X  sddBhddddzzzzzzzzzzzzzzhfzhsyyyy0  tw55558555555555,.  ddllddddddlzzzzzzzzvzzzzzzzviyy tyyyyyy",
"y5885,o    .ddhnddddlzzzzzzzzzzzzzzzzhszyyyyyX  o$;,225558554$    <ddBdddgddhzzzzzzzzzzzzzzzzzjiyy- X>tyyy",
"w8-.       2ddmxldshzzzzzzzzzzzzzzzzkdffpyye8o                    pdgndddddfzzzzzzzzzzzzzzzzzdgiyy6     X>",
"   O,eas1  tddBddddzzzzzzzzzzzzzzzzzdddsdd555  ,>$.               yichdddddzzzzzzzzzzzzzzzzzlddiyy6 Ot6%. ",
"addddddddio2pdBdgdlzzzdjzzzzzzzzzzldfdfsdw88, 8duuyyisdddddddddw. 1ygcsdddlzzzzzzzzzkzzzzzzhdddyyy<4ddyyyy",
"ddddddgdyyy.yyMddflzzzzzzzzzzzzzzzdfsjddy554 #ddduyypddddddddddat .yiBdddgzzzzzzzzzzzzzzzzkdddd666.ddzhiyy",
"ddfcBMmByyyy@yhBdzzzzzzzzzzzzzzzzddlcddi855  ddddduupdddddddddayy< yyMfdhzzzzhhzzzzzzzzzzlddddw661*dzvhBfy",
"BBmjlzlNbyyyq9ylMzzzzzzzzzzzzzzzddddddi758o tddddcBBBBBBBMmnxayyyy >ysndzzzzzzzzzzzzzsczldddhd556.tdBdddcB",
"dddlzlzzNfyyy=uuznzzzzzzzzzzzzzfdhdda0555; -dddvBngddlxlzzzxbNuuriw uyNhzzzzzzzzzzzzzczzdddhlw552 ddBdlddd",
"ddjzxdczzByyyu#yucczzdzzzzzzzzfsddde58882 .dddnmdddddxlxzzzgzNauuuio5yjvzzzzzzzzzzzzzzzfddddd555.OddNdddhd",
"dhzzzzzzzcnuyy70yyvczzzzzzzzslddddp55558  ysddBdddddxzxhzzxjxzNuuiur yuNzzzzlzzzzzzzzzgdddds0552 6ddNddzzd",
"ghzzzzxlzzndyyy yuuvvzzzzzzzhddddsq5855o :dddjMddddxlxchzzxzzzbxuruu=3ufMzzzgzzzzzzzzhdddddp858. dddmddddd",
"zczzzzzxzzzByyu5#uyycMzzzzzjdddddd55552 .ddddNgdddzzxzzzzzzzzzzMzyyyu uucczzzzzzzzzzjdadddd8552 $dddNddddd",
"zzzzzzzzzzzzcyuyX9yyyjBzzzjsddddds5555o uddddNddfjzzzzzzzzzzzzlxNzyyu,,yuNzzzzzzzzzldddddd8555  ddddBddddx",
"zzzzzzzzzzzzbiyyw uuyydBzjjddddsdy5555 ;ddddmhdhlxzzzxzzzzxlzjdxzNhyyy yuiNlzzzldxlddhddd05552 rdddcbdddzz",
"zzzzzzzzzzzzxcyyi@#uyyuiBgdddddhd8555# ddddvxdddzzzzzjfzzzzzxbxxzzByyr&&irdMzzzxxzdddddd95555 -ddddBdddzzz",
"zzzzzzzzzzzzzmyyyy 9yyyyuBbdddddz5555 ydddcvdddlzzzzzxczzzzzlxzzzzMi55> riulblxzlddddss88558> ddddlnddlxzz",
"zzzzzzzdhzzzdByyyy- tyyyyyjnMMbp5555==dddzMdddgzzzzzzzzzzzzzxlzzzzji85> oiuuxMMMmnbxjp855855 pdddnmddkddzz",
"zzzzzzzzzzzdjMyyyyy  tyyyw555555555- dddzMdsdfzljzzzzxzzzzzzxxxlzhfw55,  wriw45585858855555-3ddjNvdshlxxzz",
"zzzzzzzzzzhhdMyyyyy$ .yyq555555578o @ddgNfdddlzzczzzzzzzzzzzlxlxljf988,   ir555555555888555 sdNBkddklxzzzz",
"zzzzzzzzzjddda55555=  .,24545855>   odafNafajzzlzzzzzzzzzzzzzzzlddd555>   =55555558588584- XddNjdddzzzzzzz",
"zdxzzzzzldddd558554      .@14,$X     sffBfdfzzllzzzzzzzzgzzzzzldddd555>   ,add0#.oo$%$%&o   ddlMddlzzzzzzz",
"xxxzzzzlfddr855552 ,qisdddddddddau0  dfaMfazzzffczzzzzzxjxzzzlfdddd555$  iddddddddddddddfdq ufdNdkzdzzzzzz",
"zzzzzzxdzd8555555 -dddddddddddpyyyuy iafhzjzzzvzzzzzzzzzxzzzjfddddd555  ofdddddddddddddddsur rpbzzczzzzzzz",
"lxxlxxdga5555588..dddddhlnNBBBmdyyyyy.yyyMvzzzzzzzlzzzzzzzzchdddddd86$  yddddhlcnMBBBBBMxuyy,&yyBczzlzzzzz",
"xlxxxddp8555555X tdddBBnkddddkcmNMiyyr%yyycNzzzzzzxzzzzzzzzjddddddq55  .dddzBBNnbxlhhhlMBxyyy.qyiBczzzzzzz",
"lxxlgdd5558554  @dddBjdddddhjllxzzBuyy,7yyyfBzzzzlzzzzzzzzjddddddq55+  4ddcBjsddddddddlzlBayuw yyiBczzzzzz",
"xllhdda555882   addncdddddddhxlxzzMiyyy.yyyyyMMzzxzzzzzzzlddddda9894   ddxBhdddddddhdlhfxxByuy*OyyiBzzhdcz",
"xxjdddt55585   eddhBddddddddlxxlzzzcyyyw.yyyyyMzzlxxzzxdcddddda5585X  *dhBhddsddddddlzcxzzMkuyy 6pdhmzzkcz",
"llddddq8558X  edddBdddsdddddxllxzzzByyyy%=yyyyuMzzxlzxlxddddddw5552   adBldddddjhddlzzzzzzzBuyy5 dddBzzzzz",
"ldjddd85552  idddBgddddddddlzzxzzzzvdyyyy 7yyyyMxzllzdxddddddd5588.  wdxNdddddddddxxzzzzzzzvvyyyoyddhnzzzz",
"dhdddl5585. ddddBkhddddddddzzzzzzzzzNyyyy, yyyyuNzxczcgdffddfa555:  6ddBdddddddddlxlzzzzzzzzBuyyq*dddBzzzz",
"ddddxn8554 =dddNldddddddddhzzzzzzfhzzMyyyy. yyyyxNMMNMlauuida7555  :ddmcdggdddddlzzzjhzzzzzzvlyyyodddlmzzd",
"cbBmi5555% addcnddddddddddzdczzzzczzlMayyyw +yyyupprriuuyyuuu555$ @ddhBdddddddslzzzzzczzzzzzzByyywtdddmBBm",
"lt5555855.@dddndddddddsdddxxzzzzzzzzzzMyyyyX ;yyuiuuuuuuyyyuu055 .dddBhddddddslzzzzzzzzzzzzzzByyyy$ddiyypl",
"985555558 pdddnddddsdddddlzzzzzzzzzzzzzayyyw  %5rruuuuuryyyuyr5o adpiBdddddddlzzzzzzzzzzzzzzzMayyt5apyyyyy",
"955558852 tuddchdhlddddddlzzzzzzzzzzzzzbyyyr        o-3wruuurw% #titiNdddddskzzzzzzzzzzzzzhhzvkuyyt+yyyyyy",
"q553:&X   1yyyjlddddddddjdczzzzzzzzzzhhvyyyu    o>5%       .o+o +itiinddfjhjzzzzzzzzzzzzzzzvzznyyyy  #6tyy",
".         .yyyiNddddddddzxzzzzzzzzzzzzffiyyy  odadddu7>5uaddfdd3 yyyiNddddhzzzzzzzzddczzzzzzzfBytit      .",
"dddddddi9$ wyyymdddddddfzzzzzzzzzzzzzfjdjyyy  addddayuddddddddpr;wyytvbddgzzzzzzzzzvczzzzzzzdnw5994.pddddd",
"ddddaiyyyyw yyyilddddsdlzzzzzzzzzzzzfjddf854 3ddddjMuydddddsdduuy+yyyyBjdzzzzzzzzzzhlzzzzzzddd9555.ddddddd",
"jbmnayyyyyu,.yyyMddddddlzzzzzzzzzzzhdddh555#odddgNBBhydddddddauuyt+yyyiBzzzzzzzzzzxzzzzzzzdda5888Oaddddddd",
"BmcmBBdyyyyuoXyyijddddjzzzzzzzzzzzlsddp5558 pddxBjdlBbMBBBBBBNiuyyw:yyygBlzzzzzzzzzzzzzzldds5558%tddddxNBB",
"dddddmBNdyyyy $yuMddddzzzzzzzzzzzzddda5555&>sddBgdddBBBMMbcvbMBdyyy$0yyynnzzzzzzzzzzzzzlddd6555;9ddddBBcjd",
"ddddlxxnBByuy5 1usjsdfdzzzzzzzhdzddda75558 ddddBddddddjzxlzzzzbByyy0 tyyiBzzzlzzzzzzzllddd9555,;ddddBNdddd",
"ddjllxjllBluyy@ ryBsdzvzzzzzzzzzgddd55855:tdddbcdddddjxzxxzzzzxBkyyt .yyybnzzhgzzzzzzldkdq5592oddddBNddhdd",
"ddlxxlxxxcBuyyy.Xylfdzzzzzzzzzzjddd855555+ddddBfddddfzzzlxzzjzzcNyyy  -yyiBzzcczzzzzjdddt5554 ddddNBdddddd",
"dxxllxxlzzMbyyyy ruMjzzzzzzzzzlddd075555,udddhBdddsdzzzzxlzzcxzzBpyyO  yyyBczzzzzzzhddss5555.edddnBddddddd",
"zzzzzzzzzzxBuyyy=;ubczzzzjxzzxddda855558XddddMxddddlxxzzxlxlljllbbyy2  yyygBlzzzzzgdddc6555,.dddbBdddddddd",
"zzzzzzzzzzznmuyyr uiMzzzzgczzddxl0555551qdddjBddddjlxlzzlxlxxhcxzBiyy. 0yyiBzzzzzfdddn56555 tddkBdddddhldx"
};
