/* XPM */
static char *result[] = {
/* columns rows colors chars-per-pixel */
"32 80 20 1 ",
"  c black",
". c #0D0A17",
"X c #12191B",
"o c #0A112B",
"O c #1B323E",
"+ c #401A22",
"@ c #7F3F38",
"# c #272744",
"$ c #005652",
"% c #394775",
"& c #87102A",
"* c #90352F",
"= c #A24C57",
"- c #65709C",
"; c #7A9CE7",
": c #FAB6A4",
"> c #A3A9C4",
", c #B8C0FD",
"< c #DFE1E9",
"1 c None",
/* pixels */
"11111111111111 11111111111111111",
"1111    11111 * 1111111111111111",
"111 ****   11 +* 1 1111111111111",
"1111 +++***  +++* * 111111111111",
"11111 +++++**++++** 111111111111",
"111111 +++++++++++* 111111111111",
"1111  * ++++++++++* 111111111111",
"11  **+++++++++++++* 11111111111",
"  **+++++++++++++++* 11111111111",
"**++++++++++++++ +++* 1111111111",
"     *+++++++++++ ++* 1111111111",
"111 *++++++++++++ ++* 1111111111",
"11 *++++++++++++ = ++* 111111111",
"1 *+++++++++++++ = ++* 111111111",
" *+++*+++++++++ =: ++* 111111111",
"*+++*++++++++++   = + 1111111111",
"   *++++++++++ <XO  + 1111111111",
"11 *+++*++++++ :X$= + 1111111111",
"11 *+++*+++++ =:::= + 1111111111",
"1 *++++ *++++ =::=:: 11111111111",
"1 *++  1 *++ =:::::: 11111111111",
"1 *  111 *+ =::::::: 11111111111",
"11 11111 * =: ==::: 111111111111",
"111111111 1 ::  === 111111111111",
"11111111111 ::::   1111111111111",
"1111111111  ::: 1111111111111111",
"111111111 $$  : 1111111111111111",
"11111111 $$O$$  1111111111111111",
"1111111 $$OOOO$$ 111111111111111",
"1111111 $$OOOOOO$ 11111111111111",
"1111111 $OOOOXOOO$ 1111111111111",
"1111111 $OOOX XOO$ 1111111111111",
"1111111 $OOOX XOOO$ 111111111111",
"1111111 $OOOX XXOO$ 111111111111",
"1111111 $OOOX XXOOO$ 11111111111",
"1111111 $OOOX XXOOO$ 11111111111",
"1111111 $OOOX XXOOO$ 11111111111",
"1111111 $OOOX XXXOOO$ 1111111111",
"1111111 $OOOX XXXOOO$ 1111111111",
"1111111 $OOOXX XXXOO$ 1111111111",
"1111111 $OOOXX XXXXO$ 1111111111",
"1111111 $OOOXX XXXXXO 1111111111",
"1111111 $OOOXX        1111111111",
"111111 $OOOOXX >><<<< 1111111111",
"111111 $OOOOXX >>>>>< 1111111111",
"111111 $OOOOXX        1111111111",
"111111 $OOOOXX ..o### 1111111111",
"111111 $OOOXXX .oo#### 111111111",
"111111 $OOOXXX .oo#### 111111111",
"11111 $OOOOXXX .oo#### 111111111",
"11111 $OOOOXXX .oo##### 11111111",
"11111 $OOOOXXX .oo##### 11111111",
"11111 $OOOOXXX ..oo#### 11111111",
"11111 $OOOXXXX ..oo##### 1111111",
"11111 OOOXXXXX  ..oo#### 1111111",
"11111 OXXXXXX @@  .o#### 1111111",
"11111  XXXXXX   ;;  ##### 111111",
"1111111      ...  ;; #### 111111",
"1111111 ooo.... ;;   #### 111111",
"1111111 oo..... ;;, .oo#o# 11111",
"11111111  ..... ;;, ..ooo# 11111",
"1111111111   . ;;, ...ooo# 11111",
"111111111 %%%  ;;, .....  111111",
"11111111 %%%%% ;, 1     - 111111",
"11111111 %%%% ;;, 11 %%-- 111111",
"1111111 %%%%  ;, 111 %%-- 111111",
"111111 %%%%  ;, 11111 %-- 111111",
"1111  %%%% 1 , 111111 %-- 111111",
"1   ,&%%% 11  1111111 %-- 111111",
"1 ,,,&%% 1111111111111 %- 111111",
"1 ,,,&% 11111111111111 %- 111111",
"1 ,,,& 111111111111111 %-- 11111",
" ,,,& 1111111111111111 %-- 11111",
" ,,& 11111111111111111 %-- 11111",
" ,& 111111111111111111 %%- 11111",
" , 11111111111111111111 %-& 1111",
" , 11111111111111111111 &&,& 111",
"  111111111111111111111 ,,,,& 11",
"11111111111111111111111 ,,,,,&  ",
"11111111111111111111111 ,,,,,,,,"
};
