/* XPM */
static char *result[] = {
/* columns rows colors chars-per-pixel */
"25 81 20 1 ",
"  c black",
". c #0D0A17",
"X c #12191B",
"o c #0A112B",
"O c #1B323E",
"+ c #401A22",
"@ c #7F3F38",
"# c #272744",
"$ c #005652",
"% c #394775",
"& c #87102A",
"* c #90352F",
"= c #A24C57",
"- c #65709C",
"; c #7A9CE7",
": c #FAB6A4",
"> c #A3A9C4",
", c #B8C0FD",
"< c #DFE1E9",
"1 c None",
/* pixels */
"111111111111111 111111111",
"11111    11111 * 11111111",
"1111 ****   11 +* 1 11111",
"11111 +++***  +++* * 1111",
"111111 +++++**++++** 1111",
"1111111 +++++++++++* 1111",
"11111  * ++++++++++* 1111",
"111  **+++++++++++++* 111",
"1  **+++++++++++++++* 111",
" **++++++++++++++ +++* 11",
"1     *+++++++++++ ++* 11",
"1111 *++++++++++++ ++* 11",
"111 *++++++++++++ = ++* 1",
"11 *+++++++++++++ = ++* 1",
"1 *+++*+++++++++ =: ++* 1",
" *+++*++++++++++   = + 11",
"    *++++++++++ <XO  + 11",
"111 *+++*++++++ :X$= + 11",
"111 *+++*+++++ =:::= + 11",
"11 *++++ *++++ =::=:: 111",
"11 *++  1 *++ =:::::: 111",
"11 *  111 *+ =::::::: 111",
"111 11111 * =: ==::: 1111",
"1111111111 1 ::  === 1111",
"111111111111 ::::   11111",
"111111111111 ::: 11111111",
"11111111111 $  : 11111111",
"1111111111 $$$$  11111111",
"111111111 $$OOO$$ 1111111",
"111111111 $$OOOOO$ 111111",
"111111111 $OOOOXOO$ 11111",
"111111111 $OOOX XO$ 11111",
"111111111 $OOOX XOO$ 1111",
"111111111 $OOOX XXO$ 1111",
"111111111 $OOOX XXOO$ 111",
"111111111 $OOOXX XOO$ 111",
"111111111 $OOOOX XOO$ 111",
"111111111 $OOOOX XXO$ 111",
"111111111 $OOOOX XXOO$ 11",
"111111111 $OOOOX XXXO$ 11",
"111111111 $OOOOX XXXOO 11",
"111111111 $OOOOXX XXXO 11",
"111111111 $OOOOXX      11",
"111111111 $OOOOXX <<<< 11",
"111111111 $OOOOXX >>>< 11",
"111111111 $OOOOXX      11",
"111111111 $OOOOXX o### 11",
"111111111 $OOOXXX o### 11",
"111111111 $OOOXXX o ## 11",
"111111111 $OOOXXX #o  . 1",
"11111111 $OOOOXXX ##o . 1",
"11111111 $OOOOXXX #oo . 1",
"11111111 $OOOOXX ##.o . 1",
"11111111 $OOOOXX #o. .. 1",
"11111111 OOOOXXX #o. .. 1",
"11111111 OOOXXXX  .. ... ",
"11111111 OXXXXX @@   ... ",
"111111111         ;;  .. ",
"111111111 #####o..  ;; . ",
"111111111 #####o. ;;   . ",
"11111111 #####oo. ;;, . 1",
"11111111 ####oo.. ;;, . 1",
"11111111 ###o... ;;, . 11",
"11111111  oo.... ;;, . 11",
"1111111111  .... ;, . 111",
"111111111111    ;;,  1111",
"111111111111 %% ;, 111111",
"11111111111  % ;, 1111111",
"11111111111  % , 11111111",
"1111111111 % %   11111111",
"1111111111 % %-% 11111111",
"111111111 %% %- 111111111",
"111111111 && %- 111111111",
"11111111 ,,, -- 111111111",
"11111111 ,,, -- 111111111",
"11111111 ,,, -- 111111111",
"111111111 , --- 111111111",
"1111111111  --&& 11111111",
"11111111111 &&,,& 1111111",
"11111111111 ,,,,,&  11111",
"11111111111 ,,,,,,,, 1111"
};
