/* XPM */
static char *result[] = {
/* columns rows colors chars-per-pixel */
"45 45 11 1 ",
"  c black",
". c #05090F",
"X c #0C0E17",
"o c #0F1A25",
"O c #1D303B",
"+ c #552F87",
"@ c #9F51F7",
"# c #DC8BF7",
"$ c #F7CEF7",
"% c gray97",
"& c None",
/* pixels */
"&&&&&&&&&&&&&&&&&&&&&&&&&&&&&&&&&&&&&&&&&&&&&",
"&&&&&&&&&&&&&&&&&&&&&&&&&&&&&&&&&&&&&&&&&&&&&",
"&&&&&&&&&&&&&&&&&&&&&&&&&&&&&&&&&&&&&&&&&&&&&",
"&&&&&&&&&&&&&&&&&&&&&&&&&&&&&&&&&&&&&&&&&&&&&",
"&&&&&&&&&&&&&&&&&&&&&&&&&&&&&&&&&&&&&&&&&&&&&",
"&&&&&&&&&&&&&&&&&&&&&&&&&&&&&&&&&&&&&&&&&&&&&",
"&&&&&&&&&&&&&&&&&&&&&&&&&&&&&&&&&&&&&&&&&&&&&",
"&&&&&&&&&&&&&&&&&&&&&&&&&&&&&&&&&&&&&&&&&&&&&",
"&&&&&&&&&&&&&&&&&&&&&&&&&&&&&&&&&&&&&&&&&&&&&",
"&&&&&&&&&&&&&&&&&&&&&&&&&&&.&&&&.&&&&&&&&&&&&",
"&&&&&&&&&&&&&&&&&&&&&&&&&&&ooo&&.o&&&&&&&&&&&",
"&&&&&&&&&&&&&&&&&&&&&&&&&&&&Ooo&oXo&&&&&&&&&&",
"&&&&&&&&&&&&&&&&&&&&&&&&&&&&&Oo&&Xo&&&&&&&&&&",
"&&&&&&&&&&&&&&&&&&&&&&&&&&&&&Oo&oXo&&&&&&&&&&",
"&&&&&&&&&&&&&&&&&&&oooooOOo&&ooOoo&&&&&&&&&&&",
"&&&&&&&&&&&&&&&&oooOoOOOoOOo.ooOOo&&&&&&&&&&&",
"&&&&&&&&&&&&&&&ooOoOooooOoOO.oo@O@&&&&&&&&&&&",
"&&&&&&&&&&&&&ooOOooooOOOoOoo.ooOOo&&&&&&&&&&&",
"&&&&&&&&&&&&OoOoo&&&&OOOoOo.o.oOO&&&&&&&&&&&&",
"&&&&&&&&&&&oooo&&&&&&&oOoo.o.o.&&&&&&&&&&&&&&",
"&&&&&&&&&&%Ooo&&&&&&&oOoOO.oooo &&.o&&&&&&&&&",
"&&&&&&&&@$$OOo&&&&&&&ooOO.o.oo.  . o&&&&&&&&&",
"&&&&&&&@#$@$@&&&&&&&&OOo.&&&o. ..  &&&&&&&&&&",
"&&&&&&@#%@$$&&&&&&&&@@@OO+&&&&&.. &&&&&&&&&&&",
"&&&&&@#$@$&&&&&&&&&&...@+.o&&&&&&&&&&&&&&&&&&",
"&&&&%#$@$&&&&&&&&&&.ooo....oo..&&&&&&&&&&&&&&",
"&&&@#$@$&&&&&&&&&&OOoo.o.oooo ...&&&&&&&&&&&&",
"&&@%$@$&&&&&&&&&&&O.oo.o.oooo   .o&&&&&&&&&&&",
"&@#$@$%&&&&&&&&&&&..o..o&&oo     .&&&&&&&&&&&",
"&#$$$&&&&&&&&&&&o..oOO&&&&&&&.. +@&&&&&&&&&&&",
"&@$$&%&&&&&&&&&ooo.OOo&&&&&&&... +&&&&&&&&&&&",
"&$@&%&&&&&&&&&.@+..oo&&&&&&&&&  &&&&&&&&&&&&&",
"&%&&&&&&&&&&&..+.&&&&&&&&&&&&&.&&&&&&&&&&&&&&",
"&&&&&&&&&&&&oo..&&&&&&&&&&&&&& &&&&&&&&&&&&&&",
"&&&&%&&&&&&oOo&&&&&&&&&&&&&&&&..&&&&&&&&&&&&&",
"&&&&&&&&&&&O.&&&&&&&&&&&&&&&&&&&&&&&&&&&&&&&&",
"&&&&&&&&&&&oo&&&&&&&&&&&&&&&&&&&&&&&&&&&&&&&&",
"&&&&&&&&&&&&&&&&&&&&&&&&&&&&&&&&&&&&&&&&&&&&&",
"&&&&&&&&&&&&&&&&&&&&&&&&&&&&&&&&&&&&&&&&&&&&&",
"&&&&&&&&&&&&&&&&&&&&&&&&&&&&&&&&&&&&&&&&&&&&&",
"&&&&&&&&&&&&&&&&&&&&&&&&&&&&&&&&&&&&&&&&&&&&&",
"&&&&&&&&&&&&&&&&&&&&&&&&&&&&&&&&&&&&&&&&&&&&&",
"&&&&&&&&&&&&&&&&&&&&&&&&&&&&&&&&&&&&&&&&&&&&&",
"&&&&&&&&&&&&&&&&&&&&&&&&&&&&&&&&&&&&&&&&&&&&&",
"&&&&&&&&&&&&&&&&&&&&&&&&&&&&&&&&&&&&&&&&&&&&&"
};
