/* XPM */
static char *result[] = {
/* columns rows colors chars-per-pixel */
"26 80 20 1 ",
"  c black",
". c #0D0A17",
"X c #12191B",
"o c #0A112B",
"O c #1B323E",
"+ c #401A22",
"@ c #7F3F38",
"# c #272744",
"$ c #005652",
"% c #394775",
"& c #87102A",
"* c #90352F",
"= c #A24C57",
"- c #65709C",
"; c #7A9CE7",
": c #FAB6A4",
"> c #A3A9C4",
", c #B8C0FD",
"< c #DFE1E9",
"1 c None",
/* pixels */
"11111111111111 11111111111",
"1111    11111 * 1111111111",
"111 ****   11 +* 1 1111111",
"1111 +++***  +++* * 111111",
"11111 +++++**++++** 111111",
"111111 +++++++++++* 111111",
"1111  * ++++++++++* 111111",
"11  **+++++++++++++* 11111",
"  **+++++++++++++++* 11111",
"**++++++++++++++ +++* 1111",
"     *+++++++++++ ++* 1111",
"111 *++++++++++++ ++* 1111",
"11 *++++++++++++ = ++* 111",
"1 *+++++++++++++ = ++* 111",
" *+++*+++++++++ =: ++* 111",
"*+++*++++++++++   = + 1111",
"   *++++++++++ <XO  + 1111",
"11 *+++*++++++ :X$= + 1111",
"11 *+++*+++++ =:::= + 1111",
"1 *++++ *++++ =::=:: 11111",
"1 *++  1 *++ =:::::: 11111",
"1 *  111 *+ =::::::: 11111",
"11 11111 * =: ==::: 111111",
"111111111 1 ::  === 111111",
"11111111111 ::::   1111111",
"11111111111  :: 1111111111",
"1111111111 $$   1111111111",
"111111111 $$$$$$ 111111111",
"111111111 $$$OOO$ 11111111",
"11111111 $ $OOOOO$ 1111111",
"11111111 $ $OOOO O 1111111",
"11111111 $ $OOOO O$ 111111",
"11111111 O $OOOO XO 111111",
"11111111 O $OOOO XO 111111",
"11111111 O $OOOO XO$ 11111",
"11111111 O $OOOO XO$ 11111",
"11111111 X $OOOO XXO 11111",
"11111111 X $OOOOX XO$ 1111",
"11111111 X $OOOOX XO$ 1111",
"11111111 X $OOOOX XXO 1111",
"11111111 X $OOOOX XXO 1111",
"11111111 X $OOOOX     1111",
"111111111 $OOOOOX <<< 1111",
"111111111 $OOOOOX >>< 1111",
"111111111 $OOOOOX     1111",
"111111111 $OOOOOX ### 1111",
"111111111 OOOOOOX o### 111",
"111111111 OOOOOOX #o o 111",
"111111111 OOOOOOX #o o# 11",
"11111111 XOOOOOOX o. .o 11",
"11111111 XOOOOOOX o. .o 11",
"11111111 XOOOOOXX o ..o# 1",
"11111111 XOOOOOXX . ..o# 1",
"11111111 XXOOOXXX . ...o 1",
"11111111 XXXXXXXX  ....o 1",
"11111111  XXXXXX @@  ..o# ",
"1111111 ##   XXX   ;;  .o ",
"1111111 #####   . .  ;; o ",
"1111111 #####o...  ;;   o ",
"111111 ######o.. . ;;, .o ",
"111111 #####oo.. . ;;,   1",
"111111 ###ooo...  ;;, %% 1",
"111111 #ooo.....  ;;, % 11",
"1111111  .....  1 ;, % 111",
"111111111     11 ;;, % 111",
"111111111 %%% 11 ;, % 1111",
"11111111 -%% 11 ;, %% 1111",
"11111111 --% 11 , %% 11111",
"11111111 --% 11  %%% 11111",
"11111111 --% 111 %% 111111",
"11111111 -- 1111 %% 111111",
"11111111 -% 111 %%% 111111",
"11111111 -% 111 %%&& 11111",
"11111111 -% 111 &&,& 11111",
"1111111 --% 11 ,,,,,& 1111",
"1111111 --% 11 ,,,,,,&  11",
"1111111 --&& 11    ,,,,, 1",
"1111111 &&,,& 11111      1",
"1111111 ,,,,,&  1111111111",
"1111111 ,,,,,,,, 111111111"
};
