/* XPM */
static char *result[] = {
/* columns rows colors chars-per-pixel */
"35 79 20 1 ",
"  c black",
". c #0D0A17",
"X c #12191B",
"o c #0A112B",
"O c #1B323E",
"+ c #401A22",
"@ c #7F3F38",
"# c #272744",
"$ c #005652",
"% c #394775",
"& c #87102A",
"* c #90352F",
"= c #A24C57",
"- c #65709C",
"; c #7A9CE7",
": c #FAB6A4",
"> c #A3A9C4",
", c #B8C0FD",
"< c #DFE1E9",
"1 c None",
/* pixels */
"111111111111111 1111111111111111111",
"11111    11111 * 111111111111111111",
"1111 ****   11 +* 1 111111111111111",
"11111 +++***  +++* * 11111111111111",
"111111 +++++**++++** 11111111111111",
"1111111 +++++++++++* 11111111111111",
"11111  * ++++++++++* 11111111111111",
"111  **+++++++++++++* 1111111111111",
"1  **+++++++++++++++* 1111111111111",
" **++++++++++++++ +++* 111111111111",
"1     *+++++++++++ ++* 111111111111",
"1111 *++++++++++++ ++* 111111111111",
"111 *++++++++++++ = ++* 11111111111",
"11 *+++++++++++++ = ++* 11111111111",
"1 *+++*+++++++++ =: ++* 11111111111",
" *+++*++++++++++   = + 111111111111",
"    *++++++++++ <XO  + 111111111111",
"111 *+++*++++++ :X$= + 111111111111",
"111 *+++*+++++ =:::= + 111111111111",
"11 *++++ *++++ =::=:: 1111111111111",
"11 *++  1 *++ =:::::: 1111111111111",
"11 *  111 *+ =::::::: 1111111111111",
"111 11111 * =: ==::: 11111111111111",
"1111111111 1 ::  === 11111111111111",
"111111111111 ::::   111111111111111",
"111111111111  :: 111111111111111111",
"11111111111 $$   111111111111111111",
"1111111111 $OO$$$ 11111111111111111",
"1111111111 $OOOOO$ 1111111111111111",
"111111111 $ $OO$$O$ 111111111111111",
"111111111 $ $OO$ O$ 111111111111111",
"111111111 O $OO$ OO$ 11111111111111",
"111111111 O $OO$ OO$ 11111111111111",
"111111111 O $OO$ XO$ 11111111111111",
"111111111 X $OO$ XOO$ 1111111111111",
"111111111 X $OO$ XOO$ 1111111111111",
"111111111 X $OOO XXO$ 1111111111111",
"111111111 X $OOO XXOO$ 111111111111",
"1111111111 OOOOOX XOO$ 111111111111",
"1111111111 OOOOOX XXOO 111111111111",
"1111111111 OOOOOX XXXO 111111111111",
"1111111111 OOOOOX      111111111111",
"1111111111 XOOOOX ><<< 111111111111",
"1111111111 XOOOOOO >>< 111111111111",
"1111111111 XOOOOOO     111111111111",
"1111111111 XOOOOOO #### 11111111111",
"1111111111 XOOOOOO #### 11111111111",
"1111111111 XOOOOOO #o#o# 1111111111",
"1111111111 XOOOOOO #o o# 1111111111",
"1111111111 XOOOOOO o. oo# 111111111",
"111111111 XXOOOOOO . .oo# 111111111",
"111111111 XXXOOOOO . ..oo# 11111111",
"111111111 XXXOOOOOO ...oo# 11111111",
"11111111 # XXOOOOOO ....oo# 1111111",
"11111111 # XXXOOOOO   ..oo# 1111111",
"1111111 ## XXXXOOOO @@  .oo# 111111",
"1111111 ###  XXXXXX   ;;  o# 111111",
"111111 #####o      ...  ;; o 111111",
"111111 ###oo... 111 . ;;   o# 11111",
"111111 #oo..... 111 . ;;, .oo 11111",
"111111 o...... 11111  ;;, .oo 11111",
"1111111 ...... 11111 ;;, ... 111111",
"11111111   .. 111111 ;;,     111111",
"1111111 ---  1111111 ;, %%%% 111111",
"111111 ---% 1111111 ;;, %%%% 111111",
"111111 --% 11111111 ;, 1 %%% 111111",
"111111 --% 1111111 ;, 11 %%% 111111",
"111111 -% 11111111 , 111 %%% 111111",
"111111 -% 11111111  1111 %%% 111111",
"11111 --% 111111111111111 %%% 11111",
"11111 -% 1111111111111111 %%% 11111",
"11111 -% 1111111111111111 %%% 11111",
"1111 --% 1111111111111111 %&& 11111",
"1111 &-% 1111111111111111 &,,& 1111",
"1111 ,&&& 111111111111111 ,,,,& 111",
"1111 ,,,& 111111111111111 ,,,,,&  1",
"1111 ,,,,& 111111111111111   ,,,,, ",
"11111  ,,,& 11111111111111111      ",
"1111111 ,,,, 1111111111111111111111"
};
