/* XPM */
static char *result[] = {
/* columns rows colors chars-per-pixel */
"45 45 10 1 ",
"  c black",
". c #05090F",
"X c #0C0E17",
"o c #0F1A25",
"O c #1D303B",
"+ c #552F87",
"@ c #9F51F7",
"# c #DC8BF7",
"$ c #F7CEF7",
"% c None",
/* pixels */
"%%%%%%%%%%%%%%%%%%%%%%%%%%%%%%%%%%%%%%%%%%%%%",
"%%%%%%%%%%%%%%%%%%%%%%%%%%%%%%%%%%%%%%%%%%%%%",
"%%%%%%%%%%%%%%%%%%%%%%%%%%%%%%%%%%%%%%%%%%%%%",
"%%%%%%%%%%%%%%%%%%%%%%%%%%%%%%%%%%%%%%%%%%%%%",
"%%%%%%%%%%%%%%%%%%%%%%%%%%%%%%%%%%%%%%%%%%%%%",
"%%%%%%%%%%%%%%%%%%%%%%%%%%%%%%%%%%%%%%%%%%%%%",
"%%%%%%%%%%%%%%%%%%%%%%%%%%%%%%%%%%%%%%%%%%%%%",
"%%%%%%%%%%%%%%%%%%%%%%%%%%%%%%%%%%%%%%%%%%%%%",
"%%%%%%%%%%%%%%%%%%%%%%%%%%%%%%%%%%%%%%%%%%%%%",
"%%%%%%%%%%%%%%%%%%%%%%%%%%%.%%%%.%%%%%%%%%%%%",
"%%%%%%%%%%%%%%%%%%%%%%%%%%%ooo%%.o%%%%%%%%%%%",
"%%%%%%%%%%%%%%%%%%%%%%%%%%%%Ooo%%Xo%%%%%%%%%%",
"%%%%%%%%%%%%%%%%%%%%%%%%%%%%%Oo%%Xo%%%%%%%%%%",
"%%%%%%%%%%%%%%%%%%%%%%%%%%%%%Oo%oXo%%%%%%%%%%",
"%%%%%%%%%%%%%%%%%%%oooooOOo%%ooOoo%%%%%%%%%%%",
"%%%%%%%%%%%%%%%%oooOoOOOoOOo.ooOOo%%%%%%%%%%%",
"%%%%%%%%%%%%%%oooOoOooooOoOO.oo@O@%%%%%%%%%%%",
"%%%%%%%%%%%%%ooOOooooOOOoOoo.ooOOo%%%%%%%%%%%",
"%%%%%%%%%%%%OoOoo%%%%OOOoOo.o.oOO%%%%%%%%%%%%",
"%%%%%%%%%%%oooo%%%%%%%oOoo.o...%%%%%%%%%%%%%%",
"%%%%%%%%%%@Ooo%%%%%%%OOoOO.oooo%%%%%%%%%%%%%%",
"%%%%%%%%@$$OOo%%%%%%%ooOo.o.ooo%%%%%%%%%%%%%%",
"%%%%%%%@#$@$@%%%%%%%%OOo.%%%ooo %%.o%%%%%%%%%",
"%%%%%%@#$@$$%%%%%%%%@@@OO+%%%o.  . o%%%%%%%%%",
"%%%%%@#$@$%%%%%%%%%%...@+.#%%  ..  %%%%%%%%%%",
"%%%%@#$@$%%%%%%%%%%Oooo...#ooo%   %%%%%%%%%%%",
"%%%@#$@$%%%%%%%%%%OOoo.o.o#oo ...#$%%%%%%%%%%",
"%%@#$@$%%%%%%%%%%##.oo.o.#$oo   #o#$%%%%%%%%%",
"%@#$@$%%%%%%%%%%%%#.o..o%#$o     .%#%%%%%%%%%",
"%#$$$%%%%%%%%%%%o..#OO%%%%### . +@%#%%%%%%%%%",
"%@$$%%%%%%%%$#%ooo.O#o%%%%%%%... +#$%%%%%%%%%",
"%$@%%%%%%%%$##.@+..oo#%%%%%%%#  %#$%%%%%%%%%%",
"%%%%%%%%%%%$#..+%%%%%#%%%%%%#%.%#$%%%%%%%%%%%",
"%%%%%%%%%%%%$o.%%%#%%$%%%%%%%# %%%%%%%%%%%%%%",
"%%%%%%%%%%%o#o%%%%%##$%%%%%%%%..%%%%%%%%%%%%%",
"%%%%%%%%%%%O.#%%%%%%$$%%%%%%%%%%%%%%%%%%%%%%%",
"%%%%%%%%%%%oo#%%%%%%%%%%%%%%%%%%%%%%%%%%%%%%%",
"%%%%%%%%%%%%%%%%%%%%%%%%%%%%%%%%%%%%%%%%%%%%%",
"%%%%%%%%%%%%%%%%%%%%%%%%%%%%%%%%%%%%%%%%%%%%%",
"%%%%%%%%%%%%%%%%%%%%%%%%%%%%%%%%%%%%%%%%%%%%%",
"%%%%%%%%%%%%%%%%%%%%%%%%%%%%%%%%%%%%%%%%%%%%%",
"%%%%%%%%%%%%%%%%%%%%%%%%%%%%%%%%%%%%%%%%%%%%%",
"%%%%%%%%%%%%%%%%%%%%%%%%%%%%%%%%%%%%%%%%%%%%%",
"%%%%%%%%%%%%%%%%%%%%%%%%%%%%%%%%%%%%%%%%%%%%%",
"%%%%%%%%%%%%%%%%%%%%%%%%%%%%%%%%%%%%%%%%%%%%%"
};
