/* XPM */
static char *result[] = {
/* columns rows colors chars-per-pixel */
"128 128 40 1 ",
"  c #0F0000",
". c #130100",
"X c #1B0C02",
"o c #1D1007",
"O c #1E1108",
"+ c #200F03",
"@ c #201207",
"# c #291507",
"$ c #23140A",
"% c #29170B",
"& c #27190F",
"* c #2D190C",
"= c #341D0D",
"- c #391F0E",
"; c #2B1C11",
": c #321F12",
"> c #3A200F",
", c #342114",
"< c #3B2110",
"1 c #312118",
"2 c #422614",
"3 c #462916",
"4 c #482A17",
"5 c #442C1C",
"6 c #4E2F1C",
"7 c #502F1C",
"8 c #4F301D",
"9 c #50301D",
"0 c #563420",
"q c #5A3622",
"w c #5D3925",
"e c #5E3B29",
"r c #623C26",
"t c #653E29",
"y c #683F29",
"u c #66412C",
"i c #6C432D",
"p c #674430",
"a c #6A4430",
"s c None",
/* pixels */
"iiiiiiiiiiiaiiiiiiiiiiiiiit9999999899898998997987793---<<<<<<<<<<<<<<<<<<<<<<<<<<<<<<<<<<<<<<<<<<<<<<<<<<<<<<<<<<<<<<<<<-<<<<<<<",
"iiiiiiiiiiiiiiiiiiiiiiiiiii9799999999999999989997872--<<<<<<<<<<<<<<<<<<<<<<<<<<<<<<<<<<<<<<<<<<<<<<<<<<<<<<<<<<<<<<<<<<<<<<<<<<",
"tiiiiiiiiiiiaiiiiiiiiiiiiii969999888999889988988783-<<<<<<<<<<<<<<<<<<<<<<<<<<<<<<<<<-<<<<<<<<<<<<<<<<<<<<<<<<<<<<<<<<<<<<<<<<<<",
"tiiiiiiiiiiiiiaiiiiiiiiiiiiq6799998898999999888687--<<<<<<<<<<<<<<<<<<<<<<<<<<<<<<<<<<<<<<<<<<<<<<<<<<<<<<<<<<<<<<<<<<<<<<<<<<<<",
"tiiiiiiiiiiiaiiiiiiiiiiiiiiy99996066989999997987942-<<<<<<<<<<<<<<<<<<<<<<<<<<<<<<<<<<<<<<<<<<<<<<<<<<<<<<<<<<<<<<<<<<<<<<<<<<<<",
"qiiiiiaiiiiiiiiiiiiiiiiiiiii9999wt0669989889897792-<<<<<<<<<<<<<<<<<<<<<<<<<<<<<<<<<<<<<<<<<<<<<<<<<<<<<<<<<<<<<<<<<<<<<<<<<<<<<",
"siiiiiiiiiiiiiiiiiiiyrriiiii966yiit960799789997792-<<<<<<<<<<<<<<<<<<<<<<<<<<<<<<<<<<<<<<<<<<<<<<<<<<<<<<<<<<<<<<<<<<<<<<<<<<<<<",
"siiiiiiiiiiiiiiiiiiy997qiiii966riii066999999997792-<<<<<<<-<33<-<<<<<<<<<<<<<<<<<<<<<<<<<<<<<<<<<<<<<<<<<<<<<<<<<<<<<<<<<<<<<<<<",
"swiiiiiiiiiiiiiiii998877tiiiw979iiw969899999997794--<<<<<-396663-<<<<<<<<<<<<<<<<<<<<<<<<<<<<<<<<<<<<<<<<<<<<<<<<<--<<<<<<<<<<<<",
"ssiiiiiiiiiiiiiiii999877wiiiy7999976999999699997993-<<<<-39966952-<<<<<<<<<<<<<<<<<<<<<<<<<<<<<<<<<<<<<<<<><-:=$$$%:-<-<<<<<<<<<",
"ssuiiiiiiiiiiiiiii999999yiiii9799889997999898999793-<<<<-39906662-<<<<<<<<<<<<<<<<<<<><-**><><<<<<<<<<<<<<<<:%$$$$$@%=<<<<<<<<<<",
"sswiiiiiiiiiaiiiii977899yiiii97899979998989979997942-<<<-39676762-<<<<<<<<<<<><<<<<<><<=@$=<><<<<<<<<<<<-<<=$$$$$$$$$$:--<<<<<<<",
"sssiiiiiiiiiiiiiiii9999iiiiiiy779989898999899999796--<<<-3776776<-<<<<<<<<<<<<<<<<<<-<<=@%:<><<<<<<<<<<<><<*@$$$$$$$$$%--<<<<<<<",
"sssuiiiiiiiiiiiiiiiiiiiiiiiiii8799999999979999997772-<<<--376763-<<<<<<<<<<<<<<<<<<<<-<><-<-<<<<<<<<<<<><<:@$$$$$$$$$O$:<<<<<<<<",
"ssseyiiiiiiiiiiiiiiiiiiiiiiiii9899997999999899997782-<<<<<-233--<<<<<<<<<<<<<<<<<<<<<<<<<<<<<<<<<<<<<<<-<<=@%$$$$$$$$$@=<-<<<<<<",
"sssqiiiiaiiiiiiiiiiiiiiiiiiiii9869989996796999998793-<<<<<2--<<<<<<<<<<<<<<<<<<<<<<<<<<<<<<<<<<<<<<<<<<-<-*@$$$$$$$$%@$*<<<<<<<<",
"ssssiiiiiiiiiiiiiiiiiiiiiiiiiii96997969tiir999999893><<<<<<<<<<<<<<<<<<<<<<<<<<<<<<<<<<<<<<<<<<<<<<<<<<<--=$$$$$$$$$$$$*--<<<<<<",
"ssssiiiiiiiiiiiiiiiiiiiiiiiiiii9779999tiiiir99999994<><<<<<<<<<<<<<<<<<<<<<<<<<<<<<<<<<<<<<<<><<<<<<<<<---:$$$$$$$$$$$$:--<-<<<<",
"ssssiiiiiiiiiiiiiiiiiiiiiiiiiii977996qiiyiii99999894<><<<<<<<<<<<<<<<<<<<<<><<<<<<<<<<<<<<<<<<<<<<<<<<<<<<-&$$$$$$&$$$*-----<<<<",
"ssssiiiiiiiiiiiiiiiiiiiiiiiiiii950896wiiiiii96699693<><<<<<<<<<<<<<<<<<<<<<<<<<<<<<<<<<<<<<<<<<<<<<<<<<<-<-:$$$$$$$$$$---2-2<<<<",
"sssiiiiiiiiiiiiiiiiiiiiiiiiiiiiw660870yiiiii99989694<><<<<<<<<><<<<<<<<<<<<<<<<<<<<<<<<<<<<<<<<<<<<<<<<<<<<--$$$$$$@$:2-<<<<<<<<",
"sssyiiiiiiaiiiiiiiiiiiiiiiiiiiir966676wiiii979999694<><<<<<<<<<<<<<<<<<<<<<<<<<<<<<<<<<<<<<<<<<<<<<<<<<<<<<<<-*%$$$:---<<<<<<<<<",
"ssstiiiiiiiiiiiiiiiiiiiiiiryiiiy96979960qw9779978602><<<<<<<<<<<<<<<<<<<<<<<<<<<><<<<<<<<<<<<<<<<<<<<<<<<<<<<-<-:-<<-<<<<<<<<<<<",
"sssuiiiiiaiiiiiiiiiiiiiii766yiii06899999799999998602><<<<<<<<<<<<<<<<<<<<<<<<<<<<<<<<<<<<<<<<<<<<<<<<<<<<<<<<<<<,<<<<<<<<<<<<<<<",
"sssiiiiiiiiiiiiiiiiiiiiir776riii97999998899989798692><<<<<<<<<<<<<<<<<<<<<<<<<<<<<<<<<<<<<<<<<<<<<<<<<<<<<<<<<<<<<<<<<<<<<<<<<<<",
"sssiiiiiiiiiiiiiiiiiiiiii967uiiiq7998999979899986862-<<<<<<<<<<<<<<<<<<<<<<><<<<<<<<<<<<<<<<<<<<<<<<<<<<<<<<<<<<<<<<<<<<<<<<<<<<",
"sssiiiiiiiiiiiiiiiiiiiiiiiiiiiiiw7699969999999996862><<<<<<<<<<<<<<<<<<<<<<<<<<<<<<<<<<<<<<<<<<<<<<<<<<<<<<<<<<<<<<<<<<<<<<<<<<<",
"sssiiiiiiiiiiiiiiiiiiiiiiiiiiiiiw969999989989799806<><<<<<<<<<<<<<<<<<<<<<<<<<<<<<<<<<<<<<<<<<<<<<<<<<<<<<<<<<<<<<<<<<<<<<<<<<<<",
"sssiiiiiiiiiiiiiiiiiiiiiiiiiiiiiq7799607999899986ri4=<<<<<<<<<<<<<<<<<<<<<<<<<<<<<<<<<<<<<<<<<<<<<<<<<<<<<<<<<<<<<<<<<<<<<<<<<<<",
"sssiiiiiiiiiiiiiiiiiiiiiiiiiiiiiq6899669799999796q9<><<<<<<<<<<<<<<<<<<<<<<<<<<<<<<<<<<<<<<<<<<<<<<<<<<<<<<<<<<<<<<<<<<<<<<<<<<<",
"sssiiiiiiiiiiiiiii9riiiiiiiiiiii059999999999999674<><<<<<<<<<<<<<<<<<<<<<<<<<<<<<<<<<<<<<><<<<<<<<<<<<<<<<<<<<<<<<<<<<<<<<<<<<<-",
"sssiiiiiiiiiiiiiir99iiiiiiiiiiir068999899996996772><<<<<<<<<<<<<<<<<<<<<<<<<<<<<<<<<<<<<<<<<<<<<<<<<<<<<<<<<<<<<<<<<<<<<<<<<<<<<",
"sssiiiiiiiiiaiiiiiwriiiiiiiiiii999998998979999694<><<<<<<<<<<<<<<<<<<<<<<<<<<<<<<<<<<<<<<<<<<<<<<<<<<<<<<<<<<<<<<--2<<<<<<<<<<<<",
"sssiiiiiiiiiiiiiiiiiiiiiiiiiiiw79999979999996694<><<<<<<<<<<<<<<<<<<<<<<<<<<<<<<<<<<<<<<<<<<<<<<<<<<<<<<--<<<<<--2--<<<<<<<<<<<<",
"sssiiiiiiiiiiiiiiiiiiiiiiiiiii96999999999996862>><<<<<<<<<<<<<<><<<<<<<<<<<<<<<<<<<<<<<<<<<<<<<<<<<<----:*::-----2-2<<--<<<<<<<<",
"ssstiiiiiiiiiiiiiiiiiiiiiiiiiw9699998998896962>><<<<<<<<<<<<<<<<<<<<<<<<<<<<<<<<<<<<<<<<<<<<<<<<<<-<<=*%$$$O$*-2----<<<2<<<<<<<<",
"ssseiiiiiiiiiiiiiiiiiiiiiiiir9699989997999992>>><<<<<<<<<<<<<<<<<<<<<<<<<<<<<<<<<<<<<<<<<<<<<<<<----=$$$$&O$$$&:----2---<<<<<<<<",
"ssssiiiiiiiiiiiiiiiiiiiiiiii99799799699998992><><<<<<<<<<<<<<<<<<<<<<<<<<<<<<<<<<<<<<<<<<<<<<<<<--2:$$$$$$$$$OOO:2-2---2<<<<<<<<",
"ssssiyiiiiiaiiiiiiiiiiiiiii99999998799998894<><<<<<><<<<<<<<<<<<<<<<<<<<<><<<<<<<<<<<<<<<<<<<<<<<2-$$$$$$$$$$&&O$---2-2-<<<<<<<<",
"sssseiiiiiiiiiiiiiiiiiiiiiw99999999999989693<><<<<<<<<<<<<<<<<<<<<<<<<<<22><<<<<<<<<<<<<<<<<<<<---;O$%$$$$$$$O$$$=------<<<<<<<<",
"sssssyiiiiaiiiiiiiiiiiiiir969996999999999692->>><<<<<<<<<<<<<<<<<<<<<><6963-<<<<<<<<<<<<<<<<<<<<<-%$$$$$$$$$$&OO$%2-<<<<<<<<<<<<",
"sssssuiiiiiiiiiiiiiiaiiit08999999796riiiiq62-><<<<<<<<<<<<<<<<<<<<<<<-39794-<<<<<<<<<<<<<<<<<<<-<-$$$$$$$$$$$$$$$$-<<<<<<<<<<<<<",
"sssssstiiiiiiiiiiiiiiiiiq6698999999yiiiiiiq<><<<<<<<<<<<<<<<<<<<<<<<<>26774-<<<<<<<<<<<<<<<<<<<<-:$$$$$$$$$$$$$$$$---<<<<<<<<<<<",
"sssssstiiiiiiiaiiiiiiiit9697999876qiiiiiiii6-<<<<<<<<<<<<<<<<<<<<<<<<<><43>-<<<<<<<<<<<<<<<<<<<-<-$$$$$$$$$$$O&$$$<-<<<-<<<<<<<<",
"sssssssyiiiiiiiiiiiiiii98999897996yiiiiiiii9<>>><<<<<<<<<<<<<<<<<<<<<><<<<<<<<<<<<<<<<<<<<<<<<<-<-%$$$$$$$$$&O$$$$--<<<<<<<<<<<<",
"sssssssuiiiiiiiiiiiiiir66999999999tiiiiiiiiw2><><<<<<<<<<<<><<<<<<<<<<<<<<<<<<<<<<<<<<<<<<<<<<<<2-*$$$$$$$$$$$$$$*<-<<<<<<<<<<<<",
"ssssssssaiiiiiiiiiiiii066999999977uiiiiiiiiq2><<<<<<<<<<<<<<<<<<<<<<<<<<<<<<<<<<<<<<><<<<<<<<<<--<-$$$$$$&O$$$&O&---<<<<<<<<<<<<",
"ssssssssiiiiiiiiiiiiii069989897877wiiiiiiii6-<<<<<<<<<<<<<<<<<<<<<<<<<<<<<<<<<<<<<<<<<<<<<<<<<<<---=$$$$$$$$$$O$=--2<<<<<<<<<<<<",
"ssssssssutiiiiiiiiiiii9699999999779iiiiiiir2>><<<<<<<>2><<<<<<<<<<<<<<<<<<<<<<<<<<<<<<<<<<<<<<<<<-2-*$$$$$$$$$$:---2<<<<<<<<<<<<",
"ssssssssiyiiiiiaiiiiii97999699997799uiiiiu2>>><><<<<<<>><<<<<<<<<<<<<<<<<<<<<<<<<<<<<<<<<<<<<<<<<--<-:%$$$$$$$:<----<<<<<<<<<<<<",
"ssssssssyiiaiiiiiiiiii09699999989997999r98<>>>>><<<<<<<<<<<<<<<<<<<<<<<<<><<<<<<<<<<<<<<<<<<<<<<<<<<---:****=--<<<<<<<<<<<<<<<<<",
"sssssssuiiiiiiiiiiiiiit9699989798999999996>>>>>><<<<<<<<<<<><<<<<<<<<<<<<<<<<<<<<<<<<<<<<<<<<<<<<<--2-<<--<<--<<<<<<<<-<<<<<<<<<",
"sssssseiiiiiiiiiiiiiiii9969998999999999993>><<><<<<<><<<2>>>>2442>><<<<<<<<<<<<<<<<<<<<<<<<<<<<<<<<<<<<<<<<<<<<<<<<<<<<<<<<<<<<<",
"ssssssriiiiiiiiiiiiiiiii989999987999999994>><<<<<<<<<<<<>>><699683>><<<<<<<<<<<<<<<<<<<<<<<<<<<<<<<<<<<<<<<<<<<<<<<<<<<<<<<<<<<<",
"ssssstyiiiiiiiiiiywriiiiq96999997799999994>><<<<<<<<<<<<>>>3978886<><<<<<<<<<<<<<<<<<<<<<<<<<<<<<<<<<<<<<<<<<<-<<<<<<<<<<<<<<<<<",
"ssssstiiiiiiiiiiw9779iiii96998989899999994><<<<<<<<<<<<<>>>49698693><<<<<<<<<<<<<<<<<<<<<<<<<<<<<<<<<<<<<<<<<<<<<<<<<<<<<<<<<<<<",
"sssseiiiiiiiiiii97996riiiq9699989999888792>><<<<<<<<<><<<><89998992><<<<<<<<<<<<<<<<<<<<<<<<<<<<<<<<<<<<<<<<<<<<<<<<<<<<<<<<<<<<",
"sssstyiiiiiiiiii99998qiiiy9899rii999887782>><<<<<<<<<<<<<<>3988896<><<<<<<<<<<<<<<<<<-<<<<<<<<<<<<<<<<<<<<<<<<<<<<<<<<<<<<<<<<<<",
"ssssiiiiiiiiiiii97996riiiiw969iiii99887762>><<<<<<<<<<<<>>>>499962><<<<<<<<<<<<<<<<<<<<<<<<<<<<<<<<<<<<<<<<<<<<<<<<<<<<<<<<<<<<<",
"ssseiiaiiiiiiiiir966qiiiiii96qiiiir9787762>><<<<<<<<<<<<>>>>>233<><<<<<<<<<<<<<<<<<<<<<<<<<<<<<<<<<<<<<<<<<<<<<<<<<<<<<<<<<<<<<<",
"sssriiiiiiiiiiiiiittiiiiiii99qiiii9999776>>>>><<<<<<<<<<<<<<<<<<<<<<<<<<<<<<<<<<<<<<<<<<<<<<<<<<<<<<<<<<<<<<<<<<<<<<<<<<<<<<<<<<",
"ssstiiiiaiiiiiiiiiiiiiiiiiir97qti999997762>>>><<<<<<<<<<<<<<<<<<<<<<<<<<<<<<<><<<<<<<<<<<<<<<<<<<<<<<<<<<<<<<<<<<<<<<<<<<<<<<<<<",
"sssuyiiiiiiiiiiiiiiiiiiiiiii99999999997742>><<<<<<<<<<<<<<<<<<<<<<<<<<<<<<<<<<<<<<<<<<<<<<<<<<<<<<<<<<<<<<<<<<<<<<<<<<<<<<<<<<<<",
"sssiiiiiiiiiiiiiiiiiiiiiiiiiq999999999774>>><<<<<<<<<<<<<<><<<<<<<<<<<<<<<<<<<<<<<<<<<<<<<<<<<<<<<<<<<<<<<<<<<<<<<<<<<<<<<<<<<<<",
"sssiiiiiiiiiiiiiiiiiiiiiiiiir969996999696<<<<<<<<<<<<<<<<<<<<<<<<<<<<<<<<<<<<<<<><<<<<<<<<<<<<<<<<<<<<<<<<<<<<<<<<<<<<<<<<<<<<<<",
"sssiiiiiiaiiiiiiiiiiiiiiiiiir969999999694<-<<<<<<<<<<<<<<<<<<<<<<<<<><<<<<<<<<<<<<<<<<<<<<<<<<<<<<<<<<<<<><<<<<<<<<<<<<<<<<<<<<<",
"sssiiiiiiiiiiiiiiiiiiiiiiiiit969989999794<-<<<<<<<<<<<<<<<<<<<<<<<<<<<<<<<<<<<<<<<<<<<<<<<<<<<<<<<<>>>,*=>>><<<<<<<<<<<<<<<<<<<<",
"sssiiiiiiiiiiiiiiiiiiiiiiiiii969998997794<<<<<<<<<<<<<<<<<<<<<<<<<<<<<<<<<<<<<<<<<<<<<<<<<<<<<<<><><>=$$$%>>><<<<<<<<<<<<<<<<<<<",
"sssuiiiiiiiaiiiiiii9yiiiiiiii969989999694<<<<<<<<<<<<><46442-<<<<<<<<<<<<<<<<<<<<<<<<<<<<<<<<<<<<<>>>$$$$$*>><<<<<<<<<<<<<<<<<<<",
"ssswiiiiiiiiiiiii99999iiiiiii969799997794<<<<<<<<<<<-39966673<><<<<<<<<<<<<<<<<<<<<<<<<<<<<<<<<<<><>,o$$O$%>><<<<<<<<<<<<<<<<<<<",
"ssswiiaiiiiiiiiiy99999riiiiii968898999794<<<<<<<<<<-3996976793>><<<<<<<<<<<<<<<<<<<<<<<<<<<<<<<<<<>>>$$$$$%<><<<><<<<<<<<<<<<<<<",
"ssssiiiiiiiiiiiir999999iiiii9969999799773<-<<<<<<<<<4969999696<-<<<<<<<<<<<<<<<<<<<<<<<<<<<<<<<<<<>>>*O$$$><><<<<<<<<<<<<<<<><<<",
"ssssiiiiiiiiiiiiy76999iiiiii9799998998693<-<<<<<<<><89899896862-<<<<<<<<<<<<<><<<<<<<<<<<<<<<<<<<<<><>>*=><><<<<<<<<<<<<<<>><<<<",
"sssseiiiiiiiiiiii97769iiiiir9789989799603<-<<<<<<<-269699996793-<<<<<<<<<<<<<<<<<<<<<<<<<<<<<<<<<<<<<<>>><<<<<<<<<<<<:*;%,>><<<<",
"sssseiiiiiiiiiiiiiiytiiiiii96999798996672-<<<<<<<<>269698997992-<<<<<<<<<<<<<<<<<<<<<<<<<<<<<<<<<<<<<<<<<<<<<<<<<<<<=@$$$$%><><<",
"ssssstiiiiiiiiiiiiiiiiiiiiw9799999997666<><<<<<<<<><49699996942-<><<<<<<<<<<<<<<<<<<<<<<<<<<<<<<<<<<<<<<<<<<<<<<<<<=$@$$$$$*<><<",
"sssssuiiiiiiiiiiiiiiiiiiii96978999999794<><<<<<<<<<>3696796773<<<<<<<<<<<<<<<<<<<<<<<<<<<<<<<<<<<<<<<<<<<<<<<<<<<<-%O$$O$$O$>><<",
"ssssstuiiiiiiiiiiiiiiiiiiq9789999999669<><<<<<<<<<<<>28966693-<<<<<<<<<<<<<<<<<<<<<<<<<<<<<<<<<<<<<<<<<<<<<<<<<<<<>$$$$&$$$$>><<",
"ssssssiiiiiiiiiiiiiiiiiit96999998999994<><<<<<<<<<<<<><44632-<<<<<<<<<<<<<<<<<<<<<<<<<<<<<<<<<<<<<<<<<<<<<<<<<<<<<>$&$$$$$$$=<<<",
"ssssssriiiiiiiiiiiiiiiiiq7689989979779<<<<<<<<<<<<<<<<<<<<<<<<<<<<<<<<<<<<<<<<<<<<<<><<<<<<<<<<<<<<<><<<<<<<<<<<<<>$O$$$$$$O>><<",
"ssssssuiiiiiiiiiiiiiiiii97999897999674<-<<<<<<<<<<<<<<<<<<<<<<<<<<<<<<<<<<<<<<<<<<<<<<<<<<<<<<<<<<<<<<<<<<<<<<<<<<>=@$$$$$$*<<<<",
"sssssstuiiiiiiiiiiiiiiir96999999896662-<<<<<<<<<<<<<<<<<<<<<<<<<<<<<<<<<<<<<<<<<<<<<<<<<<<<<<<<<<<<<<<<<<<<<<<<<<<<>=$$$$@$<<<<<",
"sssssswtiiiiaiiiiiiiiii96999979988793--<<<<<<<<<-<<<<<<<<<<<<<<<<<<<<<<<<<<<<<<<<<<<<<<<<<<<><<<<<<<<<<<<<<<><<<<<<<<=*%*:<-<<<<",
"sssssssiiiiiiiiiiiiiiiy9699989999604<><<<<<<<><-==<<-<<<<<<<<<<<<<<<<<<<<<><<<<<<<<<<<<<<<<<<<<<<<<<<<<<<<<<<<<<<<<<<<><<<<<<<<<",
"sssssssyiiiiiiiiiiiiii96699989996672-<<<<<<<>>>=$*=<-<<<<<<<<<<<<<<<<<<<<<<<<<<<<<<<<<<<<<<<<<<<<<<<<<<<<<<<<<<<<<<<<<<<<<<<<<<<",
"sssssssiiiiiiiiiiiiiii9799999799993<-<<<<<<<>>>*%%--<<<<<<<<<<<<<<<<<<<<<<<<<<<<<<<<<<<<<<<<<<<<<<><<<<<<<<<<<<<<<<<<<<<<<<<<<<<",
"sssssseyiiiiiiiiiiiiir979998999696<-<<<<<<<<<>>-=-<<-<<<<<<<<<<<<<<<<<<<<<<<<<<<<<<<<<<<<<<<<<<<<<<<<<<<<<<<<<<<<<<<<<<<<<<<<<<<",
"ssssssaiiiiiaiiiiiiii979997998666<<<<<<<<<<<<<<<<<<<<<<<<<<<<<<<<<<<<<<<<<<<<<<<<><<<<<<<<<<<<<<<<<<<<<<<<<<<<<<<<<<<<<<<<<<<<<<",
"ssssswiiiiiiiiiiiiw9r979699996772>-<<<<<<<<<<<<<<<<<<<<<<<<<<<<<<<<<<<<<<<<<<<<<<<<<<<<<<<<<<<<<<<<<<<<<<<<<<<<<<<<<<<<<<<<<<<<<",
"sssssiiiiiiiiiaiii99999999999773<><<<<<<<<<<<<<<<<<<<<<<<<<<<<<<<<<<<<<<<<><<<<<<<<<<<<<<<<<<<<<<<<<<<<<<<<<<<<<<<<<<<<<<<<<<<<<",
"sssssiiiiiiiiiiiiiyr99999999694<-<<<<<<<<<<<<<<<<<<-<<<<<<<<<<<<<<<><<<<<<<<<<<<<<<<<<<<<<<<<<<<<<<<<<<<<<<<<<<<<<<<<<<<<<<<<<<<",
"sssseiiiiiiiiiiiiiit99999996662><<<<<<<<<<><<<<<<<<-<<<<<<<<<<<<<<<<<<<<<<<<<<<<<<<<<<<<<<<<<<<<<<<<<<<<<<<<<<<<<<<<<<<<<<<<<<<<",
"ssssiiiiiiiiiiaiiii96699996672-><<<<<<<<<<<<<<<<<<<2-2--<-<<---<<<<<<<<<<<<<<<<<<<<<<<<<<<<<<<<<<<<<<<<<<<<<<<<<<<<<<<<<<<<<<<<<",
"ssssaiiiiiiiiiiiiit9699996762<--*@@=-<<<<<<<<<<<--<-------:-----<><><<>><<<<<<<<<<<<<<<<<<<<<<<<<<<<<<<<<<<<<<<<<<<<<<<<<<<<<<<<",
"ssssiiiaiiiiiiiiiiq999996892<--%ooOo=><><<<<>-<>-=*:*%%%%%*%%%%%%*==>>>><<<<<<<<<<<<<<<<<<<<<<<<<<<<<<<<<<<<<<<<<<<<<<<<<<<<<<<<",
"ssssiiiiiiiiiiiiii969996792>--:OoOOo@-<><<-<>==%%%%%%%%%%%%%%%%%%%%$%*>><><<<<<<<<<<<<<<<<><<<<<<<<<<<<<<<<<<<><<<<<<<<<<<<<<<<<",
"sssswiiiiiiiiiiiir77996792<>><=@ooooO:<----*%%%%%%%%%%%%%%%%%%%%%%%*%%$%==<><<<<<<<<<<<<<<<<<<<<<<<<<<<<<<<<<<<<<<<<<<<<<<<<<<<<",
"sssssiiiiiiiiiiii96996672>><><-@oooo%----%%*%%%%%%%%%%%%%%%%%%%%%%%%%%*%%%=><<<<<<<<<<<<<<<<<<<<<<<<<>=<-=%>>><<<<<<<<<<<<<<<<<<",
"sssssutiiiiiiiiiw9796792>>><<<<=$o+$=-=%%%%%%%%%%%%%%%%%%%%%%%%%%%*%%%%*%%$%*=<<<<<<<<<<><<<<<><<<<<<<<<>=*><-<<<<<<<<<<<<<<<<<<",
"sssssstiiiiiiiii9696662>>>><<<-<-=*--*%%%%%%%%%%%%%*&%%%%%%$%%$$O$$*$%%%%%*%$*;<<><<<<><<<<<<<>><<<<<<<<<<<<<<<<<<<<<<<<<<<<<<<<",
"sssssseiiiiiiiiq99694<><<<<<<<<<---=%%%%%%%%%%%%%%%*%%*%%%%%%$ooOO$%%*$%%%%%%%%%=>>><<<<<<><>==><><<<<<<<<<<<<<<<<<<<<<<<<<<<<<<",
"ssssssstyiiiiiy77793<<<<<<<<<<<--=%%%%%%%%%%%%%%%%%%%%%%%%%%%$ooOO$%$%*%%%%%%%%%%*>>><<<<><<>#$%=<><<<<<<<<<<<<<<<<<<<<<<<<<<<<<",
"ssssssssiyiiii97762>><<<<<<<<<-=%%%%%%%%$$%%%%%%%%%%%%%%%%%%%%ooO@%%$*%*%%%*%%%%%%%=>>><<><>=%%%*<><<<<<><<<<<<<<<<<<<<<=**-<><<",
"ssssssssswiii9773<-><<<<<<-<>=*%%%%%%%$$oo$%%%%%%%%%%%%%%%%%%%$$@$%%%%%%%%*$%%%%%%%%*><><><<=%%%=<><<><>-%%%**=<<><<<<<>%%%*<-<<",
"ssssssssssqiq742--<--2--><-=%%%%%%*%%%$ooo@$%%%%%&%%%%%%%%%%%%%%%%%%%%%%%%%%%%%%%%%%$%=>>>>>>=*=><-<<<<=*%%%%%$%*=<<><<>%%%*>><<",
"sssssssssss932--<<<2----=*%%%%%%%%%%%%$$oo@%%%%%%%%%%%%*%%%%%%%%%%%%*%%%%%%%%%%%%%%**%%%,>>>>><<<<><<==$%%%%%**%*$%=><<>=%*>>><<",
"ssssssssssss=-<<<<--2-:%%%%%%%%%&%%%%%%$@@$%%%%%%%%%%$$$$$$$%%%%%%%%*%%%%*%%%%%%%%%%*%%%%%*>>>><--==*$%%%%%%%%%%%%%$$=<<>><<<<<<",
"ssssssssssss6=<<<<--*%%%%%%%%%%%%%%%%%%%%%%%%%%%%$$$oOOOooo$o$$$%%%%%%%%%%%%%%*%%%%%$%%%%%*%%%*%%%%%%*%%*%%%%%%*%%%%*$*=>><<<<<<",
"ssssssssssss5--<--:*%%%%%%%%%%%%%%*%%%%%%%%%%$@OooOOOOOOooOOOOoo@%%%%%%%%%%%%%%%%%$**$*%%%%%%%%%%%%%%%%%%%%%%#$$%$*%%%$*=<><<<<<",
"ssssssssssss->---*%%%%%%%%%%%%%%%%%%%%%%$$o$OO@OooOOOOOOOOOOOOo$OO%%%%%%*%%%*%%*%%*%%*%%%*%%%%%%%%%%%%%%%%%%%OOO$*$%%%*$$*>>><<<",
"sssssssssss5=-2-%$%$$$$$$$$$$$$@$@$@ooOOOOooOOOOoooOOOOOOOOOOo$$$O@%%%%%%%%%$*$$@$%%$*%%%%%%%%%%%%%*%*%%%%%%$+O@$**%*%%%*$%==><<",
"sssssssssss--<-#%$$XOOoO@oOOOOO@OOOOOOOOOo@oOOOO$oOOOOOOOOOOo$%%%$XO$$%%%%%%%$OOO@@%*$%%%%%%%%%%%*%$*$$%%$%%%$O@*$%%$*%%*%%%$%==",
"sssssssssss---%$ooooOOOOOOOOOOOOOOOOOOOOOOOOOOOOOOOOOOOOOOOoo%%%%%@Xo$%%%%%%%$ooOOO%*$%%%%*$%%%%%$$oOOOOo@o$O@$$%$*%%%%%%%%*$$*$",
"ssssssssss4=-:%Oooo$OOOOOOOOOOOOOOOOOOOOOOOOOOOOOOOOOOOOOOOoO%%%%%@OoO$%%%%%%+ooOX@$%%%%%%%*$%#%@ooOOOOo@$$@oOOOO$$%%%%%%%%%**%*",
"ssssssssss5=-%OoOOoOOOOOOOOOOOOOOOOOOOOOOOOOOOOOOOOOOOOOOOOOo$%%%%@OOo@$%%%%%$ooOO@$%%%%%%*$%%#O$oOOOOoO%%%%@oOOOO@$%%%%%%%%%%%*",
"ssssssssss3-:@ooOOOOOOOOOOOOOOOOOOOOOOOOOOOOOOOOOOOOOOOOOOooo@@%@OoOOOo@%%%$%$ooO@$%%%%%%%%%%$oOOoOOOOoO%%%%@oOOOOOO@$$$%%%%%%%%",
"ssssssssss5=%OoOOOOOOOOOOOOOOOOOOOOOOOOOOOOOOOOOOOOOOOOoOOOOOOOOOOOOOOOo+%%%%%%$$%%%%%%%%%%%#OOOOOOOOOoO%%%%@oOOOOOOOOOOO$$$$$%$",
"ssssssssss4=OooOOOOOOOOOOOOOOOOOOOOOOOOOOOOOOOOOOOOOOOo$%@ooOOOOOOOOOOOOo$%%%%%%%*%%%%%%$%%$OOOOOOOOOOOoo$$$OOOOOOOOOOOOOO$OOOOO",
"ssssssssss5#OoOOOOOOOOOOOOOOOOOOOOOOOOOOOOOOOOOOOOOOOOo@%$ooOOOOOOOOOOOOoo$%%%%%%%%%%%%%%*$@OOOOOOOOOOOOOoo$OOOOOOOOOOOOOOOOOOOO",
"sssssssssssXooOOOOOOOOOOOOOOOOOOOOOOOOOOOOOOOOOOOOOOOOOo$OOOOOOOOOOOOOOOooo$%%%%%%%%%%%$%$@OOOOOOOOOOOOOOoooOOOOOOOOOOOOOOOOOOOO",
"sssssssssssXOOOOOOOOOOOOOOOOOOOOOOOOOOOOO$$$@OOOOOOOOOOOOOOOOOOOOOOOOOOOoooO$%%%%%%%%%%%%OoOOOOOOOOOOOOOOOOOOOOOOOO@OOOOOOO$@$@$",
"sssssssssss1XOOOOOOOOOOOOOOOOOOOOOOOO$,ssssssssss&$$OOOOOOOOOOOOOOOOOOOO$oOoo$%%%%%%%%%#OoOOOOOOOOOOOOOOOOOOOOOOO$$$$%%sssssssss",
"ssssssssssssXOoOOOOOOOOOOOOOOOOOOO;ssssssssssssssssss.;OOOOOOOOOOOOOOOOOoOOOoo$%%%%%%%$OOOOOOOOOOOOOOOOOOoO@$%%sssssssssssssssss",
"sssssssssssssXooOOOOOOOOOOOOOOoO,ssssssssssssssssssssssss:@OoOOOOOOOOOOOOOOOoooo$$%%$@OOOOOOOOOoOOOOoo$$*sssssssssssssssssssssss",
"ssssssssssssssXOOOOOOOOOOOOOo;ssssssssssssssssssssssssssssssX%OOOOOOOOOOOOOOOOOOOOOOOOOOOOOOOOOoOO$%ssssssssssssssssssssssssssss",
"sssssssssssssss+OOOOOOOOOo$:sssssssssssssssssssssssssssssssssss &OOOOOOOOOOOOOOOOOOOOOOOOOOoO$%Xssssssssssssssssssssssssssssssss",
"sssssssssssssssss+$@OO$$;sssssssssssssssssssssssssssssssssssssssss ;$oOOOOooOOOOOOO@OOOO@$;sssssssssssssssssssssssssssssssssssss",
"sssssssssssssssssssssssssssssssssssssssssssssssssssssssssssssssssssssss;$$$$oOOOO@$$$;ssssssssssssssssssssssssssssssssssssssssss"
};
