/* XPM */
static char *result[] = {
/* columns rows colors chars-per-pixel */
"128 128 62 1 ",
"  c #1D0F07",
". c #1D0F08",
"X c #1D1007",
"o c #1E1108",
"O c #231309",
"+ c #29170A",
"@ c #2D190B",
"# c #331C0D",
"$ c #391F0E",
"% c #361F10",
"& c #3A200F",
"* c #3B2110",
"= c #3D2719",
"- c #37291E",
"; c #3A281D",
": c #1E373C",
"> c #1E383D",
", c #2E2E2A",
"< c #332B23",
"1 c #312E28",
"2 c #2A302D",
"3 c #343029",
"4 c #3D352E",
"5 c #253434",
"6 c #2B3535",
"7 c #22363A",
"8 c #283738",
"9 c #20383B",
"0 c #353631",
"q c #393630",
"w c #412615",
"e c #462916",
"r c #492A17",
"t c #432718",
"y c #452919",
"u c #4E2E1B",
"i c #502F1C",
"p c #4F301D",
"a c #50301D",
"s c #402C20",
"d c #4C3427",
"f c #43352B",
"g c #4A3528",
"h c #563423",
"j c #593623",
"k c #5E3A26",
"l c #613B26",
"z c #643E29",
"x c #67402A",
"c c #6B422C",
"v c #1F3B41",
"b c #213E44",
"n c #224146",
"m c #24454B",
"M c #26484F",
"N c #274A51",
"B c #294E54",
"V c #2A5057",
"C c #2B5158",
"Z c #315F67",
"A c #326169",
"S c None",
/* pixels */
"AAAAAAAAAAAAAAAAAAAAAAAAAAAAAAAAAAAAAAAAAAAAAAAAAAAAAAAAAAAAAAAAAAAAAAAAAAAAAAAAAAAAAAAAAAAAAAAAAAAAAAAAAAAAAAAAAAAAAAAAAAAAAAAA",
"AAAAAAAAAAAAAAAAAAAAAAAAAAAAAAAAAAAAAAAAAAAAAAAAAAAAAAAAAAAAAAAAAAAAAAAAAAAAAAAAAAAAAAAAAAAAAAAAAAAAAAAAAAAAAAAAAAAAAAAAAAAAAAAA",
"AAAAAAAAAAAAAAAAAAAAAAAAAAAAAAAAAAAAAAAAAAAAAAAAAAAAAAAAAAAAAAAAAAAAAAAAAAAAAAAAAAAAAAAAAAAAAAAAAAAAAAAAAAAAAAAAAAAAAAAAAAAAAAAA",
"AAAAAAAAAAAAAAAAAAAAAAAAAAAAAAAAAAAAAAAAAAAAAAAAAAAAAAAAAAAAAAAAAAAAAAAAAAAAAAAAAAAAAAAAAAAAAAAAAAAAAAAAAAAAAAAAAAAAAAAAAAAAAAAA",
"AAAAAAAAAAAAAAAAAAAAAAAAAAAAAAAAAAAAAAAAAAAAAAAAAAAAAAAAAAAAAAAAAAAAAAAAAAAAAAAAAAAAAAAAAAAAAAAAAAAAAAAAAAAAAAAAAAAAAAAAAAAAAAAA",
"AAAAAAAAAAAAAAAAAAAAAAAAAAAAAAAAAAAAAAAAAAAAAAAAAAAAAAAAAAAAAAAAAAAAAAAAAAAAAAAAAAAAAAAAAAAAAAAAAAAAAAAAAAAAAAAAAAAAAAAAAAAAAAAA",
"AAAAAAAAAAAAAAAAAAAAAAAAAAAAAAAAAAAAAAAAAAAAAAAAAAAAAAAAAAAAAAAAAAAAAAAAAAAAAAAAAAAAAAAAAAAAAAAAAAAAAAAAAAAAAAAAAAAAAAAAAAAAAAAA",
"ZZZZZZZZZZZZZZZZZZZZZZZZZZZZZZZZZZZZZZZZZZZZZZZZZZZZZZZZZZZZZZZZZZZZZZZZZZZZZZZZZZZZZZZAZZZZZZZZZZZZZZZZZZZZZZZZZZZZZZZZZZZZZZZZ",
"CCCCCCCCCCCCCCCCCCCCCCCCCCCCCCCCCCCCCCCCCCCCCCCCCCCCCCCCCCCCCCCCCCCCCCCCCCCCCCCCCCCCCCCCCCCCCCCCCCCCCCCCCCCCCCCCCCCCCCCCCCCCCCCC",
"CCCCCCCCCCCCCCCCCCCCCCCCCCCCCCCCCCCCCCCCCCCCCCCCCCCCCCCCCCCCCCCCCCCCCCCCCCCCCCCCCCCCCCCCCCCCCCCCCCCCCCCCCCCCCCCCCCCCCCCCCCCCCCCC",
"CCCCCCCCCCCCCCCCCCCCCCCCCCCCCCCCCCCCCCCCCCCCCCCCCCCCCCCCCCCCCVCCCCCCCCCCCCCCCCCCCCCCCCCCCCCCCCCCCCCCCCCCCCCCCCCCCCCCCCCCCCCCCCCC",
"CCCCCCCCCCCCCCCCCCCCCCCCCCCCCCCCCCCCCCCCCCCCCCCCCCCCCCCCCCCCCCCCCCCCCCCCCCCCCCCCCCCCCCCCCCCCCCCCCCCCCCCCCCCCCCCCCCCCCCCCCCCCCCCC",
"CCCCCCCCCCCCCCCCCCCCCCCCCCCCCCCCCCCCCCCCCCCCCCCCCCCCCCCCCCCCCCCCCCCCCCCCCCCCCCCCCCCCCCCCCCCCCCCCCCCCCCCCCCCCCCCCCCCCCCCCCCCCCCCC",
"CCCCCCCCCCCCCCCCCCCCCCCCCCCCCCCCCCCCCCCCCCCCCCCCCCCCCCCCCCCCCCCCCCCCCCCCCCCCCCCCCCCCCCCCCCCCCCCCCCCCCCCCCCCCCCCCCCCCCCCCCCCCCCCC",
"CCCCCCCCCCCCCCCCCCCCCCCCCCCCCCCCCCCCCCCCCCCCCCCCCCCCCCCCCCCCCCCCCCCCCCCCCCCCCCCCCCCCCCCCCCCCCCCCCCCCCCCCCCCCCCCCCCCCCCCCCCCCCCCC",
"CCCCCCCCCCCCCCCCCCCCCCCCCCCCCCCCCCCCCCCCCCCCCCCCCCCCCCCCCCCCCCCCCCCCCCCCCCCCCCCCCCCCCCCCCCCCCCCCCCCCCCCCCCCCCCCCCCCCCCCCCCCCCCCC",
"CCCCCCCCCCCCCCCCCCCCCCCCCCCCCCCCCCCCCCCCCCCCCCCCCCCCCCCCCCCCCCCCCCCCCCCCCCCCCCCCCCCCCCCCCCCCCCCCCCCCCCCCCCCCCCCCCCCCCCCCCCCCCCCC",
"CCCCCCCCCCCCCCCCCCCCCCCCCCCCCCCCCCCCCCCCCCCCCCCCCCCCCCCCCCCCCCCCCCCCCCCCCCCCCCCCCCCCCCCCCCCCCCCCCCCCCCCCCCCCCCCCCCCCCCCCCCCCCCCC",
"CCCCCCCCCCCCCCCCCCCCCCCCCCCCCCCCCCCCCCCCCCCCCCCCCCCCCCCCCCCCCCCCCCCCCCCCCCCCCCCCCCCCCCCCCCCCCCCCCCCCCCCCCCCCCCCCCCCCCCCCCCCCCCCC",
"CCCCCCCCCCCCCCCCCCCCCCCCCCCCCCCCCCCCCCCCCCCCCCCCCCCCCCCCCCCCCCCCCCCCCCCCCCCCCCCCCCCCCCCCCCCCCCCCCVCVVCVCCCCCCCCCCCCCCCCCCCCCCCCC",
"CCCCCCCCCCCCCCCCCCCCCCCCCCCCCBBCVCCCCCCCCCCCCCCCCCCCVCCCCCCCCCCCCCCCCCCCCCVCVVCVCCCCCCCCCCCCCCCCCVCBBCCCCCCCCCCCCCCCCCCCCCCCCCBM",
"mCCCCCCCCCCCCCCCCCCCCCCCCCBCCMBCVCCCCCCCCCCCCCCCCCVCVVCVCCCCCCCCCCCCCCCCCVCVNNCVCCCCCCCCCCCCCCCCCVCBnVCVCCCCCCCCCCCCCCCCCCCCCCB>",
">MCCCCCCCCCCCCCCMBCBCCCCCCCCNvBCVCCCCCCCCCCCCCCCCCVCnMCCVCCCVVCNNCVCCCCCCVCBvNCCCCCCCCCCCCCCCCCCCBCN>mCCCCCCCCCCCCCCCCCCCCCCCCM:",
">:nMNmnNCCCCCCCM:MCCCCCCCCBCb:mCCVCCCCCCVCBBCCVCCVCBvvBCVCCCVCN>nCCBCCCCVCCm:vVCVCCCCCCVCBNCCCCCVCBb:vNCCCCBCCBBCBCCCCCCCCCCCB>>",
">>>>>>>9BCCCCCn>>>MCCVCVCBCn>>:MCCVCCCCVCCbvMCVVVVMv::vMVCBVVMv:vmCCVCCVVCMv>:nCVVCCCCVCVm>mCBCCCNv>>:>MBVVCCM>nCCCCCCCCCCCCBv>>",
">>>>>>>>>9nmn>::>>>mBCCVCNv:>>>>mCCVCCCCVb:::vbmbb:v::::bnMbv:>>>:nBCCVCBv::>:vnVVVCVVCVm:>:vnmnv:>>>>:>vmmnv:>:vNCCCCCCCCCBvv>9",
"5>>>>>>>>>>>>>>>>>>>>9bnv>:>::7::vMBVBNmv:::v:::vv::>>::>>>>::>>>>::vbvv>:::>>>:vmBVVBmv:::::>>:>>>>>>>>>9:>:>>>:>bNCVCCBNn>>>>8",
"2>>>>>>>>>>>>>>>>>>>>>>>>>>:::,7>::>v>>>::v:::v:::::>>>:>>>:::>>>>>>>:v:>::v>>>>::v:>>v:>5,:::>>>>>>>>>>>>>::>>>>>::vvbb>>>>>>><",
"=:>>>>>>>>>>>>>>>>>>>>>>>>>>:5=5:::>>>>>v:v::v55v:>>>>>>::>9q8>:>>>>>>:v>>>>>>>>::>>>:::>5;5::>>>>>>>>>:>>98::>>>>>>:>>9>:::>:,=",
"t,:>9>>>>>>>>>>>>>>>>>>>>>>>><*<::::>>>>:::::7;<:>:>>>>>::>0j4:>:>>>>>>:>>>:>>:>:v>>:v:::2u<:::>>>>>>>>:>7fg>9>>>:>>:::65:::9<=t",
"yw,:>>>>>>>>13:>9>>>>>>>>>>:2=yw,:>:>>>>>>:::4hh37:::v9>:v0hhhq:>:>>>:>:,1:::>>>:>>>::>:2jky,::>>>>>>>:>:qhhf>:>>>>>::0d=;-;w=wu",
"u=w<7>>>:>7<tw6>>>>>>>>>>>>6=wpw=6:>:>>>>:::qhjhhg8:::::7fhhkjhf8>:>:>8<==,:::>>:>>>::>5=jxu=,:::>>>>:>7qhjhhg8>:>>:94hwtwww==tu",
"iywtw;<1<-=wwtw,9>>>>>::9:,;=riytw<5::::::5dhhzzajjgfqqghhhzclhhhdfq4ghy=w=1::::>>::>>2=erar*=-5>:::::5<rhlzjhhdfqfghhuww=w=wyua",
"iuy==w=ww=t=ttw=<2::>:::5;w=yuaiw==w;1,,1=wtulccxahhhhhhhhkxlauuhhhhhhhhuyww;0::::::5<w=eaaar=e*;1,,<;ww=yjzzhhhhhhhhh=uuuyuuiaa",
"aaurt=w=wtwruut==w=;<1-==w=wuiauuyww=w=twww=ykcccxkahhhhhkhpuaae=rhhhhhlczjahjd;<<-=w==wpppaprwwwwwwww=wyauahjhhhhhhhuiiackiaaaa",
"aaipuuyytruuiiitw*w=ww=wwwtuapiauuy*$&=ww=trauhzcccczkkzkpppaaaauruhkzccccckhdww=tw=wwwuppappprew=t=w=wyuiaauaiuuuhduaialccuaaaa",
"aaaaaaaaaaaaiuairpe=*wewwrihuuaaiae&$#$wyuuaiaaiacccccxaphjaaaaahaualcccccccjw=wwt=wwuppppppauaauytytuuuuaaaaaaadiaaaaiuhzkuaaaa",
"aaaaaaaaaaaaaaauxcxprrruuiuaaaauau*&*&$uauiaaaaaaaaaaaaakcccaiaauuaaaalccclhaaueyrrraaruppupaaaauaaaiauhaaaaaapaiiaaiaaaiaiaaaaa",
"aaaaaaaaaaaaaaaaxccxaaaaaaaaapaiau*&**$eaiiaaaaaaaaaaaaaxccclpaaaaaaaaaaaaiiaaaauuaau&&&&riuaaaapaaaapiiaaaaaaaaiaaaaaaaaaaaaaaa",
"aaaaaaapaaaaaaaaxccapaaaaaaaaaauiaw$*$*uaiaaaaaaaaaaaaaaxccclaaaaaaaaaaaaaaaaaaauhar&&&&&&rauaaaaaaaaaaaaaaaiaaaaaaaaaaaaaaaaaaa",
"aaaaaaaaaaaaaaaauaaaaaaaaaaaaaaauaue**raaiaaaaaaaaaaaaaaccccauaaaaaaaaaaaaaaaaaauauw$**&&&wuuaaaaaaaaaaaaaaaaaaaaaaaaaaaaaaapaaa",
"aaaaaaaaaaaaaaaaaaaaaaaaauaaaaaaaaaaauhaaaaaaaaaaaaaaaaaaaaaaaaaaaaaaaaaaaaaaaaaiau*$***&&&raaauuuuaiaaaaaaaaaaaaaaaaaaaaaaaaaaa",
"aaaaiautwuiaaaaaaaaaaaaaaaaaaaaaaaaaaaaaaaaaaaaaaaaaaaaaaaaaaaaaaaaaaiaaaaaaaaaauur*$***&&wuaaar$&*uaaaaaaaaaaaaaaaaaaaaaaaaaaaa",
"aaaiar&&**uiaaaaaaaaaaaaaaaaaaaaaaaaaaaaaaaaaaaaaaaaaaaaaaaaaaaaaaaiauuuuaaaaaaaihuw&*&*&&wauau*****uuaaaaaaaaaaaie&waiaaaaaaaaa",
"aaaiaw&&&&eaapaaaaaaaaaaaaaaaaaaaaaaaaaaaaaaaaaaaaaaaaaaaaaaaaaaaauaae*$eauuaaaaiiar*&&&&&rauae&**&*rauaaaaaaaaaap&&&uuaaaaaaaaa",
"aaaiaw&&&&euaaaaaaaaaaaaaaaaaaaaaaaaaaaaaaaaaaaaaaaaaaaaaaaaaaaaaaaauw$**uaaaaaaaiiauw**wuauaar&**&*uaaaaaaaaaaaauw&wuiuaaaaaaaa",
"aaauar&&*&uuaaaaaaaaaaaaaaaaaaaaaaaaaapaaaaaaaaaaaaaaaaaaaaaaaaaaauauw&$*uaaaaaaaaaaaaaaaaaauaae&**eauaaaaaaaaaaaaaaauiaaapaaaaa",
"aaaaaarwwuiaaaaaaaaaaaaaaaaaaaaaaaaaaaiaaaaaaaaaaaaaaaaaaaaaaaaaaaaiauw*raiuaaaaaaaaaaaaaaaaaaaareuaiaaaaaaapaaaaaaaaaaaaaaaaaaa",
"aaaaaaaaaaaaaaaaaaaaaaaaaaaaaaaaaaaaaaaaaaaaaaaaaaaaaaaaaaaaaaaaaaaaaaaaaaaaaaaaaaaaaaaaaaaaaaaaaaaaaaaaaaaaaaaaaaaaaaaaaaaaaaaa",
"aaaaaaaaaaaaauauwwwriaaaaaaaaaaauprteiiaaaaaaaaaaaaaaaaaaaaaaaaaaaaaaaaaaaaaaaaaaaaaaaaaaaaaaaaaaaaaaaaaaaaaaaaaiauaaaaaaaaaaaaa",
"aaaaaaaaaaaiiaw&&&&&&eiaaaaaaaaau***&&euaaaaaaaaaarreraaiaaaaaaaaaaaaaaaaaaaaaaaaaaaaaaaaaaaaaaaaaaaaaaaaauaiw&&&raiiaaaaaaaaaaa",
"aaaaaaaaiaaiaw&&&&&*&&ruauaaauar****&&&wrauaaaaaie&&&&wraiuaaaaaaaaaaaaaaaaaaaaaaaaaaaaaaaaaaaaaaaaaaaaaauauw&&*&&raiaaaaaaaaaaa",
"aaaaaaaaaaiar&&&****&**uauaauuu*&*&****&wuaiaaaar&&*w&&wuiiaaaaaaaaaaaaaaaaauaaiaaaaaaaaaaaaaaaaaaaaaaaaauauw&&&&&waiaaaaaaaaaaa",
"aaaaaaaaaaiie&&&**&**&&raaaauuw&*****&**&wiaiaaiw&*&&&&$wiiiaaaaaaaaaaaaie&&&*euuaaaaaaaaauauurrruauaaaaaaau&&&&&weaiaaaaaaaaaaa",
"aaaaaaaaiiuiw&&&*&**&&&eaauuar&&*&*****&&&eaauar&&**&&&&wuaiaaaaaaaaauauw&*&*&&wuuuaaaaaaaaue&&*&&wruuaaauauw&&&&&eaiaaaaaaaaaaa",
"puaaaaaaiiiuw&&&**&**&&euaaurw&&***&****&&weaaar*&*&&&&&wuaaaaaaaaaauiae&&***&&&raaaaaaauaar&&&*&&&&raauaaaau*&&&waaiiaaaaaaaauu",
"&&&wraaaaapaw&&w**&*&*&raaaaw&&euie&&&&**&&wuaarw&&&&&&&raaaaaaaaaaaaauw&&&***&&wuuaaaaaaau&*&&&&w&&&wuuiaiaaurrraiaaaaaauuew&&&",
"&&&&&&raaapar&&&*******uauar*&wraiae&&&&**&&eaaae&&&&&&&raaaaaaaaaaaaar&&&*****&&uauaaauar&**&&w&&&&w&&uaaaaaaaaaaaaaaarw&&&&&&&",
"**&&**&ruaauaw&&*****&ruauaw&&euaaarw&&&**&&&eaiaw&&&&&raiaaaaaaaaaaiarw&&*****&wuaaaaaar&*****&&&w&&&&&raaaaaaaaaaaarw&&&&&&&w&",
"&******&raaaaae&&**&*ruauuw*&&euaaar&&&w&***&&uaiareweuipaaaaaaaaaaauauw&****&*$wauuuaur&&**&*&&&&&&&&w&&wuauaaaaaauw&**&&&&*&&&",
"*******&waaaaiarewweuuuaue&&**&riauw$&&&*****&euauaaaaaaaaaaaaaaaaaaiiae&&&&*&&*raaaaur&&***&w&&&&&w&&&&*&*ruaiaauw&*&****&**w&&",
"***&*&**&riaaaaaaaaauuur&&***&*&www&&&&&*****&&eaaiaaaaaaaaaaaaaaaaaaaaie&&&*&*eauuaae&&***&&&&&&ruaarw&&&**&&&w&&&&*********&&&",
"******&*&waaaaaaaauuurw&&*******&&&*&&&&*&&&**&*eaiiaaaaaaaaauaareeraaiaauww&wuaaaauw&***&**&&&&wauaair&&&**&&&&**&&*****&**&*&*",
"&*******&&wuaaaauaue**&&&**&***&&&&*&&w&&w&&***&weaiiiaaaaaupir&&&&&&eiaaaaaaaauaar&&&******&&&wuaiauau&&w&**&&w&**&*&**********",
"&&&&ww&&&*&*weueww*&*&*************&*******&****&wrauaaaaaaauw&*w&&&&&wraauaaauaar&&&*&***&***&wapuaiau&&**&**&****&&&rw&&&&&**&",
"&&&wuaaw&&**&&&*&*&*****&**&*&**&****&**&****&**&&&rauiapaar*&&*&&w&&&&&wuaaaaue*&&&**&&******&*uaaaiaa&*&********&&waaaw&&w&***",
"w&&uaiae*&****&*&&*****&************************&&&&wriuaut&&&**&&&&&&&*&&www&&&**&**&*wur***&&&wapuaur&*****&****&&eauar&&&****",
"&&&rauau*&**&***&&*&*********&&******&&******&&*&&&w&&we&&&&***&&wrrw&w*&&&&&w&&****&&wpppr&***&&wuaue&&***&****&*&*wpapw&&&*&**",
"&w&wiau*&&****&*w&wet&&&*****&*******&*******&**w&&&***&&*******&waae$&&&&&&&&&&*&***&*paur&&&&*&***&&&&***********&*rrr&&****&*",
"&&&&&w&&*&******&wiaar&&&*******&*******&*******&&w&&***&**&&***&&ee&&&&&&w&w&&&*****&&wur***&******&&**&***&******&&&**********",
"**&&*&**********&rauaa*&&*&*****&*&*****&*&*****w&&&************&&&&&&&&&&&&&&w&****&***&&&***&***&*******&****&****&*&***&*****",
"&&&&***&***&&***&raiaa*&*****&******&*******&***&&&&**&**&****&*&w&&&&&w&w&&w&&&**&*****&&&&**********&*********&***&*********&*",
"w&********&****&&euaae&&****&*&******&***&***&&*&&&&&&&&****&***&*******&&&&&&w&**&****&***&*&*******&********&**********&**&***",
"&&**&*&******&**&&wew&&&&*********&*************&wew&&**&*****&****&**&*&&w&&&&&*****&**********&********&********&**&********&*",
"&**&&*********&*&&w&&w&&*****&*&**************&*&rarw&*&*************&**&&&&*&&&********&*****&***&********&**************&*&***",
"&*******&*******&&&&&&&&**&&*&$&&&&****&&*******&rap&&****&**&********&*w&&&****&*****&*****&***&****&******&****&**&*&*********",
"******&****&***&***&&&&$@+OOXooooo+@&&&&&*****&&&&ew&********&******&*********&****&***&******&***&******&*&**&****&&**********&",
"**&******&******&*&&&@OXooooooooooooXo+#&&&&***&&&&*&&w&**&*****&*&*******&*****&********&*************&****************&**&****",
"**********&*&***&*$+X XOO#+OXoooooooooXXo+#&&&&&&*&***&&&******&*&*******&********&*&******&*****&********&***********&******&**",
"*&&***&*******&&&@XXXXO#*&&*O XoooooO@@oXoXO+&&w&&***&&&***&*********&****&****&********&***&*******&********&***&**************",
"**&*&***&****&&#OXoooX@&*&&*$O ooooo#&*#oXoooXO+&&*&&****&**********************&*&***&*&***&**&**&*&$$@@++++@#&&&&*************",
"**********&&*&+XXooooX$*&*&&&O ooooO&&&&OXoooooooO#&&&********&*****&*&***&*&****************&*&$#+Oo ooOXX#@oXo@&&&**&*****&*&*",
"*********&&&@oXXoooooX$*&*&&&OXooooX#*&#oXooooooooooO$&*&**&&***&****&**&***************&*&&#+OoXoooooooXX+&*@XoXO&&&&&&&****&**",
"**&****&*&+oXXoXoooooX@**&&*#OXooooXX++OXoooooooooooooo+$&*&*******&*******&**&**&*&*&&@@OoXXoooooooooooXXO&*OXoXXX&&*&&***&****",
"*&*&*&#+OoXoooooooooooo$*&*$OXoooooooooooooooooooooooooo X+$&&$*******&******&&&&&#@+OXXooooooooooooooooXoXOOXooXXXXo+@&&****&&*",
"+@+OoXoooooooooooooooooX+@+OXXoooooooooooooooooooooooooooooXOO#$&*&&*******&&#@+OXXooooooooooooooooooooooooXoooooXooooXXoOOO++++",
"OoooooooooooooooooooooooooooXoooXXSSSSSSSSSooooooooooooooooooooXO+@@@&&@++OoXXooXXoooooooooooooXoXXXoXXoXoooooooooXXo&&+Xooooooo",
"XoooooooooooooooooooooooXoXXSSSSSSSSSSSSSSSSSSSOoooooooooooooooXO@&+XooooooooXoooooooooooooXoXSSSSSSSSSSSS oXoooooXo@&&&OXoooooo",
"oooooooooooooooooooooXXSSSSSSSSSSSSSSSSSSSSSSSSSSSSooooooooooooXO#&@ooooooooooooooooooXooSSSSSSSSSSSSSSSSSSSSXoXooXo@&&&+Xoooooo",
"ooooooooooooooooooXoSSSSSSSSSSSSSSSSSSSSSSSSSSSSSSSSSSOoXoooooooX++OoooooooooooooooXoOSSSSSSSSSSSSSSSSSSSSSSSSSXooXXO&&#oooooooo",
"oooooooooooooXoXSSSSSSSSSSSSSSSSSSSSSSSSSSSSSSSSSSSSSSSSSOXoooooooooooooooooooooXXSSSSSSSSSSSSSSSSSSSSSSSSSSSSSSSoooXoOXoooooooo",
"ooooooooooooSSSSSSSSSSSSSSSSSSSSSSSSSSSSSSSSSSSSSSSSSSSSSSSSSXoXooooooooooooooSSSSSSSSSSSSSSSSSSSSSSSSSSSSSSSSSSSSSSXooooooooooo",
"XXooXSSSSSSSSSSSSSSSSSSSSSSSSSSSSSSSSSSSSSSSSSSSSSSSSSSSSSSSSSSSSSooooooSSSSSSSSSSSSSSSSSSSSSSSSSSSSSSSSSSSSSSSSSSSSSSSSSSSoXooo",
"SSSSSSSSSSSSSSSSSSSSSSSSSSSSSSSSSSSSSSSSSSSSSSSSSSSSSSSSSSSSSSSSSSSSSSSSSSSSSSSSSSSSSSSSSSSSSSSSSSSSSSSSSSSSSSSSSSSSSSSSSSSSSSSS",
"SSSSSSSSSSSSSSSSSSSSSSSSSSSSSSSSSSSSSSSSSSSSSSSSSSSSSSSSSSSSSSSSSSSSSSSSSSSSSSSSSSSSSSSSSSSSSSSSSSSSSSSSSSSSSSSSSSSSSSSSSSSSSSSS",
"SSSSSSSSSSSSSSSSSSSSSSSSSSSSSSSSSSSSSSSSSSSSSSSSSSSSSSSSSSSSSSSSSSSSSSSSSSSSSSSSSSSSSSSSSSSSSSSSSSSSSSSSSSSSSSSSSSSSSSSSSSSSSSSS",
"SSSSSSSSSSSSSSSSSSSSSSSSSSSSSSSSSSSSSSSSSSSSSSSSSSSSSSSSSSSSSSSSSSSSSSSSSSSSSSSSSSSSSSSSSSSSSSSSSSSSSSSSSSSSSSSSSSSSSSSSSSSSSSSS",
"SSSSSSSSSSSSSSSSSSSSSSSSSSSSSSSSSSSSSSSSSSSSSSSSSSSSSSSSSSSSSSSSSSSSSSSSSSSSSSSSSSSSSSSSSSSSSSSSSSSSSSSSSSSSSSSSSSSSSSSSSSSSSSSS",
"SSSSSSSSSSSSSSSSSSSSSSSSSSSSSSSSSSSSSSSSSSSSSSSSSSSSSSSSSSSSSSSSSSSSSSSSSSSSSSSSSSSSSSSSSSSSSSSSSSSSSSSSSSSSSSSSSSSSSSSSSSSSSSSS",
"SSSSSSSSSSSSSSSSSSSSSSSSSSSSSSSSSSSSSSSSSSSSSSSSSSSSSSSSSSSSSSSSSSSSSSSSSSSSSSSSSSSSSSSSSSSSSSSSSSSSSSSSSSSSSSSSSSSSSSSSSSSSSSSS",
"SSSSSSSSSSSSSSSSSSSSSSSSSSSSSSSSSSSSSSSSSSSSSSSSSSSSSSSSSSSSSSSSSSSSSSSSSSSSSSSSSSSSSSSSSSSSSSSSSSSSSSSSSSSSSSSSSSSSSSSSSSSSSSSS",
"SSSSSSSSSSSSSSSSSSSSSSSSSSSSSSSSSSSSSSSSSSSSSSSSSSSSSSSSSSSSSSSSSSSSSSSSSSSSSSSSSSSSSSSSSSSSSSSSSSSSSSSSSSSSSSSSSSSSSSSSSSSSSSSS",
"SSSSSSSSSSSSSSSSSSSSSSSSSSSSSSSSSSSSSSSSSSSSSSSSSSSSSSSSSSSSSSSSSSSSSSSSSSSSSSSSSSSSSSSSSSSSSSSSSSSSSSSSSSSSSSSSSSSSSSSSSSSSSSSS",
"SSSSSSSSSSSSSSSSSSSSSSSSSSSSSSSSSSSSSSSSSSSSSSSSSSSSSSSSSSSSSSSSSSSSSSSSSSSSSSSSSSSSSSSSSSSSSSSSSSSSSSSSSSSSSSSSSSSSSSSSSSSSSSSS",
"SSSSSSSSSSSSSSSSSSSSSSSSSSSSSSSSSSSSSSSSSSSSSSSSSSSSSSSSSSSSSSSSSSSSSSSSSSSSSSSSSSSSSSSSSSSSSSSSSSSSSSSSSSSSSSSSSSSSSSSSSSSSSSSS",
"SSSSSSSSSSSSSSSSSSSSSSSSSSSSSSSSSSSSSSSSSSSSSSSSSSSSSSSSSSSSSSSSSSSSSSSSSSSSSSSSSSSSSSSSSSSSSSSSSSSSSSSSSSSSSSSSSSSSSSSSSSSSSSSS",
"SSSSSSSSSSSSSSSSSSSSSSSSSSSSSSSSSSSSSSSSSSSSSSSSSSSSSSSSSSSSSSSSSSSSSSSSSSSSSSSSSSSSSSSSSSSSSSSSSSSSSSSSSSSSSSSSSSSSSSSSSSSSSSSS",
"SSSSSSSSSSSSSSSSSSSSSSSSSSSSSSSSSSSSSSSSSSSSSSSSSSSSSSSSSSSSSSSSSSSSSSSSSSSSSSSSSSSSSSSSSSSSSSSSSSSSSSSSSSSSSSSSSSSSSSSSSSSSSSSS",
"SSSSSSSSSSSSSSSSSSSSSSSSSSSSSSSSSSSSSSSSSSSSSSSSSSSSSSSSSSSSSSSSSSSSSSSSSSSSSSSSSSSSSSSSSSSSSSSSSSSSSSSSSSSSSSSSSSSSSSSSSSSSSSSS",
"SSSSSSSSSSSSSSSSSSSSSSSSSSSSSSSSSSSSSSSSSSSSSSSSSSSSSSSSSSSSSSSSSSSSSSSSSSSSSSSSSSSSSSSSSSSSSSSSSSSSSSSSSSSSSSSSSSSSSSSSSSSSSSSS",
"SSSSSSSSSSSSSSSSSSSSSSSSSSSSSSSSSSSSSSSSSSSSSSSSSSSSSSSSSSSSSSSSSSSSSSSSSSSSSSSSSSSSSSSSSSSSSSSSSSSSSSSSSSSSSSSSSSSSSSSSSSSSSSSS",
"SSSSSSSSSSSSSSSSSSSSSSSSSSSSSSSSSSSSSSSSSSSSSSSSSSSSSSSSSSSSSSSSSSSSSSSSSSSSSSSSSSSSSSSSSSSSSSSSSSSSSSSSSSSSSSSSSSSSSSSSSSSSSSSS",
"SSSSSSSSSSSSSSSSSSSSSSSSSSSSSSSSSSSSSSSSSSSSSSSSSSSSSSSSSSSSSSSSSSSSSSSSSSSSSSSSSSSSSSSSSSSSSSSSSSSSSSSSSSSSSSSSSSSSSSSSSSSSSSSS",
"SSSSSSSSSSSSSSSSSSSSSSSSSSSSSSSSSSSSSSSSSSSSSSSSSSSSSSSSSSSSSSSSSSSSSSSSSSSSSSSSSSSSSSSSSSSSSSSSSSSSSSSSSSSSSSSSSSSSSSSSSSSSSSSS",
"SSSSSSSSSSSSSSSSSSSSSSSSSSSSSSSSSSSSSSSSSSSSSSSSSSSSSSSSSSSSSSSSSSSSSSSSSSSSSSSSSSSSSSSSSSSSSSSSSSSSSSSSSSSSSSSSSSSSSSSSSSSSSSSS",
"SSSSSSSSSSSSSSSSSSSSSSSSSSSSSSSSSSSSSSSSSSSSSSSSSSSSSSSSSSSSSSSSSSSSSSSSSSSSSSSSSSSSSSSSSSSSSSSSSSSSSSSSSSSSSSSSSSSSSSSSSSSSSSSS",
"SSSSSSSSSSSSSSSSSSSSSSSSSSSSSSSSSSSSSSSSSSSSSSSSSSSSSSSSSSSSSSSSSSSSSSSSSSSSSSSSSSSSSSSSSSSSSSSSSSSSSSSSSSSSSSSSSSSSSSSSSSSSSSSS",
"SSSSSSSSSSSSSSSSSSSSSSSSSSSSSSSSSSSSSSSSSSSSSSSSSSSSSSSSSSSSSSSSSSSSSSSSSSSSSSSSSSSSSSSSSSSSSSSSSSSSSSSSSSSSSSSSSSSSSSSSSSSSSSSS",
"SSSSSSSSSSSSSSSSSSSSSSSSSSSSSSSSSSSSSSSSSSSSSSSSSSSSSSSSSSSSSSSSSSSSSSSSSSSSSSSSSSSSSSSSSSSSSSSSSSSSSSSSSSSSSSSSSSSSSSSSSSSSSSSS",
"SSSSSSSSSSSSSSSSSSSSSSSSSSSSSSSSSSSSSSSSSSSSSSSSSSSSSSSSSSSSSSSSSSSSSSSSSSSSSSSSSSSSSSSSSSSSSSSSSSSSSSSSSSSSSSSSSSSSSSSSSSSSSSSS",
"SSSSSSSSSSSSSSSSSSSSSSSSSSSSSSSSSSSSSSSSSSSSSSSSSSSSSSSSSSSSSSSSSSSSSSSSSSSSSSSSSSSSSSSSSSSSSSSSSSSSSSSSSSSSSSSSSSSSSSSSSSSSSSSS",
"SSSSSSSSSSSSSSSSSSSSSSSSSSSSSSSSSSSSSSSSSSSSSSSSSSSSSSSSSSSSSSSSSSSSSSSSSSSSSSSSSSSSSSSSSSSSSSSSSSSSSSSSSSSSSSSSSSSSSSSSSSSSSSSS",
"SSSSSSSSSSSSSSSSSSSSSSSSSSSSSSSSSSSSSSSSSSSSSSSSSSSSSSSSSSSSSSSSSSSSSSSSSSSSSSSSSSSSSSSSSSSSSSSSSSSSSSSSSSSSSSSSSSSSSSSSSSSSSSSS",
"SSSSSSSSSSSSSSSSSSSSSSSSSSSSSSSSSSSSSSSSSSSSSSSSSSSSSSSSSSSSSSSSSSSSSSSSSSSSSSSSSSSSSSSSSSSSSSSSSSSSSSSSSSSSSSSSSSSSSSSSSSSSSSSS",
"SSSSSSSSSSSSSSSSSSSSSSSSSSSSSSSSSSSSSSSSSSSSSSSSSSSSSSSSSSSSSSSSSSSSSSSSSSSSSSSSSSSSSSSSSSSSSSSSSSSSSSSSSSSSSSSSSSSSSSSSSSSSSSSS",
"SSSSSSSSSSSSSSSSSSSSSSSSSSSSSSSSSSSSSSSSSSSSSSSSSSSSSSSSSSSSSSSSSSSSSSSSSSSSSSSSSSSSSSSSSSSSSSSSSSSSSSSSSSSSSSSSSSSSSSSSSSSSSSSS",
"SSSSSSSSSSSSSSSSSSSSSSSSSSSSSSSSSSSSSSSSSSSSSSSSSSSSSSSSSSSSSSSSSSSSSSSSSSSSSSSSSSSSSSSSSSSSSSSSSSSSSSSSSSSSSSSSSSSSSSSSSSSSSSSS",
"SSSSSSSSSSSSSSSSSSSSSSSSSSSSSSSSSSSSSSSSSSSSSSSSSSSSSSSSSSSSSSSSSSSSSSSSSSSSSSSSSSSSSSSSSSSSSSSSSSSSSSSSSSSSSSSSSSSSSSSSSSSSSSSS"
};
