/* XPM */
static char *_c5298287812457d970c23d6640c6fedKJRM6PM6CPkMGffu[] = {
/* columns rows colors chars-per-pixel */
"6 18 103 2 ",
"   c None",
".  c #3C2800",
"X  c #3D2800",
"o  c #3C2A00",
"O  c #3F2A00",
"+  c #3D2809",
"@  c #3E2B0A",
"#  c #412600",
"$  c #412700",
"%  c #432A00",
"&  c #432B00",
"*  c #452A00",
"=  c #432C00",
"-  c #442D03",
";  c #402A05",
":  c #4A3000",
">  c #CF9E00",
",  c #D29D01",
"<  c #D39D09",
"1  c #CFA209",
"2  c #CEA20B",
"3  c #D1A100",
"4  c #D4A10A",
"5  c #D8A20A",
"6  c #E6AF1F",
"7  c #DFB620",
"8  c #D4B139",
"9  c #D3B53D",
"0  c #E1B121",
"q  c #E7B224",
"w  c #E4BA28",
"e  c #E5BC2E",
"r  c #EEBF29",
"t  c #E8BF33",
"y  c #EABF32",
"u  c #EDBE32",
"i  c #EDBD35",
"p  c #E6BF3C",
"a  c #EDBE3A",
"s  c #EFC324",
"d  c #F5C324",
"f  c #E1C233",
"g  c #E8C135",
"h  c #EAC739",
"j  c #EAC43D",
"k  c #ECC63D",
"l  c #EECB3D",
"z  c #F0C239",
"x  c #F6C938",
"c  c #CFAE47",
"v  c #D2AE4E",
"b  c #CFB44D",
"n  c #D6B742",
"m  c #D7B843",
"M  c #D4B348",
"N  c #D4B14B",
"B  c #D3B14F",
"V  c #D0B34F",
"C  c #D5B54E",
"Z  c #CDAF57",
"A  c #C6AC58",
"S  c #C5AF5A",
"D  c #CAAF58",
"F  c #CAAE5B",
"G  c #D2AF51",
"H  c #CFB652",
"J  c #C9B255",
"K  c #CCB25E",
"L  c #CDB35E",
"P  c #CCB35F",
"I  c #D1B053",
"U  c #D2B750",
"Y  c #D7B750",
"T  c #D0B357",
"R  c #D4B157",
"E  c #D1B554",
"W  c #D3B851",
"Q  c #D6B45A",
"!  c #D2B25D",
"~  c #E2BE43",
"^  c #E5BF40",
"/  c #CAAF6A",
"(  c #C8B360",
")  c #CDB261",
"_  c #D3B964",
"`  c #E4C546",
"'  c #E5C647",
"]  c #EDC240",
"[  c #EEC046",
"{  c #EAC445",
"}  c #E6CA43",
"|  c #E0C748",
" . c #E0C84E",
".. c #F2C242",
"X. c #F7CC41",
"o. c #F5C549",
"O. c #F1C84C",
"+. c #E0C457",
"@. c #EAC550",
"#. c #E5C95C",
"$. c #F9CF56",
"%. c #F4D058",
"&. c #F3CF6E",
/* pixels */
"  X S ( X   ",
"- H |  .J ; ",
"$ m f } W $ ",
"* 8 k %.I % ",
"F { y $.&./ ",
"T j 1 X.@.L ",
"V g s 1 p E ",
"C y 3 3 e Y ",
"c z d > x N ",
"V ..< , u N ",
"G o.6 5 i v ",
"Q [ q 4 a R ",
"Z O.0 r ] ! ",
"L ~ w 7 ^ ) ",
"% n h l 9 = ",
"X U ` ` b X ",
"+ S #.+.L + ",
"  : F _ X   "
};
