/* XPM */
static char *e960de48b78d459696bba89ec5a4409eOWFFwX90n00GmKOe[] = {
/* columns rows colors chars-per-pixel */
"7 18 114 2 ",
"   c None",
".  c #3A2700",
"X  c #3D2700",
"o  c #392A00",
"O  c #3C2800",
"+  c #3D2800",
"@  c #3C2900",
"#  c #3C2A00",
"$  c #3F2A00",
"%  c #3D2809",
"&  c #3E2B0A",
"*  c #412600",
"=  c #412700",
"-  c #412800",
";  c #432B00",
":  c #442B00",
">  c #432C00",
",  c #442D00",
"<  c #452D00",
"1  c #442D03",
"2  c #402A05",
"3  c #482D00",
"4  c #413000",
"5  c #433000",
"6  c #473200",
"7  c #4A3000",
"8  c #C89B02",
"9  c #CF9D00",
"0  c #D49E0A",
"q  c #D1A100",
"w  c #D4A10A",
"e  c #DBA414",
"r  c #DFB620",
"t  c #D0AD35",
"y  c #D3B53D",
"u  c #E1B121",
"i  c #E7B224",
"p  c #E4BA28",
"a  c #EEBF29",
"s  c #ECBF2E",
"d  c #F2BC24",
"f  c #E3BD36",
"g  c #EDBE32",
"h  c #EFBF37",
"j  c #E9B939",
"k  c #EDBE3A",
"l  c #F3C21F",
"z  c #EEC223",
"x  c #EFC32C",
"c  c #F2C220",
"v  c #F8C327",
"b  c #E1C233",
"n  c #EBC033",
"m  c #EAC133",
"M  c #EAC739",
"N  c #EAC43B",
"B  c #EDC438",
"V  c #ECC539",
"C  c #EECB3D",
"Z  c #F2C43B",
"A  c #D0AF44",
"S  c #CFB44D",
"D  c #D6B742",
"F  c #D7B843",
"G  c #D2B24B",
"H  c #D3B24B",
"J  c #D5B24C",
"K  c #D5B54E",
"L  c #C4AA55",
"P  c #CDAF57",
"I  c #C6AC58",
"U  c #C5AF5A",
"Y  c #CAAF58",
"T  c #CBAF5C",
"R  c #CFB652",
"E  c #C9B255",
"W  c #CEB155",
"Q  c #CCB25E",
"!  c #CCB35F",
"~  c #D1B053",
"^  c #D5B351",
"/  c #D1B450",
"(  c #D2B750",
")  c #D5B254",
"_  c #D4B157",
"`  c #D8B454",
"'  c #D3B851",
"]  c #D6B45A",
"[  c #D2B25D",
"{  c #D5B958",
"}  c #E2BE43",
"|  c #E5BF40",
" . c #C8B360",
".. c #CDB261",
"X. c #CFB46F",
"o. c #D3B964",
"O. c #E4C546",
"+. c #E5C647",
"@. c #EDC240",
"#. c #ECC542",
"$. c #EEC046",
"%. c #EBC546",
"&. c #E6CA43",
"*. c #E0C748",
"=. c #E0C84E",
"-. c #F1C145",
";. c #F7CC41",
":. c #F1C84C",
">. c #E0C457",
",. c #E5C95C",
"<. c #F0CB56",
"1. c #F3CF57",
"2. c #F7CD54",
"3. c #EFCB6A",
/* pixels */
"  + U  .+     ",
"1 R *.=.E 2   ",
"= F b &.' =   ",
"3 t N 1.~ :   ",
"T %.V 2.3.X.o ",
"W f x ;.<.L 5 ",
"/ V z 8 #.{ . ",
"K n c q n G 5 ",
"G Z 9 l s A 6 ",
"^ j 0 v g J 1 ",
"_ -.e d h ` - ",
"] $.i w k _ 1 ",
"P :.u a @.[ X ",
"Q } p r | ..+ ",
"- D N C y >   ",
"+ / O.O.S +   ",
"% U ,.>.Q %   ",
"  7 Y o.+     "
};
