/* XPM */
static const char *Q3JhdGU_[] = {
/* columns rows colors chars-per-pixel */
"106 106 55 1 ",
"  c #010000",
". c #0B0604",
"X c #130A06",
"o c #170C08",
"O c #1A0E09",
"+ c #1E100B",
"@ c #22120C",
"# c #29160F",
"$ c #2B1710",
"% c #2D1911",
"& c #331C13",
"* c #391F15",
"= c #3E2117",
"- c #3F2218",
"; c #402217",
": c #43241A",
"> c #48271C",
", c #4C291D",
"< c #512C1F",
"1 c #542D21",
"2 c #582F22",
"3 c #573021",
"4 c #5A3124",
"5 c #623526",
"6 c #673927",
"7 c #693A27",
"8 c #653728",
"9 c #683929",
"0 c #6C3B28",
"q c #6E3C29",
"w c #723E2C",
"e c #74402B",
"r c #74402D",
"t c #79422D",
"y c #7C442E",
"u c #7C442F",
"i c #7E4530",
"p c #80462F",
"a c #814730",
"s c #834831",
"d c #874A32",
"f c #884A32",
"g c #8B4C33",
"h c #8A4C34",
"j c #8F4E35",
"k c #904F37",
"l c #905036",
"z c #925137",
"x c #935138",
"c c #945239",
"v c #97543B",
"b c #98553C",
"n c #9C583F",
"m c #9F5A41",
"M c #A05B42",
/* pixels */
"::::::::::::::::::::::::::::::::::::::::::::::::::::::::::::::::::::::::::::::::::::::::::::::::::::::::::",
"::::::::::::::::::::::::::::::::::::::::::::::::::::::::::::::::::::::::::::::::::::::::::::::::::::::::::",
":::>>>>>>>>>>>>>>>>>>>>>>>>>>>>>>>>>>>>>>>>>>>>>>>>>>>>>>>>>>>>>>>>>>>>>>>>>>>>>>>>>>>>>>>>>>>>>>>>>>>>:::",
"::::1gjzccccccccccccccccccccccccccccccccccccccccccccccccccccccccccccccccccccccccccccccccccccccccccjjg1::::",
":::4:1gjvMMMMMMMMMMMMMMMMMMMMMMMMMMMMMMMMMMMMMMMMMMMMMMMMMMMMMMMMMMMMMMMMMMMMMMMMMMMMMMMMMMMMMMMmxjg1:4:::",
":::j4:1gjzxxxxxxxxxxxxxxxxxxxxxxxxxxxxxxxxxxxxxxxxxxxxxxxxxxxxxxxxxxxxxxxxxxxxxxxxxxxxxxxxxxxxxxkjg1:4j:::",
":::jj4:1gjjjjjjjjjjjjjjjjjjjjjjjjjjjjjjjjjjjjjjjjjjjjjjjjjjjjjjjjjjjjjjjjjjjjjjjjjjjjjjjjjjjjjjjjg1:4jj:::",
":::ccj4:1gjjjjjj:X&djjjjjjjjjjjjjjjjjjjjjjjjjjjjjjjjjjjjjjjjjjjjjjjjjjjjjjjjjjjjjjjjjja$X,jjjjjjg1:4jha:::",
":::cmzj4:1gjjjj4   :jjjjjjjjjjjjjjjjjjjjjjjjjjjjjjjjjjjjjjjjjjjjjjjjjjjjjjjjjjjjjjjjjj&   0jjjjg1:4jjta:::",
":::cMcjj4:1gjjj<   &jjjjjjjjjjjjjjjjjjjjjjjjjjjjjjjjjjjjjjjjjjjjjjjjjjjjjjjjjjjjjjjjjj#   4jjjg1:4jjhra:::",
":::cMcjjj4:1gjjaX  qjjjjjjjjjjjjjjjjjjjjjjjjjjjjjjjjjjjjjjjjjjjjjjjjjjjjjjjjjjjjjjjjjj5  odjjg1:4jjjhra:::",
":::cMcjjjj4:1gjjd7ajjjjjjjjjjjjjjjjjjjjjjjjjjjjjjjjjjjjjjjjjjjjjjjjjjjjjjjjjjjjjjjjjjjjy7fjjg1:4jjjjhra:::",
":::cMcjjjjj4:1gjjjjjjjjjjjjjjjjjjjjjjjjjjjjjjjjjjjjjjjjjjjjjjjjjjjjjjjjjjjjjjjjjjjjjjjjjjjjg1:4jjjjjhra:::",
":::cMcjjjjjj4:1girrrrrrrrrrrrrrrrrrrrrrrrrrrrrrrrrrrrrrrrrrrrrrrrrrrrrrrrrrrrrrrrrrrrrrrrdg1:4jjjjjjhra:::",
":::cMcjd<<fjj4:1gsyyyyyyyyyyyyyyyyyyyyyyyyyyyyyyyyyyyyyyyyyyyyyyyyyyyyyyyyyyyyyyyyyyyyyydg1:4jjd<1fjhra:::",
":::cMcj@  #jjj4:>>>>>>>>>>>>><1111111111111111111111111122111111111122111111<>>>>>>>>>>>>>:4jjjO  &jhra:::",
":::cMcs    fhdj>>11111111111,:>=============:>;===============->>==========>:,11111111111>>jzxt    jhra:::",
":::cMcjX  Ojhrf,<jjjjjjjjjbbk<:#XXXXXXXXXXXXXXXXXXXXXXXXXXXXXXXXXXXXXXXXXX#:1jzjjjjjjjjjj,,jmxg.  @jhra:::",
":::cMcjy==yjhra,<jjjjjjjjjzmmk<::>>>>>>>>=*><4,>>>>>>>>>>>>>**>41>>>>>>>>::1jmmkjjjjjjjjj,,cMxjt*=ajhra:::",
":::cMcjjjjjjhra,<jjjje<tjjjzmmk<:14444444,:29r54444444444444>>4wq44444441:1jmmkjjjj54fjjj,,cMxjjjjjjhra:::",
":::cMcjjjjjjhra,<jjj7   ejjjzmmj<:1444444,:29r54444444444444>>4wq4444441:1jmmkjjjj*  +jjj,,cMxjjjjjjhra:::",
":::cMcjjjjjjhra,<jjj*   >jjjjzmmk<:144444,:29r54444444444444>>4wq444441:1jmmkjjjjj    tjj,,cMxjjjjjjhra:::",
":::cMcjjjjjjhra,<jjj<   4jjjjjzmmk<:14444,:29r44444444444444>>4wq44441:1jmmkjjjjjj+  .fjj,,cMxjjjjjjhra:::",
":::cMcjjjjjjhra,<jjjj>#<jjjjjjjzmmk<:1444,:29r44444444444444>:4wq4441:1jmmkjjjjjjjy*%wjjj,,cMxjjjjjjhra:::",
":::cMcjjjjjjhra,<jjjjjjjjjjjjjjjzmmk<:144,:29r44444444444444>>4wq441:1jmmjjjjjjjjjjjjjjjj,,cMxjjjjjjhra:::",
":::cMcjjjjjjhra,<jjjjjjjjjjjjjjjjzmmk<:14,:29r44444444444444>>4wq41:1jmmjjjjjjjjjjjjjjjjh,,cMxjjjjjjhra:::",
":::cMcjjjjjjhra,<jdjjjjjjjjjjjjjjjzmmk1:1,:29r44444444444444>>4wq1:1jmmkjjjjjjjjjjjjjjjia,,cMxjjjjjjhra:::",
":::cMcjjjjjjhra,<jtsjjjjjjjjjjjjjjjzmmk1:>:29r44444444444444>>4w5:1jmmzjjjjjjjjjjjjjjjirs,,cMxjjjjjjhra:::",
":::cMcjjjjjjhra,>dirsjjjjjjjjjjjjjjjzmmk1::29r44444444444444>>45>1jmmzjjjjjjjjjjjjjjjirtd>,cMxjjjjjjhra:::",
":::cMcjjjjjjhra1:,dirsjjjjjjjjjjjjjjjzmmk1:<9r44444444444444>:1>1jmmzjjjjjjjjjjjjjjjirtd,:1cMxjjjjjjhra:::",
":::cMcjjjjjjhra4>:,dirsjjjjjjjjjjjjjjjzmMk1>4r44444444444444>::1jmmzjjjjjjjjjjjjjjjartd,:>4cMxjjjjjjhra:::",
":::cMcjjjjjjhra4:@:,dirsjjjjjjjjjjjjjjjzmmk1>544444444444444>:1jmmzjjjjjjjjjjjjjjjartd,:@:4cMxjjjjjjhra:::",
":::cMcjjjjjjhra4:X@:,dirsjjjjjjjjjjjjjjjzmmj1:14444444444441:1jmmzjjjjjjjjjjjjjjjartd,:@X:4cMxjjjjjjhra:::",
":::cMcjjjjjjhra4>OX@:,dirsjjjjjjjjjjjjjjjzmmk1:144444444441:1jmmzjjjjjjjjjjjjjjjartd,:@XO>4cMxjjjjjjhra:::",
":::cMcjjjjjjhra4,,OX@:,dirajjjjjjjjjjjjjjjzmmk1:1444444441:1jmmzjjjjjjjjjjjjjjjartd,:@XO1,4cMxjjjjjjhra:::",
":::cMcjjjjjjhra4,4,OX@:,dirajjjjjjjjjjjjjjjzmmk1:14444441:1jmmzjjjjjjjjjjjjjjjartd,:@XO14,4cMxjjjjjjhra:::",
":::cMcjjjjjjhra4,44,OX@:,dirajjjjjjjjjjjjjjjzmmj1:144441:1jmmzjjjjjjjjjjjjjjjartd,:@XO144,4cMxjjjjjjhra:::",
":::cMcjjjjjjhra4,444,OXO:,dirajjjjjjjjjjjjjjjzmmk1:1441:1jmmzjjjjjjjjjjjjjjjartd,:#XO1444,4cMxjjjjjjhra:::",
":::cMcjjjjjjhra4,4444,OX+:,dirajjjjjjjjjjjjjjjzmmk1:11:1jmmzjjjjjjjjjjjjjjjartd,:@XO14444,4cMxjjjjjjhra:::",
":::cMcjjjjjjhra4,44444>oX@:,dirajjjjjjjjjjjjjjjzmmk1::1jmmzjjjjjjjjjjjjjjjartd,:+X+444444,4cMxjjjjjjhra:::",
":::cMcjjjjjjhra4,444441=OX#:,dirajjjjjjjjjjjjjjjzmmj11jmmzjjjjjjjjjjjjjjjartd,:OXO6844444,4cMxjjjjjjhra:::",
":::cMcjjjjjjhra4,444441:>OX@:,dirajjjjjjjjjjjjjjjkbjyjmmzjjjjjjjjjjjjjjjartd,:@XO1r844444,4cMxjjjjjjhra:::",
":::cMcjjjjjjhra4,444441:13OX@:,dirajjjjjjjjjjjjjjjjdjmmzjjjjjjjjjjjjjjjartd,:@XO>5r844444,4cMxjjjjjjhra:::",
":::cMcjjjjjjhra4,444441:155OX@:,dirajjjjjjjjjjjjjjdjmmzjjjjjjjjjjjjjjjartd,:@XO=,5r844444,4cMxjjjjjjhra:::",
":::cMcjjjjjjhra4,444441:15r1OX@:,dirajjjjjjjjjjjjdjmmzjjjjjjjjjjjjjjjartd,:@XO,:,5r844444,4cMxjjjjjjhra:::",
":::cMcjjjjjjhra4,444441:15r5,OX@:,dirajjjjjjjjjjdjmmzjjjjjjjjjjjjjjjartd,:@XO<1:,5r844444,4cMxjjjjjjhra:::",
":::cMcjjjjjjhra4,444441:15r54,OX@:,dirajjjjjjjjdjmmzjjjjjjjjjjjjjjjartd,:@XO<41:,5r844444,4cMxjjjjjjhra:::",
":::cMcjjjjjjhra4,444441:15r544,OX@:,dirajjjjjjdjmmzjjjjjjjjjjjjjjjartd,:@XO<441:,5r844444,4cMxjjjjjjhra:::",
":::cMcjjjjjjhra4,444441:15r5444,OX@:,dirajjjjfjmmzjjjjjjjjjjjjjjjartd,:@XO,4441:,5r844444,4cMxjjjjjjhra:::",
":::cMcjjjjjjhra4,444441:15r54444,OX@:,dirajjfkmmzjjjjjjjjjjjjjjjartd,:@XO,44441:,5r844444,4cMxjjjjjjhra:::",
":::cMcjjjjjjhra4,444441:15r544444,OX@:,diyjdjmmzjjjjjjjjjjjjjjjsrtd,:@XO,444441:,5r844444,4cMxjjjjjjhra:::",
":::cMcjjjjjjhra4,444441:15r5444444,OX@:,djajmmzjjjjjjjjjjjjjjjsrtd,:@XO,4444441:,5r844444,4cMxjjjjjjhra:::",
":::cMcjjjjjjhra4,444441:15r54444444,OX@:,tjmmzjjjjjjjjjjjjjjjsrtd,:@XO,44444441:,5r844444,4cMxjjjjjjhra:::",
":::cMcjjjjjjhra4,444441:15r544444444,O#:1jmmzjjjjjjjjjjjjjjjsrtda<:#O,444444441:,5r844444,4cMxjjjjjjhra:::",
":::cMcjjjjjjhra4,444441:15r5444444444,:1jmmxjjjjjjjjjjjjjjjsrtffjj<:,4444444441:,5r844444,4cMxjjjjjjhra:::",
":::cMcjjjjjjhra4,444441:15r5444444441:1jmmxjjjjjjjjjjjjjjjsrtdfjbmk<:1444444441:,5r844444,4cMxjjjjjjhra:::",
":::cMcjjjjjjhra4,444441:15r544444441:1jmmxjjjjjjjjjjjjjjjsrtddjjkmmk<:144444441:,5r844444,4cMxjjjjjjhra:::",
":::cMcjjjjjjhra4,444441:15r54444441:1jmmxjjjjjjjjjjjjjjjsrtfdjjjjkmmk<:14444441:,5r844444,4cMxjjjjjjhra:::",
":::cMcjjjjjjhra4,444441:15r5444441:1jmmxjjjjjjjjjjjjjjjdrtffjjjjjjknmk<:1444441:,5r844444,4cMxjjjjjjhra:::",
":::cMcjjjjjjhra4,444441:15r544441:1jmmxjjjjjjjjjjjjjjjdrtffjjjjjjjjknmk1:144441:,5r844444,4cMxjjjjjjhra:::",
":::cMcjjjjjjhra4,444441:15r54441:1jmmxjjjjjjjjjjjjjjjdrtddjjjjjjjjjjknmk1:14441:,5r844444,4cmxjjjjjjhra:::",
":::cMcjjjjjjhra4,444441:15r5441:1jmmxjjjjjjjjjjjjjjjdrtfdjjjjjjjjjjjjjnmk1:1441:,5r844444,4cMxjjjjjjhra:::",
":::cMcjjjjjjhra4,444441:15r541:1jmmxjjjjjjjjjjjjjjjsrtffjjjjjjjjjjjjjjjnmk1:141:,5r844444,4cMxjjjjjjhra:::",
":::cMcjjjjjjhra4,444441:15r51:1jmmxjjjjjjjjjjjjjjjsrtddjjjjjjjjjjjjjjjjjnmk1:11:,5r844444,4cMxjjjjjjhra:::",
":::cMcjjjjjjhra4,444441:15r4:1jmmxjjjjjjjjjjjjjjjsrtdyjtijjjjjjjjjjjjjjjjnmk1:<:,5r844444,4cMxjjjjjjhra:::",
":::cMcjjjjjjhra4,444441:155>1jmmxjjjjjjjjjjjjjjjsrtd,,dirijjjjjjjjjjjjjjjjnmk1::,5r844444,4cMxjjjjjjhra:::",
":::cMcjjjjjjhra4,444441:14>1jmmxjjjjjjjjjjjjjjjdrtd,::,dirijjjjjjjjjjjjjjjjnmk1:,5r844444,4cMxjjjjjjhra:::",
":::cMcjjjjjjhra4,444441:,>1jmmxjjjjjjjjjjjjjjjdrtd,:@@:,dirijjjjjjjjjjjjjjjjnmk1:2r844444,4cMxjjjjjjhra:::",
":::cMcjjjjjjhra4,444441::1jmmxjjjjjjjjjjjjjjjdrtd,:@XX@:,dirijjjjjjjjjjjjjjjjnmj1:5844444,4cMxjjjjjjhra:::",
":::cMcjjjjjjhra4,44444,:1jmmxjjjjjjjjjjjjjjjdrtd,:@XOOX@:,dirijjjjjjjjjjjjjjjjnmk1>444444,4cMxjjjjjjhra:::",
":::cMcjjjjjjhra4,44441:1jmmxjjjjjjjjjjjjjjjdrtd,:@XO,<OX@:,dirijjjjjjjjjjjjjjjjnmk1>14444,4cMxjjjjjjhra:::",
":::cMcjjjjjjhra4,4441:1jmMxjjjjjjjjjjjjjjjdrtd,:@XO,44<OX@:,dirijjjjjjjjjjjjjjjjnmk1:1444,4cMxjjjjjjhra:::",
":::cMcjjjjjjhra4,441:1jmMxjjjjjjjjjjjjjjjdrtd,:@XO,4444<OX@:,dirijjjjjjjjjjjjjjjjnmk1:144,4cMxjjjjjjhra:::",
":::cMcjjjjjjhra4,41:1jmMxjjjjjjjjjjjjjjjdrtd,:@Xo,444444<OX@:,dirijjjjjjjjjjjjjjjjnmk1:14,4cMxjjjjjjhra:::",
":::cMcjjjjjjhra4,1:1jmMxjjjjjjjjjjjjjjjdrtd,:#Xo,44444444<OX+:,diryjjjjjjjjjjjjjjjjnmk1:1,4cMxjjjjjjhra:::",
":::cMcjjjjjjhra4>:1jmMxjjjjjjjjjjjjjjjdrtd,:@XO,4444444444<OXO:,diryjjjjjjjjjjjjjjjjnmk1:>4cMxjjjjjjhra:::",
":::cMcjjjjjjhra<:1jmmxjjjjjjjjjjjjjjjdrtd,:@XO,444444444444<OX@:,diryjjjjjjjjjjjjjjjjnmk1:1cMxjjjjjjhra:::",
":::cMcjjjjjjhra,,jmMxjjjjjjjjjjjjjjjdrtd,:OXO544444444444444:OX#:,diryjjjjjjjjjjjjjjjjnmf,,cMxjjjjjjhra:::",
":::cMcjjjjjjhra,<xMxjjjjjjjjjjjjjjjdrtd,:+Xo1r54444444444444>=OX#:,diryjjjjjjjjjjjjjjjjnj,,cMxjjjjjjhra:::",
":::cMcjjjjjjhra,<xxjjjjjjjjjjjjjjjdrtd,:@XX>9r44444444444444>><OX@:,diryjjjjjjjjjjjjjjjjj,,cMxjjjjjjhra:::",
":::cMcjjjjjjhra,<jjjjjjjjjjjjjjjjdrtd,:@XX*29r54444444444444>>45OX@:,diryjjjjjjjjjjjjjjjj,,cMxjjjjjjhra:::",
":::cMcjjjjjjhra,<jjjjp5sjjjjjjjjdrtd,:@Xo-:29r54444444444444>>4w5OX@:,diryjjjjjjjjjw7jjjj,,cMxjjjjjjhra:::",
":::cMcjjjjjjhra,<jjjw  .tjjjjjjdrtd,:@Xo,,:29r44444444444444>>4wq<OX@:,diryjjjjjjj>  #jjj,,cMxjjjjjjhra:::",
":::cMcjjjjjjhra,<jjj*   >jjjjjdrtd,:@Xo,4,:29r44444444444444>>4wq4<OX@:,diryjjjjjj.   tjj,,cMxjjjjjjhra:::",
":::cMcjjjjjjhra,<jjj>   4jjjjdrtd,:@Xo,44,:29r44444444444444>:4wq44<OX@:,diryjjjjjO   djj,,cMxjjjjjjhra:::",
":::cMcjjjjjjhra,<jjjf=O:jjjjdrtd,:@Xo,444,:29r44444444444444>>4wq4441OX@:,diryjjjje#+5jjj,,cMxjjjjjjhra:::",
":::cMcjjtyjjhra,<jjjjjjjjjjdrtd,:@Xo,4444,:29r44444444444444>>4wq44441OX@:,diryjjjjjjjjjj,,cMxjjtyjjhra:::",
":::cMcj:  >jhra,<jjjjjjjjjhyid,:@Xo,44444,:29r44444444444444>>4wq444441OX@:,diryjjjjjjjjj,,cMxj*  ,jhra:::",
":::cMcd    fhrf,<jjjjjjjjjjjd,:@Xo>444444,:29r44444444444444>>4wq4444441OX@:,dhhjjjjjjjjj,,zmxy   .jhra:::",
":::cMcg.  .jhdg>>,,,,,,,,,,,>:::::>>>>>>>>>>>,>>>>>>>>>>>>>>>>>,,>>>>>>>>::::>,,,,,,,,,,,>>gxxd   Xjhra:::",
":::cMcj5XX5jjg1:>,,,,,,,,,,,,455555555555555555555555555555555555555555555554,,,,,,,,,,,,>:1gjj4Xo9jhra:::",
":::cMcjjjjjjg1:4jzbbbbbbbbbbbbbbbbbbbbbbbbbbbbbbbbbbbbbbbbbbbbbbbbbbbbbbbbbbbbbbbbbbbbbbvj4:1gjjjjjjhra:::",
":::cMcjjjjjg1:4jzmMMMMMMMMMMMMMMMMMMMMMMMMMMMMMMMMMMMMMMMMMMMMMMMMMMMMmmMMMMMMMMMMMMMMMMMbj4:1gjjjjjhra:::",
":::cMcjjjjg1:4jjjjjjjjjjjjjjjjjjjjjjjjjjjjjjjjjjjjjjjjjjjjjjjjjjjjjjjjjjjjjjjjjjjjjjjjjjjjjj4:1gjjjjhra:::",
":::cMcjjjg1:4jjj>O*fjjjjjjjjjjjjjjjjjjjjjjjjjjjjjjjjjjjjjjjjjjjjjjjjjjjjjjjjjjjjjjjjjjd&O<jjj4:1gjjjhra:::",
":::cMxjjg1:4jjj5   :jjjjjjjjjjjjjjjjjjjjjjjjjjjjjjjjjjjjjjjjjjjjjjjjjjjjjjjjjjjjjjjjjj*   qjjj4:1gjjjra:::",
":::cbjjg1:4jjjj,   &jjjjjjjjjjjjjjjjjjjjjjjjjjjjjjjjjjjjjjjjjjjjjjjjjjjjjjjjjjjjjjjjjj#   4jjjj4:1gjjda:::",
":::zjjg1:4jjjjjy.  7jjjjjjjjjjjjjjjjjjjjjjjjjjjjjjjjjjjjjjjjjjjjjjjjjjjjjjjjjjjjjjjjjj4  Xdjjjjj4:1gjjd:::",
":::jjg1:4jjjjjjjd5yjjjjjjjjjjjjjjjjjjjjjjjjjjjjjjjjjjjjjjjjjjjjjjjjjjjjjjjjjjjjjjjjjjjjt5djjjjjjj4:1gjj:::",
":::jg1:4jjjjjjjjjjjjjjjjjjjjjjjjjjjjjjjjjjjjjjjjjjjjjjjjjjjjjjjjjjjjjjjjjjjjjjjjjjjjjjjjjjjjjjjjjj4:1gj:::",
":::g1:4jjfddddddddddddddddddddddddddddddddddddddddddddddddddddddddddddddddddddddddddddddddddddddhjj4:1g:::",
":::1:4jjarrrrrrrrrrrrrrrrrrrrrrrrrrrrrrrrrrrrrrrrrrrrrrrrrrrrrrrrrrrrrrrrrrrrrrrrrrrrrrrrrrrrrrrrdjj4:1:::",
":::>4ffdaaaaaaaaaaaaaaaaaaaaaaaaaaaaaaaaaaaaaaaaaaaaaaaaaaaaaaaaaaaaaaaaaaaaaaaaaaaaaaaaaaaaaaaaaafff4>:::",
"::::::::::::::::::::::::::::::::::::::::::::::::::::::::::::::::::::::::::::::::::::::::::::::::::::::::::",
"::::::::::::::::::::::::::::::::::::::::::::::::::::::::::::::::::::::::::::::::::::::::::::::::::::::::::",
"::::::::::::::::::::::::::::::::::::::::::::::::::::::::::::::::::::::::::::::::::::::::::::::::::::::::::"
};
