/* XPM */
static char *result[] = {
/* columns rows colors chars-per-pixel */
"128 128 50 1 ",
"  c #23140A",
". c #29170B",
"X c #2C190C",
"o c #341D0E",
"O c #391F0F",
"+ c #3A200F",
"@ c #3B2110",
"# c #1E373C",
"$ c #1E383D",
"% c #322B23",
"& c #2C302C",
"* c #3D362E",
"= c #2B3636",
"- c #243739",
"; c #283738",
": c #20383C",
"> c #343632",
", c #393630",
"< c #422614",
"1 c #462916",
"2 c #482A17",
"3 c #462918",
"4 c #4E2E1B",
"5 c #502F1C",
"6 c #4F301D",
"7 c #50301D",
"8 c #4D3426",
"9 c #43352B",
"0 c #4A3528",
"q c #563523",
"w c #5A3623",
"e c #5D3925",
"r c #5F3B28",
"t c #613B26",
"y c #643D29",
"u c #683F2A",
"i c #67402A",
"p c #6C432D",
"a c #70462F",
"s c #1F3B41",
"d c #213E44",
"f c #224146",
"g c #24454B",
"h c #26484F",
"j c #274A51",
"k c #294E54",
"l c #2A5057",
"z c #2B5158",
"x c #315F67",
"c c #326169",
/* pixels */
"cccccccccccccccccccccccccccccccccccccccccccccccccccccccccccccccccccccccccccccccccccccccccccccccccccccccccccccccccccccccccccccccc",
"cccccccccccccccccccccccccccccccccccccccccccccccccccccccccccccccccccccccccccccccccccccccccccccccccccccccccccccccccccccccccccccccc",
"cccccccccccccccccccccccccccccccccccccccccccccccccccccccccccccccccccccccccccccccccccccccccccccccccccccccccccccccccccccccccccccccc",
"cccccccccccccccccccccccccccccccccccccccccccccccccccccccccccccccccccccccccccccccccccccccccccccccccccccccccccccccccccccccccccccccc",
"cccccccccccccccccccccccccccccccccccccccccccccccccccccccccccccccccccccccccccccccccccccccccccccccccccccccccccccccccccccccccccccccc",
"cccccccccccccccccccccccccccccccccccccccccccccccccccccccccccccccccccccccccccccccccccccccccccccccccccccccccccccccccccccccccccccccc",
"cccccccccccccccccccccccccccccccccccccccccccccccccccccccccccccccccccccccccccccccccccccccccccccccccccccccccccccccccccccccccccccccc",
"xxxxxxxxxxxxxxxxxxxxxxxxxxxxxxxxxxxxxxxxxxxxxxxxxxxxxxxxxxxxxxxxxxxxxxxxxxxxxxxxxxxxxxxcxxxxxxxxxxxxxxxxxxxxxxxxxxxxxxxxxxxxxxxx",
"zzzzzzzzzzzzzzzzzzzzzzzzzzzzzzzzzzzzzzzzzzzzzzzzzzzzzzzzzzzzzzzzzzzzzzzzzzzzzzzzzzzzzzzzzzzzzzzzzzzzzzzzzzzzzzzzzzzzzzzzzzzzzzzz",
"zzzzzzzzzzzzzzzzzzzzzzzzzzzzzzzzzzzzzzzzzzzzzzzzzzzzzzzzzzzzzzzzzzzzzzzzzzzzzzzzzzzzzzzzzzzzzzzzzzzzzzzzzzzzzzzzzzzzzzzzzzzzzzzz",
"zzzzzzzzzzzzzzzzzzzzzzzzzzzzzzzzzzzzzzzzzzzzzzzzzzzzzzzzzzzzzzzzzzzzzzzzzzzzzzzzzzzzzzzzzzzzzzzzzzzzzzzzzzzzzzzzzzzzzzzzzzzzzzzz",
"zzzzzzzzzzzzzzzzzzzzzzzzzzzzzzzzzzzzzzzzzzzzzzzzzzzzzzzzzzzzzzzzzzzzzzzzzzzzzzzzzzzzzzzzzzzzzzzzzzzzzzzzzzzzzzzzzzzzzzzzzzzzzzzz",
"zzzzzzzzzzzzzzzzzzzzzzzzzzzzzzzzzzzzzzzzzzzzzzzzzzzzzzzzzzzzzzzzzzzzzzzzzzzzzzzzzzzzzzzzzzzzzzzzzzzzzzzzzzzzzzzzzzzzzzzzzzzzzzzz",
"zzzzzzzzzzzzzzzzzzzzzzzzzzzzzzzzzzzzzzzzzzzzzzzzzzzzzzzzzzzzzzzzzzzzzzzzzzzzzzzzzzzzzzzzzzzzzzzzzzzzzzzzzzzzzzzzzzzzzzzzzzzzzzzz",
"zzzzzzzzzzzzzzzzzzzzzzzzzzzzzzzzzzzzzzzzzzzzzzzzzzzzzzzzzzzzzzzzzzzzzzzzzzzzzzzzzzzzzzzzzzzzzzzzzzzzzzzzzzzzzzzzzzzzzzzzzzzzzzzz",
"zzzzzzzzzzzzzzzzzzzzzzzzzzzzzzzzzzzzzzzzzzzzzzzzzzzzzzzzzzzzzzzzzzzzzzzzzzzzzzzzzzzzzzzzzzzzzzzzzzzzzzzzzzzzzzzzzzzzzzzzzzzzzzzz",
"zzzzzzzzzzzzzzzzzzzzzzzzzzzzzzzzzzzzzzzzzzzzzzzzzzzzzzzzzzzzzzzzzzzzzzzzzzzzzzzzzzzzzzzzzzzzzzzzzzzzzzzzzzzzzzzzzzzzzzzzzzzzzzzz",
"zzzzzzzzzzzzzzzzzzzzzzzzzzzzzzzzzzzzzzzzzzzzzzzzzzzzzzzzzzzzzzzzzzzzzzzzzzzzzzzzzzzzzzzzzzzzzzzzzzzzzzzzzzzzzzzzzzzzzzzzzzzzzzzz",
"zzzzzzzzzzzzzzzzzzzzzzzzzzzzzzzzzzzzzzzzzzzzzzzzzzzzzzzzzzzzzzzzzzzzzzzzzzzzzzzzzzzzzzzzzzzzzzzzzzzzzzzzzzzzzzzzzzzzzzzzzzzzzzzz",
"zzzzzzzzzzzzzzzzzzzzzzzzzzzzzzzzzzzzzzzzzzzzzzzzzzzzzzzzzzzzzzzzzzzzzzzzzzzzzzzzzzzzzzzzzzzzzzzzzzzkzzzzzzzzzzzzzzzzzzzzzzzzzzzz",
"klzzzzzzzzzzzzzzzzzzzzzzzzzzzkkzlzzzzzzzzzzzzzzzzzzzzzzzzzzzzzzzzzzzzzzzzzlzllzlzzzzzzzzzzzzzzzzzlzkjzzzzzzzzzzzzzzzzzzzzzzzzzkh",
"hkzzzzzzzzzzzzzzzzzzzzzzzzkzzhkzlzzzzzzzzzzzzzzzzzlzlzzlzzzzzzzzzzzzzzzzzlzkjjzlzzzzzzzzzzzzzzzzzzzkglzkzzzzzzzzzzzzzzzzzzzzzzk$",
"sjzzzzzzzzzzzzlzhkzkzzzzzzzzjskzlzzzzzzzzzzzzzzzzzlzggzzlzzzllzjjzzzzzzzzlzjdhzzzzzzzzzzzzzzzzzzzzzj$gzzzzzzzzzzzzzzzzzzzzzzzzg$",
"##djjhdkzzzzzlzh#hzzzzzzzzkzd#gzzlzzzzzzlzkklzlzzzzjssjzlzzzlzj$gzkzzzzzzzzg#dzklzzzzzzzzkjzlzzzlzks#sjzkzzzzzkkzkzzzzzzzzzzzks$",
"#$$$$##djzzllkg###jzzzzzzkzf$$#hlzlzzzzlzzf$hlzzzlhs##shlzkklgs#$gzlzzzlzzhs##glllzzzzzzzg#gzzlzzjs$$$$hzkzzzg$fkzkzzzzzzzzzkd$$",
"$$$$$$$##dggg$##$##gkzzzzjs#$$$$glzlzzllld#$#sfggs######sgggs#$$$#fkzzllks##$##glllzzkzzg###$fgfs#$$$$$#$ggfs$$$skzzzzzzzzzks$$$",
";#$$#:$$#$#$##$$$$$$ssdds$#$#$-#$sgklljgs#$$###$###s$$##$$#$s##$$$$#ssss$###$$$#sgklzkhs##-$#$$$$$$$$$$$$$$$$$$$$$fjkzzzkjg#$$$=",
">#$$$$$$#s:$##$$$$$$##:$$$$#$#*-$$$$s$$$##$$$$###s##$$$$$$$###$$$$$$#ss$$##s$$$$#$$#$$##$;>#$#$$$$$$$$$$$$$-$$$$$$##$ddd$$##$$$9",
"8:##$$$$$$$$##$$$$$$$$$$$$$#$=8;s###$$$$#$$$#s;;$#$$$$$$##s-,;$#$$$$$$$$$$$$$$$$$$$$$$$##;8=##$$$$$$$$$#$$;;$#$$$$$$$$$#$$$$$#=q",
"w,##$$:$:$$$#d#$$$$$$$$$$$##$%4*$$##$#$$$$$##-09#$#$$$$$###>w,#$#$$$$$$#$$$$$$$$$$$#$$#$#*e9#:#$#$$$$$$#$-99$##$$$$$$$#;;$$$-*qe",
"tq>##ss##$##*>:#$$$$:$$$$$#$&@7w>#$#$$$$$$#$#*qw,###$$$$##>qqw,#$#$$$#$#>,##$$$$$$$$$#$#=wrq,$#$$$$$$$#$$>qq9##$$$$$##=8q898qqqy",
"iqq9;#####;9qq=#$#$$$$$$$##=8qywq>#$#$$$$#$#*qwqq0;#$##$-9qqewq9;$#$#$;9qq>##$$$$$$$$#$;8wiwq,$#$$$$$#$#,qwqq8=$#$$$-%@4qqqqqqwp",
"ptqqq09,90qqqqq>###$$$#$#$>qqrprqq9;ss####=0qquyqqq8***0qqqriyqqq0*,*0qqqqq*###$$$##$#=qqtayqq0;$#s$$#;9qqttqwq09,99@@3qq8qqqrip",
"pprqqqqqqqqqrqqw0=#$###s=0qqepppeqqq09>,98qqqtuprqqqqqqqwqwipprqqwqwwqqqewqe8=####$#;9qqripirqqq89,,98wqqepptqqqwqqqqqeppurypppp",
"ppprwqqqqqqtpuqwqqq9999qqqqqippppeqqqqqqqqqqrppppiw7qwqqqypppppiwqqqqqqrpiwqqqq0999qqqqwyppppwwqqqqqqqqqrpppiywqqqqqqrpppppppppp",
"ppipitreq47ypppeqqqqqqqqq8eipppppirqqqq8qqwyippppppirwryipppppppiyrwrypppppeqqqqqqqqqqwppppppiu7qqqqqqqtppppppiurwrypppppppppppp",
"ppppappw7677uppuueqqqqqqwyppppppppppyererupppppppppppppppppppppppppppppppppptweqqqqqwtippppppppputrrtyippppppppppppppppppppppppp",
"ppppppi54774tpppppyytrypppppppppppppppppppppppppppppppppppppppppppppppppppppppiyryrupppppppppappipippppppppppppppppppppppppapppp",
"pppppppq6464ypppppppippppppppppppppppppppppppppppppppppppppppppppppppppppppppppappppppppppppaapppppppppppppppppppppppppapppppppp",
"pppppppr776qppppppppppppppppppppppppppppppppppppppappppppppppppppiqqippppppppppppppppppppatq77pipppppputtppppppppppppppppapppppa",
"pppappppueyipppappppppppppppapppppppppppppppppiutipppppppppppppppe44wpppppppppppppppppppi747774tppppppt57upppppppppppppppppppppp",
"pppppppppipppppppppppppppppppppppppppppppppppw6677tipppppapppppppw44wpppppappppppppppppu47777747eppippu7wpppppappppuyppippppappp",
"pppppppppppppppppppappppppppppppppppppppppppw466777wppppppppppppppewipppppppppppppppppi6777774745rppppppppppppppppe45quppppppppp",
"ppppppppppppppppppppapppppppppi77wtppppppppuq6777777tapppppppppppppppppppppppppppppppyq4777777572quppppppppppppppu5545wppppppapp",
"ppppppppppppppppppppppppppppw4775757uppppppt55777774tpppppppppppppppppppappappppppppiw4547777774557apppppppppapppu5754wppppppppp",
"wq5557euppppppppppppppppppp747577575wupppppt54777776tpppppapppppppppppppu7457ppppppay47477777777755tpppppppppppppiq545tppppppppy",
"445574767uppppapppppppppat77777777772tpppppy74757777ipppppppappppppppap7777777ippppt4777777777775747pppppppppppppppwetppppurq666",
"5q55777474epppppppppppppt57747777777q2tppiipw44q7777pppppppppppppppppat7777777tpppp74777777777777745wapppppppppppppppppppt466666",
"77777767475qipppppppppp745747777777up74waappu745547pappppppppppppppppp745777747appw455775777777775745appppppppppppppppppy4757777",
"7777777777774ppppppppu7774777777774tw5747aappayttuppppppapppppppppppppt47777747apy4747747pa77777775747ippppppppppppppppt47577777",
"757777777774547ppppt7577477777777777775747ppppppppppppppppppppapppppppt4775777tay77777747apt57777774745tppppppppapppppp474777776",
"7777777777777577544477777767777777777775777tppppppppapppppppppppppppppu7577777ipw474777477w57777777747447pppppppppppppw477777777",
"67777777767777777777777777777777777777777777tappppppppppppppi777ppppppat54747tat454777777777777777777757747apppppppppp4677777776",
"777767757777777777777777777777777777777777474wppppppppppaa75777557ppppppayttpat277777777777777777777777777547yppppppp7757t747777",
"77776777777777777777777777777777767724475775747ipppppppp77575755777tpaappapppt25777777777777777777777777777574447ww74747tap57777",
"77777777777777775775777777777777472+++17747755745yppppt45775775577757apuppaa747577777777777777777777777777777757777755477pt47577",
"7775777777777776tpp745777777777474+++@+476777774574555557ppt5555774747tpppt74757777777777777777777777777777776677777777777777777",
"774q777777777777pppt75777776777474+++++27747776755777757papat555777747742447577777474<@@<477777777777777777777777777777777777777",
"7746777777777774upp775757777777447<++++47477777777777777ipppi57777777777577777775472++@@++27777777777777777777777777777777777777",
"75767777777777747tw7577777777777774+++147677777677777777tppp75777777777777777777574<++@@++<7467777777777677777777667777777777777",
"777777774777777777777777777767777474444777777777777777745ti777777777777777777777774<+@@@++<4777777747777777777777777777777777777",
"77776542247777777777777767777776777776767777777577777777557777777777577777777777472++@@@+++47772<+<47477767767777777777777777777",
"677444@+@@5777777777777777777777777777777777777777777777577577777777774477777777574<+@++++<4775++++<474777777777772<277777777777",
"777473@+@@247777777777777777777777777777777777775777777777777777774572<<274477774544+@++++17772+++++47477777777777+++67777777777",
"77767<++++34777777777777677777777777777777777777777777777777777777574<+++474777774751@+O+147572O+@+@47577777777774<++64477777777",
"777472++++27777777767777777777777776776777777776777677774777777777574<+++2757777777476446647474<+@+<4447777777777641477777777777",
"7777571++2477777777777777777777777777777767777777777777777777767774772++2774777777677777777774741<146777777777777777777777777777",
"77777777777777777777777777777777777777777767777777777777777776777777476477777777777777777777777767677777777767777777767777777777",
"77777777777774572114574777777777464444747777777777777777777777577777777767777777777777777777677767777777777777777777777777777777",
"777777777777552+@@++@4774777777441+O@@447477777764744774777777777777777777777777777776777777777677777777774772<@<477777767777677",
"77777777777751@+@@+@@@4774777455@++@@@+17747777474@++@<476777777777777777777767777777777777777775777767775772+@@O@44477777776777",
"7776777777574<+@@@@@+++47477745@@@@@@@+O147577572@+@@++<4747677777767677777777776777777777777777777777777475@+@@++17577757777777",
"7577777777473++@@@@@@@+27747473O+@@@@@@@+2776474<+@@@@@+1777777777777745723+<<445777777776647764477777777474+++@+@<7477777777777",
"777777777767@+++@@@@@@+1775472++@@@@@@@@@@477464@+@@@@++<4747777777777751+@@+++17557777776662++@++1454777574<++++@17777777767777",
"777777777747<OO+@@@@@@+147554@++@@@@@@@@@++47572@@@@@@@+<476777777774772++@@@@+@277777774474++@@@@++275777772++++@45477777776676",
"<@<124777757<OO+@@@@@@+157471++<12<@+@@@+++14772@+@@@@@O<47477777777475<++@@@@++<7447774774@+@@@@@+++354474744<<1767777776421<<<",
"@@@@+<4777472@+@@@@@@@+47574++@2766<++@@@@@+1447<+@@@@@@277777777777474@+@@@@@@+<476774474@+@@@@@@@@+@<474777777777777741@+@+@@@",
"@@@@@@+477475@++@@@@@+<4547<+O357472@+@@+@@++4764@++@@o1475767777777574++@@@@@@+@47477444+++@@@@@@@@@+O<47457777777775<+@@@@@@@@",
"@@@@@@++457754<+@@@@+<46552<++347474@+@@@@@++<46741@+<27747777777767574@+@@@@@@O<7744554@+@@@@@@@@@@@@@++274777777762@@@@@@@@@@@",
"@@@@@@++34774572@@@@246653O+@@+4777<@+@@@@@+++17667777777777777777775771+@@@@@+@1747474@@@@@@@@@@@@@@@@@+@<47477772@+@@@@@@@@+@@",
"@@+@@@@@+467777777777454@@+@@@O@32<++@@@@@@@@@+2545777777777777777466674<+@@@@@<644772@@@@@@@@@+@<464<+@@@@@@@1<<++@@@@@@@@@@@@@",
"@@@@@@@@+<6777777774743@++@@@@@@++@@@@@@@@@@@@@@47477777777777574446744742@+@@2474541@@@@@@@@@@@<444641+@@@@@++@++@@@+@@@@@@@@@@",
"@@@@@@++++4444777572<@+@@@@@@@@@@@@@@@@@@@@@@@@@@475777777775723+++@<475774444764743O@@@@@@@@@+@4477464@@@@@@@@@@@@@@@@+@@@@@+@@",
"@@@@+@+++@+<244423@@O+@@@@@@@@@@@@@@@+@@@@@@@@@@+<474777774652@+++@@O+347477474772@@@@@@@@@@+@+@4447476@@@@@@@@@@@@@+@<++@@@@@@@",
"@@++474+++@@@@@@@@@@@@@@@@@@@@@@@@@@@@@@@@@@@@@@@@<4745574753O@@@+@@+@+@24745744<O@@@@@@@@@@+++<4457474@@@@@@@@@@@++<474<+@@@@@@",
"@@+47771@+@@@@@@@@@@@@@+@@@+@oo+@O@@@@@@@@@@@@@@@@O@2455672@O+@@@@@+++@@@@1221@+@@@@@@@@@@@@@++@3574662+@@@@@@@@@@+@35452+@@@@@@",
"@@+47772@+@@@@@@@@@@@@@@@@@+@.XO@O@@@@@@+@@@@@@@@@@@@@333@+@+@@@+@12@+@@@@@@@@@@@@@@@@@@++@@@@@+@24774@@@@@@@@@@@@+@<7771+@@@@@@",
"@@+1547<@+@@@@@@@@@@@@@@@@++@+O@+@@@@@@@@@@@@@@@@@@@@@@@@@@@@@@@O<471+@@@@@@@@+@@@@@@@+@<@+@@@@@@@@<@@@@@@@@@@@@@@@++252++@@@@@@",
"@@@+<1<@+@@@@@@@@@@@@@@@@@@@@@@@@@@@@@@@@@@@@@@@@@@@@@@@@@+@@@@@+@24@@@@@@@@@@@@@@@@@O@1741+@@@@@@@@@@@@@@@@@@@@@@@@@@@@@@@@@@@@",
"@@@@@@+@@@@@@@@@@@@@@@@@@@@@@O@@@@@@@@@@@@@@@@@@@@@@@@@@@@@@@@@@@@@@@@@@@@@@@@@@@@@@@+@4774o@@@@@@@@@@@@@@@@+@@@@@@@@@@@@@@@@@@@",
"@@@@@@@@@+@@@@@@@@++@@@@@@@@@@@@@@@@@@+@@@@@@@@@@@@@@@@@@@@@@@@@@@@@@@@@@@@@@@@@@@@@@+@2773o+@@@@@@@@@@@@@@@@@@@@+@@@@@@+@@@@@@@",
"@@@@@@@@@@@@@@@@@@@+@@@@@@@@@@@@@@@@@@@@@@@@+@@@@@@@@@@@@@@@@@@@@@+@@@@O@@@@@@@@@@@@@@@@<<++@@@@@@@@@@@@@@@@@@@@@@@@@@@@@@@@@@@@",
"@@@@@@@@@@@@@@@@@@+2743@O@@@@@@@@@@+@@@@@@@@@@@@++@@@@@@@@@@@@@@@@O@+oXoO@O@@@@@@@@@@@@@++@@@@@@@@@@@@@@@@@@@@@@@@@@+@@@@@@@@@@@",
"@@@+@@+@@@@@@@@@@+17744@+@@@@@@@@@@@@@@@@@@@@@@@+372@@o@@@@@@@@@@+Oo.   o+@+@@@@@@@@@@@@+@@@@@@@@@@@@@@@@@@@@@@@@@@@@@@@@@@@@@+@",
"@@@@@@@@@@@@@@@@++27747<+O@@@@@@@@@@@@@@@@@@@@@O@474@@@@@@@@@@@@++@o    .oO+@@@@@@@@@@@@@@@@@@@@@@@@@@@@@@@@@@@@@@@@@@@@@@@@@@@@",
"@@@@@@@@@@@@@@@+++14777@+@@@@@@@@@@@@@@@@@@@@@@@+<2<@@@@@@@@@@+@+@+X    .o++@@@@+@@@@@@@@@@@@@@@@@@@@@@@@@@+@@@@@@@@@@@@@@@@@@@@",
"@@@@@@@@@@@@@@@@@@+164@@@@@@@@@@@@@@@@@@@@@@@@@@@@@@+@@@@@@@@@@@++@.     +@+@@@@@@@@@@@@@@@@+@@@@@@@@@@@@@@@@@+@@@@@@@@@@@@@@@@@",
"@@@@@@@@@@@@@@@@@@@@@@@@@@@@@@@@@@@@@@@@@@@@@@@@@@@@@@@@@@@@@@@@@+@+    X@+++@@@@@@@@@@@@@@@@@@@+@@@@@@@@@@@@@@@@@@@@@@@@@@@@@@@",
"@@@@@@@+@@@@@@@@@@@@@@@@@@@@@@@@@@@@+@@@@@@@@@@@@@@@@@@@@@@@@@@@@@+@@oX@@@@@@@@@@@@@@+@@@@@@@@@@@@@@@@@@@@@@@@@@@@@@@@@@+@@@@@@@",
"@@@@@@@@@@+@@@@@@@@@@@@@@@@@@@@@@@@@@@@@@@@@@@@@@@@@@@@@@@@@@@@@@@@@@@@@@@@@@@@@+@@@@@@@@@@@@@@@@@@@@@@@@@@@@@@@@@@@@@@@@@@@@@@@",
"@@@@@@@@@@@@@@@@@@+@@@@@@@@@@@+@@@@@@@@@X.  .o++@+@@@@@@@@@@@@@@@@@@@@@@@@@@@@@@@@@@@@@@@@@@@@@@@@@@@@@@@+@@@@@@@@@@@+@@@@@@@@@@",
"@@@@@@@@@@@@@@@@@@@@@@@@@@@@@@@@@@@@+@o        X+@+@@@@@@@@@@@@@@@@@@@@@@@@@@@@@@@@@@@@@@@@@@@@@@@@@@@@+@@@@@@@@@@@@@@@@@@@@@@+@",
"+@@@@@@@@@@@@@@@@@@@@@@@@@@@@@@@@@@@@o          X@@+@@@@@@@@@@@@@@@@@@@@@@@@@@@@@@@@@@@@@+@@@@@@@@@@@@@@@@@@@@@@@@@@@@@@@@@@@@@@",
"@@@@@@@@@@@@@@@+@@@@@@@@@@@@@@@@@@@@@            o+@+@@@@@@@@@@@@@@@@@@@@@@@@@@@@@@@@@@@@@@@@@@@@@@@@@@@@@@@@@@@@@@@@@@@@@@@@@@@",
"@@@@@@@@@@@@@@@@@@@@@@@@@@@@@@@@@@+@X            .+@+@@@@@@@@@@@@@@@@@@@@@@@@@@+@@@@@@+@@@@@@@@@@@@@+@@@@@@@@@@@@@@@@@@@@@@@@@@@",
"@@@O@oX. .o@@@@@@@@@@@@@@@@@@@@@@@+@X             o@+@@@@@@@@@@@@@@@@@@@@@@@@@@@@+@@@@@@@@@@@@@@O@+Ooo@+@@@@@+@@@@@@@+@@@@@@@@@@",
"@@++o     .o@@@@@@@@@@@@@+@@@@@@@+@@              o@+@@@@@@@@@@@@@@@@@@@@@@@@@@@@@@@@@@@@@@@+@@+@+X  .o@+@@+@@@@@@@@@@@@@@@@@@@@",
"@@+@.     ..+@@@+@@@@@@@@@@@@@@@@++@.             o@O@@@@@@@@@@o@@@+@@@@@+@@@@@@@@@@@@@@@@@@@@+@+X    .+++@@@@@@@@@@@@@+@@@+@@@@",
"@@+@.       ++@@@@@@@@@@@@@@@@@@@@@@.             o@@@@@@@@@@@@@@@@@@@@@@@@@@@@@@+@@@@@@@@@@@@+@OX     o@+@@@@@@@@@@+oX+@+@@@@@@",
"@@+@.      .+@@@@@@@@@+@@@@@@@@@@@@@X            .@@@@@@@@@@@@@@@@@@@@+@@@@@@@@@@@@@@@+@@@@@@@+@+X    .o@+@@@@@@@@@@+   +++@@@@@",
"@@+@X      .+@@@@@@@@@@@@@@@@@@@@@@@@            o@oO@@@@@@@@@@@@@@@@@@@@@@@+@@@@@@@@@@@@@@+@@+@@o    .O++@@@@@@@@@@+   o@+@@+@@",
"@@O+o.    .o@@@@@@@@@@@@@@@@@@@+@@@@@o          Xo@@@@@@@@@@@@@@@@@@@@@@@@@@@@@@@@@@@@@@@@@@@@@+@+o. Xo@+@@@@@@@@@+@+. X@+@@@@@@",
"@@@@@@X  .+@@@@@@@@@@@@@@@@@@@@@@@@+++X        .+@+@@@@@@@@@@@@@@@@@@@@@@@@@@@@@@@@@@@@@@@@@@@@@@@@@@@@@@@@@@@@@@@@@@@@@@+@@@@@@",
"@@@@@@@@@@+@@@@@+@@@+@@@@@@@@@@@@@@@@+@o.     X@@+@@@@@@@@@+@@@@@@@@@@@@@@@@@+@@@@@@@@@@@+@@+@@@@@@@+@@@@@@+@@@@@@@@@@@@@@@@@@@@",
"@@@@@@@@@@@@@@+@@@@@@@@@@@@++@@@@@@@@@@+@+++++@+@@+@@@@@@@@@@@@@@@@@@@@@@@@@@@++@+@@@@@@@@@@@@@@@@@@@@@@@@@@@@@@@@@@@@@@@@@@@@+@",
"@@@@@@@@@@@@@@@@@@@@@@@@@@@@@@@@@@@@@@@@@@@@@@+@@@@@@@@@@@@@@@+@@@@+@@@@@@+@+    o+@+@@@@@@@@@@@@@@@@@@@@@@@@@@@@@@@@@@@@@@@@@@@",
"@@@@@@@@@@@@@@@@@@@@@@@@@@@+@@@@@@@@@@@@@@@@@@@@@@@@@@@@@@@@@@@@@@@@@@@@@+@+      X@++@@@@@@@@@@@@@@@@@@@@@@@@@@@@+@@@@@@@@@@@@@",
"@@@@@@@@@@@@@@@@@@@@@@@@@@@@@@@@@@@@@@@@@@@@@@@@@@@@@@@@@@@@@@@@@@@@@@+@+@@X      .@@+@@@@+@@@@@@@+@@@@@@@@@@+@@@@@@@@@@@@@@@@@@",
"@@@@@@@@@@@@@@@@+@@@@@@@@@@@@@@@@@@@@@@@@@@@@@@@@@@@@@@@@@@@@@@@@@@@@@@@+@+        o@+@@@@@@@@@@@@@@@@@@@@@@@@@@@@@@@@@@@+@@@@@@",
"@@@@@@@@@@@@@@@@@@@@@+@@@@@@@@@@@@@@@@@@@@@@@@@@@@@@@@@@+@@@@@@@@@@@@@@@+@+        o@+@@@@@@@@@@@@@@@@@@+@@@@@@@@@@@@@@@@@@@@@+@",
"@@@@@@@@@@@@@@@@@@@@@@@@@@@@@@@@@@o@@@@@@@@@@@@@@@@@@@@@@@+@@@@+@@@@@@@@+@@.       +@+@@@@@+@@@@@@@@@@@@@@@@@@@@@@@@+@@@@@@@+@@@",
"@@@@@@@@@@@@@@@@@@@+@@@@@@@@+@@@@@@@@@@@@@@@@@@@@@@@@@@@@@@@@@@@@@@@@@@@@+@o      o@+@@@@@@@@@@@@@@@@+@@@@+@@@@@@@@@@@@@@@@@@@@@",
"@@@@@@@@@@@@@+@@@@@@@@@@@@@@@@@@@@@@@@@@@@@@@@@@@@@@@@@@@@@@@@@@@@+@@@@@@@+@+.   o+++@@@@@@@@@@@@@@@@@@@@@@@@@@@+@@@@@@@@@@@@@@@",
"@@@@@+@@@@@@@@@@@@@@@@@@@@@@@@@@@@@@@@@@@@@@@@@+@@@+@@@@@@@@@@@@@@@@@@@+@@@@@@@@@+@@@@@@@@@@@@@@@@@@@@@@@@@@@@@@@@@@@@@@@@@@@@@@",
"@@@@@@@@@+@@@@@@@@@@@@@@@@@@@@@@@@@@@@@@@+@@@@@@@@@@@@@@+@@@@@@@@@@+@@@@@@@@@@@@@@@@@@@@@@@@@@@@@@@@@@@@@@@@@@@@@@@@@@@@@@@+@@@@",
"@+@@@@@@@@@@@@@@@@@@@+@@@@@@@@@@@@@@@@@@@@@@@@@@@@@@@@@@@@@@@@+@@@@@@@@@@@@@@@@@@@@@@@@@@@@@+@@@@@@@@@@@@@@@@@@@@@@@@@@@@@@@@+@@",
"@@@@@@@@@@@@@@@@@@@@@@@@@@@@@+@@+@@@@@@@@@@@@@@@@@@@@+@@@@@@@@@@@@@@@@@@+@@@@@@@@@@@@@+@@@@@@@@@@@@@+@@@@@@+@@@@@@@@@+@@@@@@@@@@",
"@@@@@@@@@@@@@@@@+@@@@@@@@@@@@@@@@@@@@@@@@@@@@@@@@@@@@@@@@@@@@@@@@@@@@@@@@@@@@@@@@@@@@@@@@@@@@@@@@@@@@@@@@@@@@@@@+@@@@@@@@@@@@@@@"
};
