/* XPM */
static char *result[] = {
/* columns rows colors chars-per-pixel */
"128 128 52 1 ",
"  c #23140A",
". c #29170B",
"X c #2D190C",
"o c #341D0E",
"O c #391F0E",
"+ c #3A200F",
"@ c #3B2110",
"# c #1E373C",
"$ c #1E383D",
"% c #3D362E",
"& c #2B3636",
"* c #24373A",
"= c #283738",
"- c #2E3939",
"; c #343632",
": c #393530",
"> c #343B37",
", c #422614",
"< c #462916",
"1 c #482A17",
"2 c #4E2E1B",
"3 c #502F1C",
"4 c #4F301D",
"5 c #50301D",
"6 c #4E3526",
"7 c #43352B",
"8 c #4A3528",
"9 c #563523",
"0 c #5A3623",
"q c #5D3925",
"w c #563E2F",
"e c #5E3B28",
"r c #493C32",
"t c #613B26",
"y c #643E29",
"u c #683F29",
"i c #66402C",
"p c #6C432D",
"a c #6A4430",
"s c #1F3B41",
"d c #213E44",
"f c #224146",
"g c #24444B",
"h c #26484F",
"j c #274B51",
"k c #294E54",
"l c #2A5057",
"z c #2B5158",
"x c #2F5B62",
"c c #315F67",
"v c #326169",
"b c None",
/* pixels */
"vvvvvvvvvvvvvvvvvvvvvvvvvvvvvvvvvvvvvvvvvvvvvvvvvvvvvvvvvvvvvvvvvvvvvvvvvvvvvvvvvvvvvvvvvvvvvvvvvvvvvvvvvvvvvvvvvvvvvvvvxxbbbbbb",
"vvvvvvvvvvvvvvvvvvvvvvvvvvvvvvvvvvvvvvvvvvvvvvvvvvvvvvvvvvvvvvvvvvvvvvvvvvvvvvvvvvvvvvvvvvvvvvvvvvvvvvvvvvvvvvvvvvvvvvvvvvxbbbbb",
"vvvvvvvvvvvvvvvvvvvvvvvvvvvvvvvvvvvvvvvvvvvvvvvvvvvvvvvvvvvvvvvvvvvvvvvvvvvvvvvvvvvvvvvvvvvvvvvvvvvvvvvvvvvvvvvvvvvvvvvvvvvxbbbb",
"vvvvvvvvvvvvvvvvvvvvvvvvvvvvvvvvvvvvvvvvvvvvvvvvvvvvvvvvvvvvvvvvvvvvvvvvvvvvvvvvvvvvvvvvvvvvvvvvvvvvvvvvvvvvvvvvvvvvvvvvvvvcvbbb",
"vvvvvvvvvvvvvvvvvvvvvvvvvvvvvvvvvvvvvvvvvvvvvvvvvvvvvvvvvvvvvvvvvvvvvvvvvvvvvvvvvvvvvvvvvvvvvvvvvvvvvvvvvvvvvvvvvvvvvvvvvvvvvbbb",
"vvvvvvvvvvvvvvvvvvvvvvvvvvvvvvvvvvvvvvvvvvvvvvvvvvvvvvvvvvvvvvvvvvvvvvvvvvvvvvvvvvvvvvvvvvvvvvvvvvvvvvvvvvvvvvvvvvvvvvvvvvvvvcbb",
"vvvvvvvvvvvvvvvvvvvvvvvvvvvvvvvvvvvvvvvvvvvvvvvvvvvvvvvvvvvvvvvvvvvvvvvvvvvvvvvvvvvvvvvvvvvvvvvvvvvvvvvvvvvvvvvvvvvvvvvvvvvvvcbb",
"ccccccvcccccccccvccccccvccccvcccccvcccvxccvccccccvcccccvccvcccvxcvcccccccvcccccvvxvvxvvxvvccvxvvccvvxvccvcccccvxccccvcxvvcvvvccb",
"zzzzzzzzzzzzzzzzzzzzzzzzzzzzzzzzzzzzzzzzzzzzzzzzzzzzzzzzzzzzzzzzzzzzzzzzzzzzzzzzzzzzzzzzzzzzzzzzzzzzzzzzzzzzzzzzzzzzzzkzzxvvvvxb",
"zzzzzzzzzzzzzzzzzzzzzzzzzzzzzzzzzzzzzzzzzzzzzzzzzzzzzzzzzzzzlzzzzzzzzzzzzzzzzzzzzzzkzzzzzzzzzzzzzzzzzzzzzzzzzzzzzzzzzzzzzzzvvcvb",
"zzzzzzzzzzzzzzzzzzzzzzzzzzzzzzzzzzzzlzzzzzzzzzzzzzzzzzzzzzzzzzzzzzzzzzzzzzzzzzzzzzzzzzzzzzzzzzzzzzzzzzzzzzzzzzzzzzzzzzzzzzkzvvvb",
"zzzzzzzzzzzzzzzzzzzzzzzzzzzzzzzzzzzzzzzzzzzzzzzzzzzzzzzzzzzzzzzzzzzzzzzzzzzzzzzzzzzzzzzzzzzzzzzzzzzzzzzzzzzzzzzzzzzzzzzzzzzzzvvb",
"zzzzzzzzzzzzzzzzzzzzzzzzzzzzzzzzzzzzzzzzzzzzzzzzzzzzzzzzzzzzzzzzzzzzzzzzzzzzzzzzzzzzzzzzzzzzzzzzzzzzzzzzzzzzzzzzzzzzzzzzzzzlzxvc",
"zzzzzzzzzzzzzzzzzzzzzzzzzzzzzzzzzzzzzzzzzzzzzzzzzzzzzzzzzzzzzzzzzzzzzzzzzzzzzzzzzzzzzzzzzzzzzzzzzzzzzzzzzzzzzzzzzzzzzzzzzzzlzxcx",
"zzzzzzzzzzzzzzzzzzzzzzzzzzzzzzzzzzzzzzzzzzzzzzzzzzzzzzzzzzzzzzzzlzzzzzzzzzzzzzzzzzzzzzzzzzzzzzzzzzzzzzzzzzzzzzzzzzzzzzzzzzzzkzcc",
"zzzzzzzzzzzzzzzzzzzzzzzzzzzzzzzzzzzzzzzzzzzzzzzzzzzzzzzzzzzzzzzzzzzzzzzzzzzzzzzzzzzzzzzzzzzzzzzzzzzzzzzzzzzzzzzzzzzzzzzzzzzzzkxc",
"zzzzzzzzzzzzzzzzzzzzzzzzzzzzzzzzzzzzzzzzzzzzzzzzzzzzzzzzzzzzzzzzzzzzzzzzzzzzzzzzzzzzzzzzzzzzzzzzzzzzzzzzzzzzzzzzzzzzzzzzzzzzkzzc",
"zzzzzzzzzzzzzzzzzzzzzzzzzzzzzzzzzzzzzzzzzzzzzzzzzzzzzzzzzzzzzzzzzzzzzzzzzzzzzzzzzzzzzzzzzzzzzzzzzzzzzzzzzzzzzzzzzzzzzzzzzzzzzzzv",
"zzzzzzzzzzzzzzzzzzzzzzzzzzzzzzzzzzzzzzzzzzzzzzzzzzzzzzzzzzzzzzzzzzzzzzzzzzzzzzzzzzzzzzzzzzzzzzzzzzzzzzzzzzzzzzzzzzzzzzzzzzzzzzzc",
"zzzzzzzzzzzzzzzzzzzzzzzzzzzzzzzzzzzzzzzzzzzzzzzzzzzzzzzlzzzzzzzzzzzzzzzzzzzzzzzzzzzzzzzzzzzzzzzzzkzllzzzzzzzzzzzzzzzzzzzzzzzzkzc",
"kzzzzzzzzzzzzzzzzzzzzzzzzzzzzzzzlzzzzzzzzzzzzzzzzzzzzzzzzzzzzzzzzzzzzzzzzzlzlkzlzzzzzzzzzzzzzzzzzzzkjzzzzzzzzzzzzzzzzzzzzzzzzlzc",
"gzzzzzzzzzzzzzzzzzzzzzzzzzzzzgkzlzzzzzzzzzzzzzzzzzlzllzlzzzzzzzzzzzzzzzzzlzljkzlzzzzzzzzzzzzzzzzzzzkgzkzzzzzzzzzzzzzzzzlkkzlzzzz",
"$jzzzzzzzzzzzzzzgkzzzzzzzzkzjsjzlzzzzzzzzzzzzzzzzllzggzllzzzllzjjzlzzzzzzlzksjzzzzzzzzzzzzzzzzzzzzzj#gzzzzzzzzzzzzzzzzzzkgzlzzzx",
"##ghjgdkzzzzzzzg#hzzkzzzzkzzd#gzzlzzzzzzkzkklzlzzlzksskzlzzzlzj$gzzkzzzzllzg#szklzzzzzzkzljzlzzzkzks#sjzzzzkzzjkzzzzzzzkhdllzzzz",
"$$$$$$#sjzzkzkg$#$hzzkzzzlzf$$#hzzzzzzzlllssgkzkllgd##sglllklgs##gzzlzzllzh#$#glllzzzzzzzg$gzzlzzjs$$$$hzkzkzgsgzzzzzzzzg#gkzzzz",
"#$$$$$$$#dggf$#$$$$gzzzzzjs#$$$$gzzlzzlzkg$$#dgggs####s#sgggs#$$$#fklzlzks#s$##glllzzkzkg$$#$fgfs$$$$$#$$gggs$#$gzkzzzzk$##fkzzk",
"=#$$$$$$$$$$$$$$$$$$$sfd$$$$##*#$sgkllkgs##$$$#$###s$$##$$$##$$#$$##sfss$$##$$$#sgklzkgs##*$#$$$$$$$$$$$$$$$$$$##$hkzkkf#$##$ds$",
":#$$$$$$$$$$$$$$$$$$$$$$$$$#$#:*$$$$$$####s*$$###s##$$$$$$$##$$$$$$$$$s$$$$#$$$#$#$$$$s#$*:#$#$$$$$$$$$$$$$#$$$$$$$$$$$$$$$$$$#b",
"6#$#$$$$$#$$$$$$$$$$$$$$$$$#$&6=##$$$$$$#$$$#s=*$#$$$$$$s##*:&$#$$$*s#$$$$#$$$$$$$$$$$$#$=9=##$$$$$$$$$#$#*=$#$$$$$$$$$$$$$$$$#b",
"0:##$$s*$$$$$$$$$$$$$$$$$$#$$70%###$$#$$$$$##*87#$#$$$$$##$;0:#$#$$$$#$$$$##$$$$$$#$$$#$#%07##$$$$$$$$$###78$$$$$$$$$#*--#$$$bbb",
"e9:#$$#$$$##%;*$$$$$$$$$$$#$;9q0&###$$$$$$#$#%90:*##$##*##;999:#$#$$$#$#::##$$$$$$$$$#$#&0q9:$#$$$$*$$#$#:09%##*$$$$#$>ppiwbbbbb",
"i997*#$$#$=799&#$#$$*$$$$#$&6qi09;#s*$$$$#$#%90997*#$##s*799e098*$#$#$*799;s#$$$$$$$$#$=60iq9:$#$$$$$#$#%99098=$#$##*rppiaiebbbb",
"pt99987:7699999;#$#$$$#$#$;99tpt997*s#####=809ue99987%78999epy9996%%7869999%$$$$$$$$##&95qpi998-$#s#s#=899yy09967:770uapppuybbbb",
"ppe999999999eq998-#$#$#s=899qupp09906:::76999yauq999999999eippq9999990990q996&*$#$$*&799eippe99q6%::%6990qpiy99999990iiappaubbbb",
"ppit0990999yua09999877799999ppppue9909999999tpaupt9999999tiapppi9999990tpiq999987776995epppppq5599909999upppiy0099990ipppppabbbb",
"pppaiyeqeyiaaua09999999999eippppiuy99999990yuppapppueqetipppppppiteeeipppppe99999999999ipppippit9999999yppppppiyeeeyppppppuubbbb",
"pppppppppppppppui09999909eppppppapppyeeqtuppppppppppppppppppppppappppppppppppt0999990ippppppppppytqyeyuppppppppppappppppppiebbbb",
"ppppppppppppppppppittttpiapppppppppppppppppppppapppppppppppppppppppppppppppppppteetippppppppppppupppppppppppappppppppppppppbbbbb",
"pppppppppappppppppppipppppppy0tppppppppppppppuppppppppppppppppppppppppppppppppppppppppppppppppppappppppappppppppppppppppppabbbbb",
"ap033ypppppppppppppppppppppp553yppppppppipt53330pppppppppppppppapppppapppppppppppppppppppppppppppppppppppppapppppppppppppuebbbbb",
"pt5355pppppppppapppppppppppp925pppppppppu025555530pppppppppppppppppppppppppppppppppppppapppppppppppppppppppppppppppppppppibbbbbb",
"pu5350ppppppppppppppppppppppptpppppppppi52555555545pppppppppppppppppppppppppppppppppppppppppppppppppppppppppppppppppppppitbbbbbb",
"ppq35pppppppppppptipppppppppppppppppppy5353555555555uppppppppp05tppipppppppppappppappppppppppppppppuqqyppppppppppppppppppbbbbbbb",
"pppppppppppppppp553tpppppppppppppppppu523555355555525pppppppt55555tpppppppppppppppppppppppppppppppy3555tpppppppppppppappubbbbbbb",
"pppppppppppppppp5530ppppppppppppppppp54555555555555520uppppu5555529ypppppppppppppppppppppppppppupu922335pppppppppppppppppbbbbbbb",
"pppppppppppppppp523tpppppppppppppppp52555555iy523555330ppppq3555533tpppppppppppppppppppppppppppppu254555upppppppppppppppuqbbbbbb",
"555500ttupppppppuqupppppppppppppppi54555552tpp025555552tpppt5555535uppppppppppppppppppappppppppppu255525tppppppppppppppppebbbbbb",
"5555333330tppppppppppppppppppppppp5555555555uu5555555533uppt5255525pppppppppppppppppittiuppppppppp025259pppppppppppppipppibbbbbb",
"5555555555520yppppppppppppppppppu535555545355555554555525upp023352qpppppppppppppuq534555350ppupppppu55ppppppppppapppppppppbbbbbb",
"555550553555529tpppppppppppppppt55555555555555455555555525tppq325tpppppppppppp03454555554533tppppppppppppppppppppppppappppbbbbbb",
"5555tpp55255555250tuupppippyuq55555555555545455355534555552quppppppppppppppt55555544555544324qpppppppppppppppppppppppppppiubbbbb",
"5555tppt22355555555524425525235555555355555555554555555555445tppppppppppq555555554445554544333qppppppppppppppppppppppppppppbbbbb",
"55535ut3255535555555255555555555555555555535555555555535555552590tttq05535555555444455555335525ppppppppppppppppppppppppppppbbbbb",
"5555555354555545545355555554555443555555455554555455554555555552335552555555555qt544555555555555pppppppppppppppppppppppppppebbbb",
"355553555555555555555555455345555545555555543555555355552552355555535545555535ppppt45535555555335pppppppppppppppppppppppppptbbbb",
"5555555555545555555544554555553555555553555555545555455520u925555555555555555tppppi545555555555255ppppapppppppppppppppppppiibbbb",
"555555455545355445354qpq33555455545555555553555543555545222255455555555555525upppppt43555555555555tppppppppppppp53pppppppppubbbb",
"554535555555555555552tpt53555555555545555455553555555555922955555555555555525uppppp54355555555555555ppppppppppppyqpppppppipp0bbb",
"5555555555535555555425q522555555553555555555545555545555552555455555555535552qppppi335555555555555555ippppppppppppppppppppppqbbb",
"5535554555522222525555555555555554555555554555555555545335553555555552531,25355tp544355553535555555535tpppppppppppppppppppppebbb",
"4555545555225+<2525555555555555555555245<+@,2425545554555555555543554251+++2525535555553555555555555533qpppppppppppppppppppuibbb",
"555555555552422353554555555555555555525<++@+@25529555552545555555555243,+++155555555355355555555555555335pppppppppppppppppppibbb",
"554555545555555555545535232225354555332,+@@@+<5225555252,@15229555545451++,1525555555533335555555555i53335ppppppppppppppppppibbb",
"5553553545555545555555225<+++1352555252@+@@@+<5422355252@+,2522255555554222545555555533333355555555ppp53530appppppppppppppppabbb",
"555555555455555555545525<@+@++252455233,+++++15354555252<@15325553555555555555555555252@@2523545529ppp02555tpppppppppppppppppbbb",
"552555555555555555555245@+@@++,252555222@++O<552555555555555555345555555555555555555252,,5235555525qpt335555pppppppppppppppppbbb",
"555555555592555554555335@@@@@+<25355552551<2352555555555535552321,++@155455555555555555555555555555555335555ipppppppapppppppibbb",
"5555555221@@,25555555535,@+@++15525555555555555555555555552521,@+@++++,5425555545555555555555545555535555555upppppppppppppppybbb",
"55555525,@+@@@25525555224,+++,2552213534555533355555553252<,@+@@@@@@@++1525255552555355555555455455555555325tpppppppppppppppqbbb",
"55555252@@@@@+,532552555421<2241@+++@<25445536554552322,,+O+@@@@@@@@@@+<552221<12222555555555555555545555525upppppppppppppipbbbb",
"55555251@+@@@+,255555555555522,++@@@@@+@<1224222211,,@O@@@@@@@@@@+@@@@+@2522@++@+,25255455555553554555545535upppppppppppppuubbbb",
"55555251@+@@@+,35255555555522,+@@@@@@@@@+@@+@@@@@@@@@@@@@@@@@+@,,++@@@+@152,@@@@@@,5425555455545535535555535uppppppppppppppebbbb",
"55335232@@+@@+13525455555232@@@@@++<12,+@@@@@@@@@@@@@@@@+@@+@25322,O@@++<5<O@@@@@@@2225555355535545545555529ppppppppppppppybbbbb",
"553353452@+@+<2555555545232,+@@@@+253251@@@@@@@@@@@@@@@@@@+@1535222,+@@O<5,O@@@@@o@<525555554555555555553250pppppppppppppptbbbbb",
"55565552231122535555555335,@+@@@+<443255@@@@@@@@@@@@@@@@@@O,35352351+@@O,2,O@@@@@@@<54554554555535555545525tpppppppppppppubbbbbb",
",1225555229522555555555251@+@@@@+1552555,+@@@@@@@@@@@@@@@@O<55555251@+@+,2<o@@@@@+@155555555554555455555525pppppppppppppp0bbbbbb",
"@+@,125555555554555555252@O@@@@@+<235525,@@@@@@@@@@@@@@@@@o<92225352@+@+@22@O@@@@@,252525545555555555555235pppppppppppppabbbbbbb",
"@@@@@,225555555555555245,+O@@@@@+@232352@O@@@@@@@@@@@@@@@@+<2529324<O@@+@15<@@@@@@222555555355555555545525tpppppptippppubbbbbbbb",
"@@@@@@O<255535554555553,@O@@@@@@++,2552@O@@@@@@+@@@@@@@@@@@+<522551@+@@@@<522<@,<2525555545555554555535535ppppp0235pppyabbbbbbbb",
"+@@@@@@O,1255455533521@@O@@@@@@@@+O+,,++@@@@@@@@@@@+@@@@@@@++<2251@++@@@o<52255555555555555552500254555225ppppp2525tppyibbbbbbbb",
"@@@@++@@@@O@,,,<,,,@+@@@@@@+@@@@@@@@@@@@@@@@@@@@@@@@@@@@@@@@@+@@++@@@@@@O,254555545555555554525pp54555533qppppp3525tpppibbbbbbbb",
"@@@+,221@+@@@@@+@@+@@@@@@@@@@@@+@@@+@@@@@@+@@@@@@@O@@@@@@@@@@@@@@@@@@@@@+,1525555555545553555250534555553upppppq435pppppbbbbbbbb",
"@@@@55251@@@@@@@@@@@@@@@@@@@@@@@@@@@@@@@@@@@@@@@@@+,1@@@@@@@@@@+@@@@@@@@@+<535555535553545555555555555555pppppppyuppppppebbbbbbb",
"@@+125352@@@@@@@@@@@@@@@@@@@@@@@@@@@+@@@@@@@@@@@@@@@@+@@@@+@@@@@@@+@@@@@++@25255555455455555555555555555ipppppppppppppppybbbbbbb",
"@@O<33322@O@@@@@@@@@@+@@@@@@@@@@@@+@@@@@@@@@@@@+O@@@@@@@@@+@@@@@@@@@+@@@@@+,5525555554555554555555555335ppppppppppppppppptbbbbbb",
"@@@@2325<@+@@@@@@@@+@<<@O@@@@@@@@@@@@@@@@@@@@@@@@@@@@@@@@@@@@@@@@+@@@@@@@@++,232555555552552225255553335ppppppppppppppppiubbbbbb",
"@@@+@<1,+O@@@@@@@@+@2542@@@@@@@@@@@@@@@@+@@@@@@@@@@@@@@@@@@@@@@@@@@@@@@@@@@@+@2225555532321@O+2355553330ppppppppppppppppppibbbbb",
"@@@@@@@@@@@@@+@@@@+<2524,@O@@@@@@@@@@@@@@@@@@@@@@@@@@@@@@@@@@@@@@@@@@@@@@@@@@@+<3425555252+@++@235553335ppppppppppppppppppubbbbb",
"@@@@@@@@@@@@@@@@@@+<2424@++@@@@@@@@@@@@@@@@@@@+@@@@@@@@@@@@@@@@@@@@@@@@@@@@@@@@+,423552551++@+@253554535ppppppppppppppppppptbbbb",
"@@@@@@@@@@@@@@@+@@@@2442@+@@+@@@@@@@+@@@@@@@@@@@@@@@@+@@@@@@@@@@@@@@@@@@@@@@@@@@+,52255251++++,233555545tppppppppppppppppppibbbb",
"@@@@@+@@@@@@@@@@@@@@+@<@@@@@@@@@@@@@@@@@@@@@@@@@@@@@@@@@@@@@@@@@@@@@@@+O@@@+@@+@++<5255352,+++<5345555535ppppppppuq0ppppppppbbbb",
"@@@@@@@@@@@@@@@@@@@@++@@@@@@@@@@@@@@@@@@@@@@@@@@@@@@@@O@@OXo++@@@@@@+++,2551@+@@+O,1525525221252445554432qppppppt25250ppppppebbb",
"@@@+@@@@@@@@@@@@@@@@@@@@@@@@+@@@@+@@@@@@@@@@@@@@@@@@@+@@X   X@@O+@@@@+@15335<+@@+++,5525554555454555554525pppppi255525uppppptbbb",
"@@@@@@@@@@@@@@@@@@@@@@@@@@@@@@@@@@@@@@@@@@@@@@@@@@@@@+@o    .O@@@@@@@+@253551+@@@@+,2545555555555555555525tppppq2555355pppppabbb",
"@@@@+@@@@@@@+@@@@@@@@@@@@@@@@@@@@@@@@@@@@@@@@@@@@@@@@+@X     o@O@@@@@+@153251+@@@@+@15555555555555554453355ppppt2555350ppppppbbb",
"@@@@@@@@@@@@@@@@@@@@@@@@@@@@@@@@@@@@@@+@@@@@@+@@@@@@@++o    .O@+@@@@@@+<5252,+@@@@+@1555555554555555534tpputpipi355433tpppppibbb",
"@@@@@@@@@@@@@@+@@@@@+@@@@@@@@@@+@@@@@@@@@+@@@@@@@@@@@++@o  .o@+@@@@@@@++,11,+@@@@@@@155453333333533535qppppuppppt4445tpppppppbbb",
"@@@@@@@@+@X. .oO@O@@@@@@@@@@@@@@@+@@@@@@@@@@+@@@@@@@@@@+@OO+@+@@@@@@@+@@+++@+@@@@@+@355453345334555525upppupppppuuqtpppppppppbbb",
"@@@+@@@o@o     o@@+@@@@@@@+@@@@@@@@@@@@@@@@@@@@@@@@@@@@+@@@@@@@@@@@@@@@@++@@@@@@@@+,454444443544555545tppppppppppppppppppppppbbb",
"@@@@@@+@o      .+@+@@@@@@@@@@@@@@@@@+@@@@@@@@@@@@+@@@@@@@+@@@@@@@@@@@@@@@+@@@@@+@+,45344434,@1445555545pppuppppppppppppppppppbbb",
"@@@@@@O@o.      O++@@@@@@@@@@+@@+@@@@@@@+@+@@@@@@@@+@@@@@@@@@@@@+@@@@@@@@@@@+++++@234353432++<4455555435uqqppppppppppppppppppbbb",
"@@@@@@+Oo      .O@+@@@+@@@@@@@@@@@@@@@@@@@@@@@@@@@@@@@+@@@@@@@@@@@@@@@@@@@@@,+++,23455554341<4345555555555tppppppppppppppppppbbb",
"@@@@@@@+@.     X+@+@@@@@@@@@@@@@@@@@+@@@@@@@@@@+@@@@@@@@@@@@+@@@@@@@@@@@+@@@+++144434555334355354555555555pppppppppppppppppppbbb",
"@@@@@@@++o    .O@++@@@@@@@+@@@@@@@@@@@@@@@@@@@@@@@@@@@@@@@@@@@@@@@@@@@@@@@@++1524533555553335555555555545upppppppppppppppppppbbb",
"@@@@@@@@@o@ooo+@@@@@@@@@@@@@@@@@@@@@@+@+@@@@@@@@@@@@@@@+@@@@@@@@@@@@@@@@+++@45453355543335555555555555535ppppppppppppppppppppbbb",
"@@@@@@@@@@@@@@@@@@+@@@@@@@@@@@@@@@@@@@@@@@@@@@@@@+@@@@@@@@@@@@@@@@@@@@@@++,155554<@124453555555555555545uppppppppppppppppppptbbb",
"@@@@@@@@@@@@@@@+@@@@@@@@@@+@@@@@@@@@@@@@@@@@@@@@@@@@@@@@@@@@@@@@@+@@@@@@++,54452@+++@1345555555555455455pppppppppppapppppappqbbb",
"@@@@@@@@@@@@@@@@@@@@@@@@@@@@@@@@@@@+@@@@@@@@@@@@@@@@@@@@@@@@@@@@@@@@+@@@++15455,+++@+,34355535555555555upppppppppppppppppppp0bbb",
"@@@@@@@@@@@@@@@@@@@@@@@+@@@@+@@@@@@@@@@@@@@@@@@@+@@@@@@@@@@@@@+@,22,+@+@++15454,+@@@+,24555555555535535ppuppppppppppppppppppbbbb",
"@@@@@@@+@@@@@@@@@@@@@@@@@+@@@@@@@@@@@@@@@@@@@@@@@@@@@@@@@@@@@@+,5222,+@@++15255,+@@++@5455555555tp0334tpppppppppppppppppppppbbbb",
"+@@@@@@@@@@@@@@@@@@@@@@@@@@@@@@@@@@@@@@@@@+@@O@o++++@@@@@+@@@+@15525<+@@++155252@++++1525555555ppppt25ppppppppppapppppppppppbbbb",
"@@@@@@@@@@@@@@@@+@@@@@@@@@@@@@@@@@@@@@@@@@@O@@X  .o@+@@@@@@@@@+15424<+@@++,523552,+,1343555555tppppu5tpppppppppppppppppppppibbbb",
"@@@@@@@@@@@@+++o+@+@@@@@@@@@@@@@@@@@@@@@@@@+@X    X@@++@@@+@@@+,2551@+@@@+,2425555555555555535tppppp3upppppppppppppppppppppppbbb",
"@@@@@@@@@@@@.    X+@+@@@@@@@+@o.X+@+@@@@@@++@.    .o@+@@@@@@@@@o+,,++@@@@+@15455444555555555555ppppt5ppppppppppppppppppppppppbbb",
"@@@@@@@@@+@.      o+@+@@@@@@+@o X+@+@@@@@@++@X    .o@+@@@@@@@@@@@@+@+@@@@@+<54354445555555555555tpt3tpppppu5tupppppppppppaappbbb",
"@@@@@@@@+@o        O@+@@@@@@+@+o++@+@@@@@@@+@o    o@++@@@@@@@@@@@@@@@@@@@@+,252544455555555555553233tppppp333qpppppppppppppppbbb",
"@@@@@@@@+@X        o@@+@@+@@@@@@@@@@@@@@+@+@+@+X.o@@+@@@@@@@@@@@@@+@@@@@@@@+,53255555533555555553335tppppp33ttpppppppappppppptbb",
"@@@@@@@@+@X        o+@+@@@@@@@@@@@@@@@@@@@@@@@+@+@@@@@@@@@@@@@@@@@@@@@@@@@@+@25533533533555555553335upppppp5pppppppppppppppppubb",
"@+@@@@@@@@o        o@@o@@@@@@@@@@@@+@@@@@@@@@@@@@@@@@@@@@+@@@@@+@@@@@@@@@@@@O<5244555533555555545535tpppppppppppppppppppppppppbb",
"@@@@@@@@@@@       .@@+@@@@@@@@@@@@@@@@@@@@@@@@@@@@@@@@@@@@@@@@@@@@@@@@@@O,1@+@1545555533555555555535qpppppppppppppppppapppppppqb",
"@@@@@@@@@+++      ++++@@@@@@@@@@@@@@@@@+@@@@@@@@@+@+@@@@@@@@@@@@@@@@@@@+,191@O<5243211233555555555335pppppappppppppppppppppppppb",
"@@@@@@@@@@++@XXX++++@+@@@@@@+@@@@@@@@+@@@@@@@@@@@@@@@@@@+@@@@@@@@@@@@@@+@251@O,3431+++,33355555455325pppppaapppppppppppppppppppb",
"@@@@@@+@+@@@@@@@@@@@@@@@@@@@@@@@@@@@@@@@@@@@@@@+@@@@@+@@@@@@@@@@@@+@@@@@+,,@+O,332,++++14355555553535ppppppppppppppppppppppppppq",
"@@@+@@@@@@@@@@@@@@@@@@@@@@@@@@@@@+@@@@@@@+@+@@@@@@@@@@@@@@@@@@@@@@@@@@@@@@+@++1531,+,++14335543555535pppppppapppppppppapppppppit",
"@@@@@@@+@@@@@@@@+@@@@@@@@@@@@@@@@@@@@+@@@@@@@@@@@@@@@@@@@@@@@@@@@@@@@@@@@@@@+,22341+++,24344545544435ipppppppppppapppppppppppppu",
"@@@@@@@@@+@@+@@@@@@@@@@@@@@@@@@@@@@@@@@@@@@@@@@@@+@@@@@@@@@@@@@@@@@@@+@@@@@@+1322321,,153455555554435ppppppppppppppppppppppppppi",
"@@@+@@@@@@@@@@@@@+@@@@@@@@@@@@@++@@@@@@@@@@@@@@@@@@@@@@@@@+@@@@@@@@@@@@@@@++@233555522555555553555434qppappppppppppppppppppppppi",
"@@@@@@@@@@@@@@@@@@@@@@@+@@@@@@@@@@@@@@@@@@+@+@@@@@@@@@@+@@@@@@@@@@@+@@@@@@+O<533555432555355554555434qpppppppppppppppppppppppppp"
};
