/* XPM */
static char *result[] = {
/* columns rows colors chars-per-pixel */
"128 128 81 1 ",
"  c #0E0000",
". c #100000",
"X c #1F0E01",
"o c #1D1007",
"O c #1E1108",
"+ c #240A00",
"@ c #2E0F00",
"# c #2B1700",
"$ c #23140A",
"% c #2A170A",
"& c #27180F",
"* c #2C190C",
"= c #3A1602",
"- c #3B1904",
"; c #331C0D",
": c #391F0F",
"> c #261910",
", c #2A1B11",
"< c #321F13",
"1 c #3A200F",
"2 c #2F2012",
"3 c #332114",
"4 c #3B2110",
"5 c #372A1F",
"6 c #3B291D",
"7 c #1E373C",
"8 c #1E383D",
"9 c #2F2D27",
"0 c #2D2F2A",
"q c #332C25",
"w c #37322C",
"e c #3C352E",
"r c #243435",
"t c #2B3736",
"y c #23373A",
"u c #283738",
"i c #21383C",
"p c #2E3939",
"a c #343632",
"s c #393630",
"d c #343B37",
"f c #412615",
"g c #462916",
"h c #482A17",
"j c #402718",
"k c #462919",
"l c #4E2E1B",
"z c #502F1C",
"x c #4F301D",
"c c #50301D",
"v c #4D3426",
"b c #44352B",
"n c #493529",
"m c #553423",
"M c #593623",
"N c #5D3926",
"B c #563E2F",
"V c #5F3C29",
"C c #493C32",
"Z c #623B26",
"A c #643D29",
"S c #683F29",
"D c #66402C",
"F c #6C432D",
"G c #6E4731",
"H c #1F3B41",
"J c #213E44",
"K c #224146",
"L c #24454B",
"P c #26484F",
"I c #274B51",
"U c #294E54",
"Y c #2A5057",
"T c #2B5158",
"R c #2F5B62",
"E c #315F67",
"W c #326169",
"Q c #8E7B6F",
"! c #8F7C70",
"~ c #917F73",
"^ c None",
/* pixels */
"WWWWWWWWWWWWWWWWWWWWWWWWWWWWWWWWWWWWWWWWWWWWWWWWWWWWWWWWWWWWWWWWWWWWWWWWWWWWWWWWWWWWWWWWWWWWWWWWWWWWWWWWWWWWWWWWWWWWWWWERR^^^^^^",
"WWWWWWWWWWWWWWWWWWWWWWWWWWWWWWWWWWWWWWWWWWWWWWWWWWWWWWWWWWWWWWWWWWWWWWWWWWWWWWWWWWWWWWWWWWWWWWWWWWWWWWWWWWWWWWWWWWWWWWWWWWR^^^^^",
"WWWWWWWWWWWWWWWWWWWWWWWWWWWWWWWWWWWWWWWWWWWWWWWWWWWWWWWWWWWWWWWWWWWWWWWWWWWWWWWWWWWWWWWWWWWWWWWWWWWWWWWWWWWWWWWWWWWWWWWWWWWR^^^^",
"WWWWWWWWWWWWWWWWWWWWWWWWWWWWWWWWWWWWWWWWWWWWWWWWWWWWWWWWWWWWWWWWWWWWWWWWWWWWWWWWWWWWWWWWWWWWWWWWWWWWWWWWWWWWWWWWWWWWWWWWWWWWW^^^",
"WWWWWWWWWWWWWWWWWWWWWWWWWWWWWWWWWWWWWWWWWWWWWWWWWWWWWWWWWWWWWWWWWWWWWWWWWWWWWWWWWWWWWWWWWWWWWWWWWWWWWWWWWWWWWWWWWWWWWWWWWWWWW^^^",
"WWWWWWWWWWWWWWWWWWWWWWWWWWWWWWWWWWWWWWWWWWWWWWWWWWWWWWWWWWWWWWWWWWWWWWWWWWWWWWWWWWWWWWWWWWWWWWWWWWWWWWWWWWWWWWWWWWWWWWWWWWWWWE^^",
"WWWWWWWWWWWWWWWWWWWWWWWWWWWWWWWWWWWWWWWWWWWWWWWWWWWWWWWWWWWWWWWWWWWWWWWWWWWWWWWWWWWWWWWWWWWWWWWWWWWWWWWWWWWWWWWWWWWWWWWWWWWWWE^^",
"EEEEEEWEEEEEEEEEEWEEEEEEWEEEEEEWEEEEEEWRWEEEWEEEEEEEEEEWEEEEEEEEWEEEEEEEEWEEEEEWWRWWRWWRWWEEEEEEWRWEEEEWEEEEEEEEWEEEEERWWEWWWEE^",
"TTTTTTTTTTTTTTTTTTTTTTTTTTTTTTTTTTTTTTTTTTTTTTTTTTTTTTTTTTTTTTTTTTTTTTTTTTTTTTTTTTTTTTTTTTTTTTTTTTTTTTTTTTTTTTTTTTTTTTYTTRWWWWR^",
"TTTTTTTTTTTTTTTTTTTTTTTTTTTTTTTTTTTTTTTTTTTTTTTTTTTTTTTTTTTTTTTTTTTTTTTTTTTTTTTTTTTTTTTTTTTTTTTTTTTTTTTTTTTTTTTTTTTTTTTTTTTWWEW^",
"TTTTTTTTTTTTTTTTTTTUTTTTTTTTTTTTYTTTTTTTTTTTTTTTTTTTTTTTTTTTTTTTTTTTTTTTTTTTTTTTTTTTTTTTTTTTTTTTTTTTTTTTTTTTTTTTTTTTTTTTTUTTWEW^",
"TTTTTTTTTTTTTTTTTTTTTTTTTTTTTTTTTTTTTTTTTTTTTTTTTTTTTTTTTTTTTTTTTYTTTTTTTTTTTTTTTTTTTTTTTTTTTTTTTTTTTTTTTTTTTTTTTTTTTTTTTTTTTWW^",
"TTTTTTTTTTTTTTTTTTTTTTTTTTTTTTTTTTTTTTTTTTTTTTTTTTTTTTTTTTTTTTTTTTTTTTTTTTTTTTTTTTTTTTTTTTTTTTTTTTTTTTTTTTTTTTTTTTTTTTTTTTYYTEEE",
"TTTTTTTTTTTTTTTTTTTTTTTTTTTTTTTTTTTTTTTTTTTTTTTTTTTTTTTTTTTTTTTTTTTTTTTTTTTTTTTTTTTTTTTTTTTTTTTTTTTTTTTTTTTTTTTTTTTTTTTTTTTYTRER",
"TTTTTTTTTTTTTTTTTTTTTTTTTTTTTTTTTTTTTTTTTTTTTTTTTTTTTTTTTTTTTTTTTTTTTTTTTTTTTTTTTTTTTTTTTTTTTTTTTTTTTTTTTTTTTTTTTTTTTTTTTTTTYTEE",
"TTTTTTTTTTTTTTTTTTTTTTTTTTTTTTTTTTTTTTTTTTTTTTTTTTTTTTTTTTTTTTTTTTTTTTTTTTTTTTTTTTTTTTTTTTTTTTTTTTTTTTTTTTTTTTTTTTTTTTTTTTTTYURE",
"TTTTTTTTTTTTTTTTTTTTTTTTTTTTTTTTTTTTTTTTTTYTTTTTTTTTTTTTTTTTTTTTTTTTTTTTTTTTTTTTTTTTTTTTTTTTTTTTTTTTTTTTTTTTTTTTTTTTTTTTTTTTYTTE",
"TTTTTTTTTTTTTTTTTTTTTTTTTTTTTTTTTTTTTTTTTTTTTTTTTTTTTTTTTTTTTTTTTTTTTTTTTTTTTTTTTTTTTTTTTTTTTTTTTTTTTTTTTTTTTTTTTTTTTTTTTTTTTUTW",
"TTTTTTTTTTTTTTTTTTTTTTTTTTTTTTTTTTTTTTTTTTTTTTTTTTTTTTTTTTTTTTTTTTTTTTTTTTTTTTTTTTTTTTTTTTTTTTTTTTTTTTTTTTTTTTTTTTTTTTTTTTTTTUTE",
"TTTTTTTTTTTTTTTTTTTTTTTTTTTTTTTTTTTTTTTTTTTTTTTTTTTTTTTTTTTTTTTTTTTTTTTTTTTTTTTTTTTTTTTTTTTTTTTTTTTTUTYTTTTTTTTTTTTTTTTTTTTTTTTE",
"UTTTTTTTTTTTTTTTTTTTTTTTTTTUTUTTYTTTTTTTTTTTTTTTTTTTTTTTTTTTTTTTTTTTTTTTTTYTTYTTTTTTTTTTTTTTTTTTTYTUITYTTTTTTTTTTTTTTTTTTTTTTTTE",
"LUTTTTTTTTTTTTTTTTTTTTTTTTTTTLUTYTTTTTTTTTTTTTTTTTYTTTTYTTTTTTTTTTTTYTTTTTTUIITTTTTTTTTTTTTTTTTTTYTULUYYTTTTTTTTTTTTTTTYYUTYTTTT",
"8ITTTTTTTTTTTTUTPUTUTTTTTTTTIHUTYTTTTTTTTTTTTTTTTTYTJLTYYTTTYTTLITTTTTTTTTTIJPTTTTTTTTTTTTTTTTTTUTTI8PTTTTTTTTTYTTTTTTTYUPTTTTTR",
"88KPIPJUTTTTTTTP7PTTTTTTTTUTJ7LTTYTTTTTTUTUUTTYTTYTUHJUTYTYTTTP7LTTUTTTTUTTL7JUTUTTTTTTYTUITTTTTTTUH7HITTTTUTTIUTUTTTTTYPHTUTTTT",
"8888887HITTUTUL888PTTUTTTUTK887PYYYYTTTYYTJ7PYYYYYLJ77JLYYYRYLJ77PYYTTTYTTPH87LUTYTTTTTTTP7LTTTTTIH8888PTUTUTPHLTUTTTTTTK7LUTYTT",
"i88888887JLLK878888KUTTTTIH77888PYYYTTYYYJ777JJLJJ777777HJJJHH7H87JUTTTYUH77877LTYYTTTTUL7778KLKH78888778LLLH777LTTUTTTUH77KUTTU",
"u78888888788888888888JJKH87888y77HPUYYILH77H7777H7H77HH77H7HH7778887HHHH77778887HPUUTIPH77y7788888888888i88878877HPUTYIK78778JJ8",
"a78888888888888888888888888788wy7777H77H7H777HH7H77777777777777788887HH7777H8888788888877ua7888888888888888i7888878887887788887^",
"v77788i8888888888888888888888tvuH777777777777Htt77H77777777yatH787888888H7888888778888878uvt77888i88888778yu8788888888888888878^",
"lw778888888888888888888888787bMe777777H77H777i6q77777HJ777HwMw777888888877888888888888787eMb7y88888888877ybb87888887878dp7878^^^",
"kf0J88888877eay888i8i8888887amZMaH77H7H77H7779ff977777777H0kmmsH87888787as78888888878787uMZmw788888888787smmb878888877dDFAB^^^^^",
"lj4qr78878ubmmt788888888878tvNDMma7777777i77qffffqr77777rq6flmmbu87878ubmma778888888877uvMDNma7888888787sMmMmnt87887iCFFFGF^^^^^",
"lkj6f6q9q6lmmmmai878888878ammSFVmmbu7777770qfflkf6f6qqq6ff4klzmmmnbeevmmmmme7878888788tmmZFAmmbu877787unMMASMmmvbsbbMSSSGSG^^^^^",
"czgffj6fffjkNNmmnp78787HtnmmMFFFNmmmvessw66jfkzzkfffj4jjf6gzclzmmmmmmmmmVMmmnai87787ubmmMFFFNmmmvesabvmmMZSSAMmmmmmmMSGSGSG^^^^^",
"cczkjff6fjfkmANmmmmbbbbmmmmmSFFFFMmmmmMkffffgzzlzkf4jjjjfklclczmMmmmmmmNFDNmmmmbbebmmmmMFFFFFNmmmmmNmmmmZSFGSAmMmmmmNSFSSSA^^^^^",
"czzzzkkkkklczmANmmmmmmmmmmNDFFFFFFVmmmk6fffkzzzkgkllkkgklccccczcAAVNVSFFFFFZmmmmmmmMmmMFDMMMMSZMMmmmmmMZFSFFFGSAANVASGFFGSA^^^^^",
"cccczccccccczzmSZMmmMmmmMVFFFFFFFFFFZkkgklzczzf:41flccccccccccclcSFFFFFFFFFFZMmmMmmmMNMcxccclzmAAANAVASGFFFFFFFFGSFFFFFGFS^^^^^^",
"cccccccccccczzzmSFDZZNZSFGFFFFFFFFFAczccccczcg4:411gclcccccccccczcZFFFFFFFFFFFFZAVAVcxcccccccczcNFSSGFGSFFFFGFFFSGFFFFFFSG^^^^^^",
"cccccccccclzzzzzcFFFFFFFFFFFGFFFFFNzzcccccczck:411:gzclcccccccccczcZFFFFFFFFFFFFFAmlccccccccccclzZGSFFSGGFFFFFFFGSGFFFFFSV^^^^^^",
"cccccccccclmzzzzxcNFFFFFFFFFFFFFAcllzcccccczck4:11:hczlcccccccccccclMSFFFFFFFFFNclzlcccccccccccczcSFFFFSFFFFFFFGSGSFFGFFS^^^^^^^",
"ccccccccccccccccccccMFFFFFFFFFScclczccccccclzzg:11flczcccccccccccccclcmZSSZZNmcccccccccccccccccczlmSFFFFFFFFFFFFFFFFFFFSA^^^^^^^",
"ccczccccxcccccccccccccccccMccczccccccccccccclczkhkzczccccccxcccccccccccxccxxccccccccccccccccccccczlMFFFFFFFFFFFFFFFFFFFA^^^^^^^^",
"ccccccccclzccccccccccccccccccccccccccccccccccccccccczcccccccccxcccccccxccccccccccczcccccccccccxczczzZFFFFFFFFGFGFFFFFFSV^^^^^^^^",
"cccczchfffkzcccccccccccccccccccccccccccccccccccccccccccczcccccccccccccccccccccccccccccccxcccccccmczlcFFFFFFFFFFFFGFFFFD^^^^^^^^^",
"cczllf:1441flzcccccccccccccccccccccccccccccccccccccxcccccccccccccccccccccccccccccccccccccccccccclzxlzMFFFFFFFGFFFFFFFZ^^^^^^^^^^",
"cczcg4:1141:glcccccccccccccccccccccccccccczcccccccccxcccccccccccccccccczccxcccccccccccccccccccccczcclcNFFFFFFFFGFFFFA^^^^^^^^^^^",
"cczl414444444lcccccccccccccczccccccczclkhlcczcccccccccccccxcccccccccccccccccczccccccccccccccccccccccclcFFFFFFFFFFFFS^^^^^^^^^^^^",
"ccch41144444:kzcccccccccccccccxcccclch1111hlczcccczcccccccccccccxccccxcccccccccccccccczcccccccccccccczcMFFFFFFFFFFZ^^^^^^^^^^^^^",
"ccch114414441lzcccccccccccccxccccccckf:1444hxxccccccccccccccccccccccccccccccccccccccccxccccccccccccccczcAFFFFFFFZZ^^^^^^^^^^^^^^",
"ccll114411441lccccccccccccccccccccccf111444gxxlcccccccccccccccccccccccccccccccccccccccccccccccccccccccczcFFFFFFc^^^^^^^^^^^^^^^^",
"cclcf4141111flccccccccccccczcccccclcf111441glclccccccccxcccccccccccccccccccxxcccccccccccccccccccccccccczcAFFFc^^^^^^^^^^^^^^^^^^",
"cccll411f111lccccccccccccccccccccczcg41444-hcccccccccccccccccccccczcccccccccccccccccccccccccccccccccccccccA^^^^^^^^^^^^^^^^^^^^^",
"cccczlg111hcccccccccccccccxccxcccczcl11111fhcccxccczcccccccccccccccccccccccccccccccccccczcllmlcccxclzlk^^^^^^^^^^^^^^^^^^^^^^^^^",
"cccccccccccccccczcccccccccccccccccclzlg11fhcclccccccccccccclclghlclcccccccccccccccxclzlllllllkhkh^^^^^^^^^^^^^^^^^^^^^^^^^^^^^^^",
"cccccccccccccccccxcccccxcccccccccccccccccccccccccccccccccclclf11fzczccccccccccclclc^^^^^^^^^^^^^^^^^^^^^^^^^^^^^^^^^^^^^^^^^^^^^",
"cccccccccccccccccccccccccccccccclczlhghfffghllcxcccccxcccczch1414kczccccccccccclM^^^^^^^^^^^^^^^^^^^^^^^^^^^^^^^^^^^^^^^^^^^^^^^",
"4hcccccccccccccccccccccccccclzllgf111f1111111fglxlcccccccclch1111lczccccccccclm-^^^^^^^^^^^^^^^^^^^^^^^^^^^^^^^^^^^^^^^^^^^^^^^^",
"414hccccccccccccccccccccclzclg11111111111f1111-fllccccccccccxg11gczlcccccccczm-^^^^^^^^^^^^^^^^^^^^^^^^^^^^^^^^^^^^^^^^^^^^^^^^^",
"44411hccccccccccccccccczcch1111144111111111f1f11flclccccccccccllczxcccccccclxm#^^^^^^^^^^^^^^^^^^^^^^^^^^^^^^^^^^^^^^^^^^^^^^^^^",
"444111flcccccccccccccczzcf11111f44141f111:fhhff1-fxclcccccccccccccccccccccclm-^^^^^^^^^^^^^^^^^^^^^^^^^^^^^^^^^^^^^^^^^^^^^^^^^^",
"41441411fzccccccxcccczccf1111f11441111f:1hzczlcf44gcxxcccccccccccccccccxccxc-Q^^^^^^^^^^^^^^^^^^^^^^^^^^^^^^^^^^^^^^^^^^^^^^^^^^",
"4444444411hcccccccccclcf111111111fff1111flclccch444lcxccccccxcccccccccccccxm=^^^^^^^^^^^^^^^^^^^^^^^^^^^^^^^^^^^^^^^^^^^^^^^^^^^",
"44444144111fhcccccclcl11111111f1flczf11:fzczccll44:fzczccccccccccccccccccxm-!^^^^^^^^^^^^^^^^^^^^^^^^^^^^^^^^^^^^^^^^^^^^^^^^^^^",
"4414444411441hccclzlf11111f1111:gclch111hcclclccf444kczzcccccccccccccccccxm-^^^^^^^^^^^^^^^^^^^^^^^^^^^^^^^^^^^^^^^^^^^^^^^^^^^^",
"441fh111444441flllg1144144441441gzccg441flcxclxlf141fhczcccccccccccccccccc-~^^^^^^^^^^^^^^^^^^^^^^^^^^^^^^^^^^^^^^^^^^^^^^^^^^^^",
"4-hxccf1144141141414444441444444:glh11411hccclxg1441:fzczccccccccccccccccm-^^^^^^^^^^^^^^^^^^^^^^^^^^^^^^^^^^^^^^^^^^^^^^^^^^^^^",
"44hlcc411444411411444144444444141144414411gxllf1114411fzczccczczhf414hzzm-^^^^^^^^^^^^^^^^^^^^^^^^^^^^^^^^^^^^^^^^^^^^^^^^^^^^^^",
"41fcch41444444444444444414144444414444441111114411111114fhklhgf1144411fzm=^^^^^^^^^^^^^^^^^^^^^^^^^^^^^^^^^^^^^^^^^^^^^^^^^^^^^^",
"4441f111414441444414114444444144444444441444441444144144144414441444414v-^^^^^^^^^^^^^^^^^^^^^^^^^^^^^^^^^^^^^^^^^^^^^^^^^^^^^^^",
"4441141144444444414llf1144144444414444144414444444444444141411441444414@^^^^^^^^^^^^^^^^^^^^^^^^^^^^^^^^^^^^^^^^^^^^^^^^^^^^^^^^",
"414444144444444411lxlc4114444444444114441444444444444444414ff:44444114+^^^^^^^^^^^^^^^^^^^^^^^^^^^^^^^^^^^^^^^^^^^^^^^^^^^^^^^^^",
"444444444441414444lczcf11444414444444444444414444414441414hck4:44441g+^^^^^^^^^^^^^^^^^^^^^^^^^^^^^^^^^^^^^^^^^^^^^^^^^^^^^^^^^^",
"444444444444444441llxl414444444414144444444414144444144414lcl414444f^^^^^^^^^^^^^^^^^^^^^^^^^^^^^^^^^^^^^^^^^^^^^^^^^^^^^^^^^^^^",
"4444414444414414441fg1114441444144444441144444444144441441glg41411g^^^^^^^^^^^^^^^^^^^^^^^^^^^^^^^^^^^^^^^^^^^^^^^^^^^^^^^^^^^^^",
"1441444141444444444444414144444441444144441441444444444444144::46^^^^^^^^^^^^^^^^^^^^^^^^^^^^^^^^^^^^^^^^^^^^^^^^^^^^^^^^^^^^^^^",
"444444444441414441444444444114444444444444444444441414444141:;<^^^^^^^^^^^^^^^^^^^^^^^^^^^^^^^^^^^^^^^^^^^^^^^^^^^^^^^^^^^^^^^^^",
"441444444444444444411444444414444144441414444444444441141;%$,^^^^^^^^^^^^^^^^^^^^^^^^^^^^^^^^^^^^^^^^^^^^^^^^^^^^^^^^^^^^^^^^^^^",
"44441444144414414444441414444444444444444444441444441:*$oo& ^^^^^^^^^^^^^^^^^^^^^^^^^^^^^^^^^^^^^^^^^^^^^^^^^^^^^^^^^^^^^^^^^^^^",
"4144441444144444414414444414444144144444441444141;*$oooo> ^^^^^^^^^^^^^^^^^^^^^^^^^^^^^^^^^^^^^^^^^^^^^^^^^^^^^^^^^^^^^^^^^^^^^^",
"444414444444444444444444444444444444441444111*%$ooooooo3^^^^^^^^^^^^^^^^^^^^^^^^^^^^^^^^^^^^^^^^^^^^^^^^^^^^^^^^^^^^^^^^^^^^^^^^",
"441444414444441441444444444144141444::4::*%$oOOOOOOoo,^^^^^^^^^^^^^^^^^^^^^^^^^^^^^^^^^^^^^^^^^^^^^^^^^^^^^^^^^^^^^^^^^^^^^^^^^^",
"444444444414444444444114444444444141:,$$ooOOooOOooo, ^^^^^^^^^^^^^^^^^^^^^^^^^^^^^^^^^^^^^^^^^^^^^^^^^^^^^^^^^^^^^^^^^^^^^^^^^^^",
"44444444444444444444444414444:44;*$$oOOOoooOooOOo>.^^^^^^^^^^^^^^^^^^^^^^^^^^^^^^^^^^^^^^^^^^^^^^^^^^^^^^^^^^^^^^^^^^^^^^^^^^^^^",
"44144444414444144444444:4::;%&$oooooOOOO$oooOoo&+^^^^^^^^^^^^^^^^^^^^^^^^^^^^^^^^^^^^^^^^^^^^^^^^^^^^^^^^^^^^^^^^^^^^^^^^^^^^^^^",
"444441444444444144:<;**&$ooOOOOOooOOOO$oOOOOoO3^^^^^^^^^^^^^^^^^^^^^^^^^^^^^^^^^^^^^^^^^^^^^^^^^^^^^^^^^^^^^^^^^^^^^^^^^^^^^^^^^",
"%%*********%%%%$$$ooo$oOooOOOOOOooOOOOooOoO$2^^^^^^^^^^^^^^^^^^^^^^^^^^^^^^^^^^^^^^^^^^^^^^^^^^^^^^^^^^^^^^^^^^^^^^^^^^^^^^^^^^^",
"oOOOoOOOOOOOOOooOOooooOOoo$OOOoOoooOOOOoOo3^^^^^^^^^^^^^^^^^^^^^^^^^^^^^^^^^^^^^^^^^^^^^^^^^^^^^^^^^^^^^^^^^^^^^^^^^^^^^^^^^^^^^",
"oOOOOOOOOOOOOOOOOOooo$OOooooOOOO$oOOOoo>+^^^^^^^^^^^^^^^^^^^^^^^^^^^^^^^^^^^^^^^^^^^^^^^^^^^^^^^^^^^^^^^^^^^^^^^^^^^^^^^^^^^^^^^",
"OOOOOOOOOOOOOOOOOOOOOOoooo$oOoo$ooOo$,^^^^^^^^^^^^^^^^^^^^^^^^^^^^^^^^^^^^^^^^^^^^^^^^^^^^^^^^^^^^^^^^^^^^^^^^^^^^^^^^^^^^^^^^^^",
"OOOOOOOOOOOOOOOOOoOOOOooOoooOoooo&,^^^^^^^^^^^^^^^^^^^^^^^^^^^^^^^^^^^^^^^^^^^^^^^^^^^^^^^^^^^^^^^^^^^^^^^^^^^^^^^^^^^^^^^^^^^^^",
"OOOOOOoOOOOOOOOOooooOoooOOoo$&,^^^^^^^^^^^^^^^^^^^^^^^^^^^^^^^^^^^^^^^^^^^^^^^^^^^^^^^^^^^^^^^^^^^^^^^^^^^^^^^^^^^^^^^^^^^^^^^^^",
"OOOOOOooOOOOOOOOo$ooo$$&&&^^^^^^^^^^^^^^^^^^^^^^^^^^^^^^^^^^^^^^^^^^^^^^^^^^^^^^^^^^^^^^^^^^^^^^^^^^^^^^^^^^^^^^^^^^^^^^^^^^^^^^",
"&$$$$$$$$$$$$%$%%%%^^^^^^^^^^^^^^^^^^^^^^^^^^^^^^^^^^^^^^^^^^^^^^^^^^^^^^^^^^^^^^^^^^^^^^^^^^^^^^^^^^^^^^^^^^^^^^^^^^^^^^^^^^^^^",
"^^^^^^^^^^^^^^^^^^^^^^^^^^^^^^^^^^^^^^^^^^^^^^^^^^^^^^^^^^^^^^^^^^^^^^^^^^^^^^^^^^^^^^^^^^^^^^^^^^^^^^^^^^^^^^^^^^^^^^^^^^^^^^^^",
"^^^^^^^^^^^^^^^^^^^^^^^^^^^^^^^^^^^^^^^^^^^^^^^^^^^^^^^^^^^^^^^^^^^^^^^^^^^^^^^^^^^^^^^^^^^^^^^^^^^^^^^^^^^^^^^^^^^^^^^^^^^^^^^^",
"^^^^^^^^^^^^^^^^^^^^^^^^^^^^^^^^^^^^^^^^^^^^^^^^^^^^^^^^^^^^^^^^^^^^^^^^^^^^^^^^^^^^^^^^^^^^^^^^^^^^^^^^^^^^^^^^^^^^^^^^^^^^^^^^",
"^^^^^^^^^^^^^^^^^^^^^^^^^^^^^^^^^^^^^^^^^^^^^^^^^^^^^^^^^^^^^^^^^^^^^^^^^^^^^^^^^^^^^^^^^^^^^^^^^^^^^^^^^^^^^^^^^^^^^^^^^^^^^^^^",
"^^^^^^^^^^^^^^^^^^^^^^^^^^^^^^^^^^^^^^^^^^^^^^^^^^^^^^^^^^^^^^^^^^^^^^^^^^^^^^^^^^^^^^^^^^^^^^^^^^^^^^^^^^^^^^^^^^^^^^^^^^^^^^^^",
"^^^^^^^^^^^^^^^^^^^^^^^^^^^^^^^^^^^^^^^^^^^^^^^^^^^^^^^^^^^^^^^^^^^^^^^^^^^^^^^^^^^^^^^^^^^^^^^^^^^^^^^^^^^^^^^^^^^^^^^^^^^^^^^^",
"^^^^^^^^^^^^^^^^^^^^^^^^^^^^^^^^^^^^^^^^^^^^^^^^^^^^^^^^^^^^^^^^^^^^^^^^^^^^^^^^^^^^^^^^^^^^^^^^^^^^^^^^^^^^^^^^^^^^^^^^^^^^^^^^",
"^^^^^^^^^^^^^^^^^^^^^^^^^^^^^^^^^^^^^^^^^^^^^^^^^^^^^^^^^^^^^^^^^^^^^^^^^^^^^^^^^^^^^^^^^^^^^^^^^^^^^^^^^^^^^^^^^^^^^^^^^^^^^^^^",
"^^^^^^^^^^^^^^^^^^^^^^^^^^^^^^^^^^^^^^^^^^^^^^^^^^^^^^^^^^^^^^^^^^^^^^^^^^^^^^^^^^^^^^^^^^^^^^^^^^^^^^^^^^^^^^^^^^^^^^^^^^^^^^^^",
"^^^^^^^^^^^^^^^^^^^^^^^^^^^^^^^^^^^^^^^^^^^^^^^^^^^^^^^^^^^^^^^^^^^^^^^^^^^^^^^^^^^^^^^^^^^^^^^^^^^^^^^^^^^^^^^^^^^^^^^^^^^^^^^^",
"^^^^^^^^^^^^^^^^^^^^^^^^^^^^^^^^^^^^^^^^^^^^^^^^^^^^^^^^^^^^^^^^^^^^^^^^^^^^^^^^^^^^^^^^^^^^^^^^^^^^^^^^^^^^^^^^^^^^^^^^^^^^^^^^",
"^^^^^^^^^^^^^^^^^^^^^^^^^^^^^^^^^^^^^^^^^^^^^^^^^^^^^^^^^^^^^^^^^^^^^^^^^^^^^^^^^^^^^^^^^^^^^^^^^^^^^^^^^^^^^^^^^^^^^^^^^^^^^^^^",
"^^^^^^^^^^^^^^^^^^^^^^^^^^^^^^^^^^^^^^^^^^^^^^^^^^^^^^^^^^^^^^^^^^^^^^^^^^^^^^^^^^^^^^^^^^^^^^^^^^^^^^^^^^^^^^^^^^^^^^^^^^^^^^^^",
"^^^^^^^^^^^^^^^^^^^^^^^^^^^^^^^^^^^^^^^^^^^^^^^^^^^^^^^^^^^^^^^^^^^^^^^^^^^^^^^^^^^^^^^^^^^^^^^^^^^^^^^^^^^^^^^^^^^^^^^^^^^^^^^^",
"^^^^^^^^^^^^^^^^^^^^^^^^^^^^^^^^^^^^^^^^^^^^^^^^^^^^^^^^^^^^^^^^^^^^^^^^^^^^^^^^^^^^^^^^^^^^^^^^^^^^^^^^^^^^^^^^^^^^^^^^^^^^^^^^",
"^^^^^^^^^^^^^^^^^^^^^^^^^^^^^^^^^^^^^^^^^^^^^^^^^^^^^^^^^^^^^^^^^^^^^^^^^^^^^^^^^^^^^^^^^^^^^^^^^^^^^^^^^^^^^^^^^^^^^^^^^^^^^^^^",
"^^^^^^^^^^^^^^^^^^^^^^^^^^^^^^^^^^^^^^^^^^^^^^^^^^^^^^^^^^^^^^^^^^^^^^^^^^^^^^^^^^^^^^^^^^^^^^^^^^^^^^^^^^^^^^^^^^^^^^^^^^^^^^^^",
"^^^^^^^^^^^^^^^^^^^^^^^^^^^^^^^^^^^^^^^^^^^^^^^^^^^^^^^^^^^^^^^^^^^^^^^^^^^^^^^^^^^^^^^^^^^^^^^^^^^^^^^^^^^^^^^^^^^^^^^^^^^^^^^^",
"^^^^^^^^^^^^^^^^^^^^^^^^^^^^^^^^^^^^^^^^^^^^^^^^^^^^^^^^^^^^^^^^^^^^^^^^^^^^^^^^^^^^^^^^^^^^^^^^^^^^^^^^^^^^^^^^^^^^^^^^^^^^^^^^",
"^^^^^^^^^^^^^^^^^^^^^^^^^^^^^^^^^^^^^^^^^^^^^^^^^^^^^^^^^^^^^^^^^^^^^^^^^^^^^^^^^^^^^^^^^^^^^^^^^^^^^^^^^^^^^^^^^^^^^^^^^^^^^^^^",
"^^^^^^^^^^^^^^^^^^^^^^^^^^^^^^^^^^^^^^^^^^^^^^^^^^^^^^^^^^^^^^^^^^^^^^^^^^^^^^^^^^^^^^^^^^^^^^^^^^^^^^^^^^^^^^^^^^^^^^^^^^^^^^^^",
"^^^^^^^^^^^^^^^^^^^^^^^^^^^^^^^^^^^^^^^^^^^^^^^^^^^^^^^^^^^^^^^^^^^^^^^^^^^^^^^^^^^^^^^^^^^^^^^^^^^^^^^^^^^^^^^^^^^^^^^^^^^^^^^^",
"^^^^^^^^^^^^^^^^^^^^^^^^^^^^^^^^^^^^^^^^^^^^^^^^^^^^^^^^^^^^^^^^^^^^^^^^^^^^^^^^^^^^^^^^^^^^^^^^^^^^^^^^^^^^^^^^^^^^^^^^^^^^^^^^",
"^^^^^^^^^^^^^^^^^^^^^^^^^^^^^^^^^^^^^^^^^^^^^^^^^^^^^^^^^^^^^^^^^^^^^^^^^^^^^^^^^^^^^^^^^^^^^^^^^^^^^^^^^^^^^^^^^^^^^^^^^^^^^^^^",
"^^^^^^^^^^^^^^^^^^^^^^^^^^^^^^^^^^^^^^^^^^^^^^^^^^^^^^^^^^^^^^^^^^^^^^^^^^^^^^^^^^^^^^^^^^^^^^^^^^^^^^^^^^^^^^^^^^^^^^^^^^^^^^^^",
"^^^^^^^^^^^^^^^^^^^^^^^^^^^^^^^^^^^^^^^^^^^^^^^^^^^^^^^^^^^^^^^^^^^^^^^^^^^^^^^^^^^^^^^^^^^^^^^^^^^^^^^^^^^^^^^^^^^^^^^^^^^^^^^^",
"^^^^^^^^^^^^^^^^^^^^^^^^^^^^^^^^^^^^^^^^^^^^^^^^^^^^^^^^^^^^^^^^^^^^^^^^^^^^^^^^^^^^^^^^^^^^^^^^^^^^^^^^^^^^^^^^^^^^^^^^^^^^^^^^",
"^^^^^^^^^^^^^^^^^^^^^^^^^^^^^^^^^^^^^^^^^^^^^^^^^^^^^^^^^^^^^^^^^^^^^^^^^^^^^^^^^^^^^^^^^^^^^^^^^^^^^^^^^^^^^^^^^^^^^^^^^^^^^^^^",
"^^^^^^^^^^^^^^^^^^^^^^^^^^^^^^^^^^^^^^^^^^^^^^^^^^^^^^^^^^^^^^^^^^^^^^^^^^^^^^^^^^^^^^^^^^^^^^^^^^^^^^^^^^^^^^^^^^^^^^^^^^^^^^^^",
"^^^^^^^^^^^^^^^^^^^^^^^^^^^^^^^^^^^^^^^^^^^^^^^^^^^^^^^^^^^^^^^^^^^^^^^^^^^^^^^^^^^^^^^^^^^^^^^^^^^^^^^^^^^^^^^^^^^^^^^^^^^^^^^^",
"^^^^^^^^^^^^^^^^^^^^^^^^^^^^^^^^^^^^^^^^^^^^^^^^^^^^^^^^^^^^^^^^^^^^^^^^^^^^^^^^^^^^^^^^^^^^^^^^^^^^^^^^^^^^^^^^^^^^^^^^^^^^^^^^",
"^^^^^^^^^^^^^^^^^^^^^^^^^^^^^^^^^^^^^^^^^^^^^^^^^^^^^^^^^^^^^^^^^^^^^^^^^^^^^^^^^^^^^^^^^^^^^^^^^^^^^^^^^^^^^^^^^^^^^^^^^^^^^^^^",
"^^^^^^^^^^^^^^^^^^^^^^^^^^^^^^^^^^^^^^^^^^^^^^^^^^^^^^^^^^^^^^^^^^^^^^^^^^^^^^^^^^^^^^^^^^^^^^^^^^^^^^^^^^^^^^^^^^^^^^^^^^^^^^^^",
"^^^^^^^^^^^^^^^^^^^^^^^^^^^^^^^^^^^^^^^^^^^^^^^^^^^^^^^^^^^^^^^^^^^^^^^^^^^^^^^^^^^^^^^^^^^^^^^^^^^^^^^^^^^^^^^^^^^^^^^^^^^^^^^^",
"^^^^^^^^^^^^^^^^^^^^^^^^^^^^^^^^^^^^^^^^^^^^^^^^^^^^^^^^^^^^^^^^^^^^^^^^^^^^^^^^^^^^^^^^^^^^^^^^^^^^^^^^^^^^^^^^^^^^^^^^^^^^^^^^"
};
