/* XPM */
static char *result[] = {
/* columns rows colors chars-per-pixel */
"128 128 84 1 ",
"  c #201209",
". c #211209",
"X c #211309",
"o c #221209",
"O c #221309",
"+ c #231309",
"@ c #22130A",
"# c #221409",
"$ c #231409",
"% c #22140A",
"& c #23140A",
"* c #241409",
"= c #251409",
"- c #24140A",
"; c #25140A",
": c #25150A",
"> c #26150A",
", c #27150A",
"< c #26160A",
"1 c #27160A",
"2 c #26160B",
"3 c #27160B",
"4 c #28160A",
"5 c #29160A",
"6 c #28170A",
"7 c #28160B",
"8 c #28170B",
"9 c #29170B",
"0 c #2A170B",
"q c #2B170B",
"w c #2A180B",
"e c #2B180B",
"r c #2C180B",
"t c #2C190B",
"y c #2D190B",
"u c #2C180C",
"i c #2C190C",
"p c #2D190C",
"a c #2E190C",
"s c #2D1A0C",
"d c #2E1A0C",
"f c #2F1A0C",
"g c #2F1B0C",
"h c #2F1A0D",
"j c #301A0C",
"k c #301B0C",
"l c #301A0D",
"z c #301B0D",
"x c #311B0D",
"c c #321B0D",
"v c #321C0D",
"b c #331C0D",
"n c #331D0D",
"m c #331C0E",
"M c #331D0E",
"N c #341C0D",
"B c #341D0D",
"V c #351D0D",
"C c #341C0E",
"Z c #341D0E",
"A c #351D0E",
"S c #351E0E",
"D c #361E0E",
"F c #371E0E",
"G c #371F0E",
"H c #361E0F",
"J c #371E0F",
"K c #371F0F",
"L c #381E0E",
"P c #381F0E",
"I c #391F0E",
"U c #381F0F",
"Y c #391F0F",
"T c #38200F",
"R c #39200F",
"E c #3A200F",
"W c #3B200F",
"Q c #3B210F",
"! c #3A2010",
"~ c #3B2010",
"^ c #3A2110",
"/ c #3B2110",
"( c #3C2110",
") c #3C2210",
/* pixels */
"////////////////////////////////////////////////////////////////////////////////////////////////////////////////////////////////",
"////////////////////////////////////////////////////////////////////////////////////////////////////////////////////////////////",
"////////////////////////////////////////////////////////////////////////////////////////////////////////////////////////////////",
"////////////////////////////////////////////////////////////////////////////////////////////////////////////////////////////////",
"////////////////////////////////////////////////////////////////////////////////////////////////////////////////////////////////",
"/////////////////////////////////////////////////////////////////////////////////////////////////////////////////////////EVvR!//",
"////////////////////////////////////////////////////////////////////////////////////////////////////////////////////////EfOO-J//",
"////////////////////////////////////////////////////////////////////////////////////////////////////////////////////////E*&O&p//",
"////////////////////////////////////////////////////////////////////////////////////////////////////////////////////////E*&O&p//",
"////////////////////////////////////////////////////////////////////////////////////////////////////////////////////////EkO$:K//",
"/////////////////////////////////////////////////////////////////////////////////////////////////////////////////////////EDZR!//",
"////////////////////////////////////////////////////////////////////////////////////////////////////////////////////////////////",
"////////////////////////////////////////////////////////////////////////////////////////////////////////////////////////////////",
"////////////////////////////////////////////////////////////////////////////////////////////////////////////////////////////////",
"////////////////////////////////////////////////////////////////////////////////////////////////////////////////////////////////",
"////////////////////////////////////////////////////////////////////////////////////////////////////////////////////////////////",
"////////////////////////////////////////////////////////////////////////////////////////////////////////////////////////////////",
"/////////////////////////E!ECpqybE/E////////////////////////////////////////////////////////////////////////////////////////////",
"////////////////////////E/D1O&&&@>Z//E//////////////////////////////////////////////////////////////////////////////////////////",
"///////////////////////E/S:O&&&&&&Ob/^E/////////////////////////////////////////////////////////////////////////////////////////",
"//////////////////////EEQ,O&&&&&&&@>F(E/////////////////////////////////////////////////////////////////////////////////////////",
"//////////////////////E/v-O&&&&&&&&Xx~/E////////////////////////////////////////////////////////////////////////////////////////",
"//////////////////////E(r$O&&&&&&&&XeY/E////////////////////////////////////////////////////////////////////////////////////////",
"//////////////////////E(0OO&&&&&&&&O9U/E////////////////////////////////////////////////////////////////////////////////////////",
"//////////////////////E(e#O&&&&&&&&XeY/E////////////////////////////////////////////////////////////////////////////////////////",
"//////////////////////E/k-O&&&&&&&&XgE/E////////////////////////////////////////////////////////////////////////////////////////",
"//////////////////////EEE>X&&&&&&&&&D(E/////////////////////////////////////////////////////////////////////////////////////////",
"///////////////////////E/v-O&&&&&&XkW/E/////////////////////////////////////////////////////////////////////////////////////////",
"////////////////////////E/b-O&&&&+kE/E//////////////////////////////////////////////////////////////////////////////////////////",
"/////////////////////////E/Ug825pPQ^E///////////////////////////////////////////////////////////////////////////////////////////",
"////////////////////////////////////////////////////////////////////////////////////////////////////////////////////////////////",
"////////////////////////////////////////////////////////////////////////////////////////////////////////////////////////////////",
"////////////////////////////////////////////////////////////////////////////////////////////////////////////////////////////////",
"////////////////////////////////////////////////////////////////////////////////////////////////////////////////////////////////",
"////////////////////////////////////////////////////////////////////////////////////////////////////////////////////////////////",
"//////////////////////////////////////////////////////////////////////////////////////////////////////////E/EIJPE/E/////////////",
"////////////////////////////////////////////////////////////////////////////////////////////////////////E/En4@&O-uD/E///////////",
"///////////////////////////////////////////////////////////////////////////////////////////////////////E/ReO&&&&&O&x/E//////////",
"//////////////////////////////////////////////////////////////////////////////////////////////////////E/RuO&&&&&&&O&v/E/////////",
"/////////////////////////////////////////////////////////////////////////////////////////////////////E/QvX&&&&&&&&%O;YEE////////",
"/////////////////////////////////////////////////////////////////////////////////////////////////////E/R9O&&&&&&&&&O&l/E////////",
"/////////////////////////////////////////////////////////////////////////////////////////////////////E(KO&&&&&&&&&&OO9/E////////",
"////////////////////////////////////////////////////////////////////////////////////////////////////E^/DX&&&&&&&&&&@O>/E////////",
"/////////////////////////////////////////////////////////////////////////////////////////////////////E(K.&&&&&&&&&&@O,/E////////",
"/////////////////////////////////////////////////////////////////////////////////////////////////////E/U-&&&&&&&&&&O+0/E////////",
"/////////////////////////////////////////////////////////////////////////////////////////////////////E/ReO&&&&&&&&&O&c/E////////",
"/////////////////////////////////////////////////////////////////////////////////////////////////////E//So&&&&&&&&@O,EEE////////",
"//////////////////////////////////////////////////////////////////////////////////////////////////////E/EzX&&&&&&%O;F!E/////////",
"///////////////////////////////////////////////////////////////////////////////////////////////////////E/Ex$&&&&@O,F^E//////////",
"////////////////////////////////////////////////////////////////////////////////////////////////////////E/QGd4=>0vE!E///////////",
"////////////////////////////////////////////////////////////////////////////////////////////////////////////////////////////////",
"////////////////////////////////////////////////////////////////////////////////////////////////////////////////////////////////",
"////////////////////////////////////////////////////////////////////////////////////////////////////////////////////////////////",
"////////////////////////////////////////////////////////////////////////////////////////////////////////////////////////////////",
"////////////////////////////////////////////////////////////////////////////////////////////////////////////////////////////////",
"////////////////////////////////////////////////////////////////////////////////////////////////////////////////////////////////",
"////////////////////////////////////E/DfrfFE/E//////////////////////////////////////////////////////////////////////////////////",
"//////////////////////////////////EEQi$O&&OdE/E/////////////////////////////////////////////////////////////////////////////////",
"/////////////////////////////////EEQu+O&&&& fE/E////////////////////////////////////////////////////////////////////////////////",
"/////////////////////////////////E/S>O&&&&&@:S(E////////////////////////////////////////////////////////////////////////////////",
"/////////////////////////////////E(h&O&&&&&& c(!E///////////////////////////////////////////////////////////////////////////////",
"/////////////////////////////////E(a$O&&&&&& x(!E///////////////////////////////////////////////////////////////////////////////",
"/////////////////////////////////E(x-O&&&&&&XM)E////////////////////////////////////////////////////////////////////////////////",
"/////////////////////////////////E/P<X&&&&&O4F(E////////////////////////////////////////////////////////////////////////////////",
"//////////////////////////////////E(x-O&&&&Ob/!E////////////////////////////////////////////////////////////////////////////////",
"///////////////////////////////////E/m>O&@<b~/E/////////////////////////////////////////////////////////////////////////////////",
"////////////////////////////////////E^EDbDE/E///////////////////////////////////////////////////////////////////////////////////",
"////////////////////////////////////////////////////////////////////////////////////////////////////////////////////////////////",
"////////////////////////////////////////////////////////////////////////////////////////////////////////////////////////////////",
"////////////////////////////////////////////////////////////////////////////////////////////////////////////////////////////////",
"////////////////////////////////////////////////////////////////////////////////////////////////////////////////////////////////",
"////////////////////////////////////////////////////////////////////////////////////////////////////////////////////////////////",
"////////////////////////////////////////////////////////////////////////////////////////////////////////////////////////////////",
"////////////////////////////////////////////////////////////////////////////////////////////////////////////////////////////////",
"////////////////////////////////////////////////////////////////////////////////////////////////////////////////////////////////",
"////////////////////////////////////////////////////////////////////////////////////////////////////////////////////////////////",
"////////////////////////////////////////////////////////////////////////////////////////////////////////////////////////////////",
"////////////////////////////////////////////////////////////////////////////////////////////////////////////////////////////////",
"////////////////////////////////////////////////////////////////////////////////////////////////////////////////////////////////",
"////////////////////////////////////////////////////////////////////////////////////////////////////////////////////////////////",
"////////////////////////////////////////////////////////////////////////////////////////////////////////////////////////////////",
"////////////////////////////////////////////////////////////////////////////////////////////////////////////////////////////////",
"////////////////////////////////////////////////////////////////////////////////////////////////////////////////////////////////",
"////////////////////////////////////////////////////////////////////////////////////////////////////////////////////////////////",
"////////////////////////////////////////////////////////////////////////////////////////////E/EPHPE/E///////////////////////////",
"/////////////////////////////////////////////////////////////////////////////////////////E/EAe*%&O&0BE!E////////////////////////",
"////////////////////////////////////////////////////////////////////////////////////////E/YeX&&&&&&OO9TEE///////////////////////",
"///////////////////////////////////////////////////////////////////////////////////////E(K7O&&&&&&&&&O>P!E//////////////////////",
"//////////////////////////////////////////////////////////////////////////////////////E/U0O&&&&&&&&&&@O1REE/////////////////////",
"/////////////////////////////////////////////////////////////////////////////////////E//x &&&&&&&&&&&&O&p(E/////////////////////",
"/////////////////////////////////////////////////////////////////////////////////////E(K3O&&&&&&&&&&&&&O:EEE////////////////////",
"////////////////////////////////////////////////////////////////////////////////////E!(b.&&&&&&&&&&&&&&O-v/E////////////////////",
"////////////////////////////////////////////////////////////////////////////////////E//z &&&&&&&&&&&&&&O$t(E////////////////////",
"////////////////////////////////////////////////////////////////////////////////////E/EdX&&&&&&&&&&&&&&OOq(E////////////////////",
"////////////////////////////////////////////////////////////////////////////////////E/EfX&&&&&&&&&&&&&&OOq(E////////////////////",
"////////////////////////////////////////////////////////////////////////////////////E//z &&&&&&&&&&&&&&O&p(E////////////////////",
"/////////////////////////////////////////////////////////////////////////////////////E(ZX&&&&&&&&&&&&&&O-v/E////////////////////",
"/////////////////////////////////////////////////////////////////////////////////////E/K7O&&&&&&&&&&&&&O:EEE////////////////////",
"/////////////////////////////////////////////////////////////////////////////////////E//c.&&&&&&&&&&&&O&f/E/////////////////////",
"//////////////////////////////////////////////////////////////////////////////////////E/RtX&&&&&&&&&&@O6EEE/////////////////////",
"///////////////////////////////////////////////////////////////////////////////////////E/U0O&&&&&&&&@O4TEE//////////////////////",
"////////////////////////////////////////////////////////////////////////////////////////E/Ra$&&&&&&O$yEEE///////////////////////",
"/////////////////////////////////////////////////////////////////////////////////////////E^QLp<+%$>sD/E/////////////////////////",
"///////E/Dw:$6BE/E///////////////////////////////////////////////////////////////////////////E/EIE/E////////////////////////////",
"//////E^A&O&&&OcE/E/////////////////////////////////////////////////////////////////////////////////////////////////////////////",
"/////EEE>O@&&&&$L/!E////////////////////////////////////////////////////////////////////////////////////////////////////////////",
"/////E/A&O&&&&&OcE/E////////////////////////////////////////////////////////////////////////////////////////////////////////////",
"/////E/v&O&&&&&OjE/E////////////////////////////////////////////////////////////////////////////////////////////////////////////",
"/////E/S&O&&&&&XcE/E////////////////////////////////////////////////////////////////////////////////////////////////////////////",
"/////EEE<O@&&&&*L/!E////////////////////////////////////////////////////////////////////////////////////////////////////////////",
"//////E!D-O%&&ONQ/E/////////////////////////////////////////////////////////////////////////////////////////////////////////////",
"///////E^Up3>eFW/E//////////////////////////////////////////////////////////////////////////////////////////////////////////////",
"////////////////////////////////////////////////////////////////////////////////////////////////////////////////////////////////",
"////////////////////////////////////////////////////////////////////////////////////////////////////////////////////////////////",
"////////////////////////////////////////////////////////////////////////////////////////////////////////////////////////////////",
"////////////////////////////////////////////////////////////////////////////////////////////////////////////////////////////////",
"////////////////////////////////////////////////////////////////////////////////////////////////////////////////////////////////",
"////////////////////////////////////////////////////////////////////////////////////////////////////////////////////////////////",
"////////////////////////////////////////////////////////////////////////////////////////////////////////////////////////////////",
"////////////////////////////////////////////////////////////////////////////////////////////////////////////////////////////////",
"////////////////////////////////////////////////////////////////////////////////////////////////////////////////////////////////",
"////////////////////////////////////////////////////////////////////////////////////////////////////////////////////////////////",
"////////////////////////////////////////////////////////////////////////////////////////////////////////////////////////////////",
"////////////////////////////////////////////////////////////////////////////////////////////////////////////////////////////////",
"////////////////////////////////////////////////////////////////////////////////////////////////////////////////////////////////",
"////////////////////////////////////////////////////////////////////////////////////////////////////////////////////////////////",
"////////////////////////////////////////////////////////////////////////////////////////////////////////////////////////////////",
"////////////////////////////////////////////////////////////////////////////////////////////////////////////////////////////////"
};
