/* XPM */
static char *result[] = {
/* columns rows colors chars-per-pixel */
"128 128 56 1 ",
"  c #23140A",
". c #29160B",
"X c #2D190C",
"o c #341D0E",
"O c #391F0F",
"+ c #3A200F",
"@ c #3B2110",
"# c #1E373C",
"$ c #1E383D",
"% c #312D26",
"& c #3C362E",
"* c #2C3636",
"= c #23373A",
"- c #283738",
"; c #20383B",
": c #343632",
"> c #393630",
", c #3C3B33",
"< c #323A38",
"1 c #422614",
"2 c #462916",
"3 c #482A17",
"4 c #452918",
"5 c #4E2E1B",
"6 c #502F1C",
"7 c #4F301D",
"8 c #50301D",
"9 c #443225",
"0 c #4E3426",
"q c #44352B",
"w c #4A3529",
"e c #42392F",
"r c #4C3A2D",
"t c #563524",
"y c #593623",
"u c #5D3925",
"i c #593B29",
"p c #613B26",
"a c #643E29",
"s c #683F2A",
"d c #67402A",
"f c #6C432D",
"g c #70462F",
"h c #1F3B40",
"j c #203D43",
"k c #224146",
"l c #24454B",
"z c #26484F",
"x c #274A50",
"c c #294D54",
"v c #2A5057",
"b c #2B5158",
"n c #2E585F",
"m c #2E5A62",
"M c #305D65",
"N c #326169",
/* pixels */
"NNNNNNNNNNNNNNNNNNNNNNNNNNNNNNNNNNNNNNNNNNNNNNNNNNNNNNNNNNNNNNNNNNNNNNNNNNNNNNNNNNNNNNNNNNNNNNNNNNNNNNNNNNNNNNNNNNNNNNNNNNNmmbkf",
"NNNNNNNNNNNNNNNNNNNNNNNNNNNNNNNNNNNNNNNNNNNNNNNNNNNNNNNNNNNNNNNNNNNNNNNNNNNNNNNNNNNNNNNNNNNNNNNNNNNNNNNNNNNNNNNNNNNNNMMmnbvbvv<f",
"NNNNNNNNNNNNNNNNNNNNNNNNNNNNNNNNNNNNNNNNNNNNNNNNNNNNNNNNNNNNNNNNNNNNNNNNNNNNNNNNNNNNNNNNNNNNNNNNNNNNNNNNNNNNNNNNNmmbbbbbvbbbbz<f",
"NNNNNNNNNNNNNNNNNNNNNNNNNNNNNNNNNNNNNNNNNNNNNNNNNNNNNNNNNNNNNNNNNNNNNNNNNNNNNNNNNNNNNNNNNNNNNNNNNNNNNNNmNNNmnnbbbbbbvbbbvbvbvk,f",
"NNNNNNNNNNNNNNNNNNNNNNNNNNNNNNNNNNNNNNNNNNNNNNNNNNNNNNNNNNNNNNNNNNNNNNNNNNNNNNNNNNNNNNNNNNNNNNNNNNNmmmmnbbvbbbbbbbbbbbbbbbbbc#,f",
"NNNNNNNNNNNNNNNNNNNNNNNNNNNNNNNNNNNNNNNNNNNNNNNNNNNNNNNNNNNNNNNNNNNMNNNNNNNMNNNNNNNNNNNNNNmmmmnnbbbbbbbvbbbbbbbbbbvbbbbbbbbbk$>f",
"NNNNNNNNNNNNNNNNNNNNNNNNNNMNNNNNNNNMNNMNNNNNNNNMNNMMNMNNMMNMNNMNNMNMNMNMNNMMMMMMmmnnbnbbvbbbbbbbbbbbbbbbbbbbbbbbbbbbbbbbbbbx##ef",
"MNMNmMMMMMMMMMMMMMMMMMMnMMMMMMMMMMMMMMMMMMMmMmMmMMMMMmmMmmMnnMnmmnnnmbnbbnbbnbbbbbvbbvbbvbbbbbbbbbbbvbbbbbbbbbvbvcbvbbvbbbb$$$ef",
"bbbbbbbbbbbbbbbbbbbbbbbbbbbbbbbbbbbbbbbbbbbbvbbbcbbbbbbbbbbbbbbbbbbbbbbbbbbbbbbbbbbbbbbbbbbbbbbbbbbbbbbbbbbbbbvbb$zbbbbbbvj$$#rf",
"bbbbbcbbbbbbbbbbbbbbbbbbbbbbbbbbvbbbbbbbbbvbbbbbbbbbbbbbbbbbbbbbbbbbbbbbbbbbbbbbbbbbbbbbbbbbbbbbbbbbbbbbbbbbbvbvz#$kxbbbxh$$$$rf",
"bbbbbbbbbbbbbbbbbbbbbbbbbbbcbbbbbbbbbbbbbbbbbbbbbbbbbbbbcbbbcbbbbbbbbbbbbbbbbbbbbbbbbbbbbbbbbbbbbbbbbbbbbbbbbvbbh$$$$$j;$$$$##if",
"bbbbbbbbbbbbbbbbvbbbbbbbbbbbbbbbbbbbbvbbbbbbbbbbbbbbbbbbbbbbbbbbbbbbbbbbbbbbbcbbbbbbbbbbbbbbbvbvxbbbbbbvbbbbvvbx$$$$$$$$$$$$#=df",
"bbbbbbbbbbbbbbbbbbbbbbbbbbbbbbbbbbvbbbbbbbvbbbbbbbbbbbbbbbbbbbbbbbbbbbbbbcbbbbbbbbbbbbbbbbbbbvbvlvbvbbbbbbbbvbbl#$$$$$$$$$$$#>dd",
"bbbbbbbbbbbbbbbbbbbbbbbbbbcbbbbbbbbbbbbbbbbbbbvbbbbbbbbbbbbbbbbbbbbvbbbbbbbbbbbbbbbbbbbbbbbbbvbxhlbvbvbbbbbbvbbh#$$$$$$$$$$$#wdd",
"bbbbbbbbbbbbcbbbbbbbbbbbbbbbbbbbbbbbbbvbbbbbbbbbbbbbbbbbbbbbbbbbbbbbbbbbbbbbbbbbbbbbbbbbbbvbvbbz#hcvvbbbbbbvbbx#$$$$$$$$$$##:tdf",
"bbbbbbbbbbbbbbbbbbvbbbbbbbbbbbbbbbbbvbbbbbbbbbbvbbbbbcbbbbbbbbbbbbbbbbbbbbbbbbbbbbbxbbbbbbbbvbck##hvbvbbbbbcbch$$$$$$$$$$$##0idf",
"bbbbbbbbbbbbbbbbbbbbbbbbbbbbbbbbbbbbbvbbbbbbbbbbbbbbbbbbbbbbbbbbbbbbbbbbbbbbbbvbxlbbbbbbbbbbbbx#$$#hlbbvbvvvvj##$$$$$$$$$$#>ttff",
"bbbvbbvbbbvbbbbbbbvbbbbbvbbbvbbbbbbcbzcbbbbbbbbbbbbbbbbbbbbbbbbbvbbbbbbbbbbbbcbch$xbbbbbbbbcbch#$##$##jlzxzlh#h#;>#$$$$$$#*ttpff",
"bbbbbbbbbbbbbbbbbbvbbvbbbbbbvbbbbbbbckxbbbbbbbbbbvbbbbbvbbbbbbbbvbcxbbvbbbbbbbbxh#hcvvbbbbbbvl#$$$$$$$$$h#######-yw=###h#*tttfff",
"bbbbbbbbbbbbbbbbbbvbllvbvbbbbbbbbbbbl#lbbcbbbbvbbbbvbbbbbbbbbbbbvbzjzbvbbbbbbbch#$#hlvvvbbbbl###$$$$$$#####h####&tttq>*<qtttpfff",
"cvvbbvvcjvvbbbbbbvbxh#xbbvbbbbbbbbbch#hxbbbbbbbbbbbbvbccbvbbbbbvbzj#jcbcbbbbbck#$$$$#hllzxzh#$##;$#$;h#hh##h##h#ttttttyyttttffff",
"lcbbbvbl;jcbbbbbvbz$##hcbvvbbbbbbbch#$#lcbvbbbbbbbbvbchhxbbcbvvbxh##=jcbvbcbvl#$$$$$$$##$$$$$#$=:$#$$$#########*tttttttttttaffff",
"#lcbbvl##h#lxccclj;###$hxvbvbbbcbxh#$$##kbbvbbbbbbvbch##hjzcvcxjh#####;jxcvxh#$$$$$$$$$$$$$$$#$#q*$###j#h##h#h;>tattttttttufffff",
"###hh#######$$#h=;;hh#$$#jxccbcxh$#$$$$$$hcbvvbbvvbzh##h#;$#$$#$##h#;##j$$#$$$$$$$$$$$$$$$$$$#h*t&h#########;#=ttffttttttusfffff",
"#h$$$$$$$$$$$$$;##########;h####$$$$$$$$$$$hlxcczlh####h$$$$$$##h#h###h$$$$$$$$$$#;h$$$########>tt>##$$$##h###:tafffaaiiagffffgf",
"##$$$$$$$$$$#$$$#h#hh#h#$$$$#h#h$$$$$$$$$$$hh##$#h##h###$$$$$$#h#####h##$$$$$$#$;-##$$;h#h#h##=0ttt>###$#h###*ttsfffffgfffffffff",
"*#$$$$$$$$$$$$$$h######h$$$$h$##$$$#$=#$#$$###$$###hh##h$$$$$;$$h##h##h#$$$$$###>w###$$$$$####:uuttt0>=;##hh:ttyffffffffffffffff",
"q#$$$$$$$$$$$$$$####h###$$$$#$$$$$#$#>=$#$$$$$$$#h######$$$$$$$$##;#####$$$$$#$-wt>##$$#$$$##*tiautttttt0wwttttaffffffffffffffff",
"t:#h$$$$###$$$$$h###-=;h#$$$#$$$$$#$*t-##$$$#h#$h#h#####$$$$$$$$##:>=h##$#$$#$#&ytt&####$;##=0ttfa5tttttttttttyfffffffffgfffffff",
"tt&;#$$-*#$$$$$$###hww;##$$##$$$$$#$qy&=$#$$$$#$#####h#h$$$$$$$$##>t:####h$$#$*ttttt0:;##$#<tttpfu44ttttttttttaffffffffgffffffgf",
"ttttww0t5*##$$$$###qtt:;$#h##h;h$#$>ttt*###$$$$$#$####>>#$;$$$$$#>ttt:###$$#$*0ttittttttwq0ttttffu55tttttttttyfsffffffffffffffff",
"uttttttt0@%=$$$##*wtttt>;$#######$>tttt0-h#$$$$$$$##h>ttq=$#$#$-qtttttq=##$#*0ttufttttttttttttpffdaadautttttufffffffffffffffffff",
"atttttttt4@49>>q0tttttttw*#$hh##=wtttptt0<####h#$$$#&tttttw&&q0tttttttttw&&wtttydfattttttttt88fffffffffffafffffffffffffgffffffff",
"fptttttttt6tttttttttuttttt0&>>&0ttttufutttq*####$$*0ttttttttttttttuptttttttttttpgdfatttttttyadfffffffffffgffffffffffffffffffffff",
"ffattttiittttttttttydstttttttyttttttafattttttqqqwtttttttttttttttttpfptttttttttpfffffdpittt8pfgffffffffffffffffffffffffffffffffff",
"fffffssffutttytytytaffattttttttttttpfffuttttttttttytttautttttttttpfffptttttttudfffffffffdfffffffffffffffffffffffgfffd88yffffffff",
"ffffffffffaytttt8psffffpttttttttttasfffsuttttytttttt8pffdittttyusfffffaittttpdfffffffgfffffffffffffffgfffffffffffffa0668yffffffg",
"fffffffffffffaaaffffffffduttttttusffffffsptt0ttttttypfffffdaaadffffffffffaaaffffffffffffffffffffffgffffffffffffgfffu66858fffffff",
"ffffffffffffffffffffffffffsaapadsffffffsfsaitttttypdfffffffffgffffffgffffffffffffffffffffffffffffffffgfffffffffffffa58668fffffff",
"fgffgffffffffffffffffffpufffffffffu6tsfffffffsaadffffffffffat8affffffffffffffffffffffffffffffffgfffffffffgfffffffffft858pfffffff",
"gfffffffffffffffffffffs85pffffggy678858dgsffffffffffffffffgu558fffffffffffffffdaadgfffffffffffffffffgfffffffgfffffffsppaffffffgf",
"fffffffffffpafffffffffg88sffffg885858886agfffffffgffffffffg856pfsfffffffffffsu8888yfffffgfffffgggfffffffffffffffffffffffffffffff",
"fffffffffst56uffffffffffffffffp5886888886afffffffffgfffgffff8pffffffffgfffffp568866ufffffffffffgfffffffffgffffffffffffffffffffff",
"fffffffffy7767sfffgfffffgffffs86888888886tsffffffffgffffffffggfffffffffffffp66668858affffffgfp88tafffffffffffffggfffffffffffffff",
"fffffffffy6565affffffffffffff8586888888666usfsfffffgfgfffffffffffffffffffffp68888888pfffffff8888855ufffffffffffffffffffffffffffg",
"affffffffp657tffffffgfffffffp88888888888683pgffffff8666pffffffffffffffgfffgp68888868ufffffd8588886858fdfffffffffffffffffdu88888y",
"55t8ufffffauuffffffffffffgff8586888888888686afffff8666868fffffffgfgffffffffa66888888pfffff888888885866afffffffffffffffa668888888",
"886666pffffffffffffffffffgg865888888888888888sffgp8666886pfdfffffffffffffffsu5888888fffffd8886888885856pfffffgfffffffu5868888888",
"8878685pfffffffffffffffffff858688888588888585yfff85888886ugffffgffffffffffffft66858fffgfu38fg888888858858fffffffffff888888888888",
"88888565afffffffffffffffdf86868888858ff8588865aggy88888868ffffffffffffffgfffffaupagfffg8566u85888888888886sffffffgd8888888888888",
"888888586dffgfffffgfffffa55868888885ugg85888878dgy8888886pffdfffffffffffffffffffffffff8566668888888888888858affff856588888888688",
"888888888yffffffffffffg85788888888876p8858786858fs8888858pgdfffffffgffffffffffffffffs8686666888888888888885655566868888888888888",
"8888888585dffffffffff888888888888888888888888665uga87888pgffgffdyt6uffffffffffgffffa58886888888888888888888888888888888886878888",
"88885yp8686dffffffp858888888888888888888888888583ugfppaffffffg8577665tssffffffffffp388888888888888888888888888888888888888888888",
"88888dfp85858yy85568688888888888688888887888888565pgffffffggp8587677665uffffffffd85868858653588888888888888888888888888888888878",
"88886afy88888878888888888888888888888888888888886688ffffffg85888766656t56pfffgs85858888863+++38888788888888868868888888888888888",
"88888788788888888868888888888888888888878888888866666dddgp6585888866afdu66565556588888585+@++1585888888888688ffp5887888888878886",
"8888878888878888888888687888888888888851++1588786666855556668788865pfffd85886888888885683+@+++58588888888858pffd8888888887888888",
"888888688688888888888888878888888885731++++138688866888888888888888pgffdy6688688888888585+++++55888888788858yffs8886888888888888",
"88888888888887888888887888888888886581+++++O158588868878888888888888dffa666888888888888872+++5888888888888858yu85888888888888788",
"7878888888888888888886888888888888585+++++@+158688888888888888888866ypu856888888888888857555585888888887878888888888888888888888",
"888888887888888888888888886851+1586851++@+@++58888888888888888888888888888888887887888888877888888888688888888888888785355858888",
"8888888885831558888887888568+++@+58651++@@@+156588888888868888888888888888788888888888878688888888788888888888888888851+O@565887",
"86888887565++@57888888888583@+@@+38652++@@@+285688686683+1385888888888888888888888888888888888886788888888888788888852+@++185888",
"88878888588++158887888888555@+@@+388562@O@@258578888585@++158588888888888878888888888778888888888888888888888888888861@@++185888",
"88888788888515888888888887581+@+@5858785555888888888565@++158588888888888788886888888888888888888888878888888888887883@@+@286888",
"88888888888888888888888888676211886888885888888888888582++3885788888888888888888888888888868888888887888888888878888863@@2868888",
"86888888888888888888888888888888888888688888888888888858558688888888888888888788888888888878888878888888888888888888888888888888",
"88888888888888868678888888888888888888878886888888888888788888888888888888888888888888885885558588888888858552235558888868888788",
"8788888888888851@1358588888888888888888888878888888888888888888868888788788858588888885855@+++2885888885755@+@@+@386888888888888",
"78888888888788++@@+3885888888888888888888888888888888788888888888888885851+++138688885871+@@@@+@5558885885@@@@@@@@26588887888888",
"88888888888583++@@@@58588888888888888878888888888878888888787888888885851++++++385888852+@@@@@@O168588685@O@@@@@@@@5858888878888",
"88888888888581++@@@+6888888885865578588888888886851@11556688888888888582++@@@@+@5565883+@@@@@@@@+18556885+@@@@@@@++1888888888888",
"88888888888582++@@@@5868886652@+@@@27858888885681++@@@@16858888888885851++@@@@@@585855@@@@@@@@@@+@3885851+@@@@@@@++1858888887888",
"85788888888885+++@+388588683@+@@@@@+558588888583@@@@@@@@2885888888888851+@+@@@@@38885@+@@@@@@@@@@O@686861+@@@@@@@+O@858888858888",
"111135888888778211558586681@+@@@@@@++58688885881+@@@@@@O1586888888885881+@@@@@@@38871O@@@@@+@132@@@285852+@@@@@@@++18688885521@1",
"@@@@++12588888888888885881@@@@@@@@@@+@575688788@+@@@@@@+1565888788888583+@@@@@+18783+@@@@@@O18785@+@58685+@@@@@@@+@38588851@+@@@",
"@@@@+++++258888888888775@+O@@@+@@@@@++@585585851+@@@@@@+@3658888888885882++@@@@5883@+@@@@@@@375861+@186871+@@@@@++1685885++@@@@+",
"@@@@@@+@@@+358888888683++@@@@@@@@@@@@@+@5885858@O@@@@@@+1585888878888858551@@258851+@@@@@@O@555851@+@386871+@@@@O1558886+@@@@@@@",
"@@@@@@@@+++O1368888831@+@@@@@@@@@@@@@@@@@3865882@+@@+@@+28858888888888877588885881O@@@@@@@+@18675+@@@@185853@@@115658851+@@@@@@@",
"@@@@@@@@@@@@@+@1@21@@@@@@@15551O+@@@@@@@@@3885671++++++15858888888888888888885683+@@@@@@@@@+@@32@+@@@OO1588888888888885++@@@@+@@",
"@@@@@@@@@@@@@@++@@@@@@@@+1778551++@@@@@@@@+2788581+++@27775855558588888888888885@+@@@@@@@@@@@@@@@@@@@@@++15888888888861O@@@@@@@@",
"@@+@@@++@+@@@@@@@@@@@@@@+5778855@@@@@@@@@@@@1585777788888851@++@158588888888585@+@@@@@@@@@@@@@@@@@@@@@@@@O@13888668863+@@@@@@@@@",
"@@@@@@++@1@+@@@@@@@@@@@@@5758556@O@@@@@@@@@@O+587777888851++@@@@++2785888885851O@@@@@@@@+@@@@@@@@@@@@@@@@@@+@@1355551+@@+@@+@@@@",
"@@@@@@+1587+++@@@@+@@@@@@78785851+@@@@@@@@@@+@+177877773++@@@@@@@@+15888888851+@@@@@@@@@@@@@@@@@@@@+@@@@@@@@@+@@O+@@+@+++575@+@@",
"@@@@@@+35782@+@@@@@@@@@@@3885782@+@@@@@@@@@@@@@+@@3333@++++@@@++@@@+@3888883++@@@@@@@@@@@@@@@@+@+Oo@+@@@@@@@@@@@++@@@@+@28585+@@",
"@@@@@@+28571@+@@@@@@@@@@@@55883@+@@@@@@@@@@@@@@@@@@@++@@@@++33++@@@@@+@2311++++@@@@@@@@@@@@@@@+@O..@O@@@@@@@@@@@@@@@@@+@38585+@@",
"@@@@@@@@365@+@@@@@@@@@@@@@O@1@@+@@@@@O@@@+@@@@@@@@@@@+@@@@+2881O@@@@@@+++++@@@@@@@@@@@@@@@@@@@@+@@O@+@@@@@@@@@@@@@@@@@+@18552+@@",
"@@@@@@@@++@@@@@@@@@@@@@@@@@@@@@@@@@@+1582++@@@@@@@@@@@@+@@@@73@+@@@@@@@@@@@@@@@@@@@@@@@@@@@@@+@@@@@@@@@@@@@@@@@@@@@@@@@+@121+@@@",
"@@@@@@@@@@@@@@@@@@@@@@@@@@@@+@@@@@@@O5885@+@@@@@@@@@@@@@@@@@+@@@@@@+@@@@@@@@@@@@@@@@@@@@@@@@@@@@@@@@@@@@@@@@@@@@@@@@@@@@@@@@+@@@",
"@@@@@@@@@@@@@+@@@@@@@+@@@@@@@@@@@@@@O1585@+@@@@@@@@@@@@@@@@@+@@@@@@@@@@@@@@@@@@@@@+@@@@@@@@@@@@@@@@@@@@@@@@+@@@@@@@@+@@@@@@@@@@@",
"@@@+@@@@@@@@@@@@@@@@@@@@@@@@@@@@@@@@@+11++@@@@@@@@@@@@@@@@@@@@@@@@@@@@@@@@@@@@@@@@@@@@@@@@@@@@@@@@@@@@@@+@@+@@@@@@@@@@@@@@@@@@@@",
"@@@@@@@@@@@@@@@@@@@@@@@@@@@@@@@@@@@+@@@@@@@@@@@@@@@+@+@@+XX@@+@@@@@@@@@@@@@+@1@+@@@@@@@+@@@@@@@@@@@@@@@O@1862@@+@@@@@@@@@@@@@@@@",
"@@@@@@@@@+@@@@@@@+@@@@@@@@@@@@@@@@@@@@@@@@@@@@@@@@@@++@X   .+@+@@@@@@@@+@+@@383+@@@@@@@@@@@@@@@@@@@@@@@+@88871+@@@@@@@@@@@@+@@@@",
"@@@@@@@@@@+++XXo++@+@@@@@@@@@@@@@@@@@@@@@@@@+@@@@@@@+@+     X@++@@@@@@@@@@+@563@+@@@@@@@@@@@@@@@@@@@@@O+185873+@@@@@@@@@@@@@@@@@",
"@@@@@@@@@++O.   .+@+@@+@@@@@@@@@@@@@@@@@@@@@@@@@@@@@+@X     .+@+@@@@@@@@@@@+131+@@@@@@@@+@@@@@@@@@@@@@@+@78852+@@@@@@@@@@@@@@@@@",
"@@@@@@@@@++o     o+@+@@@@@@@@@@@@@@@@@@@@@@@@@@@@@@@+@+     .@++@@+@@@@@@@@+@@@@@@@@@@@@@@@@@@@@@@@@@@@O@@772+@@@@@@@@@+@@@@@@@@",
"@@@@@@@@@+@X     X+@+@@@@@@@+@@@@@@@@+@@+X@@+@@@@@@@+@+X   .+@+@@@@@@@@@@@@@@@@@@@@@@@@@@@@@@@@@@@@@@@@@@@@@@@@@@@@@@@@@@@@@@@@@",
"@@@@@@@@@++o     o@@+@@@@@@@@@@@@@@@+@+    X@@+@@@@@@@+@+X++@+@@@@@@@@@@@@@@@@@@@@@@@@@@@@@@@@@@@@@@@@@@@@@@@@@@@@@@@@@@@@@@@@@@",
"@+@@+@@@@+++.   X+@+@@@@@@@@@@@@@@@+@X      X@@+@@@@@@@@@++@@@@@@@@@@@@@@@@@@@@@@@@@@@@@@@@@@@@@@@@@@@@@@@@@@@@@@@@@@@@@@@@@@@@@",
"@@@@@@@@@@@+++X++@+@@@@@@@@@@@@@@@@+@.      .+@+@@@@@@+@@@@@@@@@@@@@@@+@@@@@@@++++X.  XX++++@@@@@@@@@@@@@@@@+@@@@@@@@@@@@@@@@@@+",
"@@@@@@@@@@@@@@@@@@@@@@@@@@+@@@@@@@++@        X@+@@@@@@@@@@@@@@@@@@@@@@@@@@@@@+@+X.      .+@+@@@@@@@@@@@@@@@@@@@@@@@@@@@@@@@@@@@@",
"@@+@@@@@@@@@@@+@@@@@@+@@@@@@@@@@@@@@+.       +@+@@@@@@@@@+@@@@@@@@@@@@@@@@+@@@@X          +++@@@@@+@@@@@@@@@@@@@@@@@@@@@@@@@@@@@",
"@@@@@@@@@@@@@+@@@@@@@@@@@@@@@@@@@@@@@.      .@@+@@@@@@@@@@@@@@@@@@@@@@@@@@@+@@+            +++@@@@@@@@@@@@@@@@@@@@+@@@@@@@@@@@@@",
"@@+@@@@@@@+@@@@@@+@@@@@@@@@@@@@@@@@+++.     X+@@@@+@@@@@@@@@@@@@@@@@@@@@@@@+@+X            X@@@@@@@@@@@@@@@@@@@@@@@@@+@@@@@@@@@@",
"@@@@@@@@@@@@@@@@@@@@@@@@@@@@@@@@@@@@+@+X...+@@@@@@@@@@@@@@@@@@@@@@@@@@@@@@@+@X             .@@@@@@@@@@@+@@@@@@@@@@+@@+.  XO++@@@",
"@@@@@@@@@@@@@@@@@@@@@@@@@@@@@+@@@@@@@@@@@@@@@@@@@@@@@@@@@@@@@@@+@@@@@@@@@@@+@X              @++@@@@@@@@@@@@@@@@@@@+@+      +++@@",
"@@@@@@@@@@@@@@@@@@@@@@@@@@@@@@@@@@@@@@@+@@@@@@@@@@@@@@@@@@+@@@@@@+@@@@@@@@@+@+             .+++@@@@@@@@@@@@@@@@@@@++.      X@+@@",
"@@@@@@+@+X++++@+@@@@@@@@@@@@@@@@@@@@@@@@@@@@@@@@@@@@@@@@@@@@@@@@@@@@@@@@@@@@@o             .@+@@@@@@@@@@@@@@@@@@@@@+       .@+@@",
"@@@@@+++   o++@@@@@@@@@@@@@@@@@@@@@@@@@@@@@@@@@@@@@@@@@@@@@@@@@@@@@@@@@+@@@@@@.            X@+@@@@@@@@@@@@@@@@@@@@@+.      .@+@@",
"@@@@@++o   +@@@@@@@@@@@@@@@@@@@@@@@@@@@@@@@@@@@o@@@@@@@@@@@@@@@@@@@@@@@@@@@@@@X            +@@@@@@+@@@@@@@@@+@@@@@@+.      X@+@@",
"@+@@@@+@X X+@@@@@@@@@@+@@@@@@@@@@@@@@@@@@@@@@@@@@@@@+@@@@@@@@@@@@@@@@@@@@@@@@@@X          X@+@@@@@@@@@@@@@@@@@@@@@@@o      ++O@@",
"@@@@@@@@@@@@+@@@@@@@@@@@@@@@@@@@@@@@@@@@@@@@@@@@@@@@@@@@@@@@@@@@@@@@@@@@@@@@@+@o.        X@@+@@@@@@+@@@@@@@@@@@@@@@@@+...X+++@@@",
"@@@@@@@@@@@@@@@@@@@@@@@@+@@@@@@+@@@@@@@@@@@@@@@@@@@@@@@@@@@@@@@@@@+@@@@@@@@@@@@@@X.    .+@@@@@@@@@@@@@@@@@@@@@@@@@@@@@@@@+@@@@@@",
"@@@+@@@@@@@@@@@@@@@@@@@+@@@@@@@@@@@@@@@@@@@@@@@@@@o@@@@@@@@@@@@@@@@@@@@@@+@@@@@@+@+++o@@+@@@@@@@@@@@@@@+@@@@+@@@@@@@@+@@@@@@@@@@",
"@@@@@@@@@@@@@@@@@+@@@@@@@@@@@@@@@@@@@@@@@@@@@@@@@@@@@@@@@@@@@@@@@@@@@@@@@@@@@@@@@@+@@@@@@@@@@+@@@@@@@@@@@+@@@@@@@@@@@@@@@@@@@@@@",
"@@@@@@@@@@@@@@@@@@@+@@@@+@@@@@@@@@@@@@@@@@@@@@@@@@@@@@@@@@@@@@@@@@@@@@@@@@@@@@@@@@@@@@@@@@@@@@@@@@@@@@@@@@@@@@@@@+@@@@@@@@@@@@@@",
"@@@@@@@@@@@@@@@@@@@@@@@@@@@@@@@@@@@@@@@@@@@@@@@@@@@@@@@@@@@@@@@@@@@@@@@@@@@@@@@@@@@@@@@@@@@@@+@@@@@@@@@@@@@@@@@@@@@@@@@@@@@@+@@@",
"@@@@@@@@@+@@@@@@@@@@@@@@@@@@@@+@@@@@o@@@@@@@@@@@@@@@@@@@@@@@@@@@@@@@@+@@@@@@@@@@@@@@@+@@@@@@@@@@@@+@@@@+@@@@@@@@@@@@@@@@@@@@@@@@",
"@@@@@@@@@@@@@@@@@@@@@@@@@@@@@@@@@@@@@@@@@@@@@@@@@@@@@@@@@@@@@@@@@@@@@@@@@@@@@@@@@@@@@@@@@@@@@@@@@@@@@@@@@@@@+@@@@@@@@@@@@@@@@@@@",
"@@@@@@@@@@@@@@@@@+@@@@+@@@@@@@@@@@@@@@@@@@@@@@@@@@@@@@@@@@@@@@@@@@@@@@@@@@@@@@@@@@@@@@@@@@+@@@@@@@@@@@@@@@@@@@@@@@@@@@@@@@@@@@@@",
"@@@@@@@@@@@@@@@@@@@@@@@@@@+@@@@@@@@@@@@@@@@@@@o@@@@@@@@@@@o@@@@@@@@@@@@@@@@+@@@@@@@@@@@@@@@@@@@+@@@@@@@@@@@@@@@@@@@@@@@@@@@@@@@@",
"@@@@@@@@@@@@@@@@@@@@@@@@@@@@@@@@@@@@@@@@@@@@@@@@@@@@@@@@@@@@@@@@@+@@@@@@@@@@@@@@@+@@@@@@@@@@@@@@@@@@@@@@@@@@@@@@@@@@@@@+@+@@@@@@",
"@@+@@@@@@@@@@@+@@@@@@@@@@@@@+@@@@@@@@@@@@@@@@@@@@@@@@@@@@@@@@@@@@@@@@@@@@@@@@@@@@@@@@@@@@@@@@@@@@@@+@+@@@@@@@@@@@@@@@@@@@@@@@@@@",
"@@@@@@@@@@@@@@@@@@@@@@@@@@@@@@@@@@@@@@@@@@@@@@@@@@@@@@@@@@@@@@@@@@@@@@@@@@@@@@@@@@@@@@@@@@@@@@@@@@@@@@@@@@@+@@@@@@@@@@@@@@@@@@@@",
"@@@@@@@@+@@@@@@@@@@@@@@@@@@@@@@@@@@@@@@@@@@@@@@@@@@@@@@@@@@@@@@@@@@@@@+@@@@@@@@@@@@@+@@@@@@@@@@@@@@@@@@@@@@@@@@@@@@@@@@@@@@@@@@@",
"@@@@@@@@@@@@@@@@@@@@@@@@@@+@@@@@@@@@@@@@@@@@@@@@@@@@@@@@@@@@@+@@@@@@@@@@@@@@@@@@@@@@@@@@@@+@@@@+@@@@@@@@@@@@@@@@@@@+@@@@@@@@@+@@",
"@@@@+@@@@@@@@@@@@@+@@+@@@@@@@@@@@@@@@@@@@@@@@@@@@@@@@@@@@@@@@@@@@@@@@@@@@@@@@+@@@@@@@@@@@@@@@@@@@@@@+@@@@@@@@@@@@@@@@@@@@@@@@@@@"
};
