/* XPM */
static char *result[] = {
/* columns rows colors chars-per-pixel */
"128 128 58 1 ",
"  c #23140A",
". c #29160B",
"X c #2D190C",
"o c #341D0E",
"O c #391F0F",
"+ c #3A200F",
"@ c #3B2110",
"# c #1E373C",
"$ c #1E383D",
"% c #312D26",
"& c #3C362E",
"* c #2C3636",
"= c #23373A",
"- c #283738",
"; c #20383B",
": c #343632",
"> c #393630",
", c #363A37",
"< c #3C3B33",
"1 c #323A38",
"2 c #422614",
"3 c #462916",
"4 c #482A17",
"5 c #452918",
"6 c #4E2E1B",
"7 c #502F1C",
"8 c #4F301D",
"9 c #50301D",
"0 c #443225",
"q c #4E3426",
"w c #44352B",
"e c #4A3529",
"r c #42392F",
"t c #4C3A2D",
"y c #563524",
"u c #5A3623",
"i c #5D3925",
"p c #5A3B29",
"a c #613B26",
"s c #643E29",
"d c #683F2A",
"f c #67402A",
"g c #6C432D",
"h c #70462F",
"j c #1F3B40",
"k c #203D43",
"l c #2C3E40",
"z c #224146",
"x c #24454B",
"c c #26484F",
"v c #274A50",
"b c #294D54",
"n c #2A5057",
"m c #2B5158",
"M c #2E585F",
"N c #2E5A62",
"B c #305D65",
"V c #326169",
/* pixels */
"glMNNBVVVVVVVVVVVVVVVVVVVVVVVVVVVVVVVVVVVVVVVVVVVVVVVVVVVVVVVVVVVVVVVVVVVVVVVVVVVVVVVVVVVVVVVVVVVVVVVVVVVVVVVVVVVVVVVVVVVVVVVVVV",
"g1bmnbnNNNVVVVVVVVVVVVVVVVVVVVVVVVVVVVVVVVVVVVVVVVVVVVVVVVVVVVVVVVVVVVVVVVVVVVVVVVVVVVVVVVVVVVVVVVVVVVVVVVVVVVVVVVVVVVVVVVVVVVVV",
"g,vmmmnmmmmmMNNNVBVVVVVVVVVVVVVVVVVVVVVVVVVVVVVVVVVVVVVVVVVVVVVVVVVVVVVVVVVVVVVVVVVVVVVVVVVVVVVVVVVVVVVVVVVVVVVVVVVVVVVVVVVVVVVV",
"g<kmmmmmmmmmbmmnnMMNNNVVVVVVVVVVVVVVVVVVVVVVVVVVVVVVVVVVVVVVVVVVVVVVVVVVVVVVVVVVVVVVVVVVVVVVVVVVVVVVVVVVVVVVVVVVVVVVVVVVVVVVVVVV",
"g<$bmmmmmmmmmmmmmmmmmmnmmNNNVVVVBVVVVVVVVVVVVVVVVVVVVVVVVVVVVVVVVVVVVVVVVVVVVVVVVVVVVVVVVVVVVVVVVVVVVVVVVVVVVVVVVVVVVVVVVVVVVVVV",
"g>$jnmmmmmnmmmmmmmmmmmmmmmmmnnmmMMNNBBBVVVVBVVVVVVVVVVVVVVVVVVVVVVVVVVVBVVVVVVVVVVVVVVVVVVVVVVVVVVVVVVVVVVVVVVVVVVVVVVVVVVVVVVVV",
"g<$$bnmmmmmnmmmmmmmmmmmmmmmmmmnmmmmmmmbmmmMMNNNNNNBBNVVVVVVBVVVVVBVBVBVBVVBVVBVVVVVVVVVVVBVVVVVBVVBVVVVVBVVVVVBVVVVVVVVVVVVVVVVV",
"gr$$jbmmmmmmnmbnmnmmmmmmmmmmmmmmmmmmmmmmmmnmbmmmmMmmmnmmmmMMmMmMNNNMBNNBNBNBBBBBNNBNNBBBBBBBBBBBBBBBBBBBBBBBBBBBBBBBBBBBBBBBVBBB",
"gt;$$jnmmmmnmc$bmnmmmmmmmmmmmmmmmmmmmmmmmmnmnmmmmmmmmmmmmnmmmmmmmmmmmmmmbmmmmmmmmmmmmmmmmmmmmmmmmmmmmmmmmmmmmmmmnmmmmmmmmmmmmmmm",
"gt#$$#jbmnnbz$#cnnnmmnmmmmmmmmnmmmmmmmmmmmmmmmmmmmmmmmmmmmmmmmmmmmmmmmmmmmmmmmmmmmmmmmmmmmmmmmmmmmmmmmmmmmmmmmmmmmmmmmmmmmmmmmmm",
"gp#$$$$#jj$$$$$knnnmmmmmmmmmmnmmmmmmmmmmmmmmmmmmnmmmmnmmmmmmmmmmmbmmmmmmmmmmmmmmmmmmbmmmnmmmmmnmmmmmmmmmmmmmmmmmmmmmmmmmmmmmmmmm",
"gs=#$$$$$$$$$$$$bmnnmmmmmmmmmnnbbmnmmmmmmmmmmmmmmmmmmmmmmmmmmmmmmmmmmmmmmmmmmbmmmmmnmmmmmmmmnmmmmmmmmmmmmmmmmmmmmmmmmmmmmmmmmmmm",
"gs>$$$$$$$$$$$$$xmmnmmmmmmmmnmnxbmnmmmmmmmmmmmmmmmmmmmmmmmmmmmmmmmmmmmmmmmmmmmmmmmmmmmnmmmmmmmmmmmmmmmmmmmmmmmmmmmmnmmmmmmmmmmmm",
"gsq#$$$$$$$$$$$$jnmnmmmmmmmmnmcjbmnmmmmmmmmmmmmnmmmmmmmmmmmmmmmmmmmmmmmmmmmmmmmmmmmmmmmmmmmmmmmmmmmmmmmmmmmmmmmmmmmmmmmmmmmmmmmm",
"gfy:#$$$$$$$$$;$#bmmnnmmmmmnnbj#cmmnmmmmmmmmmmmmmmmmmmmmmmmmmmmmmmmmmmmmmmmmmmmmmmmmmmmmmmmnmmmmmmbmmmmmmbmmmmmmmmmmmmmmmmmmmmmm",
"ggyq#$$$$$$$$$$$#jnmnmmmmmnnbj##zbmbmmmmmmmmnmnmmbmmmmmmmmmbmmmmmmmmbmmmmmmmmmmmmmnmmmmmmmmmnmmmmmmmmmmmmmmmmmmmmmmmmmmmmmmmmmmm",
"ggiy>####j#j###j##knmnmmnmnx$$$$#cmnnnmmmmmmnmxvmnmmmmmmmmmmmmmmmmmmmmmmmnmmmmmmmmmmmmmnmnnmnmmmmnmmmmmmmmmmmnmmmmmmmmmmmmmmmmmm",
"ggsyy*#j######>=#$$$xvccxk$#$$$$$jnnnmnmmmmnmc$zbmnmmmmmmmmmmmmmmmmmmmmmmmmmmmmmmmmmmmmnmbvmnmmmmmmmmmmmmmmmmmmmnmmmmmmmmmmmmmmm",
"ggdyyy:##j#;=ey*$#$$;$$$#$$$$$$$$#xnmnmmnnnmbk#$vmnnmnmmmmmmvbmmmmmmmmmmmmmnmmmmmmmmmmmnmbzbmnmmmmmmnmmmnmmnmnmmmnmmmmmmmmmmmmmm",
"ggdiyyyw:*:wyyy<#$$$$$$$$$$;$$$$$##xnmnmnnnc$#$$kbmnmmmmmmmvkxmnmmmmmmmmmmmnmmmmmmmmmnnmmx#xmmmmmmmmmmmnmnxxmnmmmmmmmmmmmmmmmmmm",
"gggdyyyyyyyyyyyq#$#$$$$$$$$$$#$=##$#kxvvcz$$$$$$#znnnmmmnmbk#jbmnmmnmmbmbbnnmmmmmmmmmmnmbj#jbmmmmmmmmmnmmv#jvnnmmmmmmmbknnnmmmnb",
"ggggsyyyyyyyyyyy*$##$$$$$$$$$$$:#$#$$$$$$$$$$$$$##xnmnmnmvj#$#jvmnnmbmmbjkbnnmmmmmmmmnmnz#$#jbmmmmmnmnnmbj##jcmnmmmmmbk$xmnnmmbx",
"gggggpyyyyyuyusu&###$$$$$$$$$$-w-$$$$$$$$$$$$$;$j##kvnbvz$#j;$$$kcbnbxk;##kbmnmmmmmmnmbx##$$#jvmnmmmnmmvj$#j##kcbbbvz$$##znnmbz#",
"ggggggpyyyyyusgpq=###$$$$$$#$$wy-$#$$$$$$$$$$$$$####$$#$#$##$$$$#j#j;k;;###jcnnnmmnmmvk#$$$$##;kcbmnbvj######j#$==;;$$$$j##kj##j",
"gggggggdsiisgggiy:#$#$$$$$$#$:qu&#$$$$$$$$$$##;###$$$$$$$$$$$$$$####$j#$$$$$#kzvvbvxk##$$$$$$$$$###k##$$$$$$$$$$###########j##j#",
"gggggggggghgggggyy*$$#$$$###&yyyq-$$$$$$$$$$#j-;j#$$$$$$$#$$;$$$#j#j$$##$$$$$$j##;#j#j$$$$$$$$$$#j$$##$$$$;$$$##$j#jj#j#j######;",
"gggggggggghgggggiyy:;##;$->qyyyiu:#$$$#$$$$###e>$###j$$$$$$$$$$$####$$$$##$k$$$$#j#j#####;=$#$$$#$$$#j$;$$##$$$#$$#####j#j#j$##*",
"ggggggghggggggggsyyyyetqyyyyyyifyy-$##$$$$$#$>yq=$###$$$$$$#;$$$##k#$$$$$###$$$$#####j##j=>#$#$$$$$$###j$$$#$$;j$$#j#########j#w",
"ggggggggggggggdggyyyyyyyyyyyy8sgiye-$#$$$#$#&yyy>$$$#;j####=:*j##jj####$$$#j##$$#jj#####$*y*$#$$########$$=*$#$$$$;j##j#####j#:y",
"gghggggggggggggggayyyyyyyyyy25igsyyq*#$$$=:qyyyyy*$$#$####$:y>$###;##j##j;##j#$$#####j###&yw$#$$#j#j#j$#$=ww$#$$$$###j#*-j##=&yy",
"gggggghgggggggggggiyyyyyyyyy66igguyyyqweyyyyyyuyyq*$#$j###>yyy>###j###j#>>$####$#######$*yyy:$##$j#####$#:yyw$##j$j###-9yqwqyyyy",
"gggggggggggggggggggiyyyyyuagsagggayyyyyyyyyyyyfiyyy*####=wyyyyuw-#####=wyy:$##$$j#j###j-qyuyy>#####j##j;&yyyye*#####;%@9yyyyyyyp",
"ggghggggggggggggggggggggggggggggggiyyyyyyyyyyagdyyyye>&eyyyyyyyyyqw<&eyyyyy&#$$$######*yyuayyye*######-eyyyyyyyqr<&0225yyyyyyyys",
"ggggggggggggggggggggggggggggggggggfyyyyyyyyusgghfyyyyyyiyyyiauyyyyyyyyyyyyyye:$$##j#*wyyyigiyyyyq<>>wqyyyyuiyyyyyyyyy9yyyyyyyyag",
"ggggggggggggggggggggggggggggggggggggpyyyyupggggggiyuyyyyyyypgsyyyyyyyyyyyyyyyyyew&wyyyyyyagsyyyyyyyyyyyyyyssyyyyuyyyyyypuyyyysgg",
"ggggggggiyyagggggggggggggggggghggggggffghggggggggfuyyyyyyyagggsyyyuyyyyypsyyyyyyyyyyyyyypgggpyyuyyuyyyyyysggsyyyyyyyyypggdsggggg",
"ghgggggy9776dggghgggggggggghgggggggggggggggggggggggiuu99isgggggsyyyyyyusggayyyyuyyyyyyyidgggga9yyyyyyyyyagggggiuyyyyyshggggggggg",
"ggghggd96997aggggggggghggggggggggghgggggghggggggggggffgfggggggggggssaggggggayyyyyyyuyyigggggghdayyyyyyygggggggggsssdgggggggghggg",
"gggggdgy7676sggggggggggggggggggggggggggggggggggggggggggggggggggggggggggggggggiu9yyyyisgdgggghhgggsaasggggggggggggggggggggggggggg",
"gggggggp997ygggggggggggggggggghggggggggggggggggggggggggggggggggggd9ysggggggggggdsssgggggggsy99gfgggggggiigggggggggggggggghghgggg",
"ggggggggsiaggggggggggggggggggggggggggggggggggggsfffhghgggggggggggu66uggggggggghgggghggggf989986aggggggs79dggggggggggghgggggggggg",
"gggggggggggggggggggghggggggggghghggggggggggggu66999hgggggggggggggi66uhgdgghggggggggggggs69999996uhggggd9uggggggggggdsgdggggggggh",
"ggghgggggghgggggggggggggggggggggggggggggggggi66y997aggggggggggggggiidgggggggggggggggggd9999996966igggggggggggggggga677dggggggggg",
"gggggggggggghgggggghgggghgggggf999aggggggggsy6669679aggggggggggggggggggggggggggggggggsy7999999796ysggggggggggggggd7777yggggggggg",
"ggggggggggggggggggggggggggggi6699999ghgggggi67999996agggggggghgggggggggghhghggggggggdy7769999996769hgggggggggggggs6976yggggggghg",
"uy7799idggggggggggggggggggg9697999979gggggha76999996ahgghgggggggggggggggs9679gggggggs67799999999767aggggggggggggggy779sggggggggs",
"999996y66fgggggggggggggggs96969999996udggggs96999999ahggggggggggggggggg9999999fggggs6977999999996969hggggggggggggggiiaggggdp9889",
"9999866676ugghgggggggggga7796998999996igggggu6999999ggggggggggghghggghs9999999agggg97997999999999967ugggggggggghggggggggga999999",
"99999799698yggggggggggg966979999999dd96aggggg977779hgggggggggggggggggg969999969hgga677996999999996966hgggggggggggggggggga6979999",
"9999999999996dgggggggd9998999999997au966ihggghsiasgggggggggggggggggggga79999969hgs4967969ggu7999997966gggggggggggggggghs69699999",
"999999999996769gggga9799699999999999996969fggggggggghggggggggggggggggga7979999aha98999969hgi79999996769aggggggggggggggg697999999",
"9999999999999799666799999999999999999997969fggggggggggggggggghggggggggs9799999fgu697999799u99999999969669ggggggggggggh9699999999",
"99989999999999999999999999989999999999999996sgggggggggggggggi99idggggfgs76769ahi676999999999999999999979969hgggggggggg6999999999",
"999999998999999999999999999999999999999999696agggggggggggg9679776ugggggghsasgha496999999999999999999999999769sgggghhg7969s969999",
"99999989999999999999999999999999979666696996769sggggggggi7777797779sgggggggghi66699998999999999999999999999676669i996769agg69969",
"99979999999999999997999999999999794+O+37979976967dgggga6799777997996uhgdgghh967699999999999999999999999999998999999967799gs69999",
"9999999999999996agg977999999999666++@@+69999999677779699ifga9779996969agggf66969999999999999999999999999999999999999999999999999",
"9899999999999999fgga97999999999696+++++49989899977779979fhfhi77999999966666769999969622@2699999999999999999999999999999999999999",
"9799999999999999sgg9969999999996892++++49699999999779999ffghd79999999999677799999694++@@++49999999999999989989999999999999999999",
"89999999999999969aa9699999999999696+++479899999999779999shgf979999999999777799996972++@@++29689999999999999999999999999999999999",
"999999999899999999999999999999999996666979998999999999967af9999999999999999999996962+@@@++26999999969999989999999999999999999999",
"99999664469999999999999999999999999996899999999899999999779999999999999999999999794++@@@+++696942+269699999999998999999999999999",
"999666@+@@79999999979999999999899999999999999999799999997999999999996696999999997962+@+@++267962+++29669999999999942499999999999",
"999693@+@@3699999999999999999979999999999999999999999999799999999996662+696699999994+@++++39674+++O249999999989999+++99999999999",
"999992++@+369999999999999999999999999998999999999999999999999998996962+++696999976993@OO+397994O@@+@696999999998962++86699999999",
"999693@@@+499999999999999999999999999999899999999899999999999999996962++249999999996966669696962+@+27679999999999963699999999999",
"9999693@@4699999999899999999999999999999999999999999999999899997999694++39669999999999999999969632368699999999999999999999998999",
"99999999999999999999999999999999988999999999989999999999699999999999999686999999998999999999989969899999999999999999999999999999",
"99999999999996794444997999999999696666969999999999999999999999999999999999999999999999999999999999999999999999999999999999999999",
"999999999999774+@@@@@4996999796663+O@@6696999999969669969999989999999999999999999999999999999999999999999969742@2696999998999999",
"99999999999674@+@@@@@@6998997766@++@@@+37969999896@++@2699999999999999999899999998999999999999999998999996994+@@O@67999999999999",
"9998999999677@+@@@@@@+@696996762@@@@@@+O369999694@+++++26969999999999999999999999999999999998999899999999796@@@@++39699997999989",
"9999799999693++@@@@@@@+49969693O+@@@@@@@+49986762+@@@@@+39999999999999769432+3687999999999868866697999999996+++@+@29699999999999",
"999999999999@++@@@@@@@@5799694@@@@@@@@@@@@696896@+@@@@@+26969998999996973+@@+++39769999998864++@+@36769996962+@@++39799999999998",
"999999999969@O+@@@@@@@O269766@@@@@@@@@@@+++69794@+@@@@@+2697999999997694++++@@++496999996886+@@@@@++497996994++++@86699999998899",
"2@23669999793O++@@@@@@@479663@@@342@+@@@+++36994@@@@@@@O2696999999999962++++@+++29999996696@+@@@@@@++376796966223996999988643222",
"@@@@+@6999694@+@@@@@@@o69796@+@49682++@@@@@+36692+@@@@@@4999999999997962++@@@@@+2686996796@+@@@@@@@@+@3669999999999999963@+@+@@@",
"@@@@+++699697@++@@@@@@367693@O369894@+@@@@@+@6996@@@@@+2699999999899694@+@@@@@@+@69696796@++@@@@@@@@@+@@687999999999963O@@@@+@@@",
"@@@@@@+@6996762O@@@@+268774@@+369696@+@@@@@++268963@@@669699999999999962+@@@@@@+29699696@+@@@@@@@@@@@@@+@497999999994@@@@@@@@@@@",
"@@@@@@@+369977632@@@469673@+@@@69992@+@@@@@++O39969998889999989989996683+@@@@@+@3996794@@@@@@@@@@+@@@@@@+@249699966@+@@@@@@@@@@@",
"@@@@@@@@+699999999999696@@@@@@O@332@O@@@@@@@@@@49689999999899999996896962@@@@@@2866994@@@@@@@@@@O26662+@@@@@@2222+++@@@@@@@@@@@@",
"@@@@@@@@+28999899997962@@@@@@@@@+@@@@@@@@@@@@@@@69699999999999996668969963@@@@3768763+@@@@@@@@@@2966663+@@@@@@@@++@+@@@@@@@@@@@@",
"@@@@@@@+++48769996942@+@@@@@@@@@@@@@@@@@@@@@@@@++899999999996963+++@2696696666969963+@@@@@@@@@@@6699698+@@@@@@@@@@@@@@@@@@@@@@@+",
"@@@@+@@++@+2466643@++@@@@@@@@@@@@@@@@@@@@@@@@@@@+2897999996683++++@@O+369799698894@+@@@@@@@@@@+@6669898@+@@@@@@@@@@@++2@+@@@@@@@",
"@@+2686+++@@@@@@@@@@@@@@@@@@@@@@+@@@@@@@@@@@@@@@@+29988899972+@@@@@@+@+@469679662O@@@@@@@@@@@@@@6969686@@@@@@@@@@@++@996@+@@@@@@",
"@@+49694@+@@@@@@@@@@@@@@@@@@@oo+@O@@@@@@@@@@@@@@@@++48986842++@@@@@++@@@@@3443@+@@@@@@@@@@@@@@+@3967883+@@@@@@@@@@+@49676+@@@@@@",
"@@+69694@+@@@@@@@@@@@@@@@@@O@.XO@+@@@@@@@@@@@@@@@@@@++343++@+@@@+@34@+@@@@@@@@@@@@@@@@@@@@@@@@@+@47996@@@@@@@@@@@@+@37693+@@@@@@",
"@@+36992@+@@@@@@@@@@@@@@@@@O@OO@+@@@@@@@@@@@@@@@@@@@++@@+++++@@@O2693+@@@@@@@@@@@@@@@@+@@@+@@@@@@@@2@+@@@@@@@@@@@@@++474++@@@@@@",
"@@@@24@@O@@@@@@@@@@@@@@@@+@@@@@@@@@@@@@@@+@@@@@@@@@@@@@@@@@@@@@@+@46@@@@@@@@@@@@@@@@@+@3962@@@@@@@@@@@@@@@@@@@@@@@+@@@@@+@@@@@+@",
"@@@@@@@@@@@@@@@@@@@@@@@@@@@@@@@@@@@@@@@@@@@@@@@@@@@@@@@@@@@@@@@@@@@+@@@@@@@@@@@@@@@@@+@6994+@@@@@@@@@@@@@@@@@@@@@@@@@@@@@@@@@@@@",
"@@@@@@@@@@@@@@@@@@@+@@@@@@@@@@@@@@@@@@@@@@@@@@@@@@@@@@@@@@@@@@@@@@@@@@@@@@@@@@@@@@@@@+@4963+@@@@@@@@@@@@@@@@@@@+@@@@@@@@@@@@@@@@",
"@@@@@@@+@@@@@@@@@@@+@@@+@@@@@@@@@@@@@+@@@@@@@@@@@@@@@@@@@@@@@@@@@@@@@@@O@@@@@@@@@@@@@@@@22+@@@@@@@@@@@@@@@@@@@@@@@@@@@@@@@@@@@@@",
"@@@@@@@@@@@@@@@@@++4862@o@@@@@@@@@@@@@@@@@@@@@@@++@@+@@@o@@@@+@@@@O@+oXo+@+@@@@@@@@@@@@@@@@@@@@@@@@@@@@@@@@@@@@@@@@@@@@@+@@@@@@@",
"@@@@@@@@@@@@@@@@@+39999@@@@@@@@@@@@@@@@@@@@@@@+@+494@+@@@@@@@@@@@OOo.   o+@+@+@@@@@@@@@@@@@@@@@@@@@@@@@@@@@@@@@@@@@@@@@@@@@@@@@@",
"@@@@@@@@@@@@@@@@@+499692++@@@@@@@@@@@@@@@@@@@@@O@8q8@@@@@@@@@@@@++@o    .o++@@@@@+@@@@@@@@@@@@@@@@@@@@@@@@@@+@++X.X+@+@@@@@@@@@@",
"@@@@@@@@@@@@@@@@++36999@+@@@@+@@@@@@@@@@@@@@@@@@@@5@@@@@@@@@@@@@+@+X     o@+@@@@@@@@@@@@@@@@@@@@+@@@@@@@+@@@+@+.   .+++@@@@@@@@@",
"@@@@@@@@@+@@@@+@@@@488@@@@@@@@@@@@@@@@@@@@@+@@@@@@@@@@@@@@@@@@@@++@.     +@+@@@@@@@@@+@+@@@@@@@@@@@@@@@@@@@+@@o     oOO@@@@@@@@@",
"@@@@@@@@@@@@@@@@@@@+@@@@@@@@@@@@@@@@@@@@@@@@@@@@@@@@@@@@@@@@@@@@@+@+    X@++@@@@@@@@@+o++@+@@@@@@@@@@@@@@@@+@+X     X@@@@@@@@@@@",
"@@@@@@@@@@@@@@@@@@@@@@@@@@@@@@@@@@@@@@@@@@@@@@@@@@@@@@@@@@@@@@@@@@+@++X+@++@@@@@@+@@X    o@+@@@@@@@@@@@@@@@+@@o     o@O@@@@@@@@@",
"@@@@@@@@@@@@@@@@@@@@@@@@@@@@@@@@@@@@@@@@@@@@@@@@@@@@@@@@+@@@@@@@@@@@@+@@@@@@@@@@+@@X      o@+@@@@@@@@@@@@@@++@+X   .+O@@@@@@@@@@",
"@@@@@+@@@@@@@@+@@@+@@@@@@@@+@@@@@@@@@@+@X.. .X+@++@@+@@@@@@@@@@@@@@@@@@@@@@@@@@@+@+        @++@@@@@@@@@+@@@@@+@+ooo@@@@@@@@@@@@@",
"@@@@@@@@+@@@@@@@@@@@@@@@@@@@@@@@@@@@+@o       .X+@+@@@@@@@@@@@@@@@@@@@@@@@@@@@@@@@o       .@++@@@@@@@@@@@@@@@@@@@O@@@@@@@@@@@@@@",
"@@@@@@@@@@@@@@@@@@@@@@@@@@@@@@@@@@@+@o          X@@+@@@@@@@@@@@@@@@@@@@@@@@@@@@@+@o       .@++@@@@@@@@@@@@@@@+@@@@@@@@@@@@@@@@@@",
"@@@@@@@@@@@@@@@@@@@@@@@@@@@@@@@@@@+++.           X@++@@@@@@@@@@@@@@@@@@+@@@@@@@@+@@.      X@+@@@@@@@@@@@@@@@@@@@@@@@@@@@@@@@@O@@",
"@@@@@@@@@@@@@@@@@@@@@@@@@@@@@@@@@@+@X            .+@+@@@@@@@@@@+@@@@@@@@@@@@@@@@++@o     .+++@@@@@@@@@@@@@@@@@@@@@@@@@@@@@@@@@@@",
"@@@o+oX. .o@@@@@@@@@@@@@@@@@@@@@@@+@.            .o@+@@@@@@@@@@@@@@@@@@@@@@@@@@@@+@@+.. Xo@+@@@@@@@@@@@@@@@@@+@@@@@@+@@@@@@@@@@@",
"@@++o     .o@@@@@@@@@@@@@@@@@@@@@@@@.             o@+@@@@@@@@@@@@@@@@@@@@@@@@@@@@@@@@@@@@@@@@@@@@@@@@@@+@@@@@@@@@@@@@@@@@@@@@@@@",
"@@+@.      X+@@@@@+@@@@@@@@@@@+@@@@@.             o@+@@@@@@@@@@@@@@+@@@@@@@@@@@@@@@@@@@@@@@@@@@@@@+@@@@@@@@@@@@@@@@@@@@+@@@@@@@@",
"@@+@.      .++@@@@@@@@@@@@@@@@@@@@@@.             o@+@@@@@@@@@@@@@@@@@@@@@@@@@@@@@@@@@@@@@@@@@@@@@@@@@@@@@@@@@@@@@@@++X+@+@@@@@@",
"@@+@.      .++@@@@@@@@@@@@@@@@@@@@@@X            .+@+@@@@@@@@@@@@@@@@@@@@@@@@@@@@@@@@@@@@@@@@@@@@@@@@@@@+@@@@@@@@@@@o   ++@@@@@@",
"@@+@.      .+@@@@@@@@@@+@@@@@@@@@@@@@.           o@@+@@@@@@@@@@@@@@@@@@@@@@@@@@@@@@@@@@@@@@+@@@@@@@@@@@@@@@@@@@@@@@@+  .o@o@@@@+",
"@@+++.    .o@@@@@@@@@@@@@@@@@@@@@@@@@X          .@@@@@@@@@+@@@@@@@@+@@@@@@@@@@@@@@@@@@@@@@@@@@@@@@@@@@@@@@@@+@@@@@@@+. .@+@@@@@@",
"@@@+@@....+@@+@@@@@@@@@@@@@@@@@@@@@+@+X        .+@+@@@@@@@@@+@@@@@@@@@+@@@@@@@@@@@@@@@@@@@@+@@@@@@@@@@@@@@@@@@@@@@@@@@@@@@@@@@@@",
"@@@@@@@@@++@@@@@+@@@@@@@@+@@@@@@@@@@@+@oX     X@@+@@@@@@@@@@@@@@@@@@@@@@@@@@@@@@@@@@@@@@@@@@@@@@@@@@+@@@@@@@+@@@+@@@@@@@@@+@@@@@",
"@@@@@@@@@@@@@@@@@@@@@@@@@@@@@@@@@@@@@@@o@+++++@+@@@@@@@@+@@@@@@@@@@@@@@@@@@@@@@@@@@@@@@@@@@@@@@@@@@@@@@@@@@@@@@@@@@@@@@@@@@@@@@@",
"@@@@@@@@@@@@@@@@@@@@@@@@@@@@@@@@@@@@@@@@@@@@@@@@@+@@@@@@@@@@@@@@@@@@@@@@@@@@@@@@@@@@@@@@@@@@@@@@@@@@@@@@@@@@@@@@@@@@@@@@@@@@@@@@",
"@@@@@@@+@@@@@@@@@@@@@@@@@@@@@@@@@@@@@@@@@@@@@@@@@@@@@@@@@@@@@@@@@@@@@@@@@@@@@@@@@@@+@@@@@@@@@@@@@@@@@@@@@@@@@@@@@@@@@@@@@@@@@@@@",
"@+@@@@@@@@@@@@@@@@@@@+@@@@@@@+@@@@@@@@@@@@@@@@@@@@@@@@@@@@@@@@@@@@@@@@@@@@@@@+@@@@@@@@@@@@@@@@@@@@@@@@@@@@@@@@@@@@@@@@@@@@@@@@@@",
"@@@@@@@@@@@@+@@@@@@@@@@@@@@@@@@@@@@@@@@@@@@@@@@@@@@@@+@@@@@@@+@@@@@@@@@@@+@@@@@@@@@@@@@@@@@@@@@+@@@@@@@@@@@@@@@@@@@@@+@@@+@@@@@@",
"@@@@@@@@@@@@@@@@@@@@@@@@@@@@@@@@@@@@@@@@@@@@@@+@@@@@@@@@@@@@@@@@@+@@@@@@@@@@@@@@@@@@@@@@@@@@@@@@@@+@@@@@@@+@@@@@@@@@@@@@@@@@@@+@",
"@@@@@@@@@@@@@@@@+@@@@@@@@@@@@@@@@@@@@@@@@@@@@@@@@@@@@@+@@@@@@@@@@@@@@+@@@@@@+@@@@@@@@@@@@@@@@@@@@@@@@@@@@@@@@@@@@@@@@+@@@@@@+@@@",
"@@@@@@+@@@@@@@@@@@@@@+@@@+@@@@@@@@@@@@@@@@@@@@@@@@@@@@@@@@@@@@@@+@@@@@@@@@@@@@@@@@@@@@@@@@@@@@@@@@@@@@@@@@@@@@@@@@@@@@@@@@@@@@@@",
"@@@@@@@@@@@++@@@@@@@@@@@@@@@@@@@@@@o@@@@@@@@@@@@@@@@@@@@@@@@@@@@@@@@@@@@@@@@@@@@@@@@@@@@@@@@+@@@@@@@@@@@@@@@@@@@+@@@@@@@@@@@@@@@",
"+@@@@@@@@@@@@@@@@@@@@@@@@@@@@@@@@@@@@@@@@@@+@@@@@@@@@@@@@@+@+@@@@@@@@@@@@@@@@@@@@@@@@@+@@@@@@@@@@@@@@+@@@@@@@@@+@@@@@@@@@@@@@@@@",
"@@@@@@@@@@@@@@@@@@@@@@@@@@@@@@@@@@@@@@+@@@@@@@@@+@@@@@@@@@@@@@@@@@@@@@@@@@@@@@@@@+@@@+@@@@@@@@@@@@@@@@@@+@@@@@@@@@@@@@@@@@@+@@@@",
"@@@@@@@@@@@@@@@@@@@@@@@@@@@@+@@@@@@@@@@@@@@@@@@@@@@@@@@@@@@@@@@@@@@@@@@@@@@+@+@@@@@@@@@@@@@+@@@@@@@@@@@@@@@@@@@@@@@@@@@@@@@@@+@@",
"@@@@@@@@@@@@@@@@@+@@+@@@@@@+@@@@@@@@@@@@@@@@@@@@@@@@@@@@@@@@@@@@+@@@@+@@@@@@@@@@@@@@@@@@@@@@@@@@+@@@@@@@@@@@@@@@+@@@@+@@@@@@@@@@",
"@@@+@@@@@@@@+@@@@@@@@@@@@@@@@@@@@@@@@@@@@@@@@@@@@@@@@@@@@@@+@@@@@@@@@@@@@@@@@@@@@@@@@@@@@@@@@@@@@@@@@@@@@@@@@@@@@@@@@@@@@@@@@@@@"
};
