/* XPM */
static char *result[] = {
/* columns rows colors chars-per-pixel */
"128 128 39 1 ",
"  c #0F0000",
". c #130100",
"X c #1B0B02",
"o c #1D1007",
"O c #1E1108",
"+ c #200F03",
"@ c #201207",
"# c #291406",
"$ c #23140A",
"% c #29170B",
"& c #27190F",
"* c #2D190C",
"= c #341D0D",
"- c #391F0E",
"; c #2B1C11",
": c #321F12",
"> c #3A200F",
", c #332113",
"< c #3B2110",
"1 c #312118",
"2 c #422614",
"3 c #462916",
"4 c #482A17",
"5 c #442C1C",
"6 c #4E2F1C",
"7 c #502F1C",
"8 c #4F301D",
"9 c #50301D",
"0 c #563420",
"q c #5A3622",
"w c #5D3925",
"e c #5E3B29",
"r c #623B26",
"t c #653E29",
"y c #683F29",
"u c #66412C",
"i c #6C432D",
"p c #6A4430",
"a c None",
/* pixels */
"<<<<<<<<<<<<<<<<<<<<<<<<<<<<<<<<<<<<<<<<<<<<<<<<<<<<<<<<<<<<<<<<<<<<<<<<<<<<2986998998999799997998878rpyiiiiiiiiiiiiiiiiiiiiipii",
"<<<<<<<<<<<-<<<<<<<<<<<<<<<<<<<<<<<<<<<<<<<<<<<<<<<<<<<<<<<<<<<<<<<<<<<<<<<<<898799979999999999999879tipiiiiiiiiiiiiiiiiiiiiiiii",
"<<<<<<<<<<<<<<<<<<<<<<<<<<<<<<<<<<<<<<<<<<<<<<<<<<<<<<<<<<<<<<<<<<<<<<<<<<<<-299899899979999999999970iypiiiiiiiiiiiiiiiiiiiiiiii",
"<<<<<<<<<<<<<<<<<<<<<<<<<<<<<<<<<<<<<<<<<<<<<<<<<<><<<<<<<<<<<<<<<<<<<<<<<<<>26978989899997979997877rpiiiiiiiiiiippiiiiiiiiiiiii",
"<<<<<<<<<<<<<<<<<<<<<<<<<<<<<<<<<<<<<<<<<<<<<<<<<<<<<<<<<<<<<<<<<<<<<<<<<<<<><4978889979999999799777ryiiiiiiiiiiiiiiiiiiiiiiiiii",
"<<<<<<<<<<<<<<<<<<<<<<<<<<<<<<<<<<<<<<<<<<<<<<<<<<<<<<<<<<<<<<<<<<<<<<<<<<<<<-2977889989979870yr0979tyiiiiiiiiiiiiiiiiiiiiiiiiir",
"<<<<<<<<<<<<<<<<<<<<<<<<<<<<<<<<<<<<<<<<<<<<<<<<<<<<<<<<<<<<<<<<<<<<<<<<<<<<>-297798899999989tppt479iiiiiyqryiiiipiiiiiiiiiiiiia",
"<<<<<<<<<<<<<<<<<<<<<<<<<<<<<<<<<<<<<<<<<<<<<<<<<<<<<<<<<<<<<<<<><23<<<<<<<<>-297797998999950yypy77riiiyq7779yiiiiiiiiiiiiiiiiia",
"<<<<<<<<<<<<<<<<<-<<<<<<<<<<<<<<<<<<<<<<<<<<<<<<<<<<<<<<<<<<<<<<269793<><<<<><497889999999968wii069riiit677779iiiiiiiiiiiiiiiira",
"<<<<<<<<<><>*&$$$=-><-<<<<<<<<<<<<<<<<<<<<<<<<<<<<<<<<<<<<<<<<><6966772-><<<>2997989988798996799779tiiir679999iiiiiiiiiiiiiiiiaa",
"<<<<<<<<<<=$$$$$$$$-<<<<<<<<<<<<<<<><>**><><<<<<<<<<<<<<<<<<<<>26879794-<<<>-4999999989979999999970iiiir699799yiiiiiiiiiiiiiiiaa",
"<<<<<<<><=$$O&O$$$$$-<-<<<<<<<<<<<<><=$$*<<><<<<<<<<<<<<<<<<<<>26879994-<<<>24978998999998989999990iiiiy999699iiiiiiiiiiiiiiiwaa",
"<<<<<<<-<%$$$$$$&$$$%-<-<<<<<<<<<<<><=$O=<<><<<<<<<<<<<<<<<<<<<<6996992-<<<><677989999999899899679wiiiiiu999wiiiiiiiiiiiiiiiiaaa",
"<<<<<<><=$O$$$&O$$$$$:<<-<<<<<<<<<<<<<<>><><<<<<<<<<<<<<<<<<<<<=<99694><<<<-2767999999899997999979tiiiiiiiiiiiiiiiiiiiiiiiiytaaa",
"<<<<<<><=$$$$$$$$$$$$*-<-<<<<<<<<<<<<<<<<<<<<<<<<<<<><<<<<<<<<<<-222<><<><<>2967988989989980979960iiiiiiiiiiiiiiiippiiiiiiiieaaa",
"<><<<<><*$$$$$$$$$$$$*<<<<<<<<<<<<<<<<<<<<<<<<<><<<<<<<<<<<<<<<<><<<<<<<<<>>3969999998988666989960iiiiiiiiiiiiiiiiippiiiiiiiqaaa",
"<<<<<<<<;$$$$$$$$$$$$=-<<<<<<<<<<<<<<<<<<<<<<<<<<<<<<<<<<<<<<<<<>><<<<<<<<<>396999779riit97997977wiiiiiiiiiiiiiiiiiiiiipiiiiaaaa",
"<<<<<<-<:$$$$$$$$$$$$=---<<<<<<<<<<<<<<<<<<<<<<<<<<<<<<><<<<<<<<<<<<<<<<<<><49899869riiiit9999969yiiiiiiiiiiiiipiiiiiiiiiiiiaaaa",
"<<<<<<<-<%O$$$$$&$$O%-<<<<<<<<<<<<<<<<<<<<<<<<<<<<<<<<<<<<<<<<<<<<<<<<<<<<><39999860iiiiiiq699769iiiiiiiiiiiiiiiiiiiiiiipiiiaaaa",
"<<<<<<<--:$$$$$$O$$$-<<-<<<<<<<<><<<<<<<<<<<<<<<<<<<<<<<<<<<<<<<<<<<<<<<<<><49999960iyiiiiw699969iiiiiiiiiipiiiiiiiiiiiiiipiaaaa",
"<<<<<<<<-<-$$$$$$$$=<<<<<<<<<<<<<<<<<<<<<<<<<<<<<<<<<<<<<<<<<<<<<<<<<<<<<<><49699999riiiiy066666wiiiiiiiiiiiiiiiiiiiiiiiiiiiiaaa",
"<<<<<<<<<<--*$$$&;-<<-<<<<<<<<<<<<<<<<<<<<<<<<<<<<<<<<<<<<<<<<<<<<<<<<<<<<><396999960iiiie679066riiiiiiiiiiiiiiiiiiiiiiiiiiyyaaa",
"<<<<<<<<<<<<-<---<-<<<<<<<<<<<<<<<<<<<<<<<<<<<<<<<<<<<<<<<<<<<<<<<<<<<<<<<>>3989999799qw06999966riiiiiiiiiiiiiiiiiiiiiiiiiiiyaaa",
"<<<<<<<<<<<<<<<<--<<<<<<<<<<<<<<<<<<<<<<<<<<<<<<<<<<<<<<<<<<<<<<<<<<<<<<<>>>39699999999788899960yiit999iiiiiiiiiiiiiiiiiiiiiyaaa",
"<<<<<<<<<<<<<<<<<<<<<<<<<<<<<<<<<<<<<<<<<<<<<<<<<<<<<<<<<<<<<<<<<<<<<<<<<<<>29799799969999996660iiir669yiiiiiiiiiiiiiiiiiiiiiaaa",
"<<<<<<<<<<<<<<<<<<<<<<<<<<<<<<<<<<<<<<<<<<<<<<<<<<<<<<<<<<<<<<<<<<<<<<<<<<>>2977999999999897086qiiii979iiiiiiiiiiiiiiiiiiiiipaaa",
"<<<<<<<<<<<<<<<<<<<<<<<<<<<<<<<<<<<<<<<<<<<<<<<<<<<<<<<<<<<<<<<<<<<<<<<<<<<><696988989799889868wiiiiiyiiiiiiiiiiiiiiiiiiiiiiiaaa",
"<<<<<<<<<<<<<<<<<<<<<<<<<<<<<<<<<<<<<<<<<<<<<<<<<<<<<<<<<<<<<<><<><<<<<<<<<>2996997999989999969wiiiiiiiiiiiiiiiiiiiiiiiiipiiiaaa",
"<<<<<<<<<<<<<<<<<<<<<<<<<<<<<<<<<<<<><<<<<<<<<<<<<<<<<<<<<<<<<<<<<<<<<<<<<<=4ir6999798997999966qiiiiiiiiiiiiiiiipiiiiiiiiiiiyaaa",
"<<<<<<<<<<<<<<<<<<<<<<<<<<<<<<<<<<<<<<<<<<<<<<<<<<<<<<<<<<<<<<<<<<<<<<<<<<<>29079899999898669860iiiiiiiiiiiiiiiippiiiiiiiiiiiaaa",
"<<<<<<<<<<<<<<<<<<<<<<<<<<<<<<<<<<<<<<<<<<<<<<<<<<<<<<<<<<<<<<<<<<<<<<<<<<<<>>496998997998969960iiiiiiiiiiiir9iiiiiiiiiiiiiiiaaa",
"<<<<<<<<<<<<<<<<<<<<<<<<<<<<<<<<<<<<<<<<<<<<<<<<<<<<><<<<<<<<<<<<<<<<<<<<<<<>-296799989999709960tiiiiiiiiiii99yiiiiiiiiiiiiiiaaa",
"<<<<<<<<<<<<<<<<-----22-----<<<<<<<<<<<<<<<<<<<<<<<<<<<<<<<<<<<<<<<<<<<<<<<<<><499999969999999999iiiiiiiiiiii9iiiiiiiiiiiiiiiaaa",
"<<<<<<<<<<<<<<<<2-2------2-2<<<<<<<<<<<<<<<<<<<<<<<<<<<<<<<<<<<<<<<<<<<<<<<<<<><49499999969999969riiiiiiiiiiiiiiiiiiippiiiiiiaaa",
"<<<<<<<<<<<<<<<<----::*=--------<<<<<<<<<<<<<<<<<<<<<<<<<<<<<<<<<<<<<<<<<<<<<<<>>39969999999999979iiiiiiiiiiiiiiiiiiiiiipiiiiaaa",
"<<<<<<<<<<<<<<<---*$$$$$$%-22-<2<<<<<<<<<<<<<<<<<<<<<<<<<<<<<<<<<<<<<<<<<<<<<<<<>>>6969999999699799iiiiiiiiiiiiiiiiiiiiiiiiiiaaa",
"<<<<<<<<<<<<<<><;$$$$$$&$$$:----<<<<<<<<<<<<<<<<<<<<<<<<<<<<<<<<<<<<<<<<<<<<<<<<>>>4999996999999777yiiiiiiiiiiiiiiiiiiiiiiiiiaaa",
"<<<<<<<<<<<<<><=&O$$$O$$$$$$:---<<<<<<<<<<<<<<<<<<<<<<<<<<<<<<<<<<<<<<<<><<<<<<<>>>29979999999997779iiiiiiiiiiiiiiiiiiiiiiiiaaaa",
"<<<<<<<<<<<<--<$$$$$$&$$$$$$%---<<<<<<<<<<<<<<<<<<<<<<<<<<<<<<<<<<<<<<<<<<<<<<<<<>>>49499799999977999iiiiiiiiiiiiiiiiiiiiiiiaaaa",
"<<<<<<<<<<<<<<=$$$$$O$O$$$$$$*-2-<<<<<<<<<<<<<<<<<<<<>22<><<<<<<<<<<<<<<<<<<<<<<<>>>49999999999997999wiiiiiiiiiiiiiiiiiiiiiuaaaa",
"<<<<<<<<<<<<><%$$$$O&$$$$$$$$%-<-<<<<<<<<<<<<<<<<<<<-29962<<<<<<<<<<<<<<<<<<<<<<<<>>299999669699999799riiiiiiiiiiiiiiiiiiiyaaaaa",
"<<<<<<<<<<<->>$$$O$$$$&$$$$$$$-<<<<<<<<<<<<<<<<<<<<<<49782=<<<<<<<<><<<<<<<<<<<<<<>><9qiiiiw79999999999iiiiiiiiiipiiiiiiiiuaaaaa",
"<<<<<<<<<<<<--$$$&O$$$O$$$$$$$---<<<<<<<<<<<<<<<<<<<-3996<-<<<<<<<<<<<<<<<<<<<<<<<<>2wiiiiiit99999999999iiiiiiiiiiiiiiiiiuaaaaaa",
"<<<<<<<<<<<---$$$&O$$$&O$&$$$$-<<<<<<<<<<<<<<<<<<<<<><242<<<<<<<<<<<<<<<<<<<<<<<<<<>4iiiiiiii99999999999riiiiiiiiiiiiiiiuuaaaaaa",
"<<<<<<<<<<<<-2$$$$$$$$$$$$$$$$-<-<<<<<<<<<<-<<<<<<<<<<<<<<<<<<<<<<<<<<<<<<<<<<<<>>-29iiiiiiiit69999999969iiiiiiiiiiiiiiitaaaaaaa",
"<<<<<<<<<<<<<<*$&O$$$&O$$$$$$*-<<<<<<<<<<<<<<<<<><<<<<<<<<<<<<<<<<<<<<<<<<<<<<<>>>>>wiiiiiiiit99999999996riiiiiiiiiiiiiieaaaaaaa",
"<<<<<<<<<<<<---$O$$$$$$$$$$$$=<<-<<<<<<<<<<<<<<<<<<<<<<<<<<<<<<<<<<<<<<<<<<<<<>>>>>2wiiiiiiiii699999999669iiiiiiiiiiiiiiaaaaaaaa",
"<<<<<<<<<<<<<--=$$$&O$$$$$$$=-<>2<<<<<<<<<<<<<<<<<<<<<<<<<<<<<<<<<<<<<<<<<<><<>2>>>>6iiiiiiiir699999996969iiiiiiiiiiiituaaaaaaaa",
"<<<<<<<<<<<<<<-<=$$$$$$$$$O*-<><--<<<<<<<<<<<<<<<<<<<<<<<<<<<<<<<<<<<<<<<<<><<<<<<<-2wiiiiiii9799989999999iiiiiiiiiiiiiuaaaaaaaa",
"<<<<<<<<<<<<<<<--=$$$$$$$&=-<><<<<<<<<<<<<<<<<<-<<<<<<<<<<<<<<<<<<<<<<<<<<<<<<<<<<<<-2tiiiit96999799999979yiipiiiiiiiiiiaaaaaaaa",
"<<<<<<<<<<<<<<<<-<-=**&*=<<-<<<<<<<<<<<<<<<<<<<<<<<<<<<<<<<<<<<<<<<<<<<<<<<<<<<<<<<<><60wr9999998989899670iiiiiiiiiiiiiiaaaaaaaa",
"<<<<<<<<<<<<<<<<<<<<<-<<<<<<<<<<<<<<<<<<<<<<<<<<<<<<<<<<<<<<<<<<<<<<<<<<<<<<<<<<<<<<><4979998999999997979tiiiiiiiiiiiiiiiaaaaaaa",
"<<<<<<<<<<<<<<<<<<<<<<<<<<<<<<<<<<<<<<<<<<<<<<<<<<<<<<<<<<<<<<-2643<>><<<<<<<<<<<<<<><4979999699799999690iiiiiiiiipiiiiiyeaaaaaa",
"<<<<<<<<<<<<<<<<<<<<<<<<<<<<<<<<<<<<<<<<<<<<<<<<<<<<<<<<<<<<<<2988942><<<<<<<<<<<<<<<<397989996998989969yiiiiiiiiippiiiiitaaaaaa",
"<<<<<<<<<<<<<<<<<<<<<<<<<<<<<<<<<<<<<<<<<<<<<<<<<<<<<<<<<<<<<<6666693>><<<<<<<<<<<<<>>29799999999999979qiiiirwtiiiiiiiiiiyraaaaa",
"<<<<<<-<<<<<<<<<<<<<<<<<<<<<<<<<<<<<<<<<<<<<<<<<<<<<<<<<<<<<<37789694>>><<<<<<<<<<<<<>29699999899897999iiii9779wiiiiiiiiiitaaaaa",
"<<<<<<<<<<<<<<<<<<<<<<<<<<<<<<<<<<<<<<<<<<<<<<<<<<<<<<<<<<<<-37679996>><<<<<<<<<<<<<<>2969997999989969wiiiw67779iiiiiiiiiiywaaaa",
"<<<<<<<<<<<<<<<<<<<<<<<<<<<<<<<<<<<<<<<<<<<<<<<<<<<<<<<<<<<<-26767992><<<<<<<<<<<<<<>>29669979wiiw6889iiiiq79999tiiiiiiiiiiuaaaa",
"<<<<<<<<<<<<<<<<<<<<<<<<<<<<<<<<<<<<<<<<<<<<<<<<<<<<<<<<<<<<<-299894>><<<<<<<<<<<<<<<><8869979iiii067wiiiir77969iiiiiiiiiiiiaaaa",
"<<<<<<<<<<<<<<<<<<<<<<<<<<<<<<<<<<<<<<<<<<<<<<<<<<<<<<<<<<<<<<-<332>>><<<<<<<<<<<<<<<>2867977wiiiiw69yiiiiiw769riiiiiiiiiiiiwaaa",
"<<<<<<<<<<<<<<<<<<<<<<<<<<<<<<<<<<<<<<<<<<<<<<<<<<<<<<<<<<<<<<<<>>><<<<<<<<<<<<<<<<<>>26999969iiiiq90iiiiiiittiiiiiiipiiiiiieaaa",
"<<<<<<<<<<<<<<<<<<<<<<<<<-<<<<<<<<<<<<<<<<<<<<<<<<<<<<<<<<<<<<<<>><<<<<<<<<<<<<<<<<<>>>69699679itq99riiiiiiiiiiiiiiiiiiiiiiytaaa",
"<<<<<<<<<<<<<<<<<<<<<<<<<<<<<<<<<<<<<<<<<<<<<<<<<<<<<<<<<<<<<<<<<<<<<<<<<<<<<<<<<<<<<>24968999979999iiiiiiiiiiipiiiiiiiiiiiiiaaa",
"<<<<<<<<<<<<<<<<<<<<<<<<<<<<<<<<<<<<<<<<<<<<<<<<<<<<<<<<<<<<<<<<<<<<<<<<<<<<<<<><<<<<>>4967999999999iiiiiiiiiiiiiiiiiiiiipiypaaa",
"<<<<<<<<<<<<<<<<<<<<<<<>>2>><<<<<<<<<<><<<<<<<<<<<<<<<<<<<<<<<<<<<<<<<<<<<<<<<<<<<<<<><676999799967wiiiiiiiiiiiiiiiiiiiiiiiiiaaa",
"<<<<<<<<<<<<<<<<<<<<<<<>>>>><<<<<<<<<<<<<<<<<<<<<<<<<<<<<<<<<<<<<<<<<<<<<<<<<<<<<<<<<><476999989969riiiiiiiiiiiiiiiiiiiiiiiiiaaa",
"<<<<<<<<<<<<<<<<<<<<><>==>>>><<<<<<<<<<<<<<<<<<<<<<<<<<<<<<<<<<<<<<<<<<<<<<<<<<<<<<<<><696999899969tiiiiiiiiiiiiiiiiiiiiiiiiiaaa",
"<<<<<<<<<<<<<<<<<<<>>>%$$@,><><<<<<<<<<<<<<<<<<<<<<<<<<<<<<<<<<<<<<<<<<><<<<<<<<<<<<<><496999996960iiiiiiiiiiiiiiiiipiiiiiiiiaaa",
"<<<<<<<<<<<><<<<<<<><*$$$$%><><<<<<<<<<<<<<<<<<<<<<<<<<<<<<<<<<<<<>><6644<>><<<<<<<<<><497999999969iiiiiiiir9tiiiiiiiiiiiiiiraaa",
"<<<<<<<<<<<<<<<<><<>>%$$$$O=<<><<<<<<<<<<<<<<<<<<<<<<<<<<<<<<<<<<>>37666973><<<<<<<<<><396979999979yiiiiii96999iiiiiiiiiiiiyeaaa",
"<<<<<<<<<<<<<<<<<<<>>%$O$$$><><<<<<<<<<<<<<<<<<<<<<<<<<<<<<<<<<<<>3866999962-<<<<<<<<><397996998969tiiiiir79999tiiiiiiiiiiiiwaaa",
"<<<<<<<<<<<<<<<<<<<>>>&$$O*><><<<<<<<<<<<<<<<<<<<<<<><<<<<<<<<<<>26669999896<><<<<<<<><3979999999790iiiiir79997wiiiiiiiiiiiiaaaa",
"<<<<<<<><<<<<<<<<<<<><>*%,>>>><<<<<<<<<<<<<<<<<<<<<<<<<<><<<<<<<>28968999666<><<<<<<<><3969999999969iiiiir67999tiiiiipiiiiiuaaaa",
"<<<<><=***,<<<<<<<<<<<<<<<>><><<<<<<<<<<<<<<<<<<<<<<<<<<<<<<<<<<-296699896662><<<<<<<><3969979899999tiiiiiq799wiiiiiiiiiiiieaaaa",
"<<><<*$$$$$:><<<<<<<<<<<<<<<<<<<<<<<<<<<<<<<<<<><<<<<<<<<<<<<<<<-299799999962><<<<<<><-29769989999989iiiiiitttiiiiiiiiiiiiiwaaaa",
"<<><*$$$$$$$=><<<<<<<<<<<<<<<<<<<<<<<<<<<<<<<<<<<<<<<<<<<<<<<<<<-24969999696>><<<<<<<<><69699996999990iiiiiiiiiiiiiiiiiiiitaaaaa",
"<<<<OO$$$$$O%><<<<<<<<<<<<<<<<<<<<<<<<<<<<<<<<<<<<<<><<<<<<<<<<<>>3896996882><<<<<<<<<><39999899899969iiiiiiiiiiiiiiiiiiiiiaaaaa",
"<<<=$$$$$$$$O><<<<<<<<<<<<<<<<<<<<<<<<<<<<<<<<<<<<<<<<<<<<<<<<<<>>>39967963><<<<<<<<<<<><97799999799690iiiiiiiiiiiiiiiiiiuraaaaa",
"<<<;$$$$$$$$$><<<<<<<<<<<<<<<<<<<<<<<<<<<<<<<<<<<<<<<<<<<<<<<<<<<<>><4663<><><<<<<<<<<<>>69699999999999iiiiiiiiiiiiiiiiiiiaaaaaa",
"<<<<$$$$$$$O%><<<<<<<<<<<<><<<<<<<><<<<<<<<<<<<<<<<<<<<<<<<<<<<<<<<>>>><<<<<<<<<<<<<<<<>><77699689969690iiiiiiiipiiiiiiiiraaaaaa",
"<<:>*$$$$$$$=-<<<<<<<<<<<<<<<<<<<<<<<<<<<<<<<<<<<<<<<<<<<<<<<<<<<<<<<<<<<<<<<<<<<<<<<<<<><47679996999999yiiiiiiipiiiiiiiipaaaaaa",
"<<><>%$$$$$*-<<<<<<<<<<<<<<<<<<<<<<<<<<<<<<><<<<<<<<<<<<<<<<<<<<><<<<<<<<<<<<<<<<<<<<<<<<>266699999999999iiiiiiiiiiiiiiiiiaaaaaa",
"<<<<><=*&*=<<<<<<<<<<<><<<<<<<<<<<<<<<<<<<<<<<<<<<<<<<<<<<<<<<<<<<<<<<<<<<<<<<<><<<<<<<<<><39699999999799iiiiiiiiiiiiiiiiraaaaaa",
"<<<<<<<<-<<<<<<<<<<<<<<<<<<<<<<<<<<<<<<<<<<<<<<<<<<<<<<<><<<<<<<<<<<<<<<<<<><>==>>><<<<<<<-<6669999999779iiiiiiiiiipiiiiiaaaaaaa",
"<<<<<<<<<<<<<<<<<<<<<<<<<<<<<<<<<<<<<<<<<<<<<<<<<<<<<<<<<<<<<<<<<<<<<<<<<<<><=%%*>>><<<<<<<>27869999999779iiiiiiiiiiiiiiiaaaaaaa",
"<<<<<<<<<<<<<<<<<<<<<<<<<<<<<<<<<<<<<<<<<<<<<<<<<<<<<<<<<<<<<<<<<<<<<<<<<<<><>%$*>>><<<<<<<>>3986999799979iiiiiiiiiiiiiiiaaaaaaa",
"<<<<<<<<<<<<<<<<<<<<<<<<<<<<<<<<<<<<<<<<<<<<<<<<<<<<<<<<<<<<<<<<<<<<<<<<<<<><>==>>><<<<<<<<<-<696969999979riiiiiiiiiiiiiiwaaaaaa",
"<<<<<<<<<<<<<<<<<<<<<<<<<<<<<<<<<<<<<<<<<<<<<<<<<<<<<<<<<<<<<<<<<<<<<<<<<<<<<<<<<<<<<<<<<<<<<><996999999979iiiiiiiiiiiiiuiaaaaaa",
"<<<<<<<<<<<<<<<<<<<<<<<<<<<<<<<<<<<<<<<<<<<<<<<<<<<<<<<<<<<<<<<<<<<<<<<<<<<<<<<<<<<<<<<<<<<<<>><96999969969t9riiiiiiiiiiiiwaaaaa",
"<<<<<<<<<<<<<<<<<<<<<<<<<<<<<<<<<<<<<<<<<<<<<<<<<<<<<<<<<<<<<<<<<<<<<<<<<<<<<<<<<<<<<<<<<<<<<<><39699999969999iiiiiiiiiiiyiaaaaa",
"<<<<<<<<<<<<<<<<<<<<<<<<<<<<<<<<<<<<<<<<<<<<<<<<<<<<><<<<<<<<<<<<<<<<<<<<<<<<<<<<<<<<<<<<<<<<<<>>49999999969tyiiiiiiiiiiiiiaaaaa",
"<<<<<<<<<<<<<<<<<<<<<<<<<<<<<<<<<<<<<<<<<<<<<<<<<<<<<<<<<<<<<<<<<<<<<<<<<<<<<<<<<<<<<<<<<<<<<<<>>>9969699979riiiiiiiiipiiiiwaaaa",
"<<<<<<<<<<<<<<<<<<<<<<<<<<<<<<<<<<<<<<<<<<<<<<<<<<<<<<<<<<<<<<<<<<<<<<<<<<<<<<<<<<<<<<<<<<<<><<<>>>9669999769iiiiiiiiiiiiiuuaaaa",
"<<<<<<<<<<<<<<<<<<><<<<<<<<<<<<<<<<<<<<<<<<<<<><<<<<<<<<<<<<>>><>>>====>>>><><<<<<<<<<<<<>>>=$$*>>>2966999979iiiiiiiiiiiiiiuaaaa",
"<<<<<<<><<<<<<<<<<<<<<<<<<<<<<><<<<<<<<<<<<<<<<<<<<<<<<<><>===*%%%%%%%%%$%%**==>><>><<<<><>*oOoo#>>>299699979riiiiipiiiiiiitaaaa",
"<<<<<<<<<<<<<<<<<<<<<<<<<<<<<<<<<<<<<<<<<<<<<<<<<<<<<<><>=*%%%%%%%%%%%%*%%%%%%%$**=><><<><>$ooOo@>>>>296799999iiiippiiiiiiiuaaaa",
"<<<<<<<<<<<<<<<<<<<<<<<<<<<<<<<<<<<<<<<<<<<<<<<<<<><>>>=%%%%%%%%%%%%%%%%%%*%%*%%%%%%==>>><=$OOOO@=<>><28679969wiiiiiiiiiiiiwaaaa",
"<<<<<<<<<<<<<<<<<<>>>%=><><<<<<<<<<<<<<<<<<<<<<<<<>>>=%$%%%%%%%%%%%%%*%%%$&%%%%%%%%%%%%=><>$oOOO@><><><27969969iiiiiiiiiiiyaaaaa",
"<<<<<<<<<<<<<<<<<<><>*=><><<<<<<<<>><<<<<<<<<<>>><>*%%%%%%%%%%%%%%%%%%%%%%%%%%%%%%%%%%%%*=>=OoXO=>><<<>>2666989riiiiiiiiiitaaaaa",
"<<<<<><<<<<<<<<<<<<<<<<<<<<<<<<<<<>><<<<<<<<<<>>>=%%%%%%%%%%%%$@O$%%%%%%%*%%%%%%%%%%%%%%$%*<===->>>><<<><<666969iiiiiiiiiiaaaaaa",
"<<<<<<<<<<<<<<<<<<<<<<<<<<<<<<><>==><><<<<><><>=*$%%%%%%%%*%%%ooOo$%%%%%%%%%%%*%%*%%%%%%%%%%=---<<<<<<<<<-<696770iiiiiiiieaaaaaa",
"<<<<<<<<<<<<<<<<<<<<<<<><<<<<><=%%%=<<><<<>><>*%%%%*%%%%%%%%%$ooOo$*$%%%%%%%%%%%%%%%%%%%%%%%%*=-<><<<<<<<<<<37669tiiiiiiraaaaaaa",
"<<><-*%=<<<<<<<<<<<<<<<><<<<<-<*%%%=><><<><>=%%%%&%%*%%%%%%$%%$oX@$%%%%%%%%%%%%%%%%$%%$$%%%%%%%*=>>><<<<<<<><26679iiiiyiaaaaaaaa",
"<<><*%%*><<<<<<<==**%%*>><><<>-=%%$=<<>>><>*%%%%%%%%%%%%%%%%%%$$$$%%&%%%%%*%%%%%%*$*%$oOX%%%%%%%%*=><><<<<<<<><477qiii9aaaaaaaaa",
"<<><*%*%><<><>=*%%%%%%%%=<<><><>,*=>>>>>>,%%%%%%%%%%%&%%%%%%%%%%%%%*%%%%%%%%*%%%%%%%$+OXo$%%%%%%%%%%=<<<<<<<<<<->47qiqaaaaaaaaaa",
"<<><=%%=>><>=%$*%%%%%%%*%*-><><<<<>>>>>=%%%%%%%%%%%%%%%%%%%%%%%%%%%%%%%%%%%%%%%%*%%%%@OO$$%%%%%%%%%%$%*=-<<<<<<<>-249aaaaaaaaaaa",
"<<<<<<<><>=$%%%%%%%%%%%%%%%*==-><><>>=%%%%%*%*%%%%%%*%%*%%%%%%%%%%%%$$$$$$$%%$%%&%%%%$$O$%%%%%%%%%%%%%*$%=:>-<<<><<=aaaaaaaaaaaa",
"<<<<<<><=%%%%%%%*%%%%%%%%%%%%%%%%*%%%%%%%%%%%%%%%%%%%%%%%%%%%%%%%$$XOOOOOOOO$$$%%$%%%%%%%%%%%%%%%%%%%%%%%%%=-<<<<<=8aaaaaaaaaaaa",
"<<<<<><=*$*$**%%$$%%%$%%%%%%%%%%%%%%%%%%%%%%%%%%%%%%%%%%%%%%%%%$OoOOOOOOOOOOOOOOX$$%*$%%%%%%%%%%%*%%%%*%%%%%%=--><=6aaaaaaaaaaaa",
"<<<<>>*%%%%%%$%%$X$%%%%%%%%%%%%%%%%%%%%%%%%%%%%%%%%%%%%%%%%%%$@oOOOOOOOOOOOOOOOO$Oooo$$$%$%%%%%%%%*$*%%$%%%%%$*<>>>=aaaaaaaaaaaa",
"<>>==%%%%%%%%%*$ooo$%%%%%%%%%*%%%%%%%%%%%%%%%%%@$%%%%%%%*%%%#$o@$$oOOOOOOOOOOOOOOOOOOO@OOO$o$$$$$$$$$$$$$$$$$%%%-2>>=aaaaaaaaaaa",
"==%$$%%%%%*%*$$%$@$%%%%%%$%*$%%%%%%%%%%%%%%%#@OoOo$%%%%%%%$$oo$%%%$oOOOOOOOOOOOOOOOOOOOOOooOooOOOOoOoOoOXOOO$X$$%->>=aaaaaaaaaaa",
"%%*%%%%%%%%%%%$*$$$oX$ooOOOOO$$%%%%%%%%%%%%%%OOOOo$#%%%%%%$oo@$%%%$@OOOOOOOOOOOOOOOOOOOOOOOOOOOOOOOOOOOOOOOOOOO$$*-<=aaaaaaaaaaa",
"%%%%%%%%%%%%%%$OoOoo$$$$ooOOOOo@%#%%%%%%%%%%$OoOOX$%%%%%%$ooo$%%%%%@XOOOOOOOOOOOOOOOOOOOOOOOOOOOOOOOOOOOOOOOOOOX+$=<=5aaaaaaaaaa",
"*%%%%%%%%%%$$OooOoo@%%%%OOOOOOOOO%%%%%%%%%%%%OoOOo$%%$%%$@oOoO$*%%$@OOOOOOOOOOOOOOOOOOOOOOOOOOOOOOOOOOOOOOOOOOOOoO%-=3aaaaaaaaaa",
"%%%%*%$%%$$OoOOOOoo$%%%%$XOOOOOOOO@%%%%%%%%%%$OooO$%%%%$@oOOOoO$$$$XOOOOOOOOOOOOOOOOOOOOOOOOOOOOOOOOOOOOOOOOOOOOoX$=-5aaaaaaaaaa",
"%%$$$$$$oOOOOOOOOOo$$%%$OoOOOOOOOOo%%%%%%%%%%%%@$%%%%%%$XOOOOOOO$oOOOOOOOOOOOOOOOOOOOOOOOOOOOOOOOOOOOOOOOOOOOOOOOoo$=5aaaaaaaaaa",
"ooOOOOoo@OOOOOOOOOOo$$$$oOOOOOOOOOOO#%%%%%%%%%%%%%%$%%$X$OOOOOOOOOOOOX$%$OOOOOOOOOOOOOOOOOOOOOOOOOOOOOOOOOOOOOOOOoo$=5aaaaaaaaaa",
"OOOOOOOOOOOOOOOOOOOO@OOOOOOOOOOOOOOOo$%%%%%%%%%%%%%%%$oOOOOOOOOOOOOOOO$%$XOOOOOOOOOOOOOOOOOOOOOOOOOOOOOOOOOOOOOOOOoo#5aaaaaaaaaa",
"OOOOOOOOOOOOOOOOOOOOoOOOOOOOOOOOOOOOo@$$%%%%%%%%%%%%$OoOOOOOOOOOOOOOOOOOOOOOOOOOOOOOOOOOOOOOOOOOOOOOOOOOOOOOOOOOOOoo+aaaaaaaaaaa",
"$$$$OOOOOOOOOOooOOOOOOOOOOOOOOOOOOOOOoO&%%%%%%%%%%%$$oOOOOOOOOOOOOOOOOOOOOOOOOOOOoO$$$$OooOOOOOOOOOOOOOOOOOOOOOOOOOoXaaaaaaaaaaa",
"aaaaaaaaa%%$$$$$OOOOOOOOOOOOOOOOOOOOOOoO#%%%%%%%%%$OX$OOOOOOOOOOOOOOOOOOOOOO$$*aaaaaaaaaa,$$oOOOOOOOOOOOOOOOOOOOOOoX1aaaaaaaaaaa",
"aaaaaaaaaaaaaaaaa*$$$OoOOoOOOOOOOOOOOOOoo$%%%%%%%$OOOOOOOOOOOOOOOOOOOOOOO;.aaaaaaaaaaaaaaaaaa;OoOOOOOOOOOOOOOOOOOOoXaaaaaaaaaaaa",
"aaaaaaaaaaaaaaaaaaaaaaa%$$OoOOOOOOOOOOOOoo$$%$$$XOOOOOOOOOOOOOOOOOOOOO:aaaaaaaaaaaaaaaaaaaaaaaa,OOOOOOOOOOOOOOOOOoXaaaaaaaaaaaaa",
"aaaaaaaaaaaaaaaaaaaaaaaaaaaa$$$oooOoOOOOoOOOOOOOOOOOOOOOOOOOOOOOOO&Xaaaaaaaaaaaaaaaaaaaaaaaaaaaaaa;OOOOOOOOOOOOoOXaaaaaaaaaaaaaa",
"aaaaaaaaaaaaaaaaaaaaaaaaaaaaaaaaX*$oOOOOOOOOOOOOOOOOOOOOOOOOOoO& aaaaaaaaaaaaaaaaaaaaaaaaaaaaaaaaaaa:$oOOoOOOOoO+aaaaaaaaaaaaaaa",
"aaaaaaaaaaaaaaaaaaaaaaaaaaaaaaaaaaaaa*%OOOOOOOOOOOOOOOOOOOo$;.aaaaaaaaaaaaaaaaaaaaaaaaaaaaaaaaaaaaaaaaa;$$OO$$+aaaaaaaaaaaaaaaaa",
"aaaaaaaaaaaaaaaaaaaaaaaaaaaaaaaaaaaaaaaaaa*$$$OOoOoOO$$$;aaaaaaaaaaaaaaaaaaaaaaaaaaaaaaaaaaaaaaaaaaaaaaaaaaaaaaaaaaaaaaaaaaaaaaa"
};
