/* XPM */
static char *result[] = {
/* columns rows colors chars-per-pixel */
"128 128 80 1 ",
"  c #0E0000",
". c #100000",
"X c #1D1007",
"o c #1E1108",
"O c #230B00",
"+ c #2C0F00",
"@ c #2B1700",
"# c #23140A",
"$ c #2A170A",
"% c #27180F",
"& c #2C190C",
"* c #3A1602",
"= c #3B1904",
"- c #331C0D",
"; c #391F0F",
": c #261910",
"> c #2A1B11",
", c #321F13",
"< c #3A200F",
"1 c #2F2014",
"2 c #332114",
"3 c #3B2110",
"4 c #372A1F",
"5 c #3B291D",
"6 c #1E373C",
"7 c #1E383D",
"8 c #2F2D27",
"9 c #2D2F2A",
"0 c #332C25",
"q c #37322C",
"w c #3C352E",
"e c #243435",
"r c #2B3736",
"t c #23373A",
"y c #283738",
"u c #21383C",
"i c #2E3939",
"p c #343632",
"a c #393630",
"s c #343B37",
"d c #412615",
"f c #462916",
"g c #482A17",
"h c #402718",
"j c #462919",
"k c #4E2E1B",
"l c #502F1C",
"z c #4F301D",
"x c #50301D",
"c c #4D3426",
"v c #44352B",
"b c #493529",
"n c #553423",
"m c #593623",
"M c #5D3926",
"N c #563E2F",
"B c #5F3C29",
"V c #493C32",
"C c #623B26",
"Z c #643D29",
"A c #683F29",
"S c #66402B",
"D c #6C432D",
"F c #6E4731",
"G c #1F3B41",
"H c #213E44",
"J c #224146",
"K c #24454B",
"L c #26484F",
"P c #274A51",
"I c #294E54",
"U c #2A5057",
"Y c #2B5158",
"T c #2F5B62",
"R c #315F67",
"E c #326169",
"W c #8E7B6F",
"Q c #8F7C70",
"! c #917F73",
"~ c None",
/* pixels */
"~~~~~~TTREEEEEEEEEEEEEEEEEEEEEEEEEEEEEEEEEEEEEEEEEEEEEEEEEEEEEEEEEEEEEEEEEEEEEEEEEEEEEEEEEEEEEEEEEEEEEEEEEEEEEEEEEEEEEEEEEEEEEEE",
"~~~~~REEEEEEEEEEEEEEEEEEEEEEEEEEEEEEEEEEEEEEEEEEEEEEEEEEEEEEEEEEEEEEEEEEEEEEEEEEEEEEEEEEEEEEEEEEEEEEEEEEEEEEEEEEEEEEEEEEEEEEEEEE",
"~~~~TEEEEEEEEEEEEEEEEEEEEEEEEEEEEEEEEEEEEEEEEEEEEEEEEEEEEEEEEEEEEEEEEEEEEEEEEEEEEEEEEEEEEEEEEEEEEEEEEEEEEEEEEEEEEEEEEEEEEEEEEEEE",
"~~~REEEEEEEEEEEEEEEEEEEEEEEEEEEEEEEEEEEEEEEEEEEEEEEEEEEEEEEEEEEEEEEEEEEEEEEEEEEEEEEEEEEEEEEEEEEEEEEEEEEEEEEEEEEEEEEEEEEEEEEEEEEE",
"~~~EEEEEEEEEEEEEEEEEEEEEEEEEEEEEEEEEEEEEEEEEEEEEEEEEEEEEEEEEEEEEEEEEEEEEEEEEEEEEEEEEEEEEEEEEEEEEEEEEEEEEEEEEEEEEEEEEEEEEEEEEEEEE",
"~~REEEEEEEEEEEEEEEEEEEEEEEEEEEEEEEEEEEEEEEEEEEEEEEEEEEEEEEEEEEEEEEEEEEEEEEEEEEEEEEEEEEEEEEEEEEEEEEEEEEEEEEEEEEEEEEEEEEEEEEEEEEEE",
"~~TEEEEEEEEEEEEEEEEEEEEEEEEEEEEEEEEEEEEEEEEEEEEEEEEEEEEEEEEEEEEEEEEEEEEEEEEEEEEEEEEEEEEEEEEEEEEEEEEEEEEEEEEEEEEEEEEEEEEEEEEEEEEE",
"~REEEEEERRRRRRRRRRRRERRRRRRRRRRERREETERRETEEETEERREETERRRRRERRETRERRRRRRERRRRRRERRRRRRRRRRRRERRRRRRRRRRERRRRRRRRERRRRRRRRERRRRRE",
"~RREEETYYYYYYYYYYYYYYYYYYYYYYYYYYYYYYYYYYYYYYYYYYYYYYYYYYYYYYYYYYYUYYYYYYYYYYYYYYYYYYYYYYYYUYYYYYYYYYYYYYYYYYYYYYYYYYYYYYYYYYYYY",
"~EEREYIYYYYYYYYYYYYYYYYYYYYYYYYYYYYYYYYYYYYYYYYYYYYYYYYYYYYYYUYYYYYYYYYYYYYYYYYYYYYYYYYYYYYYYYYYYYYYYYYYYYYYYYYYYYYYYYYYYYYYYYYY",
"~EERYYUYYYYYYYYYYYYYYYYYYYYYYYYYYYYYYYYYYYYYYYYYYYYYYYYYYYYYYYYYYYYYYYYYYYYYYYYYYYYYYYYYYYYYYYYYYYYYYYYYYYYYYYYYYYYYYYYYYYYYYYYY",
"~EEYYUYYYYYYYYYYYYYYYYYYYYYYYYYYYYYYYYYYYIYYYYYYYYYYYYYYYYYYYYYYYYYYYYYYYYYYYYYYYYYYYYYYYYYYYYYYYYYYYYYYYYYYYYYYYYYYYYYYYYYYYYYY",
"RRRYYYYYYYYYYYYYYYYYYYYYYYYYYYYYYYYYYYYYYYYYYYYYYYYYYYYYYYYYYYYYYYYYYYYYYYYYYYYYYUYYYYYYYYYYYYYYYYYYYYYYYYYYYYYYYYUYYYYYYYYYYYYY",
"REYYYYYYYYYYYYYYYYYYYYYYYYYYYYYYYYYYYYYYYYYYYYYYYYYYYYYYYYYYYYYYYYYYYYYYYYYYYYYYYYYYYYYYYYYYYYYYYYYYYYYYYYYYYYYYYYYYYYYYYYYYYYYY",
"RRIUYYYYYYYYYYYYYYYYYYYYYYYYYYYYYYYYYYYYYYYYYYYYYYYYYYYYYYYYYYYYYYYYYYYYYYYYYYYYYYYYYYYYYYYYYYYYYYYYYYYYYYYYYYYYYYYYYYYYYYYYYYYY",
"TTYYYYYYYYYYYYYYYYYYYYYYYYYYYYYYYYYYYYYYYYYYYYYYYYYYYYYYYYYYYYYYYYYYYYYYYYYYYYYYYYYYYYYYYYYYYYYYYYYYYYYYYYYYYYYYYYYYYYYYYYYYYYYY",
"RYYUYYYYYYYYYYYYYYYYYYYYYYYYYYYYYYYYYYYYYYYYYYYYYYYYYYYYYYYYYYYYYYYYYYYYYYYYYYYYYYYYYYYYYYYYYYYYYYYYYYYYYYYYYYYYYYYYYYYYYYYYYYYY",
"RYUYYYYYYYYYYYYYYYYYYYYYYYYYYYYYYYYYYYYYYYYYYYYYYYYYYYYYYYYYYYYYYYYYYYYYYYYYYYYYYYYYYYYYYYYYYUYYYYYYYYYYYYYYYYYYYYYYYYYYYYYYYYYY",
"RYUYYYYYYYYYYYYYYYYYYYYYYYYYYYYYYYYYYYYYYYYYYYYYYYYYYYYYYYYYYYYYYYYYYYYUYYYYYYYYYYYYYYYYYYYYYYYYYYYYYYYYYYYYYYYYYYYYYYYYYYYYYYYY",
"RYUYYYYYYYYYYYYYYYYYYYYYYIYYUYUYYYYYYYYYYYYYYYYYYYYYYYYYYYYYYYYYYYYYYYYYYYYYYYYYYYYYYYYYYYYYYYYYYYYYYYYYYYYYYYYYYYYYYYYYYYYYYYYY",
"RIYYYYYYYYYYYYYYYYYYYYYYYUYPIYYYYYYYYYYYYYYYYYYYIYUYYYYYYYYYYYYYYYYYYYYYYYYYYYYYYYYYYYYYYYYYYYYUYUIYUYYYYYYYYYYYYYYYYYYYYYYYYYUU",
"TIIYUYIUUYYYYYYYYYYYYYYYUUUKIYUYYYYYYYYYYYYYYYYYYYPPUYUYYYYYYYYYYYYYYYYYUYUUYUYYYYYYYYYYYYYYYYYUYILUUUYYYYYYYYYYYYYYYYYYYYYYYYUK",
"YYYYUYLIUYYYYYYYYYYYYYYYUYL6PYUUYYYYYYYYYYYYYYYYYYLGPYUYYYYYYYYPPYYIYYYIUYKKYYYYYYYYYYYYYYYYYYYUYIHLYUYYYYYYUYUKYYYYYYYYYYUYYYPG",
"TYYYUIGLUYYYYYUYIIUYUYYUYI76GIYUYYYIYIIYIYYYYYYYYYG6KYYUYYYYYYYJ7PYYYYYYUPHGIYUYYUYUIIYUYYYYYYYYUH6HYUUYYYYUYUL6KYUYYYYYUHLPPG66",
"YYUUYH7JUUYYYYUYHGKIYUUIL7676GPYYYYUK6KYYUYYYYUUYJ676KYYYYYIYYL66GLUUUYULu77GKYUUYYL6HUUUYYYYUYYLG77HIIUYYUYUL776KUUUYUPGG777777",
"IYUIHG7HUYYYUUUH777HHKJG6677776GJJJG676KIYYYYUUYJG6776GIYYUYIJ67776GHKJH777776HHHKGGG6HUYUYYUUUK77767HPYYYYIJ77u76GHKKG677777777",
"uHH76777HPUUILG77777H7776777777777767tu6GLIIUIKu677776G7GJGG677777677777777777776666666HKPUUPKG67t76767HHHH7G777777777777777777t",
"~777777777777777777777777777777777676py6777777777777776G777767777777767777777777G66G6666G66GG666ta6767777667777777777776777777tp",
"~7777777777777777777yt77777777777766rcr67777u777777777777777777766rat77777777777tr666G666666767Gycr6677777677777777766667776776c",
"~~~G767isu7777777767bbu7777777777767bMau77777777777777777777777766wnp677777776770hu6666GG6Gu7666wmb6u677777777777777G66G777776qk",
"~~~~~NZFDs767777767vnnpu76777777776pnMmr67777777777677pp6667u7776annj967777767t8dh0G66666767676pmBnp66777777777777pw66777777u83j",
"~~~~~ADADAVt67667rbnmmnqu777777777anmAmcy666777777776pnnvy77777yvnnk5d0e66676e43hhd06666677676pnmAMcr76777u777677rnnbr76776e05hk",
"~~~~~FSDDDSnbwwvnnnnCCnnbr6GGG6GebnnCDCncpG777777776wnnnnnbvwvbnnnkkj5dh50805dh3jkhh5e6u6666yvmmBDCnnpG677777767pnnnnk58805;hhjl",
"~~~~~DSDDDAnnnnnCxnCADMnnncvaawcnnnMDDDMnnvy76777upbnnCMnnmnnnnnnckllj3dhhhh5dhflkk3dd5wqwwbnnnCDDDmnnvy7G7776pbnnmMjd3hhhddhjll",
"~~~~~SSDDDAmnnnnmmADDDDCnnnnnnnnnnMADDDAMnnnnbvwbnmnnMSDCnnnnnnmxlllllg5dh3hddklklkj3h3hknnnnnxDDDDAmnnnnvvvbnnnnmAng5hhhhd5jlln",
"~~~~~MDDDDDDCBBCAFADDDDDCnnnnnnnnZACmmMCZmnnnnnnnnnnMSDDFSCBMMACllllllxkjhfjkkgdkkllkhd55jnnnCDDDDDDAmnmnnnnnnnnMAnkkkkgjjkklklk",
"~~~~~~ADDDDDDDDDAFADDDDDAAAZMMZAZnkllnnkxmMmnnnnnnMSDDDDDDDDDDAxllxxxxxxlnllkd;<;dklxkkgffkMDDDDDDDDFACmnnnnnnMAAnkxxxxxxxxxlkll",
"~~~~~~DSDDDDDDFDFDFADFDDFFDDAAAClkkkkkllxxknBBCBCSSDDDDDDDDSDAxkxxxxxxxxllllf;<<;;klxxzxkxkxSFDDDDDDFADFAACMCADDnkxxxxxxxxxxlnll",
"~~~~~~BADFFDDDDDDDDDDDDDADDFFFClklnnllnlxxxxlnCDDDDDDDDDDDDDCxxxxxxxxxknllllf;33;;dlkxxxxxxkxxDSDDFADADFDDDDDDDxlxlxxxxxxxxxxxln",
"~~~~~~~ADDDDDDDDDDFDDFDDFADAAAlkllkkllkkxxxllllxCDDDDDDSDDAnkxxxxxxxxlkllkllf;3<<<kllxxxxxxxlxxADDDAFFDADDDDSMxxllxxxxxxxxxxxkkk",
"~~~~~~~DADDDDDDDDDDDFDDDDDDDSnkxxxxxxzxxxxxxxxxxxxnMAAACCxxkxxxxxxxxxxxxxxkxkd;<<dlllxxxxxxxxxzxmCDDSDDDFDAxxxxxxxxxxxxxxxxxxxxx",
"~~~~~~~~ADDDDDDFDDDDDDDDDDDDxlzxxxxxxxxxxxxxxxxxxxxxkkxxxxxxxxzxxxxxxxxlxxxkxlkfklkkxxxxxxxxxxxxlllnnnxxxxxxxxxxxxxxxxxxxxxxxxxx",
"~~~~~~~~CADDDDDDDDDDDDDFDDDCxxxxxzxxxxxxxxxxxxxxxxxxzxxxxxxxxxxxxxxxxxxxxxzxxxxxkxxxxxxxxxxxxxxxxxllxxxxxxxxxxxxxlxxxxlxxkkxxxxx",
"~~~~~~~~~SDDDDDDFDDDDDDDDDDxxxxxxxxxxlxxxxxxxxxxxxxxxxxxxxxxxxxlxxxxxxxxxxxxxxxxlxxxxxxxxxxxxxxxxlllxxxxxxxxxxxxxxxxlgdddkxkxxxx",
"~~~~~~~~~~CDDDDDDDDDDDDDDDxxkxxxxxxxxxxxxlxxxxxxxxxxxxxxxxxxxxxxxxxxxxxxxxxxxxxxxxxxxxxxxxxxxxxxxxxxxxxlxxxxxxxxxxxkd;<3<<dkkkxx",
"~~~~~~~~~~~CFDDDDDFDDDDDDCxxxxxxxxxxxxxxxxxxxxxxxxxxxxxxxxxxxxxxxlxxxxxxxxxxxxxxxxxxxxzxxxxxxxxxxxxxxxxxxxxxxxxxxxxd<3<33<<dxlxx",
"~~~~~~~~~~~~CDDDDDDDDDDDDxlxxxxxxxxxzxxxxxzxxxxxxxxxxxxxxxxxxxxxxxxxxxxxxxxxxxxxxxxkxxkggkxkxxxxxxxxxxxxxxxxxxxxxxk;3333<3<3kzxx",
"~~~~~~~~~~~~~MDDDDDDDDDDMllxxxxxxxxxxxxxxxxxxxxxxxxxxxxxxxxxxxzxxxxxxxxxxxxxxxxxxxxxkf<3<<fxxkxxxxxxxxxxxxxxxxxxxlg<33<333;;kxxx",
"~~~~~~~~~~~~~~BADDDDDDDAxxxxxxxxzxxxxzxxxxxzxxxxxxxxxxxzxxxxxxxxxxxxxxzxxxxzxxxxxkxxg<<<d<dgxxxxxxxxxxxxxxxxxxxzxlk;<3333<<<gxxx",
"~~~~~~~~~~~~~~~~xSDDDDDxkxxxxxxxxlxxxxxxxxxxxxxxxzxxxxxxxxxxxxxxxxxxxxxxxxxxxxxxxxxkf<<<<<<dxlxxxxxxxlxxxzxxxxxxxxk;<<3333;;klxx",
"~~~~~~~~~~~~~~~~~~xDDDAlkxxxxxxxxxxxxxxxxxxxxxxxxxxxxxxxxxxxxxxxxxxxxxxxxxxxlxxxxkxkd<<<<<;dxlxxxxzxxxxxxxxxxxxxxxkd<<333<3dxlxx",
"~~~~~~~~~~~~~~~~~~~~~Cxlxzxxxxxxxxxxxxxxxxxxxxxxxxxxxxxlxxxxxxxxxxxxxxxxxxxxxxxxxlxxg;<<<<<dxlxxxxxxxxxxxxxxxxxxxlkkd<3<<<dkkkxx",
"~~~~~~~~~~~~~~~~~~~~~~~~~kkkkxzxzznkxkkxxxxxxxxxxxxxxxxxxxxxxxxxxxkxxxxxxxxzxxxxxxkxkd<<<<<lxlxxxxxzxxxxxlxxxxxlxxxxkf3<<fkkxxxx",
"~~~~~~~~~~~~~~~~~~~~~~~~~~~~~~~ggggkkkkkkkklxkxxxxxxxxxxxxxxllxkgfkkkxxxxxxxxzxxxxxxkld<ddkxlxxxxxxxxxxzxxxxxxxxxxxxllxxxxxxxxxx",
"~~~~~~~~~~~~~~~~~~~~~~~~~~~~~~~~~~~~~~~~~~~~~nkxkxxxxxxzxxxxkxkd;;3kxlxxxxxxxxxxxxxklxxxllxxxxxxxxxxxxxxxxxxxxxzxxxxxxxxxxxxxxxx",
"~~~~~~~~~~~~~~~~~~~~~~~~~~~~~~~~~~~~~~~~~~~~~~~mlkxxxxxxxxxxlxk<333kxxxxxxxxxxxxlxkkgfdfdgfgkkxkxlxxxxxxxzxxxxxxxxxxxxxxxxxxxxxx",
"~~~~~~~~~~~~~~~~~~~~~~~~~~~~~~~~~~~~~~~~~~~~~~~~=nznxxxxxxxxxxk3<<3gxkxxxxxxxxkxxg<<<d<<333<<<dggxxzxxxxxxxxxxxxxxxxxxxxxxxxxkgd",
"~~~~~~~~~~~~~~~~~~~~~~~~~~~~~~~~~~~~~~~~~~~~~~~~~=nkxxxxxxxxklkf3<fzxzxxxlxxxlxkd<<<<<<d3333<<<<<<dkzklxxxxxxxxxxxxxxxxxxxxxgd<<",
"~~~~~~~~~~~~~~~~~~~~~~~~~~~~~~~~~~~~~~~~~~~~~~~~~@nkkxxxxxxxxxkxxkxlxxxxxxxxxxk3<<<<<<<<<333<3<<<3<<dgkxxxxxxxxxxxxxxxxxxkg<<<<<",
"~~~~~~~~~~~~~~~~~~~~~~~~~~~~~~~~~~~~~~~~~~~~~~~~~~=xzxxxxxxxxxxxxxxxxxxxxxzkxkd3<<gggd<<33333<<<<<33;<dzkxxxxxxxxxxxxxxxkd<<<<<<",
"~~~~~~~~~~~~~~~~~~~~~~~~~~~~~~~~~~~~~~~~~~~~~~~~~~W=nkxxxxxxxxxzxxxxxxxxxxllxg<<dlllxlf;333<<<<<d<<<<<<dlklxxxxxxxxxxxzd<3<3<<<<",
"~~~~~~~~~~~~~~~~~~~~~~~~~~~~~~~~~~~~~~~~~~~~~~~~~~~=nkxxxxxzxxxxxxxxxxxxxxlxk3<3gxkxllkd<3<<ddd;<<<<<<<<dllkxxxxxxxxxg<<3333d<3<",
"~~~~~~~~~~~~~~~~~~~~~~~~~~~~~~~~~~~~~~~~~~~~~~~~~~~Q=nzxxxxxxxxxxxxxxxxxxkxkf;<dlzkxkxld;d<dlxkd<<<d<<<<<dgxzxxxxxxkd<3333333<<d",
"~~~~~~~~~~~~~~~~~~~~~~~~~~~~~~~~~~~~~~~~~~~~~~~~~~~~=nkxxxxxxxxxxxxxxxxxklxg<<;dxkxxlxlg;<<gxllg<<<<<d<<<<<fkkkxxzg<<3333<33<<<<",
"~~~~~~~~~~~~~~~~~~~~~~~~~~~~~~~~~~~~~~~~~~~~~~~~~~~~!=nkxxxxxxzzxxxxxxxxkxk3;3<dkzkxxxxd<<3fxxxf<<333333333<3fkkkd<<3<33<<dgd<<<",
"~~~~~~~~~~~~~~~~~~~~~~~~~~~~~~~~~~~~~~~~~~~~~~~~~~~~~=xkxxxxxxzzxxxxxxxkxkf;<3<;fxzkzxg<<<<<gkf<<<333<33333<3<<3<<3<3333<3kzxd<<",
"~~~~~~~~~~~~~~~~~~~~~~~~~~~~~~~~~~~~~~~~~~~~~~~~~~~~~~=nxxf3333kkxkxkzklkd;333<<<dkzkf<<3333<333<33<333<<3<<333333<3333<<3xxlg<d",
"~~~~~~~~~~~~~~~~~~~~~~~~~~~~~~~~~~~~~~~~~~~~~~~~~~~~~~*nxd<333<<<3fkgkkf3<3<3<333<<3<<<<3<33333333333333333<3<33<3333<33<3kxkd<<",
"~~~~~~~~~~~~~~~~~~~~~~~~~~~~~~~~~~~~~~~~~~~~~~~~~~~~~~~*k;;333333333333333333<333<33333<33333<3<33333333<33<333333<33333d<<<;<<<",
"~~~~~~~~~~~~~~~~~~~~~~~~~~~~~~~~~~~~~~~~~~~~~~~~~~~~~~~~@333<333<33<333<3<33333333333333<333333333<3<333<<fkk3<33333333<<<<d<<<d",
"~~~~~~~~~~~~~~~~~~~~~~~~~~~~~~~~~~~~~~~~~~~~~~~~~~~~~~~~~Od3333333<<33<3333333333333<333333333<3333333<3<<xkzk<333333333<<<<<d<<",
"~~~~~~~~~~~~~~~~~~~~~~~~~~~~~~~~~~~~~~~~~~~~~~~~~~~~~~~~~~Od;3333<3kxk3<<3<3333<3<333333333<33333<3<333<<dxzzk333<33<333<<<<<<<<",
"~~~~~~~~~~~~~~~~~~~~~~~~~~~~~~~~~~~~~~~~~~~~~~~~~~~~~~~~~~~~d3333<3kxk3<33<3333<3333<3<3333<33<3333<3333<3zxxg<333<33333<d<d<<<3",
"~~~~~~~~~~~~~~~~~~~~~~~~~~~~~~~~~~~~~~~~~~~~~~~~~~~~~~~~~~~~~g<<3<3fkf<333333333<3333333333333333333333<3<<ff<<333333<33<<<<<<33",
"~~~~~~~~~~~~~~~~~~~~~~~~~~~~~~~~~~~~~~~~~~~~~~~~~~~~~~~~~~~~~~~j;3<3<<333333333333<33<33<3333<3333333<333333<3333<333333<<d<3<<d",
"~~~~~~~~~~~~~~~~~~~~~~~~~~~~~~~~~~~~~~~~~~~~~~~~~~~~~~~~~~~~~~~~~,-<<3<<3<333<3333333333333333333<33333<33<333333333<3<3<<<<<<<<",
"~~~~~~~~~~~~~~~~~~~~~~~~~~~~~~~~~~~~~~~~~~~~~~~~~~~~~~~~~~~~~~~~~~~>#$-;3<<333<3<33333333<33333<3333333333333<3<333<<33333333333",
"~~~~~~~~~~~~~~~~~~~~~~~~~~~~~~~~~~~~~~~~~~~~~~~~~~~~~~~~~~~~~~~~~~~~.%XX#&-<3<333<333<3333333<3333333<333<33333333333333<33<333<",
"~~~~~~~~~~~~~~~~~~~~~~~~~~~~~~~~~~~~~~~~~~~~~~~~~~~~~~~~~~~~~~~~~~~~~~ %XoXo#&-<<<3<33333333333<<33<3333333333<33333333333333<33",
"~~~~~~~~~~~~~~~~~~~~~~~~~~~~~~~~~~~~~~~~~~~~~~~~~~~~~~~~~~~~~~~~~~~~~~~~,XooXoXo#&&;3<<3333<3333333333<3333<33333<3333<333333333",
"~~~~~~~~~~~~~~~~~~~~~~~~~~~~~~~~~~~~~~~~~~~~~~~~~~~~~~~~~~~~~~~~~~~~~~~~~~>Xooooooooo$&<<3<3333333333<33333333<33<33333333333333",
"~~~~~~~~~~~~~~~~~~~~~~~~~~~~~~~~~~~~~~~~~~~~~~~~~~~~~~~~~~~~~~~~~~~~~~~~~~~ >XoooooooooXo$&-<3<33<333333<33<3333333333<333333<33",
"~~~~~~~~~~~~~~~~~~~~~~~~~~~~~~~~~~~~~~~~~~~~~~~~~~~~~~~~~~~~~~~~~~~~~~~~~~~~~.:XoooooooooooXX#&-;<<3333333333<333333<333<33<333<",
"~~~~~~~~~~~~~~~~~~~~~~~~~~~~~~~~~~~~~~~~~~~~~~~~~~~~~~~~~~~~~~~~~~~~~~~~~~~~~~~O#oooooooooooooXoX##&&;;<<333333<333<333333333333",
"~~~~~~~~~~~~~~~~~~~~~~~~~~~~~~~~~~~~~~~~~~~~~~~~~~~~~~~~~~~~~~~~~~~~~~~~~~~~~~~~~2oXooooooooooooXooooXo##&&;;;3<3<<<<3<33333<<<3",
"~~~~~~~~~~~~~~~~~~~~~~~~~~~~~~~~~~~~~~~~~~~~~~~~~~~~~~~~~~~~~~~~~~~~~~~~~~~~~~~~~~~1oXoooXoooooooooooooo#XXXoXo##&&&&&&&&&&&&&&&",
"~~~~~~~~~~~~~~~~~~~~~~~~~~~~~~~~~~~~~~~~~~~~~~~~~~~~~~~~~~~~~~~~~~~~~~~~~~~~~~~~~~~~~2oXXXoooooooooooooooooooooo#XooXoooooooooXX",
"~~~~~~~~~~~~~~~~~~~~~~~~~~~~~~~~~~~~~~~~~~~~~~~~~~~~~~~~~~~~~~~~~~~~~~~~~~~~~~~~~~~~~~~O%XooooooooooooooooooooooXXoooooooooooooo",
"~~~~~~~~~~~~~~~~~~~~~~~~~~~~~~~~~~~~~~~~~~~~~~~~~~~~~~~~~~~~~~~~~~~~~~~~~~~~~~~~~~~~~~~~~~1ooooXoooooooooooooooooooooooooooooooo",
"~~~~~~~~~~~~~~~~~~~~~~~~~~~~~~~~~~~~~~~~~~~~~~~~~~~~~~~~~~~~~~~~~~~~~~~~~~~~~~~~~~~~~~~~~~~~~>##Xooooooooooooooooooooooooooooooo",
"~~~~~~~~~~~~~~~~~~~~~~~~~~~~~~~~~~~~~~~~~~~~~~~~~~~~~~~~~~~~~~~~~~~~~~~~~~~~~~~~~~~~~~~~~~~~~~~~~&$#ooooXooooooooooooooooooooooo",
"~~~~~~~~~~~~~~~~~~~~~~~~~~~~~~~~~~~~~~~~~~~~~~~~~~~~~~~~~~~~~~~~~~~~~~~~~~~~~~~~~~~~~~~~~~~~~~~~~~~~~~#$###Xoooooooooooooooooooo",
"~~~~~~~~~~~~~~~~~~~~~~~~~~~~~~~~~~~~~~~~~~~~~~~~~~~~~~~~~~~~~~~~~~~~~~~~~~~~~~~~~~~~~~~~~~~~~~~~~~~~~~~~~~~~~$$&%###############",
"~~~~~~~~~~~~~~~~~~~~~~~~~~~~~~~~~~~~~~~~~~~~~~~~~~~~~~~~~~~~~~~~~~~~~~~~~~~~~~~~~~~~~~~~~~~~~~~~~~~~~~~~~~~~~~~~~~~~~~~~~~~~~~~~",
"~~~~~~~~~~~~~~~~~~~~~~~~~~~~~~~~~~~~~~~~~~~~~~~~~~~~~~~~~~~~~~~~~~~~~~~~~~~~~~~~~~~~~~~~~~~~~~~~~~~~~~~~~~~~~~~~~~~~~~~~~~~~~~~~",
"~~~~~~~~~~~~~~~~~~~~~~~~~~~~~~~~~~~~~~~~~~~~~~~~~~~~~~~~~~~~~~~~~~~~~~~~~~~~~~~~~~~~~~~~~~~~~~~~~~~~~~~~~~~~~~~~~~~~~~~~~~~~~~~~",
"~~~~~~~~~~~~~~~~~~~~~~~~~~~~~~~~~~~~~~~~~~~~~~~~~~~~~~~~~~~~~~~~~~~~~~~~~~~~~~~~~~~~~~~~~~~~~~~~~~~~~~~~~~~~~~~~~~~~~~~~~~~~~~~~",
"~~~~~~~~~~~~~~~~~~~~~~~~~~~~~~~~~~~~~~~~~~~~~~~~~~~~~~~~~~~~~~~~~~~~~~~~~~~~~~~~~~~~~~~~~~~~~~~~~~~~~~~~~~~~~~~~~~~~~~~~~~~~~~~~",
"~~~~~~~~~~~~~~~~~~~~~~~~~~~~~~~~~~~~~~~~~~~~~~~~~~~~~~~~~~~~~~~~~~~~~~~~~~~~~~~~~~~~~~~~~~~~~~~~~~~~~~~~~~~~~~~~~~~~~~~~~~~~~~~~",
"~~~~~~~~~~~~~~~~~~~~~~~~~~~~~~~~~~~~~~~~~~~~~~~~~~~~~~~~~~~~~~~~~~~~~~~~~~~~~~~~~~~~~~~~~~~~~~~~~~~~~~~~~~~~~~~~~~~~~~~~~~~~~~~~",
"~~~~~~~~~~~~~~~~~~~~~~~~~~~~~~~~~~~~~~~~~~~~~~~~~~~~~~~~~~~~~~~~~~~~~~~~~~~~~~~~~~~~~~~~~~~~~~~~~~~~~~~~~~~~~~~~~~~~~~~~~~~~~~~~",
"~~~~~~~~~~~~~~~~~~~~~~~~~~~~~~~~~~~~~~~~~~~~~~~~~~~~~~~~~~~~~~~~~~~~~~~~~~~~~~~~~~~~~~~~~~~~~~~~~~~~~~~~~~~~~~~~~~~~~~~~~~~~~~~~",
"~~~~~~~~~~~~~~~~~~~~~~~~~~~~~~~~~~~~~~~~~~~~~~~~~~~~~~~~~~~~~~~~~~~~~~~~~~~~~~~~~~~~~~~~~~~~~~~~~~~~~~~~~~~~~~~~~~~~~~~~~~~~~~~~",
"~~~~~~~~~~~~~~~~~~~~~~~~~~~~~~~~~~~~~~~~~~~~~~~~~~~~~~~~~~~~~~~~~~~~~~~~~~~~~~~~~~~~~~~~~~~~~~~~~~~~~~~~~~~~~~~~~~~~~~~~~~~~~~~~",
"~~~~~~~~~~~~~~~~~~~~~~~~~~~~~~~~~~~~~~~~~~~~~~~~~~~~~~~~~~~~~~~~~~~~~~~~~~~~~~~~~~~~~~~~~~~~~~~~~~~~~~~~~~~~~~~~~~~~~~~~~~~~~~~~",
"~~~~~~~~~~~~~~~~~~~~~~~~~~~~~~~~~~~~~~~~~~~~~~~~~~~~~~~~~~~~~~~~~~~~~~~~~~~~~~~~~~~~~~~~~~~~~~~~~~~~~~~~~~~~~~~~~~~~~~~~~~~~~~~~",
"~~~~~~~~~~~~~~~~~~~~~~~~~~~~~~~~~~~~~~~~~~~~~~~~~~~~~~~~~~~~~~~~~~~~~~~~~~~~~~~~~~~~~~~~~~~~~~~~~~~~~~~~~~~~~~~~~~~~~~~~~~~~~~~~",
"~~~~~~~~~~~~~~~~~~~~~~~~~~~~~~~~~~~~~~~~~~~~~~~~~~~~~~~~~~~~~~~~~~~~~~~~~~~~~~~~~~~~~~~~~~~~~~~~~~~~~~~~~~~~~~~~~~~~~~~~~~~~~~~~",
"~~~~~~~~~~~~~~~~~~~~~~~~~~~~~~~~~~~~~~~~~~~~~~~~~~~~~~~~~~~~~~~~~~~~~~~~~~~~~~~~~~~~~~~~~~~~~~~~~~~~~~~~~~~~~~~~~~~~~~~~~~~~~~~~",
"~~~~~~~~~~~~~~~~~~~~~~~~~~~~~~~~~~~~~~~~~~~~~~~~~~~~~~~~~~~~~~~~~~~~~~~~~~~~~~~~~~~~~~~~~~~~~~~~~~~~~~~~~~~~~~~~~~~~~~~~~~~~~~~~",
"~~~~~~~~~~~~~~~~~~~~~~~~~~~~~~~~~~~~~~~~~~~~~~~~~~~~~~~~~~~~~~~~~~~~~~~~~~~~~~~~~~~~~~~~~~~~~~~~~~~~~~~~~~~~~~~~~~~~~~~~~~~~~~~~",
"~~~~~~~~~~~~~~~~~~~~~~~~~~~~~~~~~~~~~~~~~~~~~~~~~~~~~~~~~~~~~~~~~~~~~~~~~~~~~~~~~~~~~~~~~~~~~~~~~~~~~~~~~~~~~~~~~~~~~~~~~~~~~~~~",
"~~~~~~~~~~~~~~~~~~~~~~~~~~~~~~~~~~~~~~~~~~~~~~~~~~~~~~~~~~~~~~~~~~~~~~~~~~~~~~~~~~~~~~~~~~~~~~~~~~~~~~~~~~~~~~~~~~~~~~~~~~~~~~~~",
"~~~~~~~~~~~~~~~~~~~~~~~~~~~~~~~~~~~~~~~~~~~~~~~~~~~~~~~~~~~~~~~~~~~~~~~~~~~~~~~~~~~~~~~~~~~~~~~~~~~~~~~~~~~~~~~~~~~~~~~~~~~~~~~~",
"~~~~~~~~~~~~~~~~~~~~~~~~~~~~~~~~~~~~~~~~~~~~~~~~~~~~~~~~~~~~~~~~~~~~~~~~~~~~~~~~~~~~~~~~~~~~~~~~~~~~~~~~~~~~~~~~~~~~~~~~~~~~~~~~",
"~~~~~~~~~~~~~~~~~~~~~~~~~~~~~~~~~~~~~~~~~~~~~~~~~~~~~~~~~~~~~~~~~~~~~~~~~~~~~~~~~~~~~~~~~~~~~~~~~~~~~~~~~~~~~~~~~~~~~~~~~~~~~~~~",
"~~~~~~~~~~~~~~~~~~~~~~~~~~~~~~~~~~~~~~~~~~~~~~~~~~~~~~~~~~~~~~~~~~~~~~~~~~~~~~~~~~~~~~~~~~~~~~~~~~~~~~~~~~~~~~~~~~~~~~~~~~~~~~~~",
"~~~~~~~~~~~~~~~~~~~~~~~~~~~~~~~~~~~~~~~~~~~~~~~~~~~~~~~~~~~~~~~~~~~~~~~~~~~~~~~~~~~~~~~~~~~~~~~~~~~~~~~~~~~~~~~~~~~~~~~~~~~~~~~~",
"~~~~~~~~~~~~~~~~~~~~~~~~~~~~~~~~~~~~~~~~~~~~~~~~~~~~~~~~~~~~~~~~~~~~~~~~~~~~~~~~~~~~~~~~~~~~~~~~~~~~~~~~~~~~~~~~~~~~~~~~~~~~~~~~",
"~~~~~~~~~~~~~~~~~~~~~~~~~~~~~~~~~~~~~~~~~~~~~~~~~~~~~~~~~~~~~~~~~~~~~~~~~~~~~~~~~~~~~~~~~~~~~~~~~~~~~~~~~~~~~~~~~~~~~~~~~~~~~~~~",
"~~~~~~~~~~~~~~~~~~~~~~~~~~~~~~~~~~~~~~~~~~~~~~~~~~~~~~~~~~~~~~~~~~~~~~~~~~~~~~~~~~~~~~~~~~~~~~~~~~~~~~~~~~~~~~~~~~~~~~~~~~~~~~~~",
"~~~~~~~~~~~~~~~~~~~~~~~~~~~~~~~~~~~~~~~~~~~~~~~~~~~~~~~~~~~~~~~~~~~~~~~~~~~~~~~~~~~~~~~~~~~~~~~~~~~~~~~~~~~~~~~~~~~~~~~~~~~~~~~~",
"~~~~~~~~~~~~~~~~~~~~~~~~~~~~~~~~~~~~~~~~~~~~~~~~~~~~~~~~~~~~~~~~~~~~~~~~~~~~~~~~~~~~~~~~~~~~~~~~~~~~~~~~~~~~~~~~~~~~~~~~~~~~~~~~",
"~~~~~~~~~~~~~~~~~~~~~~~~~~~~~~~~~~~~~~~~~~~~~~~~~~~~~~~~~~~~~~~~~~~~~~~~~~~~~~~~~~~~~~~~~~~~~~~~~~~~~~~~~~~~~~~~~~~~~~~~~~~~~~~~",
"~~~~~~~~~~~~~~~~~~~~~~~~~~~~~~~~~~~~~~~~~~~~~~~~~~~~~~~~~~~~~~~~~~~~~~~~~~~~~~~~~~~~~~~~~~~~~~~~~~~~~~~~~~~~~~~~~~~~~~~~~~~~~~~~",
"~~~~~~~~~~~~~~~~~~~~~~~~~~~~~~~~~~~~~~~~~~~~~~~~~~~~~~~~~~~~~~~~~~~~~~~~~~~~~~~~~~~~~~~~~~~~~~~~~~~~~~~~~~~~~~~~~~~~~~~~~~~~~~~~",
"~~~~~~~~~~~~~~~~~~~~~~~~~~~~~~~~~~~~~~~~~~~~~~~~~~~~~~~~~~~~~~~~~~~~~~~~~~~~~~~~~~~~~~~~~~~~~~~~~~~~~~~~~~~~~~~~~~~~~~~~~~~~~~~~",
"~~~~~~~~~~~~~~~~~~~~~~~~~~~~~~~~~~~~~~~~~~~~~~~~~~~~~~~~~~~~~~~~~~~~~~~~~~~~~~~~~~~~~~~~~~~~~~~~~~~~~~~~~~~~~~~~~~~~~~~~~~~~~~~~"
};
