/* XPM */
static char *result[] = {
/* columns rows colors chars-per-pixel */
"128 128 28 1 ",
"  c #23140A",
". c #29170B",
"X c #2D190C",
"o c #341D0E",
"O c #391F0E",
"+ c #3A200F",
"@ c #3B2110",
"# c #422614",
"$ c #462916",
"% c #482A17",
"& c #472A18",
"* c #4E2E1B",
"= c #502F1C",
"- c #4F301D",
"; c #50301D",
": c #563420",
"> c #593622",
", c #5E3925",
"< c #5F3C29",
"1 c #623C26",
"2 c #683E27",
"3 c #653E29",
"4 c #683F29",
"5 c #65412C",
"6 c #6C432D",
"7 c #70452F",
"8 c #6A4531",
"9 c None",
/* pixels */
"@@@@@@@@@@@@@@@@@@@@@@@@@@@@@@@@@@@@@@@@@@@@@@@@@@@@@@@@@@@@@@@@@@@@@@@@@@@@&;*;;;;;;;;;;-;;;-;;;;*;*;74666666666666666666666666",
"@@@@@@@@@@@@@@@+@@@@@@@@@@@@@@@@@@@@@@@@@@@@@@@@@@@@@@@@@@@@@@@@@@@@@@@@@@@@*=;;;;;*;;;-;;;;;;;;;-=;*;78666666667666666676666766",
"@@@@@@@@@@@@@@@@@@@@@@@@@@@@@@@@@@@@@@@@@@@+@@@@@@@@+@@@@@@@@O@@@@@@@@@@@@O#;;*;;;;=;;;;;;;;;;;;;;*;=;74666666666666666666666665",
"@@@@@@@@@@@@@@@@@@@@@@@@@@+@@@@@@@@@@@@@@@@@@+@@@@@@@@@@@@@#**@@@@@@@@@@@+@&;*;;;;;=;;;;;;;-;-;;;;*;*:74666666666666666666666661",
"@@@@@@@@@@@@@@@@@@@@@@@+@@@@@@@@@++@X...O+@+@@@@@@@@@@@@@+@*;;&#@@@@@@@@+@$;**;;;;;*;;;;;-;-;;;;;;==*;7666666666666666666666666,",
"@@@@@@@@@@@@@@@@@@@@@@@@@@@@@+@@+++.     O@++@@@@@@@@@@@@O$==;;#O@@@@@@+@%;=;;=;=&#$*;*;;;;;;;-;;===*=6666666666866666666666666>",
"@@@@@@@@@@@@@+@@@@@@@@@@+@@@@@@@@@X      .O@+@@@@@@@@@@@@+#*;;*@+@@@@@@#*;*;;;*;&+@+@&;;;;-;;;;;;;====84666666667666666666666669",
"@@+@@@@@@@@@@@@@@+@@@@@@@@@@@@@@@@.       o@+@@@@@@@@@@@@@+@*&@@@@@@+@&-**;;;*;*#+@++$;*;;;;;-;;;;===,676666;;;66666666666666649",
"@@@@@@@@@@@@@@@@@@@@@@@@@@@@@@@++@.       O@O@@@@@@@@@@@@@@@@@@@+++@%-;*;;;;-*;*#@@+@#;=;;;;-;;;=*;*;666664=;-*:6666666666666619",
"@@@@@@@@@@@@@@@@@@@@@@@@@@@@@@@@@@X      .O@+@@@@@@@@@@@@@@@@@@@+#%;;*;-;;;;;*=;&@@+@*;*;-;;;;;-;;;*>666663*;;=;46666666666666,9",
"@@@@@@@@@@@@@@@@@@+@@@@@@@@@@@@@@OO.     o@++@@@@@+@@@+@@@@@@@@@$=-*;;;;;;;;;;=;=&#$*;=;;;;;;;--;;*;6666663*;;-;6666666666666699",
"@@@@@@@@@@@@@@@@@@@@@@@@@@@@@@@@@O@OX. .oO@+@@@@@@@@@@@@@@@@@@@@*;*;;;;-;;;;;;;;;;;;=;;;-;-;;;-*;=;66666666>;*;16668666666866499",
"@@@@@@@@@@@@@@@@@@@@@@@@@@@@@@@@@@@@@@@@@@@@@@@@@@@@@@@@@@@@@@+&;=;==-*#@##*;*;;;;;;;;;;;;;;*-*:*;46666666661,466666666666666,99",
"@@@@@@@@@@@@@@@@@@@@@+@@@@@@@@@@@@@@@@@@@@@@@@@@@@@@@@@@@@@+@@@&;;*;*#O+@+++$***;;-;;;-;;;;-*::&;1666666666666666666666666665999",
"@@@@@@@@@@@@@@@@@@@@@@@@@@@@@@@@@@@@@@@@@@@@@@@+@@@@@@@@@@@@@+@&;;;*$+@@@@+@+$;;-;;;;;;;-;;;-*:*;7666666666666666666666666665999",
"@@@@+@@@@@+@@@@@@@+@@@@@@@@@+@@@@@@@@@@@@@@@@@@@@@@@@@@@@@@@@@O&;;;%+@@@@@++++*;*;;;;-;-;;-;-***>6666666666666666666666666661999",
"@@@@@@@@@@@@@@@@@@@@@@@@@@@@@@@@@@@@@@@@@@@@@@@@@@@@@@@@@@@@@++$;;;#+++@@@@@++$;=;;-;;*;161==:**1666666666666666666666666666>999",
"@@@@@@@@@@@@@@@@@@@@@@@@@@@@@@@@@@+@@@@@@@@@@@@@@@@@@@@@@@@@@++#;;*#++@@@@+@++$;=;;;;;*>744,***:16666666666666666666666666669999",
"@@@@@@@@@@@@@@@@@@@@@@@@@@+@@@@@@@@@@@@@@@@@@@@@@@+#&&@@@@@@@@+@*;*#+@@@@@@@@O#;*;;;;;*:884:*;*;,6666666666666666666666666659999",
"@@@@@@@@@@@@@@@@@@@@@@@@@@@@@@@@@@@@@@@@@@@@@@@@@O$;==&@+@@@@@++$-;#+@@@@@@@+@$;=;;;;;*;:1>*-;;*>6666666666676666666676666619999",
"@@@@@@@@@@@@@@@@@@@@@@+@@@@@@@@@@@@@@@@@@@@@@@@@@@&;*;*@+@@@@@@+@*;%++@@@@@@+@*;*-;;;;;;;;-;**-*;66666668666666666666666666,9999",
"@@@@@@@@@@@@@@@@@@@@@@@@@@@@+@@@@@@@@@@@@@@@@@@@@+*;=;*#++@@@@@O@*;-$+@@@@@+@$;;;;;;;;;;;;;;-:-*;,666666766666666666668666699999",
"@@@@@@@@@@@@@@@@@@@@@@@@@@@@@@@@@@@@@@@+@+@@@@@@@+#*;;$+@@@@@@@@+#;;*$@+++++%;**;;-;;;;;;;----**=;666666666666666666666666699999",
"@@@@@@@@@@@@@@@@+@@@@@@@@@@@@@@@@@@@@@@@@@@@@@@@@@+@#@++@@@@@@@@+@%;*;*$#$%*;;;-;;;;;=;--;;**::&;=;66666666666666666666666699999",
"@@@@@@@@@@@@@@@@@@@@@@@@@@@@@@@@@@@@@@@@@@@@@@@@@@@@@@@@@@@@@@@@@+#*;*;;;;;;;;;;;;;=;;;;;;-;;;;:;;;;7666666666676666666666499999",
"@@@@@@@@@@+@X    .X+@+@@@@@+@@@@@@@@@@@@@@@@@@@@@@@@@@@@@@@@@@@@@@O#;-*;;;;;;-;=;;;;;;-;;=;;;-;==;*=1666666666666666666666699999",
"@@@@@@@@@@+         ++@+@@@@@@@@@@@@@@@@@@@@@@@@@@@@@@@@@@@@@@@@@@++$-**;;;;;;;;;;;-;;;;;;;;;;;-;*;*;366666666666687666666499999",
"@@@@@@@+@@           +@@+@@@@@@@@@@@@@@@+@@@@@@@@@@@@@@@@@@@@@@@@@@++#*=*;;-;;;;;;;;-;=;;;-;;;;;;;=;*=66666666686666666666699999",
"@@@@@@@+@X           X+++@@@@@@@@@@@@@@@@@@@@@@@@@@@@@@@@@@@@@@@@@@@@+@$*;;;;;;;-;;-;;-;;=;;=;;=;;;;;*;7666666666666666666699999",
"@@@@@@+++             ++@+@@@@@@+@@@@@@@@@@@@@@@@@@@@@@@@+@+XX@++@@@@@@++$;;*;;;;;;;=;;;-;;;;-;;;;;=;=;2666666676666666666499999",
"@@@@@@+@+             X+@+@@@@@@@@@@@@@@@@@@@@@@@@@@@@@@@+@@XX@++@+@##@+++#*;*;;=;-;;;;;;;;;;;;;;;;;;;;;666666666666666666499999",
"@@@@@@+@X             X+@+@@@@@@@@@@@@@@@@@@+@@@@@@@@@@@@@@@@@@@@+@&;;*#+@+@*-*;;;;;;-;;;;;-;;-;=;;;;;;;7666666666666666666,9999",
"@@@@@@+@X             X@@@@@@@@@@@@@@@@@@+@@@@@@@@@@@@@@@@@@@@@@++#===;%++@+@*;*;;;;;;;=;;;;;;;;;;;;;;;;7666666666666666665,9999",
"@+@@+@+@X             X@@@@@@@@@@@@@@@@@@@@@@@@@@@@@@@@@@@@@@@@@++$;-=;%@+@@+#;=*-;;;;**=*;;*;;;;;;;;;;;6666666666666667666,9999",
"@@@@@@++@             +@@+@@@@@@@@@@@@@@@@@@@@@@@@@@@@@@@@@@@@@@++#*;*=%+@@@+@%;*;;;;*=*#+@%;=;;;;;;;;;;666666666666666666619999",
"@@@@@@@+@X           X@@+@@@@@@@@@@@@@@@@@@@@@@@@@@+@@@@@@@+@+@@+++#%*$@+@@@@@%;=;;;=;*#++@@%;*;*;6;==;6667666666666666666659999",
"@@@@@@@+@@           o@@+@@@@@@@@@@@@@@@@@@@@@@@@@@@@@@@@@@@@@@@+@@@@@@@@@@@+@%;*;;;*;*#++++%-**=,7;*;66666666666666666666659999",
"@@@@@@@@+@@.        +@@@@@@@@@@@@@@@@@@@@@@@@@@@@@@@@@@@@@@@@@@@@@@@@@@@@@@@+@*-;;;;-;*@+++@%;*;====;666666666666676666666569999",
"@@@@@@@@@+@@X     X+@@@@@@@@@@@@@+@@@@@@@@@@@@@@@@@@@@@@@@@@@@@@@@@+@@@@@+@++%;;*;;;*;;%@@+#==*;====6666666666666666666666689999",
"@@@@@@@@@@@@@+++@@@@@@@@@@@@@@@@@@@@@@@@@@@@@@+@@@@@@@@@@@@@@@@@@@@@@@@@@@@+#;**;;;-;;;;*%%=*;;*=*=72666666666666666666666669999",
"@@@@@@@@@@@@@@@@@@@@@@@@@@@@@@@@@+@@@@@@@@@@@@@+@@@@@@@@@@@@@@@@@@@@@@@@+@+#*-*;;;;;-;;;;;;;;;*;*;766666666666666666666666669999",
"@@@@@@@@@@@@@@@@@@@@@@@@@@@@+@@@@@@@@@@@@@@@@@@@@@@@@@@@@@@@@@@@@@@@@+@@++$**-;;;;=;;;;;;;;;;=-*=6666666666666666666766666669999",
"+@@@@@@@@@@@@@@@o@@@@@@@@@@@@@@@@@@@@@@@@@@@@@@@@@@@@@@@@@@@@@@@@@@@++@+@%;*=;;;;;;;;=-;;=;==;*=5666666766666666666666866666>999",
"@@@@@@@@@@@@@@@@@@@@@@@@@@@@@@@@@@@@@@@@@@@@@@@@@@@@@+@@@@@@@@@@@@@@@++#*;*;;;;;;;-;-;;;;;;=;*;266666,2566666666666666666666<999",
"@@@@@@@@@@@@@@@@@@@@@@@+@@@@@@@@@@@@@@@@@@@@@@@@@@@@@@@@@@@@@@@@+++++@%-;;;;=;;;;;;-;;;;;;;;;;;6666,***;;66666666666666666661999",
"@@@@@@@@@+@@@@@@@@@@@@@@@@@@@@@@@@@@@@@@@@@@@@@@@@@@@@@@@@@@@@@@@+++@%;-*;;;;;;-=;;;;;;-;;=;;;7666,*==;*;;6666666666666666661999",
"@@@@@@@@@@@@@@@@@@@@@@@@@@@@@@@@@@@@@@@@@@@@@@@@@@@@+@@@@@@@@@@@@@+#-=-=;;;;-;;;;-;;-;;;;;;;;72662**;;;;;;6666666666666666646999",
"@@@@@@@@@@@@@@@@@@@@@@@@@@@@@@@@@@@@@@@@+@@@@@@@@@@@@@@@@@@@@@@@+@$-----%**;*;;;;;;;;=;;;;;;;76662**;;=;;;,666666678666666848999",
"@@@@@@@@@@@@@@@@@@@@@@@@@@@@@+@@@@@@@@@@@@@@@@@@@@@@@@@@@@@@@@@+#%=---#+++@%;;;;;;;;;=;;-;-;666661*;;;;;*;,666666666666667666999",
"@@@@@@@@@@@@@@@@@@@@@@@@@@@@@@@@@@@@@@@@@@@@@@@@@@@@-*@@@@@@@@+@*=-=-#+++++@%;;;;;;;;;;-==;;666665;;;;;;=;3666666666666866666999",
"@@@@@@@@@@@@@@@@@@@@@@@@@@@@@@@@@@@@@@@@@@@@@@@@@@X&--@@@@@@@@@*=--=%+@@+@++@*;-;;;;;;;;;;;56666661-;;;**;6666667666666666666999",
"@@@+@@@@@@@@+@@@@@@@+@@@@@@@@@@@@@@o@@@@@@@@@@@@@@@@--@@@@@@O@*==-==#+@@@@@+@%=-;=;;-;;;;;;66666667;-;*;>66666666666666666666>99",
"@@@@@+@@@@@@@@@@@@@@@@@@@@@@@@@@@@@@@@@@@@@@@@@@@@@@@@@@@@@@O$;---=-#+@+@@++@%;=;;;;=;;;;=;7666666666115666666666666666766666>99",
"@@@@@@@@@@@@+@@@@@@@@@@@@@@@@@+@@@@@@@@@@@@@@@@@@@@@@@@@@@@+@*;*=*-=#+@@@+++#%=-;;;;;;;;===6666666666666666676666666666666666,99",
"@+@@@@@@@@@@@@@@@@@@@@@@@@@@@@@@@@@@@@@@@@@@@@@@@@@@@@@@@@@O#*;-====%++@+@++#=--;=;;;;=;=;=;766666666666666666666666666666666199",
"@@@@@@@@@@@@@@@@@@@@@@@@@@@@@@@@@@@@@@@@@@@@@@@@@@@@@@@@@@@O$;*-==--=%+@@@++*=-=;;;;;;=;;;=;266666666666666668666666666666666199",
"@@@@@@@@@@@@@@@@@@@@@@@@@@@@@@@@@@@@@@@@@@@@@@@@@@@@@@@@@@@+&---;;;*;;%###$*;*;;;;;;;-;6662=;66666666666666666666666666666666499",
"@@@@@@@@@@@@@@@@@@@@@@@@@@@@@@@@@@@@@@@@@@@@@@@@@@@@@@@@@@@+@&--;;;;;;;;;;;;;;;;;;;;=-;7675;=26666666666666666666666686666666699",
"@@@@@@@@@@@+@@@@@@@+@@@@@@@@@@@@@@@@@@@@@@@@@@@@@@@@@@@@@@@@@&--*;;-;;;;-;;-;;;;;;;;--;7666;*;7666666667666667666667666666686699",
"@@@@@@@+@@@@@@@@@@@@@@+@@@@@@@@@@@@@@@@@@@@@@@@@@@@@@@@@@@@+@@&:-;;;;;;;;;;;;-;;=;;;=*;7665;=;,766666666666666666666666666666699",
"@@@@@@@@@@@@@@@@@@@@@@@@@@@@@@@@@@@@@@@@@@@@@@@@@@@@@@@@@@@@@+@-;;;;;;;;;;;;;-;;;;;;;;;;,,;=;*;766666666666666666666666666666699",
"@@@@@@@@@@@@+@@@@@@@@@@@@@+@@@@@@@@@@@@@@@@@@@@@@@@@@@@@@@@@@@@@;**;;;;-;-;;;;;;;;;;;;;;====;*;766666666666666666666666666666699",
"@@@@@@@@@@@@@@@@@@@@@@@@@@@@@@@@@@@@@@@@@@@@o@@@@@@@@@@@@@@@@@++%;*;;-;;;;;;;;;;;;;;;;=;====;*;766666666766666666666666666666699",
"@+@@@@@@@@@@@@@@@@@@@@@@@@@@@@@@@@@@@@@@@@@@@@@@@@@@@@@@@@@@@@@+#*;*;;;-;;-;;;;-;;;;;;======;;;766666666666666786666666666666699",
"@@@@@@@@+@@@@@@@@@@@@@@@@@@@@@@@@@@@@@@@@@@@@@@@@@@@@@@@@@++@@@++%;;;*;;;;;;;-;;;;;;;;;;;;;;*;1666666666666666666666666666668699",
"@@@+@@@@@@@@@@@@@@@@@@@@@@@@@@@@@@@@@@@@@@@@@@@@@@@@@@@@@+@#@+@@+%;;;;;;;;;;;;;;;;;;;;;;;;*;*;66666666666,;366666666666667666699",
"@@@@@@@@@@@@@@@@@@@@@+@+@+@@@@@@@@@@@@+@@@@@@@@@@@+@@@@@@+$;%@+@+%;;;;;;;;;;;;;;;;;;;;;;;*;*;666666666663*;;62666666666666666699",
"@@@@@@@@@@@@@@@+@+@o.   o@@+@@@@@@@@@@@@@@@@@@@+@Oo.XO@O@+%;*@@++%;;;;;;;;;;;;;-;;;;;;;;;;=*,666666666663*;;66666666666666666699",
"@@@@@@@@@@@@@@@@+@X      o+@+@@@@@@@@@@@@@@@@@O+@.    o+@+@$@+@+#;;*;;;;;;;;;;;;;;;;;;;;-;-;7666666666666,>566666666666666666399",
"@@@@@@@@@@@@@@@@+@.      .+@+@@@@@@@@@@@@@@@@@+@O     XO@O@O@@@+%;*;;;;;;;;;-**;*++%;;;*;*;6666666666666666666666666666666666199",
"@@@@@@@@@@@@@@@+++        +@+@@@@@@@@@@@@@@@@@+@o     o@@O@@@@+#-;*;;;;**;;;;*;*#+++***;;*;766661>>12666667666666666666666666,99",
"@@@@@@+@@@@@@@@+++        +@+@@@@@@@@@@@@@@@@@+@O     o@O@@@@+@%;;*%+++#%*--;*;*#++#%;;;*;46662;*;;;;666666666666666666666664999",
"@@@@@@@@@@@@@+@@+@.      X+@+@@@@@@@@@@@@@@@@@@++O   oO+@@@@@O#*;;$+@@+@+#;;---;%++$;=*;=;6667;;;;;*;;76666666666666666666664999",
"@@@@@@@@@@@@@@@@@@O      o@@+@@@@@@@@@@@@@@@@@@@O+OO+@O@@@@@+@*;;%+@@@@@++$;-;;*;**;*;;;=;1766;;;;;;;;6666666666666666666665<999",
"@@@@@@+@@@@@@@@@@+@o.  .++@+@@@@@@@@@@@@@@@@@+@@@@@@@@@@@@@@+$*;-#+@@@@@++#-;;;;;;-;;;;;;*;762;;;;;;=;16666666666866668666669999",
"@@@@@@@@@@@@@@@@@@@@@@@@@@@+@+@@@+@@@@@@@@@@@@@@@@@@@@@@@@@@O$==%#+@@@@@+++-;*;;;;;;;;;*;*;662;;;;;;;;36666666666766666666669999",
"@@@@@@@@@@@@@@@@@@@@@@@@@@@@@@@@+@@@@@@@@@@@@@@@@@@@@@@@@@@@O$;;*+++@@@@+++*;;;;-;;;;;;;*;*;77;;;;;*;:666666666666666666666<9999",
"@@@@@@@@@@@@@@@@@@@@@@@@@@@@@@@@@@@@@@@@@@@@@@@@@@@@@@@@@@@@O#=;-#++++@@++#;**;;;;;=-;;-;;;=;76;*-;*;666666666666666666666499999",
"@@@@@@@@@+@@@@@@@@@@@@@@@@@@@@@@@@@@@@@@@@@@@@@+@@@@@@@@@@@@+@**;%++++++++$;*-;;;;;;;;;;;;;;=;661;>16666666666666666666664499999",
"@@@@@@@@@@@@@@@@@@@@@@@@@@@@@@@@@@@@@@@@@@@@@@@@@@@@@@@@@@@@@@$;;;%++#+++$;*=;;;;;-;=;;;;;;=;;;666666666666666666666666664999999",
"@@@@@@@@+@@@@@@@@+@@@@@@@@+@@@@@@@@@@@@@@@@@@@@@@@@@@@@@@@@@@+#*;;;%#++#%;-*;;;;;;;;-;;;;;-;*;*;26666666666666666766666665999999",
"@@@@@@@@@@@@@@@@@@@@@@@@@@@@@@@@@@@@@@@@@@@@@@@@@@@@@@@@@@@@@@O$;;*;;;;;;;;;;;;;-;;-;;-;;;;;;*;*;,76666666666666666666666<999999",
"@@@@@@@@@@@@@@@@@@@@@@@@@@@@@@@@@@@@@@@@@@@@@@@@@@@@@@@@@@@@@@@@*=*;;;;;;;;;;;;-;;=*==*=**;;;;;;;*;66666666666666666666639999999",
"@+@@@@@@@@@@@@@@@@@@@@@@@@@@@@@@@@@@@@@@@@@@+@@@@@@@@@@@@@@@@@@+#*=*;;;;;;;;;;;;**;*@+@@*;*;;;;;-;*=3666666666666666666459999999",
"@@@@@@@@@@@@@@@@@@@@@@@@@@@@@@@@@@@@@@+@@+@@@@@@@@@@@@@@@@@@@@@@+#=;;;;;;;;*;;;==;%+@@@+@%;=;;;;;*;**;76666666666666666499999999",
"@@@@@@@@@@@+@@@@@@@@@@@@@@@@@@@+@@@@@@@@@@@@@@@@@@@@@@@@@@@@@@@@++#;--;;;;;;;;;*;*#+@@@@+#;;-;;;;;;;;*;6666666666666866899999999",
"@@@@@@@@@@@@@@@@@@@+@@@@@@@@@@@@@@@@@@@@@@@@@@@@@@@@@@@@@@@@@@@@+++%;**;;-;;;;;-;*#+@@@++@*;-;;;;;;;*;*;466666666666764199999999",
"@@@@@@@@@@@@@@@@@@@@@@@@@@@@@@@@@@@@@@@@@@@@@@@@@@@@@@+@$*&@@@@@@+++%;;*;;;-;;;*;&@+@@@@++*;*;;;;;;;--;*-16666666666662999999999",
"@@@@@@@@@@@@@@@@@@@@@@@@@@@@@@@@@@@@@@@@@@@@@@@@@@@@@@O#*;;#O@@@@@+++%;;;;;;=;;=;=#O@@@@+#=*;;=;;;;;;;;;*;4666666666648999999999",
"@@@@@@@@@@@@@@@@@@@@@@@@+@@@@@@@@@@@@@@@@@@@@+@@@@@@@@+#*;;#O@@@@@@@+#*;*;;;;;-*=;%O@+@+@&;=;;*;66;;;;;;;*-666666666645999999999",
"@@@@+@@@@@@@@@@@@@@@@@+@@@@@@@+@@@@@@@@@@@@@@@@@@@@@@@@+#%#@+@@@@@@@+++%;-*;;;;;*=;*#O@@&;*;;;;;66;;;;;;;*;>66666666639999999999",
"@@@@@@@@@@@@@@@@@@@@@@@@@@@@@@@@@@@@+@@@@@@@@@@@@@@@@+@@@@@@@@@@@@@@+++#$;*;-;;;;;==*=*;;;;;;;;;;,;;;;;;=;*;66666666619999999999",
"@@@@@@@@@@@@@@@@@@@@@@@+@@@@@@@@@@@@@@@@@@@@@@@@@@@@@@@@@@@@@@@@@@@@@@@++$;;;;;;;;;;;=;;;;;;;;;;;;;;;;;;=;*;66666666489999999999",
"@@@@@@@@@@@@@@@@@@@+@@@@@@@@@@@@@@@@@@@@@@@@@@@@@@@@@@@@@@@@@@@@@@@@@@@@++*;=;;;;;;;;;;;;;;;;-;;;=;;;;;;=;*;76666666489999999999",
"@@@@@@@@@@@@@@+@@@@@@@@@@@@@@@@@@@+@@@@@@@@@@@@@@@@@@@+@@@@@@@@@@@@@@@@@++&;=;;;;**$*;-;;;;;;;;;;;;;;;;=;*-4666666664<9999999999",
"@@+@@@@@@@@@@@@@@@@@@@@@@@@@@@@@@@@@+@@@@@@@@+@@@@@@@@@@@@@@@+@@@+@@@@@@++%;*;*;*#O+@$;=;;;;;;*;;;;;;;;;--:666666666439999999999",
"@@@@@@+@@@@@@@@@@@@@@+@@@@@@@@+@+@@@@@@@@@@@@@@@@@@@@@@@@@@+@$-;-%+++++++#%;*;*;%+@@+#-=-=;-=;-;;;;;;;;**;7666666666499999999999",
"@@@@@@@@@@@@@@@@@@@@@@@@@@@@@@@@@@@@@@@@@@@@@@@@@@@@@@@@@@@@$-*--;%++++#++*;**;;%+@@+@%=-;;;;;;;;;;;*;*-,66666666666499999999999",
"@@@@@@@@@@@@@@@@@@@@@@@@@@@@@@@@@@@@@@@@@@@@@@@@@@@@@@@@@@@@*-*;*;%++#+++#;*;*;;%+@@+#---=;;;;;;;;;;=*=2666666666666319999999999",
"@@@@@@@@@@@@@@@@@@@@@@@@@@@@@@@@@@@@@@@@@+@@@@@@@@@+@@@@@@@#*-*-;;*#+++++%;;;;*;-$++@%=-==;;;-;==*;**166666666667666459999999999",
"@@@@@@@@@@@@@@@@@@@@@@@@@@@@@@@@@@@@@@@@@@@@@@@@@@@@@@@@@@+@*---*;*+++++%;*;;;;*--*%---;;;;;;;;-;=;;6666666666666666659999999999",
"@@@@@@@@@@@@@@@@@@@@@@@@@@@@@@@@@@@@@@@@@@@@@@@@@@@+@@@@@@@+#---*;$++++$;**;;;;---;=;-==;-;;;=-=*;666666666666666666589999999999",
"@@@@+@@@@@@@@@@@@@@@@@@@@@@@+@@@@@@@@@@@@@@@@@@@@@@@@@@@@@@+@$--*%++++#*;*;;;-;;;;;;;;;-=;;-=-==;2666666763666666666619999999999",
"@@@@@@@@@@@@@@@@@@@@@@@@@@@@@@@@@@@@@@@@@@@@@+@@@@@@@@@@@@@@@+@@++++++*;;;;;;;;-;;=;;;;;;;;;;===;76666667;;;66666666629999999999",
"@@@@+@@@@@@@@@@@@@@@@+@@@@@@@@@@@@@@@@@@@@@@@@@@@@@@@@@@@@@@@@@@+++++%;;;;;;;-;;;;;;-;;;;;;;==*;766666666;;,66666666645999999999",
"@@+@@@@@@@@@@@@@@@@@@@@@@@@@@@@@@@@@@@@@@@@@@@@@@@@@@@@@@@@@@@@@++++%;;;;;;;;;;;;;;;;;-;;;;;;==176667666666666666666663999999999",
"@@@@@@@@@@@@@@@@@@@@@@@@@+@@@@@@@@@@@@@@@@@@@@@@@@@@@+@@@@@@@@@@+++#*;;;;;;;;;;;;;;;-;;;;=;==-;766676666666666666666664<99999999",
"@@@@@@@@@@@@@@@@@@@@@@@@@@@@@@@@@@@@@+@@@@@@@@@@@@@@@@@@@@@@@@@@#++%;-;;-;;;;*;;;;;=;;;;;;;;=;,766666666666666666666666199999999",
"@@@@@+@@@@@@@oX..o@@+@@@+@@@@@@@@@@@@@@@@@@@@@@@@@@@@@@@@@@@@+@@+++%;-*;*#++%**-;;;;;;;-;;*;=;6666666666666666666666666499999999",
"@@@@@@@@@@@@X      +++@@@@@@+@@@@@@@@@@@@@@@@@@@@@@@@@@@@@@@@@@@++#*;-;%@++++%;=-;;;;;;;;;;;=;6666666666666666766666666489999999",
"@@@@@@@@++@X       X+++@@@@@@@@@@@@@@@+@@@@@@@@@+XX@@++@@@@@@@@@++#*;-;%++@+++*;--;-;;;;;;**=26666666666666666666666666669999999",
"@@@@@@@@+++         +@++@@@@@@@@@@@@@@@@@@@@++@X   .+++@@@@@@@@@++#*;-;$+@@++@%=-=;;;-;;;*;*;6666666666666666666668666666,999999",
"@@@@@@@@+@+         X@@@@@@@@@@@@@+@@@@@@@@++@+.    X@@+@@@@@@@@++#-;;;%+++@+#**;;;;;-;;;=;*;77766666666666666666666666666,99999",
"@@@@@@@@+@o         X@@@@@@@@@@@@@@@@@@@@@@@+@X     .+@+@@@@@@@@+@+$;;;*#+++@*;*;;;;;;;;;*-*;76666666665666666666766666666199999",
"@@@@@@@@++@         o@++@@@@@@@@@@@@@@@@@@@@+++.    X+@+@@@@@@+@@@++%;;;=%#$*;=*;;#+$;;;;*;*;76666664>*;>666666666666686666,9999",
"@@@@@@@@@+@X        +@+@@@@@@@@@@@@@@@@@@@@@+++X    O@+@@@@@@@++@+++#%;;;;;;*;;;;%+++;;;;*-*;66666661*;*;16666666666766666639999",
"@@@@@@@@@+++       +@@+@@@@@@@@@@@@@@@@@@@@+@++@XXX+@+@@@@+@#$#+@@@@+@*;;;;;;;;*;*#O#;**;;;;;,666666,*;-;,666666666666666666<999",
"@@@@@@@@@@+@@X   X@@@@@@@@@@@@@@@@@@@@@@@@@@@@@@++@@@@@@@@+$;;*#+@@@@+@%;*=;;;;;*;**;;;=;;*;*;6666664;;-;66666666666766666666999",
"+@@@@@@@@@@@+@@@@@@@@@@@@@@@@@@@@@+@@@@@@@@@@@@@@@@@@@@@@++%;;;#+@@@@@+@$;-*;;;;;;;;;;;;;;-*=**;664663>>366666666666666666666,99",
"@@@@@@@@@@@@@@@@@@@@@@@@@@@@@@@@@@@@@@@@@@@@@@@@@@@@@@@@@@+$;;*#++@@@@@+@&;*;;;;;;;;;;;;;;;;;=;**,666666666666766666666666666499",
"@@@@@@@@@@@@@@@@@@@@@@@@@@@@@@@@@@@@@@@@@@@@@@@@@@@@@@@@@@+@#&#+@@@@@@@@+@*=*;;;;;;;-;;-;;;;2;*;**,666668766666666666666666666:9",
"@@@@@@@@@@@@@@@@@@@@@@@@@@@@@@@@@@@@@@@@@@@@@@@@@@@@@@@@@@@@@@@@+@@@@@@@@+#**=;;;;;;;;;;;;;671*;;*;;7666666666666666666666666619",
"@@@@@@+@@@@@@@@@@@@@@@@@@@@@@@@@@@@@@@@@@@@@@@@@@@@@@@@@@@@@@@@@@@@@@@@@@+@*;*;;=;;;;-;;;;;;61*;;;*;3666666666666666676666666669",
"@@@@@@@@@@@@@@@@@@@@@+@@@@@@@@@@@@@@@@+@@@@@@@@@@@@@@@@@@@@@@@@@@@@@@@@@@@@$;*;;;;;;=;;;;;;;;;;*;;;=;66666666666666666666666666>",
"@@@@@@@@@@@@@@@@@@@@@@@@@@@@@@@@@@@+@@@@@@@@@@@@@@@@@@@@@@@+@@@@@@@@@@@@@@O#;*=;;;;;;;;;;;;;;;;;;;;;;76666666666668768666666666,",
"@@@@@@@@@@@@@@@@@@@@@@@@@@@@@@@@@@@@@@@@@@@@@@@+@@@@@@@@@@@@@@@@@@@@@@@@@+O#*;*;;;;;;;;;;;;;;;;;;;;*;666666666666666666666666661",
"@@@@@@@@@@+@@@@@@@@@@@@@@@@@@@@@@@@@@@+@@@@@@@@@@@@@@@@@@@@@@@@@@@@@@@@@@@+@*;=;;;;;;;;;;;;;;;;;;;;*;166666666666666666666666665",
"@@+@@@@@@@@@@@@@@@@@@@@@@@@@@@@@@@@@@@@@@@@@@@@@@@@@@@@@@@@@@@@@@@@@@@@@@@+@$;*;;;;;;;;;;;;;;;;;;;;;*;66666766666666666666666666"
};
