/* XPM */
static char *result[] = {
/* columns rows colors chars-per-pixel */
"128 128 53 1 ",
"  c #23140A",
". c #29170B",
"X c #2D190C",
"o c #341D0E",
"O c #391F0E",
"+ c #3A200F",
"@ c #3B2110",
"# c #1E373C",
"$ c #1E383D",
"% c #3C362E",
"& c #2B3636",
"* c #24373A",
"= c #283738",
"- c #2E3939",
"; c #343632",
": c #393530",
"> c #343B37",
", c #422614",
"< c #462916",
"1 c #482A17",
"2 c #4E2E1B",
"3 c #502F1C",
"4 c #4F301D",
"5 c #50301D",
"6 c #4E3526",
"7 c #43352B",
"8 c #4A3528",
"9 c #563523",
"0 c #5A3623",
"q c #5D3925",
"w c #563E2F",
"e c #5E3B28",
"r c #493C32",
"t c #613B26",
"y c #643E29",
"u c #683F29",
"i c #66402C",
"p c #6C432D",
"a c #674430",
"s c #6A4430",
"d c #1F3B41",
"f c #213E44",
"g c #224046",
"h c #24444B",
"j c #26484F",
"k c #274A51",
"l c #294E54",
"z c #2A5057",
"x c #2B5158",
"c c #2F5B62",
"v c #315F67",
"b c #326169",
"n c None",
/* pixels */
"nnnnnnvcvbbbbbbbbbbbbbbbbbbbbbbbbbbbbbbbbbbbbbbbbbbbbbbbbbbbbbbbbbbbbbbbbbbbbbbbbbbbbbbbbbbbbbbbbbbbbbbbbbbbbbbbbbbbbbbbbbbbbbbb",
"nnnnnvbvbbbbbbbbbbbbbbbbbbbbbbbbbbbbbbbbbbbbbbbbbbbbbbbbbbbbbbbbbbbbbbbbbbbbbbbbbbbbbbbbbbbbbbbbbbbbbbbbbbbbbbbbbbbbbbbbbbbbbbbb",
"nnnncbbbbbbbbbbbbbbbbbbbbbbbbbbbbbbbbbbbbbbbbbbbbbbbbbbbbbbbbbbbbbbbbbbbbbbbbbbbbbbbbbbbbbbbbbbbbbbbbbbbbbbbbbbbbbbbbbbbbbbbbbbb",
"nnnvvbbbbbbbbbbbbbbbbbbbbbbbbbbbbbbbbbbbbbbbbbbbbbbbbbbbbbbbbbbbbbbbbbbbbbbbbbbbbbbbbbbbbbbbbbbbbbbbbbbbbbbbbbbbbbbbbbbbbbbbbbbb",
"nnnbbbbbbbbbbbbbbbbbbbbbbbbbbbbbbbbbbbbbbbbbbbbbbbbbbbbbbbbbbbbbbbbbbbbbbbbbbbbbbbbbbbbbbbbbbbbbbbbbbbbbbbbbbbbbbbbbbbbbbbbbbbbb",
"nnvbbbbbbbbbbbbbbbbbbbbbbbbbbbbbbbbbbbbbbbbbbbbbbbbbbbbbbbbbbbbbbbbbbbbbbbbbbbbbbbbbbbbbbbbbbbbbbbbbbbbbbbbbbbbbbbbbbbbbbbbbbbbb",
"nnvbbbbbbbbbbbbbbbbbbbbbbbbbbbbbbbbbbbbbbbbbbbbbbbbbbbbbbbbbbbbbbbbbbbbbbbbbbbbbbbbbbbbbbbbbbbbbbbbbbbbbbbbbbbbbbbbbbbbbbbbbbbbb",
"nvvbbbbbbvvvvvbcvvvvvvvvvvbvvvvbbcbvvvvvbbcbbcbbvvvvbbcbvvvbvvbcvbvvvvvvvbvvvvvbvvvvvvvvvvvvbvvvvvvvvvvbvvvvvvvvbvvvvvvvvvbvvvvb",
"nvvbbbcxxxxxxxxxxxxxxxxxxxxxxxxxxxxxxxxxxxxxxxxxxxxxxxxxxxxxxxxxxxxxxxxxxxxxxxxxxxxxxxxxxxxxxxxxxxxxxxxxxxxxxxxxxxxxxxxxxxxxxxxx",
"nbbbbxlxxxxxxxxxxxxxxxxxxxxxxxxxxxxxxxxxxxxxzxxxxxxxxxxxxxxxxxxxxxxxxxxxxxxxxxxxxxxxxxxxzxxxxxxxxxxxxxxxxxxxxxxxxxxxxxxxxxxxxxxx",
"nbvbxxxxxxxxxxxxxxxxxxxxxxxxxxxxxzxxxxxxxxxxxxxxxxxxxxxxxxxxxxxxxxxxxxxxxxxxxxxxxxxxxzxxxxxxxxxxxxxxxxxxxxxxxxxxxxxxxxxxxxxxxxxx",
"nbbxxxxxxxxxxxxxxxxxxxxxxxxxxxxxxxxxxxxxxxxxxxxxxxxxxxxxxxxxxxxxxxxxxxxxxxxxxxxxxxxxxxxxxxxxxxxxxxxxxxxxxxxxxxxxxxxxxxxxxxxxxxxx",
"vvvxxxxxxxxxxxxxxxxxxxxxxxxxxxxxxxxxxxxxxxxxxxxxxxxxxxxxxxxxxxxxxzxxxxxxxxxxxxxxxxxxxxxxxxxxxxxxxxxxxxxxxxxxxxxxxxxxxxxxxxxxxxxx",
"vbxxxxxxxxxxxxxxxxxxxxxxxxxxxxxxxxxxxxxxxxxxxxxxxxxxxxxxxxxxxxxxxxxxxxxxxxxxxxxxxxxxxxxxxxxxxxxxxxxxxxxxxxxxxxxxxxxxxxxxxxxxxxxx",
"cvlxxxxxxxxxxxxxxxxxxxxxxxxxxxxxxxxxxxxxxxxxxxxxxxxxxxxxxxxxxxxxxxxxxxxxxxxxxxxxxxxzxxxxxxxxxxxxxxxxxxxxxxxxxxxxxxxxxxxxxxxxxxxx",
"vcxlxxxxxxxxxxxxxxxxxxxxxxxxxxxxxxxxxxzxxxxxxxxxxxxxxxxxxxxxxxxxxxxxxxxxxxxxxxxxxxxxxxxxxxxxzxxxxxxxxxxxxxxxxxxxxxxxxxxxxxxxxxxx",
"vxxzxxxxxxxxxxxxxxzxxxxxxxxxxxxxxxxxxxxxxxxxxxxxxxxxxxxxxxxxxxxxxxxxxxxxxxxxxxxxxxxxxxxxxxxxxxxxxxxxxxxxxxxxxxxxxxxxxxxxxxxxxxxx",
"vxzxxxxxxxxxxxxxxxxxxxxxxxxxxxxxxxxxxxxxxxxxxxxxxxxxxxxxxxxxxxxxxxxxxxxxxxxxxxxxxxxxxxxxxxxxxxxxxxxxxxxxxxxxxxxxxxxxxxxxxxxxxxxx",
"vxzxxxxxxxxxxxxxxxxxxxxxxxxxxxxxxxxxxxxxxxxxxxxxxxxxxxxxxxxxxxxxxxxxxxxxxxxxxxxzxxxxxxxxxxxxxxxxxxxxxxxxxxxxxxxxxxxxxxxxxxzxxxxx",
"vxzxxxxxxxxxxxxxxxxxxxxxxlxxzxzxxxxxxxxxxxxxxxxxxxxxxxxxxxxxxxxxxxxxxxzxxxxxxxxxxxxxxxxxxxxxxxxxxxxxxxxxxxxxxxxxxxxxxxxxxxxxxxxx",
"vlxxxxxxxxxxxxxxxxxxxxxxxzxklxxxxxxxxxxxxxxxxxxxzxlzxzxxxxxxxxxxxxxxxxxxxxxxxxxxxzxxxxxxxxxxxxxzxzlxzxxxxxxxxxxxxxxxxxxxxxxxxxzz",
"clxxzzzlzxxxxxxxxxxxxxxxzzzhlxzxxxxxxxxxxxxxxxxxzxlkzxzxxxxxxxxxxxxxxxxxzxzzxzxxxxxxxxxxxxxxxxxzxlhxzzxxxxxxxxxxxxxxxzxxxxxxxxzh",
"xxlxzzjlzxxxxxxxxxxxxxxxzxj#kxzzxxxxxxzzxxxxxxxxxxjdkzzxxxxxxzxkkxxlxxxlzxjhxxxxxxxxxzxxxxxxxxxzxlfkxzxxxxxxzxzhxzxxxxxxxzzxxzkd",
"cxxxzzdjzxxxxxzxllzxzxxzxl$#dlxzzxxzzlzzzxxxxxxzxzd#jxzzxxxxzzxg$kxxxxxxzjddlxzxxzzzzlxzxxxxxxzzzf#fxzzxxxxzxxj#jxzxxxxxzfhljf#$",
"xxzzzf$hzzzxxxzxfdhzxzzzj$#$#dkxlzzxh$hzxzxxxzzzxh#$#jzzxxxzzxj#$djlzzxlj$$$djzlzzzjddzxzxxxzzzzjd$$fxzzzxzzzk$#$hzzxxzldd$$$$$$",
"lxzzfd$dzzxxzzzfd$$dhhfd##$$$$#dhhg$#$#hzxzzxzzlg##$$#dlxxzzzd#d$$$dfhhf$$$$##dhhhd$$#fzxzxxzzzj$$###dlxzzxzfd$$##dfhfd##d$$$$$*",
"*df$##$$flzzljd$#$$$$$$$#$$$$$$$$$$#$*##djlzzljdd#d#$$d#dffdd#d#$$$$$$$$$$$$####$$d#$$#dhkzzlhd#**#####dffd$d$$$$$$$d$$$$$$$###*",
"nd$$$$$$$$$$$$$$$$$$$$$$$$$$$$$$$$#$#;=$####d#$$####$$$$$$$$####$$$$$#$$$$$$d###$$$##$#$$$#d#d##*:$##d##$#d$$$$$$$$$$$$$$$$$$d*;",
"n$$$$$$$$$$$$$$*$$#$&*$$$$$$$$$$$$#$&9&##$$$$$$$#$$$$$$$$$$$$$$$##&:*$#$$$$$$$##*&d###$$$$$$$$#d=6&##$$$###$$$$$$$$$$$$$$$$$###8",
"nnn$$$$&>$$$$$$$$$$#78*$*$$$$$$$$$$#70:$##$$$$$$$$$$$$$$$#$$$$$$$#%9:#$#$$$$$*#*78####$$$$$$$###%07#$$$$d#$$$$$#$$$$$$$$$$$$d#:9",
"nnnnnwysu>##$$$$$#$%99:$$$$$$$$$##d:9e0&#$#$$$$$$$#$#d::##$$$$$$#%999;d##$$$$$#%99%##$$$$$$$#$#;0q9;#$$$d#$$$$$$$#:%$#$$$$$$$:9t",
"nnnneuspppr*$$###&89099:$#$$$$$$##:90u06*$#$$$$$$$###:997*#$*$d=790q99%*$###$=799q97###$$$$#$#;90uq6&#$$*$$$$$#$#&998*$#$$**799u",
"nnnnypppppi98%:76009ii998&$$$$$$=899ypq96;###$$$$$$#%999998%:76999epe99987:76999ty998&$$#$$$*799esy99;d#$$$$$$##;9999987:78999eu",
"nnnniippppp99999q59eipq9996%::78999epppq998*$#$$$$&699qq999999999eppue909999999qppt99967%:%8999qppue998**$$$$$;7990e990999999eps",
"nnnnipppppy999995qppppp09999999999eipppp999997%789999qipe999999qtppppiy0999990tppppe9999999999qppppu999997%7899990spt9909999ypsp",
"nnnnuppppppiyqeeppppppppt99999999yppppppiq9999999999qpppppyqqeypppppppppyeqqypppppppy09999999qppppupp099999999990pupsuuteeyspupp",
"nnnneppppppsppppppppppppppieqqtippppppppppy09999tqqipppppppsppppppppppppspppppppppppppyyqeeypppppppuppt99999999usspppppppppspppp",
"nnnnnuppppppppppppppppppppppppppppppppppppppyyteppppppppppppppppppppppppppspppppppppppppppppppppppppppspiiqytipppppppspppppppspp",
"nnnnnsppppppppspppppppppppppppppppppspppppspppspppppppppppppppppppppppppppppppppppuppppppppppppppt9upppppppppppppppppppppppuuppp",
"nnnnnqupppppppppppppppppppppppppppppppppppppppppppppppppppppppppsppppspppppppppu99225qppppppppppy229ppppppppppppppppppppppu330pp",
"nnnnnnpuppppppppppppppppppppppppppppppppppsppppppppppppppppppppppppppppppppppp032355529uppppppppp530pppppppppppppppppppppp5535up",
"nnnnnneupppppssppppppppppppppppppppppppppppppppppppppppsppppppppppppppppppppp53553455525tpppppppputppppppppppppppppppppppp9335up",
"nnnnnnnpppppppppppppppppppt5upppppspppppppppppppppppppppppppppu500yppppppppp5555555555545upppppppppppppppppppuupppppppppppu950pp",
"nnnnnnnupppppsppppppppppt5455tpppppppppppppppppppppppppppppppi53325tppppppu555555553555525uppppppppppsppppppt235pppppppppppppppp",
"nnnnnnnppppppppppppppppu555555ppppppppppppppppppppppppppppppu5555555yppppp53555555535555525pppppppppppppppppt525pppppppppppppppp",
"nnnnnnyppppppppppppppppu555555upppppppppppppppppppppppppppppt5555553tppppq55555545ui55555555ypppppppppppppppt535pppppppppppppppp",
"nnnnnnpppppppppppppppppu555555pppppppppppsppppppppppppppppppt5355532tpppt555555525ppt25555535pppppppppppppppptqppppppppput050555",
"nnnnnnpppppppppppppppppp555555upppppppptttyuppppppppppppppppu5255533uppt5555555555uu5555555339pppppppppppppppppppppput5355553555",
"nnnnnnupppppppppppsppppppq35quppppppu5555555350upppppppppppppq255520ppu555555555555552554555329yppppppppppppppppppp5255555555555",
"nnnnnnpppppppppppspppppppppppppppppq5355555555555qppppppppppppt555qppt32555545354555555555555525qpppppppppppppppt555555255525555",
"nnnnneupppppppppppppppppppppppppppq55555555555555555tppppppppppiupppq25555555555553555555525545325qtyppppppuuq05555555240ppq5555",
"nnnnnpyppppppppppppppppppppppppppu335555555555555355555tipppppppppt525455545555455545555555555555555325522555354555555320ppu3555",
"nnnnnippppppppppppppppppppppppppu52555555555555555555555555uttt0553555555535555555555555555292455555555555455555555555525qu53555",
"nnnnqppppppppppppppppppppppppppp545555555555555055355555255525555555555555555453545555455555525555555545555553555555555555555555",
"nnnneppppppppppppppppppppppppppt5355555555555tpupp555555555555555553555245545555553555355455555553555555555555555555555555555555",
"nnnnippppppppptupppppppppppppp553555555555555uppppt525555555555555555uq255555545555545555555453555554554552555555555555555555555",
"nnnnypppppsppp55pppppppppppppt53555555552552qpppppp52555555555555545255255555552555555455555555555555525qpq253555555545555535545",
"nnn0upppppppppttpppppppppppp55555555545555520pppppi52555555555545555955555455555555455555354535555534555tpt255554555555555555555",
"nnnqppppppppppppppppppppppp555555555555555543tpppp5555555555355555552255455555554555555554554554554555235q5255555525555555545555",
"nnnypppppppppspppppppppppi55555535555555555535qyp55552,1252554555453545553555555555554555555555555555555555555252225255555553455",
"nnnuppppppppppppppppppppq3355555553545555455555555352,++1523555535555355555555453252,@@<5225545555555555555555252<+3235555555555",
"nnniipppppppppppppppppp533535355555555555555555555351++O,34355545545545455555555252@+@@@<535555555555455554555243225245555455554",
"nnnppppppppppppppppppp55335i5555545555555555555555352,O+15555555522351+,2535555245<O@@@+,225555553532552555555555525555553555355",
"nnnpppppppppsppspppppu5535ppp5555555525225255545555322125555555552292,O@2525555245<+@@@+@2525553521+++,3325555555455555455554555",
"nnnpppppppppppppppppt53555ipp5444555322,@25255555455555555555555452251@,33255555252O@@@@,522552552+@@+@<555555555525555555555355",
"nnnipppppppppppppppp535553tpt5455555252@,252555555555555555555555555559253455555452<O@@@222555252,+@@@+@522555545555555555555555",
"nnnipppppppppppppppp555555555555555555555555555555555552551@+@,1243555555553545552522<12525555252<++@@+@532555555555555555555545",
"nnntpppppppppppppppi5555555555555555555455555455554555355,+@@@@@@,12535355555555555523455555553551O+@++<52555555552,@,<525555555",
"nnnqpppppppppppppppt5555555555455555553555555552545555451+++@@@+@@+@,13322525555555555555555212352,+@O@42555552552@@@@@,52554555",
"nnnnpppppppppppppppt5355555535555455555555552422<<125425,+@+@@@@@@@@@+@@<22925555554552432,@@@@@1422<225255555252,@@@@O@23255355",
"nnnnpppspspppppppppu55555555555552555455555342,+@@+,2552,+@@@@@+@@@@@@@+@@@@,1122425221<@+@@@@@+@,223555555555354@@@@@@@12255554",
"nnnnpppppspppppppppi5355555555455292555555524,+@@++O@251++@@@+@@,@+@@@@@@@@@@@@@@@@@@++@@@@@@@@@++,22255555555252,@@@@O@15255555",
"nnnnnipppppppppppppp5333535555554555553555221@+@@@@@O,9,++@@+,25222@+@@@@@@@+@@@@@@@@@@++<12,++@@@+,22255555552531+@@++@24255555",
"nnnnniipppppppppppppq33345555455555545555529<@+@@@@@O,5,+@@+@2523291@O@+@@@@@@@@@@@@@@+@152342@@@@++,3325555455532<+@@@242555555",
"nnnnnntpppppppppppppt53355555553555555555555<+@@@@@@O,3,++@+<3245242,+@@@@@@@@@@@@+@@@+,532544<+@@++@,55555555543922112345555555",
"nnnnnnqippppppppppppp533555555543545555455351@+@@@@@O,2,+@+@242555251+@@@@@@@@@@@@@@@++,5352551+@@@@+@1525555555225555555555541,",
"nnnnnnniupppppppppppp543553555555552553554255@+@@@@+@22@+@++254555291O@@@@+@@+@@@@@@@@+,545242<+@@@@@+@242555555255555555521,@@@",
"nnnnnnnnupppppttpppppt435555555555525455555252@@@@@+151@+@@+<5225232,O@@@@@@@@@@@@@@@@+@252346@@@@@@@+@@553555555555555522@@@@@@",
"nnnnnnnnpuppu5335ppppp55555553355592555555555521,@,255<+@@+++253223<@+@@@@@@@@@@@@@@@@@+,2552@+@@@@+@@+@,5335555525555221@@@@@@@",
"nnnnnnnniuppt5353ppppp533555553t0525554555555555555335,O@@++++1552<@O@@@@@@@@@@@@@@@@@+++++,+@@@@@@@@@@+@@1252555555521,@@@@@@@@",
"nnnnnnnniippq5552pppppt53553555pp545555555555545555252,++@@@@@+@@@@@@@@@@@@@@@@@@@@@@@@+@@@@@@@@@@@@@@@@@@@@@@,,,,,,@@@@@@@@@@@@",
"nnnnnnnnppppp555tpppppp5335555350235355545545535555222@+@@@@@@@@@@@@@@@@@@+@@O@@@@@@@@@@@@@@@@+@@@@@@@@@@@@@@@@@@@@@@@@@122,+@@@",
"nnnnnnneypppppuuppppppp533555555555555555355545555245<++@@@@@@@@@@@@@@@@@+@1<O@+@@+@@@@@+@@@@@@@@+@@@@@@@@@@@@@@@@@@@+@13355@@@@",
"nnnnnnntpppppppppppppppq33555555455555555555555555352@++@@@@@@@@@@@@@@@@@@@@@@@@@@@@@@@@@@@@@@@@@@@@@@@@@@@@@@@@@@@@@@@222521O@@",
"nnnnnniipppppppppppppppp5355555555255555555555543225,+@@@@@@@@@@@@@@@@+@@@@@@@@+@@@@@@@@@@@@@@@@@@@@@@@@@@@@@@@@@@@@@+@22332,@@@",
"nnnnnnippppppppppppppppp535555552522225355455535225,++@@@@@@@@+@+@@@@@@@@@@@@@@@+@@@@+@@@@@@@@@@@@@@@@+O@1<@@@@@@@@@@+@,5232@@@@",
"nnnnniippppppppppppppppp5555555552@@@<352555555252,++@@@@@@@@@@@@@@@@@@@@@@@@@@@@@@@+@@@@@@@@@@+@@@@@@@@2352@@@@@@@@@@+@,1,,+@@@",
"nnnnnppppppppppppppppppp555555552@@@@+1532555523<+O@@@@@+@@@@@@@@@@@@@@@@+@@@@@@@@@@@@@@@@@+@@@@@@@@@@@,5252,+@@@@@@@@@@@@@@@@@@",
"nnnntupppppppppppppppppi525555352@++++<53255254,+@@@@@@@@@@@@@@@@@@@@+@@@@@@@@@@@@@@@@@@@@@@@@@@+@@@@O+,4252,@@@@@@@@@@@@@@@@@@@",
"nnnnppppsppppppppppppppt525555224@++++15232225,+@@@@@@@@@@@+@@@@@@@@@+@@@@@@@@@@@@@@@@@@@@@@@@@@@@@@@@@@2452@@@@@@@@@@@@@@@@@@@@",
"nnnnpppppppu0qipppppppp55555554251+++<2555225<++@@@@+@@++@@@@@@@@@@@++++@@@@@+++X   X@++@@@@+@@@@@@@@@@O@,@@@@@@+@@@@+@@@@@@@@@@",
"nnnqppppppq5255qppppppq555555555252<245255292@+@@@++1552@+@@@@@@@+@+Ooo+@+@@+@+.     .+++@@@@@@@@@@@@@@@@@@@@@@@@@@@@@@@@@@@@@@@",
"nnnypppppu525555uppppp5255554555555555555555,+@@@@+,52551@@@@@@@+++o   .@+++@@X       X@+@@@@@@@@@@@@@@@@@@+@@@+@@@@+@@@@@@@@@@@",
"nnnpppppp5555552qppppt5355555355555555555252@+@@@@+253252@+@@@+@+@o.    o@++@+        .@++@@@@@@@@@@@@@@@@@@@@@@@@@@@@@@@@@@@@@@",
"nnnpippppq525552qpppp52554555554555555555251@+@+@@O155452@+@@@@@+@O     X@++@O.       .+++@@@@@@+@@@@@@@@@+@@@@@@@+@@@@@@@@@@@@@",
"nnnppppppu524555uppptuppt5255555555555555252@+@@+++,2525,+@@@@@@O@O.    O@++++.       .@++@@@@+@@@@@@@@@@@@@@@@@@@@@@@@@@@@@@@@@",
"nnnpppppppp5552tppppuppip0333553555555555251@+@@@@@+,<1@++@@@@@@@+@o. .X@@O@O@X       X@++@@@@+@@@@@@+@@@@@@@@@@@@@@@@@@@@@@@@@@",
"nnnuppppppppttpppppppppppu333555555555555253@+@@@@@@++@@@@@@@@@@@@@+OO+@O@@@@@OX     .@++@@@@@@@@@@@@@@@@+@@@@+@+X. .X@@@@@@@@@@",
"nnnppppppppppppppppppppppu335555555535555555<+@+@@@@@@@@@@@@@@@@@@@@@@@@@@@@@O@OX...o+O+@@@@@@@@@@@@@@@@@@@@@+@+X     X@+@@@@@@@",
"nnnpppppppsppppppppppuppp5335555551+@25555455@++@@@@@@@@@@@@+@@@@@@@@@@@@@@@@@@@@@@@@@@@@@@@@@@@@@@@@@@@@@@@@+@+.      +++@@@@@@",
"nnnpppppppppppppppppp5tt5445535535,+O255555252@+@@@@@@@@@@+@@@@@@@@@@@@@@@@@@@@@@@@@@@@@@@@@@@@@@@@@@+@@@@@@@+@+       o@+@@@@@@",
"nnnppppppppppppppppppu5255355555352,15555555222,+@@@@@@@@@@@@@@+@@@@@@@@@@@@@@@+@@@@@@@+@@@@@@@@@@@@@@@@@@@@@+@+       +++@@@@@@",
"nnnppppppppppppppppppp555555555555553355554552532++@@@@@@@@@@@@@@@@@@@@@@@@@@@@@@@+@@@@@@@@@@@@@@+@@@@@@@@@+@+@+X     .++@+@@@@@",
"nnnpppspppppppppppppppu5555355555555555555555552231@+@@@@@@@@@@@@@@@@@@@@@@@@@@@@@@@@@@@@@+@@@+@@@@+@@@@@@@@@++@+X    +++@@@@@@@",
"nnniupppppppppppppppppp54555555555555555553355555552,++@@@@@@@@@@@@@+@@@@@@@@@@@@@@@@@@@@@@@+@@@@@@@@@@@@@@@@@@@@@+Xo@o@@@@+@@@@",
"nnnypppppppppppppppppppu34555355555555555252,,,252251++@@@@@@@@@+@@@@@@@@@@@@@@@@@@@@@@@@@@@@@@@@@@@@@+@@@@@@@+@@@@@@@@@@@@@@@@@",
"nnnqpppppppppspppppppppp5335554555555555251@@@+@25223,O@@@@@@@++@@@@@+@@@@@@@@@@@@@+O@@@@@@@@@@@@@@@@@@@@@@@@@@@@@@@@@@@@@@@@@@@",
"nnn0pppppppppppsppppppppi54355555555555535,O@@+O<5335<+@@@@@@@@+@@@@@@@@@@@@@+@@@@@@@@@@@@@@@@@@@@@+@@@+@@@+@@@+@@@@@@@@@@@@@@@@",
"nnnnppppspppppppppppppppp55545555555555352@@@@@O,25551@+@@++,24<@+@@@@@@@@@@@@@+@@@@@@@@@@@@+@@@@@@@@@@@@@@@@@@@@@@@@@@@@@@@@@@@",
"nnnnpppppppppppppppppppppi5535pp5555555225,@@@@O<4525<@+@++,2255,O@@@@@@@@@@@@@@@@@@@@@@@@+@@@@@@@@@+@@@@@@@+@@@@@@@+@@@@@@@@@@+",
"nnnnuppppppppppspppppppppp55tpppp525545535<@O@O@25225<+@@@O<52351@O@@@@@@@@@O@OOO@@@@@@@@@@@@@@@@@@@@@@@@+@@@@@@@@@@@@@@+@@@@@@@",
"nnnnpppppppppppppppppppppp55ippppq5255555451,@,222255<++@@O,42251@@@@@@+@@@@@o.  XO@O@@@@@@@@@@@@+@@@@@@@@@@@@@@@@@@@@@@@@@@@@@@",
"nnnpppppppppppppppppppppppp5pppppt5355555554553555352,+@@@@@1262@@@@@@@@@@+@+.    .@+@@@@@@@@@@@@@@@@@@@@@@@@@@@@@@@@@@@@@@@@@@@",
"nnnpppppspppppppppppppppppp5uppup55555555555555555351@+@@@@@@,@@@@@@@@@@@@+@O.    .@++@@@@@@@@@@@@@@@@@@@@@@@@@@@@@@@@@@@@@@+@@@",
"nnnpppppspppppsppppt5ppppppq3tuu04255555455555555225,@@@@@@@@@@@@@@@+@@@@@O@O.    X@++@@@@@@@+@@@@@@@@@@@@@@@XXXX+@+@@@@@@@@@@@@",
"nnnpppppppppppppppt555pppppt533355535555555355555252@@@@@@@@@@@@@@@@@@@@@@++@X    o@+@@@@@@@@@@@@@@@@@@@@@@O      o++@@@@@@@@@@@",
"nnppppppppppppppppt535pppppt53555545555555545555355,O@@@@@@@@@@@@@@@@@@@+@@+@+oXXo@+@@@@@+@@@@@@@@@@@@@@O@O        +++@@@@@@@@@@",
"nnppppppspppppppppp55upppppt53555555455555555555252@O@@@@@@@@@@@@@@@@@@@@@@@@@@@@@@@@@@@@@@@@@@@+@@@@@@O@@X        X@+@@@@@@@@O@",
"nnpppppppppppppppppppppppppt4355555555555555545255,@@@@@@@@@@@@@@@@@@@@@@@@@@@@@@@@@@@@@@@@@+@@@O@@@@@@+@@X        .@+@@@@@@@@@@",
"ntpppppppppppppppppppppppppt5355545355555453555251@@,1@O@@@@@@@@@@@@@@@@@@@@@@@@O@@@@@@@@@@@@@@@@@@@@@@+@@X         @+@@@@@@@@@@",
"nppppppppppppppppppppppppppt545435545553321125325,O@152,+@@@@@@@@@@@@@@@@@@@@@@@@@@@@@@@@@@@@@@@@@@@@@@O@+o        X@O@@@@@@@@@@",
"npppppppppppppspppppppppppp53555555555232,@@+1525,O@232@o@@@@@@@+@@@@@@+@@+@@@@@@@O@@@@@@@@@@@@@@@@@@@@@+@O        O@O@@@O@@@@@@",
"qppppppppppppppppppppppppup53455455554251@+@+,245,O+,,@O@@@@@@@@@@@@@@@@@@@@@@@@@@@@@@@@@@@@@@@@@@@@@@@@+@@O.     o@O@@@@@@@@O@@",
"tpppppppppppppppppppppppppu5355555555535<@O@O,2551@+@@@@@@@@@@@@@@@@@@@@@@@@@@@@@@@@@@@@@@@@@+@@@@@@@@@@@O@+OX.XXO@@@@@@@@@@@@@@",
"ppppppppppppppppppppppppppp53444355555252+++O<5232,O@@@@+@@@@@@@@@@@@@@@@@@@@@@+@@@@@@@@@O@@@@@@@@@@@@@@@@@@@@@@@@@@@@@@@@@@@@@@",
"ppppppppppppppppppppppppppt534445554555342,@<25235,O@@+@@@@@@@@@@@@@@@@@@@@@@@@@+@@@@@@@@@@@@@@@@O@@@@@@@@@@@@@@@@@@@@@@@@@@@@@@",
"pppppppppppppppppppppppppp5533555555555555555555352,O@@@@@@@@@@+@@@@@@@@+@@@@@@@@@@@@@@@@@@@@@@@@@@@@@@@@@@@@@@@@@@@@@@@@@@@@@@@",
"ppppppppppppppppppppppppppt435554555555555555555235,O@@@@@@@@@@@@@@@@@@@@@@@@@@@@@@@@@@@@@@@@@@@@@@@@@@@@@@@@@@@@@@@@@@@O@@@@@@@"
};
